<svg version="1.1" id="Layer_1" xmlns="http://www.w3.org/2000/svg" xmlns:xlink="http://www.w3.org/1999/xlink" x="0px" y="0px"
	 width="100%" viewBox="0 0 800 800" enable-background="new 0 0 800 800" xml:space="preserve">
<path fill="#FEFEFE" opacity="1.000000" stroke="none" 
	d="
M1.000000,216.000000 
	C1.000000,144.000000 1.000000,72.500000 1.000000,1.000000 
	C267.666656,1.000000 534.333313,1.000000 801.000000,1.000000 
	C801.000000,267.666656 801.000000,534.333313 801.000000,801.000000 
	C534.333313,801.000000 267.666656,801.000000 1.000000,801.000000 
	C1.000000,606.166687 1.000000,411.333344 1.000000,216.000000 
M332.125122,103.006310 
	C324.058167,103.027145 315.991180,103.047981 307.993713,102.125137 
	C307.993713,85.530930 307.993713,68.936714 307.993713,51.966885 
	C290.494995,51.966885 273.434113,51.966885 255.988510,51.966885 
	C255.988510,43.193039 255.988510,34.787144 255.988510,26.197281 
	C247.200241,26.197281 238.802505,26.197281 230.334473,26.197281 
	C230.334473,60.552628 230.334473,94.713310 230.334473,128.931198 
	C247.803787,128.931198 264.939789,128.931198 282.006287,129.874893 
	C282.006287,138.143860 282.006287,146.412811 282.006287,155.051422 
	C264.479706,155.051422 247.420197,155.051422 230.196976,155.051422 
	C230.196976,172.485550 230.196976,189.541534 230.196976,206.632812 
	C238.913895,206.632812 247.430344,206.632812 256.327209,206.632812 
	C256.327209,197.863297 256.327209,189.458435 256.327209,181.350281 
	C265.121521,181.350281 273.524017,181.350281 282.276367,181.350281 
	C282.276367,207.084976 282.276367,232.469238 282.276367,257.924164 
	C291.117950,257.924164 299.593353,257.924164 308.005829,258.869507 
	C308.026825,267.271606 308.047852,275.673676 307.125153,284.006287 
	C290.100861,284.006287 273.076569,284.006287 256.068817,284.006287 
	C256.068817,301.514526 256.068817,318.295166 255.125107,335.006287 
	C246.864426,335.006287 238.603745,335.006287 229.844727,335.006287 
	C229.844727,309.084167 229.844727,283.605103 229.844727,257.913513 
	C221.205994,257.913513 213.072327,257.913513 205.007080,257.986755 
	C205.007080,257.986755 205.080170,258.055298 205.004730,257.113678 
	C205.004730,248.854477 205.004730,240.595276 205.004730,232.334595 
	C178.739258,232.334595 152.931961,232.334595 127.075829,232.334595 
	C127.075829,241.134918 127.075829,249.601852 126.130470,258.005829 
	C117.768417,258.005829 109.406357,258.005829 101.075829,258.005829 
	C101.075829,267.176575 101.075829,275.622681 100.130470,284.005829 
	C92.211685,284.005829 84.292900,284.005829 76.350067,284.005829 
	C76.350067,292.916382 76.350067,301.414307 76.350067,309.931213 
	C84.824615,309.931213 92.950226,309.931213 101.006310,310.874878 
	C101.029488,327.606171 101.052658,344.337494 100.130470,361.005829 
	C92.198029,361.005829 84.265587,361.005829 75.957489,361.005829 
	C75.957489,369.845215 75.957489,378.246246 75.957489,387.176727 
	C58.408169,387.176727 41.234997,387.176727 24.330349,387.176727 
	C24.330349,404.437134 24.330349,421.154419 24.330349,437.931213 
	C33.131550,437.931213 41.603687,437.931213 50.006313,438.874878 
	C50.006313,447.139496 50.006313,455.404114 50.006313,464.044556 
	C41.156475,464.044556 32.755661,464.044556 24.201775,464.044556 
	C24.201775,472.821472 24.201775,481.214478 24.201775,490.130981 
	C49.888836,490.130981 75.380302,490.130981 101.075806,490.130981 
	C101.075806,499.125885 101.075806,507.597290 100.130470,516.005859 
	C92.194939,516.005859 84.259407,516.005859 75.943222,516.005859 
	C75.943222,524.524719 75.943222,532.594910 75.943222,541.029419 
	C58.501110,541.029419 41.443054,541.029419 24.195856,541.029419 
	C24.195856,549.801270 24.195856,558.197632 24.195856,566.674561 
	C58.545738,566.674561 92.700844,566.674561 126.931190,566.674561 
	C126.931190,557.875000 126.931190,549.399719 127.874893,540.993713 
	C136.131882,540.993713 144.388870,540.993713 153.158081,540.993713 
	C153.158081,523.748962 153.158081,506.924683 153.158081,489.924194 
	C162.141129,489.924194 170.604950,489.924194 179.005829,490.869537 
	C179.005829,499.232391 179.005829,507.595245 179.005829,515.931213 
	C188.180450,515.931213 196.628113,515.931213 205.006302,516.874878 
	C205.006302,524.802551 205.006302,532.730225 205.006302,541.026611 
	C196.172562,541.026611 187.776428,541.026611 179.359100,541.026611 
	C179.359100,549.915344 179.359100,558.422974 179.359100,566.924255 
	C196.501022,566.924255 213.284866,566.924255 230.005829,567.869629 
	C230.005829,576.121277 230.005829,584.372864 230.005829,592.649536 
	C238.916351,592.649536 247.414566,592.649536 255.931244,592.649536 
	C255.931244,583.841492 255.931244,575.382935 256.874969,566.993713 
	C273.784180,566.993713 290.693390,566.993713 307.644165,566.993713 
	C307.644165,558.091919 307.644165,549.584290 307.644165,540.707520 
	C298.895142,540.707520 290.500763,540.707520 281.931091,540.707520 
	C281.931091,532.195251 281.931091,524.059814 282.874817,515.993713 
	C299.482056,515.993713 316.089294,515.993713 333.092255,515.993713 
	C333.092255,524.553650 333.092255,532.632568 333.092255,540.749023 
	C341.899414,540.749023 350.304047,540.749023 359.105713,540.749023 
	C359.105713,532.428650 359.105713,524.349609 359.105713,516.255371 
	C367.913574,516.255371 376.318970,516.255371 384.742889,516.255371 
	C384.742889,533.250549 384.742889,549.988220 384.742889,567.123779 
	C376.080566,567.123779 367.670654,567.123779 358.871216,567.123779 
	C358.871216,575.927979 358.871216,584.338623 358.871216,593.135620 
	C333.067780,593.135620 307.662170,593.135620 282.270599,593.135620 
	C282.270599,610.606079 282.270599,627.676758 282.270599,644.725281 
	C290.948517,644.725281 299.353821,644.725281 308.153259,644.725281 
	C308.153259,636.046387 308.153259,627.634460 308.153259,619.279175 
	C316.629028,619.279175 324.701874,619.279175 333.167725,619.279175 
	C333.167725,627.964600 333.167725,636.376892 333.167725,645.172791 
	C341.973694,645.172791 350.386047,645.172791 358.713196,645.172791 
	C358.713196,670.977966 358.713196,696.381714 358.713196,722.183167 
	C350.019409,722.183167 341.607910,722.183167 333.295410,722.183167 
	C333.295410,739.322876 333.295410,756.060791 333.295410,772.702515 
	C359.327728,772.702515 385.064575,772.702515 410.698273,772.702515 
	C410.698273,764.329834 410.698273,756.257019 410.698273,747.792847 
	C401.990723,747.792847 393.578735,747.792847 385.306030,747.792847 
	C385.306030,738.982605 385.306030,730.575623 385.306030,721.778442 
	C394.020172,721.778442 402.432617,721.778442 410.924194,721.778442 
	C410.924194,712.896240 410.924194,704.413696 411.869568,695.994141 
	C419.807098,695.994141 427.744629,695.994141 436.044617,695.994141 
	C436.044617,721.849487 436.044617,747.236694 436.044617,772.796570 
	C444.814301,772.796570 453.212524,772.796570 462.147705,772.796570 
	C462.147705,738.431885 462.147705,704.265625 462.147705,669.715332 
	C471.088348,669.715332 479.493835,669.715332 487.666077,669.715332 
	C487.666077,661.252258 487.666077,653.183228 487.666077,644.737427 
	C478.930634,644.737427 470.524658,644.737427 461.746704,644.737427 
	C461.746704,635.944031 461.746704,627.538086 461.746704,619.068909 
	C452.878632,619.068909 444.401489,619.068909 435.993713,618.125183 
	C435.993713,601.210449 435.993713,584.295776 435.993713,566.824829 
	C427.412689,566.824829 419.221527,566.824829 411.330566,566.824829 
	C411.330566,549.550598 411.330566,532.836121 411.330566,515.931152 
	C419.799622,515.931152 427.937683,515.931152 436.006287,516.874817 
	C436.006287,524.809998 436.006287,532.745178 436.006287,541.060181 
	C444.861786,541.060181 453.266052,541.060181 462.045471,541.060181 
	C462.045471,549.842712 462.045471,558.247131 462.045471,567.013916 
	C479.486969,567.013916 496.545135,567.013916 513.638184,567.013916 
	C513.638184,575.909912 513.638184,584.425903 513.638184,593.321289 
	C504.873138,593.321289 496.469269,593.321289 488.347778,593.321289 
	C488.347778,602.112915 488.347778,610.513977 488.347778,619.287537 
	C497.096069,619.287537 505.500000,619.287537 514.272827,619.287537 
	C514.272827,628.077026 514.272827,636.480774 514.272827,645.254822 
	C522.728943,645.254822 530.799866,645.254822 539.075745,645.254822 
	C539.075745,653.784790 539.075745,661.926758 538.130371,670.005859 
	C530.100525,670.005859 522.070740,670.005859 514.068726,670.005859 
	C514.068726,679.182434 514.068726,687.629028 513.125061,696.006287 
	C504.874329,696.006287 496.623596,696.006287 488.351166,696.006287 
	C488.351166,704.918152 488.351166,713.416382 488.351166,721.931274 
	C497.159424,721.931274 505.617554,721.931274 514.006287,722.874939 
	C514.006287,739.468811 514.006287,756.062622 514.006287,772.638062 
	C548.609619,772.638062 582.769836,772.638062 617.318176,772.638062 
	C617.318176,764.206482 617.318176,756.134827 617.318176,748.346802 
	C626.113586,748.346802 634.516235,748.346802 643.293396,748.346802 
	C643.293396,756.764343 643.293396,764.836548 643.293396,772.662903 
	C651.755310,772.662903 659.824097,772.662903 668.268433,772.662903 
	C668.268433,764.257507 668.268433,756.185791 668.268433,747.926697 
	C685.793213,747.926697 702.927795,747.926697 720.005371,748.871704 
	C720.005371,756.795959 720.005371,764.720276 720.005371,772.631653 
	C728.941101,772.631653 737.444519,772.631653 745.655823,772.631653 
	C745.655823,764.205383 745.655823,756.148193 745.655823,748.068420 
	C736.848572,748.068420 728.384399,748.068420 719.993408,747.125061 
	C719.993408,738.862549 719.993408,730.600037 719.993408,721.809204 
	C737.275085,721.809204 754.110779,721.809204 770.652100,721.809204 
	C770.652100,712.875793 770.652100,704.480042 770.652100,695.719604 
	C762.242188,695.719604 754.176514,695.719604 745.924255,695.719604 
	C745.924255,686.869873 745.924255,678.400574 746.869629,669.994141 
	C754.788025,669.994141 762.706421,669.994141 770.649536,669.994141 
	C770.649536,661.416992 770.649536,653.251709 770.649536,645.068726 
	C762.174805,645.068726 754.049561,645.068726 745.993713,644.125061 
	C745.971375,635.729248 745.949036,627.333496 746.871704,618.994629 
	C754.795959,618.994629 762.720276,618.994629 770.631653,618.994629 
	C770.631653,610.058899 770.631653,601.555481 770.631653,593.344177 
	C762.205383,593.344177 754.148193,593.344177 746.068420,593.344177 
	C746.068420,602.151428 746.068420,610.615601 745.125061,619.006592 
	C736.856995,619.006592 728.588928,619.006592 719.953796,619.006592 
	C719.953796,601.484009 719.953796,584.426147 719.953796,566.822388 
	C702.406555,566.822388 685.226624,566.822388 667.673950,566.822388 
	C667.673950,557.868164 667.673950,549.464172 667.673950,540.718506 
	C641.904724,540.718506 616.523132,540.718506 590.924255,540.718506 
	C590.924255,532.214844 590.924255,524.073059 591.869629,515.994141 
	C600.133545,515.994141 608.397522,515.994141 616.652771,515.994141 
	C616.652771,489.732483 616.652771,463.915710 616.652771,437.720276 
	C607.909729,437.720276 599.510681,437.720276 590.931152,437.720276 
	C590.931152,429.200958 590.931152,421.062592 591.874878,412.993713 
	C634.555603,412.993713 677.236267,412.993713 719.657227,412.993713 
	C719.657227,421.775024 719.657227,429.843079 719.657227,438.268585 
	C702.258057,438.268585 685.201050,438.268585 667.913330,438.268585 
	C667.913330,447.115021 667.913330,455.588287 667.986572,463.993134 
	C667.986572,463.993134 668.055115,463.920044 667.113525,463.995300 
	C659.172119,463.995300 651.230652,463.995300 643.253784,463.995300 
	C643.253784,481.570709 643.253784,498.641876 643.253784,515.743652 
	C685.910400,515.743652 728.313721,515.743652 770.739502,515.743652 
	C770.739502,498.415680 770.739502,481.344421 770.739502,463.874695 
	C762.408447,463.874695 754.331177,463.874695 745.865845,463.874695 
	C745.865845,438.069763 745.865845,412.663147 745.865845,386.860840 
	C737.060974,386.860840 728.650330,386.860840 720.272827,386.860840 
	C720.272827,378.051422 720.272827,369.645203 720.272827,360.844482 
	C728.951965,360.844482 737.364258,360.844482 745.716675,360.844482 
	C745.716675,352.034912 745.716675,343.629059 745.716675,334.829651 
	C728.362671,334.829651 711.287537,334.829651 694.288208,334.829651 
	C694.288208,326.353027 694.288208,318.279785 694.288208,309.813721 
	C702.983582,309.813721 711.396362,309.813721 720.191772,309.813721 
	C720.191772,292.340912 720.191772,275.265808 720.191772,257.799377 
	C737.330872,257.799377 754.072754,257.799377 770.694458,257.799377 
	C770.694458,248.989288 770.694458,240.582474 770.694458,232.308731 
	C736.318176,232.308731 702.247375,232.308731 667.913330,232.308731 
	C667.913330,241.097443 667.913330,249.579498 667.986572,257.993134 
	C667.986572,257.993134 668.055115,257.920044 667.113525,257.995300 
	C659.183533,257.995300 651.253601,257.995300 642.949829,257.995300 
	C642.949829,249.150177 642.949829,240.750336 642.949829,232.202515 
	C634.175110,232.202515 625.783020,232.202515 616.833130,232.202515 
	C616.833130,240.913177 616.833130,249.437759 616.833130,258.315613 
	C607.876831,258.315613 599.477905,258.315613 591.075623,258.315613 
	C591.075623,275.821381 591.075623,292.945099 590.130310,310.005829 
	C573.208740,310.005829 556.287170,310.005829 538.983093,310.005829 
	C538.983093,301.185852 538.983093,292.783234 538.983093,284.353088 
	C521.758606,284.353088 504.922302,284.353088 487.704468,284.353088 
	C487.704468,293.105011 487.704468,301.507202 487.704468,310.075836 
	C470.189636,310.075836 453.060455,310.075836 435.994171,309.130493 
	C435.973175,300.728394 435.952179,292.326324 436.874847,283.993713 
	C445.138763,283.993713 453.402649,283.993713 462.041687,283.993713 
	C462.041687,275.155243 462.041687,266.754974 462.041687,257.984802 
	C470.813538,257.984802 479.213837,257.984802 487.637695,257.984802 
	C487.637695,249.086121 487.637695,240.574417 487.637695,231.689331 
	C478.878326,231.689331 470.478973,231.689331 461.924194,231.689331 
	C461.924194,214.514999 461.924194,197.723114 462.869537,180.994171 
	C471.271606,180.973175 479.673706,180.952179 488.006287,181.874893 
	C488.006287,190.236115 488.006287,198.597351 488.006287,206.931183 
	C497.182098,206.931183 505.628845,206.931183 514.006287,207.874893 
	C514.006287,224.465729 514.006287,241.056580 514.006287,257.787476 
	C522.503296,257.787476 530.566467,257.787476 539.016479,257.787476 
	C539.016479,249.183121 539.016479,240.779022 539.016479,231.999222 
	C547.796753,231.999222 556.200256,231.999222 564.663330,231.999222 
	C564.663330,206.113449 564.663330,180.617142 564.663330,155.075775 
	C547.528870,155.075775 530.730042,155.075775 513.994141,154.130432 
	C513.994141,145.767563 513.994141,137.404694 513.994141,129.068802 
	C504.819550,129.068802 496.371887,129.068802 487.993713,128.125122 
	C487.993713,119.858612 487.993713,111.592094 487.993713,103.202255 
	C505.177185,103.202255 521.895752,103.202255 538.999817,103.202255 
	C538.999817,111.796471 538.999817,120.198662 538.999817,128.640106 
	C547.904175,128.640106 556.418091,128.640106 564.665100,128.640106 
	C564.665100,111.559807 564.665100,94.839333 564.665100,77.740585 
	C555.932190,77.740585 547.529846,77.740585 538.926086,77.740585 
	C538.926086,68.882652 538.926086,60.409866 539.871216,51.994537 
	C548.128357,51.994537 556.385437,51.994537 564.631958,51.994537 
	C564.631958,43.060001 564.631958,34.556084 564.631958,26.343414 
	C555.873413,26.343414 547.483521,26.343414 539.067871,26.343414 
	C539.067871,35.150146 539.067871,43.614613 538.124512,52.006542 
	C530.191711,52.006542 522.258911,52.006542 513.948975,52.006542 
	C513.948975,60.853436 513.948975,69.255470 513.948975,77.794724 
	C505.168488,77.794724 496.773895,77.794724 487.995026,77.794724 
	C487.995026,69.197861 487.995026,60.795746 487.995026,52.344685 
	C470.439545,52.344685 453.271515,52.344685 436.068787,52.344685 
	C436.068787,69.484131 436.068787,86.279984 435.125122,103.006310 
	C427.189514,103.006310 419.253906,103.006310 410.962280,103.006310 
	C410.962280,77.155228 410.962280,51.772457 410.962280,26.358664 
	C393.421753,26.358664 376.248291,26.358664 359.351562,26.358664 
	C359.351562,35.120003 359.351562,43.521645 359.351562,52.295643 
	C368.104065,52.295643 376.508484,52.295643 384.678589,52.295643 
	C384.678589,69.410217 384.678589,86.134567 384.678589,103.075829 
	C375.881683,103.075829 367.406464,103.075829 358.994171,102.130470 
	C358.994171,94.211685 358.994171,86.292900 358.994171,78.350067 
	C350.083618,78.350067 341.585693,78.350067 333.068787,78.350067 
	C333.068787,86.824615 333.068787,94.950226 332.125122,103.006310 
M282.874817,747.993713 
	C291.140442,747.993713 299.406097,747.993713 308.032593,747.993713 
	C308.032593,730.491699 308.032593,713.438293 308.032593,695.828003 
	C316.579376,695.828003 324.773438,695.828003 332.643494,695.828003 
	C332.643494,686.864624 332.643494,678.465332 332.643494,670.073059 
	C306.837982,670.073059 281.387970,670.073059 255.994583,669.128174 
	C255.994583,652.545776 255.994583,635.963379 255.994583,619.368408 
	C247.073502,619.368408 238.562958,619.368408 230.334015,619.368408 
	C230.334015,636.450928 230.334015,653.165161 230.334015,669.931335 
	C239.137817,669.931335 247.608902,669.931335 256.006592,670.874817 
	C256.029663,687.939514 256.052734,705.004150 255.130447,722.005859 
	C246.866745,722.005859 238.603043,722.005859 230.366852,722.005859 
	C230.366852,739.281494 230.366852,756.112122 230.366852,772.668213 
	C247.780563,772.668213 264.827667,772.668213 281.931091,772.668213 
	C281.931091,764.199890 281.931091,756.062134 282.874817,747.993713 
M591.167297,92.499931 
	C591.167297,130.259125 591.167297,168.018326 591.167297,205.950165 
	C651.372070,205.950165 711.072388,205.950165 770.825500,205.950165 
	C770.825500,146.030609 770.825500,86.350548 770.825500,26.702749 
	C710.813354,26.702749 651.120544,26.702749 591.167297,26.702749 
	C591.167297,48.554287 591.167297,70.027107 591.167297,92.499931 
M24.667131,733.499817 
	C24.667131,746.589966 24.667131,759.680115 24.667131,772.855469 
	C84.803223,772.855469 144.383606,772.855469 204.153748,772.855469 
	C204.153748,712.903381 204.153748,653.172485 204.153748,593.281372 
	C144.277664,593.281372 84.551826,593.281372 24.667122,593.281372 
	C24.667122,639.874634 24.667122,686.187195 24.667131,733.499817 
M204.345871,98.500168 
	C204.345871,74.569901 204.345871,50.639629 204.345871,26.649502 
	C144.139465,26.649502 84.574989,26.649502 24.882439,26.649502 
	C24.882439,86.566353 24.882439,146.158859 24.882439,205.837173 
	C84.810051,205.837173 144.519684,205.837173 204.345886,205.837173 
	C204.345886,170.158264 204.345886,134.829224 204.345871,98.500168 
M52.499969,232.000992 
	C43.070934,232.000992 33.641899,232.000992 24.283951,232.000992 
	C24.283951,249.640289 24.283951,266.707703 24.283951,283.714600 
	C32.973671,283.714600 41.377487,283.714600 50.171829,283.714600 
	C50.171829,275.026306 50.171829,266.616180 50.171829,257.824707 
	C58.973408,257.824707 67.383484,257.824707 75.711578,257.824707 
	C75.711578,249.020187 75.711578,240.616318 75.711578,232.000992 
	C68.117409,232.000992 60.808678,232.000992 52.499969,232.000992 
M49.998989,356.376831 
	C49.998989,340.959747 49.998989,325.542694 49.998989,310.334259 
	C40.929329,310.334259 32.521969,310.334259 24.336073,310.334259 
	C24.336073,327.406860 24.336073,344.144775 24.336073,360.998901 
	C31.993694,360.998901 39.321991,360.836823 46.637157,361.076050 
	C49.707691,361.176453 50.392113,359.956635 49.998989,356.376831 
M756.518799,309.999023 
	C761.281799,309.999023 766.044861,309.999023 770.704529,309.999023 
	C770.704529,301.004974 770.704529,292.601166 770.704529,284.296570 
	C762.335876,284.296570 754.265015,284.296570 746.297485,284.296570 
	C746.297485,292.999084 746.297485,301.402985 746.297485,309.999023 
	C749.570496,309.999023 752.550537,309.999023 756.518799,309.999023 
z"/>
<path fill="#000000" opacity="1.000000" stroke="none" 
	d="
M590.924255,515.931274 
	C590.924255,524.073059 590.924255,532.214844 590.924255,540.718506 
	C616.523132,540.718506 641.904724,540.718506 667.673950,540.718506 
	C667.673950,549.464172 667.673950,557.868164 667.673950,566.822388 
	C685.226624,566.822388 702.406555,566.822388 719.953796,566.822388 
	C719.953796,584.426147 719.953796,601.484009 719.953796,619.006592 
	C728.588928,619.006592 736.856995,619.006592 745.562439,619.006470 
	C745.999817,619.006409 745.926697,618.937683 745.926697,618.937683 
	C745.949036,627.333496 745.971375,635.729248 745.995667,644.562500 
	C745.997620,644.999939 746.069946,644.930054 745.597900,644.962524 
	C728.062988,645.021118 711.000244,645.047241 693.966492,644.600891 
	C693.995544,635.870850 693.995544,627.613281 693.995544,619.367310 
	C685.060364,619.367310 676.555481,619.367310 668.342407,619.367310 
	C668.342407,628.126587 668.342407,636.517029 668.342407,644.931519 
	C677.149597,644.931519 685.614624,644.931519 694.042603,645.403198 
	C694.005615,653.794189 694.005615,661.713501 694.005615,670.069946 
	C711.634216,670.069946 728.852112,670.069946 746.033752,670.035034 
	C745.997559,670.000061 745.924255,669.931274 745.924255,669.931274 
	C745.924255,678.400574 745.924255,686.869873 745.924255,695.719604 
	C754.176514,695.719604 762.242188,695.719604 770.652100,695.719604 
	C770.652100,704.480042 770.652100,712.875793 770.652100,721.809204 
	C754.110779,721.809204 737.275085,721.809204 719.993408,721.809204 
	C719.993408,730.600037 719.993408,738.862549 719.993530,747.562439 
	C719.993591,747.999817 720.062317,747.926697 720.062317,747.926697 
	C702.927795,747.926697 685.793213,747.926697 668.268433,747.926697 
	C668.268433,756.185791 668.268433,764.257507 668.268433,772.662903 
	C659.824097,772.662903 651.755310,772.662903 643.293396,772.662903 
	C643.293396,764.836548 643.293396,756.764343 643.293396,748.346802 
	C634.516235,748.346802 626.113586,748.346802 617.318176,748.346802 
	C617.318176,756.134827 617.318176,764.206482 617.318176,772.638062 
	C582.769836,772.638062 548.609619,772.638062 514.006287,772.638062 
	C514.006287,756.062622 514.006287,739.468811 514.004333,722.437500 
	C514.002380,722.000061 513.930054,722.069946 514.402161,722.037476 
	C531.461060,722.005005 548.047852,722.005005 565.015869,722.005005 
	C565.015869,730.815430 565.015869,739.217346 565.015869,747.635254 
	C573.918579,747.635254 582.432129,747.635254 591.320801,747.635254 
	C591.320801,738.870483 591.320801,730.469055 591.320801,721.720032 
	C608.757385,721.720032 625.810486,721.720032 642.926697,721.720032 
	C642.926697,712.880737 642.926697,704.409058 643.399109,695.966492 
	C651.874451,696.039612 659.877380,696.083679 667.935974,696.585388 
	C667.991638,705.287354 667.991638,713.531677 667.991638,721.742310 
	C676.949219,721.742310 685.338318,721.742310 693.763611,721.742310 
	C693.763611,713.094482 693.763611,704.706238 693.763611,696.280090 
	C684.933838,696.280090 676.339844,696.280090 667.863403,695.783569 
	C667.980957,686.886047 667.980957,678.485046 667.980957,670.332031 
	C659.242493,670.332031 651.178406,670.332031 643.068542,670.332031 
	C643.068542,679.135742 643.068542,687.607666 642.596924,696.042603 
	C633.864014,696.005615 625.602783,696.005615 616.971008,696.005615 
	C616.971008,687.168823 616.971008,678.771545 616.971008,669.930054 
	C590.706665,669.930054 564.818359,669.930054 538.966248,669.964966 
	C539.002441,669.999939 539.075745,670.068726 539.075745,670.068726 
	C539.075745,661.926758 539.075745,653.784790 539.075745,645.254822 
	C530.799866,645.254822 522.728943,645.254822 514.272827,645.254822 
	C514.272827,636.480774 514.272827,628.077026 514.272827,619.287537 
	C505.500000,619.287537 497.096069,619.287537 488.347778,619.287537 
	C488.347778,610.513977 488.347778,602.112915 488.347778,593.321289 
	C496.469269,593.321289 504.873138,593.321289 513.638184,593.321289 
	C513.638184,584.425903 513.638184,575.909912 513.638184,567.013916 
	C496.545135,567.013916 479.486969,567.013916 462.045471,567.013916 
	C462.045471,558.247131 462.045471,549.842712 462.045471,541.060181 
	C453.266052,541.060181 444.861786,541.060181 436.006287,541.060181 
	C436.006287,532.745178 436.006287,524.809998 436.004303,516.437378 
	C436.002319,515.999939 435.930054,516.069946 436.402191,516.037476 
	C453.939240,515.978027 471.004120,515.951111 488.036957,516.396851 
	C488.004883,524.788696 488.004883,532.707947 488.004883,540.651123 
	C496.916443,540.651123 505.414551,540.651123 513.931030,540.651123 
	C513.931030,532.176270 513.931030,524.050171 514.402832,515.959351 
	C540.273132,516.019714 565.671509,516.044800 591.033752,516.035034 
	C590.997559,516.000061 590.924255,515.931274 590.924255,515.931274 
M569.619263,567.000000 
	C568.177124,567.000000 566.734924,567.000000 565.248352,567.000000 
	C565.248352,593.231140 565.248352,618.967773 565.248352,644.749939 
	C591.234314,644.749939 616.971130,644.749939 642.748169,644.749939 
	C642.748169,618.762268 642.748169,593.025391 642.748169,567.000000 
	C618.531616,567.000000 594.565674,567.000000 569.619263,567.000000 
z"/>
<path fill="#000000" opacity="1.000000" stroke="none" 
	d="
M667.913330,464.061554 
	C667.913330,455.588287 667.913330,447.115021 667.913330,438.268585 
	C685.201050,438.268585 702.258057,438.268585 719.657227,438.268585 
	C719.657227,429.843079 719.657227,421.775024 719.657227,412.993713 
	C677.236267,412.993713 634.555603,412.993713 591.437378,412.995697 
	C590.999939,412.997681 591.069946,413.069946 591.037476,412.597870 
	C591.004944,403.857239 591.004944,395.588715 591.004944,386.939697 
	C599.859802,386.939697 608.264404,386.939697 617.031982,386.939697 
	C617.031982,369.496948 617.031982,352.438171 617.031982,334.831787 
	C634.247925,334.831787 651.095886,334.831787 667.646606,334.831787 
	C667.646606,326.207306 667.646606,318.138123 667.646606,309.697327 
	C659.223938,309.697327 651.152466,309.697327 642.712646,309.697327 
	C642.712646,300.906189 642.712646,292.501923 642.712646,284.330261 
	C633.920471,284.330261 625.519836,284.330261 616.744141,284.330261 
	C616.744141,293.061096 616.744141,301.465302 616.744141,309.930054 
	C607.880432,309.930054 599.405273,309.930054 590.966187,309.965027 
	C591.002319,310.000000 591.075623,310.068817 591.075623,310.068817 
	C591.075623,292.945099 591.075623,275.821381 591.075623,258.315613 
	C599.477905,258.315613 607.876831,258.315613 616.833130,258.315613 
	C616.833130,249.437759 616.833130,240.913177 616.833130,232.202515 
	C625.783020,232.202515 634.175110,232.202515 642.949829,232.202515 
	C642.949829,240.750336 642.949829,249.150177 642.949829,257.995300 
	C651.253601,257.995300 659.183533,257.995300 667.558716,258.431091 
	C668.003967,267.125549 668.003967,275.384216 668.003967,283.632233 
	C676.939270,283.632233 685.444153,283.632233 693.656250,283.632233 
	C693.656250,274.871857 693.656250,266.480804 693.656250,258.061554 
	C684.846252,258.061554 676.379761,258.061554 667.913330,258.061554 
	C667.913330,249.579498 667.913330,241.097443 667.913330,232.308731 
	C702.247375,232.308731 736.318176,232.308731 770.694458,232.308731 
	C770.694458,240.582474 770.694458,248.989288 770.694458,257.799377 
	C754.072754,257.799377 737.330872,257.799377 720.191772,257.799377 
	C720.191772,275.265808 720.191772,292.340912 720.191772,309.813721 
	C711.396362,309.813721 702.983582,309.813721 694.288208,309.813721 
	C694.288208,318.279785 694.288208,326.353027 694.288208,334.829651 
	C711.287537,334.829651 728.362671,334.829651 745.716675,334.829651 
	C745.716675,343.629059 745.716675,352.034912 745.716675,360.844482 
	C737.364258,360.844482 728.951965,360.844482 720.272827,360.844482 
	C720.272827,369.645203 720.272827,378.051422 720.272827,386.860840 
	C728.650330,386.860840 737.060974,386.860840 745.865845,386.860840 
	C745.865845,412.663147 745.865845,438.069763 745.865845,463.874695 
	C754.331177,463.874695 762.408447,463.874695 770.739502,463.874695 
	C770.739502,481.344421 770.739502,498.415680 770.739502,515.743652 
	C728.313721,515.743652 685.910400,515.743652 643.253784,515.743652 
	C643.253784,498.641876 643.253784,481.570709 643.253784,463.995300 
	C651.230652,463.995300 659.172119,463.995300 667.558716,464.431091 
	C668.003967,473.125549 668.003967,481.384216 668.003967,489.632233 
	C676.939270,489.632233 685.444153,489.632233 693.656250,489.632233 
	C693.656250,480.871857 693.656250,472.480804 693.656250,464.061554 
	C684.846252,464.061554 676.379761,464.061554 667.913330,464.061554 
M668.000000,375.487579 
	C668.000000,379.257507 668.000000,383.027466 668.000000,386.716278 
	C676.972900,386.716278 685.376953,386.716278 693.715454,386.716278 
	C693.715454,378.025482 693.715454,369.621399 693.715454,361.285309 
	C685.023865,361.285309 676.619751,361.285309 668.000000,361.285309 
	C668.000000,365.878113 668.000000,370.187531 668.000000,375.487579 
z"/>
<path fill="#000000" opacity="1.000000" stroke="none" 
	d="
M127.075829,258.068787 
	C127.075829,249.601852 127.075829,241.134918 127.075829,232.334595 
	C152.931961,232.334595 178.739258,232.334595 205.004730,232.334595 
	C205.004730,240.595276 205.004730,248.854477 204.569016,257.558838 
	C195.874619,258.004028 187.615921,258.004028 179.367691,258.004028 
	C179.367691,266.938660 179.367691,275.443970 179.367691,283.656311 
	C188.128006,283.656311 196.519043,283.656311 204.938675,283.656311 
	C204.938675,274.846375 204.938675,266.379944 204.938675,257.913513 
	C213.072327,257.913513 221.205994,257.913513 229.844727,257.913513 
	C229.844727,283.605103 229.844727,309.084167 229.844727,335.006287 
	C238.603745,335.006287 246.864426,335.006287 255.562561,335.004333 
	C256.000000,335.002380 255.930054,334.930054 255.962555,335.402161 
	C256.022003,344.272522 256.048950,352.670776 255.603241,361.036926 
	C246.872086,361.004883 238.613571,361.004883 230.339966,361.004883 
	C230.339966,378.585632 230.339966,395.738159 230.339966,412.930939 
	C239.145096,412.930939 247.610458,412.930939 256.040588,413.402771 
	C256.005341,439.223633 256.005341,464.572693 256.005341,489.930054 
	C238.504227,489.930054 221.717148,489.930054 204.965027,489.965027 
	C205.000000,490.000000 205.069946,490.069946 205.037445,489.597839 
	C205.004944,480.860718 205.004944,472.595673 205.004944,464.279541 
	C195.945923,464.279541 187.346130,464.279541 178.863663,463.783081 
	C178.962845,454.836914 178.944717,446.387177 179.399017,437.966492 
	C188.128677,437.995514 196.385880,437.995514 204.632721,437.995514 
	C204.632721,429.394226 204.632721,421.222260 204.632721,413.341797 
	C195.873734,413.341797 187.483627,413.341797 179.068451,413.341797 
	C179.068451,421.815491 179.068451,429.947540 178.596771,438.042603 
	C169.849716,438.005615 161.574326,438.005615 153.246643,438.005615 
	C153.246643,446.893768 153.246643,455.298157 153.246643,464.127197 
	C161.953659,464.127197 170.417282,464.127197 178.936249,464.584900 
	C178.971100,473.385071 178.950577,481.727509 178.964996,490.033752 
	C178.999969,489.997589 179.068771,489.924194 179.068771,489.924194 
	C170.604950,489.924194 162.141129,489.924194 153.158081,489.924194 
	C153.158081,506.924683 153.158081,523.748962 153.158081,540.993713 
	C144.388870,540.993713 136.131882,540.993713 127.437454,540.995728 
	C127.000015,540.997742 127.069939,541.069946 127.037445,540.597900 
	C127.004951,532.097168 127.004951,524.068604 127.004951,515.930054 
	C117.820580,515.930054 109.375320,515.930054 100.966240,515.964966 
	C101.002419,515.999939 101.075806,516.068726 101.075806,516.068726 
	C101.075806,507.597290 101.075806,499.125885 101.075806,490.130981 
	C75.380302,490.130981 49.888836,490.130981 24.201775,490.130981 
	C24.201775,481.214478 24.201775,472.821472 24.201775,464.044556 
	C32.755661,464.044556 41.156475,464.044556 50.006313,464.044556 
	C50.006313,455.404114 50.006313,447.139496 50.004368,438.437439 
	C50.002422,438.000031 49.930061,438.069946 50.402138,438.037445 
	C67.456017,438.004944 84.037827,438.004944 101.173935,438.004944 
	C101.173935,446.918884 101.173935,455.442932 101.173935,463.650024 
	C110.129738,463.650024 118.526497,463.650024 127.069939,463.650024 
	C127.069939,446.510193 127.069939,429.720123 127.034973,412.965027 
	C127.000000,413.000000 126.930061,413.069946 127.402130,413.037445 
	C136.143814,413.004944 144.413406,413.004944 153.065063,413.004944 
	C153.065063,404.135803 153.065063,395.730164 153.065063,386.958374 
	C170.511780,386.958374 187.572693,386.958374 204.795639,386.958374 
	C204.795639,378.180237 204.795639,369.782227 204.795639,360.994293 
	C196.197113,360.994293 187.791138,360.994293 179.198669,360.994293 
	C179.198669,352.206024 179.198669,343.808044 179.198669,334.842773 
	C187.898087,334.842773 196.428955,334.842773 204.643707,334.842773 
	C204.643707,326.203522 204.643707,318.133179 204.643707,310.339111 
	C187.226761,310.339111 170.167038,310.339111 152.724335,310.339111 
	C152.724335,318.747894 152.724335,326.820221 152.724335,335.263550 
	C143.931366,335.263550 135.525818,335.263550 126.748978,335.263550 
	C126.748978,344.055756 126.748978,352.461304 126.748978,360.930054 
	C117.882599,360.930054 109.406326,360.930054 100.966248,360.965027 
	C101.002426,360.999969 101.075829,361.068787 101.075829,361.068787 
	C101.052658,344.337494 101.029488,327.606171 101.004364,310.437439 
	C101.002426,310.000031 100.930061,310.069946 101.402130,310.037445 
	C110.235527,310.004944 118.596870,310.004944 127.069939,310.004944 
	C127.069939,300.822540 127.069939,292.376282 127.034973,283.965027 
	C127.000000,284.000000 126.930061,284.069946 127.402130,284.037445 
	C136.125046,284.004944 144.375900,284.004944 152.651382,284.004944 
	C152.651382,275.084229 152.651382,266.585876 152.651382,257.930054 
	C143.845474,257.930054 135.387772,257.930054 126.966248,257.965027 
	C127.002426,257.999969 127.075829,258.068787 127.075829,258.068787 
z"/>
<path fill="#000000" opacity="1.000000" stroke="none" 
	d="
M410.924194,695.931152 
	C410.924194,704.413696 410.924194,712.896240 410.924194,721.778442 
	C402.432617,721.778442 394.020172,721.778442 385.306030,721.778442 
	C385.306030,730.575623 385.306030,738.982605 385.306030,747.792847 
	C393.578735,747.792847 401.990723,747.792847 410.698273,747.792847 
	C410.698273,756.257019 410.698273,764.329834 410.698273,772.702515 
	C385.064575,772.702515 359.327728,772.702515 333.295410,772.702515 
	C333.295410,756.060791 333.295410,739.322876 333.295410,722.183167 
	C341.607910,722.183167 350.019409,722.183167 358.713196,722.183167 
	C358.713196,696.381714 358.713196,670.977966 358.713196,645.172791 
	C350.386047,645.172791 341.973694,645.172791 333.167725,645.172791 
	C333.167725,636.376892 333.167725,627.964600 333.167725,619.279175 
	C324.701874,619.279175 316.629028,619.279175 308.153259,619.279175 
	C308.153259,627.634460 308.153259,636.046387 308.153259,644.725281 
	C299.353821,644.725281 290.948517,644.725281 282.270599,644.725281 
	C282.270599,627.676758 282.270599,610.606079 282.270599,593.135620 
	C307.662170,593.135620 333.067780,593.135620 358.871216,593.135620 
	C358.871216,584.338623 358.871216,575.927979 358.871216,567.123779 
	C367.670654,567.123779 376.080566,567.123779 384.742889,567.123779 
	C384.742889,549.988220 384.742889,533.250549 384.742889,516.255371 
	C376.318970,516.255371 367.913574,516.255371 359.105713,516.255371 
	C359.105713,524.349609 359.105713,532.428650 359.105713,540.749023 
	C350.304047,540.749023 341.899414,540.749023 333.092255,540.749023 
	C333.092255,532.632568 333.092255,524.553650 333.092255,515.993713 
	C316.089294,515.993713 299.482056,515.993713 282.437378,515.995728 
	C281.999939,515.997742 282.069946,516.069946 282.037445,515.597839 
	C282.004944,498.200623 282.004944,481.275513 282.004944,464.350708 
	C316.597137,464.350708 350.753723,464.350708 385.296631,464.350708 
	C385.296631,473.103363 385.296631,481.507080 385.296631,490.268433 
	C402.409546,490.268433 419.135223,490.268433 435.930054,490.268433 
	C435.930054,499.119751 435.930054,507.594849 435.930054,516.069946 
	C435.930054,516.069946 436.002319,515.999939 436.039032,515.965576 
	C427.937683,515.931152 419.799622,515.931152 411.330566,515.931152 
	C411.330566,532.836121 411.330566,549.550598 411.330566,566.824829 
	C419.221527,566.824829 427.412689,566.824829 435.993713,566.824829 
	C435.993713,584.295776 435.993713,601.210449 435.995697,618.562622 
	C435.997681,619.000122 436.069946,618.930054 435.597870,618.962524 
	C427.192444,618.995056 419.259094,618.995056 410.948273,618.995056 
	C410.948273,610.147888 410.948273,601.745483 410.948273,593.207458 
	C402.167175,593.207458 393.772369,593.207458 385.325684,593.207458 
	C385.325684,627.563782 385.325684,661.711670 385.325684,696.069946 
	C394.123749,696.069946 402.596863,696.069946 411.033783,696.034973 
	C410.997620,696.000000 410.924194,695.931152 410.924194,695.931152 
z"/>
<path fill="#000000" opacity="1.000000" stroke="none" 
	d="
M358.931213,103.075829 
	C367.406464,103.075829 375.881683,103.075829 384.678589,103.075829 
	C384.678589,86.134567 384.678589,69.410217 384.678589,52.295643 
	C376.508484,52.295643 368.104065,52.295643 359.351562,52.295643 
	C359.351562,43.521645 359.351562,35.120003 359.351562,26.358664 
	C376.248291,26.358664 393.421753,26.358664 410.962280,26.358664 
	C410.962280,51.772457 410.962280,77.155228 410.962280,103.006310 
	C419.253906,103.006310 427.189514,103.006310 435.562561,103.004364 
	C435.999969,103.002426 435.930054,102.930061 435.962555,103.402130 
	C435.995056,112.235527 435.995056,120.596870 435.995056,129.069946 
	C445.177460,129.069946 453.623718,129.069946 462.034973,129.034973 
	C462.000000,129.000000 461.930054,128.930054 461.962524,129.402161 
	C461.973358,138.272842 461.951691,146.671387 461.965027,155.034973 
	C462.000000,155.000000 462.069946,154.930054 461.597839,154.962555 
	C452.764435,154.995056 444.403107,154.995056 435.930054,154.995056 
	C435.930054,164.177475 435.930054,172.623718 435.965027,181.034973 
	C436.000000,181.000000 436.069946,180.930054 435.597839,180.962555 
	C427.207947,180.995056 419.290192,180.995056 410.842346,180.995056 
	C410.842346,189.908737 410.842346,198.418961 410.842346,207.073425 
	C401.849487,207.073425 393.393463,207.073425 384.966492,206.600983 
	C384.995514,189.212402 384.995514,172.296280 384.995514,155.367264 
	C376.073395,155.367264 367.562469,155.367264 359.332611,155.367264 
	C359.332611,172.783356 359.332611,189.831451 359.332611,206.931549 
	C368.136536,206.931549 376.608063,206.931549 385.042603,207.403229 
	C385.005615,215.793106 385.005615,223.711304 385.005615,232.160370 
	C376.088440,232.160370 367.578461,232.160370 358.930054,232.160370 
	C358.930054,241.155319 358.930054,249.612640 358.965027,258.034973 
	C359.000000,258.000000 359.069946,257.930054 358.597839,257.962555 
	C349.727142,257.973389 341.328613,257.951721 332.965027,257.965027 
	C333.000000,258.000000 333.069946,258.069946 333.037415,257.597870 
	C333.004913,231.884369 333.004913,206.642944 333.004913,181.359894 
	C324.425079,181.359894 316.244720,181.359894 307.930054,181.359894 
	C307.930054,207.169785 307.930054,232.619873 307.964996,258.033752 
	C307.999939,257.997589 308.068756,257.924164 308.068756,257.924164 
	C299.593353,257.924164 291.117950,257.924164 282.276367,257.924164 
	C282.276367,232.469238 282.276367,207.084976 282.276367,181.350281 
	C273.524017,181.350281 265.121521,181.350281 256.327209,181.350281 
	C256.327209,189.458435 256.327209,197.863297 256.327209,206.632812 
	C247.430344,206.632812 238.913895,206.632812 230.196976,206.632812 
	C230.196976,189.541534 230.196976,172.485550 230.196976,155.051422 
	C247.420197,155.051422 264.479706,155.051422 282.006287,155.051422 
	C282.006287,146.412811 282.006287,138.143860 282.004333,129.437439 
	C282.002380,129.000000 281.930054,129.069946 282.402161,129.037445 
	C291.272858,129.026627 299.671387,129.048294 308.034973,129.034973 
	C308.000000,129.000000 307.930054,128.930054 307.962585,129.402130 
	C307.995087,138.124710 307.995087,146.375214 307.995087,154.650879 
	C316.582428,154.650879 324.748108,154.650879 333.069946,154.650879 
	C333.069946,145.844711 333.069946,137.387390 333.034973,128.965027 
	C333.000000,129.000000 332.930054,129.069946 333.402161,129.037445 
	C342.235626,129.004944 350.596924,129.004944 359.069946,129.004944 
	C359.069946,119.822510 359.069946,111.376289 359.034973,102.966248 
	C359.000031,103.002426 358.931213,103.075829 358.931213,103.075829 
z"/>
<path fill="#000000" opacity="1.000000" stroke="none" 
	d="
M435.931244,310.075836 
	C453.060455,310.075836 470.189636,310.075836 487.704468,310.075836 
	C487.704468,301.507202 487.704468,293.105011 487.704468,284.353088 
	C504.922302,284.353088 521.758606,284.353088 538.983093,284.353088 
	C538.983093,292.783234 538.983093,301.185852 538.983093,310.005829 
	C556.287170,310.005829 573.208740,310.005829 590.602966,310.037323 
	C591.075623,310.068817 591.002319,310.000000 590.998657,310.437164 
	C590.995056,327.463074 590.995056,344.051849 590.995056,361.184509 
	C573.400146,361.184509 556.223145,361.184509 539.340210,361.184509 
	C539.340210,378.786926 539.340210,395.841064 539.340210,413.069946 
	C556.810120,413.069946 573.940002,413.069946 591.069946,413.069946 
	C591.069946,413.069946 590.999939,412.997681 590.965576,412.960968 
	C590.931152,421.062592 590.931152,429.200958 590.931152,437.720276 
	C599.510681,437.720276 607.909729,437.720276 616.652771,437.720276 
	C616.652771,463.915710 616.652771,489.732483 616.652771,515.994141 
	C608.397522,515.994141 600.133545,515.994141 591.396973,515.962708 
	C590.924255,515.931274 590.997559,516.000061 591.001282,515.562866 
	C591.005005,506.865234 591.005005,498.604706 591.005005,489.823090 
	C573.401550,489.823090 556.237610,489.823090 538.710815,489.823090 
	C538.710815,480.900452 538.710815,472.505219 538.710815,464.075836 
	C530.199707,464.075836 522.065369,464.075836 513.963013,463.603210 
	C513.995117,437.879364 513.995117,412.628143 513.995117,386.989990 
	C505.192230,386.989990 496.787140,386.989990 488.197144,386.989990 
	C488.197144,378.203796 488.197144,369.806641 488.197144,360.843628 
	C496.897675,360.843628 505.427582,360.843628 513.646484,360.843628 
	C513.646484,351.873810 513.646484,343.471558 513.646484,334.721680 
	C487.577271,334.721680 461.860779,334.721680 436.069946,334.721680 
	C436.069946,326.214844 436.069946,318.072449 436.035004,309.966248 
	C436.000061,310.002411 435.931244,310.075836 435.931244,310.075836 
z"/>
<path fill="#020202" opacity="1.000000" stroke="none" 
	d="
M591.167297,91.999924 
	C591.167297,70.027107 591.167297,48.554287 591.167297,26.702749 
	C651.120544,26.702749 710.813354,26.702749 770.825500,26.702749 
	C770.825500,86.350548 770.825500,146.030609 770.825500,205.950165 
	C711.072388,205.950165 651.372070,205.950165 591.167297,205.950165 
	C591.167297,168.018326 591.167297,130.259125 591.167297,91.999924 
M616.998779,81.500000 
	C616.998779,114.556450 616.998779,147.612900 616.998779,180.579071 
	C660.320679,180.579071 702.896118,180.579071 745.637817,180.579071 
	C745.637817,137.633163 745.637817,94.942894 745.637817,52.290192 
	C702.633301,52.290192 659.921448,52.290192 616.998779,52.290192 
	C616.998779,61.886757 616.998779,71.193382 616.998779,81.500000 
z"/>
<path fill="#010101" opacity="1.000000" stroke="none" 
	d="
M24.667126,732.999756 
	C24.667122,686.187195 24.667122,639.874634 24.667122,593.281372 
	C84.551826,593.281372 144.277664,593.281372 204.153748,593.281372 
	C204.153748,653.172485 204.153748,712.903381 204.153748,772.855469 
	C144.383606,772.855469 84.803223,772.855469 24.667131,772.855469 
	C24.667131,759.680115 24.667131,746.589966 24.667126,732.999756 
M50.160194,659.499939 
	C50.160194,688.766113 50.160194,718.032227 50.160194,747.500916 
	C93.327759,747.500916 135.913651,747.500916 178.752502,747.500916 
	C178.752502,704.579407 178.752502,661.858582 178.752502,619.199585 
	C135.819916,619.199585 93.116570,619.199585 50.160198,619.199585 
	C50.160198,632.548279 50.160198,645.524109 50.160194,659.499939 
z"/>
<path fill="#010101" opacity="1.000000" stroke="none" 
	d="
M204.345886,99.000168 
	C204.345886,134.829224 204.345886,170.158264 204.345886,205.837173 
	C144.519684,205.837173 84.810051,205.837173 24.882439,205.837173 
	C24.882439,146.158859 24.882439,86.566353 24.882439,26.649502 
	C84.574989,26.649502 144.139465,26.649502 204.345871,26.649502 
	C204.345871,50.639629 204.345871,74.569901 204.345886,99.000168 
M147.500000,51.997169 
	C115.096016,51.997169 82.692024,51.997169 50.483765,51.997169 
	C50.483765,95.374222 50.483765,137.960663 50.483765,180.606369 
	C93.396126,180.606369 135.988052,180.606369 178.716888,180.606369 
	C178.716888,137.657288 178.716888,94.938622 178.716888,51.997169 
	C168.454956,51.997169 158.477478,51.997169 147.500000,51.997169 
z"/>
<path fill="#000000" opacity="1.000000" stroke="none" 
	d="
M436.034363,103.039124 
	C436.068787,86.279984 436.068787,69.484131 436.068787,52.344685 
	C453.271515,52.344685 470.439545,52.344685 487.995026,52.344685 
	C487.995026,60.795746 487.995026,69.197861 487.995026,77.794724 
	C496.773895,77.794724 505.168488,77.794724 513.948975,77.794724 
	C513.948975,69.255470 513.948975,60.853436 513.948975,52.006542 
	C522.258911,52.006542 530.191711,52.006542 538.561890,52.006157 
	C538.999268,52.005768 538.926086,51.937077 538.926086,51.937077 
	C538.926086,60.409866 538.926086,68.882652 538.926086,77.740585 
	C547.529846,77.740585 555.932190,77.740585 564.665100,77.740585 
	C564.665100,94.839333 564.665100,111.559807 564.665100,128.640106 
	C556.418091,128.640106 547.904175,128.640106 538.999817,128.640106 
	C538.999817,120.198662 538.999817,111.796471 538.999817,103.202255 
	C521.895752,103.202255 505.177185,103.202255 487.993713,103.202255 
	C487.993713,111.592094 487.993713,119.858612 487.995667,128.562561 
	C487.997620,129.000000 488.069946,128.930054 487.597839,128.962555 
	C478.727142,128.973389 470.328613,128.951721 461.930054,128.930054 
	C461.930054,128.930054 462.000000,129.000000 462.002472,128.562866 
	C462.004944,119.764397 462.004944,111.403076 462.004944,102.930061 
	C452.822540,102.930061 444.376282,102.930061 435.930054,102.930061 
	C435.930054,102.930061 435.999969,103.002426 436.034363,103.039124 
z"/>
<path fill="#000000" opacity="1.000000" stroke="none" 
	d="
M282.039062,128.965607 
	C264.939789,128.931198 247.803787,128.931198 230.334473,128.931198 
	C230.334473,94.713310 230.334473,60.552628 230.334473,26.197281 
	C238.802505,26.197281 247.200241,26.197281 255.988510,26.197281 
	C255.988510,34.787144 255.988510,43.193039 255.988510,51.966885 
	C273.434113,51.966885 290.494995,51.966885 307.993713,51.966885 
	C307.993713,68.936714 307.993713,85.530930 307.995667,102.562576 
	C307.997620,103.000015 308.069946,102.930061 307.597870,102.962555 
	C298.729828,103.021019 290.333862,103.046989 281.966736,102.600571 
	C281.995544,94.203445 281.995544,86.278702 281.995544,78.367493 
	C273.059448,78.367493 264.555084,78.367493 256.343140,78.367493 
	C256.343140,86.794357 256.343140,94.852142 256.343140,102.931099 
	C265.150757,102.931099 273.615417,102.931099 282.042847,103.402779 
	C281.980469,112.272957 281.955261,120.671448 281.930054,129.069946 
	C281.930054,129.069946 282.002380,129.000000 282.039062,128.965607 
z"/>
<path fill="#000000" opacity="1.000000" stroke="none" 
	d="
M435.960999,619.034546 
	C444.401489,619.068909 452.878632,619.068909 461.746704,619.068909 
	C461.746704,627.538086 461.746704,635.944031 461.746704,644.737427 
	C470.524658,644.737427 478.930634,644.737427 487.666077,644.737427 
	C487.666077,653.183228 487.666077,661.252258 487.666077,669.715332 
	C479.493835,669.715332 471.088348,669.715332 462.147705,669.715332 
	C462.147705,704.265625 462.147705,738.431885 462.147705,772.796570 
	C453.212524,772.796570 444.814301,772.796570 436.044617,772.796570 
	C436.044617,747.236694 436.044617,721.849487 436.044617,695.994141 
	C427.744629,695.994141 419.807098,695.994141 411.396881,695.962646 
	C410.924194,695.931152 410.997620,696.000000 411.001282,695.562866 
	C411.004944,686.868652 411.004944,678.611633 411.004944,669.989014 
	C419.481018,669.989014 427.541595,669.989014 436.069946,669.989014 
	C436.069946,652.722900 436.069946,635.826477 436.069946,618.930054 
	C436.069946,618.930054 435.997681,619.000122 435.960999,619.034546 
z"/>
<path fill="#000000" opacity="1.000000" stroke="none" 
	d="
M281.965515,515.961060 
	C281.931091,524.059814 281.931091,532.195251 281.931091,540.707520 
	C290.500763,540.707520 298.895142,540.707520 307.644165,540.707520 
	C307.644165,549.584290 307.644165,558.091919 307.644165,566.993713 
	C290.693390,566.993713 273.784180,566.993713 256.437500,566.995728 
	C256.000061,566.997742 256.069946,567.069946 256.037415,566.597900 
	C256.004913,557.874939 256.004913,549.624084 256.004913,541.348633 
	C247.084213,541.348633 238.585861,541.348633 229.930054,541.348633 
	C229.930054,550.154480 229.930054,558.612244 229.964996,567.033813 
	C229.999954,566.997620 230.068710,566.924255 230.068710,566.924255 
	C213.284866,566.924255 196.501022,566.924255 179.359100,566.924255 
	C179.359100,558.422974 179.359100,549.915344 179.359100,541.026611 
	C187.776428,541.026611 196.172562,541.026611 205.006302,541.026611 
	C205.006302,532.730225 205.006302,524.802551 205.004333,516.437500 
	C205.002365,516.000061 204.930054,516.069946 205.402130,516.037415 
	C231.272781,516.026550 256.671356,516.048218 282.069946,516.069946 
	C282.069946,516.069946 281.999939,515.997742 281.965515,515.961060 
z"/>
<path fill="#000000" opacity="1.000000" stroke="none" 
	d="
M256.075806,722.068848 
	C256.052734,705.004150 256.029663,687.939514 256.006622,670.437378 
	C256.006653,669.999878 255.937943,670.073059 255.937943,670.073059 
	C281.387970,670.073059 306.837982,670.073059 332.643494,670.073059 
	C332.643494,678.465332 332.643494,686.864624 332.643494,695.828003 
	C324.773438,695.828003 316.579376,695.828003 308.032593,695.828003 
	C308.032593,713.438293 308.032593,730.491699 308.032593,747.993713 
	C299.406097,747.993713 291.140442,747.993713 282.437378,747.995728 
	C281.999939,747.997742 282.069946,748.069946 282.037415,747.597900 
	C282.004913,738.764465 282.004913,730.403076 282.004913,721.930054 
	C272.822571,721.930054 264.376312,721.930054 255.966217,721.965027 
	C256.002380,722.000000 256.075806,722.068848 256.075806,722.068848 
z"/>
<path fill="#000000" opacity="1.000000" stroke="none" 
	d="
M50.039124,437.965637 
	C41.603687,437.931213 33.131550,437.931213 24.330349,437.931213 
	C24.330349,421.154419 24.330349,404.437134 24.330349,387.176727 
	C41.234997,387.176727 58.408169,387.176727 75.957489,387.176727 
	C75.957489,378.246246 75.957489,369.845215 75.957489,361.005829 
	C84.265587,361.005829 92.198029,361.005829 100.603149,361.037292 
	C101.075829,361.068787 101.002426,360.999969 100.998734,361.437134 
	C100.995049,370.125122 100.995049,378.375946 100.995049,387.158600 
	C109.909538,387.158600 118.419937,387.158600 126.930061,387.158600 
	C126.930061,396.154755 126.930061,404.612335 126.930061,413.069946 
	C126.930061,413.069946 127.000000,413.000000 126.562851,412.997528 
	C100.788277,412.995056 75.450859,412.995056 49.930061,412.995056 
	C49.930061,421.805603 49.930061,429.937775 49.930061,438.069946 
	C49.930061,438.069946 50.002422,438.000031 50.039124,437.965637 
z"/>
<path fill="#000000" opacity="1.000000" stroke="none" 
	d="
M513.931274,155.075775 
	C530.730042,155.075775 547.528870,155.075775 564.663330,155.075775 
	C564.663330,180.617142 564.663330,206.113449 564.663330,231.999222 
	C556.200256,231.999222 547.796753,231.999222 539.016479,231.999222 
	C539.016479,240.779022 539.016479,249.183121 539.016479,257.787476 
	C530.566467,257.787476 522.503296,257.787476 514.006287,257.787476 
	C514.006287,241.056580 514.006287,224.465729 514.004272,207.437454 
	C514.002258,207.000015 513.930054,207.069946 514.402100,207.037445 
	C522.792175,207.004944 530.710144,207.004944 538.651855,207.004944 
	C538.651855,198.083847 538.651855,189.586212 538.651855,180.930054 
	C530.179443,180.930054 522.054749,180.930054 513.965027,180.965027 
	C514.000000,181.000000 514.069946,181.069946 514.037476,180.597839 
	C514.026611,171.727158 514.048279,163.328613 514.035034,154.966217 
	C514.000061,155.002396 513.931274,155.075775 513.931274,155.075775 
z"/>
<path fill="#000000" opacity="1.000000" stroke="none" 
	d="
M461.924194,180.931229 
	C461.924194,197.723114 461.924194,214.514999 461.924194,231.689331 
	C470.478973,231.689331 478.878326,231.689331 487.637695,231.689331 
	C487.637695,240.574417 487.637695,249.086121 487.637695,257.984802 
	C479.213837,257.984802 470.813538,257.984802 462.041687,257.984802 
	C462.041687,266.754974 462.041687,275.155243 462.041687,283.993713 
	C453.402649,283.993713 445.138763,283.993713 436.437408,283.995667 
	C435.999969,283.997620 436.069946,284.069946 436.037445,283.597839 
	C436.026611,249.060532 436.048279,214.995285 436.069946,180.930054 
	C436.069946,180.930054 436.000000,181.000000 436.437134,181.002472 
	C445.272858,181.026611 453.671387,181.048279 462.033752,181.034988 
	C461.997589,181.000031 461.924194,180.931229 461.924194,180.931229 
z"/>
<path fill="#000000" opacity="1.000000" stroke="none" 
	d="
M126.965607,540.961060 
	C126.931190,549.399719 126.931190,557.875000 126.931190,566.674561 
	C92.700844,566.674561 58.545738,566.674561 24.195856,566.674561 
	C24.195856,558.197632 24.195856,549.801270 24.195856,541.029419 
	C41.443054,541.029419 58.501110,541.029419 75.943222,541.029419 
	C75.943222,532.594910 75.943222,524.524719 75.943222,516.005859 
	C84.259407,516.005859 92.194939,516.005859 100.603134,516.037292 
	C101.075806,516.068726 101.002419,515.999939 100.998734,516.437134 
	C100.995049,524.902832 100.995049,532.931396 100.995049,541.069946 
	C110.179436,541.069946 118.624687,541.069946 127.069939,541.069946 
	C127.069939,541.069946 127.000015,540.997742 126.965607,540.961060 
z"/>
<path fill="#000000" opacity="1.000000" stroke="none" 
	d="
M435.965576,283.960938 
	C435.952179,292.326324 435.973175,300.728394 435.962708,309.603149 
	C435.931244,310.075836 436.000061,310.002411 435.562866,309.998718 
	C409.776184,309.995056 384.426727,309.995056 359.069946,309.995056 
	C359.069946,292.170227 359.069946,275.050140 359.069946,257.930054 
	C359.069946,257.930054 359.000000,258.000000 359.437134,258.002472 
	C368.131531,258.004944 376.388794,258.004944 385.187592,258.004944 
	C385.187592,266.934174 385.187592,275.450989 385.187592,284.069946 
	C402.514343,284.069946 419.292145,284.069946 436.069946,284.069946 
	C436.069946,284.069946 435.999969,283.997620 435.965576,283.960938 
z"/>
<path fill="#000000" opacity="1.000000" stroke="none" 
	d="
M256.034424,335.039093 
	C256.068817,318.295166 256.068817,301.514526 256.068817,284.006287 
	C273.076569,284.006287 290.100861,284.006287 307.562592,284.004333 
	C308.000031,284.002380 307.930054,283.930054 307.962585,284.402161 
	C307.995087,301.565857 307.995087,318.257477 307.995087,334.930054 
	C290.154877,334.930054 273.042480,334.930054 255.930054,334.930054 
	C255.930054,334.930054 256.000000,335.002380 256.034424,335.039093 
z"/>
<path fill="#000000" opacity="1.000000" stroke="none" 
	d="
M52.999962,232.000992 
	C60.808678,232.000992 68.117409,232.000992 75.711578,232.000992 
	C75.711578,240.616318 75.711578,249.020187 75.711578,257.824707 
	C67.383484,257.824707 58.973408,257.824707 50.171829,257.824707 
	C50.171829,266.616180 50.171829,275.026306 50.171829,283.714600 
	C41.377487,283.714600 32.973671,283.714600 24.283951,283.714600 
	C24.283951,266.707703 24.283951,249.640289 24.283951,232.000992 
	C33.641899,232.000992 43.070934,232.000992 52.999962,232.000992 
z"/>
<path fill="#000000" opacity="1.000000" stroke="none" 
	d="
M281.965515,747.961060 
	C281.931091,756.062134 281.931091,764.199890 281.931091,772.668213 
	C264.827667,772.668213 247.780563,772.668213 230.366852,772.668213 
	C230.366852,756.112122 230.366852,739.281494 230.366852,722.005859 
	C238.603043,722.005859 246.866745,722.005859 255.603119,722.037354 
	C256.075806,722.068848 256.002380,722.000000 255.998718,722.437134 
	C255.995041,731.235596 255.995041,739.596924 255.995041,748.069946 
	C265.177460,748.069946 273.623718,748.069946 282.069946,748.069946 
	C282.069946,748.069946 281.999939,747.997742 281.965515,747.961060 
z"/>
<path fill="#000000" opacity="1.000000" stroke="none" 
	d="
M49.998978,356.862244 
	C50.392113,359.956635 49.707691,361.176453 46.637157,361.076050 
	C39.321991,360.836823 31.993694,360.998901 24.336073,360.998901 
	C24.336073,344.144775 24.336073,327.406860 24.336073,310.334259 
	C32.521969,310.334259 40.929329,310.334259 49.998989,310.334259 
	C49.998989,325.542694 49.998989,340.959747 49.998978,356.862244 
z"/>
<path fill="#000000" opacity="1.000000" stroke="none" 
	d="
M256.043335,669.965576 
	C247.608902,669.931335 239.137817,669.931335 230.334015,669.931335 
	C230.334015,653.165161 230.334015,636.450928 230.334015,619.368408 
	C238.562958,619.368408 247.073502,619.368408 255.994583,619.368408 
	C255.994583,635.963379 255.994583,652.545776 255.966263,669.600586 
	C255.937943,670.073059 256.006653,669.999878 256.043335,669.965576 
z"/>
<path fill="#000000" opacity="1.000000" stroke="none" 
	d="
M205.039062,515.965637 
	C196.628113,515.931213 188.180450,515.931213 179.005829,515.931213 
	C179.005829,507.595245 179.005829,499.232391 179.037292,490.396851 
	C179.068771,489.924194 178.999969,489.997589 179.437134,490.001282 
	C188.272842,490.026611 196.671387,490.048279 205.069946,490.069946 
	C205.069946,490.069946 205.000000,490.000000 204.997528,490.437134 
	C204.973389,499.272858 204.951721,507.671387 204.930054,516.069946 
	C204.930054,516.069946 205.002365,516.000061 205.039062,515.965637 
z"/>
<path fill="#000000" opacity="1.000000" stroke="none" 
	d="
M514.039062,721.965698 
	C505.617554,721.931274 497.159424,721.931274 488.351166,721.931274 
	C488.351166,713.416382 488.351166,704.918152 488.351166,696.006287 
	C496.623596,696.006287 504.874329,696.006287 513.562500,696.004333 
	C513.999939,696.002380 513.930054,695.930054 513.962524,696.402100 
	C513.973389,705.272766 513.951721,713.671387 513.930054,722.069946 
	C513.930054,722.069946 514.002380,722.000061 514.039062,721.965698 
z"/>
<path fill="#000000" opacity="1.000000" stroke="none" 
	d="
M539.033569,52.042427 
	C539.067871,43.614613 539.067871,35.150146 539.067871,26.343414 
	C547.483521,26.343414 555.873413,26.343414 564.631958,26.343414 
	C564.631958,34.556084 564.631958,43.060001 564.631958,51.994537 
	C556.385437,51.994537 548.128357,51.994537 539.398682,51.965805 
	C538.926086,51.937077 538.999268,52.005768 539.033569,52.042427 
z"/>
<path fill="#000000" opacity="1.000000" stroke="none" 
	d="
M255.965652,566.961060 
	C255.931244,575.382935 255.931244,583.841492 255.931244,592.649536 
	C247.414566,592.649536 238.916351,592.649536 230.005829,592.649536 
	C230.005829,584.372864 230.005829,576.121277 230.037262,567.396973 
	C230.068710,566.924255 229.999954,566.997620 230.437119,567.001282 
	C239.272842,567.026611 247.671387,567.048279 256.069946,567.069946 
	C256.069946,567.069946 256.000061,566.997742 255.965652,566.961060 
z"/>
<path fill="#000000" opacity="1.000000" stroke="none" 
	d="
M487.960938,129.034393 
	C496.371887,129.068802 504.819550,129.068802 513.994141,129.068802 
	C513.994141,137.404694 513.994141,145.767563 513.962708,154.603104 
	C513.931274,155.075775 514.000061,155.002396 513.562866,154.998718 
	C504.727173,154.973373 496.328613,154.951706 487.965027,154.965027 
	C488.000000,155.000000 488.069946,155.069946 488.037445,154.597870 
	C488.026611,145.727219 488.048279,137.328629 488.069946,128.930054 
	C488.069946,128.930054 487.997620,129.000000 487.960938,129.034393 
z"/>
<path fill="#000000" opacity="1.000000" stroke="none" 
	d="
M101.075829,284.068787 
	C101.075829,275.622681 101.075829,267.176575 101.075829,258.005829 
	C109.406357,258.005829 117.768417,258.005829 126.603149,258.037292 
	C127.075829,258.068787 127.002426,257.999969 126.998734,258.437134 
	C126.973381,267.272858 126.951714,275.671387 126.930054,284.069946 
	C126.930061,284.069946 127.000000,284.000000 126.562859,283.997528 
	C117.727165,283.973389 109.328613,283.951721 100.966248,283.965027 
	C101.002426,283.999969 101.075829,284.068787 101.075829,284.068787 
z"/>
<path fill="#000000" opacity="1.000000" stroke="none" 
	d="
M514.038940,206.965607 
	C505.628845,206.931183 497.182098,206.931183 488.006287,206.931183 
	C488.006287,198.597351 488.006287,190.236115 488.004333,181.437439 
	C488.002380,181.000000 487.930054,181.069946 488.402130,181.037445 
	C497.272797,181.026596 505.671356,181.048264 514.069946,181.069946 
	C514.069946,181.069946 514.000000,181.000000 513.997559,181.437134 
	C513.973389,190.272842 513.951721,198.671387 513.930054,207.069946 
	C513.930054,207.069946 514.002258,207.000015 514.038940,206.965607 
z"/>
<path fill="#000000" opacity="1.000000" stroke="none" 
	d="
M488.039062,180.965607 
	C479.673706,180.952179 471.271606,180.973175 462.396851,180.962708 
	C461.924194,180.931229 461.997589,181.000031 462.001251,180.562866 
	C462.026581,171.727158 462.048248,163.328613 462.069946,154.930054 
	C462.069946,154.930054 462.000000,155.000000 462.437134,155.002472 
	C471.272858,155.026611 479.671387,155.048279 488.069946,155.069946 
	C488.069946,155.069946 488.000000,155.000000 487.997528,155.437134 
	C487.973389,164.272842 487.951721,172.671387 487.930054,181.069946 
	C487.930054,181.069946 488.002380,181.000000 488.039062,180.965607 
z"/>
<path fill="#000000" opacity="1.000000" stroke="none" 
	d="
M719.956909,748.034119 
	C728.384399,748.068420 736.848572,748.068420 745.655823,748.068420 
	C745.655823,756.148193 745.655823,764.205383 745.655823,772.631653 
	C737.444519,772.631653 728.941101,772.631653 720.005371,772.631653 
	C720.005371,764.720276 720.005371,756.795959 720.033813,748.399170 
	C720.062317,747.926697 719.993591,747.999817 719.956909,748.034119 
z"/>
<path fill="#000000" opacity="1.000000" stroke="none" 
	d="
M514.034302,696.039062 
	C514.068726,687.629028 514.068726,679.182434 514.068726,670.005859 
	C522.070740,670.005859 530.100525,670.005859 538.603027,670.037292 
	C539.075745,670.068726 539.002441,669.999939 538.998718,670.437134 
	C538.994995,679.234985 538.994995,687.595764 538.994995,695.930054 
	C530.157227,695.930054 522.043640,695.930054 513.930054,695.930054 
	C513.930054,695.930054 513.999939,696.002380 514.034302,696.039062 
z"/>
<path fill="#000000" opacity="1.000000" stroke="none" 
	d="
M308.034424,284.039062 
	C308.047852,275.673676 308.026825,267.271606 308.037292,258.396851 
	C308.068756,257.924164 307.999939,257.997589 308.437134,258.001282 
	C316.939514,258.026611 325.004730,258.048279 333.069946,258.069946 
	C333.069946,258.069946 333.000000,258.000000 332.997528,258.437134 
	C332.995056,267.235016 332.995056,275.595734 332.995056,283.930054 
	C324.157227,283.930054 316.043640,283.930054 307.930054,283.930054 
	C307.930054,283.930054 308.000031,284.002380 308.034424,284.039062 
z"/>
<path fill="#000000" opacity="1.000000" stroke="none" 
	d="
M101.039124,309.965637 
	C92.950226,309.931213 84.824615,309.931213 76.350067,309.931213 
	C76.350067,301.414307 76.350067,292.916382 76.350067,284.005829 
	C84.292900,284.005829 92.211685,284.005829 100.603149,284.037292 
	C101.075829,284.068787 101.002426,283.999969 100.998734,284.437134 
	C100.973389,293.272858 100.951721,301.671387 100.930061,310.069946 
	C100.930061,310.069946 101.002426,310.000031 101.039124,309.965637 
z"/>
<path fill="#000000" opacity="1.000000" stroke="none" 
	d="
M746.034119,619.043091 
	C746.068420,610.615601 746.068420,602.151428 746.068420,593.344177 
	C754.148193,593.344177 762.205383,593.344177 770.631653,593.344177 
	C770.631653,601.555481 770.631653,610.058899 770.631653,618.994629 
	C762.720276,618.994629 754.795959,618.994629 746.399170,618.966187 
	C745.926697,618.937683 745.999817,619.006409 746.034119,619.043091 
z"/>
<path fill="#000000" opacity="1.000000" stroke="none" 
	d="
M756.024658,309.999023 
	C752.550537,309.999023 749.570496,309.999023 746.297485,309.999023 
	C746.297485,301.402985 746.297485,292.999084 746.297485,284.296570 
	C754.265015,284.296570 762.335876,284.296570 770.704529,284.296570 
	C770.704529,292.601166 770.704529,301.004974 770.704529,309.999023 
	C766.044861,309.999023 761.281799,309.999023 756.024658,309.999023 
z"/>
<path fill="#000000" opacity="1.000000" stroke="none" 
	d="
M307.960938,103.034424 
	C315.991180,103.047981 324.058167,103.027145 332.562561,103.004364 
	C332.999969,103.002426 332.930054,102.930061 332.962555,103.402130 
	C332.973389,112.272774 332.951721,120.671364 332.930054,129.069946 
	C332.930054,129.069946 333.000000,129.000000 332.562866,128.997528 
	C324.060486,128.973389 315.995270,128.951721 307.930054,128.930054 
	C307.930054,128.930054 308.000000,129.000000 308.002472,128.562866 
	C308.026611,119.727165 308.048279,111.328613 308.069946,102.930061 
	C308.069946,102.930061 307.997620,103.000015 307.960938,103.034424 
z"/>
<path fill="#000000" opacity="1.000000" stroke="none" 
	d="
M333.034363,103.039124 
	C333.068787,94.950226 333.068787,86.824615 333.068787,78.350067 
	C341.585693,78.350067 350.083618,78.350067 358.994171,78.350067 
	C358.994171,86.292900 358.994171,94.211685 358.962708,102.603149 
	C358.931213,103.075829 359.000031,103.002426 358.562866,102.998734 
	C349.727142,102.973381 341.328613,102.951721 332.930054,102.930061 
	C332.930054,102.930061 332.999969,103.002426 333.034363,103.039124 
z"/>
<path fill="#000000" opacity="1.000000" stroke="none" 
	d="
M745.960938,645.034302 
	C754.049561,645.068726 762.174805,645.068726 770.649536,645.068726 
	C770.649536,653.251709 770.649536,661.416992 770.649536,669.994141 
	C762.706421,669.994141 754.788025,669.994141 746.396973,669.962708 
	C745.924255,669.931274 745.997559,670.000061 746.001221,669.562866 
	C746.026611,661.060486 746.048279,652.995300 746.069946,644.930054 
	C746.069946,644.930054 745.997620,644.999939 745.960938,645.034302 
z"/>
<path fill="#FFFFFF" opacity="1.000000" stroke="none" 
	d="
M205.402130,516.037415 
	C204.951721,507.671387 204.973389,499.272858 204.962555,490.402161 
	C221.717148,489.930054 238.504227,489.930054 256.005341,489.930054 
	C256.005341,464.572693 256.005341,439.223633 256.003876,413.437256 
	C256.002411,412.999878 255.930054,413.069946 256.402161,413.037415 
	C282.272797,413.026581 307.671387,413.048248 333.034973,413.034973 
	C333.000000,413.000000 332.930054,412.930054 332.962585,413.402130 
	C332.995087,421.804596 332.995087,429.735016 332.995087,437.634705 
	C350.616364,437.634705 367.779480,437.634705 385.318726,437.634705 
	C385.318726,429.204712 385.318726,421.138397 385.318726,413.069946 
	C402.490234,413.069946 419.280090,413.069946 436.034973,413.034973 
	C436.000000,413.000000 435.930054,412.930054 435.962585,413.402130 
	C435.995087,421.902802 435.995087,429.931396 435.995087,438.069946 
	C445.179443,438.069946 453.624695,438.069946 462.034973,438.034973 
	C462.000000,438.000000 461.930054,437.930054 461.962585,438.402130 
	C461.995087,447.235565 461.995087,455.596893 461.995087,464.069946 
	C471.177460,464.069946 479.623718,464.069946 488.034973,464.034973 
	C488.000000,464.000000 487.930054,463.930054 487.962585,464.402161 
	C487.973419,481.939484 487.951721,499.004700 487.965088,516.033813 
	C488.000122,515.997620 488.069031,515.924194 488.069031,515.924194 
	C471.004120,515.951111 453.939240,515.978027 436.402191,516.037476 
	C435.930054,507.594849 435.930054,499.119751 435.930054,490.268433 
	C419.135223,490.268433 402.409546,490.268433 385.296631,490.268433 
	C385.296631,481.507080 385.296631,473.103363 385.296631,464.350708 
	C350.753723,464.350708 316.597137,464.350708 282.004944,464.350708 
	C282.004944,481.275513 282.004944,498.200623 282.037445,515.597778 
	C256.671356,516.048218 231.272781,516.026550 205.402130,516.037415 
z"/>
<path fill="#FFFFFF" opacity="1.000000" stroke="none" 
	d="
M513.962524,696.402100 
	C522.043640,695.930054 530.157227,695.930054 538.994995,695.930054 
	C538.994995,687.595764 538.994995,679.234985 538.962524,670.402161 
	C564.818359,669.930054 590.706665,669.930054 616.971008,669.930054 
	C616.971008,678.771545 616.971008,687.168823 616.971008,696.005615 
	C625.602783,696.005615 633.864014,696.005615 642.562500,696.005920 
	C642.999817,696.006226 642.926697,695.937378 642.926697,695.937378 
	C642.926697,704.409058 642.926697,712.880737 642.926697,721.720032 
	C625.810486,721.720032 608.757385,721.720032 591.320801,721.720032 
	C591.320801,730.469055 591.320801,738.870483 591.320801,747.635254 
	C582.432129,747.635254 573.918579,747.635254 565.015869,747.635254 
	C565.015869,739.217346 565.015869,730.815430 565.015869,722.005005 
	C548.047852,722.005005 531.461060,722.005005 514.402161,722.037476 
	C513.951721,713.671387 513.973389,705.272766 513.962524,696.402100 
z"/>
<path fill="#FFFFFF" opacity="1.000000" stroke="none" 
	d="
M570.109497,567.000000 
	C594.565674,567.000000 618.531616,567.000000 642.748169,567.000000 
	C642.748169,593.025391 642.748169,618.762268 642.748169,644.749939 
	C616.971130,644.749939 591.234314,644.749939 565.248352,644.749939 
	C565.248352,618.967773 565.248352,593.231140 565.248352,567.000000 
	C566.734924,567.000000 568.177124,567.000000 570.109497,567.000000 
M605.487549,619.000000 
	C609.257446,619.000000 613.027405,619.000000 616.716309,619.000000 
	C616.716309,610.027161 616.716309,601.623047 616.716309,593.284546 
	C608.025513,593.284546 599.621460,593.284546 591.285339,593.284546 
	C591.285339,601.976135 591.285339,610.380249 591.285339,619.000000 
	C595.878174,619.000000 600.187561,619.000000 605.487549,619.000000 
z"/>
<path fill="#FFFFFF" opacity="1.000000" stroke="none" 
	d="
M513.930969,464.075836 
	C522.065369,464.075836 530.199707,464.075836 538.710815,464.075836 
	C538.710815,472.505219 538.710815,480.900452 538.710815,489.823090 
	C556.237610,489.823090 573.401550,489.823090 591.005005,489.823090 
	C591.005005,498.604706 591.005005,506.865234 591.037476,515.597839 
	C565.671509,516.044800 540.273132,516.019714 514.437378,515.996094 
	C514.000000,515.997559 514.069946,516.069946 514.037476,515.597839 
	C514.026672,498.060516 514.048340,480.995270 514.034912,463.966217 
	C513.999939,464.002380 513.930969,464.075836 513.930969,464.075836 
z"/>
<path fill="#FFFFFF" opacity="1.000000" stroke="none" 
	d="
M745.597900,644.962524 
	C746.048279,652.995300 746.026611,661.060486 746.037476,669.597839 
	C728.852112,670.069946 711.634216,670.069946 694.005615,670.069946 
	C694.005615,661.713501 694.005615,653.794189 694.005981,645.437500 
	C694.006287,645.000183 693.937439,645.073364 693.937439,645.073364 
	C711.000244,645.047241 728.062988,645.021118 745.597900,644.962524 
z"/>
<path fill="#FFFFFF" opacity="1.000000" stroke="none" 
	d="
M667.745850,696.280090 
	C676.339844,696.280090 684.933838,696.280090 693.763611,696.280090 
	C693.763611,704.706238 693.763611,713.094482 693.763611,721.742310 
	C685.338318,721.742310 676.949219,721.742310 667.991638,721.742310 
	C667.991638,713.531677 667.991638,705.287354 667.905273,696.620239 
	C667.818909,696.197510 667.745850,696.280090 667.745850,696.280090 
z"/>
<path fill="#FFFFFF" opacity="1.000000" stroke="none" 
	d="
M694.042969,644.965820 
	C685.614624,644.931519 677.149597,644.931519 668.342407,644.931519 
	C668.342407,636.517029 668.342407,628.126587 668.342407,619.367310 
	C676.555481,619.367310 685.060364,619.367310 693.995544,619.367310 
	C693.995544,627.613281 693.995544,635.870850 693.966492,644.600891 
	C693.937439,645.073364 694.006287,645.000183 694.042969,644.965820 
z"/>
<path fill="#FFFFFF" opacity="1.000000" stroke="none" 
	d="
M643.034180,696.042847 
	C643.068542,687.607666 643.068542,679.135742 643.068542,670.332031 
	C651.178406,670.332031 659.242493,670.332031 667.980957,670.332031 
	C667.980957,678.485046 667.980957,686.886047 667.863403,695.783569 
	C667.745850,696.280090 667.818909,696.197510 667.849609,696.162598 
	C659.877380,696.083679 651.874451,696.039612 643.399109,695.966492 
	C642.926697,695.937378 642.999817,696.006226 643.034180,696.042847 
z"/>
<path fill="#FFFFFF" opacity="1.000000" stroke="none" 
	d="
M513.965515,515.960815 
	C513.931030,524.050171 513.931030,532.176270 513.931030,540.651123 
	C505.414551,540.651123 496.916443,540.651123 488.004883,540.651123 
	C488.004883,532.707947 488.004883,524.788696 488.036957,516.396851 
	C488.069031,515.924194 488.000122,515.997620 488.437195,516.001282 
	C497.272858,516.026611 505.671387,516.048279 514.069946,516.069946 
	C514.069946,516.069946 514.000000,515.997559 513.965515,515.960815 
z"/>
<path fill="#FFFFFF" opacity="1.000000" stroke="none" 
	d="
M591.037476,412.597870 
	C573.940002,413.069946 556.810120,413.069946 539.340210,413.069946 
	C539.340210,395.841064 539.340210,378.786926 539.340210,361.184509 
	C556.223145,361.184509 573.400146,361.184509 590.995056,361.184509 
	C590.995056,344.051849 590.995056,327.463074 590.962524,310.402191 
	C599.405273,309.930054 607.880432,309.930054 616.744141,309.930054 
	C616.744141,301.465302 616.744141,293.061096 616.744141,284.330261 
	C625.519836,284.330261 633.920471,284.330261 642.712646,284.330261 
	C642.712646,292.501923 642.712646,300.906189 642.712646,309.697327 
	C651.152466,309.697327 659.223938,309.697327 667.646606,309.697327 
	C667.646606,318.138123 667.646606,326.207306 667.646606,334.831787 
	C651.095886,334.831787 634.247925,334.831787 617.031982,334.831787 
	C617.031982,352.438171 617.031982,369.496948 617.031982,386.939697 
	C608.264404,386.939697 599.859802,386.939697 591.004944,386.939697 
	C591.004944,395.588715 591.004944,403.857239 591.037476,412.597870 
z"/>
<path fill="#FFFFFF" opacity="1.000000" stroke="none" 
	d="
M667.949951,464.027344 
	C676.379761,464.061554 684.846252,464.061554 693.656250,464.061554 
	C693.656250,472.480804 693.656250,480.871857 693.656250,489.632233 
	C685.444153,489.632233 676.939270,489.632233 668.003967,489.632233 
	C668.003967,481.384216 668.003967,473.125549 668.029541,464.393433 
	C668.055115,463.920044 667.986572,463.993134 667.949951,464.027344 
z"/>
<path fill="#FFFFFF" opacity="1.000000" stroke="none" 
	d="
M667.949951,258.027344 
	C676.379761,258.061554 684.846252,258.061554 693.656250,258.061554 
	C693.656250,266.480804 693.656250,274.871857 693.656250,283.632233 
	C685.444153,283.632233 676.939270,283.632233 668.003967,283.632233 
	C668.003967,275.384216 668.003967,267.125549 668.029541,258.393433 
	C668.055115,257.920044 667.986572,257.993134 667.949951,258.027344 
z"/>
<path fill="#FFFFFF" opacity="1.000000" stroke="none" 
	d="
M668.000000,374.992249 
	C668.000000,370.187531 668.000000,365.878113 668.000000,361.285309 
	C676.619751,361.285309 685.023865,361.285309 693.715454,361.285309 
	C693.715454,369.621399 693.715454,378.025482 693.715454,386.716278 
	C685.376953,386.716278 676.972900,386.716278 668.000000,386.716278 
	C668.000000,383.027466 668.000000,379.257507 668.000000,374.992249 
z"/>
<path fill="#FFFFFF" opacity="1.000000" stroke="none" 
	d="
M307.962585,284.402161 
	C316.043640,283.930054 324.157227,283.930054 332.995056,283.930054 
	C332.995056,275.595734 332.995056,267.235016 332.962555,258.402161 
	C341.328613,257.951721 349.727142,257.973389 358.597839,257.962555 
	C359.069946,275.050140 359.069946,292.170227 359.069946,309.995056 
	C384.426727,309.995056 409.776184,309.995056 435.597809,309.962555 
	C436.069946,318.072449 436.069946,326.214844 436.069946,334.721680 
	C461.860779,334.721680 487.577271,334.721680 513.646484,334.721680 
	C513.646484,343.471558 513.646484,351.873810 513.646484,360.843628 
	C505.427582,360.843628 496.897675,360.843628 488.197144,360.843628 
	C488.197144,369.806641 488.197144,378.203796 488.197144,386.989990 
	C496.787140,386.989990 505.192230,386.989990 513.995117,386.989990 
	C513.995117,412.628143 513.995117,437.879364 513.963013,463.603210 
	C513.930969,464.075836 513.999939,464.002380 513.562866,463.998718 
	C504.727173,463.973358 496.328613,463.951691 487.930054,463.930054 
	C487.930054,463.930054 488.000000,464.000000 488.002472,463.562866 
	C488.004944,454.764374 488.004944,446.403046 488.004944,437.930054 
	C478.822510,437.930054 470.376282,437.930054 461.930054,437.930054 
	C461.930054,437.930054 462.000000,438.000000 462.002472,437.562866 
	C462.004944,429.097137 462.004944,421.068573 462.004944,412.930054 
	C452.820526,412.930054 444.375305,412.930054 435.930054,412.930054 
	C435.930054,412.930054 436.000000,413.000000 436.002472,412.562836 
	C436.004944,395.202454 436.004944,378.279266 436.004944,360.971558 
	C427.506256,360.971558 419.435120,360.971558 410.989746,360.971558 
	C410.989746,352.191315 410.989746,343.787537 410.989746,335.366028 
	C402.082611,335.366028 393.567322,335.366028 384.674194,335.366028 
	C384.674194,344.133850 384.674194,352.537231 384.674194,361.307129 
	C375.885406,361.307129 367.483643,361.307129 358.725647,361.307129 
	C358.725647,378.749908 358.725647,395.806610 358.725647,412.930054 
	C349.878448,412.930054 341.404236,412.930054 332.930054,412.930054 
	C332.930054,412.930054 333.000000,413.000000 333.002472,412.562866 
	C333.004944,403.865173 333.004944,395.604645 333.004944,386.821991 
	C315.734039,386.821991 298.902588,386.821991 281.708679,386.821991 
	C281.708679,377.898254 281.708679,369.503540 281.708679,360.930054 
	C272.864807,360.930054 264.397430,360.930054 255.966263,360.965057 
	C256.002472,361.000061 256.075897,361.069000 256.075897,361.069000 
	C256.048950,352.670776 256.022003,344.272522 255.962555,335.402161 
	C273.042480,334.930054 290.154877,334.930054 307.995087,334.930054 
	C307.995087,318.257477 307.995087,301.565857 307.962585,284.402161 
z"/>
<path fill="#FFFFFF" opacity="1.000000" stroke="none" 
	d="
M127.402130,413.037445 
	C126.930061,404.612335 126.930061,396.154755 126.930061,387.158600 
	C118.419937,387.158600 109.909538,387.158600 100.995049,387.158600 
	C100.995049,378.375946 100.995049,370.125122 100.962555,361.402161 
	C109.406326,360.930054 117.882599,360.930054 126.748978,360.930054 
	C126.748978,352.461304 126.748978,344.055756 126.748978,335.263550 
	C135.525818,335.263550 143.931366,335.263550 152.724335,335.263550 
	C152.724335,326.820221 152.724335,318.747894 152.724335,310.339111 
	C170.167038,310.339111 187.226761,310.339111 204.643707,310.339111 
	C204.643707,318.133179 204.643707,326.203522 204.643707,334.842773 
	C196.428955,334.842773 187.898087,334.842773 179.198669,334.842773 
	C179.198669,343.808044 179.198669,352.206024 179.198669,360.994293 
	C187.791138,360.994293 196.197113,360.994293 204.795639,360.994293 
	C204.795639,369.782227 204.795639,378.180237 204.795639,386.958374 
	C187.572693,386.958374 170.511780,386.958374 153.065063,386.958374 
	C153.065063,395.730164 153.065063,404.135803 153.065063,413.004944 
	C144.413406,413.004944 136.143814,413.004944 127.402130,413.037445 
z"/>
<path fill="#FFFFFF" opacity="1.000000" stroke="none" 
	d="
M50.402138,438.037445 
	C49.930061,429.937775 49.930061,421.805603 49.930061,412.995056 
	C75.450859,412.995056 100.788277,412.995056 126.597824,412.962555 
	C127.069939,429.720123 127.069939,446.510193 127.069939,463.650024 
	C118.526497,463.650024 110.129738,463.650024 101.173935,463.650024 
	C101.173935,455.442932 101.173935,446.918884 101.173935,438.004944 
	C84.037827,438.004944 67.456017,438.004944 50.402138,438.037445 
z"/>
<path fill="#FFFFFF" opacity="1.000000" stroke="none" 
	d="
M256.039124,412.965393 
	C247.610458,412.930939 239.145096,412.930939 230.339966,412.930939 
	C230.339966,395.738159 230.339966,378.585632 230.339966,361.004883 
	C238.613571,361.004883 246.872086,361.004883 255.603241,361.036926 
	C256.075897,361.069000 256.002472,361.000061 255.998764,361.437195 
	C255.973389,378.939545 255.951721,396.004730 255.930054,413.069946 
	C255.930054,413.069946 256.002411,412.999878 256.039124,412.965393 
z"/>
<path fill="#FFFFFF" opacity="1.000000" stroke="none" 
	d="
M204.972870,257.950134 
	C204.938675,266.379944 204.938675,274.846375 204.938675,283.656311 
	C196.519043,283.656311 188.128006,283.656311 179.367691,283.656311 
	C179.367691,275.443970 179.367691,266.938660 179.367691,258.004028 
	C187.615921,258.004028 195.874619,258.004028 204.606735,258.029663 
	C205.080170,258.055298 205.007080,257.986755 204.972870,257.950134 
z"/>
<path fill="#FFFFFF" opacity="1.000000" stroke="none" 
	d="
M127.402130,284.037445 
	C126.951714,275.671387 126.973381,267.272858 126.962555,258.402161 
	C135.387772,257.930054 143.845474,257.930054 152.651382,257.930054 
	C152.651382,266.585876 152.651382,275.084229 152.651382,284.004944 
	C144.375900,284.004944 136.125046,284.004944 127.402130,284.037445 
z"/>
<path fill="#FFFFFF" opacity="1.000000" stroke="none" 
	d="
M101.402130,310.037445 
	C100.951721,301.671387 100.973389,293.272858 100.962555,284.402161 
	C109.328613,283.951721 117.727165,283.973389 126.597824,283.962555 
	C127.069939,292.376282 127.069939,300.822540 127.069939,310.004944 
	C118.596870,310.004944 110.235527,310.004944 101.402130,310.037445 
z"/>
<path fill="#FFFFFF" opacity="1.000000" stroke="none" 
	d="
M205.037445,489.597839 
	C196.671387,490.048279 188.272842,490.026611 179.402161,490.037445 
	C178.950577,481.727509 178.971100,473.385071 178.905518,464.619812 
	C178.819412,464.196991 178.746338,464.279541 178.746338,464.279541 
	C187.346130,464.279541 195.945923,464.279541 205.004944,464.279541 
	C205.004944,472.595673 205.004944,480.860718 205.037445,489.597839 
z"/>
<path fill="#FFFFFF" opacity="1.000000" stroke="none" 
	d="
M178.926575,437.937439 
	C178.944717,446.387177 178.962845,454.836914 178.863663,463.783081 
	C178.746338,464.279541 178.819412,464.196991 178.850159,464.162109 
	C170.417282,464.127197 161.953659,464.127197 153.246643,464.127197 
	C153.246643,455.298157 153.246643,446.893768 153.246643,438.005615 
	C161.574326,438.005615 169.849716,438.005615 178.562439,438.005920 
	C178.999786,438.006256 178.926575,437.937439 178.926575,437.937439 
z"/>
<path fill="#FFFFFF" opacity="1.000000" stroke="none" 
	d="
M127.037445,540.597900 
	C118.624687,541.069946 110.179436,541.069946 100.995049,541.069946 
	C100.995049,532.931396 100.995049,524.902832 100.962555,516.402161 
	C109.375320,515.930054 117.820580,515.930054 127.004951,515.930054 
	C127.004951,524.068604 127.004951,532.097168 127.037445,540.597900 
z"/>
<path fill="#FFFFFF" opacity="1.000000" stroke="none" 
	d="
M179.034119,438.042908 
	C179.068451,429.947540 179.068451,421.815491 179.068451,413.341797 
	C187.483627,413.341797 195.873734,413.341797 204.632721,413.341797 
	C204.632721,421.222260 204.632721,429.394226 204.632721,437.995514 
	C196.385880,437.995514 188.128677,437.995514 179.399017,437.966492 
	C178.926575,437.937439 178.999786,438.006256 179.034119,438.042908 
z"/>
<path fill="#FFFFFF" opacity="1.000000" stroke="none" 
	d="
M435.597870,618.962524 
	C436.069946,635.826477 436.069946,652.722900 436.069946,669.989014 
	C427.541595,669.989014 419.481018,669.989014 411.004944,669.989014 
	C411.004944,678.611633 411.004944,686.868652 411.037445,695.597839 
	C402.596863,696.069946 394.123749,696.069946 385.325684,696.069946 
	C385.325684,661.711670 385.325684,627.563782 385.325684,593.207458 
	C393.772369,593.207458 402.167175,593.207458 410.948273,593.207458 
	C410.948273,601.745483 410.948273,610.147888 410.948273,618.995056 
	C419.259094,618.995056 427.192444,618.995056 435.597870,618.962524 
z"/>
<path fill="#FFFFFF" opacity="1.000000" stroke="none" 
	d="
M436.037445,283.597839 
	C419.292145,284.069946 402.514343,284.069946 385.187592,284.069946 
	C385.187592,275.450989 385.187592,266.934174 385.187592,258.004944 
	C376.388794,258.004944 368.131531,258.004944 359.402161,258.037445 
	C358.930054,249.612640 358.930054,241.155319 358.930054,232.160370 
	C367.578461,232.160370 376.088440,232.160370 385.005615,232.160370 
	C385.005615,223.711304 385.005615,215.793106 385.005920,207.437561 
	C385.006256,207.000214 384.937439,207.073425 384.937439,207.073425 
	C393.393463,207.073425 401.849487,207.073425 410.842346,207.073425 
	C410.842346,198.418961 410.842346,189.908737 410.842346,180.995056 
	C419.290192,180.995056 427.207947,180.995056 435.597839,180.962555 
	C436.048279,214.995285 436.026611,249.060532 436.037445,283.597839 
z"/>
<path fill="#FFFFFF" opacity="1.000000" stroke="none" 
	d="
M333.037415,257.597870 
	C325.004730,258.048279 316.939514,258.026611 308.402161,258.037445 
	C307.930054,232.619873 307.930054,207.169785 307.930054,181.359894 
	C316.244720,181.359894 324.425079,181.359894 333.004913,181.359894 
	C333.004913,206.642944 333.004913,231.884369 333.037415,257.597870 
z"/>
<path fill="#FFFFFF" opacity="1.000000" stroke="none" 
	d="
M385.042908,206.965881 
	C376.608063,206.931549 368.136536,206.931549 359.332611,206.931549 
	C359.332611,189.831451 359.332611,172.783356 359.332611,155.367264 
	C367.562469,155.367264 376.073395,155.367264 384.995514,155.367264 
	C384.995514,172.296280 384.995514,189.212402 384.966492,206.600983 
	C384.937439,207.073425 385.006256,207.000214 385.042908,206.965881 
z"/>
<path fill="#FFFFFF" opacity="1.000000" stroke="none" 
	d="
M461.597839,154.962555 
	C462.048248,163.328613 462.026581,171.727158 462.037415,180.597839 
	C453.671387,181.048279 445.272858,181.026611 436.402161,181.037445 
	C435.930054,172.623718 435.930054,164.177475 435.930054,154.995056 
	C444.403107,154.995056 452.764435,154.995056 461.597839,154.962555 
z"/>
<path fill="#FFFFFF" opacity="1.000000" stroke="none" 
	d="
M488.037445,154.597870 
	C479.671387,155.048279 471.272858,155.026611 462.402161,155.037445 
	C461.951691,146.671387 461.973358,138.272842 461.962524,129.402161 
	C470.328613,128.951721 478.727142,128.973389 487.597839,128.962555 
	C488.048279,137.328629 488.026611,145.727219 488.037445,154.597870 
z"/>
<path fill="#FFFFFF" opacity="1.000000" stroke="none" 
	d="
M435.962555,103.402130 
	C444.376282,102.930061 452.822540,102.930061 462.004944,102.930061 
	C462.004944,111.403076 462.004944,119.764397 462.037445,128.597839 
	C453.623718,129.069946 445.177460,129.069946 435.995056,129.069946 
	C435.995056,120.596870 435.995056,112.235527 435.962555,103.402130 
z"/>
<path fill="#FFFFFF" opacity="1.000000" stroke="none" 
	d="
M332.962555,103.402130 
	C341.328613,102.951721 349.727142,102.973381 358.597839,102.962555 
	C359.069946,111.376289 359.069946,119.822510 359.069946,129.004944 
	C350.596924,129.004944 342.235626,129.004944 333.402161,129.037445 
	C332.951721,120.671364 332.973389,112.272774 332.962555,103.402130 
z"/>
<path fill="#FFFFFF" opacity="1.000000" stroke="none" 
	d="
M307.597870,102.962555 
	C308.048279,111.328613 308.026611,119.727165 308.037445,128.597839 
	C299.671387,129.048294 291.272858,129.026627 282.402161,129.037445 
	C281.955261,120.671448 281.980469,112.272957 282.006165,103.437111 
	C282.006714,102.999763 281.937897,103.072952 281.937897,103.072952 
	C290.333862,103.046989 298.729828,103.021019 307.597870,102.962555 
z"/>
<path fill="#FFFFFF" opacity="1.000000" stroke="none" 
	d="
M307.962585,129.402130 
	C315.995270,128.951721 324.060486,128.973389 332.597839,128.962555 
	C333.069946,137.387390 333.069946,145.844711 333.069946,154.650879 
	C324.748108,154.650879 316.582428,154.650879 307.995087,154.650879 
	C307.995087,146.375214 307.995087,138.124710 307.962585,129.402130 
z"/>
<path fill="#FCFCFC" opacity="1.000000" stroke="none" 
	d="
M616.998779,81.000000 
	C616.998779,71.193382 616.998779,61.886757 616.998779,52.290192 
	C659.921448,52.290192 702.633301,52.290192 745.637817,52.290192 
	C745.637817,94.942894 745.637817,137.633163 745.637817,180.579071 
	C702.896118,180.579071 660.320679,180.579071 616.998779,180.579071 
	C616.998779,147.612900 616.998779,114.556450 616.998779,81.000000 
M719.888306,100.500076 
	C719.888306,93.053429 719.888306,85.606773 719.888306,78.124664 
	C693.846924,78.124664 668.302551,78.124664 642.794678,78.124664 
	C642.794678,103.838600 642.794678,129.239700 642.794678,154.686371 
	C668.564575,154.686371 694.103149,154.686371 719.888306,154.686371 
	C719.888306,136.749619 719.888306,119.124847 719.888306,100.500076 
z"/>
<path fill="#FCFCFC" opacity="1.000000" stroke="none" 
	d="
M50.160194,658.999878 
	C50.160198,645.524109 50.160198,632.548279 50.160198,619.199585 
	C93.116570,619.199585 135.819916,619.199585 178.752502,619.199585 
	C178.752502,661.858582 178.752502,704.579407 178.752502,747.500916 
	C135.913651,747.500916 93.327759,747.500916 50.160194,747.500916 
	C50.160194,718.032227 50.160194,688.766113 50.160194,658.999878 
M152.997986,685.500000 
	C152.997986,671.900635 152.997986,658.301331 152.997986,644.822144 
	C127.013992,644.822144 101.606987,644.822144 76.151062,644.822144 
	C76.151062,670.596252 76.151062,696.114197 76.151062,721.626831 
	C101.879471,721.626831 127.270515,721.626831 152.997986,721.626831 
	C152.997986,709.747009 152.997986,698.123474 152.997986,685.500000 
z"/>
<path fill="#FCFCFC" opacity="1.000000" stroke="none" 
	d="
M148.000000,51.997169 
	C158.477478,51.997169 168.454956,51.997169 178.716888,51.997169 
	C178.716888,94.938622 178.716888,137.657288 178.716888,180.606369 
	C135.988052,180.606369 93.396126,180.606369 50.483765,180.606369 
	C50.483765,137.960663 50.483765,95.374222 50.483765,51.997169 
	C82.692024,51.997169 115.096016,51.997169 148.000000,51.997169 
M152.998245,116.500000 
	C152.998245,103.726799 152.998245,90.953598 152.998245,78.131439 
	C127.053864,78.131439 101.543846,78.131439 76.032700,78.131439 
	C76.032700,103.839134 76.032700,129.228989 76.032700,154.696594 
	C101.771011,154.696594 127.289742,154.696594 152.998245,154.696594 
	C152.998245,142.097260 152.998245,129.798630 152.998245,116.500000 
z"/>
<path fill="#FFFFFF" opacity="1.000000" stroke="none" 
	d="
M282.043396,102.965431 
	C273.615417,102.931099 265.150757,102.931099 256.343140,102.931099 
	C256.343140,94.852142 256.343140,86.794357 256.343140,78.367493 
	C264.555084,78.367493 273.059448,78.367493 281.995544,78.367493 
	C281.995544,86.278702 281.995544,94.203445 281.966736,102.600571 
	C281.937897,103.072952 282.006714,102.999763 282.043396,102.965431 
z"/>
<path fill="#FFFFFF" opacity="1.000000" stroke="none" 
	d="
M256.037415,566.597900 
	C247.671387,567.048279 239.272842,567.026611 230.402161,567.037476 
	C229.930054,558.612244 229.930054,550.154480 229.930054,541.348633 
	C238.585861,541.348633 247.084213,541.348633 256.004913,541.348633 
	C256.004913,549.624084 256.004913,557.874939 256.037415,566.597900 
z"/>
<path fill="#FFFFFF" opacity="1.000000" stroke="none" 
	d="
M282.037415,747.597900 
	C273.623718,748.069946 265.177460,748.069946 255.995041,748.069946 
	C255.995041,739.596924 255.995041,731.235596 255.962555,722.402161 
	C264.376312,721.930054 272.822571,721.930054 282.004913,721.930054 
	C282.004913,730.403076 282.004913,738.764465 282.037415,747.597900 
z"/>
<path fill="#FFFFFF" opacity="1.000000" stroke="none" 
	d="
M488.402130,181.037445 
	C487.951721,172.671387 487.973389,164.272842 487.962555,155.402161 
	C496.328613,154.951706 504.727173,154.973373 513.597839,154.962555 
	C514.048279,163.328613 514.026611,171.727158 514.037476,180.597824 
	C505.671356,181.048264 497.272797,181.026596 488.402130,181.037445 
z"/>
<path fill="#FFFFFF" opacity="1.000000" stroke="none" 
	d="
M514.402100,207.037445 
	C513.951721,198.671387 513.973389,190.272842 513.962524,181.402161 
	C522.054749,180.930054 530.179443,180.930054 538.651855,180.930054 
	C538.651855,189.586212 538.651855,198.083847 538.651855,207.004944 
	C530.710144,207.004944 522.792175,207.004944 514.402100,207.037445 
z"/>
<path fill="#000000" opacity="1.000000" stroke="none" 
	d="
M332.962585,413.402130 
	C341.404236,412.930054 349.878448,412.930054 358.725647,412.930054 
	C358.725647,395.806610 358.725647,378.749908 358.725647,361.307129 
	C367.483643,361.307129 375.885406,361.307129 384.674194,361.307129 
	C384.674194,352.537231 384.674194,344.133850 384.674194,335.366028 
	C393.567322,335.366028 402.082611,335.366028 410.989746,335.366028 
	C410.989746,343.787537 410.989746,352.191315 410.989746,360.971558 
	C419.435120,360.971558 427.506256,360.971558 436.004944,360.971558 
	C436.004944,378.279266 436.004944,395.202454 436.037445,412.597809 
	C419.280090,413.069946 402.490234,413.069946 385.318726,413.069946 
	C385.318726,421.138397 385.318726,429.204712 385.318726,437.634705 
	C367.779480,437.634705 350.616364,437.634705 332.995087,437.634705 
	C332.995087,429.735016 332.995087,421.804596 332.962585,413.402130 
z"/>
<path fill="#000000" opacity="1.000000" stroke="none" 
	d="
M256.402161,413.037415 
	C255.951721,396.004730 255.973389,378.939545 255.962555,361.402191 
	C264.397430,360.930054 272.864807,360.930054 281.708679,360.930054 
	C281.708679,369.503540 281.708679,377.898254 281.708679,386.821991 
	C298.902588,386.821991 315.734039,386.821991 333.004944,386.821991 
	C333.004944,395.604645 333.004944,403.865173 333.037445,412.597839 
	C307.671387,413.048248 282.272797,413.026581 256.402161,413.037415 
z"/>
<path fill="#000000" opacity="1.000000" stroke="none" 
	d="
M487.962585,464.402130 
	C496.328613,463.951691 504.727173,463.973358 513.597839,463.962524 
	C514.048340,480.995270 514.026672,498.060516 514.037476,515.597839 
	C505.671387,516.048279 497.272858,516.026611 488.402161,516.037476 
	C487.951721,499.004700 487.973419,481.939484 487.962585,464.402130 
z"/>
<path fill="#000000" opacity="1.000000" stroke="none" 
	d="
M461.962585,438.402130 
	C470.376282,437.930054 478.822510,437.930054 488.004944,437.930054 
	C488.004944,446.403046 488.004944,454.764374 488.037445,463.597839 
	C479.623718,464.069946 471.177460,464.069946 461.995087,464.069946 
	C461.995087,455.596893 461.995087,447.235565 461.962585,438.402130 
z"/>
<path fill="#000000" opacity="1.000000" stroke="none" 
	d="
M435.962585,413.402130 
	C444.375305,412.930054 452.820526,412.930054 462.004944,412.930054 
	C462.004944,421.068573 462.004944,429.097137 462.037445,437.597839 
	C453.624695,438.069946 445.179443,438.069946 435.995087,438.069946 
	C435.995087,429.931396 435.995087,421.902802 435.962585,413.402130 
z"/>
<path fill="#000000" opacity="1.000000" stroke="none" 
	d="
M604.992249,619.000000 
	C600.187561,619.000000 595.878174,619.000000 591.285339,619.000000 
	C591.285339,610.380249 591.285339,601.976135 591.285339,593.284546 
	C599.621460,593.284546 608.025513,593.284546 616.716309,593.284546 
	C616.716309,601.623047 616.716309,610.027161 616.716309,619.000000 
	C613.027405,619.000000 609.257446,619.000000 604.992249,619.000000 
z"/>
<path fill="#010101" opacity="1.000000" stroke="none" 
	d="
M719.888306,101.000076 
	C719.888306,119.124847 719.888306,136.749619 719.888306,154.686371 
	C694.103149,154.686371 668.564575,154.686371 642.794678,154.686371 
	C642.794678,129.239700 642.794678,103.838600 642.794678,78.124664 
	C668.302551,78.124664 693.846924,78.124664 719.888306,78.124664 
	C719.888306,85.606773 719.888306,93.053429 719.888306,101.000076 
z"/>
<path fill="#010101" opacity="1.000000" stroke="none" 
	d="
M152.997986,686.000000 
	C152.997986,698.123474 152.997986,709.747009 152.997986,721.626831 
	C127.270515,721.626831 101.879471,721.626831 76.151062,721.626831 
	C76.151062,696.114197 76.151062,670.596252 76.151062,644.822144 
	C101.606987,644.822144 127.013992,644.822144 152.997986,644.822144 
	C152.997986,658.301331 152.997986,671.900635 152.997986,686.000000 
z"/>
<path fill="#000000" opacity="1.000000" stroke="none" 
	d="
M152.998245,117.000000 
	C152.998245,129.798630 152.998245,142.097260 152.998245,154.696594 
	C127.289742,154.696594 101.771011,154.696594 76.032700,154.696594 
	C76.032700,129.228989 76.032700,103.839134 76.032700,78.131439 
	C101.543846,78.131439 127.053864,78.131439 152.998245,78.131439 
	C152.998245,90.953598 152.998245,103.726799 152.998245,117.000000 
z"/>
</svg>