<svg version="1.1" id="Layer_1" xmlns="http://www.w3.org/2000/svg" xmlns:xlink="http://www.w3.org/1999/xlink" x="0px" y="0px"
	 width="100%" viewBox="0 0 800 800" enable-background="new 0 0 800 800" xml:space="preserve">
<path fill="#FEFEFE" opacity="1.000000" stroke="none" 
	d="
M801.000000,215.000000 
	C801.000000,410.666656 801.000000,605.833313 801.000000,801.000000 
	C534.333313,801.000000 267.666656,801.000000 1.000000,801.000000 
	C1.000000,534.333313 1.000000,267.666656 1.000000,1.000000 
	C267.666656,1.000000 534.333313,1.000000 801.000000,1.000000 
	C801.000000,72.166664 801.000000,143.333328 801.000000,215.000000 
M463.874847,747.993652 
	C497.782501,747.993652 531.690125,747.993652 565.634155,747.993652 
	C565.634155,739.087585 565.634155,730.571655 565.634155,721.700928 
	C539.887390,721.700928 514.504822,721.700928 488.739624,721.700928 
	C488.739624,712.936035 488.739624,704.531677 488.739624,696.068848 
	C479.875458,696.068848 471.399841,696.068848 462.993683,695.125183 
	C462.993683,686.859070 462.993683,678.592957 462.993683,669.949219 
	C471.849121,669.949219 480.250305,669.949219 489.026886,669.949219 
	C489.026886,661.505127 489.026886,653.435364 489.026886,645.194092 
	C497.808014,645.194092 506.202789,645.194092 515.160034,645.194092 
	C515.160034,653.567383 515.160034,661.762146 515.160034,670.313232 
	C523.790039,670.313232 531.858337,670.313232 540.293274,670.313232 
	C540.293274,679.098999 540.293274,687.500610 540.293274,696.086426 
	C557.806030,696.086426 574.933533,696.086426 591.992676,696.013184 
	C591.992676,696.013184 591.919617,695.944641 591.995300,696.886169 
	C591.995300,705.156006 591.995300,713.425781 591.995300,721.770020 
	C609.543945,721.770020 626.604248,721.770020 644.047546,721.770020 
	C644.047546,704.481628 644.047546,687.417908 644.047546,669.966675 
	C652.494995,669.966675 660.569702,669.966675 669.015381,669.966675 
	C669.015381,652.847900 669.015381,636.116760 669.015381,619.195312 
	C677.799622,619.195312 686.199280,619.195312 695.160156,619.195312 
	C695.160156,636.235046 695.160156,653.088318 695.160156,669.658997 
	C721.111572,669.658997 746.501160,669.658997 771.670532,669.658997 
	C771.670532,652.588684 771.670532,635.859680 771.670532,618.753174 
	C754.612915,618.753174 737.881836,618.753174 721.086426,618.753174 
	C721.086426,609.892212 721.086426,601.415588 721.013184,593.007324 
	C721.013184,593.007324 720.944641,593.080383 721.886169,593.004700 
	C730.153198,593.004700 738.420166,593.004700 747.054260,593.004700 
	C747.054260,575.471924 747.054260,558.413940 747.054260,540.972778 
	C755.490173,540.972778 763.562012,540.972778 771.647827,540.972778 
	C771.647827,515.084534 771.647827,489.586975 771.647827,464.345093 
	C763.226318,464.345093 755.158142,464.345093 746.730835,464.345093 
	C746.730835,481.745941 746.730835,498.804016 746.730835,516.075684 
	C737.881104,516.075684 729.406189,516.075684 720.994141,515.130310 
	C720.994141,506.867004 720.994141,498.603729 720.994141,489.967377 
	C712.163940,489.967377 703.764893,489.967377 694.820312,489.967377 
	C694.820312,481.078705 694.820312,472.555847 694.820312,464.333221 
	C677.548523,464.333221 660.835388,464.333221 644.068848,464.333221 
	C644.068848,473.135376 644.068848,481.605560 643.125183,490.006348 
	C634.727173,490.029510 626.329163,490.052673 617.994141,489.130432 
	C617.994141,472.218658 617.994141,455.306854 617.994141,437.865021 
	C635.218994,437.865021 652.052551,437.865021 668.931152,437.865021 
	C668.931152,429.196320 668.931152,421.060303 669.874878,412.993683 
	C686.816833,412.993683 703.758728,412.993683 721.097412,412.993683 
	C721.097412,421.558685 721.097412,429.637726 721.097412,437.745056 
	C738.238464,437.745056 754.976929,437.745056 771.739990,437.745056 
	C771.739990,420.751251 771.739990,404.012726 771.739990,386.875275 
	C763.409180,386.875275 755.331604,386.875275 746.864380,386.875275 
	C746.864380,378.069214 746.864380,369.657776 746.864380,361.274109 
	C738.054199,361.274109 729.648315,361.274109 720.847168,361.274109 
	C720.847168,369.952942 720.847168,378.365540 720.847168,386.719727 
	C712.036194,386.719727 703.629639,386.719727 694.828857,386.719727 
	C694.828857,378.032166 694.828857,369.619446 694.828857,360.821960 
	C686.020996,360.821960 677.608704,360.821960 669.292969,360.821960 
	C669.292969,352.010620 669.292969,343.603729 669.292969,334.803589 
	C677.993835,334.803589 686.406982,334.803589 695.203369,334.803589 
	C695.203369,326.328125 695.203369,318.249115 695.203369,309.785797 
	C704.012207,309.785797 712.425049,309.785797 720.926270,309.785797 
	C720.926270,300.902649 720.926270,292.420044 721.871338,283.994537 
	C730.135071,283.994537 738.398804,283.994537 746.631836,283.994537 
	C746.631836,266.383636 746.631836,249.220367 746.631836,232.353516 
	C737.866150,232.353516 729.469299,232.353516 721.068054,232.353516 
	C721.068054,249.830444 721.068054,266.954926 720.124695,284.006561 
	C711.848389,284.006561 703.572021,284.006561 694.902588,284.006561 
	C694.902588,266.440918 694.902588,249.365204 694.902588,232.254837 
	C686.093872,232.254837 677.688477,232.254837 668.885864,232.254837 
	C668.885864,240.912476 668.885864,249.323410 668.885864,257.739166 
	C660.409485,257.739166 652.337402,257.739166 643.867859,257.739166 
	C643.867859,249.072220 643.867859,240.661972 643.867859,232.272263 
	C635.058228,232.272263 626.652222,232.272263 617.850952,232.272263 
	C617.850952,240.948853 617.850952,249.361191 617.850952,257.721741 
	C609.040283,257.721741 600.633850,257.721741 591.833008,257.721741 
	C591.833008,249.036453 591.833008,240.623718 591.833008,231.826294 
	C583.025452,231.826294 574.612976,231.826294 565.815796,231.826294 
	C565.815796,214.686066 565.815796,197.943695 565.815796,181.298248 
	C557.004944,181.298248 548.598328,181.298248 539.799011,181.298248 
	C539.799011,190.002670 539.799011,198.415131 539.799011,206.695770 
	C531.320679,206.695770 523.246643,206.695770 514.781006,206.695770 
	C514.781006,197.982849 514.781006,189.570023 514.781006,181.075806 
	C505.897308,181.075806 497.414246,181.075806 488.994141,180.130432 
	C489.037842,171.792587 489.081573,163.454727 490.041046,155.007263 
	C515.299500,155.007263 540.557922,155.007263 565.691711,155.007263 
	C565.691711,120.320457 565.691711,86.249001 565.691711,52.073399 
	C556.902588,52.073399 548.420227,52.073399 539.994629,51.128448 
	C539.994629,42.871742 539.994629,34.615036 539.994629,26.368435 
	C531.394104,26.368435 523.222778,26.368435 515.343079,26.368435 
	C515.343079,35.126801 515.343079,43.516209 515.343079,51.931648 
	C523.816650,51.931648 531.948303,51.931648 540.006653,52.875015 
	C540.006653,61.124470 540.006653,69.373924 540.006653,78.155014 
	C531.429382,78.155014 523.251892,78.155014 514.912964,78.155014 
	C514.912964,86.815765 514.912964,94.938568 514.986206,102.992966 
	C514.986206,102.992966 515.054749,102.919907 514.113220,102.995308 
	C505.846832,102.995308 497.580414,102.995308 489.277161,102.995308 
	C489.277161,120.732300 489.277161,137.991745 488.284668,155.019760 
	C479.831207,155.036118 471.377716,155.052475 462.993683,154.125107 
	C462.993683,137.215881 462.993683,120.306648 462.993683,102.869720 
	C445.780884,102.869720 428.949097,102.869720 411.926727,102.869720 
	C411.926727,94.205925 411.926727,86.071815 412.871643,77.994537 
	C438.121033,77.994537 463.370453,77.994537 488.800354,77.994537 
	C488.800354,69.190010 488.800354,60.793575 488.800354,51.845169 
	C471.429962,51.845169 454.249756,51.845169 436.696045,51.845169 
	C436.696045,42.890980 436.696045,34.488899 436.696045,26.339825 
	C428.237244,26.339825 420.169342,26.339825 412.068481,26.339825 
	C412.068481,43.812237 412.068481,60.945988 411.125061,78.006630 
	C402.729767,77.975609 394.334442,77.944580 386.007538,77.986778 
	C386.007538,77.986778 386.080627,78.055313 386.004700,77.113762 
	C386.004700,68.844635 386.004700,60.575500 386.004700,52.217445 
	C360.132935,52.217445 334.747070,52.217445 308.970093,52.217445 
	C308.970093,60.829517 308.970093,69.236252 308.970093,77.795425 
	C300.178772,77.795425 291.779846,77.795425 282.822296,77.795425 
	C282.822296,60.414265 282.822296,43.230434 282.822296,26.364082 
	C273.857605,26.364082 265.453796,26.364082 256.676819,26.364082 
	C256.676819,35.131779 256.676819,43.537861 256.676819,52.315067 
	C247.880707,52.315067 239.475021,52.315067 231.349594,52.315067 
	C231.349594,61.112202 231.349594,69.515465 231.349594,78.294266 
	C240.102005,78.294266 248.508133,78.294266 256.662872,78.294266 
	C256.662872,86.758621 256.662872,94.828819 256.662872,103.275330 
	C247.921570,103.275330 239.515549,103.275330 231.329727,103.275330 
	C231.329727,112.071793 231.329727,120.473938 231.329727,128.924194 
	C248.795120,128.924194 265.931946,128.924194 283.005859,129.869568 
	C283.005859,155.445374 283.005859,181.021179 283.005859,206.638489 
	C291.908508,206.638489 300.421875,206.638489 308.931183,206.638489 
	C308.931183,180.493423 308.931183,154.708817 309.874878,128.993668 
	C317.814880,128.993668 325.754852,128.993668 334.059692,128.993668 
	C334.059692,172.197250 334.059692,214.918915 334.059692,258.028442 
	C351.496643,258.028442 368.564911,258.028442 385.792755,258.028442 
	C385.792755,266.821075 385.792755,275.222778 385.792755,284.008850 
	C360.191406,284.008850 334.794708,284.008850 309.005859,284.008850 
	C309.005859,292.791138 309.005859,301.200806 309.005859,309.799683 
	C300.208527,309.799683 291.806854,309.799683 283.362366,309.799683 
	C283.362366,292.427643 283.362366,275.244568 283.362366,257.670074 
	C292.133301,257.670074 300.542450,257.670074 308.636780,257.670074 
	C308.636780,248.865631 308.636780,240.459061 308.636780,232.341095 
	C265.553284,232.341095 222.832291,232.341095 180.340866,232.341095 
	C180.340866,241.088913 180.340866,249.494232 180.340866,258.270081 
	C206.076401,258.270081 231.473221,258.270081 256.680115,258.270081 
	C256.680115,275.722809 256.680115,292.789093 256.680115,310.075775 
	C239.550186,310.075775 222.740707,310.075775 205.994141,309.130432 
	C205.994141,300.878815 205.994141,292.627167 205.994141,284.350586 
	C197.083969,284.350586 188.585373,284.350586 180.068817,284.350586 
	C180.068817,293.158630 180.068817,301.617188 179.125107,310.006317 
	C170.854141,310.006317 162.583191,310.006317 153.945770,310.006317 
	C153.945770,283.808838 153.945770,258.085571 153.945770,232.353317 
	C110.742607,232.353317 67.915443,232.353317 25.349861,232.353317 
	C25.349861,241.111572 25.349861,249.515411 25.349861,258.295654 
	C34.103142,258.295654 42.509846,258.295654 51.289284,258.295654 
	C51.289284,267.092560 51.289284,275.499054 51.289284,284.278931 
	C60.085972,284.278931 68.492188,284.278931 76.669594,284.278931 
	C76.669594,293.077332 76.669594,301.480560 76.669594,310.262817 
	C67.934814,310.262817 59.527840,310.262817 51.325153,310.262817 
	C51.325153,318.727722 51.325153,326.797180 51.325153,335.086517 
	C68.452827,335.086517 85.256844,335.086517 101.992462,335.013306 
	C101.992462,335.013306 101.919380,334.944763 101.995262,335.886292 
	C101.968025,344.277802 101.940788,352.669342 101.986778,360.992462 
	C101.986778,360.992462 102.055313,360.919373 101.113762,360.995300 
	C93.198166,360.995300 85.282578,360.995300 76.838425,360.995300 
	C76.838425,369.915405 76.838425,378.424408 76.838425,387.073212 
	C67.847809,387.073212 59.392761,387.073212 50.994541,386.128357 
	C50.994541,377.871277 50.994541,369.614197 50.994541,361.368408 
	C42.059727,361.368408 33.555923,361.368408 25.343687,361.368408 
	C25.343687,370.127197 25.343687,378.516998 25.343687,386.931488 
	C34.150711,386.931488 42.615231,386.931488 51.006626,387.874908 
	C51.029694,396.272858 51.052757,404.670837 50.130459,413.005859 
	C41.879158,413.005859 33.627861,413.005859 25.351124,413.005859 
	C25.351124,421.582672 25.351124,429.748657 25.351124,437.931213 
	C34.159355,437.931213 42.617588,437.931213 51.006348,438.874878 
	C51.028709,447.270721 51.051071,455.666534 50.128479,464.005463 
	C41.859451,464.005463 33.590424,464.005463 25.368374,464.005463 
	C25.368374,498.624939 25.368374,532.782593 25.368374,566.638611 
	C34.139656,566.638611 42.541981,566.638611 50.931679,566.638611 
	C50.931679,532.158936 50.931679,498.039612 51.875061,463.993408 
	C60.142792,463.993408 68.410522,463.993408 77.044357,463.993408 
	C77.044357,481.514343 77.044357,498.571472 77.044357,515.635010 
	C94.260162,515.635010 111.099258,515.635010 128.321198,515.635010 
	C128.321198,506.869049 128.321198,498.465576 128.321198,489.694702 
	C137.110672,489.694702 145.512222,489.694702 154.285522,489.694702 
	C154.285522,480.905731 154.285522,472.502289 154.285522,463.924225 
	C171.805008,463.924225 188.936905,463.924225 206.005859,464.869568 
	C206.005859,473.139832 206.005859,481.410095 206.005859,490.063049 
	C197.139984,490.063049 188.734116,490.063049 180.222336,490.063049 
	C180.222336,498.853394 180.222336,507.251526 180.222336,516.028687 
	C197.166901,516.028687 213.895386,516.028687 231.153900,516.028687 
	C231.153900,550.570862 231.153900,584.736206 231.153900,618.670288 
	C248.750748,618.670288 265.810303,618.670288 283.253723,618.670288 
	C283.253723,609.939514 283.253723,601.533813 283.253723,592.931152 
	C292.121063,592.931152 300.598419,592.931152 309.006317,593.874878 
	C309.006317,610.885254 309.006317,627.895630 309.006317,644.924377 
	C317.817780,644.924377 325.943298,644.924377 334.005859,645.869690 
	C334.026855,653.938354 334.047882,662.006958 333.125153,670.006348 
	C325.200958,670.006348 317.276764,670.006348 308.843018,670.006348 
	C308.843018,687.584045 308.843018,704.740112 308.843018,722.073730 
	C299.863190,722.073730 291.400299,722.073730 282.994537,721.128662 
	C282.994537,712.857788 282.994537,704.586914 282.994537,695.932373 
	C274.131805,695.932373 265.726349,695.932373 257.224121,695.932373 
	C257.224121,687.139221 257.224121,678.739868 257.224121,669.950256 
	C265.845795,669.950256 274.252777,669.950256 282.782013,669.950256 
	C282.782013,661.490967 282.782013,653.425110 282.782013,645.204834 
	C265.505371,645.204834 248.446045,645.204834 231.341202,645.204834 
	C231.341202,687.902100 231.341202,730.394653 231.341202,772.662720 
	C240.086548,772.662720 248.489334,772.662720 257.261292,772.662720 
	C257.261292,755.597900 257.261292,738.867737 257.261292,721.931946 
	C266.122253,721.931946 274.600830,721.931946 283.006561,722.875305 
	C283.006561,731.132996 283.006561,739.390625 283.006561,747.924377 
	C308.979645,747.924377 334.524200,747.924377 360.005859,748.869690 
	C360.005859,756.788391 360.005859,764.707153 360.005859,772.649963 
	C368.916382,772.649963 377.414276,772.649963 385.931122,772.649963 
	C385.931122,764.175476 385.931122,756.049927 386.874847,747.993652 
	C395.272827,747.970581 403.670807,747.947449 412.005859,748.869690 
	C412.005859,756.794800 412.005859,764.719849 412.005859,772.659302 
	C429.253052,772.659302 446.070953,772.659302 462.931122,772.659302 
	C462.931122,764.187988 462.931122,756.056213 463.874847,747.993652 
M747.005432,722.871704 
	C747.005432,731.128357 747.005432,739.385010 747.005432,747.631592 
	C755.605957,747.631592 763.777283,747.631592 771.656982,747.631592 
	C771.656982,738.873230 771.656982,730.483887 771.656982,722.068420 
	C763.183472,722.068420 755.051880,722.068420 746.993347,721.125061 
	C746.993347,712.855774 746.993347,704.586487 746.993347,696.218628 
	C729.472412,696.218628 712.415466,696.218628 694.969116,696.218628 
	C694.969116,704.830994 694.969116,713.235718 694.969116,722.020020 
	C686.184326,722.020020 677.779480,722.020020 668.994873,722.020020 
	C668.994873,730.804321 668.994873,739.209351 668.994873,747.994629 
	C660.544067,747.994629 652.471008,747.994629 644.364502,747.994629 
	C644.364502,756.574036 644.364502,764.757874 644.364502,772.663086 
	C670.113159,772.663086 695.497742,772.663086 721.256775,772.663086 
	C721.256775,755.601257 721.256775,738.873535 721.256775,721.926697 
	C730.111023,721.926697 738.586670,721.926697 747.005432,722.871704 
M592.167358,171.499924 
	C592.167358,182.941345 592.167358,194.382767 592.167358,205.931503 
	C652.404846,205.931503 712.106506,205.931503 771.804321,205.931503 
	C771.804321,145.995926 771.804321,86.318527 771.804321,26.719790 
	C711.772644,26.719790 652.081421,26.719790 592.167358,26.719790 
	C592.167358,74.910774 592.167358,122.705345 592.167358,171.499924 
M197.415298,26.325390 
	C140.295807,26.325390 83.176308,26.325390 25.861868,26.325390 
	C25.861868,86.476959 25.861868,146.079651 25.861868,205.869263 
	C85.729507,205.869263 145.440414,205.869263 205.065643,205.869263 
	C205.065643,145.955002 205.065643,86.358948 205.065643,26.325401 
	C202.665939,26.325401 200.528564,26.325401 197.415298,26.325390 
M25.667192,691.499817 
	C25.667192,718.586304 25.667192,745.672852 25.667192,772.858826 
	C85.794090,772.858826 145.374420,772.858826 205.149109,772.858826 
	C205.149109,712.909912 205.149109,653.178894 205.149109,593.278259 
	C145.287048,593.278259 85.561234,593.278259 25.667181,593.278259 
	C25.667181,625.870422 25.667181,658.185120 25.667192,691.499817 
M234.652283,206.998947 
	C242.070862,206.998947 249.489456,206.998947 256.655457,206.998947 
	C256.655457,189.242767 256.655457,172.171310 256.655457,155.348083 
	C247.901184,155.348083 239.493057,155.348083 231.001144,155.348083 
	C231.001144,171.686234 231.015762,187.677551 230.982162,203.668747 
	C230.978073,205.613525 230.801437,207.487778 234.652283,206.998947 
M150.347717,541.000977 
	C142.929703,541.000977 135.511673,541.000977 128.344666,541.000977 
	C128.344666,550.092896 128.344666,558.500305 128.344666,566.652710 
	C137.098251,566.652710 145.505859,566.652710 153.998856,566.652710 
	C153.998856,558.981384 153.969406,551.655823 154.018585,544.330750 
	C154.031647,542.385193 154.197876,540.512268 150.347717,541.000977 
M180.058899,541.732788 
	C180.058899,550.020264 180.058899,558.307678 180.058899,566.794556 
	C188.788986,566.794556 197.192505,566.794556 205.797638,566.794556 
	C205.797638,558.204529 205.797638,549.801025 205.797638,541.057434 
	C197.321075,541.057434 189.035172,541.057434 180.058899,541.732788 
M592.000977,760.500916 
	C592.000977,764.601685 592.000977,768.702454 592.000977,772.710938 
	C600.982300,772.710938 609.385620,772.710938 617.710144,772.710938 
	C617.710144,764.349426 617.710144,756.279175 617.710144,748.290466 
	C609.014893,748.290466 600.611572,748.290466 592.000977,748.290466 
	C592.000977,752.220520 592.000977,755.864929 592.000977,760.500916 
M88.509193,566.999023 
	C92.941254,566.999023 97.373322,566.999023 101.708031,566.999023 
	C101.708031,558.011963 101.708031,549.608521 101.708031,541.292847 
	C93.343536,541.292847 85.273117,541.292847 77.293533,541.292847 
	C77.293533,549.991455 77.293533,558.395081 77.293533,566.999023 
	C80.895668,566.999023 84.207047,566.999023 88.509193,566.999023 
M761.483154,334.998993 
	C764.920532,334.998993 768.357910,334.998993 771.716919,334.998993 
	C771.716919,326.363098 771.716919,318.292999 771.716919,310.283752 
	C763.361755,310.283752 755.291626,310.283752 747.284424,310.283752 
	C747.284424,318.639496 747.284424,326.709625 747.284424,334.998993 
	C751.874207,334.998993 756.182495,334.998993 761.483154,334.998993 
z"/>
<path fill="#000000" opacity="1.000000" stroke="none" 
	d="
M720.926270,283.937408 
	C720.926270,292.420044 720.926270,300.902649 720.926270,309.785797 
	C712.425049,309.785797 704.012207,309.785797 695.203369,309.785797 
	C695.203369,318.249115 695.203369,326.328125 695.203369,334.803589 
	C686.406982,334.803589 677.993835,334.803589 669.292969,334.803589 
	C669.292969,343.603729 669.292969,352.010620 669.292969,360.821960 
	C677.608704,360.821960 686.020996,360.821960 694.828857,360.821960 
	C694.828857,369.619446 694.828857,378.032166 694.828857,386.719727 
	C703.629639,386.719727 712.036194,386.719727 720.847168,386.719727 
	C720.847168,378.365540 720.847168,369.952942 720.847168,361.274109 
	C729.648315,361.274109 738.054199,361.274109 746.864380,361.274109 
	C746.864380,369.657776 746.864380,378.069214 746.864380,386.875275 
	C755.331604,386.875275 763.409180,386.875275 771.739990,386.875275 
	C771.739990,404.012726 771.739990,420.751251 771.739990,437.745056 
	C754.976929,437.745056 738.238464,437.745056 721.097412,437.745056 
	C721.097412,429.637726 721.097412,421.558685 721.097412,412.993683 
	C703.758728,412.993683 686.816833,412.993683 669.437378,412.995667 
	C668.999939,412.997650 669.069946,413.069946 669.037476,412.597839 
	C669.004944,403.853516 669.004944,395.581360 669.004944,386.930115 
	C651.795715,386.930115 635.062561,386.930115 617.948364,386.930115 
	C617.948364,369.480713 617.948364,352.414703 617.948364,334.980408 
	C583.507996,334.980408 549.452515,334.980408 515.357544,334.980408 
	C515.357544,309.095032 515.357544,283.585266 515.357544,257.683807 
	C523.788330,257.683807 531.863342,257.683807 539.646973,257.683807 
	C539.646973,248.881516 539.646973,240.476028 539.646973,232.344055 
	C522.560974,232.344055 505.829041,232.344055 488.710999,232.344055 
	C488.710999,241.093658 488.710999,249.501724 488.710999,258.284302 
	C479.911163,258.284302 471.503510,258.284302 463.337006,258.284302 
	C463.337006,267.085876 463.337006,275.490448 463.337006,284.274902 
	C472.079071,284.274902 480.487152,284.274902 488.667694,284.274902 
	C488.667694,293.076141 488.667694,301.480438 488.667694,310.251953 
	C462.942566,310.251953 437.548492,310.251953 412.075867,310.251953 
	C412.075867,318.777924 412.075867,326.923492 411.603210,335.036957 
	C402.728455,335.026276 394.326294,335.047668 385.959412,334.597229 
	C385.994659,326.191620 385.994659,318.257874 385.994659,310.204773 
	C368.486694,310.204773 351.435028,310.204773 333.997131,310.204773 
	C333.997131,318.467834 333.997131,326.537354 333.997131,335.144165 
	C316.774811,335.144165 299.930542,335.144165 283.335571,335.144165 
	C283.335571,344.093628 283.335571,352.492859 283.335571,361.263855 
	C292.070374,361.263855 300.472870,361.263855 308.930054,361.263855 
	C308.930054,370.123138 308.930054,378.596558 308.965027,387.034973 
	C309.000000,387.000000 309.069946,386.930054 308.597839,386.962585 
	C282.394165,387.022003 256.662598,387.048950 230.963058,386.603210 
	C230.995102,369.118317 230.995102,352.106018 230.995102,335.075867 
	C222.183411,335.075867 214.057205,335.075867 205.963058,334.603210 
	C206.020050,326.063751 206.044998,317.996887 206.034973,309.966217 
	C206.000015,310.002380 205.931213,310.075775 205.931213,310.075775 
	C222.740707,310.075775 239.550186,310.075775 256.680115,310.075775 
	C256.680115,292.789093 256.680115,275.722809 256.680115,258.270081 
	C231.473221,258.270081 206.076401,258.270081 180.340866,258.270081 
	C180.340866,249.494232 180.340866,241.088913 180.340866,232.341095 
	C222.832291,232.341095 265.553284,232.341095 308.636780,232.341095 
	C308.636780,240.459061 308.636780,248.865631 308.636780,257.670074 
	C300.542450,257.670074 292.133301,257.670074 283.362366,257.670074 
	C283.362366,275.244568 283.362366,292.427643 283.362366,309.799683 
	C291.806854,309.799683 300.208527,309.799683 309.005859,309.799683 
	C309.005859,301.200806 309.005859,292.791138 309.005859,284.008850 
	C334.794708,284.008850 360.191406,284.008850 385.792755,284.008850 
	C385.792755,275.222778 385.792755,266.821075 385.792755,258.028442 
	C368.564911,258.028442 351.496643,258.028442 334.059692,258.028442 
	C334.059692,214.918915 334.059692,172.197250 334.059692,128.993668 
	C325.754852,128.993668 317.814880,128.993668 309.437439,128.995636 
	C309.000000,128.997589 309.069946,129.069946 309.037415,128.597870 
	C309.004913,119.874962 309.004913,111.624107 309.004913,103.348618 
	C300.084198,103.348618 291.585876,103.348618 282.930054,103.348618 
	C282.930054,112.154587 282.930054,120.612267 282.965027,129.033768 
	C282.999969,128.997589 283.068787,128.924194 283.068787,128.924194 
	C265.931946,128.924194 248.795120,128.924194 231.329727,128.924194 
	C231.329727,120.473938 231.329727,112.071793 231.329727,103.275330 
	C239.515549,103.275330 247.921570,103.275330 256.662872,103.275330 
	C256.662872,94.828819 256.662872,86.758621 256.662872,78.294266 
	C248.508133,78.294266 240.102005,78.294266 231.349594,78.294266 
	C231.349594,69.515465 231.349594,61.112202 231.349594,52.315067 
	C239.475021,52.315067 247.880707,52.315067 256.676819,52.315067 
	C256.676819,43.537861 256.676819,35.131779 256.676819,26.364082 
	C265.453796,26.364082 273.857605,26.364082 282.822296,26.364082 
	C282.822296,43.230434 282.822296,60.414265 282.822296,77.795425 
	C291.779846,77.795425 300.178772,77.795425 308.970093,77.795425 
	C308.970093,69.236252 308.970093,60.829517 308.970093,52.217445 
	C334.747070,52.217445 360.132935,52.217445 386.004700,52.217445 
	C386.004700,60.575500 386.004700,68.844635 385.569153,77.558899 
	C368.216431,78.004044 351.299255,78.004044 334.367615,78.004044 
	C334.367615,86.592247 334.367615,94.770378 334.367615,102.666290 
	C351.784576,102.666290 368.833191,102.666290 385.939148,102.666290 
	C385.939148,94.193069 385.939148,86.053307 385.939148,77.913559 
	C394.334442,77.944580 402.729767,77.975609 411.562500,78.006531 
	C411.999908,78.006432 411.926727,77.937706 411.926727,77.937706 
	C411.926727,86.071815 411.926727,94.205925 411.926727,102.869720 
	C428.949097,102.869720 445.780884,102.869720 462.993683,102.869720 
	C462.993683,120.306648 462.993683,137.215881 462.995667,154.562561 
	C462.997650,155.000000 463.069946,154.930054 462.597839,154.962555 
	C453.859985,154.995056 445.594177,154.995056 436.951080,154.995056 
	C436.951080,146.150620 436.951080,137.748566 436.951080,129.349457 
	C411.073456,129.349457 385.582489,129.349457 360.337738,129.349457 
	C360.337738,138.099594 360.337738,146.498184 360.337738,155.266998 
	C369.074036,155.266998 377.475555,155.266998 386.075867,155.266998 
	C386.075867,164.123901 386.075867,172.596436 385.603210,181.036942 
	C376.878479,181.004898 368.626343,181.004898 360.349426,181.004898 
	C360.349426,189.915741 360.349426,198.414917 360.349426,206.930954 
	C369.157806,206.930954 377.616821,206.930954 386.040588,207.402771 
	C386.005341,215.802917 386.005341,223.731247 386.005341,231.667480 
	C411.922333,231.667480 437.398315,231.667480 462.924133,231.667480 
	C462.924133,223.200470 462.924133,215.065735 463.396790,206.963058 
	C472.231934,206.995102 480.594482,206.995102 489.069946,206.995102 
	C489.069946,197.823669 489.069946,189.376862 489.034973,180.966232 
	C489.000031,181.002411 488.931213,181.075806 488.931213,181.075806 
	C497.414246,181.075806 505.897308,181.075806 514.781006,181.075806 
	C514.781006,189.570023 514.781006,197.982849 514.781006,206.695770 
	C523.246643,206.695770 531.320679,206.695770 539.799011,206.695770 
	C539.799011,198.415131 539.799011,190.002670 539.799011,181.298248 
	C548.598328,181.298248 557.004944,181.298248 565.815796,181.298248 
	C565.815796,197.943695 565.815796,214.686066 565.815796,231.826294 
	C574.612976,231.826294 583.025452,231.826294 591.833008,231.826294 
	C591.833008,240.623718 591.833008,249.036453 591.833008,257.721741 
	C600.633850,257.721741 609.040283,257.721741 617.850952,257.721741 
	C617.850952,249.361191 617.850952,240.948853 617.850952,232.272263 
	C626.652222,232.272263 635.058228,232.272263 643.867859,232.272263 
	C643.867859,240.661972 643.867859,249.072220 643.867859,257.739166 
	C652.337402,257.739166 660.409485,257.739166 668.885864,257.739166 
	C668.885864,249.323410 668.885864,240.912476 668.885864,232.254837 
	C677.688477,232.254837 686.093872,232.254837 694.902588,232.254837 
	C694.902588,249.365204 694.902588,266.440918 694.902588,284.006561 
	C703.572021,284.006561 711.848389,284.006561 720.562134,284.006348 
	C720.999512,284.006104 720.926270,283.937408 720.926270,283.937408 
M546.576782,310.000000 
	C570.330383,310.000000 594.084045,310.000000 617.683960,310.000000 
	C617.683960,300.964294 617.683960,292.557129 617.683960,284.316895 
	C591.629883,284.316895 565.892822,284.316895 540.320679,284.316895 
	C540.320679,293.043365 540.320679,301.450104 540.320679,310.000000 
	C542.293640,310.000000 543.946716,310.000000 546.576782,310.000000 
M654.518738,310.000000 
	C659.282166,310.000000 664.045532,310.000000 668.705444,310.000000 
	C668.705444,301.005219 668.705444,292.600708 668.705444,284.295593 
	C660.336426,284.295593 652.265015,284.295593 644.296509,284.295593 
	C644.296509,292.998779 644.296509,301.403381 644.296509,310.000000 
	C647.571106,310.000000 650.550720,310.000000 654.518738,310.000000 
z"/>
<path fill="#000000" opacity="1.000000" stroke="none" 
	d="
M617.931152,490.075806 
	C626.329163,490.052673 634.727173,490.029510 643.562622,490.004333 
	C644.000061,490.002350 643.930054,489.930054 643.962524,490.402130 
	C643.995056,499.234772 643.995056,507.595337 643.995056,516.069946 
	C652.842651,516.069946 660.956299,516.069946 669.034973,516.034973 
	C669.000000,516.000000 668.930054,515.930054 668.962524,516.402100 
	C668.995056,524.798828 668.995056,532.723389 668.995056,540.661743 
	C686.586304,540.661743 703.736816,540.661743 721.069946,540.661743 
	C721.069946,532.192688 721.069946,524.061340 721.035034,515.966187 
	C721.000061,516.002380 720.931274,516.075684 720.931274,516.075684 
	C729.406189,516.075684 737.881104,516.075684 746.730835,516.075684 
	C746.730835,498.804016 746.730835,481.745941 746.730835,464.345093 
	C755.158142,464.345093 763.226318,464.345093 771.647827,464.345093 
	C771.647827,489.586975 771.647827,515.084534 771.647827,540.972778 
	C763.562012,540.972778 755.490173,540.972778 747.054260,540.972778 
	C747.054260,558.413940 747.054260,575.471924 747.054260,593.004700 
	C738.420166,593.004700 730.153198,593.004700 721.441040,592.569092 
	C720.995972,583.868408 720.995972,575.603394 720.995972,567.367676 
	C703.385437,567.367676 686.220581,567.367676 669.353027,567.367676 
	C669.353027,576.134583 669.353027,584.532227 669.353027,592.938904 
	C686.832886,592.938904 703.959656,592.938904 721.086426,592.938904 
	C721.086426,601.415588 721.086426,609.892212 721.086426,618.753174 
	C737.881836,618.753174 754.612915,618.753174 771.670532,618.753174 
	C771.670532,635.859680 771.670532,652.588684 771.670532,669.658997 
	C746.501160,669.658997 721.111572,669.658997 695.160156,669.658997 
	C695.160156,653.088318 695.160156,636.235046 695.160156,619.195312 
	C686.199280,619.195312 677.799622,619.195312 669.015381,619.195312 
	C669.015381,636.116760 669.015381,652.847900 669.015381,669.966675 
	C660.569702,669.966675 652.494995,669.966675 644.047546,669.966675 
	C644.047546,687.417908 644.047546,704.481628 644.047546,721.770020 
	C626.604248,721.770020 609.543945,721.770020 591.995300,721.770020 
	C591.995300,713.425781 591.995300,705.156006 592.430908,696.441040 
	C601.125305,695.995972 609.384033,695.995972 617.632324,695.995972 
	C617.632324,687.061401 617.632324,678.556030 617.632324,670.343628 
	C608.871948,670.343628 600.480774,670.343628 592.061096,670.343628 
	C592.061096,679.153564 592.061096,687.619995 592.061096,696.086426 
	C574.933533,696.086426 557.806030,696.086426 540.293274,696.086426 
	C540.293274,687.500610 540.293274,679.098999 540.293274,670.313232 
	C531.858337,670.313232 523.790039,670.313232 515.160034,670.313232 
	C515.160034,661.762146 515.160034,653.567383 515.160034,645.194092 
	C506.202789,645.194092 497.808014,645.194092 489.026886,645.194092 
	C489.026886,653.435364 489.026886,661.505127 489.026886,669.949219 
	C480.250305,669.949219 471.849121,669.949219 462.993683,669.949219 
	C462.993683,678.592957 462.993683,686.859070 462.995667,695.562622 
	C462.997650,696.000061 463.069946,695.930054 462.597839,695.962524 
	C453.875214,695.995056 445.624725,695.995056 436.842896,695.995056 
	C436.842896,687.091858 436.842896,678.581787 436.842896,669.930054 
	C428.180115,669.930054 420.055084,669.930054 411.965027,669.965027 
	C412.000000,670.000000 412.069946,670.069946 412.037415,669.597839 
	C411.978821,661.062927 411.952728,653.000122 412.399109,644.966431 
	C429.454590,644.995544 446.037598,644.995544 462.632751,644.995544 
	C462.632751,636.073059 462.632751,627.562378 462.632751,619.332825 
	C445.549774,619.332825 428.834808,619.332825 412.068542,619.332825 
	C412.068542,628.136780 412.068542,636.608093 411.596863,645.042542 
	C394.060150,644.980408 376.995087,644.955200 359.965027,644.965027 
	C360.000000,645.000000 360.069946,645.069946 360.037415,644.597900 
	C360.004913,635.874939 360.004913,627.624084 360.004913,619.348633 
	C351.084198,619.348633 342.585876,619.348633 333.930054,619.348633 
	C333.930054,628.154480 333.930054,636.612244 333.965027,645.033813 
	C333.999969,644.997742 334.068787,644.924377 334.068787,644.924377 
	C325.943298,644.924377 317.817780,644.924377 309.006317,644.924377 
	C309.006317,627.895630 309.006317,610.885254 309.004333,593.437378 
	C309.002350,592.999939 308.930054,593.069946 309.402130,593.037476 
	C317.794098,593.004944 325.713989,593.004944 333.930878,593.004944 
	C333.930878,575.362915 333.930878,558.143616 334.402710,540.959473 
	C343.137268,540.994629 351.399963,540.994629 360.190735,540.994629 
	C360.190735,558.610291 360.190735,575.779114 360.190735,592.653137 
	C369.124298,592.653137 377.520477,592.653137 386.280670,592.653137 
	C386.280670,583.910339 386.280670,575.512024 386.280670,567.079468 
	C395.130035,567.079468 403.599274,567.079468 412.034241,567.042847 
	C411.999908,567.006165 411.926666,566.937317 411.960754,567.408813 
	C411.994843,576.150146 411.994843,584.419922 411.994843,593.053589 
	C437.859894,593.053589 463.248260,593.053589 489.024048,593.053589 
	C489.024048,601.821472 489.024048,610.228210 489.024048,618.797363 
	C497.814789,618.797363 506.213531,618.797363 515.003418,618.797363 
	C515.003418,610.199829 515.003418,601.793091 515.003418,593.006592 
	C523.456238,593.006592 531.530212,593.006592 539.645630,593.006592 
	C539.645630,575.435120 539.645630,558.257874 539.645630,541.349548 
	C531.218445,541.349548 523.147705,541.349548 514.702881,541.349548 
	C514.702881,550.102966 514.702881,558.508911 514.702881,566.670532 
	C497.249268,566.670532 480.188385,566.670532 463.324280,566.670532 
	C463.324280,557.936401 463.324280,549.534241 463.324280,540.753418 
	C472.050873,540.753418 480.457184,540.753418 488.924164,540.753418 
	C488.924164,532.218567 488.924164,524.074768 489.396790,515.963013 
	C532.535034,515.995117 575.200684,515.995117 618.069946,515.995117 
	C618.069946,506.872803 618.069946,498.401428 618.034973,489.966217 
	C618.000000,490.002380 617.931152,490.075806 617.931152,490.075806 
M643.943054,567.746338 
	C642.373230,567.497559 640.804138,567.038147 639.233459,567.032593 
	C623.734558,566.978638 608.235352,567.000000 592.736267,567.000000 
	C583.949951,567.000000 575.163696,567.000000 566.207703,567.000000 
	C566.207703,593.147339 566.207703,618.884705 566.207703,644.789429 
	C592.153015,644.789429 617.890381,644.789429 643.996033,644.789429 
	C643.996033,619.291748 643.996033,594.002747 643.943054,567.746338 
z"/>
<path fill="#000000" opacity="1.000000" stroke="none" 
	d="
M101.913544,361.060852 
	C101.940788,352.669342 101.968025,344.277802 102.430832,335.441132 
	C111.124756,334.995972 119.383118,334.995972 127.632385,334.995972 
	C127.632385,326.395233 127.632385,318.222748 127.632385,310.343079 
	C118.872490,310.343079 110.481796,310.343079 102.060867,310.343079 
	C102.060867,318.819458 102.060867,326.953003 102.060867,335.086517 
	C85.256844,335.086517 68.452827,335.086517 51.325153,335.086517 
	C51.325153,326.797180 51.325153,318.727722 51.325153,310.262817 
	C59.527840,310.262817 67.934814,310.262817 76.669594,310.262817 
	C76.669594,301.480560 76.669594,293.077332 76.669594,284.278931 
	C68.492188,284.278931 60.085972,284.278931 51.289284,284.278931 
	C51.289284,275.499054 51.289284,267.092560 51.289284,258.295654 
	C42.509846,258.295654 34.103142,258.295654 25.349861,258.295654 
	C25.349861,249.515411 25.349861,241.111572 25.349861,232.353317 
	C67.915443,232.353317 110.742607,232.353317 153.945770,232.353317 
	C153.945770,258.085571 153.945770,283.808838 153.945770,310.006317 
	C162.583191,310.006317 170.854141,310.006317 179.562561,310.004333 
	C180.000000,310.002350 179.930054,309.930054 179.962555,310.402130 
	C180.019714,318.941406 180.044357,327.008636 179.597198,335.040588 
	C170.864090,335.005341 162.602814,335.005341 154.332886,335.005341 
	C154.332886,361.255402 154.332886,387.065186 154.332886,412.924133 
	C163.133377,412.924133 171.601181,412.924133 180.036942,413.396790 
	C180.004898,421.899658 180.004898,429.929901 180.004898,437.930969 
	C189.181778,437.930969 197.628815,437.930969 206.040619,438.402802 
	C205.980255,447.273071 205.955154,455.671509 205.965027,464.033783 
	C205.999985,463.997620 206.068787,463.924225 206.068787,463.924225 
	C188.936905,463.924225 171.805008,463.924225 154.285522,463.924225 
	C154.285522,472.502289 154.285522,480.905731 154.285522,489.694702 
	C145.512222,489.694702 137.110672,489.694702 128.321198,489.694702 
	C128.321198,498.465576 128.321198,506.869049 128.321198,515.635010 
	C111.099258,515.635010 94.260162,515.635010 77.044357,515.635010 
	C77.044357,498.571472 77.044357,481.514343 77.044357,463.993408 
	C68.410522,463.993408 60.142792,463.993408 51.437649,463.993530 
	C51.000237,463.993652 51.073429,464.062378 51.073429,464.062378 
	C51.051071,455.666534 51.028709,447.270721 51.004383,438.437439 
	C51.002419,438.000031 50.930061,438.069946 51.402130,438.037445 
	C60.124702,438.004944 68.375206,438.004944 76.650879,438.004944 
	C76.650879,429.417267 76.650879,421.251892 76.650879,412.930054 
	C67.844727,412.930054 59.387394,412.930054 50.966240,412.965027 
	C51.002422,412.999969 51.075825,413.068787 51.075825,413.068787 
	C51.052757,404.670837 51.029694,396.272858 51.006531,387.437469 
	C51.006432,387.000031 50.937717,387.073212 50.937717,387.073212 
	C59.392761,387.073212 67.847809,387.073212 76.838425,387.073212 
	C76.838425,378.424408 76.838425,369.915405 76.838425,360.995300 
	C85.282578,360.995300 93.198166,360.995300 101.558899,361.430847 
	C102.004044,370.125122 102.004044,378.383881 102.004044,386.632385 
	C110.939049,386.632385 119.444038,386.632385 127.656380,386.632385 
	C127.656380,377.872162 127.656380,369.481079 127.656380,361.060852 
	C118.846489,361.060852 110.380020,361.060852 101.913544,361.060852 
M109.559914,284.000000 
	C115.653801,284.000000 121.747688,284.000000 127.690582,284.000000 
	C127.690582,274.975464 127.690582,266.569794 127.690582,258.310852 
	C118.972542,258.310852 110.567169,258.310852 102.312576,258.310852 
	C102.312576,267.030060 102.312576,275.435150 102.312576,284.000000 
	C104.608215,284.000000 106.592270,284.000000 109.559914,284.000000 
M118.468117,464.000000 
	C121.574669,464.000000 124.681221,464.000000 127.722527,464.000000 
	C127.722527,455.040283 127.722527,446.636078 127.722527,438.278503 
	C119.038162,438.278503 110.633957,438.278503 102.279549,438.278503 
	C102.279549,446.963959 102.279549,455.368164 102.279549,464.000000 
	C107.531471,464.000000 112.505844,464.000000 118.468117,464.000000 
z"/>
<path fill="#000000" opacity="1.000000" stroke="none" 
	d="
M668.965576,412.960938 
	C668.931152,421.060303 668.931152,429.196320 668.931152,437.865021 
	C652.052551,437.865021 635.218994,437.865021 617.994141,437.865021 
	C617.994141,455.306854 617.994141,472.218658 617.962646,489.603119 
	C617.931152,490.075806 618.000000,490.002380 617.562866,489.998718 
	C608.858887,489.995056 600.592041,489.995056 591.961670,489.995056 
	C591.961670,472.488922 591.961670,455.433380 591.961670,438.326813 
	C557.438782,438.326813 523.288452,438.326813 489.069061,438.326813 
	C489.069061,447.127502 489.069061,455.601654 488.597229,464.040588 
	C479.859283,464.005341 471.593170,464.005341 462.964996,464.005341 
	C462.964996,446.825104 462.964996,430.103851 462.964996,413.336273 
	C437.101837,413.336273 411.610138,413.336273 385.734863,413.336273 
	C385.734863,421.738617 385.734863,429.807129 385.734863,438.075867 
	C376.876648,438.075867 368.403809,438.075867 359.963043,437.603210 
	C359.995117,429.211365 359.995117,421.292145 359.995117,413.348938 
	C351.083923,413.348938 342.585419,413.348938 334.069061,413.348938 
	C334.069061,421.823822 334.069061,429.949829 333.597229,438.040588 
	C316.549164,438.005341 299.972931,438.005341 283.354309,438.005341 
	C283.354309,429.426178 283.354309,421.251312 283.354309,412.708069 
	C292.102325,412.708069 300.498138,412.708069 309.069946,412.708069 
	C309.069946,403.864502 309.069946,395.397278 309.069946,386.930054 
	C309.069946,386.930054 309.000000,387.000000 309.437164,387.002472 
	C335.212219,387.004944 360.550079,387.004944 385.924133,387.004944 
	C385.924133,377.860077 385.924133,369.395538 386.396790,360.963043 
	C395.271545,360.973724 403.673706,360.952332 412.040588,361.402771 
	C412.005341,370.140289 412.005341,378.405975 412.005341,386.639099 
	C437.950073,386.639099 463.441010,386.639099 489.313232,386.639099 
	C489.313232,377.878448 489.313232,369.477264 489.313232,361.337280 
	C498.098785,361.337280 506.497284,361.337280 515.265991,361.337280 
	C515.265991,370.072968 515.265991,378.474487 515.265991,387.079712 
	C523.789673,387.079712 531.929138,387.079712 540.034302,387.043030 
	C539.999939,387.006348 539.926758,386.937531 539.960815,387.409058 
	C539.994812,396.144043 539.994812,404.407562 539.994812,413.069946 
	C583.327087,413.069946 626.198486,413.069946 669.069946,413.069946 
	C669.069946,413.069946 668.999939,412.997650 668.965576,412.960938 
z"/>
<path fill="#020202" opacity="1.000000" stroke="none" 
	d="
M592.167358,170.999908 
	C592.167358,122.705345 592.167358,74.910774 592.167358,26.719790 
	C652.081421,26.719790 711.772644,26.719790 771.804321,26.719790 
	C771.804321,86.318527 771.804321,145.995926 771.804321,205.931503 
	C712.106506,205.931503 652.404846,205.931503 592.167358,205.931503 
	C592.167358,194.382767 592.167358,182.941345 592.167358,170.999908 
M617.998779,64.510963 
	C617.998779,103.230461 617.998779,141.949966 617.998779,180.578064 
	C661.322021,180.578064 703.897888,180.578064 746.636292,180.578064 
	C746.636292,137.630737 746.636292,94.940048 746.636292,52.292343 
	C703.629761,52.292343 660.917542,52.292343 617.998779,52.292343 
	C617.998779,56.228550 617.998779,59.872803 617.998779,64.510963 
z"/>
<path fill="#010101" opacity="1.000000" stroke="none" 
	d="
M197.903244,26.325396 
	C200.528564,26.325401 202.665939,26.325401 205.065643,26.325401 
	C205.065643,86.358948 205.065643,145.955002 205.065643,205.869263 
	C145.440414,205.869263 85.729507,205.869263 25.861868,205.869263 
	C25.861868,146.079651 25.861868,86.476959 25.861868,26.325390 
	C83.176308,26.325390 140.295807,26.325390 197.903244,26.325396 
M51.163704,171.443100 
	C51.163704,174.524231 51.163704,177.605347 51.163704,180.588593 
	C94.491516,180.588593 137.055862,180.588593 179.740906,180.588593 
	C179.740906,137.649673 179.740906,94.958870 179.740906,52.321922 
	C136.791702,52.321922 94.105217,52.321922 51.163704,52.321922 
	C51.163704,91.917450 51.163704,131.188766 51.163704,171.443100 
z"/>
<path fill="#010101" opacity="1.000000" stroke="none" 
	d="
M25.667187,690.999756 
	C25.667181,658.185120 25.667181,625.870422 25.667181,593.278259 
	C85.561234,593.278259 145.287048,593.278259 205.149109,593.278259 
	C205.149109,653.178894 205.149109,712.909912 205.149109,772.858826 
	C145.374420,772.858826 85.794090,772.858826 25.667192,772.858826 
	C25.667192,745.672852 25.667192,718.586304 25.667187,690.999756 
M180.005447,644.500000 
	C180.005447,636.047974 180.005447,627.595947 180.005447,619.192261 
	C136.831848,619.192261 94.128555,619.192261 51.443916,619.192261 
	C51.443916,662.134399 51.443916,704.708984 51.443916,747.337708 
	C94.426659,747.337708 137.124634,747.337708 180.005447,747.337708 
	C180.005447,713.145630 180.005447,679.322815 180.005447,644.500000 
z"/>
<path fill="#000000" opacity="1.000000" stroke="none" 
	d="
M309.039062,592.965576 
	C300.598419,592.931152 292.121063,592.931152 283.253723,592.931152 
	C283.253723,601.533813 283.253723,609.939514 283.253723,618.670288 
	C265.810303,618.670288 248.750748,618.670288 231.153900,618.670288 
	C231.153900,584.736206 231.153900,550.570862 231.153900,516.028687 
	C213.895386,516.028687 197.166901,516.028687 180.222336,516.028687 
	C180.222336,507.251526 180.222336,498.853394 180.222336,490.063049 
	C188.734116,490.063049 197.139984,490.063049 206.005859,490.063049 
	C206.005859,481.410095 206.005859,473.139832 206.037323,464.396912 
	C206.068787,463.924225 205.999985,463.997620 206.437134,464.001282 
	C214.939178,463.977997 223.004089,463.951080 231.036942,464.396790 
	C231.004898,473.232666 231.004898,481.595917 231.004898,489.930939 
	C240.179764,489.930939 248.627808,489.930939 257.040588,490.402771 
	C257.005341,516.229126 257.005341,541.583618 257.005341,566.652893 
	C266.123383,566.652893 274.520233,566.652893 283.282166,566.652893 
	C283.282166,557.909119 283.282166,549.510071 283.282166,540.930847 
	C292.133850,540.930847 300.604858,540.930847 309.040588,541.402710 
	C308.980255,558.939697 308.955170,576.004822 308.930054,593.069946 
	C308.930054,593.069946 309.002350,592.999939 309.039062,592.965576 
z"/>
<path fill="#000000" opacity="1.000000" stroke="none" 
	d="
M360.068787,747.924377 
	C334.524200,747.924377 308.979645,747.924377 283.006561,747.924377 
	C283.006561,739.390625 283.006561,731.132996 283.006348,722.437866 
	C283.006104,722.000488 282.937408,722.073730 282.937408,722.073730 
	C291.400299,722.073730 299.863190,722.073730 308.843018,722.073730 
	C308.843018,704.740112 308.843018,687.584045 308.843018,670.006348 
	C317.276764,670.006348 325.200958,670.006348 333.562592,670.004272 
	C334.000031,670.002258 333.930054,669.930054 333.962585,670.402100 
	C333.995087,679.134888 333.995087,687.395569 333.995087,695.646484 
	C351.602386,695.646484 368.760406,695.646484 386.290710,695.646484 
	C386.290710,686.898865 386.290710,678.503845 386.290710,670.069946 
	C395.135162,670.069946 403.602539,670.069946 412.069946,670.069946 
	C412.069946,670.069946 412.000000,670.000000 411.997528,670.437134 
	C411.973389,696.606140 411.951721,722.338074 411.965027,748.033813 
	C411.999969,747.997742 412.068787,747.924377 412.068787,747.924377 
	C403.670807,747.947449 395.272827,747.970581 386.437408,747.995728 
	C385.999969,747.997742 386.069946,748.069946 386.037415,747.597900 
	C386.004913,738.874939 386.004913,730.624084 386.004913,722.348633 
	C377.084198,722.348633 368.585876,722.348633 359.930054,722.348633 
	C359.930054,731.154480 359.930054,739.612244 359.965027,748.033813 
	C359.999969,747.997742 360.068787,747.924377 360.068787,747.924377 
z"/>
<path fill="#000000" opacity="1.000000" stroke="none" 
	d="
M539.937866,52.073399 
	C548.420227,52.073399 556.902588,52.073399 565.691711,52.073399 
	C565.691711,86.249001 565.691711,120.320457 565.691711,155.007263 
	C540.557922,155.007263 515.299500,155.007263 489.617950,155.092834 
	C489.194855,155.178421 489.277161,155.251190 489.277161,155.251190 
	C489.277161,137.991745 489.277161,120.732300 489.277161,102.995308 
	C497.580414,102.995308 505.846832,102.995308 514.558594,103.431023 
	C515.003967,112.125076 515.003967,120.383415 515.003967,128.632172 
	C523.604980,128.632172 531.777405,128.632172 539.656738,128.632172 
	C539.656738,119.871979 539.656738,111.481216 539.656738,103.061371 
	C531.180115,103.061371 523.046509,103.061371 514.912964,103.061371 
	C514.912964,94.938568 514.912964,86.815765 514.912964,78.155014 
	C523.251892,78.155014 531.429382,78.155014 540.006653,78.155014 
	C540.006653,69.373924 540.006653,61.124470 540.006592,52.437599 
	C540.006592,52.000183 539.937866,52.073399 539.937866,52.073399 
z"/>
<path fill="#000000" opacity="1.000000" stroke="none" 
	d="
M283.042755,721.966187 
	C274.600830,721.931946 266.122253,721.931946 257.261292,721.931946 
	C257.261292,738.867737 257.261292,755.597900 257.261292,772.662720 
	C248.489334,772.662720 240.086548,772.662720 231.341202,772.662720 
	C231.341202,730.394653 231.341202,687.902100 231.341202,645.204834 
	C248.446045,645.204834 265.505371,645.204834 282.782013,645.204834 
	C282.782013,653.425110 282.782013,661.490967 282.782013,669.950256 
	C274.252777,669.950256 265.845795,669.950256 257.224121,669.950256 
	C257.224121,678.739868 257.224121,687.139221 257.224121,695.932373 
	C265.726349,695.932373 274.131805,695.932373 282.994537,695.932373 
	C282.994537,704.586914 282.994537,712.857788 282.965973,721.601196 
	C282.937408,722.073730 283.006104,722.000488 283.042755,721.966187 
z"/>
<path fill="#000000" opacity="1.000000" stroke="none" 
	d="
M747.062317,721.926697 
	C738.586670,721.926697 730.111023,721.926697 721.256775,721.926697 
	C721.256775,738.873535 721.256775,755.601257 721.256775,772.663086 
	C695.497742,772.663086 670.113159,772.663086 644.364502,772.663086 
	C644.364502,764.757874 644.364502,756.574036 644.364502,747.994629 
	C652.471008,747.994629 660.544067,747.994629 668.994873,747.994629 
	C668.994873,739.209351 668.994873,730.804321 668.994873,722.020020 
	C677.779480,722.020020 686.184326,722.020020 694.969116,722.020020 
	C694.969116,713.235718 694.969116,704.830994 694.969116,696.218628 
	C712.415466,696.218628 729.472412,696.218628 746.993347,696.218628 
	C746.993347,704.586487 746.993347,712.855774 746.993469,721.562439 
	C746.993591,721.999817 747.062317,721.926697 747.062317,721.926697 
z"/>
<path fill="#000000" opacity="1.000000" stroke="none" 
	d="
M462.960938,696.034424 
	C471.399841,696.068848 479.875458,696.068848 488.739624,696.068848 
	C488.739624,704.531677 488.739624,712.936035 488.739624,721.700928 
	C514.504822,721.700928 539.887390,721.700928 565.634155,721.700928 
	C565.634155,730.571655 565.634155,739.087585 565.634155,747.993652 
	C531.690125,747.993652 497.782501,747.993652 463.437408,747.995728 
	C462.999969,747.997742 463.069946,748.069946 463.037415,747.597900 
	C463.026581,730.060547 463.048279,712.995300 463.069946,695.930054 
	C463.069946,695.930054 462.997650,696.000061 462.960938,696.034424 
z"/>
<path fill="#000000" opacity="1.000000" stroke="none" 
	d="
M644.034424,490.039062 
	C644.068848,481.605560 644.068848,473.135376 644.068848,464.333221 
	C660.835388,464.333221 677.548523,464.333221 694.820312,464.333221 
	C694.820312,472.555847 694.820312,481.078705 694.820312,489.967377 
	C703.764893,489.967377 712.163940,489.967377 720.994141,489.967377 
	C720.994141,498.603729 720.994141,506.867004 720.962708,515.603027 
	C720.931274,516.075684 721.000061,516.002380 720.562866,515.998657 
	C703.060486,515.973389 685.995300,515.951721 668.930054,515.930054 
	C668.930054,515.930054 669.000000,516.000000 669.002502,515.562866 
	C669.005005,506.765198 669.005005,498.404633 669.005005,489.930054 
	C660.157349,489.930054 652.043701,489.930054 643.930054,489.930054 
	C643.930054,489.930054 644.000061,490.002350 644.034424,490.039062 
z"/>
<path fill="#000000" opacity="1.000000" stroke="none" 
	d="
M50.965958,463.956970 
	C50.931679,498.039612 50.931679,532.158936 50.931679,566.638611 
	C42.541981,566.638611 34.139656,566.638611 25.368374,566.638611 
	C25.368374,532.782593 25.368374,498.624939 25.368374,464.005463 
	C33.590424,464.005463 41.859451,464.005463 50.600952,464.033936 
	C51.073429,464.062378 51.000237,463.993652 50.965958,463.956970 
z"/>
<path fill="#000000" opacity="1.000000" stroke="none" 
	d="
M412.034180,78.043091 
	C412.068481,60.945988 412.068481,43.812237 412.068481,26.339825 
	C420.169342,26.339825 428.237244,26.339825 436.696045,26.339825 
	C436.696045,34.488899 436.696045,42.890980 436.696045,51.845169 
	C454.249756,51.845169 471.429962,51.845169 488.800354,51.845169 
	C488.800354,60.793575 488.800354,69.190010 488.800354,77.994537 
	C463.370453,77.994537 438.121033,77.994537 412.399170,77.966125 
	C411.926727,77.937706 411.999908,78.006432 412.034180,78.043091 
z"/>
<path fill="#000000" opacity="1.000000" stroke="none" 
	d="
M308.965576,128.960907 
	C308.931183,154.708817 308.931183,180.493423 308.931183,206.638489 
	C300.421875,206.638489 291.908508,206.638489 283.005859,206.638489 
	C283.005859,181.021179 283.005859,155.445374 283.037323,129.396881 
	C283.068787,128.924194 282.999969,128.997589 283.437134,129.001282 
	C292.272858,129.026627 300.671387,129.048294 309.069946,129.069946 
	C309.069946,129.069946 309.000000,128.997589 308.965576,128.960907 
z"/>
<path fill="#000000" opacity="1.000000" stroke="none" 
	d="
M234.166870,206.998810 
	C230.801437,207.487778 230.978073,205.613525 230.982162,203.668747 
	C231.015762,187.677551 231.001144,171.686234 231.001144,155.348083 
	C239.493057,155.348083 247.901184,155.348083 256.655457,155.348083 
	C256.655457,172.171310 256.655457,189.242767 256.655457,206.998947 
	C249.489456,206.998947 242.070862,206.998947 234.166870,206.998810 
z"/>
<path fill="#000000" opacity="1.000000" stroke="none" 
	d="
M721.033813,284.042755 
	C721.068054,266.954926 721.068054,249.830444 721.068054,232.353516 
	C729.469299,232.353516 737.866150,232.353516 746.631836,232.353516 
	C746.631836,249.220367 746.631836,266.383636 746.631836,283.994537 
	C738.398804,283.994537 730.135071,283.994537 721.398804,283.965973 
	C720.926270,283.937408 720.999512,284.006104 721.033813,284.042755 
z"/>
<path fill="#000000" opacity="1.000000" stroke="none" 
	d="
M462.965546,747.961060 
	C462.931122,756.056213 462.931122,764.187988 462.931122,772.659302 
	C446.070953,772.659302 429.253052,772.659302 412.005859,772.659302 
	C412.005859,764.719849 412.005859,756.794800 412.037323,748.397034 
	C412.068787,747.924377 411.999969,747.997742 412.437134,748.001343 
	C429.606201,748.026611 446.338074,748.048279 463.069946,748.069946 
	C463.069946,748.069946 462.999969,747.997742 462.965546,747.961060 
z"/>
<path fill="#000000" opacity="1.000000" stroke="none" 
	d="
M150.833130,541.001099 
	C154.197876,540.512268 154.031647,542.385193 154.018585,544.330750 
	C153.969406,551.655823 153.998856,558.981384 153.998856,566.652710 
	C145.505859,566.652710 137.098251,566.652710 128.344666,566.652710 
	C128.344666,558.500305 128.344666,550.092896 128.344666,541.000977 
	C135.511673,541.000977 142.929703,541.000977 150.833130,541.001099 
z"/>
<path fill="#000000" opacity="1.000000" stroke="none" 
	d="
M180.404083,541.395142 
	C189.035172,541.057434 197.321075,541.057434 205.797638,541.057434 
	C205.797638,549.801025 205.797638,558.204529 205.797638,566.794556 
	C197.192505,566.794556 188.788986,566.794556 180.058899,566.794556 
	C180.058899,558.307678 180.058899,550.020264 180.404083,541.395142 
z"/>
<path fill="#000000" opacity="1.000000" stroke="none" 
	d="
M180.034409,310.039062 
	C180.068817,301.617188 180.068817,293.158630 180.068817,284.350586 
	C188.585373,284.350586 197.083969,284.350586 205.994141,284.350586 
	C205.994141,292.627167 205.994141,300.878815 205.962677,309.603088 
	C205.931213,310.075775 206.000015,310.002380 205.562866,309.998718 
	C196.727158,309.973389 188.328613,309.951721 179.930054,309.930054 
	C179.930054,309.930054 180.000000,310.002350 180.034409,310.039062 
z"/>
<path fill="#000000" opacity="1.000000" stroke="none" 
	d="
M462.960938,155.034409 
	C471.377716,155.052475 479.831207,155.036118 488.780914,155.135468 
	C489.277161,155.251190 489.194855,155.178421 489.160065,155.147644 
	C489.081573,163.454727 489.037842,171.792587 488.962677,180.603119 
	C488.931213,181.075806 489.000031,181.002411 488.562866,180.998734 
	C479.725189,181.019714 471.324677,181.044373 462.959412,180.597229 
	C463.019745,171.726944 463.044861,163.328506 463.069946,154.930054 
	C463.069946,154.930054 462.997650,155.000000 462.960938,155.034409 
z"/>
<path fill="#000000" opacity="1.000000" stroke="none" 
	d="
M51.043091,386.965759 
	C42.615231,386.931488 34.150711,386.931488 25.343687,386.931488 
	C25.343687,378.516998 25.343687,370.127197 25.343687,361.368408 
	C33.555923,361.368408 42.059727,361.368408 50.994541,361.368408 
	C50.994541,369.614197 50.994541,377.871277 50.966129,386.600769 
	C50.937717,387.073212 51.006432,387.000031 51.043091,386.965759 
z"/>
<path fill="#000000" opacity="1.000000" stroke="none" 
	d="
M592.000977,760.005127 
	C592.000977,755.864929 592.000977,752.220520 592.000977,748.290466 
	C600.611572,748.290466 609.014893,748.290466 617.710144,748.290466 
	C617.710144,756.279175 617.710144,764.349426 617.710144,772.710938 
	C609.385620,772.710938 600.982300,772.710938 592.000977,772.710938 
	C592.000977,768.702454 592.000977,764.601685 592.000977,760.005127 
z"/>
<path fill="#000000" opacity="1.000000" stroke="none" 
	d="
M385.965546,747.961060 
	C385.931122,756.049927 385.931122,764.175476 385.931122,772.649963 
	C377.414276,772.649963 368.916382,772.649963 360.005859,772.649963 
	C360.005859,764.707153 360.005859,756.788391 360.037323,748.397034 
	C360.068787,747.924377 359.999969,747.997742 360.437134,748.001343 
	C369.272858,748.026611 377.671387,748.048279 386.069946,748.069946 
	C386.069946,748.069946 385.999969,747.997742 385.965546,747.961060 
z"/>
<path fill="#000000" opacity="1.000000" stroke="none" 
	d="
M746.956909,722.034119 
	C755.051880,722.068420 763.183472,722.068420 771.656982,722.068420 
	C771.656982,730.483887 771.656982,738.873230 771.656982,747.631592 
	C763.777283,747.631592 755.605957,747.631592 747.005432,747.631592 
	C747.005432,739.385010 747.005432,731.128357 747.033875,722.399170 
	C747.062317,721.926697 746.993591,721.999817 746.956909,722.034119 
z"/>
<path fill="#000000" opacity="1.000000" stroke="none" 
	d="
M334.034454,670.038940 
	C334.047882,662.006958 334.026855,653.938354 334.037323,645.397034 
	C334.068787,644.924377 333.999969,644.997742 334.437134,645.001343 
	C343.272858,645.026611 351.671387,645.048279 360.069946,645.069946 
	C360.069946,645.069946 360.000000,645.000000 359.997559,645.437134 
	C359.995087,653.902893 359.995087,661.931519 359.995087,669.930054 
	C350.820465,669.930054 342.375244,669.930054 333.930054,669.930054 
	C333.930054,669.930054 334.000031,670.002258 334.034454,670.038940 
z"/>
<path fill="#000000" opacity="1.000000" stroke="none" 
	d="
M88.013809,566.999023 
	C84.207047,566.999023 80.895668,566.999023 77.293533,566.999023 
	C77.293533,558.395081 77.293533,549.991455 77.293533,541.292847 
	C85.273117,541.292847 93.343536,541.292847 101.708031,541.292847 
	C101.708031,549.608521 101.708031,558.011963 101.708031,566.999023 
	C97.373322,566.999023 92.941254,566.999023 88.013809,566.999023 
z"/>
<path fill="#000000" opacity="1.000000" stroke="none" 
	d="
M51.039116,437.965637 
	C42.617588,437.931213 34.159355,437.931213 25.351124,437.931213 
	C25.351124,429.748657 25.351124,421.582672 25.351124,413.005859 
	C33.627861,413.005859 41.879158,413.005859 50.603142,413.037323 
	C51.075825,413.068787 51.002422,412.999969 50.998734,413.437134 
	C50.973385,421.939514 50.951721,430.004730 50.930061,438.069946 
	C50.930061,438.069946 51.002419,438.000031 51.039116,437.965637 
z"/>
<path fill="#000000" opacity="1.000000" stroke="none" 
	d="
M540.043213,51.965916 
	C531.948303,51.931648 523.816650,51.931648 515.343079,51.931648 
	C515.343079,43.516209 515.343079,35.126801 515.343079,26.368435 
	C523.222778,26.368435 531.394104,26.368435 539.994629,26.368435 
	C539.994629,34.615036 539.994629,42.871742 539.966248,51.600922 
	C539.937866,52.073399 540.006592,52.000183 540.043213,51.965916 
z"/>
<path fill="#000000" opacity="1.000000" stroke="none" 
	d="
M760.987000,334.998993 
	C756.182495,334.998993 751.874207,334.998993 747.284424,334.998993 
	C747.284424,326.709625 747.284424,318.639496 747.284424,310.283752 
	C755.291626,310.283752 763.361755,310.283752 771.716919,310.283752 
	C771.716919,318.292999 771.716919,326.363098 771.716919,334.998993 
	C768.357910,334.998993 764.920532,334.998993 760.987000,334.998993 
z"/>
<path fill="#FFFFFF" opacity="1.000000" stroke="none" 
	d="
M308.597839,386.962585 
	C309.069946,395.397278 309.069946,403.864502 309.069946,412.708069 
	C300.498138,412.708069 292.102325,412.708069 283.354309,412.708069 
	C283.354309,421.251312 283.354309,429.426178 283.354309,438.005341 
	C299.972931,438.005341 316.549164,438.005341 333.562744,438.003876 
	C334.000122,438.002411 333.930054,437.930054 333.962585,438.402130 
	C333.995087,447.125061 333.995087,455.375916 333.995087,463.651367 
	C342.915802,463.651367 351.414124,463.651367 360.069946,463.651367 
	C360.069946,454.845398 360.069946,446.387726 360.034912,437.966248 
	C359.999908,438.002441 359.930969,438.075867 359.930969,438.075867 
	C368.403809,438.075867 376.876648,438.075867 385.734863,438.075867 
	C385.734863,429.807129 385.734863,421.738617 385.734863,413.336273 
	C411.610138,413.336273 437.101837,413.336273 462.964996,413.336273 
	C462.964996,430.103851 462.964996,446.825104 462.964996,464.005341 
	C471.593170,464.005341 479.859283,464.005341 488.562744,464.003876 
	C489.000122,464.002411 488.930054,463.930054 488.962585,464.402130 
	C488.973419,473.272797 488.951752,481.671356 488.965027,490.034973 
	C489.000000,490.000000 489.069946,489.930054 488.597839,489.962585 
	C471.195801,489.995087 454.265808,489.995087 436.956482,489.995087 
	C436.956482,472.487610 436.956482,455.424072 436.956482,438.209351 
	C428.506226,438.209351 420.440094,438.209351 411.991516,438.209351 
	C411.991516,455.476776 411.991516,472.540405 411.991516,490.158203 
	C394.431244,490.158203 377.245697,490.158203 360.354614,490.158203 
	C360.354614,499.124268 360.354614,507.528229 360.354614,516.069946 
	C403.496094,516.069946 446.283020,516.069946 489.033783,516.034912 
	C488.997620,515.999939 488.924164,515.930969 488.924164,515.930969 
	C488.924164,524.074768 488.924164,532.218567 488.924164,540.753418 
	C480.457184,540.753418 472.050873,540.753418 463.324280,540.753418 
	C463.324280,549.534241 463.324280,557.936401 463.324280,566.670532 
	C480.188385,566.670532 497.249268,566.670532 514.702881,566.670532 
	C514.702881,558.508911 514.702881,550.102966 514.702881,541.349548 
	C523.147705,541.349548 531.218445,541.349548 539.645630,541.349548 
	C539.645630,558.257874 539.645630,575.435120 539.645630,593.006592 
	C531.530212,593.006592 523.456238,593.006592 515.003418,593.006592 
	C515.003418,601.793091 515.003418,610.199829 515.003418,618.797363 
	C506.213531,618.797363 497.814789,618.797363 489.024048,618.797363 
	C489.024048,610.228210 489.024048,601.821472 489.024048,593.053589 
	C463.248260,593.053589 437.859894,593.053589 411.994843,593.053589 
	C411.994843,584.419922 411.994843,576.150146 412.433197,567.437988 
	C420.796295,566.995544 428.721069,566.995544 436.632751,566.995544 
	C436.632751,558.059631 436.632751,549.555176 436.632751,541.342896 
	C428.206085,541.342896 420.148285,541.342896 412.068542,541.342896 
	C412.068542,550.150330 412.068542,558.614868 412.068542,567.079468 
	C403.599274,567.079468 395.130035,567.079468 386.280670,567.079468 
	C386.280670,575.512024 386.280670,583.910339 386.280670,592.653137 
	C377.520477,592.653137 369.124298,592.653137 360.190735,592.653137 
	C360.190735,575.779114 360.190735,558.610291 360.190735,540.994629 
	C351.399963,540.994629 343.137268,540.994629 334.437164,540.996216 
	C333.999786,540.997742 334.069946,541.069946 334.037415,540.597839 
	C334.004913,532.097412 334.004913,524.069092 334.004913,515.930054 
	C325.155853,515.930054 317.042938,515.930054 308.965027,515.965027 
	C309.000000,516.000000 309.069946,516.069946 309.037415,515.597900 
	C309.004913,506.764435 309.004913,498.403107 309.004913,489.930054 
	C299.822540,489.930054 291.376282,489.930054 282.965027,489.965027 
	C283.000000,490.000000 283.069946,490.069946 283.037445,489.597839 
	C283.004944,480.764374 283.004944,472.403046 283.004944,463.930054 
	C273.822510,463.930054 265.376282,463.930054 256.965027,463.965027 
	C257.000000,464.000000 257.069946,464.069946 257.037415,463.597839 
	C257.004913,446.435669 257.004913,429.745575 257.004913,412.693848 
	C247.881561,412.693848 239.489182,412.693848 231.069946,412.693848 
	C231.069946,403.857971 231.069946,395.394012 231.034943,386.966248 
	C230.999939,387.002441 230.931015,387.075867 230.931015,387.075867 
	C256.662598,387.048950 282.394165,387.022003 308.597839,386.962585 
z"/>
<path fill="#FFFFFF" opacity="1.000000" stroke="none" 
	d="
M540.068604,387.079712 
	C531.929138,387.079712 523.789673,387.079712 515.265991,387.079712 
	C515.265991,378.474487 515.265991,370.072968 515.265991,361.337280 
	C506.497284,361.337280 498.098785,361.337280 489.313232,361.337280 
	C489.313232,369.477264 489.313232,377.878448 489.313232,386.639099 
	C463.441010,386.639099 437.950073,386.639099 412.005341,386.639099 
	C412.005341,378.405975 412.005341,370.140289 412.003876,361.437256 
	C412.002411,360.999878 411.930054,361.069946 412.402130,361.037415 
	C420.792175,361.004913 428.710144,361.004913 436.651886,361.004913 
	C436.651886,352.083862 436.651886,343.586212 436.651886,334.930054 
	C428.179504,334.930054 420.054779,334.930054 411.966248,334.965088 
	C412.002441,335.000092 412.075867,335.069031 412.075867,335.069031 
	C412.075867,326.923492 412.075867,318.777924 412.075867,310.251953 
	C437.548492,310.251953 462.942566,310.251953 488.667694,310.251953 
	C488.667694,301.480438 488.667694,293.076141 488.667694,284.274902 
	C480.487152,284.274902 472.079071,284.274902 463.337006,284.274902 
	C463.337006,275.490448 463.337006,267.085876 463.337006,258.284302 
	C471.503510,258.284302 479.911163,258.284302 488.710999,258.284302 
	C488.710999,249.501724 488.710999,241.093658 488.710999,232.344055 
	C505.829041,232.344055 522.560974,232.344055 539.646973,232.344055 
	C539.646973,240.476028 539.646973,248.881516 539.646973,257.683807 
	C531.863342,257.683807 523.788330,257.683807 515.357544,257.683807 
	C515.357544,283.585266 515.357544,309.095032 515.357544,334.980408 
	C549.452515,334.980408 583.507996,334.980408 617.948364,334.980408 
	C617.948364,352.414703 617.948364,369.480713 617.948364,386.930115 
	C635.062561,386.930115 651.795715,386.930115 669.004944,386.930115 
	C669.004944,395.581360 669.004944,403.853516 669.037476,412.597839 
	C626.198486,413.069946 583.327087,413.069946 539.994812,413.069946 
	C539.994812,404.407562 539.994812,396.144043 540.433228,387.438049 
	C557.787720,386.995514 574.703796,386.995514 591.632690,386.995514 
	C591.632690,378.073822 591.632690,369.562592 591.632690,361.332642 
	C574.216492,361.332642 557.168396,361.332642 540.068604,361.332642 
	C540.068604,370.136597 540.068604,378.608154 540.068604,387.079712 
z"/>
<path fill="#FFFFFF" opacity="1.000000" stroke="none" 
	d="
M462.597839,154.962555 
	C463.044861,163.328506 463.019745,171.726944 462.996155,180.562744 
	C462.997620,181.000107 463.069946,180.930054 462.597839,180.962555 
	C453.874939,180.995056 445.624084,180.995056 437.348633,180.995056 
	C437.348633,189.915802 437.348633,198.414139 437.348633,207.069946 
	C446.154602,207.069946 454.612274,207.069946 463.033752,207.034943 
	C462.997559,206.999939 462.924133,206.931015 462.924133,206.931015 
	C462.924133,215.065735 462.924133,223.200470 462.924133,231.667480 
	C437.398315,231.667480 411.922333,231.667480 386.005341,231.667480 
	C386.005341,223.731247 386.005341,215.802917 386.003845,207.437256 
	C386.002380,206.999893 385.930054,207.069946 386.402161,207.037445 
	C395.125061,207.004944 403.375916,207.004944 411.651367,207.004944 
	C411.651367,198.084198 411.651367,189.585861 411.651367,180.930054 
	C402.845398,180.930054 394.387726,180.930054 385.966248,180.965057 
	C386.002441,181.000061 386.075867,181.068985 386.075867,181.068985 
	C386.075867,172.596436 386.075867,164.123901 386.075867,155.266998 
	C377.475555,155.266998 369.074036,155.266998 360.337738,155.266998 
	C360.337738,146.498184 360.337738,138.099594 360.337738,129.349457 
	C385.582489,129.349457 411.073456,129.349457 436.951080,129.349457 
	C436.951080,137.748566 436.951080,146.150620 436.951080,154.995056 
	C445.594177,154.995056 453.859985,154.995056 462.597839,154.962555 
z"/>
<path fill="#FFFFFF" opacity="1.000000" stroke="none" 
	d="
M385.924133,360.930969 
	C385.924133,369.395538 385.924133,377.860077 385.924133,387.004944 
	C360.550079,387.004944 335.212219,387.004944 309.402191,387.037445 
	C308.930054,378.596558 308.930054,370.123138 308.930054,361.263855 
	C300.472870,361.263855 292.070374,361.263855 283.335571,361.263855 
	C283.335571,352.492859 283.335571,344.093628 283.335571,335.144165 
	C299.930542,335.144165 316.774811,335.144165 333.997131,335.144165 
	C333.997131,326.537354 333.997131,318.467834 333.997131,310.204773 
	C351.435028,310.204773 368.486694,310.204773 385.994659,310.204773 
	C385.994659,318.257874 385.994659,326.191620 385.996155,334.562775 
	C385.997620,335.000153 386.069946,334.930054 385.597870,334.962585 
	C376.874939,334.995087 368.624084,334.995087 360.348633,334.995087 
	C360.348633,343.915802 360.348633,352.414124 360.348633,361.069946 
	C369.154602,361.069946 377.612274,361.069946 386.033752,361.034912 
	C385.997559,360.999908 385.924133,360.930969 385.924133,360.930969 
z"/>
<path fill="#FFFFFF" opacity="1.000000" stroke="none" 
	d="
M180.068985,412.924133 
	C171.601181,412.924133 163.133377,412.924133 154.332886,412.924133 
	C154.332886,387.065186 154.332886,361.255402 154.332886,335.005341 
	C162.602814,335.005341 170.864090,335.005341 179.562744,335.003845 
	C180.000107,335.002380 179.930054,334.930054 179.962555,335.402161 
	C179.995056,344.125061 179.995056,352.375916 179.995056,360.651367 
	C188.915802,360.651367 197.414139,360.651367 206.069946,360.651367 
	C206.069946,351.845398 206.069946,343.387726 206.034943,334.966248 
	C205.999939,335.002441 205.931015,335.075867 205.931015,335.075867 
	C214.057205,335.075867 222.183411,335.075867 230.995102,335.075867 
	C230.995102,352.106018 230.995102,369.118317 230.963058,386.603210 
	C230.931015,387.075867 230.999939,387.002441 230.562820,386.998749 
	C213.446854,386.995056 196.767990,386.995056 179.930054,386.995056 
	C179.930054,396.152893 179.930054,404.611420 179.965057,413.033752 
	C180.000061,412.997559 180.068985,412.924133 180.068985,412.924133 
z"/>
<path fill="#FFFFFF" opacity="1.000000" stroke="none" 
	d="
M546.088257,310.000000 
	C543.946716,310.000000 542.293640,310.000000 540.320679,310.000000 
	C540.320679,301.450104 540.320679,293.043365 540.320679,284.316895 
	C565.892822,284.316895 591.629883,284.316895 617.683960,284.316895 
	C617.683960,292.557129 617.683960,300.964294 617.683960,310.000000 
	C594.084045,310.000000 570.330383,310.000000 546.088257,310.000000 
z"/>
<path fill="#FFFFFF" opacity="1.000000" stroke="none" 
	d="
M385.973328,77.950165 
	C385.939148,86.053307 385.939148,94.193069 385.939148,102.666290 
	C368.833191,102.666290 351.784576,102.666290 334.367615,102.666290 
	C334.367615,94.770378 334.367615,86.592247 334.367615,78.004044 
	C351.299255,78.004044 368.216431,78.004044 385.607117,78.029678 
	C386.080627,78.055313 386.007538,77.986778 385.973328,77.950165 
z"/>
<path fill="#FFFFFF" opacity="1.000000" stroke="none" 
	d="
M386.039124,206.965424 
	C377.616821,206.930954 369.157806,206.930954 360.349426,206.930954 
	C360.349426,198.414917 360.349426,189.915741 360.349426,181.004898 
	C368.626343,181.004898 376.878479,181.004898 385.603210,181.036942 
	C386.075867,181.068985 386.002441,181.000061 385.998749,181.437164 
	C385.973389,190.272842 385.951721,198.671387 385.930054,207.069946 
	C385.930054,207.069946 386.002380,206.999893 386.039124,206.965424 
z"/>
<path fill="#FFFFFF" opacity="1.000000" stroke="none" 
	d="
M462.960876,181.034576 
	C471.324677,181.044373 479.725189,181.019714 488.597839,180.962555 
	C489.069946,189.376862 489.069946,197.823669 489.069946,206.995102 
	C480.594482,206.995102 472.231934,206.995102 463.396790,206.963058 
	C462.924133,206.931015 462.997559,206.999939 463.001221,206.562836 
	C463.026581,197.727158 463.048248,189.328613 463.069946,180.930054 
	C463.069946,180.930054 462.997620,181.000107 462.960876,181.034576 
z"/>
<path fill="#FFFFFF" opacity="1.000000" stroke="none" 
	d="
M309.037415,128.597885 
	C300.671387,129.048294 292.272858,129.026627 283.402161,129.037445 
	C282.930054,120.612267 282.930054,112.154587 282.930054,103.348618 
	C291.585876,103.348618 300.084198,103.348618 309.004913,103.348618 
	C309.004913,111.624107 309.004913,119.874962 309.037415,128.597885 
z"/>
<path fill="#FFFFFF" opacity="1.000000" stroke="none" 
	d="
M412.039124,360.965393 
	C403.673706,360.952332 395.271545,360.973724 386.396790,360.963043 
	C385.924133,360.930969 385.997559,360.999908 386.001251,360.562805 
	C386.026611,351.727142 386.048279,343.328613 386.069946,334.930054 
	C386.069946,334.930054 385.997620,335.000153 385.960876,335.034607 
	C394.326294,335.047668 402.728455,335.026276 411.603210,335.036957 
	C412.075867,335.069031 412.002441,335.000092 411.998749,335.437195 
	C411.973389,344.272858 411.951721,352.671387 411.930054,361.069946 
	C411.930054,361.069946 412.002411,360.999878 412.039124,360.965393 
z"/>
<path fill="#FFFFFF" opacity="1.000000" stroke="none" 
	d="
M179.962555,310.402130 
	C188.328613,309.951721 196.727158,309.973389 205.597839,309.962555 
	C206.044998,317.996887 206.020050,326.063751 205.963058,334.603210 
	C205.931015,335.075867 205.999939,335.002441 205.562836,334.998749 
	C196.727158,334.973389 188.328613,334.951721 179.930054,334.930054 
	C179.930054,334.930054 180.000107,335.002380 180.034561,335.039124 
	C180.044357,327.008636 180.019714,318.941406 179.962555,310.402130 
z"/>
<path fill="#FFFFFF" opacity="1.000000" stroke="none" 
	d="
M654.024536,310.000000 
	C650.550720,310.000000 647.571106,310.000000 644.296509,310.000000 
	C644.296509,301.403381 644.296509,292.998779 644.296509,284.295593 
	C652.265015,284.295593 660.336426,284.295593 668.705444,284.295593 
	C668.705444,292.600708 668.705444,301.005219 668.705444,310.000000 
	C664.045532,310.000000 659.282166,310.000000 654.024536,310.000000 
z"/>
<path fill="#FFFFFF" opacity="1.000000" stroke="none" 
	d="
M489.034607,464.039124 
	C489.069061,455.601654 489.069061,447.127502 489.069061,438.326813 
	C523.288452,438.326813 557.438782,438.326813 591.961670,438.326813 
	C591.961670,455.433380 591.961670,472.488922 591.961670,489.995056 
	C600.592041,489.995056 608.858887,489.995056 617.597839,489.962555 
	C618.069946,498.401428 618.069946,506.872803 618.069946,515.995117 
	C575.200684,515.995117 532.535034,515.995117 489.396790,515.963013 
	C488.924164,515.930969 488.997620,515.999939 489.001282,515.562866 
	C489.026642,506.727173 489.048309,498.328613 489.069946,489.930054 
	C489.069946,489.930054 489.000000,490.000000 489.437164,490.002472 
	C506.451965,490.004944 523.029602,490.004944 539.643799,490.004944 
	C539.643799,481.089447 539.643799,472.580780 539.643799,463.930054 
	C522.501831,463.930054 505.715942,463.930054 488.930054,463.930054 
	C488.930054,463.930054 489.000122,464.002411 489.034607,464.039124 
z"/>
<path fill="#FFFFFF" opacity="1.000000" stroke="none" 
	d="
M643.969543,568.230103 
	C643.996033,594.002747 643.996033,619.291748 643.996033,644.789429 
	C617.890381,644.789429 592.153015,644.789429 566.207703,644.789429 
	C566.207703,618.884705 566.207703,593.147339 566.207703,567.000000 
	C575.163696,567.000000 583.949951,567.000000 592.736267,567.000000 
	C608.235352,567.000000 623.734558,566.978638 639.233459,567.032593 
	C640.804138,567.038147 642.373230,567.497559 643.969543,568.230103 
M618.000000,601.540527 
	C618.000000,598.768311 618.000000,595.996094 618.000000,593.274170 
	C609.046692,593.274170 600.642761,593.274170 592.274902,593.274170 
	C592.274902,601.954773 592.274902,610.358765 592.274902,618.724365 
	C600.956299,618.724365 609.360229,618.724365 618.000000,618.724365 
	C618.000000,613.144531 618.000000,607.838196 618.000000,601.540527 
z"/>
<path fill="#FFFFFF" opacity="1.000000" stroke="none" 
	d="
M463.037415,747.597900 
	C446.338074,748.048279 429.606201,748.026611 412.402191,748.037476 
	C411.951721,722.338074 411.973389,696.606140 411.962555,670.402161 
	C420.055084,669.930054 428.180115,669.930054 436.842896,669.930054 
	C436.842896,678.581787 436.842896,687.091858 436.842896,695.995056 
	C445.624725,695.995056 453.875214,695.995056 462.597839,695.962524 
	C463.048279,712.995300 463.026581,730.060547 463.037415,747.597900 
z"/>
<path fill="#FFFFFF" opacity="1.000000" stroke="none" 
	d="
M333.962585,670.402100 
	C342.375244,669.930054 350.820465,669.930054 359.995087,669.930054 
	C359.995087,661.931519 359.995087,653.902893 359.962585,645.402161 
	C376.995087,644.955200 394.060150,644.980408 411.562561,645.005859 
	C411.999908,645.006165 411.926666,644.937317 411.926666,644.937317 
	C411.952728,653.000122 411.978821,661.062927 412.037415,669.597839 
	C403.602539,670.069946 395.135162,670.069946 386.290710,670.069946 
	C386.290710,678.503845 386.290710,686.898865 386.290710,695.646484 
	C368.760406,695.646484 351.602386,695.646484 333.995087,695.646484 
	C333.995087,687.395569 333.995087,679.134888 333.962585,670.402100 
z"/>
<path fill="#FFFFFF" opacity="1.000000" stroke="none" 
	d="
M721.049805,592.973145 
	C703.959656,592.938904 686.832886,592.938904 669.353027,592.938904 
	C669.353027,584.532227 669.353027,576.134583 669.353027,567.367676 
	C686.220581,567.367676 703.385437,567.367676 720.995972,567.367676 
	C720.995972,575.603394 720.995972,583.868408 720.970337,592.606934 
	C720.944641,593.080383 721.013184,593.007324 721.049805,592.973145 
z"/>
<path fill="#FFFFFF" opacity="1.000000" stroke="none" 
	d="
M412.034241,645.042847 
	C412.068542,636.608093 412.068542,628.136780 412.068542,619.332825 
	C428.834808,619.332825 445.549774,619.332825 462.632751,619.332825 
	C462.632751,627.562378 462.632751,636.073059 462.632751,644.995544 
	C446.037598,644.995544 429.454590,644.995544 412.399109,644.966431 
	C411.926666,644.937317 411.999908,645.006165 412.034241,645.042847 
z"/>
<path fill="#FFFFFF" opacity="1.000000" stroke="none" 
	d="
M668.962524,516.402100 
	C685.995300,515.951721 703.060486,515.973389 720.597839,515.962524 
	C721.069946,524.061340 721.069946,532.192688 721.069946,540.661743 
	C703.736816,540.661743 686.586304,540.661743 668.995056,540.661743 
	C668.995056,532.723389 668.995056,524.798828 668.962524,516.402100 
z"/>
<path fill="#FFFFFF" opacity="1.000000" stroke="none" 
	d="
M309.402161,593.037476 
	C308.955170,576.004822 308.980255,558.939697 309.003876,541.437195 
	C309.002380,540.999817 308.930054,541.069946 309.402130,541.037476 
	C317.939453,541.026672 326.004700,541.048340 334.069946,541.069946 
	C334.069946,541.069946 333.999786,540.997742 333.965332,540.961060 
	C333.930878,558.143616 333.930878,575.362915 333.930878,593.004944 
	C325.713989,593.004944 317.794098,593.004944 309.402161,593.037476 
z"/>
<path fill="#FFFFFF" opacity="1.000000" stroke="none" 
	d="
M360.037415,644.597900 
	C351.671387,645.048279 343.272858,645.026611 334.402161,645.037476 
	C333.930054,636.612244 333.930054,628.154480 333.930054,619.348633 
	C342.585876,619.348633 351.084198,619.348633 360.004913,619.348633 
	C360.004913,627.624084 360.004913,635.874939 360.037415,644.597900 
z"/>
<path fill="#FFFFFF" opacity="1.000000" stroke="none" 
	d="
M592.026855,696.049805 
	C592.061096,687.619995 592.061096,679.153564 592.061096,670.343628 
	C600.480774,670.343628 608.871948,670.343628 617.632324,670.343628 
	C617.632324,678.556030 617.632324,687.061401 617.632324,695.995972 
	C609.384033,695.995972 601.125305,695.995972 592.393066,695.970337 
	C591.919617,695.944641 591.992676,696.013184 592.026855,696.049805 
z"/>
<path fill="#FFFFFF" opacity="1.000000" stroke="none" 
	d="
M643.962524,490.402130 
	C652.043701,489.930054 660.157349,489.930054 669.005005,489.930054 
	C669.005005,498.404633 669.005005,506.765198 669.037476,515.597839 
	C660.956299,516.069946 652.842651,516.069946 643.995056,516.069946 
	C643.995056,507.595337 643.995056,499.234772 643.962524,490.402130 
z"/>
<path fill="#FFFFFF" opacity="1.000000" stroke="none" 
	d="
M109.068115,284.000000 
	C106.592270,284.000000 104.608215,284.000000 102.312576,284.000000 
	C102.312576,275.435150 102.312576,267.030060 102.312576,258.310852 
	C110.567169,258.310852 118.972542,258.310852 127.690582,258.310852 
	C127.690582,266.569794 127.690582,274.975464 127.690582,284.000000 
	C121.747688,284.000000 115.653801,284.000000 109.068115,284.000000 
z"/>
<path fill="#FFFFFF" opacity="1.000000" stroke="none" 
	d="
M101.950165,361.026672 
	C110.380020,361.060852 118.846489,361.060852 127.656380,361.060852 
	C127.656380,369.481079 127.656380,377.872162 127.656380,386.632385 
	C119.444038,386.632385 110.939049,386.632385 102.004044,386.632385 
	C102.004044,378.383881 102.004044,370.125122 102.029678,361.392883 
	C102.055313,360.919373 101.986778,360.992462 101.950165,361.026672 
z"/>
<path fill="#FFFFFF" opacity="1.000000" stroke="none" 
	d="
M117.974167,464.000000 
	C112.505844,464.000000 107.531471,464.000000 102.279549,464.000000 
	C102.279549,455.368164 102.279549,446.963959 102.279549,438.278503 
	C110.633957,438.278503 119.038162,438.278503 127.722527,438.278503 
	C127.722527,446.636078 127.722527,455.040283 127.722527,464.000000 
	C124.681221,464.000000 121.574669,464.000000 117.974167,464.000000 
z"/>
<path fill="#FFFFFF" opacity="1.000000" stroke="none" 
	d="
M231.068985,463.924133 
	C223.004089,463.951080 214.939178,463.977997 206.402161,464.037445 
	C205.955154,455.671509 205.980255,447.273071 206.003891,438.437256 
	C206.002426,437.999908 205.930054,438.069946 206.402161,438.037445 
	C214.902908,438.004944 222.931519,438.004944 230.930054,438.004944 
	C230.930054,447.179535 230.930054,455.624756 230.965057,464.033752 
	C231.000061,463.997559 231.068985,463.924133 231.068985,463.924133 
z"/>
<path fill="#FFFFFF" opacity="1.000000" stroke="none" 
	d="
M206.039154,437.965454 
	C197.628815,437.930969 189.181778,437.930969 180.004898,437.930969 
	C180.004898,429.929901 180.004898,421.899658 180.036942,413.396790 
	C180.068985,412.924133 180.000061,412.997559 180.437180,413.001251 
	C189.235031,413.004944 197.595779,413.004944 205.930054,413.004944 
	C205.930054,421.842773 205.930054,429.956360 205.930054,438.069946 
	C205.930054,438.069946 206.002426,437.999908 206.039154,437.965454 
z"/>
<path fill="#FFFFFF" opacity="1.000000" stroke="none" 
	d="
M51.402130,438.037445 
	C50.951721,430.004730 50.973385,421.939514 50.962555,413.402161 
	C59.387394,412.930054 67.844727,412.930054 76.650879,412.930054 
	C76.650879,421.251892 76.650879,429.417267 76.650879,438.004944 
	C68.375206,438.004944 60.124702,438.004944 51.402130,438.037445 
z"/>
<path fill="#FFFFFF" opacity="1.000000" stroke="none" 
	d="
M102.026665,335.049927 
	C102.060867,326.953003 102.060867,318.819458 102.060867,310.343079 
	C110.481796,310.343079 118.872490,310.343079 127.632385,310.343079 
	C127.632385,318.222748 127.632385,326.395233 127.632385,334.995972 
	C119.383118,334.995972 111.124756,334.995972 102.392883,334.970367 
	C101.919380,334.944763 101.992462,335.013306 102.026665,335.049927 
z"/>
<path fill="#FFFFFF" opacity="1.000000" stroke="none" 
	d="
M334.034607,438.039124 
	C334.069061,429.949829 334.069061,421.823822 334.069061,413.348938 
	C342.585419,413.348938 351.083923,413.348938 359.995117,413.348938 
	C359.995117,421.292145 359.995117,429.211365 359.963043,437.603210 
	C359.930969,438.075867 359.999908,438.002441 359.562805,437.998749 
	C350.727142,437.973389 342.328613,437.951721 333.930054,437.930054 
	C333.930054,437.930054 334.000122,438.002411 334.034607,438.039124 
z"/>
<path fill="#FCFCFC" opacity="1.000000" stroke="none" 
	d="
M617.998779,64.014008 
	C617.998779,59.872803 617.998779,56.228550 617.998779,52.292343 
	C660.917542,52.292343 703.629761,52.292343 746.636292,52.292343 
	C746.636292,94.940048 746.636292,137.630737 746.636292,180.578064 
	C703.897888,180.578064 661.322021,180.578064 617.998779,180.578064 
	C617.998779,141.949966 617.998779,103.230461 617.998779,64.014008 
M720.883484,79.723419 
	C719.323425,79.086449 717.766296,77.902939 716.202942,77.894661 
	C693.557190,77.774773 670.910645,77.808586 648.264282,77.821632 
	C646.808960,77.822472 645.353699,77.954300 643.739990,78.032913 
	C643.739990,103.728287 643.739990,129.136688 643.739990,154.750610 
	C669.416687,154.750610 694.967957,154.750610 720.887878,154.750610 
	C720.887878,129.898712 720.887878,105.293877 720.883484,79.723419 
z"/>
<path fill="#FCFCFC" opacity="1.000000" stroke="none" 
	d="
M51.163704,170.951599 
	C51.163704,131.188766 51.163704,91.917450 51.163704,52.321922 
	C94.105217,52.321922 136.791702,52.321922 179.740906,52.321922 
	C179.740906,94.958870 179.740906,137.649673 179.740906,180.588593 
	C137.055862,180.588593 94.491516,180.588593 51.163704,180.588593 
	C51.163704,177.605347 51.163704,174.524231 51.163704,170.951599 
M76.814224,128.499939 
	C76.814224,137.246841 76.814224,145.993744 76.814224,154.633667 
	C102.906990,154.633667 128.421982,154.633667 153.726624,154.633667 
	C153.726624,128.860336 153.726624,103.452003 153.726624,78.193916 
	C127.937538,78.193916 102.421661,78.193916 76.814224,78.193916 
	C76.814224,94.882271 76.814224,111.191101 76.814224,128.499939 
z"/>
<path fill="#FCFCFC" opacity="1.000000" stroke="none" 
	d="
M180.005447,645.000000 
	C180.005447,679.322815 180.005447,713.145630 180.005447,747.337708 
	C137.124634,747.337708 94.426659,747.337708 51.443916,747.337708 
	C51.443916,704.708984 51.443916,662.134399 51.443916,619.192261 
	C94.128555,619.192261 136.831848,619.192261 180.005447,619.192261 
	C180.005447,627.595947 180.005447,636.047974 180.005447,645.000000 
M79.689827,721.886047 
	C104.416573,721.886047 129.143311,721.886047 153.772156,721.886047 
	C153.772156,695.736694 153.772156,670.299500 153.772156,644.741699 
	C128.138504,644.741699 102.730904,644.741699 77.403587,644.741699 
	C77.167175,645.197571 76.889610,645.483215 76.889160,645.769165 
	C76.850952,670.245911 76.813927,694.722717 76.896423,719.199158 
	C76.899437,720.095398 78.088234,720.987549 79.689827,721.886047 
z"/>
<path fill="#FFFFFF" opacity="1.000000" stroke="none" 
	d="
M309.039124,540.965332 
	C300.604858,540.930847 292.133850,540.930847 283.282166,540.930847 
	C283.282166,549.510071 283.282166,557.909119 283.282166,566.652893 
	C274.520233,566.652893 266.123383,566.652893 257.005341,566.652893 
	C257.005341,541.583618 257.005341,516.229126 257.003876,490.437256 
	C257.002411,489.999878 256.930054,490.069946 257.402130,490.037415 
	C266.272797,490.026581 274.671356,490.048279 283.069946,490.069946 
	C283.069946,490.069946 283.000000,490.000000 282.997528,490.437134 
	C282.995056,499.235626 282.995056,507.596954 282.995056,516.069946 
	C292.177460,516.069946 300.623718,516.069946 309.069946,516.069946 
	C309.069946,516.069946 309.000000,516.000000 308.997559,516.437134 
	C308.973419,524.939514 308.951721,533.004700 308.930054,541.069946 
	C308.930054,541.069946 309.002380,540.999817 309.039124,540.965332 
z"/>
<path fill="#FFFFFF" opacity="1.000000" stroke="none" 
	d="
M257.039124,489.965393 
	C248.627808,489.930939 240.179764,489.930939 231.004898,489.930939 
	C231.004898,481.595917 231.004898,473.232666 231.036942,464.396790 
	C231.068985,463.924133 231.000061,463.997559 231.437164,464.001251 
	C240.272842,464.026611 248.671387,464.048279 257.069946,464.069946 
	C257.069946,464.069946 257.000000,464.000000 256.997559,464.437134 
	C256.973419,473.272858 256.951752,481.671387 256.930054,490.069946 
	C256.930054,490.069946 257.002411,489.999878 257.039124,489.965393 
z"/>
<path fill="#FFFFFF" opacity="1.000000" stroke="none" 
	d="
M386.037415,747.597900 
	C377.671387,748.048279 369.272858,748.026611 360.402161,748.037476 
	C359.930054,739.612244 359.930054,731.154480 359.930054,722.348633 
	C368.585876,722.348633 377.084198,722.348633 386.004913,722.348633 
	C386.004913,730.624084 386.004913,738.874939 386.037415,747.597900 
z"/>
<path fill="#FFFFFF" opacity="1.000000" stroke="none" 
	d="
M514.949585,103.027168 
	C523.046509,103.061371 531.180115,103.061371 539.656738,103.061371 
	C539.656738,111.481216 539.656738,119.871979 539.656738,128.632172 
	C531.777405,128.632172 523.604980,128.632172 515.003967,128.632172 
	C515.003967,120.383415 515.003967,112.125076 515.029358,103.393326 
	C515.054749,102.919907 514.986206,102.992966 514.949585,103.027168 
z"/>
<path fill="#000000" opacity="1.000000" stroke="none" 
	d="
M488.597870,489.962585 
	C489.048309,498.328613 489.026642,506.727173 489.037476,515.597839 
	C446.283020,516.069946 403.496094,516.069946 360.354614,516.069946 
	C360.354614,507.528229 360.354614,499.124268 360.354614,490.158203 
	C377.245697,490.158203 394.431244,490.158203 411.991516,490.158203 
	C411.991516,472.540405 411.991516,455.476776 411.991516,438.209351 
	C420.440094,438.209351 428.506226,438.209351 436.956482,438.209351 
	C436.956482,455.424072 436.956482,472.487610 436.956482,489.995087 
	C454.265808,489.995087 471.195801,489.995087 488.597870,489.962585 
z"/>
<path fill="#000000" opacity="1.000000" stroke="none" 
	d="
M257.037415,463.597839 
	C248.671387,464.048279 240.272842,464.026611 231.402161,464.037445 
	C230.930054,455.624756 230.930054,447.179535 230.930054,438.004944 
	C222.931519,438.004944 214.902908,438.004944 206.402161,438.037445 
	C205.930054,429.956360 205.930054,421.842773 205.930054,413.004944 
	C197.595779,413.004944 189.235031,413.004944 180.402176,413.037445 
	C179.930054,404.611420 179.930054,396.152893 179.930054,386.995056 
	C196.767990,386.995056 213.446854,386.995056 230.597824,386.962555 
	C231.069946,395.394012 231.069946,403.857971 231.069946,412.693848 
	C239.489182,412.693848 247.881561,412.693848 257.004913,412.693848 
	C257.004913,429.745575 257.004913,446.435669 257.037415,463.597839 
z"/>
<path fill="#000000" opacity="1.000000" stroke="none" 
	d="
M488.962585,464.402130 
	C505.715942,463.930054 522.501831,463.930054 539.643799,463.930054 
	C539.643799,472.580780 539.643799,481.089447 539.643799,490.004944 
	C523.029602,490.004944 506.451965,490.004944 489.402222,490.037445 
	C488.951752,481.671356 488.973419,473.272797 488.962585,464.402130 
z"/>
<path fill="#000000" opacity="1.000000" stroke="none" 
	d="
M309.037415,515.597900 
	C300.623718,516.069946 292.177460,516.069946 282.995056,516.069946 
	C282.995056,507.596954 282.995056,499.235626 282.962555,490.402161 
	C291.376282,489.930054 299.822540,489.930054 309.004913,489.930054 
	C309.004913,498.403107 309.004913,506.764435 309.037415,515.597900 
z"/>
<path fill="#000000" opacity="1.000000" stroke="none" 
	d="
M257.402161,490.037415 
	C256.951752,481.671387 256.973419,473.272858 256.962585,464.402161 
	C265.376282,463.930054 273.822510,463.930054 283.004944,463.930054 
	C283.004944,472.403046 283.004944,480.764374 283.037445,489.597839 
	C274.671356,490.048279 266.272797,490.026581 257.402161,490.037415 
z"/>
<path fill="#000000" opacity="1.000000" stroke="none" 
	d="
M333.962585,438.402130 
	C342.328613,437.951721 350.727142,437.973389 359.597839,437.962555 
	C360.069946,446.387726 360.069946,454.845398 360.069946,463.651367 
	C351.414124,463.651367 342.915802,463.651367 333.995087,463.651367 
	C333.995087,455.375916 333.995087,447.125061 333.962585,438.402130 
z"/>
<path fill="#000000" opacity="1.000000" stroke="none" 
	d="
M412.034241,567.042847 
	C412.068542,558.614868 412.068542,550.150330 412.068542,541.342896 
	C420.148285,541.342896 428.206085,541.342896 436.632751,541.342896 
	C436.632751,549.555176 436.632751,558.059631 436.632751,566.995544 
	C428.721069,566.995544 420.796295,566.995544 412.399109,566.966431 
	C411.926666,566.937317 411.999908,567.006165 412.034241,567.042847 
z"/>
<path fill="#000000" opacity="1.000000" stroke="none" 
	d="
M309.402130,541.037476 
	C308.951721,533.004700 308.973419,524.939514 308.962585,516.402161 
	C317.042938,515.930054 325.155853,515.930054 334.004913,515.930054 
	C334.004913,524.069092 334.004913,532.097412 334.037415,540.597900 
	C326.004700,541.048340 317.939453,541.026672 309.402130,541.037476 
z"/>
<path fill="#000000" opacity="1.000000" stroke="none" 
	d="
M540.034302,387.043030 
	C540.068604,378.608154 540.068604,370.136597 540.068604,361.332642 
	C557.168396,361.332642 574.216492,361.332642 591.632690,361.332642 
	C591.632690,369.562592 591.632690,378.073822 591.632690,386.995514 
	C574.703796,386.995514 557.787720,386.995514 540.399170,386.966522 
	C539.926758,386.937531 539.999939,387.006348 540.034302,387.043030 
z"/>
<path fill="#000000" opacity="1.000000" stroke="none" 
	d="
M412.402130,361.037415 
	C411.951721,352.671387 411.973389,344.272858 411.962555,335.402161 
	C420.054779,334.930054 428.179504,334.930054 436.651886,334.930054 
	C436.651886,343.586212 436.651886,352.083862 436.651886,361.004913 
	C428.710144,361.004913 420.792175,361.004913 412.402130,361.037415 
z"/>
<path fill="#000000" opacity="1.000000" stroke="none" 
	d="
M386.402161,207.037445 
	C385.951721,198.671387 385.973389,190.272842 385.962555,181.402161 
	C394.387726,180.930054 402.845398,180.930054 411.651367,180.930054 
	C411.651367,189.585861 411.651367,198.084198 411.651367,207.004944 
	C403.375916,207.004944 395.125061,207.004944 386.402161,207.037445 
z"/>
<path fill="#000000" opacity="1.000000" stroke="none" 
	d="
M462.597839,180.962555 
	C463.048248,189.328613 463.026581,197.727158 463.037415,206.597839 
	C454.612274,207.069946 446.154602,207.069946 437.348633,207.069946 
	C437.348633,198.414139 437.348633,189.915802 437.348633,180.995056 
	C445.624084,180.995056 453.874939,180.995056 462.597839,180.962555 
z"/>
<path fill="#000000" opacity="1.000000" stroke="none" 
	d="
M385.597870,334.962585 
	C386.048279,343.328613 386.026611,351.727142 386.037445,360.597839 
	C377.612274,361.069946 369.154602,361.069946 360.348633,361.069946 
	C360.348633,352.414124 360.348633,343.915802 360.348633,334.995087 
	C368.624084,334.995087 376.874939,334.995087 385.597870,334.962585 
z"/>
<path fill="#000000" opacity="1.000000" stroke="none" 
	d="
M179.962555,335.402161 
	C188.328613,334.951721 196.727158,334.973389 205.597839,334.962555 
	C206.069946,343.387726 206.069946,351.845398 206.069946,360.651367 
	C197.414139,360.651367 188.915802,360.651367 179.995056,360.651367 
	C179.995056,352.375916 179.995056,344.125061 179.962555,335.402161 
z"/>
<path fill="#000000" opacity="1.000000" stroke="none" 
	d="
M618.000000,602.036194 
	C618.000000,607.838196 618.000000,613.144531 618.000000,618.724365 
	C609.360229,618.724365 600.956299,618.724365 592.274902,618.724365 
	C592.274902,610.358765 592.274902,601.954773 592.274902,593.274170 
	C600.642761,593.274170 609.046692,593.274170 618.000000,593.274170 
	C618.000000,595.996094 618.000000,598.768311 618.000000,602.036194 
z"/>
<path fill="#010101" opacity="1.000000" stroke="none" 
	d="
M720.885681,80.206223 
	C720.887878,105.293877 720.887878,129.898712 720.887878,154.750610 
	C694.967957,154.750610 669.416687,154.750610 643.739990,154.750610 
	C643.739990,129.136688 643.739990,103.728287 643.739990,78.032913 
	C645.353699,77.954300 646.808960,77.822472 648.264282,77.821632 
	C670.910645,77.808586 693.557190,77.774773 716.202942,77.894661 
	C717.766296,77.902939 719.323425,79.086449 720.885681,80.206223 
z"/>
<path fill="#000000" opacity="1.000000" stroke="none" 
	d="
M76.814224,127.999939 
	C76.814224,111.191101 76.814224,94.882271 76.814224,78.193916 
	C102.421661,78.193916 127.937538,78.193916 153.726624,78.193916 
	C153.726624,103.452003 153.726624,128.860336 153.726624,154.633667 
	C128.421982,154.633667 102.906990,154.633667 76.814224,154.633667 
	C76.814224,145.993744 76.814224,137.246841 76.814224,127.999939 
z"/>
<path fill="#010101" opacity="1.000000" stroke="none" 
	d="
M79.207123,721.883850 
	C78.088234,720.987549 76.899437,720.095398 76.896423,719.199158 
	C76.813927,694.722717 76.850952,670.245911 76.889160,645.769165 
	C76.889610,645.483215 77.167175,645.197571 77.403587,644.741699 
	C102.730904,644.741699 128.138504,644.741699 153.772156,644.741699 
	C153.772156,670.299500 153.772156,695.736694 153.772156,721.886047 
	C129.143311,721.886047 104.416573,721.886047 79.207123,721.883850 
z"/>
</svg>