<svg version="1.1" id="Layer_1" xmlns="http://www.w3.org/2000/svg" xmlns:xlink="http://www.w3.org/1999/xlink" x="0px" y="0px"
	 width="100%" viewBox="0 0 800 800" enable-background="new 0 0 800 800" xml:space="preserve">
<path fill="#FEFEFE" opacity="1.000000" stroke="none" 
	d="
M1.000000,216.000000 
	C1.000000,144.000000 1.000000,72.500000 1.000000,1.000000 
	C267.666656,1.000000 534.333313,1.000000 801.000000,1.000000 
	C801.000000,267.666656 801.000000,534.333313 801.000000,801.000000 
	C534.333313,801.000000 267.666656,801.000000 1.000000,801.000000 
	C1.000000,606.166687 1.000000,411.333344 1.000000,216.000000 
M308.869568,747.994019 
	C316.938293,747.973083 325.007019,747.952087 333.006409,748.874817 
	C333.006409,756.807068 333.006409,764.739380 333.006409,772.673218 
	C376.259674,772.673218 419.058899,772.673218 461.924194,772.673218 
	C461.924194,764.208923 461.924194,756.070068 462.869568,747.994019 
	C496.778168,747.994019 530.686768,747.994019 564.635010,747.994019 
	C564.635010,739.089783 564.635010,730.573730 564.635010,721.702332 
	C538.888794,721.702332 513.505859,721.702332 487.740112,721.702332 
	C487.740112,712.936829 487.740112,704.532410 487.740112,696.068848 
	C478.875671,696.068848 470.399963,696.068848 461.993591,695.125183 
	C461.993591,686.859070 461.993591,678.592957 461.993591,669.949158 
	C470.848999,669.949158 479.250183,669.949158 488.026764,669.949158 
	C488.026764,661.505066 488.026764,653.435303 488.026764,645.193909 
	C496.807892,645.193909 505.202667,645.193909 514.159912,645.193909 
	C514.159912,653.567139 514.159912,661.761841 514.159912,670.312927 
	C522.789978,670.312927 530.859131,670.312927 539.293091,670.312927 
	C539.293091,679.098694 539.293091,687.500305 539.293091,696.087830 
	C556.805786,696.087830 573.933289,696.087830 590.992371,696.014587 
	C590.992371,696.014587 590.919312,695.946045 590.995361,696.887390 
	C590.995361,705.157043 590.995361,713.426758 590.995361,721.769531 
	C608.544861,721.769531 625.605164,721.769531 643.048340,721.769531 
	C643.048340,704.480652 643.048340,687.417114 643.048340,669.965881 
	C651.495728,669.965881 659.570435,669.965881 668.015991,669.965881 
	C668.015991,652.847168 668.015991,636.116150 668.015991,619.195007 
	C676.800110,619.195007 685.199768,619.195007 694.160522,619.195007 
	C694.160522,636.235291 694.160522,653.088562 694.160522,669.658875 
	C720.111755,669.658875 745.501282,669.658875 770.670410,669.658875 
	C770.670410,652.588562 770.670410,635.859558 770.670410,618.753174 
	C753.612793,618.753174 736.881897,618.753174 720.087830,618.753174 
	C720.087830,609.892456 720.087830,601.415833 720.014587,593.007629 
	C720.014587,593.007629 719.946045,593.080688 720.887390,593.004639 
	C729.136780,593.004639 737.386169,593.004639 745.924316,593.004639 
	C745.924316,575.362305 745.924316,558.146790 746.869690,540.994080 
	C754.788025,540.994080 762.706360,540.994080 770.649353,540.994080 
	C770.649353,532.416931 770.649353,524.251709 770.649353,516.068726 
	C762.174683,516.068726 754.049500,516.068726 745.993530,515.125061 
	C745.971130,506.729126 745.948669,498.333160 746.871277,489.994415 
	C754.795532,489.994415 762.719788,489.994415 770.631775,489.994415 
	C770.631775,481.059631 770.631775,472.555786 770.631775,464.344177 
	C762.205811,464.344177 754.148682,464.344177 746.067993,464.344177 
	C746.067993,473.151184 746.067993,481.615204 745.124634,490.006653 
	C728.209717,490.006653 711.294861,490.006653 693.825195,490.006653 
	C693.825195,481.082489 693.825195,472.558258 693.825195,464.332703 
	C676.552307,464.332703 659.837952,464.332703 643.068848,464.332703 
	C643.068848,473.134644 643.068848,481.605225 642.125183,490.006439 
	C633.727173,490.029572 625.329163,490.052704 616.994019,489.130432 
	C616.994019,472.218658 616.994019,455.306854 616.994019,437.864990 
	C634.218872,437.864990 651.052490,437.864990 667.931152,437.864990 
	C667.931152,429.196289 667.931152,421.060272 668.874878,412.993591 
	C685.816833,412.993591 702.758789,412.993591 720.097412,412.993591 
	C720.097412,421.558563 720.097412,429.637573 720.097412,437.744934 
	C737.238403,437.744934 753.976868,437.744934 770.739746,437.744934 
	C770.739746,420.751099 770.739746,404.012573 770.739746,386.875153 
	C762.408875,386.875153 754.331299,386.875153 745.864136,386.875153 
	C745.864136,378.068542 745.864136,369.658112 745.864136,361.274353 
	C737.054260,361.274353 728.648193,361.274353 719.846924,361.274353 
	C719.846924,369.953369 719.846924,378.365997 719.846924,386.719696 
	C711.035950,386.719696 702.629333,386.719696 693.828491,386.719696 
	C693.828491,378.032013 693.828491,369.619324 693.828491,360.821808 
	C685.020691,360.821808 676.608398,360.821808 668.292908,360.821808 
	C668.292908,352.010498 668.292908,343.603577 668.292908,334.803406 
	C676.993896,334.803406 685.406128,334.803406 694.203308,334.803406 
	C694.203308,326.328156 694.203308,318.248047 694.203308,309.785645 
	C703.012207,309.785645 711.424988,309.785645 719.926270,309.785645 
	C719.926270,300.902496 719.926270,292.419861 720.871277,283.994415 
	C729.135010,283.994415 737.398682,283.994415 745.631775,283.994415 
	C745.631775,266.383728 745.631775,249.220428 745.631775,232.353577 
	C736.866089,232.353577 728.469299,232.353577 720.067993,232.353577 
	C720.067993,249.830414 720.067993,266.954834 719.124634,284.006653 
	C710.848389,284.006653 702.572144,284.006653 693.902710,284.006653 
	C693.902710,266.441254 693.902710,249.365540 693.902710,232.254868 
	C685.094055,232.254868 676.688660,232.254868 667.885986,232.254868 
	C667.885986,240.912445 667.885986,249.323380 667.885986,257.739380 
	C659.409668,257.739380 651.337585,257.739380 642.868042,257.739380 
	C642.868042,249.073074 642.868042,240.661835 642.868042,232.272308 
	C634.058411,232.272308 625.652405,232.272308 616.851196,232.272308 
	C616.851196,240.948837 616.851196,249.361160 616.851196,257.721924 
	C608.040771,257.721924 599.634216,257.721924 590.833130,257.721924 
	C590.833130,249.036865 590.833130,240.623993 590.833130,231.826599 
	C582.025696,231.826599 573.612732,231.826599 564.815857,231.826599 
	C564.815857,214.686356 564.815857,197.943985 564.815857,181.298309 
	C556.004944,181.298309 547.598328,181.298309 538.799133,181.298309 
	C538.799133,190.002670 538.799133,198.415115 538.799133,206.695892 
	C530.320374,206.695892 522.246277,206.695892 513.781128,206.695892 
	C513.781128,197.983017 513.781128,189.570190 513.781128,181.075790 
	C504.897491,181.075790 496.414368,181.075790 487.994049,180.130432 
	C488.037720,171.792480 488.081360,163.454514 489.040894,155.007141 
	C514.299316,155.007141 539.557800,155.007141 564.691650,155.007141 
	C564.691650,120.320488 564.691650,86.249062 564.691650,52.073414 
	C555.902466,52.073414 547.420105,52.073414 538.994507,51.128452 
	C538.994507,42.871799 538.994507,34.615150 538.994507,26.368484 
	C530.394043,26.368484 522.222778,26.368484 514.343140,26.368484 
	C514.343140,35.126762 514.343140,43.516121 514.343140,51.931675 
	C522.816589,51.931675 530.948181,51.931675 539.006714,52.875053 
	C539.006714,61.124409 539.006714,69.373764 539.006714,78.154655 
	C530.430237,78.154655 522.252197,78.154655 513.912781,78.154655 
	C513.912781,86.815063 513.912781,94.937653 513.986023,102.991867 
	C513.986023,102.991867 514.054504,102.918785 513.113037,102.995300 
	C504.846710,102.995300 496.580414,102.995300 488.276886,102.995300 
	C488.276886,120.732262 488.276886,137.991547 487.284393,155.019821 
	C478.830994,155.036148 470.377625,155.052460 461.993591,154.125076 
	C461.993591,137.215881 461.993591,120.306679 461.993591,102.869804 
	C444.780792,102.869804 427.949036,102.869804 410.926910,102.869804 
	C410.926910,94.206039 410.926910,86.071938 411.871765,77.994469 
	C437.121094,77.994469 462.370453,77.994469 487.800171,77.994469 
	C487.800171,69.189926 487.800171,60.793522 487.800171,51.845181 
	C470.429779,51.845181 453.249756,51.845181 435.695923,51.845181 
	C435.695923,42.891037 435.695923,34.488968 435.695923,26.339956 
	C427.237091,26.339956 419.169434,26.339956 411.068604,26.339956 
	C411.068604,43.812405 411.068604,60.946133 410.125183,78.006729 
	C401.729370,78.028931 393.333557,78.051132 384.994476,77.128410 
	C384.994476,68.871361 384.994476,60.614315 384.994476,52.368500 
	C376.060242,52.368500 367.556122,52.368500 359.343750,52.368500 
	C359.343750,61.127331 359.343750,69.517174 359.343750,77.931595 
	C368.150787,77.931595 376.615265,77.931595 385.006683,78.874985 
	C385.006683,86.794464 385.006683,94.713943 385.006683,103.075768 
	C367.367065,103.075768 350.149139,103.075768 332.994049,102.130417 
	C332.994049,94.100677 332.994049,86.070946 332.994049,78.068405 
	C324.150146,78.068405 316.035187,78.068405 307.993317,77.125015 
	C307.993317,68.885094 307.993317,60.645176 307.993317,52.068275 
	C299.053955,52.068275 290.487152,52.068275 281.993317,51.124893 
	C281.993317,42.875294 281.993317,34.625694 281.993317,26.348251 
	C273.085968,26.348251 264.588928,26.348251 256.073303,26.348251 
	C256.073303,35.150955 256.073303,43.606628 255.128357,52.005543 
	C246.871323,52.005543 238.614288,52.005543 230.368484,52.005543 
	C230.368484,60.939770 230.368484,69.443909 230.368484,77.656235 
	C239.127319,77.656235 247.517181,77.656235 255.931564,77.656235 
	C255.931564,68.849243 255.931564,60.384762 256.874969,51.993294 
	C265.270752,51.971039 273.666565,51.948784 282.005524,52.871502 
	C282.005524,61.232254 282.005524,69.593010 282.005524,77.926666 
	C291.173370,77.926666 299.617798,77.926666 308.005524,78.871582 
	C308.026611,86.939667 308.047668,95.007744 307.125061,103.006432 
	C281.439636,103.006432 255.754242,103.006432 230.345490,103.006432 
	C230.345490,112.118126 230.345490,120.514015 230.345490,129.274796 
	C239.085785,129.274796 247.483826,129.274796 256.073242,129.274796 
	C256.073242,138.123962 256.073242,146.593124 255.128342,155.005554 
	C246.864655,155.005554 238.600967,155.005554 230.368500,155.005554 
	C230.368500,172.616486 230.368500,189.779709 230.368500,206.646240 
	C239.134323,206.646240 247.531082,206.646240 255.931519,206.646240 
	C255.931519,189.169174 255.931519,172.044724 256.874939,154.993301 
	C265.132233,154.993301 273.389557,154.993301 282.158630,154.993301 
	C282.158630,172.581055 282.158630,189.738281 282.158630,206.924210 
	C291.141296,206.924210 299.605011,206.924210 308.005981,207.869553 
	C308.026917,215.938293 308.047852,224.007034 307.125092,232.006409 
	C264.461853,232.006409 221.798630,232.006409 179.075790,232.006409 
	C179.075790,241.127533 179.075790,249.598145 178.130432,258.005951 
	C169.728363,258.026917 161.326294,258.047852 152.993576,257.125061 
	C152.993576,248.854507 152.993576,240.583969 152.993576,232.197174 
	C109.818123,232.197174 67.110275,232.197174 24.351574,232.197174 
	C24.351574,258.232819 24.351574,284.070831 24.351574,309.652222 
	C33.107735,309.652222 41.511158,309.652222 50.290901,309.652222 
	C50.290901,300.901611 50.290901,292.494995 50.290901,284.335754 
	C59.089043,284.335754 67.492340,284.335754 76.264450,284.335754 
	C76.264450,301.401123 76.264450,318.131409 76.264450,335.244720 
	C84.717522,335.244720 92.791283,335.244720 101.075768,335.244720 
	C101.075768,344.113983 101.075768,352.591370 100.130417,361.005951 
	C92.195236,361.005951 84.260048,361.005951 75.945091,361.005951 
	C75.945091,369.856750 75.945091,378.260712 75.945091,387.025879 
	C58.504597,387.025879 41.447159,387.025879 24.356236,387.025879 
	C24.356236,404.241882 24.356236,421.080902 24.356236,437.651794 
	C33.114086,437.651794 41.514820,437.651794 50.287994,437.651794 
	C50.287994,429.236389 50.287994,421.165588 50.287994,412.931244 
	C67.476135,412.931244 84.275963,412.931244 101.006424,413.874939 
	C101.027222,430.608551 101.048012,447.342133 100.125107,464.006409 
	C74.869736,464.006409 49.614365,464.006409 24.361141,464.006409 
	C24.361141,498.599762 24.361141,532.763794 24.361141,566.643188 
	C33.126690,566.643188 41.530354,566.643188 50.289238,566.643188 
	C50.289238,540.899902 50.289238,515.511658 50.289238,489.931244 
	C67.466270,489.931244 84.271034,489.931244 101.006439,490.874908 
	C101.028801,499.270691 101.051163,507.666473 100.128540,516.005493 
	C92.197838,516.005493 84.267136,516.005493 76.368454,516.005493 
	C76.368454,533.283508 76.368454,550.113281 76.368454,566.645996 
	C84.801399,566.645996 92.865250,566.645996 100.931778,566.645996 
	C100.931778,549.502197 100.931778,532.711243 101.875153,515.993286 
	C118.885185,515.993286 135.895218,515.993286 153.073441,515.993286 
	C153.073441,524.812317 153.073441,532.937317 152.128464,541.005493 
	C143.871414,541.005493 135.614365,541.005493 127.368484,541.005493 
	C127.368484,549.940247 127.368484,558.444031 127.368484,566.656250 
	C136.127289,566.656250 144.517136,566.656250 152.931702,566.656250 
	C152.931702,557.849243 152.931702,549.384705 153.875092,540.993286 
	C162.270752,540.971191 170.666397,540.949036 179.005524,541.871826 
	C179.005524,550.128845 179.005524,558.385864 179.005524,566.631470 
	C187.939865,566.631470 196.443954,566.631470 204.656158,566.631470 
	C204.656158,557.872559 204.656158,549.482849 204.656158,541.068665 
	C195.849045,541.068665 187.384537,541.068665 178.993286,540.125244 
	C178.993286,532.199768 178.993286,524.274292 178.993286,515.924377 
	C204.978363,515.924377 230.523529,515.924377 256.005920,516.869690 
	C256.026886,533.604980 256.047821,550.340332 255.125076,567.006409 
	C246.854538,567.006409 238.584000,567.006409 230.224457,567.006409 
	C230.224457,584.534058 230.224457,601.593567 230.224457,619.035034 
	C247.506073,619.035034 264.569366,619.035034 281.796814,619.035034 
	C281.796814,627.817932 281.796814,636.217163 281.796814,645.176086 
	C264.416168,645.176086 247.231461,645.176086 230.328278,645.176086 
	C230.328278,688.111877 230.328278,730.487244 230.328278,772.675537 
	C239.060364,772.675537 247.462402,772.675537 256.244690,772.675537 
	C256.244690,764.282532 256.244690,756.208740 256.244690,747.924377 
	C265.113953,747.924377 273.591339,747.924377 282.005951,748.869690 
	C282.005951,756.787903 282.005951,764.706116 282.005951,772.651367 
	C290.914368,772.651367 299.411682,772.651367 307.924194,772.651367 
	C307.924194,764.179626 307.924194,756.055420 308.869568,747.994019 
M746.005493,722.871704 
	C746.005493,731.128357 746.005493,739.385010 746.005493,747.631470 
	C754.605957,747.631470 762.777222,747.631470 770.656799,747.631470 
	C770.656799,738.873047 770.656799,730.483704 770.656799,722.068542 
	C762.183228,722.068542 754.051636,722.068542 745.993286,721.125122 
	C745.993286,712.855835 745.993286,704.586548 745.993286,696.218689 
	C728.472351,696.218689 711.415466,696.218689 693.969116,696.218689 
	C693.969116,704.831116 693.969116,713.235840 693.969116,722.020081 
	C685.184387,722.020081 676.779541,722.020081 667.994995,722.020081 
	C667.994995,730.804382 667.994995,739.209412 667.994995,747.994629 
	C659.544250,747.994629 651.471191,747.994629 643.364502,747.994629 
	C643.364502,756.573975 643.364502,764.757812 643.364502,772.663086 
	C669.113159,772.663086 694.497742,772.663086 720.256653,772.663086 
	C720.256653,755.601196 720.256653,738.873535 720.256653,721.926758 
	C729.111023,721.926758 737.586548,721.926758 746.005493,722.871704 
M692.500183,26.323177 
	C658.787903,26.323177 625.075684,26.323177 591.463867,26.323177 
	C591.463867,86.769829 591.463867,146.330551 591.463867,205.897339 
	C651.464905,205.897339 711.168945,205.897339 770.765564,205.897339 
	C770.765564,145.932449 770.765564,86.259880 770.765564,26.323185 
	C744.758850,26.323185 719.129517,26.323185 692.500183,26.323177 
M188.498245,206.186981 
	C193.754761,206.186981 199.011261,206.186981 204.007080,206.186981 
	C204.007080,145.861755 204.007080,86.276657 204.007080,26.669357 
	C144.110428,26.669357 84.552986,26.669357 24.898817,26.669357 
	C24.898817,86.601791 24.898817,146.190155 24.898817,206.186981 
	C79.253914,206.186981 133.376541,206.186981 188.498245,206.186981 
M25.606983,593.045715 
	C25.293776,594.729553 24.708214,596.413086 24.706800,598.097229 
	C24.659266,654.749634 24.665577,711.402100 24.676529,768.054565 
	C24.676836,769.645142 24.813185,771.235779 24.886518,772.835510 
	C84.856186,772.835510 144.437408,772.835510 204.144028,772.835510 
	C204.144028,712.863647 204.144028,653.133118 204.144028,593.003906 
	C144.828857,593.003906 85.712379,593.003906 25.606983,593.045715 
M33.532001,335.001099 
	C30.425764,335.001099 27.319527,335.001099 24.278694,335.001099 
	C24.278694,343.960236 24.278694,352.363647 24.278694,360.720276 
	C32.962631,360.720276 41.365993,360.720276 49.719242,360.720276 
	C49.719242,352.035248 49.719242,343.631866 49.719242,335.001099 
	C44.467693,335.001099 39.493782,335.001099 33.532001,335.001099 
M591.005127,749.710388 
	C591.005127,757.456970 591.005127,765.203613 591.005127,772.634155 
	C600.135437,772.634155 608.544434,772.634155 616.630249,772.634155 
	C616.630249,764.192688 616.630249,756.117920 616.630249,748.744995 
	C607.855591,748.744995 599.456665,748.744995 591.005127,749.710388 
M770.998962,325.469543 
	C770.998962,320.375519 770.998962,315.281525 770.998962,310.299622 
	C762.330078,310.299622 754.259399,310.299622 746.300659,310.299622 
	C746.300659,318.671997 746.300659,326.742676 746.300659,334.698273 
	C754.674011,334.698273 762.744690,334.698273 770.998962,334.698273 
	C770.998962,331.751923 770.998962,329.104767 770.998962,325.469543 
z"/>
<path fill="#000000" opacity="1.000000" stroke="none" 
	d="
M591.060730,696.087830 
	C573.933289,696.087830 556.805786,696.087830 539.293091,696.087830 
	C539.293091,687.500305 539.293091,679.098694 539.293091,670.312927 
	C530.859131,670.312927 522.789978,670.312927 514.159912,670.312927 
	C514.159912,661.761841 514.159912,653.567139 514.159912,645.193909 
	C505.202667,645.193909 496.807892,645.193909 488.026764,645.193909 
	C488.026764,653.435303 488.026764,661.505066 488.026764,669.949158 
	C479.250183,669.949158 470.848999,669.949158 461.993591,669.949158 
	C461.993591,678.592957 461.993591,686.859070 461.995605,695.562622 
	C461.997650,696.000061 462.069946,695.930054 461.597870,695.962524 
	C452.857971,695.995056 444.590179,695.995056 435.942841,695.995056 
	C435.942841,687.143066 435.942841,678.739136 435.942841,670.214050 
	C427.490662,670.214050 419.427307,670.214050 410.813812,670.214050 
	C410.813812,687.598328 410.813812,704.776306 410.813812,722.328430 
	C401.860596,722.328430 393.457275,722.328430 385.350128,722.328430 
	C385.350128,731.121277 385.350128,739.522400 385.350128,748.069946 
	C411.156738,748.069946 436.613342,748.069946 462.033783,748.034973 
	C461.997620,748.000000 461.924194,747.931152 461.924194,747.931152 
	C461.924194,756.070068 461.924194,764.208923 461.924194,772.673218 
	C419.058899,772.673218 376.259674,772.673218 333.006409,772.673218 
	C333.006409,764.739380 333.006409,756.807068 333.004395,748.437378 
	C333.002350,747.999939 332.930054,748.069946 333.402130,748.037476 
	C342.150360,748.004944 350.426483,748.004944 359.094879,748.004944 
	C359.094879,730.441345 359.094879,713.366028 359.094879,695.897583 
	C367.899170,695.897583 376.311707,695.897583 385.110016,695.897583 
	C385.110016,678.759277 385.110016,662.017151 385.110016,644.883240 
	C410.914490,644.883240 436.321320,644.883240 461.737671,644.883240 
	C461.737671,636.075317 461.737671,627.669434 461.737671,618.869263 
	C427.404663,618.869263 393.331940,618.869263 359.269104,618.869263 
	C359.269104,610.061157 359.269104,601.655396 359.269104,593.271423 
	C402.276001,593.271423 445.013275,593.271423 488.150085,593.271423 
	C488.150085,601.948242 488.150085,610.360291 488.150085,618.720581 
	C496.959656,618.720581 505.365814,618.720581 514.166016,618.720581 
	C514.166016,610.035339 514.166016,601.622803 514.166016,592.825989 
	C522.639587,592.825989 530.719177,592.825989 538.709045,592.825989 
	C538.709045,575.351685 538.709045,558.279541 538.709045,541.294922 
	C530.341614,541.294922 522.268372,541.294922 513.802856,541.294922 
	C513.802856,549.996765 513.802856,558.408813 513.802856,566.697510 
	C496.328308,566.697510 479.255981,566.697510 462.306488,566.697510 
	C462.306488,557.984924 462.306488,549.577698 462.306488,540.779785 
	C471.020569,540.779785 479.433228,540.779785 488.069946,540.779785 
	C488.069946,532.230042 488.069946,524.080017 488.034973,515.965027 
	C488.000000,516.000000 487.930054,516.069946 488.402161,516.037476 
	C531.538452,516.004944 574.202637,516.004944 617.069946,516.004944 
	C617.069946,506.872437 617.069946,498.401245 617.034973,489.966217 
	C617.000000,490.002380 616.931152,490.075806 616.931152,490.075806 
	C625.329163,490.052704 633.727173,490.029572 642.562622,490.004395 
	C643.000061,490.002350 642.930054,489.930054 642.962524,490.402130 
	C642.995056,499.234772 642.995056,507.595337 642.995056,516.069946 
	C651.842651,516.069946 659.956299,516.069946 668.034973,516.034973 
	C668.000000,516.000000 667.930054,515.930054 667.962524,516.402161 
	C667.995056,524.799866 667.995056,532.725464 667.995056,541.069946 
	C694.313293,541.069946 720.191589,541.069946 746.033813,541.035034 
	C745.997620,541.000061 745.924316,540.931274 745.924316,540.931274 
	C745.924316,558.146790 745.924316,575.362305 745.924316,593.004639 
	C737.386169,593.004639 729.136780,593.004639 720.441711,592.569092 
	C719.996033,583.868530 719.996033,575.603394 719.996033,567.367920 
	C702.385376,567.367920 685.220520,567.367920 668.353394,567.367920 
	C668.353394,576.135254 668.353394,584.532898 668.353394,592.939270 
	C685.833740,592.939270 702.960754,592.939270 720.087830,592.939270 
	C720.087830,601.415833 720.087830,609.892456 720.087830,618.753174 
	C736.881897,618.753174 753.612793,618.753174 770.670410,618.753174 
	C770.670410,635.859558 770.670410,652.588562 770.670410,669.658875 
	C745.501282,669.658875 720.111755,669.658875 694.160522,669.658875 
	C694.160522,653.088562 694.160522,636.235291 694.160522,619.195007 
	C685.199768,619.195007 676.800110,619.195007 668.015991,619.195007 
	C668.015991,636.116150 668.015991,652.847168 668.015991,669.965881 
	C659.570435,669.965881 651.495728,669.965881 643.048340,669.965881 
	C643.048340,687.417114 643.048340,704.480652 643.048340,721.769531 
	C625.605164,721.769531 608.544861,721.769531 590.995361,721.769531 
	C590.995361,713.426758 590.995361,705.157043 591.430908,696.441711 
	C600.125244,695.996033 608.384033,695.996033 616.632080,695.996033 
	C616.632080,687.061279 616.632080,678.555908 616.632080,670.343994 
	C607.871277,670.343994 599.480042,670.343994 591.060730,670.343994 
	C591.060730,679.154480 591.060730,687.621155 591.060730,696.087830 
M575.521606,567.000000 
	C572.082703,567.000000 568.643860,567.000000 565.281128,567.000000 
	C565.281128,593.298767 565.281128,619.034973 565.281128,644.718445 
	C591.299561,644.718445 617.035767,644.718445 642.718018,644.718445 
	C642.718018,618.699646 642.718018,592.963440 642.718018,567.000000 
	C620.463623,567.000000 598.490356,567.000000 575.521606,567.000000 
z"/>
<path fill="#000000" opacity="1.000000" stroke="none" 
	d="
M719.926270,283.937225 
	C719.926270,292.419861 719.926270,300.902496 719.926270,309.785645 
	C711.424988,309.785645 703.012207,309.785645 694.203308,309.785645 
	C694.203308,318.248047 694.203308,326.328156 694.203308,334.803406 
	C685.406128,334.803406 676.993896,334.803406 668.292908,334.803406 
	C668.292908,343.603577 668.292908,352.010498 668.292908,360.821808 
	C676.608398,360.821808 685.020691,360.821808 693.828491,360.821808 
	C693.828491,369.619324 693.828491,378.032013 693.828491,386.719696 
	C702.629333,386.719696 711.035950,386.719696 719.846924,386.719696 
	C719.846924,378.365997 719.846924,369.953369 719.846924,361.274353 
	C728.648193,361.274353 737.054260,361.274353 745.864136,361.274353 
	C745.864136,369.658112 745.864136,378.068542 745.864136,386.875153 
	C754.331299,386.875153 762.408875,386.875153 770.739746,386.875153 
	C770.739746,404.012573 770.739746,420.751099 770.739746,437.744934 
	C753.976868,437.744934 737.238403,437.744934 720.097412,437.744934 
	C720.097412,429.637573 720.097412,421.558563 720.097412,412.993591 
	C702.758789,412.993591 685.816833,412.993591 668.437378,412.995605 
	C667.999939,412.997650 668.069946,413.069946 668.037476,412.597839 
	C668.004944,403.849365 668.004944,395.573029 668.004944,386.903503 
	C650.773315,386.903503 634.030640,386.903503 616.894775,386.903503 
	C616.894775,369.431061 616.894775,352.355164 616.894775,334.886047 
	C582.422058,334.886047 548.348267,334.886047 514.261841,334.886047 
	C514.261841,309.078735 514.261841,283.673401 514.261841,257.868591 
	C522.595703,257.868591 530.672852,257.868591 538.729370,257.868591 
	C538.729370,249.058792 538.729370,240.652466 538.729370,232.275040 
	C521.718201,232.275040 504.979156,232.275040 487.842285,232.275040 
	C487.842285,240.955963 487.842285,249.368744 487.842285,258.166504 
	C479.034943,258.166504 470.622131,258.166504 462.288239,258.166504 
	C462.288239,266.977264 462.288239,275.383728 462.288239,284.184143 
	C470.983215,284.184143 479.395294,284.184143 487.702942,284.184143 
	C487.702942,292.995270 487.702942,301.402161 487.702942,310.201660 
	C453.333649,310.201660 419.259857,310.201660 384.789612,310.201660 
	C384.789612,318.677155 384.789612,326.756287 384.789612,334.689880 
	C358.981476,334.689880 333.575592,334.689880 308.069946,334.689880 
	C308.069946,308.896667 308.069946,283.413361 308.034973,257.965027 
	C308.000000,258.000000 307.930054,258.069946 308.402161,258.037445 
	C316.876434,258.045776 324.878601,258.086609 332.936157,258.585114 
	C332.991608,267.293182 332.991608,275.543549 332.991608,283.742615 
	C350.625458,283.742615 367.674866,283.742615 384.755249,283.742615 
	C384.755249,275.089142 384.755249,266.695099 384.755249,258.279724 
	C367.255829,258.279724 350.001038,258.279724 332.863586,257.783264 
	C333.010620,248.834534 333.040283,240.382294 333.034973,231.965027 
	C333.000000,232.000000 332.930054,232.069946 333.402161,232.037445 
	C342.234772,232.004944 350.595337,232.004944 359.069946,232.004944 
	C359.069946,223.157379 359.069946,215.043716 359.034973,206.965027 
	C359.000000,207.000000 358.930054,207.069946 359.402130,207.037445 
	C368.274750,206.980301 376.675293,206.955643 385.040588,207.402802 
	C385.005341,215.802948 385.005341,223.731262 385.005341,231.667480 
	C410.922363,231.667480 436.398315,231.667480 461.924133,231.667480 
	C461.924133,223.200455 461.924133,215.065735 462.396790,206.963058 
	C471.231934,206.995102 479.594482,206.995102 488.069946,206.995102 
	C488.069946,197.823669 488.069946,189.376862 488.035004,180.966217 
	C488.000061,181.002396 487.931244,181.075790 487.931244,181.075790 
	C496.414368,181.075790 504.897491,181.075790 513.781128,181.075790 
	C513.781128,189.570190 513.781128,197.983017 513.781128,206.695892 
	C522.246277,206.695892 530.320374,206.695892 538.799133,206.695892 
	C538.799133,198.415115 538.799133,190.002670 538.799133,181.298309 
	C547.598328,181.298309 556.004944,181.298309 564.815857,181.298309 
	C564.815857,197.943985 564.815857,214.686356 564.815857,231.826599 
	C573.612732,231.826599 582.025696,231.826599 590.833130,231.826599 
	C590.833130,240.623993 590.833130,249.036865 590.833130,257.721924 
	C599.634216,257.721924 608.040771,257.721924 616.851196,257.721924 
	C616.851196,249.361160 616.851196,240.948837 616.851196,232.272308 
	C625.652405,232.272308 634.058411,232.272308 642.868042,232.272308 
	C642.868042,240.661835 642.868042,249.073074 642.868042,257.739380 
	C651.337585,257.739380 659.409668,257.739380 667.885986,257.739380 
	C667.885986,249.323380 667.885986,240.912445 667.885986,232.254868 
	C676.688660,232.254868 685.094055,232.254868 693.902710,232.254868 
	C693.902710,249.365540 693.902710,266.441254 693.902710,284.006653 
	C702.572144,284.006653 710.848389,284.006653 719.562012,284.006287 
	C719.999451,284.005920 719.926270,283.937225 719.926270,283.937225 
M546.560547,284.000000 
	C544.123169,284.000000 541.685791,284.000000 539.270020,284.000000 
	C539.270020,292.941956 539.270020,301.347321 539.270020,309.730011 
	C565.276855,309.730011 591.012695,309.730011 616.727051,309.730011 
	C616.727051,301.052185 616.727051,292.646759 616.727051,284.000000 
	C593.484741,284.000000 570.514404,284.000000 546.560547,284.000000 
M663.380859,310.000000 
	C664.822815,310.000000 666.264709,310.000000 667.752014,310.000000 
	C667.752014,301.101349 667.752014,292.697906 667.752014,284.249786 
	C659.431458,284.249786 651.361206,284.249786 643.251465,284.249786 
	C643.251465,292.905518 643.251465,301.309357 643.251465,310.000000 
	C649.799316,310.000000 656.099976,310.000000 663.380859,310.000000 
z"/>
<path fill="#000000" opacity="1.000000" stroke="none" 
	d="
M667.965576,412.960938 
	C667.931152,421.060272 667.931152,429.196289 667.931152,437.864990 
	C651.052490,437.864990 634.218872,437.864990 616.994019,437.864990 
	C616.994019,455.306854 616.994019,472.218658 616.962585,489.603119 
	C616.931152,490.075806 617.000000,490.002380 616.562866,489.998718 
	C607.859070,489.995056 599.592468,489.995056 590.962830,489.995056 
	C590.962830,472.489838 590.962830,455.434723 590.962830,438.324829 
	C556.441284,438.324829 522.291687,438.324829 488.075867,438.324829 
	C488.075867,447.122528 488.075867,455.595795 487.603210,464.036957 
	C478.860077,464.004883 470.589600,464.004883 461.946075,464.004883 
	C461.946075,446.809784 461.946075,430.080902 461.946075,413.192078 
	C436.179474,413.192078 410.794342,413.192078 385.363464,413.192078 
	C385.363464,421.573547 385.363464,429.758240 385.363464,438.314819 
	C402.454956,438.314819 419.183716,438.314819 436.283691,438.314819 
	C436.283691,455.756836 436.283691,472.818848 436.283691,489.930939 
	C453.801605,489.930939 470.938721,489.930939 488.040588,490.402771 
	C487.980255,499.273041 487.955170,507.671509 487.930054,516.069946 
	C487.930054,516.069946 488.000000,516.000000 487.562836,515.997559 
	C444.462952,515.995056 401.800201,515.995056 358.926666,515.995056 
	C358.926666,506.877930 358.926666,498.407715 359.399109,489.966492 
	C376.787689,489.995514 393.703796,489.995514 410.632690,489.995514 
	C410.632690,481.073822 410.632690,472.562592 410.632690,464.332642 
	C393.216553,464.332642 376.168488,464.332642 359.068542,464.332642 
	C359.068542,473.136505 359.068542,481.608093 358.596863,490.042603 
	C324.060150,489.980408 289.995087,489.955231 255.965027,489.965027 
	C256.000000,490.000000 256.069946,490.069946 256.037445,489.597809 
	C256.004944,463.884064 256.004944,438.642487 256.004944,412.841766 
	C264.901215,412.841766 273.427734,412.841766 282.310486,412.841766 
	C282.310486,403.881042 282.310486,395.479889 282.310486,387.335480 
	C291.095734,387.335480 299.493988,387.335480 308.262115,387.335480 
	C308.262115,396.069092 308.262115,404.470490 308.262115,412.926666 
	C316.785126,412.926666 324.923828,412.926666 333.033508,413.399109 
	C332.960541,421.874603 332.916565,429.877686 332.414917,437.936157 
	C324.045563,437.991608 316.133972,437.991608 308.257568,437.991608 
	C308.257568,446.949738 308.257568,455.338470 308.257568,463.763184 
	C316.572845,463.763184 324.628326,463.763184 332.720276,463.763184 
	C332.720276,454.933319 332.720276,446.339752 333.216736,437.863586 
	C342.114197,437.980957 350.515167,437.980957 358.667847,437.980957 
	C358.667847,429.242310 358.667847,421.178436 358.667847,413.068542 
	C349.864136,413.068542 341.392242,413.068542 332.957367,412.596863 
	C332.994385,403.864655 332.994385,395.604126 332.994385,386.822174 
	C350.599396,386.822174 367.763611,386.822174 385.290497,386.822174 
	C385.290497,377.899261 385.290497,369.503571 385.290497,361.079651 
	C394.134491,361.079651 402.601501,361.079651 411.034210,361.042969 
	C410.999878,361.006317 410.926666,360.937500 410.960754,361.408997 
	C410.994843,370.145569 410.994843,378.410614 410.994843,386.638062 
	C436.953217,386.638062 462.443665,386.638062 488.315063,386.638062 
	C488.315063,377.876495 488.315063,369.475891 488.315063,361.337769 
	C497.100189,361.337769 505.498535,361.337769 514.266724,361.337769 
	C514.266724,370.073853 514.266724,378.475128 514.266724,387.079712 
	C522.789978,387.079712 530.929260,387.079712 539.034302,387.043030 
	C538.999939,387.006348 538.926758,386.937531 538.960815,387.409058 
	C538.994812,396.144043 538.994812,404.407562 538.994812,413.069946 
	C582.327087,413.069946 625.198486,413.069946 668.069946,413.069946 
	C668.069946,413.069946 667.999939,412.997650 667.965576,412.960938 
z"/>
<path fill="#020202" opacity="1.000000" stroke="none" 
	d="
M693.000244,26.323181 
	C719.129517,26.323185 744.758850,26.323185 770.765564,26.323185 
	C770.765564,86.259880 770.765564,145.932449 770.765564,205.897339 
	C711.168945,205.897339 651.464905,205.897339 591.463867,205.897339 
	C591.463867,146.330551 591.463867,86.769829 591.463867,26.323177 
	C625.075684,26.323177 658.787903,26.323177 693.000244,26.323181 
M708.499939,180.834259 
	C720.914795,180.834259 733.329651,180.834259 745.688843,180.834259 
	C745.688843,137.508759 745.688843,94.933311 745.688843,52.238258 
	C702.736511,52.238258 660.025513,52.238258 617.316772,52.238258 
	C617.316772,95.174667 617.316772,137.870728 617.316772,180.834244 
	C647.589355,180.834244 677.544617,180.834244 708.499939,180.834259 
z"/>
<path fill="#010101" opacity="1.000000" stroke="none" 
	d="
M187.998703,206.186981 
	C133.376541,206.186981 79.253914,206.186981 24.898817,206.186981 
	C24.898817,146.190155 24.898817,86.601791 24.898817,26.669357 
	C84.552986,26.669357 144.110428,26.669357 204.007080,26.669357 
	C204.007080,86.276657 204.007080,145.861755 204.007080,206.186981 
	C199.011261,206.186981 193.754761,206.186981 187.998703,206.186981 
M50.163704,98.499931 
	C50.163704,125.787270 50.163704,153.074615 50.163704,180.526825 
	C93.331924,180.526825 136.044601,180.526825 178.809464,180.526825 
	C178.809464,137.613159 178.809464,95.009247 178.809464,52.294815 
	C135.899826,52.294815 93.184143,52.294815 50.163704,52.294815 
	C50.163704,67.560234 50.163704,82.530083 50.163704,98.499931 
z"/>
<path fill="#010101" opacity="1.000000" stroke="none" 
	d="
M26.101440,593.024780 
	C85.712379,593.003906 144.828857,593.003906 204.144028,593.003906 
	C204.144028,653.133118 204.144028,712.863647 204.144028,772.835510 
	C144.437408,772.835510 84.856186,772.835510 24.886518,772.835510 
	C24.813185,771.235779 24.676836,769.645142 24.676529,768.054565 
	C24.665577,711.402100 24.659266,654.749634 24.706800,598.097229 
	C24.708214,596.413086 25.293776,594.729553 26.101440,593.024780 
M179.005447,725.500000 
	C179.005447,690.052979 179.005447,654.606018 179.005447,619.187866 
	C135.839111,619.187866 93.135849,619.187866 50.439629,619.187866 
	C50.439629,662.125977 50.439629,704.700928 50.439629,747.343262 
	C93.420105,747.343262 136.120148,747.343262 179.005447,747.343262 
	C179.005447,740.153442 179.005447,733.326660 179.005447,725.500000 
z"/>
<path fill="#000000" opacity="1.000000" stroke="none" 
	d="
M332.931213,103.075768 
	C350.149139,103.075768 367.367065,103.075768 385.006683,103.075768 
	C385.006683,94.713943 385.006683,86.794464 385.006561,78.437561 
	C385.006439,78.000145 384.937744,78.073334 384.937744,78.073334 
	C393.333557,78.051132 401.729370,78.028931 410.562622,78.006638 
	C411.000061,78.006538 410.926910,77.937843 410.926910,77.937843 
	C410.926910,86.071938 410.926910,94.206039 410.926910,102.869804 
	C427.949036,102.869804 444.780792,102.869804 461.993591,102.869804 
	C461.993591,120.306679 461.993591,137.215881 461.995605,154.562531 
	C461.997620,154.999985 462.069946,154.930054 461.597839,154.962555 
	C452.859985,154.995056 444.594177,154.995056 435.951080,154.995056 
	C435.951080,146.150620 435.951080,137.748566 435.951080,129.349457 
	C410.073456,129.349457 384.582489,129.349457 359.337738,129.349457 
	C359.337738,138.099594 359.337738,146.498184 359.337738,155.266998 
	C368.074036,155.266998 376.475555,155.266998 385.075867,155.266998 
	C385.075867,164.123901 385.075867,172.596436 384.603210,181.036942 
	C375.768066,181.004898 367.405518,181.004898 358.930054,181.004898 
	C358.930054,190.176331 358.930054,198.623138 358.930054,207.069946 
	C358.930054,207.069946 359.000000,207.000000 358.562866,206.997528 
	C349.727142,206.973389 341.328613,206.951721 332.965027,206.965027 
	C333.000000,207.000000 333.069946,207.069946 333.037415,206.597870 
	C333.004913,197.875290 333.004913,189.624786 333.004913,181.349121 
	C324.417572,181.349121 316.251892,181.349121 307.930054,181.349121 
	C307.930054,190.155289 307.930054,198.612610 307.964996,207.033783 
	C307.999939,206.997604 308.068756,206.924210 308.068756,206.924210 
	C299.605011,206.924210 291.141296,206.924210 282.158630,206.924210 
	C282.158630,189.738281 282.158630,172.581055 282.158630,154.993301 
	C273.389557,154.993301 265.132233,154.993301 256.437500,154.993439 
	C256.000061,154.993591 256.073242,155.062302 256.073242,155.062302 
	C256.073242,146.593124 256.073242,138.123962 256.073242,129.274796 
	C247.483826,129.274796 239.085785,129.274796 230.345490,129.274796 
	C230.345490,120.514015 230.345490,112.118126 230.345490,103.006432 
	C255.754242,103.006432 281.439636,103.006432 307.562500,103.004425 
	C307.999969,103.002411 307.930054,102.930061 307.962555,103.402130 
	C307.995056,120.784767 307.995056,137.695343 307.995056,154.643219 
	C316.577393,154.643219 324.753082,154.643219 333.069946,154.643219 
	C333.069946,137.167770 333.069946,120.048912 333.034973,102.966217 
	C333.000000,103.002365 332.931213,103.075768 332.931213,103.075768 
z"/>
<path fill="#000000" opacity="1.000000" stroke="none" 
	d="
M101.075768,361.068787 
	C101.075768,352.591370 101.075768,344.113983 101.075768,335.244720 
	C92.791283,335.244720 84.717522,335.244720 76.264450,335.244720 
	C76.264450,318.131409 76.264450,301.401123 76.264450,284.335754 
	C67.492340,284.335754 59.089043,284.335754 50.290901,284.335754 
	C50.290901,292.494995 50.290901,300.901611 50.290901,309.652222 
	C41.511158,309.652222 33.107735,309.652222 24.351574,309.652222 
	C24.351574,284.070831 24.351574,258.232819 24.351574,232.197174 
	C67.110275,232.197174 109.818123,232.197174 152.993576,232.197174 
	C152.993576,240.583969 152.993576,248.854507 152.995605,257.562500 
	C152.997620,257.999969 153.069946,257.930054 152.597870,257.962585 
	C135.204071,257.995087 118.282349,257.995087 101.365524,257.995087 
	C101.365524,275.602142 101.365524,292.772491 101.365524,310.323853 
	C110.132111,310.323853 118.534706,310.323853 127.303452,310.323853 
	C127.303452,318.777649 127.303452,326.845490 127.303452,334.665344 
	C136.091751,334.665344 144.490982,334.665344 153.262711,334.665344 
	C153.262711,326.264160 153.262711,318.195038 153.262711,309.924133 
	C162.122070,309.924133 170.595520,309.924133 179.036942,310.396790 
	C179.004898,318.789337 179.004898,326.709259 179.004898,335.069946 
	C196.298279,335.069946 213.184113,335.069946 230.034973,335.034973 
	C230.000000,335.000000 229.930054,334.930054 229.962555,335.402191 
	C229.995056,352.885345 229.995056,369.896393 229.995056,387.075867 
	C221.182938,387.075867 213.056976,387.075867 204.963058,386.603210 
	C204.995102,377.867920 204.995102,369.605255 204.995102,360.930054 
	C170.015442,360.930054 135.472748,360.930054 100.966217,360.965027 
	C101.002365,361.000000 101.075768,361.068787 101.075768,361.068787 
z"/>
<path fill="#000000" opacity="1.000000" stroke="none" 
	d="
M282.068756,747.924377 
	C273.591339,747.924377 265.113953,747.924377 256.244690,747.924377 
	C256.244690,756.208740 256.244690,764.282532 256.244690,772.675537 
	C247.462402,772.675537 239.060364,772.675537 230.328278,772.675537 
	C230.328278,730.487244 230.328278,688.111877 230.328278,645.176086 
	C247.231461,645.176086 264.416168,645.176086 281.796814,645.176086 
	C281.796814,636.217163 281.796814,627.817932 281.796814,619.035034 
	C264.569366,619.035034 247.506073,619.035034 230.224457,619.035034 
	C230.224457,601.593567 230.224457,584.534058 230.224457,567.006409 
	C238.584000,567.006409 246.854538,567.006409 255.562531,567.004333 
	C255.999969,567.002258 255.930054,566.930054 255.962555,567.402161 
	C255.995041,576.136963 255.995041,584.399597 255.995041,593.190063 
	C273.609680,593.190063 290.778381,593.190063 308.312317,593.190063 
	C308.312317,602.122192 308.312317,610.519836 308.312317,619.280273 
	C316.755890,619.280273 324.821655,619.280273 332.920288,619.280273 
	C332.920288,628.130249 332.920288,636.599426 332.956970,645.034302 
	C332.993652,644.999939 333.062469,644.926758 332.591003,644.960815 
	C324.188385,644.994812 316.257263,644.994812 307.950684,644.994812 
	C307.950684,653.516846 307.950684,661.584900 307.950684,670.180237 
	C290.402222,670.180237 273.229919,670.180237 256.328125,670.180237 
	C256.328125,687.771301 256.328125,704.820801 256.328125,721.924194 
	C265.126984,721.924194 273.597992,721.924194 282.036957,722.396851 
	C281.979950,731.269592 281.954987,739.669800 281.964996,748.033813 
	C281.999939,747.997742 282.068756,747.924377 282.068756,747.924377 
z"/>
<path fill="#000000" opacity="1.000000" stroke="none" 
	d="
M179.075790,258.068756 
	C179.075790,249.598145 179.075790,241.127533 179.075790,232.006409 
	C221.798630,232.006409 264.461853,232.006409 307.562531,232.004395 
	C307.999969,232.002380 307.930054,231.930054 307.962585,232.402130 
	C307.973389,241.272781 307.951721,249.671371 307.930054,258.069946 
	C307.930054,258.069946 308.000000,258.000000 307.562866,257.997528 
	C298.859436,257.995056 290.593140,257.995056 281.819641,257.995056 
	C281.819641,292.606537 281.819641,326.757812 281.819641,360.663300 
	C272.903351,360.663300 264.504425,360.663300 255.734451,360.663300 
	C255.734451,351.927673 255.734451,343.525635 255.734451,334.930054 
	C246.876480,334.930054 238.403259,334.930054 229.930054,334.930054 
	C229.930054,334.930054 230.000000,335.000000 230.002472,334.562836 
	C230.004944,317.447601 230.004944,300.769531 230.004944,284.075867 
	C221.182037,284.075867 213.056519,284.075867 204.963058,283.603210 
	C204.995102,274.768066 204.995102,266.405518 204.995102,257.930054 
	C195.823669,257.930054 187.376862,257.930054 178.966217,257.964996 
	C179.002396,257.999939 179.075790,258.068756 179.075790,258.068756 
z"/>
<path fill="#000000" opacity="1.000000" stroke="none" 
	d="
M179.062057,540.926941 
	C170.666397,540.949036 162.270752,540.971191 153.437668,540.993408 
	C153.000244,540.993530 153.073441,541.062256 153.073441,541.062256 
	C153.073441,532.937317 153.073441,524.812317 153.073441,515.993286 
	C135.895218,515.993286 118.885185,515.993286 101.437744,515.993408 
	C101.000328,515.993591 101.073524,516.062256 101.073532,516.062256 
	C101.051163,507.666473 101.028801,499.270691 101.004425,490.437500 
	C101.002403,490.000061 100.930061,490.069946 101.402176,490.037445 
	C110.235603,490.004944 118.596924,490.004944 127.069939,490.004944 
	C127.069939,480.822540 127.069939,472.376282 127.034973,463.965027 
	C127.000000,464.000000 126.930061,464.069946 127.402130,464.037445 
	C136.272781,464.026611 144.671371,464.048279 153.034973,464.034973 
	C153.000000,464.000000 152.930054,463.930054 152.962555,464.402161 
	C152.995056,473.136078 152.995056,481.397888 152.995056,490.069946 
	C187.652847,490.069946 221.861389,490.069946 256.069946,490.069946 
	C256.069946,490.069946 256.000000,490.000000 255.997528,490.437134 
	C255.973404,499.272858 255.951736,507.671387 255.964996,516.033813 
	C255.999924,515.997742 256.068695,515.924377 256.068695,515.924377 
	C230.523529,515.924377 204.978363,515.924377 178.993286,515.924377 
	C178.993286,524.274292 178.993286,532.199768 178.993317,540.562683 
	C178.993362,541.000122 179.062057,540.926941 179.062057,540.926941 
z"/>
<path fill="#000000" opacity="1.000000" stroke="none" 
	d="
M538.937744,52.073414 
	C547.420105,52.073414 555.902466,52.073414 564.691650,52.073414 
	C564.691650,86.249062 564.691650,120.320488 564.691650,155.007141 
	C539.557800,155.007141 514.299316,155.007141 488.617737,155.092621 
	C488.194580,155.178116 488.276886,155.250839 488.276886,155.250839 
	C488.276886,137.991547 488.276886,120.732262 488.276886,102.995300 
	C496.580414,102.995300 504.846710,102.995300 513.558472,103.430626 
	C514.003967,112.124413 514.003967,120.382881 514.003967,128.632355 
	C522.604675,128.632355 530.777222,128.632355 538.656738,128.632355 
	C538.656738,119.872353 538.656738,111.481590 538.656738,103.060234 
	C530.180054,103.060234 522.046448,103.060234 513.912781,103.060234 
	C513.912781,94.937653 513.912781,86.815063 513.912781,78.154655 
	C522.252197,78.154655 530.430237,78.154655 539.006714,78.154655 
	C539.006714,69.373764 539.006714,61.124409 539.006592,52.437641 
	C539.006470,52.000229 538.937744,52.073414 538.937744,52.073414 
z"/>
<path fill="#000000" opacity="1.000000" stroke="none" 
	d="
M746.062073,721.926758 
	C737.586548,721.926758 729.111023,721.926758 720.256653,721.926758 
	C720.256653,738.873535 720.256653,755.601196 720.256653,772.663086 
	C694.497742,772.663086 669.113159,772.663086 643.364502,772.663086 
	C643.364502,764.757812 643.364502,756.573975 643.364502,747.994629 
	C651.471191,747.994629 659.544250,747.994629 667.994995,747.994629 
	C667.994995,739.209412 667.994995,730.804382 667.994995,722.020081 
	C676.779541,722.020081 685.184387,722.020081 693.969116,722.020081 
	C693.969116,713.235840 693.969116,704.831116 693.969116,696.218689 
	C711.415466,696.218689 728.472351,696.218689 745.993286,696.218689 
	C745.993286,704.586548 745.993286,712.855835 745.993286,721.562500 
	C745.993347,721.999939 746.062073,721.926758 746.062073,721.926758 
z"/>
<path fill="#000000" opacity="1.000000" stroke="none" 
	d="
M101.039101,489.965637 
	C84.271034,489.931244 67.466270,489.931244 50.289238,489.931244 
	C50.289238,515.511658 50.289238,540.899902 50.289238,566.643188 
	C41.530354,566.643188 33.126690,566.643188 24.361141,566.643188 
	C24.361141,532.763794 24.361141,498.599762 24.361141,464.006409 
	C49.614365,464.006409 74.869736,464.006409 100.562561,464.004395 
	C101.000008,464.002350 100.930061,463.930054 100.962555,464.402130 
	C100.973389,473.272797 100.951729,481.671356 100.930061,490.069946 
	C100.930061,490.069946 101.002403,490.000061 101.039101,489.965637 
z"/>
<path fill="#000000" opacity="1.000000" stroke="none" 
	d="
M101.034409,464.039062 
	C101.048012,447.342133 101.027222,430.608551 101.004410,413.437500 
	C101.002403,413.000061 100.930061,413.069946 101.402130,413.037476 
	C127.608093,412.980316 153.341995,412.955658 179.040619,413.402832 
	C179.005356,421.802582 179.005356,429.730530 179.005356,438.027405 
	C187.829971,438.027405 196.226425,438.027405 204.641190,438.027405 
	C204.641190,446.916931 204.641190,455.425140 204.641190,463.930054 
	C187.164948,463.930054 170.047501,463.930054 152.930054,463.930054 
	C152.930054,463.930054 153.000000,464.000000 153.002472,463.562866 
	C153.004944,454.874878 153.004944,446.624054 153.004944,438.348633 
	C144.084167,438.348633 135.585846,438.348633 126.930061,438.348633 
	C126.930061,447.154602 126.930061,455.612274 126.930061,464.069946 
	C126.930061,464.069946 127.000000,464.000000 126.562859,463.997528 
	C117.727165,463.973389 109.328613,463.951721 100.930061,463.930054 
	C100.930061,463.930054 101.000008,464.002350 101.034409,464.039062 
z"/>
<path fill="#000000" opacity="1.000000" stroke="none" 
	d="
M745.926270,489.937225 
	C745.948669,498.333160 745.971130,506.729126 745.995605,515.562500 
	C745.997620,515.999939 746.069946,515.930054 745.597900,515.962524 
	C719.393860,515.973328 693.661987,515.951660 667.930054,515.930054 
	C667.930054,515.930054 668.000000,516.000000 668.002502,515.562866 
	C668.005005,506.765198 668.005005,498.404633 668.005005,489.930054 
	C659.157349,489.930054 651.043701,489.930054 642.930054,489.930054 
	C642.930054,489.930054 643.000061,490.002350 643.034424,490.039062 
	C643.068848,481.605225 643.068848,473.134644 643.068848,464.332703 
	C659.837952,464.332703 676.552307,464.332703 693.825195,464.332703 
	C693.825195,472.558258 693.825195,481.082489 693.825195,490.006653 
	C711.294861,490.006653 728.209717,490.006653 745.562012,490.006287 
	C745.999451,490.005920 745.926270,489.937225 745.926270,489.937225 
z"/>
<path fill="#000000" opacity="1.000000" stroke="none" 
	d="
M461.960938,696.034424 
	C470.399963,696.068848 478.875671,696.068848 487.740112,696.068848 
	C487.740112,704.532410 487.740112,712.936829 487.740112,721.702332 
	C513.505859,721.702332 538.888794,721.702332 564.635010,721.702332 
	C564.635010,730.573730 564.635010,739.089783 564.635010,747.994019 
	C530.686768,747.994019 496.778168,747.994019 462.396881,747.962585 
	C461.924194,747.931152 461.997620,748.000000 462.001282,747.562866 
	C462.026581,730.060486 462.048248,712.995300 462.069946,695.930054 
	C462.069946,695.930054 461.997650,696.000061 461.960938,696.034424 
z"/>
<path fill="#000000" opacity="1.000000" stroke="none" 
	d="
M101.039101,412.965637 
	C84.275963,412.931244 67.476135,412.931244 50.287994,412.931244 
	C50.287994,421.165588 50.287994,429.236389 50.287994,437.651794 
	C41.514820,437.651794 33.114086,437.651794 24.356236,437.651794 
	C24.356236,421.080902 24.356236,404.241882 24.356236,387.025879 
	C41.447159,387.025879 58.504597,387.025879 75.945091,387.025879 
	C75.945091,378.260712 75.945091,369.856750 75.945091,361.005951 
	C84.260048,361.005951 92.195236,361.005951 100.603088,361.037354 
	C101.075768,361.068787 101.002365,361.000000 100.998703,361.437164 
	C100.973389,378.939545 100.951721,396.004730 100.930061,413.069946 
	C100.930061,413.069946 101.002403,413.000061 101.039101,412.965637 
z"/>
<path fill="#000000" opacity="1.000000" stroke="none" 
	d="
M411.034332,78.043198 
	C411.068604,60.946133 411.068604,43.812405 411.068604,26.339956 
	C419.169434,26.339956 427.237091,26.339956 435.695923,26.339956 
	C435.695923,34.488968 435.695923,42.891037 435.695923,51.845181 
	C453.249756,51.845181 470.429779,51.845181 487.800171,51.845181 
	C487.800171,60.793522 487.800171,69.189926 487.800171,77.994469 
	C462.370453,77.994469 437.121094,77.994469 411.399353,77.966156 
	C410.926910,77.937843 411.000061,78.006538 411.034332,78.043198 
z"/>
<path fill="#000000" opacity="1.000000" stroke="none" 
	d="
M256.034363,567.038940 
	C256.047821,550.340332 256.026886,533.604980 256.037292,516.397034 
	C256.068695,515.924377 255.999924,515.997742 256.437103,516.001343 
	C265.124725,516.004944 273.375153,516.004944 282.158356,516.004944 
	C282.158356,524.575623 282.158356,532.754089 282.158356,541.079468 
	C291.154572,541.079468 299.611572,541.079468 308.034241,541.042847 
	C307.999908,541.006165 307.926666,540.937317 307.960754,541.408813 
	C307.994843,550.131348 307.994843,558.382263 307.994843,566.930054 
	C290.365021,566.930054 273.147522,566.930054 255.930054,566.930054 
	C255.930054,566.930054 255.999969,567.002258 256.034363,567.038940 
z"/>
<path fill="#000000" opacity="1.000000" stroke="none" 
	d="
M720.033691,284.042572 
	C720.067993,266.954834 720.067993,249.830414 720.067993,232.353577 
	C728.469299,232.353577 736.866089,232.353577 745.631775,232.353577 
	C745.631775,249.220428 745.631775,266.383728 745.631775,283.994415 
	C737.398682,283.994415 729.135010,283.994415 720.398804,283.965820 
	C719.926270,283.937225 719.999451,284.005920 720.033691,284.042572 
z"/>
<path fill="#000000" opacity="1.000000" stroke="none" 
	d="
M255.965790,154.956940 
	C255.931519,172.044724 255.931519,189.169174 255.931519,206.646240 
	C247.531082,206.646240 239.134323,206.646240 230.368500,206.646240 
	C230.368500,189.779709 230.368500,172.616486 230.368500,155.005554 
	C238.600967,155.005554 246.864655,155.005554 255.600800,155.033936 
	C256.073242,155.062302 256.000061,154.993591 255.965790,154.956940 
z"/>
<path fill="#000000" opacity="1.000000" stroke="none" 
	d="
M100.966049,515.956909 
	C100.931778,532.711243 100.931778,549.502197 100.931778,566.645996 
	C92.865250,566.645996 84.801399,566.645996 76.368454,566.645996 
	C76.368454,550.113281 76.368454,533.283508 76.368454,516.005493 
	C84.267136,516.005493 92.197838,516.005493 100.601028,516.033875 
	C101.073524,516.062256 101.000328,515.993591 100.966049,515.956909 
z"/>
<path fill="#000000" opacity="1.000000" stroke="none" 
	d="
M178.956696,541.034424 
	C187.384537,541.068665 195.849045,541.068665 204.656158,541.068665 
	C204.656158,549.482849 204.656158,557.872559 204.656158,566.631470 
	C196.443954,566.631470 187.939865,566.631470 179.005524,566.631470 
	C179.005524,558.385864 179.005524,550.128845 179.033783,541.399414 
	C179.062057,540.926941 178.993362,541.000122 178.956696,541.034424 
z"/>
<path fill="#000000" opacity="1.000000" stroke="none" 
	d="
M152.965973,540.956909 
	C152.931702,549.384705 152.931702,557.849243 152.931702,566.656250 
	C144.517136,566.656250 136.127289,566.656250 127.368484,566.656250 
	C127.368484,558.444031 127.368484,549.940247 127.368484,541.005493 
	C135.614365,541.005493 143.871414,541.005493 152.600952,541.033875 
	C153.073441,541.062256 153.000244,540.993530 152.965973,540.956909 
z"/>
<path fill="#000000" opacity="1.000000" stroke="none" 
	d="
M461.960938,155.034378 
	C470.377625,155.052460 478.830994,155.036148 487.780640,155.135330 
	C488.276886,155.250839 488.194580,155.178116 488.159790,155.147339 
	C488.081360,163.454514 488.037720,171.792480 487.962646,180.603119 
	C487.931244,181.075790 488.000061,181.002396 487.562866,180.998718 
	C478.725189,181.019714 470.324677,181.044388 461.959412,180.597229 
	C462.019745,171.726944 462.044830,163.328506 462.069946,154.930054 
	C462.069946,154.930054 461.997620,154.999985 461.960938,155.034378 
z"/>
<path fill="#000000" opacity="1.000000" stroke="none" 
	d="
M282.062347,51.926533 
	C273.666565,51.948784 265.270752,51.971039 256.437561,51.993446 
	C256.000122,51.993599 256.073303,52.062302 256.073303,52.062302 
	C256.073303,43.606628 256.073303,35.150955 256.073303,26.348251 
	C264.588928,26.348251 273.085968,26.348251 281.993317,26.348251 
	C281.993317,34.625694 281.993317,42.875294 281.993469,51.562309 
	C281.993652,51.999725 282.062347,51.926533 282.062347,51.926533 
z"/>
<path fill="#000000" opacity="1.000000" stroke="none" 
	d="
M34.025932,335.001099 
	C39.493782,335.001099 44.467693,335.001099 49.719242,335.001099 
	C49.719242,343.631866 49.719242,352.035248 49.719242,360.720276 
	C41.365993,360.720276 32.962631,360.720276 24.278694,360.720276 
	C24.278694,352.363647 24.278694,343.960236 24.278694,335.001099 
	C27.319527,335.001099 30.425764,335.001099 34.025932,335.001099 
z"/>
<path fill="#000000" opacity="1.000000" stroke="none" 
	d="
M385.043091,77.965866 
	C376.615265,77.931595 368.150787,77.931595 359.343750,77.931595 
	C359.343750,69.517174 359.343750,61.127331 359.343750,52.368500 
	C367.556122,52.368500 376.060242,52.368500 384.994476,52.368500 
	C384.994476,60.614315 384.994476,68.871361 384.966125,77.600876 
	C384.937744,78.073334 385.006439,78.000145 385.043091,77.965866 
z"/>
<path fill="#000000" opacity="1.000000" stroke="none" 
	d="
M152.960922,258.034363 
	C161.326294,258.047852 169.728363,258.026917 178.603119,258.037354 
	C179.075790,258.068756 179.002396,257.999939 178.998734,258.437134 
	C179.019730,267.274811 179.044403,275.675323 178.597229,284.040588 
	C169.764160,284.005341 161.402924,284.005341 153.069946,284.005341 
	C153.069946,274.822327 153.069946,266.376190 153.069946,257.930054 
	C153.069946,257.930054 152.997620,257.999969 152.960922,258.034363 
z"/>
<path fill="#000000" opacity="1.000000" stroke="none" 
	d="
M255.965851,51.956940 
	C255.931564,60.384762 255.931564,68.849243 255.931564,77.656235 
	C247.517181,77.656235 239.127319,77.656235 230.368484,77.656235 
	C230.368484,69.443909 230.368484,60.939770 230.368484,52.005543 
	C238.614288,52.005543 246.871323,52.005543 255.600830,52.033920 
	C256.073303,52.062302 256.000122,51.993599 255.965851,51.956940 
z"/>
<path fill="#000000" opacity="1.000000" stroke="none" 
	d="
M281.956970,52.034000 
	C290.487152,52.068275 299.053955,52.068275 307.993317,52.068275 
	C307.993317,60.645176 307.993317,68.885094 307.993439,77.562439 
	C307.993561,77.999855 308.062256,77.926666 308.062256,77.926666 
	C299.617798,77.926666 291.173370,77.926666 282.005524,77.926666 
	C282.005524,69.593010 282.005524,61.232254 282.033936,52.399017 
	C282.062347,51.926533 281.993652,51.999725 281.956970,52.034000 
z"/>
<path fill="#000000" opacity="1.000000" stroke="none" 
	d="
M591.031433,749.227661 
	C599.456665,748.744995 607.855591,748.744995 616.630249,748.744995 
	C616.630249,756.117920 616.630249,764.192688 616.630249,772.634155 
	C608.544434,772.634155 600.135437,772.634155 591.005127,772.634155 
	C591.005127,765.203613 591.005127,757.456970 591.031433,749.227661 
z"/>
<path fill="#000000" opacity="1.000000" stroke="none" 
	d="
M745.956665,722.034241 
	C754.051636,722.068542 762.183228,722.068542 770.656799,722.068542 
	C770.656799,730.483704 770.656799,738.873047 770.656799,747.631470 
	C762.777222,747.631470 754.605957,747.631470 746.005493,747.631470 
	C746.005493,739.385010 746.005493,731.128357 746.033813,722.399231 
	C746.062073,721.926758 745.993347,721.999939 745.956665,722.034241 
z"/>
<path fill="#000000" opacity="1.000000" stroke="none" 
	d="
M307.924194,747.931152 
	C307.924194,756.055420 307.924194,764.179626 307.924194,772.651367 
	C299.411682,772.651367 290.914368,772.651367 282.005951,772.651367 
	C282.005951,764.706116 282.005951,756.787903 282.037354,748.397034 
	C282.068756,747.924377 281.999939,747.997742 282.437134,748.001343 
	C291.272858,748.026611 299.671387,748.048279 308.033783,748.034973 
	C307.997620,748.000000 307.924194,747.931152 307.924194,747.931152 
z"/>
<path fill="#000000" opacity="1.000000" stroke="none" 
	d="
M333.039062,747.965576 
	C325.007019,747.952087 316.938293,747.973083 308.396881,747.962585 
	C307.924194,747.931152 307.997620,748.000000 308.001282,747.562866 
	C307.980255,738.725281 307.955566,730.324768 308.402710,721.959473 
	C316.903046,721.994629 324.931549,721.994629 332.930054,721.994629 
	C332.930054,731.179626 332.930054,739.624756 332.930054,748.069946 
	C332.930054,748.069946 333.002350,747.999939 333.039062,747.965576 
z"/>
<path fill="#000000" opacity="1.000000" stroke="none" 
	d="
M539.043091,51.965950 
	C530.948181,51.931675 522.816589,51.931675 514.343140,51.931675 
	C514.343140,43.516121 514.343140,35.126762 514.343140,26.368484 
	C522.222778,26.368484 530.394043,26.368484 538.994507,26.368484 
	C538.994507,34.615150 538.994507,42.871799 538.966125,51.600933 
	C538.937744,52.073414 539.006470,52.000229 539.043091,51.965950 
z"/>
<path fill="#000000" opacity="1.000000" stroke="none" 
	d="
M746.033691,490.042572 
	C746.067993,481.615204 746.067993,473.151184 746.067993,464.344177 
	C754.148682,464.344177 762.205811,464.344177 770.631775,464.344177 
	C770.631775,472.555786 770.631775,481.059631 770.631775,489.994415 
	C762.719788,489.994415 754.795532,489.994415 746.398804,489.965820 
	C745.926270,489.937225 745.999451,490.005920 746.033691,490.042572 
z"/>
<path fill="#000000" opacity="1.000000" stroke="none" 
	d="
M745.960938,516.034302 
	C754.049500,516.068726 762.174683,516.068726 770.649353,516.068726 
	C770.649353,524.251709 770.649353,532.416931 770.649353,540.994080 
	C762.706360,540.994080 754.788025,540.994080 746.396973,540.962646 
	C745.924316,540.931274 745.997620,541.000061 746.001282,540.562866 
	C746.026611,532.060486 746.048279,523.995300 746.069946,515.930054 
	C746.069946,515.930054 745.997620,515.999939 745.960938,516.034302 
z"/>
<path fill="#000000" opacity="1.000000" stroke="none" 
	d="
M770.998962,325.963562 
	C770.998962,329.104767 770.998962,331.751923 770.998962,334.698273 
	C762.744690,334.698273 754.674011,334.698273 746.300659,334.698273 
	C746.300659,326.742676 746.300659,318.671997 746.300659,310.299622 
	C754.259399,310.299622 762.330078,310.299622 770.998962,310.299622 
	C770.998962,315.281525 770.998962,320.375519 770.998962,325.963562 
z"/>
<path fill="#000000" opacity="1.000000" stroke="none" 
	d="
M308.034393,232.039078 
	C308.047852,224.007034 308.026917,215.938293 308.037354,207.396881 
	C308.068756,206.924210 307.999939,206.997604 308.437134,207.001282 
	C316.939514,207.026611 325.004730,207.048279 333.069946,207.069946 
	C333.069946,207.069946 333.000000,207.000000 332.997528,207.437134 
	C332.973389,215.939499 332.951721,224.004730 332.930054,232.069946 
	C332.930054,232.069946 333.000000,232.000000 332.562866,231.997528 
	C324.060486,231.973404 315.995270,231.951736 307.930054,231.930054 
	C307.930054,231.930054 307.999969,232.002380 308.034393,232.039078 
z"/>
<path fill="#000000" opacity="1.000000" stroke="none" 
	d="
M307.956909,78.034134 
	C316.035187,78.068405 324.150146,78.068405 332.994049,78.068405 
	C332.994049,86.070946 332.994049,94.100677 332.962646,102.603088 
	C332.931213,103.075768 333.000000,103.002365 332.562866,102.998703 
	C324.060486,102.973389 315.995270,102.951729 307.930054,102.930061 
	C307.930054,102.930061 307.999969,103.002411 308.034363,103.039124 
	C308.047668,95.007744 308.026611,86.939667 308.033875,78.399124 
	C308.062256,77.926666 307.993561,77.999855 307.956909,78.034134 
z"/>
<path fill="#FFFFFF" opacity="1.000000" stroke="none" 
	d="
M333.402130,748.037476 
	C332.930054,739.624756 332.930054,731.179626 332.930054,721.994629 
	C324.931549,721.994629 316.903046,721.994629 308.437195,721.996216 
	C307.999817,721.997742 308.069946,722.069946 308.037415,721.597900 
	C308.004913,712.874939 308.004913,704.624084 308.004913,696.348633 
	C299.084198,696.348633 290.585876,696.348633 281.930054,696.348633 
	C281.930054,705.154480 281.930054,713.612244 281.965088,722.033813 
	C282.000122,721.997620 282.069031,721.924194 282.069031,721.924194 
	C273.597992,721.924194 265.126984,721.924194 256.328125,721.924194 
	C256.328125,704.820801 256.328125,687.771301 256.328125,670.180237 
	C273.229919,670.180237 290.402222,670.180237 307.950684,670.180237 
	C307.950684,661.584900 307.950684,653.516846 307.950684,644.994812 
	C316.257263,644.994812 324.188385,644.994812 332.562012,645.433228 
	C333.004486,653.796326 333.004486,661.721130 333.004486,669.632690 
	C341.940948,669.632690 350.445007,669.632690 358.657013,669.632690 
	C358.657013,661.205933 358.657013,653.148132 358.657013,645.068604 
	C349.849548,645.068604 341.384918,645.068604 332.920288,645.068604 
	C332.920288,636.599426 332.920288,628.130249 332.920288,619.280273 
	C324.821655,619.280273 316.755890,619.280273 308.312317,619.280273 
	C308.312317,610.519836 308.312317,602.122192 308.312317,593.190063 
	C290.778381,593.190063 273.609680,593.190063 255.995041,593.190063 
	C255.995041,584.399597 255.995041,576.136963 255.962555,567.402161 
	C273.147522,566.930054 290.365021,566.930054 307.994843,566.930054 
	C307.994843,558.382263 307.994843,550.131348 308.433197,541.437988 
	C316.795929,540.995544 324.720276,540.995544 332.632751,540.995544 
	C332.632751,532.393433 332.632751,524.221802 332.632751,516.342346 
	C324.206512,516.342346 316.149078,516.342346 308.068542,516.342346 
	C308.068542,524.816162 308.068542,532.947815 308.068542,541.079468 
	C299.611572,541.079468 291.154572,541.079468 282.158356,541.079468 
	C282.158356,532.754089 282.158356,524.575623 282.158356,516.004944 
	C273.375153,516.004944 265.124725,516.004944 256.402191,516.037476 
	C255.951736,507.671387 255.973404,499.272858 255.962555,490.402161 
	C289.995087,489.955231 324.060150,489.980408 358.562531,490.005951 
	C358.999878,490.006317 358.926666,489.937500 358.926666,489.937500 
	C358.926666,498.407715 358.926666,506.877930 358.926666,515.995056 
	C401.800201,515.995056 444.462952,515.995056 487.597809,515.962524 
	C488.069946,524.080017 488.069946,532.230042 488.069946,540.779785 
	C479.433228,540.779785 471.020569,540.779785 462.306488,540.779785 
	C462.306488,549.577698 462.306488,557.984924 462.306488,566.697510 
	C479.255981,566.697510 496.328308,566.697510 513.802856,566.697510 
	C513.802856,558.408813 513.802856,549.996765 513.802856,541.294922 
	C522.268372,541.294922 530.341614,541.294922 538.709045,541.294922 
	C538.709045,558.279541 538.709045,575.351685 538.709045,592.825989 
	C530.719177,592.825989 522.639587,592.825989 514.166016,592.825989 
	C514.166016,601.622803 514.166016,610.035339 514.166016,618.720581 
	C505.365814,618.720581 496.959656,618.720581 488.150085,618.720581 
	C488.150085,610.360291 488.150085,601.948242 488.150085,593.271423 
	C445.013275,593.271423 402.276001,593.271423 359.269104,593.271423 
	C359.269104,601.655396 359.269104,610.061157 359.269104,618.869263 
	C393.331940,618.869263 427.404663,618.869263 461.737671,618.869263 
	C461.737671,627.669434 461.737671,636.075317 461.737671,644.883240 
	C436.321320,644.883240 410.914490,644.883240 385.110016,644.883240 
	C385.110016,662.017151 385.110016,678.759277 385.110016,695.897583 
	C376.311707,695.897583 367.899170,695.897583 359.094879,695.897583 
	C359.094879,713.366028 359.094879,730.441345 359.094879,748.004944 
	C350.426483,748.004944 342.150360,748.004944 333.402130,748.037476 
M385.000000,556.481689 
	C385.000000,559.919922 385.000000,563.358154 385.000000,566.719360 
	C402.299988,566.719360 419.035736,566.719360 435.717590,566.719360 
	C435.717590,558.031128 435.717590,549.626465 435.717590,541.281616 
	C418.697998,541.281616 401.962250,541.281616 385.000000,541.281616 
	C385.000000,546.202393 385.000000,550.844971 385.000000,556.481689 
z"/>
<path fill="#FFFFFF" opacity="1.000000" stroke="none" 
	d="
M488.402161,516.037476 
	C487.955170,507.671509 487.980255,499.273041 488.003906,490.437256 
	C488.002411,489.999878 487.930054,490.069946 488.402161,490.037415 
	C505.451874,490.004913 522.029480,490.004913 538.643799,490.004913 
	C538.643799,481.089142 538.643799,472.580841 538.643799,463.930054 
	C521.501831,463.930054 504.715942,463.930054 487.966248,463.965088 
	C488.002441,464.000092 488.075867,464.069031 488.075867,464.069031 
	C488.075867,455.595795 488.075867,447.122528 488.075867,438.324829 
	C522.291687,438.324829 556.441284,438.324829 590.962830,438.324829 
	C590.962830,455.434723 590.962830,472.489838 590.962830,489.995056 
	C599.592468,489.995056 607.859070,489.995056 616.597839,489.962555 
	C617.069946,498.401245 617.069946,506.872437 617.069946,516.004944 
	C574.202637,516.004944 531.538452,516.004944 488.402161,516.037476 
z"/>
<path fill="#FFFFFF" opacity="1.000000" stroke="none" 
	d="
M576.019348,567.000000 
	C598.490356,567.000000 620.463623,567.000000 642.718018,567.000000 
	C642.718018,592.963440 642.718018,618.699646 642.718018,644.718445 
	C617.035767,644.718445 591.299561,644.718445 565.281128,644.718445 
	C565.281128,619.034973 565.281128,593.298767 565.281128,567.000000 
	C568.643860,567.000000 572.082703,567.000000 576.019348,567.000000 
M604.496948,593.000000 
	C600.063721,593.000000 595.630493,593.000000 591.288940,593.000000 
	C591.288940,601.983521 591.288940,610.387634 591.288940,618.710327 
	C599.985046,618.710327 608.389282,618.710327 616.709473,618.710327 
	C616.709473,610.013062 616.709473,601.608704 616.709473,593.000000 
	C612.776367,593.000000 609.132019,593.000000 604.496948,593.000000 
z"/>
<path fill="#FFFFFF" opacity="1.000000" stroke="none" 
	d="
M461.597839,695.962524 
	C462.048248,712.995300 462.026581,730.060486 462.037415,747.597839 
	C436.613342,748.069946 411.156738,748.069946 385.350128,748.069946 
	C385.350128,739.522400 385.350128,731.121277 385.350128,722.328430 
	C393.457275,722.328430 401.860596,722.328430 410.813812,722.328430 
	C410.813812,704.776306 410.813812,687.598328 410.813812,670.214050 
	C419.427307,670.214050 427.490662,670.214050 435.942841,670.214050 
	C435.942841,678.739136 435.942841,687.143066 435.942841,695.995056 
	C444.590179,695.995056 452.857971,695.995056 461.597839,695.962524 
z"/>
<path fill="#FFFFFF" opacity="1.000000" stroke="none" 
	d="
M745.597900,515.962524 
	C746.048279,523.995300 746.026611,532.060486 746.037476,540.597839 
	C720.191589,541.069946 694.313293,541.069946 667.995056,541.069946 
	C667.995056,532.725464 667.995056,524.799866 667.962524,516.402100 
	C693.661987,515.951660 719.393860,515.973328 745.597900,515.962524 
z"/>
<path fill="#FFFFFF" opacity="1.000000" stroke="none" 
	d="
M720.051208,592.973450 
	C702.960754,592.939270 685.833740,592.939270 668.353394,592.939270 
	C668.353394,584.532898 668.353394,576.135254 668.353394,567.367920 
	C685.220520,567.367920 702.385376,567.367920 719.996033,567.367920 
	C719.996033,575.603394 719.996033,583.868530 719.971069,592.607178 
	C719.946045,593.080688 720.014587,593.007629 720.051208,592.973450 
z"/>
<path fill="#FFFFFF" opacity="1.000000" stroke="none" 
	d="
M591.026550,696.051208 
	C591.060730,687.621155 591.060730,679.154480 591.060730,670.343994 
	C599.480042,670.343994 607.871277,670.343994 616.632080,670.343994 
	C616.632080,678.555908 616.632080,687.061279 616.632080,695.996033 
	C608.384033,695.996033 600.125244,695.996033 591.392822,695.971069 
	C590.919312,695.946045 590.992371,696.014587 591.026550,696.051208 
z"/>
<path fill="#FFFFFF" opacity="1.000000" stroke="none" 
	d="
M642.962524,490.402130 
	C651.043701,489.930054 659.157349,489.930054 668.005005,489.930054 
	C668.005005,498.404633 668.005005,506.765198 668.037476,515.597839 
	C659.956299,516.069946 651.842651,516.069946 642.995056,516.069946 
	C642.995056,507.595337 642.995056,499.234772 642.962524,490.402130 
z"/>
<path fill="#FFFFFF" opacity="1.000000" stroke="none" 
	d="
M152.962555,464.402161 
	C170.047501,463.930054 187.164948,463.930054 204.641190,463.930054 
	C204.641190,455.425140 204.641190,446.916931 204.641190,438.027405 
	C196.226425,438.027405 187.829971,438.027405 179.005356,438.027405 
	C179.005356,429.730530 179.005356,421.802582 179.003906,413.437256 
	C179.002441,412.999878 178.930054,413.069946 179.402130,413.037415 
	C188.235535,413.004913 196.596878,413.004913 205.069946,413.004913 
	C205.069946,403.822540 205.069946,395.376282 205.034943,386.966248 
	C204.999939,387.002441 204.931015,387.075867 204.931015,387.075867 
	C213.056976,387.075867 221.182938,387.075867 229.995056,387.075867 
	C229.995056,369.896393 229.995056,352.885345 229.962555,335.402191 
	C238.403259,334.930054 246.876480,334.930054 255.734451,334.930054 
	C255.734451,343.525635 255.734451,351.927673 255.734451,360.663300 
	C264.504425,360.663300 272.903351,360.663300 281.819641,360.663300 
	C281.819641,326.757812 281.819641,292.606537 281.819641,257.995056 
	C290.593140,257.995056 298.859436,257.995056 307.597839,257.962555 
	C308.069946,283.413361 308.069946,308.896667 308.069946,334.689880 
	C333.575592,334.689880 358.981476,334.689880 384.789612,334.689880 
	C384.789612,326.756287 384.789612,318.677155 384.789612,310.201660 
	C419.259857,310.201660 453.333649,310.201660 487.702942,310.201660 
	C487.702942,301.402161 487.702942,292.995270 487.702942,284.184143 
	C479.395294,284.184143 470.983215,284.184143 462.288239,284.184143 
	C462.288239,275.383728 462.288239,266.977264 462.288239,258.166504 
	C470.622131,258.166504 479.034943,258.166504 487.842285,258.166504 
	C487.842285,249.368744 487.842285,240.955963 487.842285,232.275040 
	C504.979156,232.275040 521.718201,232.275040 538.729370,232.275040 
	C538.729370,240.652466 538.729370,249.058792 538.729370,257.868591 
	C530.672852,257.868591 522.595703,257.868591 514.261841,257.868591 
	C514.261841,283.673401 514.261841,309.078735 514.261841,334.886047 
	C548.348267,334.886047 582.422058,334.886047 616.894775,334.886047 
	C616.894775,352.355164 616.894775,369.431061 616.894775,386.903503 
	C634.030640,386.903503 650.773315,386.903503 668.004944,386.903503 
	C668.004944,395.573029 668.004944,403.849365 668.037476,412.597839 
	C625.198486,413.069946 582.327087,413.069946 538.994812,413.069946 
	C538.994812,404.407562 538.994812,396.144043 539.433228,387.438049 
	C556.787720,386.995514 573.703796,386.995514 590.632690,386.995514 
	C590.632690,378.073822 590.632690,369.562592 590.632690,361.332642 
	C573.216492,361.332642 556.168396,361.332642 539.068604,361.332642 
	C539.068604,370.136597 539.068604,378.608154 539.068604,387.079712 
	C530.929260,387.079712 522.789978,387.079712 514.266724,387.079712 
	C514.266724,378.475128 514.266724,370.073853 514.266724,361.337769 
	C505.498535,361.337769 497.100189,361.337769 488.315063,361.337769 
	C488.315063,369.475891 488.315063,377.876495 488.315063,386.638062 
	C462.443665,386.638062 436.953217,386.638062 410.994843,386.638062 
	C410.994843,378.410614 410.994843,370.145569 411.433197,361.437988 
	C419.796295,360.995514 427.721069,360.995514 435.632690,360.995514 
	C435.632690,352.059570 435.632690,343.555176 435.632690,335.342987 
	C427.205902,335.342987 419.148163,335.342987 411.068542,335.342987 
	C411.068542,344.150452 411.068542,352.615051 411.068542,361.079651 
	C402.601501,361.079651 394.134491,361.079651 385.290497,361.079651 
	C385.290497,369.503571 385.290497,377.899261 385.290497,386.822174 
	C367.763611,386.822174 350.599396,386.822174 332.994385,386.822174 
	C332.994385,395.604126 332.994385,403.864655 332.994019,412.562531 
	C332.993683,412.999878 333.062500,412.926666 333.062500,412.926666 
	C324.923828,412.926666 316.785126,412.926666 308.262115,412.926666 
	C308.262115,404.470490 308.262115,396.069092 308.262115,387.335480 
	C299.493988,387.335480 291.095734,387.335480 282.310486,387.335480 
	C282.310486,395.479889 282.310486,403.881042 282.310486,412.841766 
	C273.427734,412.841766 264.901215,412.841766 256.004944,412.841766 
	C256.004944,438.642487 256.004944,463.884064 256.037445,489.597809 
	C221.861389,490.069946 187.652847,490.069946 152.995056,490.069946 
	C152.995056,481.397888 152.995056,473.136078 152.962555,464.402161 
z"/>
<path fill="#FFFFFF" opacity="1.000000" stroke="none" 
	d="
M461.597839,154.962555 
	C462.044830,163.328506 462.019745,171.726944 461.996155,180.562744 
	C461.997620,181.000107 462.069946,180.930054 461.597839,180.962555 
	C452.874939,180.995056 444.624084,180.995056 436.348633,180.995056 
	C436.348633,189.915802 436.348633,198.414139 436.348633,207.069946 
	C445.154602,207.069946 453.612274,207.069946 462.033752,207.034943 
	C461.997559,206.999939 461.924133,206.931015 461.924133,206.931015 
	C461.924133,215.065735 461.924133,223.200455 461.924133,231.667480 
	C436.398315,231.667480 410.922363,231.667480 385.005341,231.667480 
	C385.005341,223.731262 385.005341,215.802948 385.003845,207.437256 
	C385.002380,206.999893 384.930054,207.069946 385.402161,207.037445 
	C394.125061,207.004944 402.375916,207.004944 410.651367,207.004944 
	C410.651367,198.084198 410.651367,189.585861 410.651367,180.930054 
	C401.845398,180.930054 393.387726,180.930054 384.966248,180.965057 
	C385.002441,181.000061 385.075867,181.068985 385.075867,181.068985 
	C385.075867,172.596436 385.075867,164.123901 385.075867,155.266998 
	C376.475555,155.266998 368.074036,155.266998 359.337738,155.266998 
	C359.337738,146.498184 359.337738,138.099594 359.337738,129.349457 
	C384.582489,129.349457 410.073456,129.349457 435.951080,129.349457 
	C435.951080,137.748566 435.951080,146.150620 435.951080,154.995056 
	C444.594177,154.995056 452.859985,154.995056 461.597839,154.962555 
z"/>
<path fill="#FFFFFF" opacity="1.000000" stroke="none" 
	d="
M547.052368,284.000000 
	C570.514404,284.000000 593.484741,284.000000 616.727051,284.000000 
	C616.727051,292.646759 616.727051,301.052185 616.727051,309.730011 
	C591.012695,309.730011 565.276855,309.730011 539.270020,309.730011 
	C539.270020,301.347321 539.270020,292.941956 539.270020,284.000000 
	C541.685791,284.000000 544.123169,284.000000 547.052368,284.000000 
z"/>
<path fill="#FFFFFF" opacity="1.000000" stroke="none" 
	d="
M332.746216,258.279724 
	C350.001038,258.279724 367.255829,258.279724 384.755249,258.279724 
	C384.755249,266.695099 384.755249,275.089142 384.755249,283.742615 
	C367.674866,283.742615 350.625458,283.742615 332.991608,283.742615 
	C332.991608,275.543549 332.991608,267.293182 332.905457,258.619995 
	C332.819305,258.197174 332.746216,258.279724 332.746216,258.279724 
z"/>
<path fill="#FFFFFF" opacity="1.000000" stroke="none" 
	d="
M359.402130,207.037445 
	C358.930054,198.623138 358.930054,190.176331 358.930054,181.004898 
	C367.405518,181.004898 375.768066,181.004898 384.603210,181.036942 
	C385.075867,181.068985 385.002441,181.000061 384.998749,181.437164 
	C384.973389,190.272842 384.951721,198.671387 384.930054,207.069946 
	C384.930054,207.069946 385.002380,206.999893 385.039124,206.965439 
	C376.675293,206.955643 368.274750,206.980301 359.402130,207.037445 
z"/>
<path fill="#FFFFFF" opacity="1.000000" stroke="none" 
	d="
M461.960876,181.034576 
	C470.324677,181.044388 478.725189,181.019714 487.597839,180.962555 
	C488.069946,189.376862 488.069946,197.823669 488.069946,206.995102 
	C479.594482,206.995102 471.231934,206.995102 462.396790,206.963058 
	C461.924133,206.931015 461.997559,206.999939 462.001221,206.562836 
	C462.026581,197.727158 462.048248,189.328613 462.069946,180.930054 
	C462.069946,180.930054 461.997620,181.000107 461.960876,181.034576 
z"/>
<path fill="#FFFFFF" opacity="1.000000" stroke="none" 
	d="
M662.890747,310.000000 
	C656.099976,310.000000 649.799316,310.000000 643.251465,310.000000 
	C643.251465,301.309357 643.251465,292.905518 643.251465,284.249786 
	C651.361206,284.249786 659.431458,284.249786 667.752014,284.249786 
	C667.752014,292.697906 667.752014,301.101349 667.752014,310.000000 
	C666.264709,310.000000 664.822815,310.000000 662.890747,310.000000 
z"/>
<path fill="#FFFFFF" opacity="1.000000" stroke="none" 
	d="
M307.962585,232.402130 
	C315.995270,231.951736 324.060486,231.973404 332.597839,231.962555 
	C333.040283,240.382294 333.010620,248.834534 332.863586,257.783264 
	C332.746216,258.279724 332.819305,258.197174 332.850037,258.162292 
	C324.878601,258.086609 316.876434,258.045776 308.402161,258.037445 
	C307.951721,249.671371 307.973389,241.272781 307.962585,232.402130 
z"/>
<path fill="#FFFFFF" opacity="1.000000" stroke="none" 
	d="
M333.402161,232.037445 
	C332.951721,224.004730 332.973389,215.939499 332.962555,207.402161 
	C341.328613,206.951721 349.727142,206.973389 358.597839,206.962555 
	C359.069946,215.043716 359.069946,223.157379 359.069946,232.004944 
	C350.595337,232.004944 342.234772,232.004944 333.402161,232.037445 
z"/>
<path fill="#FFFFFF" opacity="1.000000" stroke="none" 
	d="
M488.039124,489.965393 
	C470.938721,489.930939 453.801605,489.930939 436.283691,489.930939 
	C436.283691,472.818848 436.283691,455.756836 436.283691,438.314819 
	C419.183716,438.314819 402.454956,438.314819 385.363464,438.314819 
	C385.363464,429.758240 385.363464,421.573547 385.363464,413.192078 
	C410.794342,413.192078 436.179474,413.192078 461.946075,413.192078 
	C461.946075,430.080902 461.946075,446.809784 461.946075,464.004883 
	C470.589600,464.004883 478.860077,464.004883 487.603210,464.036957 
	C488.075867,464.069031 488.002441,464.000092 487.998779,464.437195 
	C487.973419,473.272858 487.951752,481.671387 487.930054,490.069946 
	C487.930054,490.069946 488.002411,489.999878 488.039124,489.965393 
z"/>
<path fill="#FFFFFF" opacity="1.000000" stroke="none" 
	d="
M359.034210,490.042969 
	C359.068542,481.608093 359.068542,473.136505 359.068542,464.332642 
	C376.168488,464.332642 393.216553,464.332642 410.632690,464.332642 
	C410.632690,472.562592 410.632690,481.073822 410.632690,489.995514 
	C393.703796,489.995514 376.787689,489.995514 359.399109,489.966492 
	C358.926666,489.937500 358.999878,490.006317 359.034210,490.042969 
z"/>
<path fill="#FFFFFF" opacity="1.000000" stroke="none" 
	d="
M332.720276,437.746216 
	C332.720276,446.339752 332.720276,454.933319 332.720276,463.763184 
	C324.628326,463.763184 316.572845,463.763184 308.257568,463.763184 
	C308.257568,455.338470 308.257568,446.949738 308.257568,437.991608 
	C316.133972,437.991608 324.045563,437.991608 332.380005,437.905457 
	C332.802826,437.819305 332.720276,437.746216 332.720276,437.746216 
z"/>
<path fill="#FFFFFF" opacity="1.000000" stroke="none" 
	d="
M332.957031,413.034210 
	C341.392242,413.068542 349.864136,413.068542 358.667847,413.068542 
	C358.667847,421.178436 358.667847,429.242310 358.667847,437.980957 
	C350.515167,437.980957 342.114197,437.980957 333.216736,437.863586 
	C332.720276,437.746216 332.802826,437.819305 332.837708,437.850037 
	C332.916565,429.877686 332.960541,421.874603 333.033508,413.399109 
	C333.062500,412.926666 332.993683,412.999878 332.957031,413.034210 
z"/>
<path fill="#FCFCFC" opacity="1.000000" stroke="none" 
	d="
M707.999878,180.834259 
	C677.544617,180.834244 647.589355,180.834244 617.316772,180.834244 
	C617.316772,137.870728 617.316772,95.174667 617.316772,52.238258 
	C660.025513,52.238258 702.736511,52.238258 745.688843,52.238258 
	C745.688843,94.933311 745.688843,137.508759 745.688843,180.834259 
	C733.329651,180.834259 720.914795,180.834259 707.999878,180.834259 
M661.500244,77.812485 
	C655.232178,77.812485 648.964111,77.812485 642.818237,77.812485 
	C642.818237,103.870064 642.818237,129.269684 642.818237,154.666412 
	C668.608948,154.666412 694.144409,154.666412 719.624146,154.666412 
	C719.624146,128.930206 719.624146,103.527992 719.624146,77.812485 
	C700.407898,77.812485 681.454102,77.812485 661.500244,77.812485 
z"/>
<path fill="#FCFCFC" opacity="1.000000" stroke="none" 
	d="
M50.163704,97.999924 
	C50.163704,82.530083 50.163704,67.560234 50.163704,52.294815 
	C93.184143,52.294815 135.899826,52.294815 178.809464,52.294815 
	C178.809464,95.009247 178.809464,137.613159 178.809464,180.526825 
	C136.044601,180.526825 93.331924,180.526825 50.163704,180.526825 
	C50.163704,153.074615 50.163704,125.787270 50.163704,97.999924 
M89.506332,154.998245 
	C110.581688,154.998245 131.657043,154.998245 152.654556,154.998245 
	C152.654556,128.948959 152.654556,103.425789 152.654556,78.092026 
	C126.910683,78.092026 101.511055,78.092026 75.989319,78.092026 
	C75.989319,103.762939 75.989319,129.155869 75.989319,154.998245 
	C80.269035,154.998245 84.388763,154.998245 89.506332,154.998245 
z"/>
<path fill="#FCFCFC" opacity="1.000000" stroke="none" 
	d="
M179.005447,725.999939 
	C179.005447,733.326660 179.005447,740.153442 179.005447,747.343262 
	C136.120148,747.343262 93.420105,747.343262 50.439629,747.343262 
	C50.439629,704.700928 50.439629,662.125977 50.439629,619.187866 
	C93.135849,619.187866 135.839111,619.187866 179.005447,619.187866 
	C179.005447,654.606018 179.005447,690.052979 179.005447,725.999939 
M122.499962,721.886475 
	C132.588364,721.886475 142.676758,721.886475 152.646851,721.886475 
	C152.646851,695.748596 152.646851,670.219055 152.646851,644.872864 
	C126.903992,644.872864 101.513077,644.872864 76.002846,644.872864 
	C76.002846,670.587158 76.002846,695.995789 76.002846,721.886475 
	C91.290642,721.886475 106.395302,721.886475 122.499962,721.886475 
z"/>
<path fill="#FFFFFF" opacity="1.000000" stroke="none" 
	d="
M307.962555,103.402130 
	C315.995270,102.951729 324.060486,102.973389 332.597839,102.962555 
	C333.069946,120.048912 333.069946,137.167770 333.069946,154.643219 
	C324.753082,154.643219 316.577393,154.643219 307.995056,154.643219 
	C307.995056,137.695343 307.995056,120.784767 307.962555,103.402130 
z"/>
<path fill="#FFFFFF" opacity="1.000000" stroke="none" 
	d="
M333.037415,206.597870 
	C325.004730,207.048279 316.939514,207.026611 308.402161,207.037445 
	C307.930054,198.612610 307.930054,190.155289 307.930054,181.349121 
	C316.251892,181.349121 324.417572,181.349121 333.004913,181.349121 
	C333.004913,189.624786 333.004913,197.875290 333.037415,206.597870 
z"/>
<path fill="#FFFFFF" opacity="1.000000" stroke="none" 
	d="
M101.402130,413.037476 
	C100.951721,396.004730 100.973389,378.939545 100.962555,361.402191 
	C135.472748,360.930054 170.015442,360.930054 204.995102,360.930054 
	C204.995102,369.605255 204.995102,377.867920 204.963058,386.603210 
	C204.931015,387.075867 204.999939,387.002441 204.562820,386.998749 
	C195.764389,386.995056 187.403076,386.995056 178.930054,386.995056 
	C178.930054,396.177460 178.930054,404.623718 178.930054,413.069946 
	C178.930054,413.069946 179.002441,412.999878 179.039154,412.965454 
	C153.341995,412.955658 127.608093,412.980316 101.402130,413.037476 
z"/>
<path fill="#FFFFFF" opacity="1.000000" stroke="none" 
	d="
M152.597870,257.962585 
	C153.069946,266.376190 153.069946,274.822327 153.069946,284.005341 
	C161.402924,284.005341 169.764160,284.005341 178.562744,284.003845 
	C179.000107,284.002380 178.930054,283.930054 178.962555,284.402130 
	C178.973389,293.272797 178.951721,301.671356 178.965057,310.033752 
	C179.000061,309.997559 179.068985,309.924133 179.068985,309.924133 
	C170.595520,309.924133 162.122070,309.924133 153.262711,309.924133 
	C153.262711,318.195038 153.262711,326.264160 153.262711,334.665344 
	C144.490982,334.665344 136.091751,334.665344 127.303452,334.665344 
	C127.303452,326.845490 127.303452,318.777649 127.303452,310.323853 
	C118.534706,310.323853 110.132111,310.323853 101.365524,310.323853 
	C101.365524,292.772491 101.365524,275.602142 101.365524,257.995087 
	C118.282349,257.995087 135.204071,257.995087 152.597870,257.962585 
z"/>
<path fill="#FFFFFF" opacity="1.000000" stroke="none" 
	d="
M204.931015,284.075867 
	C213.056519,284.075867 221.182037,284.075867 230.004944,284.075867 
	C230.004944,300.769531 230.004944,317.447601 230.037445,334.597809 
	C213.184113,335.069946 196.298279,335.069946 179.004898,335.069946 
	C179.004898,326.709259 179.004898,318.789337 179.036942,310.396790 
	C179.068985,309.924133 179.000061,309.997559 179.437180,310.001251 
	C188.235611,310.004944 196.596924,310.004944 205.069946,310.004944 
	C205.069946,300.822540 205.069946,292.376282 205.034943,283.966248 
	C204.999939,284.002441 204.931015,284.075867 204.931015,284.075867 
z"/>
<path fill="#FFFFFF" opacity="1.000000" stroke="none" 
	d="
M307.965363,721.961060 
	C307.955566,730.324768 307.980255,738.725281 308.037445,747.597839 
	C299.671387,748.048279 291.272858,748.026611 282.402161,748.037476 
	C281.954987,739.669800 281.979950,731.269592 282.036957,722.396851 
	C282.069031,721.924194 282.000122,721.997620 282.437195,722.001282 
	C291.272858,722.026611 299.671387,722.048279 308.069946,722.069946 
	C308.069946,722.069946 307.999817,721.997742 307.965363,721.961060 
z"/>
<path fill="#FFFFFF" opacity="1.000000" stroke="none" 
	d="
M179.034576,284.039124 
	C179.044403,275.675323 179.019730,267.274811 178.962555,258.402161 
	C187.376862,257.930054 195.823669,257.930054 204.995102,257.930054 
	C204.995102,266.405518 204.995102,274.768066 204.963058,283.603210 
	C204.931015,284.075867 204.999939,284.002441 204.562836,283.998749 
	C195.727158,283.973389 187.328613,283.951721 178.930054,283.930054 
	C178.930054,283.930054 179.000107,284.002380 179.034576,284.039124 
z"/>
<path fill="#FFFFFF" opacity="1.000000" stroke="none" 
	d="
M100.962555,464.402130 
	C109.328613,463.951721 117.727165,463.973389 126.597824,463.962555 
	C127.069939,472.376282 127.069939,480.822540 127.069939,490.004944 
	C118.596924,490.004944 110.235603,490.004944 101.402176,490.037445 
	C100.951729,481.671356 100.973389,473.272797 100.962555,464.402130 
z"/>
<path fill="#FFFFFF" opacity="1.000000" stroke="none" 
	d="
M127.402130,464.037445 
	C126.930061,455.612274 126.930061,447.154602 126.930061,438.348633 
	C135.585846,438.348633 144.084167,438.348633 153.004944,438.348633 
	C153.004944,446.624054 153.004944,454.874878 153.037445,463.597839 
	C144.671371,464.048279 136.272781,464.026611 127.402130,464.037445 
z"/>
<path fill="#FFFFFF" opacity="1.000000" stroke="none" 
	d="
M513.949402,103.026047 
	C522.046448,103.060234 530.180054,103.060234 538.656738,103.060234 
	C538.656738,111.481590 538.656738,119.872353 538.656738,128.632355 
	C530.777222,128.632355 522.604675,128.632355 514.003967,128.632355 
	C514.003967,120.382881 514.003967,112.124413 514.029236,103.392365 
	C514.054504,102.918785 513.986023,102.991867 513.949402,103.026047 
z"/>
<path fill="#000000" opacity="1.000000" stroke="none" 
	d="
M385.000000,555.984619 
	C385.000000,550.844971 385.000000,546.202393 385.000000,541.281616 
	C401.962250,541.281616 418.697998,541.281616 435.717590,541.281616 
	C435.717590,549.626465 435.717590,558.031128 435.717590,566.719360 
	C419.035736,566.719360 402.299988,566.719360 385.000000,566.719360 
	C385.000000,563.358154 385.000000,559.919922 385.000000,555.984619 
z"/>
<path fill="#000000" opacity="1.000000" stroke="none" 
	d="
M308.037415,721.597900 
	C299.671387,722.048279 291.272858,722.026611 282.402161,722.037476 
	C281.930054,713.612244 281.930054,705.154480 281.930054,696.348633 
	C290.585876,696.348633 299.084198,696.348633 308.004913,696.348633 
	C308.004913,704.624084 308.004913,712.874939 308.037415,721.597900 
z"/>
<path fill="#000000" opacity="1.000000" stroke="none" 
	d="
M332.956970,645.034302 
	C341.384918,645.068604 349.849548,645.068604 358.657013,645.068604 
	C358.657013,653.148132 358.657013,661.205933 358.657013,669.632690 
	C350.445007,669.632690 341.940948,669.632690 333.004486,669.632690 
	C333.004486,661.721130 333.004486,653.796326 333.033478,645.399170 
	C333.062469,644.926758 332.993652,644.999939 332.956970,645.034302 
z"/>
<path fill="#000000" opacity="1.000000" stroke="none" 
	d="
M308.034241,541.042847 
	C308.068542,532.947815 308.068542,524.816162 308.068542,516.342346 
	C316.149078,516.342346 324.206512,516.342346 332.632751,516.342346 
	C332.632751,524.221802 332.632751,532.393433 332.632751,540.995544 
	C324.720276,540.995544 316.795929,540.995544 308.399109,540.966431 
	C307.926666,540.937317 307.999908,541.006165 308.034241,541.042847 
z"/>
<path fill="#000000" opacity="1.000000" stroke="none" 
	d="
M488.402161,490.037415 
	C487.951752,481.671387 487.973419,473.272858 487.962585,464.402161 
	C504.715942,463.930054 521.501831,463.930054 538.643799,463.930054 
	C538.643799,472.580841 538.643799,481.089142 538.643799,490.004913 
	C522.029480,490.004913 505.451874,490.004913 488.402161,490.037415 
z"/>
<path fill="#000000" opacity="1.000000" stroke="none" 
	d="
M604.992310,593.000000 
	C609.132019,593.000000 612.776367,593.000000 616.709473,593.000000 
	C616.709473,601.608704 616.709473,610.013062 616.709473,618.710327 
	C608.389282,618.710327 599.985046,618.710327 591.288940,618.710327 
	C591.288940,610.387634 591.288940,601.983521 591.288940,593.000000 
	C595.630493,593.000000 600.063721,593.000000 604.992310,593.000000 
z"/>
<path fill="#000000" opacity="1.000000" stroke="none" 
	d="
M539.034302,387.043030 
	C539.068604,378.608154 539.068604,370.136597 539.068604,361.332642 
	C556.168396,361.332642 573.216492,361.332642 590.632690,361.332642 
	C590.632690,369.562592 590.632690,378.073822 590.632690,386.995514 
	C573.703796,386.995514 556.787720,386.995514 539.399170,386.966522 
	C538.926758,386.937531 538.999939,387.006348 539.034302,387.043030 
z"/>
<path fill="#000000" opacity="1.000000" stroke="none" 
	d="
M179.402130,413.037415 
	C178.930054,404.623718 178.930054,396.177460 178.930054,386.995056 
	C187.403076,386.995056 195.764389,386.995056 204.597824,386.962555 
	C205.069946,395.376282 205.069946,403.822540 205.069946,413.004913 
	C196.596878,413.004913 188.235535,413.004913 179.402130,413.037415 
z"/>
<path fill="#000000" opacity="1.000000" stroke="none" 
	d="
M411.034210,361.042969 
	C411.068542,352.615051 411.068542,344.150452 411.068542,335.342987 
	C419.148163,335.342987 427.205902,335.342987 435.632690,335.342987 
	C435.632690,343.555176 435.632690,352.059570 435.632690,360.995514 
	C427.721069,360.995514 419.796295,360.995514 411.399109,360.966492 
	C410.926666,360.937500 410.999878,361.006317 411.034210,361.042969 
z"/>
<path fill="#000000" opacity="1.000000" stroke="none" 
	d="
M385.402161,207.037445 
	C384.951721,198.671387 384.973389,190.272842 384.962555,181.402161 
	C393.387726,180.930054 401.845398,180.930054 410.651367,180.930054 
	C410.651367,189.585861 410.651367,198.084198 410.651367,207.004944 
	C402.375916,207.004944 394.125061,207.004944 385.402161,207.037445 
z"/>
<path fill="#000000" opacity="1.000000" stroke="none" 
	d="
M461.597839,180.962555 
	C462.048248,189.328613 462.026581,197.727158 462.037415,206.597839 
	C453.612274,207.069946 445.154602,207.069946 436.348633,207.069946 
	C436.348633,198.414139 436.348633,189.915802 436.348633,180.995056 
	C444.624084,180.995056 452.874939,180.995056 461.597839,180.962555 
z"/>
<path fill="#010101" opacity="1.000000" stroke="none" 
	d="
M662.000244,77.812485 
	C681.454102,77.812485 700.407898,77.812485 719.624146,77.812485 
	C719.624146,103.527992 719.624146,128.930206 719.624146,154.666412 
	C694.144409,154.666412 668.608948,154.666412 642.818237,154.666412 
	C642.818237,129.269684 642.818237,103.870064 642.818237,77.812485 
	C648.964111,77.812485 655.232178,77.812485 662.000244,77.812485 
z"/>
<path fill="#000000" opacity="1.000000" stroke="none" 
	d="
M89.007416,154.998245 
	C84.388763,154.998245 80.269035,154.998245 75.989319,154.998245 
	C75.989319,129.155869 75.989319,103.762939 75.989319,78.092026 
	C101.511055,78.092026 126.910683,78.092026 152.654556,78.092026 
	C152.654556,103.425789 152.654556,128.948959 152.654556,154.998245 
	C131.657043,154.998245 110.581688,154.998245 89.007416,154.998245 
z"/>
<path fill="#010101" opacity="1.000000" stroke="none" 
	d="
M121.999954,721.886475 
	C106.395302,721.886475 91.290642,721.886475 76.002846,721.886475 
	C76.002846,695.995789 76.002846,670.587158 76.002846,644.872864 
	C101.513077,644.872864 126.903992,644.872864 152.646851,644.872864 
	C152.646851,670.219055 152.646851,695.748596 152.646851,721.886475 
	C142.676758,721.886475 132.588364,721.886475 121.999954,721.886475 
z"/>
<path fill="#000000" opacity="1.000000" stroke="none" 
	d="
M178.962555,284.402130 
	C187.328613,283.951721 195.727158,283.973389 204.597839,283.962555 
	C205.069946,292.376282 205.069946,300.822540 205.069946,310.004944 
	C196.596924,310.004944 188.235611,310.004944 179.402176,310.037445 
	C178.951721,301.671356 178.973389,293.272797 178.962555,284.402130 
z"/>
</svg>