<svg version="1.1" id="Layer_1" xmlns="http://www.w3.org/2000/svg" xmlns:xlink="http://www.w3.org/1999/xlink" x="0px" y="0px"
	 width="100%" viewBox="0 0 800 800" enable-background="new 0 0 800 800" xml:space="preserve">
<path fill="#FEFEFE" opacity="1.000000" stroke="none" 
	d="
M1.000000,216.000000 
	C1.000000,144.000000 1.000000,72.500000 1.000000,1.000000 
	C267.666656,1.000000 534.333313,1.000000 801.000000,1.000000 
	C801.000000,267.666656 801.000000,534.333313 801.000000,801.000000 
	C534.333313,801.000000 267.666656,801.000000 1.000000,801.000000 
	C1.000000,606.166687 1.000000,411.333344 1.000000,216.000000 
M102.005959,543.869690 
	C102.005959,552.121277 102.005959,560.372803 102.005959,568.649292 
	C110.916412,568.649292 119.414528,568.649292 127.931244,568.649292 
	C127.931244,559.841370 127.931244,551.382874 128.874954,542.993530 
	C145.939560,542.970459 163.004150,542.947388 180.005966,543.869690 
	C180.005966,552.122314 180.005966,560.374878 180.005966,568.931274 
	C197.301361,568.931274 214.188583,568.931274 231.006439,569.874939 
	C231.006439,586.887024 231.006439,603.899048 231.006439,620.931152 
	C240.156876,620.931152 248.616302,620.931152 257.006409,621.874817 
	C257.006409,630.143005 257.006409,638.411255 257.006409,647.059937 
	C248.142654,647.059937 239.738312,647.059937 231.343140,647.059937 
	C231.343140,689.930054 231.343140,732.410522 231.343140,774.677246 
	C248.742554,774.677246 265.798828,774.677246 282.924194,774.677246 
	C282.924194,766.214417 282.924194,758.072754 283.869568,749.994019 
	C300.549988,749.994019 317.230438,749.994019 333.931183,749.994019 
	C333.931183,740.843384 333.931183,732.383911 334.874908,723.993530 
	C351.799072,723.993530 368.723236,723.993530 385.792297,723.993530 
	C385.792297,732.832764 385.792297,741.229370 385.792297,750.013245 
	C377.190674,750.013245 368.786438,750.013245 360.197754,750.013245 
	C360.197754,758.464539 360.197754,766.527710 360.197754,774.676880 
	C394.542114,774.676880 428.696381,774.676880 462.924194,774.676880 
	C462.924194,766.213867 462.924194,758.072510 463.869568,749.994019 
	C497.778168,749.994019 531.686768,749.994019 565.634949,749.994019 
	C565.634949,741.089722 565.634949,732.573669 565.634949,723.702271 
	C539.888733,723.702271 514.505859,723.702271 488.740112,723.702271 
	C488.740112,714.936829 488.740112,706.532410 488.740112,698.068848 
	C479.875671,698.068848 471.399963,698.068848 462.993591,697.125183 
	C462.993591,688.859070 462.993591,680.592957 462.993591,671.949341 
	C471.848877,671.949341 480.251129,671.949341 489.026428,671.949341 
	C489.026428,663.505371 489.026428,655.435608 489.026428,647.193604 
	C497.807465,647.193604 506.202209,647.193604 515.159424,647.193604 
	C515.159424,655.566589 515.159424,663.761292 515.159424,672.312256 
	C523.789368,672.312256 531.858459,672.312256 540.292419,672.312256 
	C540.292419,681.097961 540.292419,689.499634 540.292419,698.086487 
	C557.804932,698.086487 574.932251,698.086487 591.991089,698.013306 
	C591.991089,698.013306 591.918030,697.944824 591.995239,698.886230 
	C591.995239,707.156006 591.995239,715.425781 591.995239,723.769897 
	C609.544067,723.769897 626.604309,723.769897 644.047485,723.769897 
	C644.047485,706.481506 644.047485,689.417908 644.047485,671.966675 
	C652.494812,671.966675 660.568298,671.966675 669.015137,671.966675 
	C669.015137,654.847961 669.015137,638.116882 669.015137,621.195435 
	C677.799255,621.195435 686.198853,621.195435 695.159668,621.195435 
	C695.159668,638.234375 695.159668,655.087585 695.159668,671.659302 
	C721.110840,671.659302 746.500366,671.659302 771.670776,671.659302 
	C771.670776,654.589478 771.670776,637.860474 771.670776,620.754089 
	C754.613708,620.754089 737.882690,620.754089 721.086487,620.754089 
	C721.086487,611.893433 721.086487,603.416992 721.013306,595.008911 
	C721.013306,595.008911 720.944824,595.081970 721.886230,595.004761 
	C730.135803,595.004761 738.385437,595.004761 746.924316,595.004761 
	C746.924316,577.362671 746.924316,560.146973 747.869690,542.994019 
	C755.788025,542.994019 763.706360,542.994019 771.649292,542.994019 
	C771.649292,534.416565 771.649292,526.251709 771.649292,518.068726 
	C763.174622,518.068726 755.049438,518.068726 746.993530,517.125061 
	C746.993530,508.857086 746.993530,500.589111 746.993530,491.940491 
	C755.523438,491.940491 763.593506,491.940491 771.783081,491.940491 
	C771.783081,483.154327 771.783081,474.758057 771.783081,466.196411 
	C754.846069,466.196411 738.125061,466.196411 720.839417,466.196411 
	C720.839417,474.904663 720.839417,483.433777 720.839417,491.647217 
	C711.871094,491.647217 703.469299,491.647217 694.696533,491.647217 
	C694.696533,482.891785 694.696533,474.487915 694.696533,466.325867 
	C677.584106,466.325867 660.861145,466.325867 644.068848,466.325867 
	C644.068848,475.125427 644.068848,483.600586 643.125183,492.006409 
	C634.727173,492.029541 626.329163,492.052673 617.994019,491.130432 
	C617.994019,474.218658 617.994019,457.306885 617.994019,439.865021 
	C635.218811,439.865021 652.052429,439.865021 668.931152,439.865021 
	C668.931152,431.196289 668.931152,423.060272 669.874878,414.993591 
	C686.816833,414.993591 703.758728,414.993591 721.097351,414.993591 
	C721.097351,423.558441 721.097351,431.637451 721.097351,439.744934 
	C738.238342,439.744934 754.976807,439.744934 771.739746,439.744934 
	C771.739746,422.751160 771.739746,406.012665 771.739746,388.875244 
	C763.409912,388.875244 755.332092,388.875244 746.864136,388.875244 
	C746.864136,380.068634 746.864136,371.658234 746.864136,363.274353 
	C738.054321,363.274353 729.648254,363.274353 720.846985,363.274353 
	C720.846985,371.953339 720.846985,380.365936 720.846985,388.719788 
	C712.036011,388.719788 703.629456,388.719788 694.828674,388.719788 
	C694.828674,380.032166 694.828674,371.619476 694.828674,362.821960 
	C686.020813,362.821960 677.608521,362.821960 669.292725,362.821960 
	C669.292725,354.010681 669.292725,345.603790 669.292725,336.803619 
	C677.993652,336.803619 686.405884,336.803619 695.203064,336.803619 
	C695.203064,328.328186 695.203064,320.249176 695.203064,311.785858 
	C704.011963,311.785858 712.424805,311.785858 720.926453,311.785858 
	C720.926453,302.902710 720.926453,294.420105 721.871521,285.994446 
	C730.135193,285.994446 738.398926,285.994446 746.631592,285.994446 
	C746.631592,268.383606 746.631592,251.220352 746.631592,234.353699 
	C737.865845,234.353699 729.469055,234.353699 721.068176,234.353699 
	C721.068176,251.830658 721.068176,268.955078 720.124817,286.006683 
	C711.848511,286.006683 703.572205,286.006683 694.902832,286.006683 
	C694.902832,268.441376 694.902832,251.365646 694.902832,234.254852 
	C686.094177,234.254852 677.689331,234.254852 668.886108,234.254852 
	C668.886108,242.913101 668.886108,251.324585 668.886108,259.739441 
	C660.409729,259.739441 652.336914,259.739441 643.868042,259.739441 
	C643.868042,251.072632 643.868042,242.662384 643.868042,234.272308 
	C635.058105,234.272308 626.652344,234.272308 617.851196,234.272308 
	C617.851196,242.949036 617.851196,251.361298 617.851196,259.721985 
	C609.040771,259.721985 600.634216,259.721985 591.833130,259.721985 
	C591.833130,251.036789 591.833130,242.624054 591.833130,233.826630 
	C583.025635,233.826630 574.613098,233.826630 565.815857,233.826630 
	C565.815857,216.686371 565.815857,199.944000 565.815857,183.298340 
	C557.005066,183.298340 548.598450,183.298340 539.799133,183.298340 
	C539.799133,192.002747 539.799133,200.415222 539.799133,208.695953 
	C531.320740,208.695953 523.246704,208.695953 514.781128,208.695953 
	C514.781128,199.983078 514.781128,191.570251 514.781128,183.075790 
	C505.897491,183.075790 497.414368,183.075790 488.994049,182.130432 
	C488.973175,173.727020 488.952332,165.323624 489.874878,156.993271 
	C515.119385,156.993271 540.363892,156.993271 565.676880,156.993271 
	C565.676880,122.447655 565.676880,88.298424 565.676880,54.073421 
	C556.882751,54.073421 548.410217,54.073421 539.994507,53.128456 
	C539.994507,44.871815 539.994507,36.615173 539.994507,28.368509 
	C531.394104,28.368509 523.222839,28.368509 515.343201,28.368509 
	C515.343201,37.126904 515.343201,45.516335 515.343201,53.931686 
	C523.816650,53.931686 531.948242,53.931686 540.006714,54.875069 
	C540.006714,63.124424 540.006714,71.373779 540.006714,80.154648 
	C531.430237,80.154648 523.252197,80.154648 514.912598,80.154648 
	C514.912598,88.815025 514.912598,96.937599 514.985840,104.991814 
	C514.985840,104.991814 515.054321,104.918732 514.112915,104.995316 
	C505.863983,104.995316 497.615082,104.995316 489.073212,104.995316 
	C489.073212,122.634399 489.073212,139.848312 488.128296,157.005569 
	C479.726959,157.026642 471.325592,157.047714 462.993591,156.125107 
	C462.993591,139.215881 462.993591,122.306648 462.993591,104.869720 
	C445.780670,104.869720 428.948883,104.869720 411.926605,104.869720 
	C411.926605,96.205902 411.926605,88.071777 412.871582,79.994438 
	C438.120941,79.994438 463.370270,79.994438 488.800232,79.994438 
	C488.800232,71.190056 488.800232,62.793655 488.800232,53.845333 
	C471.429871,53.845333 454.249725,53.845333 436.696075,53.845333 
	C436.696075,44.891212 436.696075,36.489136 436.696075,28.339918 
	C428.237213,28.339918 420.169586,28.339918 412.068359,28.339918 
	C412.068359,45.812260 412.068359,62.945965 411.124939,80.006721 
	C402.727051,80.029739 394.329132,80.052765 385.994049,79.130432 
	C385.994049,70.864212 385.994049,62.597996 385.994049,53.809059 
	C360.052124,53.809059 334.556366,53.809059 308.684906,53.809059 
	C308.684906,44.878838 308.684906,36.477497 308.684906,28.324104 
	C291.246246,28.324104 274.194092,28.324104 257.073456,28.324104 
	C257.073456,37.118542 257.073456,45.590485 256.128479,54.005569 
	C247.871445,54.005569 239.614410,54.005569 231.368439,54.005569 
	C231.368439,62.939701 231.368439,71.443848 231.368439,79.656250 
	C240.127090,79.656250 248.516846,79.656250 256.931702,79.656250 
	C256.931702,70.849365 256.931702,62.384892 257.875092,53.993282 
	C266.131866,53.993282 274.388611,53.993282 283.186035,53.993282 
	C283.186035,62.932354 283.186035,71.449196 283.186035,80.309113 
	C292.124603,80.309113 300.516632,80.309113 309.068756,80.309113 
	C309.068756,88.812363 309.068756,96.944092 308.125061,105.006447 
	C282.544617,105.006447 256.964203,105.006447 231.197357,105.006447 
	C231.197357,113.806015 231.197357,122.201881 231.197357,131.161987 
	C239.906326,131.161987 248.435135,131.161987 256.647186,131.161987 
	C256.647186,140.129547 256.647186,148.531021 256.647186,157.303040 
	C247.891861,157.303040 239.490295,157.303040 231.324036,157.303040 
	C231.324036,174.747269 231.324036,191.802536 231.324036,208.924210 
	C240.120636,208.924210 248.594696,208.924210 257.005951,209.869568 
	C257.005951,217.802322 257.005951,225.735062 257.005951,234.185333 
	C231.060684,234.185333 205.568054,234.185333 180.343933,234.185333 
	C180.343933,243.110748 180.343933,251.508545 180.343933,260.274719 
	C189.084763,260.274719 197.484802,260.274719 206.068771,260.274719 
	C206.068771,269.130646 206.068771,277.603210 205.125076,286.006409 
	C188.184036,286.006409 171.242996,286.006409 153.906082,286.006409 
	C153.906082,303.226593 153.906082,319.968658 153.906082,337.103821 
	C145.101578,337.103821 136.689087,337.103821 127.890228,337.103821 
	C127.890228,345.908325 127.890228,354.319092 127.890228,362.741943 
	C119.081238,362.741943 110.675323,362.741943 101.873352,362.741943 
	C101.873352,354.078033 101.873352,345.667877 101.873352,337.269226 
	C93.397568,337.269226 85.325081,337.269226 76.857666,337.269226 
	C76.857666,345.942200 76.857666,354.353912 76.857666,363.152222 
	C59.385269,363.152222 42.309978,363.152222 25.281380,363.152222 
	C25.281380,380.625885 25.281380,397.697510 25.281380,415.166595 
	C33.967525,415.166595 42.380028,415.166595 50.713516,415.166595 
	C50.713516,423.643860 50.713516,431.717133 50.713516,440.183533 
	C42.019585,440.183533 33.606747,440.183533 25.295948,440.183533 
	C25.295948,483.322235 25.295948,526.059387 25.295948,568.699219 
	C34.000328,568.699219 42.406879,568.699219 51.204178,568.699219 
	C51.204178,534.328369 51.204178,500.255676 51.204178,465.786804 
	C60.011143,465.786804 68.423653,465.786804 77.219154,465.786804 
	C77.219154,456.978394 77.219154,448.565521 77.219154,439.924164 
	C85.768944,439.924164 93.918839,439.924164 102.005966,440.869568 
	C102.029236,457.935974 102.052513,475.002350 101.130432,492.005951 
	C93.205757,492.005951 85.281082,492.005951 77.339050,492.005951 
	C77.339050,509.251129 77.339050,526.068176 77.339050,542.924316 
	C85.807388,542.924316 93.938034,542.924316 102.005959,543.869690 
M747.005493,724.871704 
	C747.005493,733.128357 747.005493,741.384949 747.005493,749.631470 
	C755.605957,749.631470 763.777161,749.631470 771.656738,749.631470 
	C771.656738,740.873047 771.656738,732.483765 771.656738,724.068420 
	C763.183228,724.068420 755.051697,724.068420 746.993225,723.125061 
	C746.993225,714.855774 746.993225,706.586487 746.993225,698.218750 
	C729.472290,698.218750 712.415405,698.218750 694.969116,698.218750 
	C694.969116,706.831177 694.969116,715.236938 694.969116,724.020142 
	C686.184265,724.020142 677.778503,724.020142 668.994873,724.020142 
	C668.994873,732.804565 668.994873,741.210327 668.994873,749.994751 
	C660.544128,749.994751 652.471130,749.994751 644.364624,749.994751 
	C644.364624,758.574341 644.364624,766.757812 644.364624,774.662964 
	C670.113342,774.662964 695.497864,774.662964 721.256836,774.662964 
	C721.256836,757.601013 721.256836,740.873352 721.256836,723.926697 
	C730.111145,723.926697 738.586670,723.926697 747.005493,724.871704 
M592.167542,83.499939 
	C592.167542,124.923759 592.167542,166.347580 592.167542,207.952560 
	C652.367554,207.952560 712.067505,207.952560 771.828308,207.952560 
	C771.828308,148.035416 771.828308,88.355125 771.828308,28.700691 
	C711.819153,28.700691 652.126343,28.700691 592.167542,28.700691 
	C592.167542,46.884571 592.167542,64.692245 592.167542,83.499939 
M160.500183,28.325575 
	C115.710815,28.325575 70.921448,28.325575 25.997021,28.325575 
	C25.997021,88.533775 25.997021,148.238922 25.997021,207.901245 
	C85.910866,207.901245 145.492615,207.901245 205.111099,207.901245 
	C205.111099,148.016373 205.111099,88.417496 205.111099,28.325583 
	C190.421509,28.325583 175.960861,28.325583 160.500183,28.325575 
M25.667377,696.499817 
	C25.667377,722.586487 25.667377,748.673157 25.667377,774.858398 
	C85.794785,774.858398 145.374969,774.858398 205.149231,774.858398 
	C205.149231,714.909302 205.149231,655.178467 205.149231,595.278687 
	C145.286285,595.278687 85.560631,595.278687 25.667368,595.278687 
	C25.667368,628.870911 25.667368,662.185303 25.667377,696.499817 
M153.998856,245.512466 
	C153.998856,241.742126 153.998856,237.971802 153.998856,234.280960 
	C110.697884,234.280960 67.965797,234.280960 25.282398,234.280960 
	C25.282398,251.631897 25.282398,268.701599 25.282398,285.716187 
	C42.634796,285.716187 59.704544,285.716187 77.170021,285.716187 
	C77.170021,277.028473 77.170021,268.617096 77.170021,259.826447 
	C102.971161,259.826447 128.375153,259.826447 153.998856,259.826447 
	C153.998856,255.122849 153.998856,250.812973 153.998856,245.512466 
M609.459351,774.998901 
	C612.231262,774.998901 615.003174,774.998901 617.724548,774.998901 
	C617.724548,766.379272 617.724548,758.309265 617.724548,750.276123 
	C609.044556,750.276123 600.641418,750.276123 592.276917,750.276123 
	C592.276917,758.624023 592.276917,766.693848 592.276917,774.998901 
	C597.856445,774.998901 603.162292,774.998901 609.459351,774.998901 
M37.502216,312.001129 
	C33.401253,312.001129 29.300287,312.001129 25.287897,312.001129 
	C25.287897,320.646637 25.287897,328.716644 25.287897,336.711792 
	C33.980679,336.711792 42.383686,336.711792 50.711266,336.711792 
	C50.711266,328.351654 50.711266,320.281616 50.711266,312.001129 
	C46.449322,312.001129 42.473114,312.001129 37.502216,312.001129 
M747.001099,333.347656 
	C747.185974,334.953156 746.129211,337.114075 749.361633,337.046661 
	C756.801636,336.891388 764.247131,336.997406 771.758606,336.997406 
	C771.758606,328.451630 771.758606,320.381805 771.758606,312.243988 
	C763.445984,312.243988 755.375916,312.243988 747.001099,312.243988 
	C747.001099,319.113831 747.001099,325.745392 747.001099,333.347656 
z"/>
<path fill="#000000" opacity="1.000000" stroke="none" 
	d="
M617.931152,492.075806 
	C626.329163,492.052673 634.727173,492.029541 643.562622,492.004395 
	C644.000061,492.002350 643.930054,491.930054 643.962524,492.402130 
	C643.995056,501.234772 643.995056,509.595337 643.995056,518.069946 
	C652.842651,518.069946 660.956299,518.069946 669.034973,518.034973 
	C669.000000,518.000000 668.930054,517.930054 668.962524,518.402161 
	C668.995056,526.799866 668.995056,534.725464 668.995056,543.069946 
	C695.313293,543.069946 721.191589,543.069946 747.033813,543.035034 
	C746.997620,543.000061 746.924316,542.931274 746.924316,542.931274 
	C746.924316,560.146973 746.924316,577.362671 746.924316,595.004761 
	C738.385437,595.004761 730.135803,595.004761 721.441162,594.569641 
	C720.996033,585.869324 720.996033,577.604187 720.996033,569.367310 
	C703.385803,569.367310 686.220825,569.367310 669.352905,569.367310 
	C669.352905,578.134094 669.352905,586.531860 669.352905,594.940491 
	C686.832703,594.940491 703.959595,594.940491 721.086487,594.940491 
	C721.086487,603.416992 721.086487,611.893433 721.086487,620.754089 
	C737.882690,620.754089 754.613708,620.754089 771.670776,620.754089 
	C771.670776,637.860474 771.670776,654.589478 771.670776,671.659302 
	C746.500366,671.659302 721.110840,671.659302 695.159668,671.659302 
	C695.159668,655.087585 695.159668,638.234375 695.159668,621.195435 
	C686.198853,621.195435 677.799255,621.195435 669.015137,621.195435 
	C669.015137,638.116882 669.015137,654.847961 669.015137,671.966675 
	C660.568298,671.966675 652.494812,671.966675 644.047485,671.966675 
	C644.047485,689.417908 644.047485,706.481506 644.047485,723.769897 
	C626.604309,723.769897 609.544067,723.769897 591.995239,723.769897 
	C591.995239,715.425781 591.995239,707.156006 592.430359,698.441162 
	C601.124329,697.996033 609.383240,697.996033 617.632690,697.996033 
	C617.632690,689.061340 617.632690,680.556152 617.632690,672.343506 
	C608.872437,672.343506 600.481140,672.343506 592.059509,672.343506 
	C592.059509,681.153381 592.059509,689.619934 592.059509,698.086487 
	C574.932251,698.086487 557.804932,698.086487 540.292419,698.086487 
	C540.292419,689.499634 540.292419,681.097961 540.292419,672.312256 
	C531.858459,672.312256 523.789368,672.312256 515.159424,672.312256 
	C515.159424,663.761292 515.159424,655.566589 515.159424,647.193604 
	C506.202209,647.193604 497.807465,647.193604 489.026428,647.193604 
	C489.026428,655.435608 489.026428,663.505371 489.026428,671.949341 
	C480.251129,671.949341 471.848877,671.949341 462.993591,671.949341 
	C462.993591,680.592957 462.993591,688.859070 462.995605,697.562622 
	C462.997650,698.000061 463.069946,697.930054 462.597870,697.962524 
	C453.859589,697.995056 445.593384,697.995056 436.949493,697.995056 
	C436.949493,689.149170 436.949493,680.746765 436.949493,672.207458 
	C428.501312,672.207458 420.439453,672.207458 412.340942,672.207458 
	C412.340942,698.241272 412.340942,724.066223 412.340942,750.069946 
	C429.477753,750.069946 446.273834,750.069946 463.033783,750.034973 
	C462.997620,750.000000 462.924194,749.931152 462.924194,749.931152 
	C462.924194,758.072510 462.924194,766.213867 462.924194,774.676880 
	C428.696381,774.676880 394.542114,774.676880 360.197754,774.676880 
	C360.197754,766.527710 360.197754,758.464539 360.197754,750.013245 
	C368.786438,750.013245 377.190674,750.013245 385.792297,750.013245 
	C385.792297,741.229370 385.792297,732.832764 385.792297,723.993530 
	C368.723236,723.993530 351.799072,723.993530 334.437439,723.995605 
	C334.000000,723.997742 334.069946,724.069946 334.037415,723.597900 
	C334.004913,714.854797 334.004913,706.583740 334.004913,697.937561 
	C351.531372,697.937561 368.595245,697.937561 386.036865,697.937561 
	C386.036865,680.828064 386.036865,664.097168 386.036865,646.820557 
	C411.926575,646.820557 437.437286,646.820557 462.638489,646.820557 
	C462.638489,637.862061 462.638489,629.457275 462.638489,621.322510 
	C419.566284,621.322510 376.855896,621.322510 333.755859,621.322510 
	C333.755859,630.047852 333.755859,638.454773 333.755859,646.930054 
	C325.219177,646.930054 317.074615,646.930054 308.965027,646.965027 
	C309.000000,647.000000 309.069946,647.069946 309.037445,646.597839 
	C309.029877,629.060974 309.054810,611.996155 309.043030,594.965698 
	C309.006348,595.000061 308.937531,595.073242 309.409058,595.039185 
	C369.567596,595.005188 429.254669,595.005188 489.333801,595.005188 
	C489.333801,604.142944 489.333801,612.549988 489.333801,620.639038 
	C498.135925,620.639038 506.541290,620.639038 515.321655,620.639038 
	C515.321655,611.872498 515.321655,603.465759 515.321655,594.685059 
	C523.787476,594.685059 531.861694,594.685059 539.657288,594.685059 
	C539.657288,577.226990 539.657288,560.163513 539.657288,543.339478 
	C531.241089,543.339478 523.169983,543.339478 514.721191,543.339478 
	C514.721191,552.083252 514.721191,560.490479 514.721191,568.675537 
	C497.263763,568.675537 480.200806,568.675537 463.320984,568.675537 
	C463.320984,559.945251 463.320984,551.542236 463.320984,542.758301 
	C472.045258,542.758301 480.452759,542.758301 488.924164,542.758301 
	C488.924164,534.220581 488.924164,526.075806 489.396790,517.963013 
	C532.535034,517.995117 575.200623,517.995117 618.069946,517.995117 
	C618.069946,508.872803 618.069946,500.401428 618.034973,491.966217 
	C618.000000,492.002380 617.931152,492.075806 617.931152,492.075806 
M638.400269,569.000000 
	C614.314758,569.000000 590.229187,569.000000 566.324097,569.000000 
	C566.324097,595.382996 566.324097,621.120911 566.324097,646.673828 
	C592.387085,646.673828 618.125061,646.673828 643.848694,646.673828 
	C643.848694,620.728699 643.848694,595.109985 643.848694,569.000000 
	C642.278381,569.000000 640.827881,569.000000 638.400269,569.000000 
z"/>
<path fill="#000000" opacity="1.000000" stroke="none" 
	d="
M488.931244,183.075790 
	C497.414368,183.075790 505.897491,183.075790 514.781128,183.075790 
	C514.781128,191.570251 514.781128,199.983078 514.781128,208.695953 
	C523.246704,208.695953 531.320740,208.695953 539.799133,208.695953 
	C539.799133,200.415222 539.799133,192.002747 539.799133,183.298340 
	C548.598450,183.298340 557.005066,183.298340 565.815857,183.298340 
	C565.815857,199.944000 565.815857,216.686371 565.815857,233.826630 
	C574.613098,233.826630 583.025635,233.826630 591.833130,233.826630 
	C591.833130,242.624054 591.833130,251.036789 591.833130,259.721985 
	C600.634216,259.721985 609.040771,259.721985 617.851196,259.721985 
	C617.851196,251.361298 617.851196,242.949036 617.851196,234.272308 
	C626.652344,234.272308 635.058105,234.272308 643.868042,234.272308 
	C643.868042,242.662384 643.868042,251.072632 643.868042,259.739441 
	C652.336914,259.739441 660.409729,259.739441 668.886108,259.739441 
	C668.886108,251.324585 668.886108,242.913101 668.886108,234.254852 
	C677.689331,234.254852 686.094177,234.254852 694.902832,234.254852 
	C694.902832,251.365646 694.902832,268.441376 694.902832,286.006683 
	C703.572205,286.006683 711.848511,286.006683 720.562256,286.006439 
	C720.999634,286.006195 720.926453,285.937500 720.926453,285.937500 
	C720.926453,294.420105 720.926453,302.902710 720.926453,311.785858 
	C712.424805,311.785858 704.011963,311.785858 695.203064,311.785858 
	C695.203064,320.249176 695.203064,328.328186 695.203064,336.803619 
	C686.405884,336.803619 677.993652,336.803619 669.292725,336.803619 
	C669.292725,345.603790 669.292725,354.010681 669.292725,362.821960 
	C677.608521,362.821960 686.020813,362.821960 694.828674,362.821960 
	C694.828674,371.619476 694.828674,380.032166 694.828674,388.719788 
	C703.629456,388.719788 712.036011,388.719788 720.846985,388.719788 
	C720.846985,380.365936 720.846985,371.953339 720.846985,363.274353 
	C729.648254,363.274353 738.054321,363.274353 746.864136,363.274353 
	C746.864136,371.658234 746.864136,380.068634 746.864136,388.875244 
	C755.332092,388.875244 763.409912,388.875244 771.739746,388.875244 
	C771.739746,406.012665 771.739746,422.751160 771.739746,439.744934 
	C754.976807,439.744934 738.238342,439.744934 721.097351,439.744934 
	C721.097351,431.637451 721.097351,423.558441 721.097351,414.993591 
	C703.758728,414.993591 686.816833,414.993591 669.437378,414.995605 
	C668.999939,414.997650 669.069946,415.069946 669.037476,414.597839 
	C669.004944,405.853027 669.004944,397.580353 669.004944,388.927124 
	C651.793152,388.927124 635.058899,388.927124 617.942444,388.927124 
	C617.942444,371.475311 617.942444,354.407867 617.942444,336.970032 
	C583.498535,336.970032 549.441101,336.970032 515.366638,336.970032 
	C515.366638,311.080322 515.366638,285.569244 515.366638,259.665710 
	C523.807495,259.665710 531.883362,259.665710 539.636597,259.665710 
	C539.636597,250.861511 539.636597,242.454788 539.636597,234.355896 
	C522.539062,234.355896 505.805817,234.355896 488.686584,234.355896 
	C488.686584,243.118454 488.686584,251.525635 488.686584,260.310150 
	C479.884827,260.310150 471.478119,260.310150 463.351044,260.310150 
	C463.351044,269.113312 463.351044,277.519226 463.351044,286.303711 
	C472.108429,286.303711 480.517334,286.303711 488.652161,286.303711 
	C488.652161,295.106873 488.652161,303.512512 488.652161,312.266754 
	C436.922943,312.266754 385.541046,312.266754 334.075867,312.266754 
	C334.075867,320.776855 334.075867,328.922943 333.603210,337.036957 
	C325.063751,336.979950 316.996887,336.954987 308.965027,336.965027 
	C309.000000,337.000000 309.069946,337.069946 309.037445,336.597839 
	C309.004944,328.193878 309.004944,320.262024 309.004944,311.954895 
	C300.153931,311.954895 291.753113,311.954895 283.200684,311.954895 
	C283.200684,303.177917 283.200684,294.784729 283.200684,285.850006 
	C300.233124,285.850006 317.073273,285.850006 333.924133,285.850006 
	C333.924133,268.182312 333.924133,251.056656 334.396790,233.963058 
	C343.231903,233.995102 351.594421,233.995102 359.930969,233.995102 
	C359.930969,225.154984 359.930969,217.039551 360.402802,208.959381 
	C369.275024,208.973419 377.675446,208.952179 386.040588,209.402771 
	C386.005341,217.802917 386.005341,225.731247 386.005341,233.667480 
	C411.922333,233.667480 437.398315,233.667480 462.924133,233.667480 
	C462.924133,225.200470 462.924133,217.065735 463.396790,208.963058 
	C472.231934,208.995102 480.594482,208.995102 489.069946,208.995102 
	C489.069946,199.823669 489.069946,191.376862 489.035004,182.966217 
	C489.000061,183.002396 488.931244,183.075790 488.931244,183.075790 
M594.500000,312.000000 
	C602.264709,312.000000 610.029480,312.000000 617.710815,312.000000 
	C617.710815,303.017670 617.710815,294.612396 617.710815,286.286896 
	C591.686157,286.286896 565.951538,286.286896 540.289124,286.286896 
	C540.289124,294.981995 540.289124,303.387085 540.289124,312.000000 
	C558.218262,312.000000 575.859131,312.000000 594.500000,312.000000 
M365.599609,286.000000 
	C372.356750,286.000000 379.113892,286.000000 385.675659,286.000000 
	C385.675659,276.945892 385.675659,268.539124 385.675659,260.326355 
	C376.941742,260.326355 368.534882,260.326355 360.151550,260.326355 
	C360.151550,268.939178 360.151550,277.224884 360.151550,286.000000 
	C361.722290,286.000000 363.172424,286.000000 365.599609,286.000000 
M669.000000,290.619202 
	C669.000000,289.177277 669.000000,287.735352 669.000000,286.248047 
	C660.434631,286.248047 652.364624,286.248047 644.249756,286.248047 
	C644.249756,294.902039 644.249756,303.305359 644.249756,311.748474 
	C652.572144,311.748474 660.642456,311.748474 669.000000,311.748474 
	C669.000000,304.867188 669.000000,298.233368 669.000000,290.619202 
z"/>
<path fill="#000000" opacity="1.000000" stroke="none" 
	d="
M102.068733,439.924164 
	C93.918839,439.924164 85.768944,439.924164 77.219154,439.924164 
	C77.219154,448.565521 77.219154,456.978394 77.219154,465.786804 
	C68.423653,465.786804 60.011143,465.786804 51.204178,465.786804 
	C51.204178,500.255676 51.204178,534.328369 51.204178,568.699219 
	C42.406879,568.699219 34.000328,568.699219 25.295948,568.699219 
	C25.295948,526.059387 25.295948,483.322235 25.295948,440.183533 
	C33.606747,440.183533 42.019585,440.183533 50.713516,440.183533 
	C50.713516,431.717133 50.713516,423.643860 50.713516,415.166595 
	C42.380028,415.166595 33.967525,415.166595 25.281380,415.166595 
	C25.281380,397.697510 25.281380,380.625885 25.281380,363.152222 
	C42.309978,363.152222 59.385269,363.152222 76.857666,363.152222 
	C76.857666,354.353912 76.857666,345.942200 76.857666,337.269226 
	C85.325081,337.269226 93.397568,337.269226 101.873352,337.269226 
	C101.873352,345.667877 101.873352,354.078033 101.873352,362.741943 
	C110.675323,362.741943 119.081238,362.741943 127.890228,362.741943 
	C127.890228,354.319092 127.890228,345.908325 127.890228,337.103821 
	C136.689087,337.103821 145.101578,337.103821 153.906082,337.103821 
	C153.906082,319.968658 153.906082,303.226593 153.906082,286.006409 
	C171.242996,286.006409 188.184036,286.006409 205.562531,286.004395 
	C205.999985,286.002380 205.930054,285.930054 205.962555,286.402161 
	C205.995056,295.141693 205.995056,303.409149 205.995056,312.055786 
	C197.144394,312.055786 188.741989,312.055786 180.212692,312.055786 
	C180.212692,320.507202 180.212692,328.570190 180.212692,337.182281 
	C197.263046,337.182281 214.108688,337.182281 231.326019,337.182281 
	C231.326019,346.134460 231.326019,354.537720 231.326019,362.652588 
	C240.116257,362.652588 248.516922,362.652588 257.288666,362.652588 
	C257.288666,353.904388 257.288666,345.501190 257.288666,337.069946 
	C274.807251,337.069946 291.938599,337.069946 309.069946,337.069946 
	C309.069946,337.069946 309.000000,337.000000 308.997528,337.437134 
	C308.973389,346.272858 308.951721,354.671387 308.965027,363.034973 
	C309.000000,363.000000 309.069946,362.930054 308.597870,362.962585 
	C299.864929,362.995087 291.604065,362.995087 282.973267,362.995087 
	C282.973267,371.828979 282.973267,380.224060 282.973267,389.073486 
	C257.044281,389.073486 231.490784,389.073486 205.966400,388.601013 
	C205.995499,379.864471 205.995499,371.600372 205.995499,363.367218 
	C188.384048,363.367218 171.219940,363.367218 154.352097,363.367218 
	C154.352097,372.133301 154.352097,380.530579 154.352097,388.931610 
	C171.829254,388.931610 188.954361,388.931610 206.042542,389.403290 
	C206.005615,398.125793 206.005615,406.376648 206.005615,415.159393 
	C197.089676,415.159393 188.579193,415.159393 180.069016,415.159393 
	C180.069016,423.824005 180.069016,431.949921 179.597198,440.040588 
	C170.859131,440.005341 162.592896,440.005341 153.948456,440.005341 
	C153.948456,431.481750 153.948456,423.413177 153.948456,414.970123 
	C145.170502,414.970123 136.767975,414.970123 127.992416,414.970123 
	C127.992416,406.193420 127.992416,397.790924 127.992416,389.346680 
	C110.768410,389.346680 93.932251,389.346680 77.335556,389.346680 
	C77.335556,398.094391 77.335556,406.493225 77.335556,415.263794 
	C85.737122,415.263794 93.806656,415.263794 101.930061,415.263794 
	C101.930061,423.789764 101.930061,431.929871 101.964996,440.033752 
	C101.999931,439.997589 102.068733,439.924164 102.068733,439.924164 
z"/>
<path fill="#000000" opacity="1.000000" stroke="none" 
	d="
M668.965576,414.960938 
	C668.931152,423.060272 668.931152,431.196289 668.931152,439.865021 
	C652.052429,439.865021 635.218811,439.865021 617.994019,439.865021 
	C617.994019,457.306885 617.994019,474.218658 617.962585,491.603119 
	C617.931152,492.075806 618.000000,492.002380 617.562866,491.998718 
	C608.859070,491.995056 600.592468,491.995056 591.962830,491.995056 
	C591.962830,474.489838 591.962830,457.434723 591.962830,440.324829 
	C557.441284,440.324829 523.291687,440.324829 489.075867,440.324829 
	C489.075867,449.122528 489.075867,457.595795 488.603210,466.036957 
	C479.859924,466.004883 471.589264,466.004883 462.945129,466.004883 
	C462.945129,448.808899 462.945129,432.080078 462.945129,415.360138 
	C428.398254,415.360138 394.234467,415.360138 359.691406,415.360138 
	C359.691406,432.448578 359.691406,449.177856 359.691406,465.660095 
	C350.904480,465.660095 342.501678,465.660095 333.722290,465.660095 
	C333.722290,456.916992 333.722290,448.511414 333.722290,440.319641 
	C316.602295,440.319641 299.874969,440.319641 283.075867,440.319641 
	C283.075867,449.115631 283.075867,457.592346 282.603210,466.036957 
	C273.728455,466.026276 265.326294,466.047668 256.959412,465.597229 
	C256.994659,456.763702 256.994659,448.402039 256.994659,440.069031 
	C247.818512,440.069031 239.371323,440.069031 230.959381,439.597198 
	C230.994644,431.194366 230.994644,423.263367 230.994644,414.821289 
	C257.270233,414.821289 283.091919,414.821289 309.069946,414.821289 
	C309.069946,397.178253 309.069946,380.054138 309.069946,362.930054 
	C309.069946,362.930054 309.000000,363.000000 309.437134,363.002472 
	C317.941467,362.980286 326.008667,362.955597 334.040588,363.402771 
	C334.005341,372.143494 334.005341,380.412354 334.005341,388.656952 
	C385.942780,388.656952 437.418488,388.656952 489.282074,388.656952 
	C489.282074,379.911865 489.282074,371.507568 489.282074,363.328430 
	C498.074921,363.328430 506.475861,363.328430 515.252808,363.328430 
	C515.252808,372.057922 515.252808,380.462738 515.252808,389.079712 
	C523.783813,389.079712 531.926208,389.079712 540.034302,389.043030 
	C539.999939,389.006348 539.926758,388.937531 539.960815,389.409058 
	C539.994812,398.144043 539.994812,406.407562 539.994812,415.069946 
	C583.327087,415.069946 626.198486,415.069946 669.069946,415.069946 
	C669.069946,415.069946 668.999939,414.997650 668.965576,414.960938 
z"/>
<path fill="#020202" opacity="1.000000" stroke="none" 
	d="
M592.167542,82.999931 
	C592.167542,64.692245 592.167542,46.884571 592.167542,28.700691 
	C652.126343,28.700691 711.819153,28.700691 771.828308,28.700691 
	C771.828308,88.355125 771.828308,148.035416 771.828308,207.952560 
	C712.067505,207.952560 652.367554,207.952560 592.167542,207.952560 
	C592.167542,166.347580 592.167542,124.923759 592.167542,82.999931 
M697.500000,53.998699 
	C671.082520,53.998699 644.665100,53.998699 618.350281,53.998699 
	C618.350281,97.237434 618.350281,139.932587 618.350281,182.598602 
	C661.277771,182.598602 703.853271,182.598602 746.657837,182.598602 
	C746.657837,139.673355 746.657837,96.983917 746.657837,53.998699 
	C730.425110,53.998699 714.462524,53.998699 697.500000,53.998699 
z"/>
<path fill="#010101" opacity="1.000000" stroke="none" 
	d="
M161.000183,28.325579 
	C175.960861,28.325583 190.421509,28.325583 205.111099,28.325583 
	C205.111099,88.417496 205.111099,148.016373 205.111099,207.901245 
	C145.492615,207.901245 85.910866,207.901245 25.997021,207.901245 
	C25.997021,148.238922 25.997021,88.533775 25.997021,28.325575 
	C70.921448,28.325575 115.710815,28.325575 161.000183,28.325579 
M101.500000,53.997169 
	C84.760468,53.997169 68.020927,53.997169 51.484100,53.997169 
	C51.484100,97.374924 51.484100,139.961349 51.484100,182.606049 
	C94.396812,182.606049 136.988739,182.606049 179.716553,182.606049 
	C179.716553,139.656631 179.716553,96.937943 179.716553,53.997169 
	C153.787277,53.997169 128.143631,53.997169 101.500000,53.997169 
z"/>
<path fill="#010101" opacity="1.000000" stroke="none" 
	d="
M25.667374,695.999756 
	C25.667368,662.185303 25.667368,628.870911 25.667368,595.278687 
	C85.560631,595.278687 145.286285,595.278687 205.149231,595.278687 
	C205.149231,655.178467 205.149231,714.909302 205.149231,774.858398 
	C145.374969,774.858398 85.794785,774.858398 25.667377,774.858398 
	C25.667377,748.673157 25.667377,722.586487 25.667374,695.999756 
M105.499870,749.707275 
	C130.266251,749.707275 155.032639,749.707275 179.630981,749.707275 
	C179.630981,706.348450 179.630981,663.627319 179.630981,621.150391 
	C136.668381,621.150391 94.080643,621.150391 51.403206,621.150391 
	C51.403206,664.054382 51.403206,706.632996 51.403206,749.707275 
	C69.261223,749.707275 86.880547,749.707275 105.499870,749.707275 
z"/>
<path fill="#000000" opacity="1.000000" stroke="none" 
	d="
M282.924194,749.931152 
	C282.924194,758.072754 282.924194,766.214417 282.924194,774.677246 
	C265.798828,774.677246 248.742554,774.677246 231.343140,774.677246 
	C231.343140,732.410522 231.343140,689.930054 231.343140,647.059937 
	C239.738312,647.059937 248.142654,647.059937 257.006409,647.059937 
	C257.006409,638.411255 257.006409,630.143005 257.004395,621.437378 
	C257.002350,620.999939 256.930054,621.069946 257.402161,621.037476 
	C266.125122,621.004944 274.375977,621.004944 283.158630,621.004944 
	C283.158630,629.909546 283.158630,638.419922 283.158630,647.069946 
	C292.154602,647.069946 300.612274,647.069946 309.069946,647.069946 
	C309.069946,647.069946 309.000000,647.000000 308.997559,647.437134 
	C308.995087,655.806580 308.995087,663.738892 308.995087,672.029968 
	C291.495697,672.029968 274.443512,672.029968 257.327179,672.029968 
	C257.327179,698.219666 257.327179,724.041382 257.327179,750.069946 
	C266.125793,750.069946 274.597870,750.069946 283.033783,750.034973 
	C282.997620,750.000000 282.924194,749.931152 282.924194,749.931152 
z"/>
<path fill="#000000" opacity="1.000000" stroke="none" 
	d="
M489.073212,157.062225 
	C489.073212,139.848312 489.073212,122.634399 489.073212,104.995316 
	C497.615082,104.995316 505.863983,104.995316 514.558472,105.430618 
	C515.003967,114.124405 515.003967,122.382889 515.003967,130.632294 
	C523.604675,130.632294 531.777222,130.632294 539.656738,130.632294 
	C539.656738,121.872253 539.656738,113.481491 539.656738,105.060173 
	C531.179932,105.060173 523.046265,105.060173 514.912598,105.060173 
	C514.912598,96.937599 514.912598,88.815025 514.912598,80.154648 
	C523.252197,80.154648 531.430237,80.154648 540.006714,80.154648 
	C540.006714,71.373779 540.006714,63.124424 540.006592,54.437653 
	C540.006470,54.000240 539.937744,54.073421 539.937744,54.073421 
	C548.410217,54.073421 556.882751,54.073421 565.676880,54.073421 
	C565.676880,88.298424 565.676880,122.447655 565.676880,156.993271 
	C540.363892,156.993271 515.119385,156.993271 489.437439,156.993408 
	C489.000000,156.993530 489.073212,157.062225 489.073212,157.062225 
z"/>
<path fill="#000000" opacity="1.000000" stroke="none" 
	d="
M257.068756,208.924210 
	C248.594696,208.924210 240.120636,208.924210 231.324036,208.924210 
	C231.324036,191.802536 231.324036,174.747269 231.324036,157.303040 
	C239.490295,157.303040 247.891861,157.303040 256.647186,157.303040 
	C256.647186,148.531021 256.647186,140.129547 256.647186,131.161987 
	C248.435135,131.161987 239.906326,131.161987 231.197357,131.161987 
	C231.197357,122.201881 231.197357,113.806015 231.197357,105.006447 
	C256.964203,105.006447 282.544617,105.006447 308.562500,105.004425 
	C308.999969,105.002403 308.930054,104.930061 308.962555,105.402176 
	C308.995056,114.131683 308.995056,122.389091 308.995056,131.011383 
	C300.184845,131.011383 291.791687,131.011383 283.075867,131.011383 
	C283.075867,148.610352 283.075867,165.839676 282.603210,183.036942 
	C273.768066,183.004898 265.405518,183.004898 256.930054,183.004898 
	C256.930054,192.176331 256.930054,200.623138 256.964996,209.033783 
	C256.999939,208.997604 257.068756,208.924210 257.068756,208.924210 
z"/>
<path fill="#000000" opacity="1.000000" stroke="none" 
	d="
M153.998856,246.007782 
	C153.998856,250.812973 153.998856,255.122849 153.998856,259.826447 
	C128.375153,259.826447 102.971161,259.826447 77.170021,259.826447 
	C77.170021,268.617096 77.170021,277.028473 77.170021,285.716187 
	C59.704544,285.716187 42.634796,285.716187 25.282398,285.716187 
	C25.282398,268.701599 25.282398,251.631897 25.282398,234.280960 
	C67.965797,234.280960 110.697884,234.280960 153.998856,234.280960 
	C153.998856,237.971802 153.998856,241.742126 153.998856,246.007782 
z"/>
<path fill="#000000" opacity="1.000000" stroke="none" 
	d="
M385.931244,80.075783 
	C394.329132,80.052765 402.727051,80.029739 411.562378,80.006531 
	C411.999817,80.006348 411.926605,79.937653 411.926605,79.937653 
	C411.926605,88.071777 411.926605,96.205902 411.926605,104.869720 
	C428.948883,104.869720 445.780670,104.869720 462.993591,104.869720 
	C462.993591,122.306648 462.993591,139.215881 462.995636,156.562561 
	C462.997681,157.000015 463.069946,156.930054 462.597839,156.962555 
	C453.860687,156.995056 445.595581,156.995056 436.953949,156.995056 
	C436.953949,148.153244 436.953949,139.751862 436.953949,130.854507 
	C402.426544,130.854507 368.279602,130.854507 334.069946,130.854507 
	C334.069946,121.873970 334.069946,113.402016 334.034973,104.965027 
	C334.000000,105.000000 333.930054,105.069939 334.402161,105.037445 
	C351.885376,105.004951 368.896484,105.004951 386.069946,105.004951 
	C386.069946,96.182442 386.069946,88.056252 386.034973,79.966217 
	C386.000031,80.002373 385.931244,80.075783 385.931244,80.075783 
z"/>
<path fill="#000000" opacity="1.000000" stroke="none" 
	d="
M644.034424,492.039062 
	C644.068848,483.600586 644.068848,475.125427 644.068848,466.325867 
	C660.861145,466.325867 677.584106,466.325867 694.696533,466.325867 
	C694.696533,474.487915 694.696533,482.891785 694.696533,491.647217 
	C703.469299,491.647217 711.871094,491.647217 720.839417,491.647217 
	C720.839417,483.433777 720.839417,474.904663 720.839417,466.196411 
	C738.125061,466.196411 754.846069,466.196411 771.783081,466.196411 
	C771.783081,474.758057 771.783081,483.154327 771.783081,491.940491 
	C763.593506,491.940491 755.523438,491.940491 746.993530,491.940491 
	C746.993530,500.589111 746.993530,508.857086 746.995605,517.562500 
	C746.997620,517.999939 747.069946,517.930054 746.597900,517.962524 
	C720.393860,517.973328 694.661987,517.951660 668.930054,517.930054 
	C668.930054,517.930054 669.000000,518.000000 669.002502,517.562866 
	C669.005005,508.765198 669.005005,500.404633 669.005005,491.930054 
	C660.157349,491.930054 652.043701,491.930054 643.930054,491.930054 
	C643.930054,491.930054 644.000061,492.002350 644.034424,492.039062 
z"/>
<path fill="#000000" opacity="1.000000" stroke="none" 
	d="
M257.073456,54.062431 
	C257.073456,45.590485 257.073456,37.118542 257.073456,28.324104 
	C274.194092,28.324104 291.246246,28.324104 308.684906,28.324104 
	C308.684906,36.477497 308.684906,44.878838 308.684906,53.809059 
	C334.556366,53.809059 360.052124,53.809059 385.994049,53.809059 
	C385.994049,62.597996 385.994049,70.864212 385.962646,79.603104 
	C385.931244,80.075783 386.000031,80.002373 385.562866,79.998711 
	C368.114563,79.995049 351.103485,79.995049 333.930054,79.995049 
	C333.930054,88.817657 333.930054,96.943802 333.930054,105.069939 
	C333.930054,105.069939 334.000000,105.000000 333.562866,104.997528 
	C325.060486,104.973389 316.995270,104.951729 308.930054,104.930061 
	C308.930054,104.930061 308.999969,105.002403 309.034363,105.039108 
	C309.068756,96.944092 309.068756,88.812363 309.068756,80.309113 
	C300.516632,80.309113 292.124603,80.309113 283.186035,80.309113 
	C283.186035,71.449196 283.186035,62.932354 283.186035,53.993282 
	C274.388611,53.993282 266.131866,53.993282 257.437683,53.993507 
	C257.000244,53.993729 257.073456,54.062431 257.073456,54.062431 
z"/>
<path fill="#000000" opacity="1.000000" stroke="none" 
	d="
M747.062195,723.926697 
	C738.586670,723.926697 730.111145,723.926697 721.256836,723.926697 
	C721.256836,740.873352 721.256836,757.601013 721.256836,774.662964 
	C695.497864,774.662964 670.113342,774.662964 644.364624,774.662964 
	C644.364624,766.757812 644.364624,758.574341 644.364624,749.994751 
	C652.471130,749.994751 660.544128,749.994751 668.994873,749.994751 
	C668.994873,741.210327 668.994873,732.804565 668.994873,724.020142 
	C677.778503,724.020142 686.184265,724.020142 694.969116,724.020142 
	C694.969116,715.236938 694.969116,706.831177 694.969116,698.218750 
	C712.415405,698.218750 729.472290,698.218750 746.993225,698.218750 
	C746.993225,706.586487 746.993225,714.855774 746.993347,723.562500 
	C746.993469,723.999878 747.062195,723.926697 747.062195,723.926697 
z"/>
<path fill="#000000" opacity="1.000000" stroke="none" 
	d="
M206.034378,286.039062 
	C206.068771,277.603210 206.068771,269.130646 206.068771,260.274719 
	C197.484802,260.274719 189.084763,260.274719 180.343933,260.274719 
	C180.343933,251.508545 180.343933,243.110748 180.343933,234.185333 
	C205.568054,234.185333 231.060684,234.185333 257.005951,234.185333 
	C257.005951,225.735062 257.005951,217.802322 257.037354,209.396881 
	C257.068756,208.924210 256.999939,208.997604 257.437134,209.001282 
	C266.274811,208.980270 274.675323,208.955612 283.040588,209.402771 
	C283.005341,226.456375 283.005341,243.038162 283.005341,260.153564 
	C265.428131,260.153564 248.258621,260.153564 230.722107,260.153564 
	C230.722107,269.086365 230.722107,277.484894 230.722107,285.930054 
	C222.204269,285.930054 214.067169,285.930054 205.930054,285.930054 
	C205.930054,285.930054 205.999985,286.002380 206.034378,286.039062 
z"/>
<path fill="#000000" opacity="1.000000" stroke="none" 
	d="
M462.960938,698.034424 
	C471.399963,698.068848 479.875671,698.068848 488.740112,698.068848 
	C488.740112,706.532410 488.740112,714.936829 488.740112,723.702271 
	C514.505859,723.702271 539.888733,723.702271 565.634949,723.702271 
	C565.634949,732.573669 565.634949,741.089722 565.634949,749.994019 
	C531.686768,749.994019 497.778168,749.994019 463.396881,749.962585 
	C462.924194,749.931152 462.997620,750.000000 463.001282,749.562866 
	C463.026581,732.060486 463.048248,714.995300 463.069946,697.930054 
	C463.069946,697.930054 462.997650,698.000061 462.960938,698.034424 
z"/>
<path fill="#000000" opacity="1.000000" stroke="none" 
	d="
M412.034088,80.043007 
	C412.068359,62.945965 412.068359,45.812260 412.068359,28.339918 
	C420.169586,28.339918 428.237213,28.339918 436.696075,28.339918 
	C436.696075,36.489136 436.696075,44.891212 436.696075,53.845333 
	C454.249725,53.845333 471.429871,53.845333 488.800232,53.845333 
	C488.800232,62.793655 488.800232,71.190056 488.800232,79.994438 
	C463.370270,79.994438 438.120941,79.994438 412.399109,79.966049 
	C411.926605,79.937653 411.999817,80.006348 412.034088,80.043007 
z"/>
<path fill="#000000" opacity="1.000000" stroke="none" 
	d="
M180.068756,542.924377 
	C163.004150,542.947388 145.939560,542.970459 128.437500,542.995605 
	C128.000046,542.997742 128.069946,543.069946 128.037445,542.597900 
	C128.026611,525.393860 128.048279,508.661957 128.034973,491.965027 
	C128.000000,492.000000 127.930061,492.069946 128.402130,492.037415 
	C137.272461,491.977997 145.670731,491.951050 154.036942,492.396790 
	C154.004898,501.232666 154.004898,509.595917 154.004898,517.930908 
	C163.179779,517.930908 171.627808,517.930908 180.040588,518.402710 
	C179.980255,526.939697 179.955154,535.004822 179.964996,543.033813 
	C179.999954,542.997742 180.068756,542.924377 180.068756,542.924377 
z"/>
<path fill="#000000" opacity="1.000000" stroke="none" 
	d="
M721.033936,286.042847 
	C721.068176,268.955078 721.068176,251.830658 721.068176,234.353699 
	C729.469055,234.353699 737.865845,234.353699 746.631592,234.353699 
	C746.631592,251.220352 746.631592,268.383606 746.631592,285.994446 
	C738.398926,285.994446 730.135193,285.994446 721.398987,285.965973 
	C720.926453,285.937500 720.999634,286.006195 721.033936,286.042847 
z"/>
<path fill="#000000" opacity="1.000000" stroke="none" 
	d="
M257.039062,620.965576 
	C248.616302,620.931152 240.156876,620.931152 231.006439,620.931152 
	C231.006439,603.899048 231.006439,586.887024 231.004425,569.437500 
	C231.002411,569.000061 230.930054,569.069946 231.402130,569.037476 
	C240.126205,569.004944 248.378220,569.004944 256.930054,569.004944 
	C256.930054,586.632935 256.930054,603.851440 256.930054,621.069946 
	C256.930054,621.069946 257.002350,620.999939 257.039062,620.965576 
z"/>
<path fill="#000000" opacity="1.000000" stroke="none" 
	d="
M102.075783,492.068756 
	C102.052513,475.002350 102.029236,457.935974 102.037354,440.396851 
	C102.068733,439.924164 101.999931,439.997589 102.437103,440.001282 
	C111.126266,440.004944 119.378258,440.004944 127.930061,440.004944 
	C127.930061,457.632996 127.930061,474.851471 127.930061,492.069946 
	C127.930061,492.069946 128.000000,492.000000 127.562859,491.997528 
	C118.727165,491.973389 110.328613,491.951721 101.966217,491.965027 
	C102.002373,491.999969 102.075783,492.068756 102.075783,492.068756 
z"/>
<path fill="#000000" opacity="1.000000" stroke="none" 
	d="
M231.039093,568.965698 
	C214.188583,568.931274 197.301361,568.931274 180.005966,568.931274 
	C180.005966,560.374878 180.005966,552.122314 180.037354,543.397034 
	C180.068756,542.924377 179.999954,542.997742 180.437134,543.001343 
	C197.553162,543.004944 214.232025,543.004944 230.930054,543.004944 
	C230.930054,552.153137 230.930054,560.611572 230.930054,569.069946 
	C230.930054,569.069946 231.002411,569.000061 231.039093,568.965698 
z"/>
<path fill="#000000" opacity="1.000000" stroke="none" 
	d="
M333.965576,723.961060 
	C333.931183,732.383911 333.931183,740.843384 333.931183,749.994019 
	C317.230438,749.994019 300.549988,749.994019 283.396881,749.962585 
	C282.924194,749.931152 282.997620,750.000000 283.001282,749.562866 
	C283.004944,740.874084 283.004944,732.622375 283.004944,724.069946 
	C300.299011,724.069946 317.184479,724.069946 334.069946,724.069946 
	C334.069946,724.069946 334.000000,723.997742 333.965576,723.961060 
z"/>
<path fill="#000000" opacity="1.000000" stroke="none" 
	d="
M102.068687,542.924316 
	C93.938034,542.924316 85.807388,542.924316 77.339050,542.924316 
	C77.339050,526.068176 77.339050,509.251129 77.339050,492.005951 
	C85.281082,492.005951 93.205757,492.005951 101.603104,492.037354 
	C102.075783,492.068756 102.002373,491.999969 101.998711,492.437134 
	C101.973389,509.606201 101.951729,526.338074 101.964989,543.033813 
	C101.999916,542.997620 102.068687,542.924316 102.068687,542.924316 
z"/>
<path fill="#000000" opacity="1.000000" stroke="none" 
	d="
M488.965729,156.956879 
	C488.952332,165.323624 488.973175,173.727020 488.962646,182.603119 
	C488.931244,183.075790 489.000061,183.002396 488.562866,182.998718 
	C479.725189,183.019714 471.324677,183.044388 462.959412,182.597229 
	C463.019745,173.726944 463.044861,165.328506 463.069946,156.930054 
	C463.069946,156.930054 462.997681,157.000015 462.960968,157.034409 
	C471.325592,157.047714 479.726959,157.026642 488.600769,157.033905 
	C489.073212,157.062225 489.000000,156.993530 488.965729,156.956879 
z"/>
<path fill="#000000" opacity="1.000000" stroke="none" 
	d="
M127.965645,542.961060 
	C127.931244,551.382874 127.931244,559.841370 127.931244,568.649292 
	C119.414528,568.649292 110.916412,568.649292 102.005959,568.649292 
	C102.005959,560.372803 102.005959,552.121277 102.037323,543.396973 
	C102.068687,542.924316 101.999916,542.997620 102.437103,543.001282 
	C111.272835,543.026611 119.671394,543.048279 128.069946,543.069946 
	C128.069946,543.069946 128.000046,542.997742 127.965645,542.961060 
z"/>
<path fill="#000000" opacity="1.000000" stroke="none" 
	d="
M256.965973,53.957073 
	C256.931702,62.384892 256.931702,70.849365 256.931702,79.656250 
	C248.516846,79.656250 240.127090,79.656250 231.368439,79.656250 
	C231.368439,71.443848 231.368439,62.939701 231.368439,54.005569 
	C239.614410,54.005569 247.871445,54.005569 256.600952,54.034000 
	C257.073456,54.062431 257.000244,53.993729 256.965973,53.957073 
z"/>
<path fill="#000000" opacity="1.000000" stroke="none" 
	d="
M540.043091,53.965965 
	C531.948242,53.931686 523.816650,53.931686 515.343201,53.931686 
	C515.343201,45.516335 515.343201,37.126904 515.343201,28.368509 
	C523.222839,28.368509 531.394104,28.368509 539.994507,28.368509 
	C539.994507,36.615173 539.994507,44.871815 539.966125,53.600937 
	C539.937744,54.073421 540.006470,54.000240 540.043091,53.965965 
z"/>
<path fill="#000000" opacity="1.000000" stroke="none" 
	d="
M608.963745,774.998901 
	C603.162292,774.998901 597.856445,774.998901 592.276917,774.998901 
	C592.276917,766.693848 592.276917,758.624023 592.276917,750.276123 
	C600.641418,750.276123 609.044556,750.276123 617.724548,750.276123 
	C617.724548,758.309265 617.724548,766.379272 617.724548,774.998901 
	C615.003174,774.998901 612.231262,774.998901 608.963745,774.998901 
z"/>
<path fill="#000000" opacity="1.000000" stroke="none" 
	d="
M746.956787,724.034180 
	C755.051697,724.068420 763.183228,724.068420 771.656738,724.068420 
	C771.656738,732.483765 771.656738,740.873047 771.656738,749.631470 
	C763.777161,749.631470 755.605957,749.631470 747.005493,749.631470 
	C747.005493,741.384949 747.005493,733.128357 747.033813,724.399170 
	C747.062195,723.926697 746.993469,723.999878 746.956787,724.034180 
z"/>
<path fill="#000000" opacity="1.000000" stroke="none" 
	d="
M37.999557,312.001129 
	C42.473114,312.001129 46.449322,312.001129 50.711266,312.001129 
	C50.711266,320.281616 50.711266,328.351654 50.711266,336.711792 
	C42.383686,336.711792 33.980679,336.711792 25.287897,336.711792 
	C25.287897,328.716644 25.287897,320.646637 25.287897,312.001129 
	C29.300287,312.001129 33.401253,312.001129 37.999557,312.001129 
z"/>
<path fill="#000000" opacity="1.000000" stroke="none" 
	d="
M747.001099,332.862305 
	C747.001099,325.745392 747.001099,319.113831 747.001099,312.243988 
	C755.375916,312.243988 763.445984,312.243988 771.758606,312.243988 
	C771.758606,320.381805 771.758606,328.451630 771.758606,336.997406 
	C764.247131,336.997406 756.801636,336.891388 749.361633,337.046661 
	C746.129211,337.114075 747.185974,334.953156 747.001099,332.862305 
z"/>
<path fill="#000000" opacity="1.000000" stroke="none" 
	d="
M746.960938,518.034302 
	C755.049438,518.068726 763.174622,518.068726 771.649292,518.068726 
	C771.649292,526.251709 771.649292,534.416565 771.649292,542.994019 
	C763.706360,542.994019 755.788025,542.994019 747.396973,542.962646 
	C746.924316,542.931274 746.997620,543.000061 747.001221,542.562866 
	C747.026550,534.060486 747.048218,525.995300 747.069946,517.930054 
	C747.069946,517.930054 746.997620,517.999939 746.960938,518.034302 
z"/>
<path fill="#FFFFFF" opacity="1.000000" stroke="none" 
	d="
M231.402130,569.037476 
	C230.930054,560.611572 230.930054,552.153137 230.930054,543.004944 
	C214.232025,543.004944 197.553162,543.004944 180.402176,543.037476 
	C179.955154,535.004822 179.980255,526.939697 180.003876,518.437256 
	C180.002396,517.999878 179.930054,518.069946 180.402130,518.037476 
	C189.235825,518.004944 197.597427,518.004944 205.930984,518.004944 
	C205.930984,508.818665 205.930984,500.371399 206.402802,491.959412 
	C223.606400,492.019775 240.338181,492.044861 257.034973,492.034973 
	C257.000000,492.000000 256.930054,491.930054 256.962585,492.402161 
	C256.995087,509.453125 256.995087,526.031982 256.995087,542.924194 
	C282.956116,542.924194 308.512573,542.924194 334.036957,543.396851 
	C334.004883,552.127930 334.004883,560.386414 334.004883,568.660034 
	C351.585632,568.660034 368.738098,568.660034 385.930878,568.660034 
	C385.930878,559.854980 385.930878,551.389648 386.402710,542.959473 
	C395.270508,542.972046 403.666504,542.949402 412.033478,543.399170 
	C412.004486,552.128784 412.004486,560.385986 412.004486,568.632690 
	C420.606232,568.632690 428.777649,568.632690 436.658173,568.632690 
	C436.658173,559.873779 436.658173,551.483704 436.658173,543.068604 
	C428.184418,543.068604 420.052368,543.068604 411.957336,542.596924 
	C411.994385,534.199890 411.994385,526.274597 411.994385,518.069946 
	C437.980011,518.069946 463.524994,518.069946 489.033783,518.034912 
	C488.997620,517.999939 488.924164,517.930969 488.924164,517.930969 
	C488.924164,526.075806 488.924164,534.220581 488.924164,542.758301 
	C480.452759,542.758301 472.045258,542.758301 463.320984,542.758301 
	C463.320984,551.542236 463.320984,559.945251 463.320984,568.675537 
	C480.200806,568.675537 497.263763,568.675537 514.721191,568.675537 
	C514.721191,560.490479 514.721191,552.083252 514.721191,543.339478 
	C523.169983,543.339478 531.241089,543.339478 539.657288,543.339478 
	C539.657288,560.163513 539.657288,577.226990 539.657288,594.685059 
	C531.861694,594.685059 523.787476,594.685059 515.321655,594.685059 
	C515.321655,603.465759 515.321655,611.872498 515.321655,620.639038 
	C506.541290,620.639038 498.135925,620.639038 489.333801,620.639038 
	C489.333801,612.549988 489.333801,604.142944 489.333801,595.005188 
	C429.254669,595.005188 369.567596,595.005188 309.438049,594.566772 
	C308.995514,585.870850 308.995514,577.613220 308.995514,569.367310 
	C300.060364,569.367310 291.555573,569.367310 283.342407,569.367310 
	C283.342407,578.126648 283.342407,586.517090 283.342407,594.931396 
	C292.149658,594.931396 300.614685,594.931396 309.079712,594.931396 
	C309.054810,611.996155 309.029877,629.060974 309.037445,646.597839 
	C300.612274,647.069946 292.154602,647.069946 283.158630,647.069946 
	C283.158630,638.419922 283.158630,629.909546 283.158630,621.004944 
	C274.375977,621.004944 266.125122,621.004944 257.402161,621.037476 
	C256.930054,603.851440 256.930054,586.632935 256.930054,569.004944 
	C248.378220,569.004944 240.126205,569.004944 231.402130,569.037476 
z"/>
<path fill="#FFFFFF" opacity="1.000000" stroke="none" 
	d="
M334.037415,723.597900 
	C317.184479,724.069946 300.299011,724.069946 283.004944,724.069946 
	C283.004944,732.622375 283.004944,740.874084 283.037445,749.597839 
	C274.597870,750.069946 266.125793,750.069946 257.327179,750.069946 
	C257.327179,724.041382 257.327179,698.219666 257.327179,672.029968 
	C274.443512,672.029968 291.495697,672.029968 308.995087,672.029968 
	C308.995087,663.738892 308.995087,655.806580 308.962585,647.402161 
	C317.074615,646.930054 325.219177,646.930054 333.755859,646.930054 
	C333.755859,638.454773 333.755859,630.047852 333.755859,621.322510 
	C376.855896,621.322510 419.566284,621.322510 462.638489,621.322510 
	C462.638489,629.457275 462.638489,637.862061 462.638489,646.820557 
	C437.437286,646.820557 411.926575,646.820557 386.036865,646.820557 
	C386.036865,664.097168 386.036865,680.828064 386.036865,697.937561 
	C368.595245,697.937561 351.531372,697.937561 334.004913,697.937561 
	C334.004913,706.583740 334.004913,714.854797 334.037415,723.597900 
z"/>
<path fill="#FFFFFF" opacity="1.000000" stroke="none" 
	d="
M489.075867,466.069031 
	C489.075867,457.595795 489.075867,449.122528 489.075867,440.324829 
	C523.291687,440.324829 557.441284,440.324829 591.962830,440.324829 
	C591.962830,457.434723 591.962830,474.489838 591.962830,491.995056 
	C600.592468,491.995056 608.859070,491.995056 617.597839,491.962555 
	C618.069946,500.401428 618.069946,508.872803 618.069946,517.995117 
	C575.200623,517.995117 532.535034,517.995117 489.396790,517.963013 
	C488.924164,517.930969 488.997620,517.999939 489.001282,517.562866 
	C489.026642,508.727173 489.048309,500.328613 489.034973,491.965027 
	C489.000000,492.000000 488.930054,492.069946 489.402161,492.037415 
	C506.451874,492.004913 523.029480,492.004913 539.643799,492.004913 
	C539.643799,483.089142 539.643799,474.580841 539.643799,465.930054 
	C522.501831,465.930054 505.715942,465.930054 488.966248,465.965088 
	C489.002441,466.000092 489.075867,466.069031 489.075867,466.069031 
z"/>
<path fill="#FFFFFF" opacity="1.000000" stroke="none" 
	d="
M638.888794,569.000000 
	C640.827881,569.000000 642.278381,569.000000 643.848694,569.000000 
	C643.848694,595.109985 643.848694,620.728699 643.848694,646.673828 
	C618.125061,646.673828 592.387085,646.673828 566.324097,646.673828 
	C566.324097,621.120911 566.324097,595.382996 566.324097,569.000000 
	C590.229187,569.000000 614.314758,569.000000 638.888794,569.000000 
M592.000000,617.348206 
	C592.185181,618.953613 591.127319,621.111389 594.360291,621.047913 
	C602.134521,620.895386 609.913757,620.998535 617.759888,620.998535 
	C617.759888,612.118958 617.759888,603.715027 617.759888,595.242737 
	C609.113647,595.242737 600.709656,595.242737 592.000000,595.242737 
	C592.000000,602.446533 592.000000,609.411987 592.000000,617.348206 
z"/>
<path fill="#FFFFFF" opacity="1.000000" stroke="none" 
	d="
M462.597839,697.962524 
	C463.048248,714.995300 463.026581,732.060486 463.037415,749.597839 
	C446.273834,750.069946 429.477753,750.069946 412.340942,750.069946 
	C412.340942,724.066223 412.340942,698.241272 412.340942,672.207458 
	C420.439453,672.207458 428.501312,672.207458 436.949493,672.207458 
	C436.949493,680.746765 436.949493,689.149170 436.949493,697.995056 
	C445.593384,697.995056 453.859589,697.995056 462.597839,697.962524 
z"/>
<path fill="#FFFFFF" opacity="1.000000" stroke="none" 
	d="
M746.597839,517.962524 
	C747.048218,525.995300 747.026550,534.060486 747.037415,542.597839 
	C721.191589,543.069946 695.313293,543.069946 668.995056,543.069946 
	C668.995056,534.725464 668.995056,526.799866 668.962524,518.402100 
	C694.661987,517.951660 720.393860,517.973328 746.597839,517.962524 
z"/>
<path fill="#FFFFFF" opacity="1.000000" stroke="none" 
	d="
M721.049927,594.974731 
	C703.959595,594.940491 686.832703,594.940491 669.352905,594.940491 
	C669.352905,586.531860 669.352905,578.134094 669.352905,569.367310 
	C686.220825,569.367310 703.385803,569.367310 720.996033,569.367310 
	C720.996033,577.604187 720.996033,585.869324 720.970459,594.608276 
	C720.944824,595.081970 721.013306,595.008911 721.049927,594.974731 
z"/>
<path fill="#FFFFFF" opacity="1.000000" stroke="none" 
	d="
M592.025269,698.049927 
	C592.059509,689.619934 592.059509,681.153381 592.059509,672.343506 
	C600.481140,672.343506 608.872437,672.343506 617.632690,672.343506 
	C617.632690,680.556152 617.632690,689.061340 617.632690,697.996033 
	C609.383240,697.996033 601.124329,697.996033 592.391724,697.970459 
	C591.918030,697.944824 591.991089,698.013306 592.025269,698.049927 
z"/>
<path fill="#FFFFFF" opacity="1.000000" stroke="none" 
	d="
M643.962524,492.402130 
	C652.043701,491.930054 660.157349,491.930054 669.005005,491.930054 
	C669.005005,500.404633 669.005005,508.765198 669.037476,517.597839 
	C660.956299,518.069946 652.842651,518.069946 643.995056,518.069946 
	C643.995056,509.595337 643.995056,501.234772 643.962524,492.402130 
z"/>
<path fill="#FFFFFF" opacity="1.000000" stroke="none" 
	d="
M540.068604,389.079712 
	C531.926208,389.079712 523.783813,389.079712 515.252808,389.079712 
	C515.252808,380.462738 515.252808,372.057922 515.252808,363.328430 
	C506.475861,363.328430 498.074921,363.328430 489.282074,363.328430 
	C489.282074,371.507568 489.282074,379.911865 489.282074,388.656952 
	C437.418488,388.656952 385.942780,388.656952 334.005341,388.656952 
	C334.005341,380.412354 334.005341,372.143494 334.003876,363.437256 
	C334.002411,362.999878 333.930054,363.069946 334.402161,363.037415 
	C368.781036,363.004913 402.687836,363.004913 436.638489,363.004913 
	C436.638489,354.093109 436.638489,345.577332 436.638489,336.930054 
	C402.161407,336.930054 368.045715,336.930054 333.966248,336.965088 
	C334.002441,337.000092 334.075867,337.069031 334.075867,337.069031 
	C334.075867,328.922943 334.075867,320.776855 334.075867,312.266754 
	C385.541046,312.266754 436.922943,312.266754 488.652161,312.266754 
	C488.652161,303.512512 488.652161,295.106873 488.652161,286.303711 
	C480.517334,286.303711 472.108429,286.303711 463.351044,286.303711 
	C463.351044,277.519226 463.351044,269.113312 463.351044,260.310150 
	C471.478119,260.310150 479.884827,260.310150 488.686584,260.310150 
	C488.686584,251.525635 488.686584,243.118454 488.686584,234.355896 
	C505.805817,234.355896 522.539062,234.355896 539.636597,234.355896 
	C539.636597,242.454788 539.636597,250.861511 539.636597,259.665710 
	C531.883362,259.665710 523.807495,259.665710 515.366638,259.665710 
	C515.366638,285.569244 515.366638,311.080322 515.366638,336.970032 
	C549.441101,336.970032 583.498535,336.970032 617.942444,336.970032 
	C617.942444,354.407867 617.942444,371.475311 617.942444,388.927124 
	C635.058899,388.927124 651.793152,388.927124 669.004944,388.927124 
	C669.004944,397.580353 669.004944,405.853027 669.037476,414.597839 
	C626.198486,415.069946 583.327087,415.069946 539.994812,415.069946 
	C539.994812,406.407562 539.994812,398.144043 540.433228,389.438049 
	C557.787720,388.995514 574.703796,388.995514 591.632690,388.995514 
	C591.632690,380.073822 591.632690,371.562592 591.632690,363.332642 
	C574.216492,363.332642 557.168396,363.332642 540.068604,363.332642 
	C540.068604,372.136597 540.068604,380.608154 540.068604,389.079712 
z"/>
<path fill="#FFFFFF" opacity="1.000000" stroke="none" 
	d="
M462.597839,156.962555 
	C463.044861,165.328506 463.019745,173.726944 462.996155,182.562744 
	C462.997620,183.000107 463.069946,182.930054 462.597839,182.962555 
	C453.874939,182.995056 445.624084,182.995056 437.348633,182.995056 
	C437.348633,191.915802 437.348633,200.414139 437.348633,209.069946 
	C446.154602,209.069946 454.612274,209.069946 463.033752,209.034943 
	C462.997559,208.999939 462.924133,208.931015 462.924133,208.931015 
	C462.924133,217.065735 462.924133,225.200470 462.924133,233.667480 
	C437.398315,233.667480 411.922333,233.667480 386.005341,233.667480 
	C386.005341,225.731247 386.005341,217.802917 386.003845,209.437256 
	C386.002380,208.999893 385.930054,209.069946 386.402161,209.037445 
	C395.125061,209.004944 403.375916,209.004944 411.651367,209.004944 
	C411.651367,200.084198 411.651367,191.585861 411.651367,182.930054 
	C402.845398,182.930054 394.387726,182.930054 385.965027,182.965027 
	C386.000000,183.000000 386.069946,183.069946 386.037415,182.597870 
	C386.004913,173.874954 386.004913,165.624100 386.004913,157.348618 
	C377.084229,157.348618 368.585876,157.348618 359.930054,157.348618 
	C359.930054,166.154602 359.930054,174.612274 359.965027,183.034973 
	C360.000000,183.000000 360.069946,182.930054 359.597839,182.962555 
	C350.764374,182.995056 342.403076,182.995056 333.930054,182.995056 
	C333.930054,192.177460 333.930054,200.623703 333.965027,209.034973 
	C334.000000,209.000000 334.069946,208.930054 333.597870,208.962555 
	C325.060547,208.973389 316.995300,208.951721 308.965027,208.965027 
	C309.000000,209.000000 309.069946,209.069946 309.037445,208.597824 
	C309.004944,199.764389 309.004944,191.403076 309.004944,182.930054 
	C299.822540,182.930054 291.376282,182.930054 282.966248,182.965057 
	C283.002441,183.000061 283.075867,183.068985 283.075867,183.068985 
	C283.075867,165.839676 283.075867,148.610352 283.075867,131.011383 
	C291.791687,131.011383 300.184845,131.011383 308.995056,131.011383 
	C308.995056,122.389091 308.995056,114.131683 308.962555,105.402176 
	C316.995270,104.951729 325.060486,104.973389 333.597839,104.962555 
	C334.069946,113.402016 334.069946,121.873970 334.069946,130.854507 
	C368.279602,130.854507 402.426544,130.854507 436.953949,130.854507 
	C436.953949,139.751862 436.953949,148.153244 436.953949,156.995056 
	C445.595581,156.995056 453.860687,156.995056 462.597839,156.962555 
z"/>
<path fill="#FFFFFF" opacity="1.000000" stroke="none" 
	d="
M205.962555,286.402161 
	C214.067169,285.930054 222.204269,285.930054 230.722107,285.930054 
	C230.722107,277.484894 230.722107,269.086365 230.722107,260.153564 
	C248.258621,260.153564 265.428131,260.153564 283.005341,260.153564 
	C283.005341,243.038162 283.005341,226.456375 283.003845,209.437256 
	C283.002380,208.999893 282.930054,209.069946 283.402130,209.037445 
	C292.272797,209.026611 300.671356,209.048279 309.069946,209.069946 
	C309.069946,209.069946 309.000000,209.000000 308.997528,209.437134 
	C308.995056,217.902603 308.995056,225.930923 308.995056,234.069946 
	C317.844147,234.069946 325.957062,234.069946 334.033752,234.034943 
	C333.997559,233.999939 333.924133,233.931015 333.924133,233.931015 
	C333.924133,251.056656 333.924133,268.182312 333.924133,285.850006 
	C317.073273,285.850006 300.233124,285.850006 283.200684,285.850006 
	C283.200684,294.784729 283.200684,303.177917 283.200684,311.954895 
	C291.753113,311.954895 300.153931,311.954895 309.004944,311.954895 
	C309.004944,320.262024 309.004944,328.193878 309.037445,336.597839 
	C291.938599,337.069946 274.807251,337.069946 257.288666,337.069946 
	C257.288666,345.501190 257.288666,353.904388 257.288666,362.652588 
	C248.516922,362.652588 240.116257,362.652588 231.326019,362.652588 
	C231.326019,354.537720 231.326019,346.134460 231.326019,337.182281 
	C214.108688,337.182281 197.263046,337.182281 180.212692,337.182281 
	C180.212692,328.570190 180.212692,320.507202 180.212692,312.055786 
	C188.741989,312.055786 197.144394,312.055786 205.995056,312.055786 
	C205.995056,303.409149 205.995056,295.141693 205.962555,286.402161 
z"/>
<path fill="#FFFFFF" opacity="1.000000" stroke="none" 
	d="
M594.000000,312.000000 
	C575.859131,312.000000 558.218262,312.000000 540.289124,312.000000 
	C540.289124,303.387085 540.289124,294.981995 540.289124,286.286896 
	C565.951538,286.286896 591.686157,286.286896 617.710815,286.286896 
	C617.710815,294.612396 617.710815,303.017670 617.710815,312.000000 
	C610.029480,312.000000 602.264709,312.000000 594.000000,312.000000 
z"/>
<path fill="#FFFFFF" opacity="1.000000" stroke="none" 
	d="
M365.111084,286.000000 
	C363.172424,286.000000 361.722290,286.000000 360.151550,286.000000 
	C360.151550,277.224884 360.151550,268.939178 360.151550,260.326355 
	C368.534882,260.326355 376.941742,260.326355 385.675659,260.326355 
	C385.675659,268.539124 385.675659,276.945892 385.675659,286.000000 
	C379.113892,286.000000 372.356750,286.000000 365.111084,286.000000 
z"/>
<path fill="#FFFFFF" opacity="1.000000" stroke="none" 
	d="
M462.960876,183.034576 
	C471.324677,183.044388 479.725189,183.019714 488.597839,182.962555 
	C489.069946,191.376862 489.069946,199.823669 489.069946,208.995102 
	C480.594482,208.995102 472.231934,208.995102 463.396790,208.963058 
	C462.924133,208.931015 462.997559,208.999939 463.001251,208.562836 
	C463.026611,199.727158 463.048279,191.328613 463.069946,182.930054 
	C463.069946,182.930054 462.997620,183.000107 462.960876,183.034576 
z"/>
<path fill="#FFFFFF" opacity="1.000000" stroke="none" 
	d="
M386.039124,208.965424 
	C377.675446,208.952179 369.275024,208.973419 360.437256,208.996109 
	C359.999908,208.997574 360.069946,209.069946 360.037445,208.597870 
	C360.026611,199.727219 360.048279,191.328629 360.069946,182.930054 
	C360.069946,182.930054 360.000000,183.000000 360.437134,183.002472 
	C369.272858,183.026611 377.671387,183.048279 386.069946,183.069946 
	C386.069946,183.069946 386.000000,183.000000 385.997528,183.437134 
	C385.973389,192.272842 385.951721,200.671387 385.930054,209.069946 
	C385.930054,209.069946 386.002380,208.999893 386.039124,208.965424 
z"/>
<path fill="#FFFFFF" opacity="1.000000" stroke="none" 
	d="
M669.000000,291.109375 
	C669.000000,298.233368 669.000000,304.867188 669.000000,311.748474 
	C660.642456,311.748474 652.572144,311.748474 644.249756,311.748474 
	C644.249756,303.305359 644.249756,294.902039 644.249756,286.248047 
	C652.364624,286.248047 660.434631,286.248047 669.000000,286.248047 
	C669.000000,287.735352 669.000000,289.177277 669.000000,291.109375 
z"/>
<path fill="#FFFFFF" opacity="1.000000" stroke="none" 
	d="
M359.965454,208.960846 
	C359.930969,217.039551 359.930969,225.154984 359.930969,233.995102 
	C351.594421,233.995102 343.231903,233.995102 334.396790,233.963058 
	C333.924133,233.931015 333.997559,233.999939 334.001251,233.562836 
	C334.026611,225.060501 334.048279,216.995270 334.069946,208.930054 
	C334.069946,208.930054 334.000000,209.000000 334.437134,209.002472 
	C343.272858,209.026611 351.671387,209.048279 360.069946,209.069946 
	C360.069946,209.069946 359.999908,208.997574 359.965454,208.960846 
z"/>
<path fill="#FFFFFF" opacity="1.000000" stroke="none" 
	d="
M334.039124,362.965393 
	C326.008667,362.955597 317.941467,362.980286 309.402161,363.037445 
	C308.951721,354.671387 308.973389,346.272858 308.962555,337.402161 
	C316.996887,336.954987 325.063751,336.979950 333.603210,337.036957 
	C334.075867,337.069031 334.002441,337.000092 333.998718,337.437195 
	C333.973358,346.272858 333.951691,354.671387 333.930054,363.069946 
	C333.930054,363.069946 334.002411,362.999878 334.039124,362.965393 
z"/>
<path fill="#FFFFFF" opacity="1.000000" stroke="none" 
	d="
M128.402130,492.037415 
	C127.930061,474.851471 127.930061,457.632996 127.930061,440.004944 
	C119.378258,440.004944 111.126266,440.004944 102.402176,440.037445 
	C101.930061,431.929871 101.930061,423.789764 101.930061,415.263794 
	C93.806656,415.263794 85.737122,415.263794 77.335556,415.263794 
	C77.335556,406.493225 77.335556,398.094391 77.335556,389.346680 
	C93.932251,389.346680 110.768410,389.346680 127.992416,389.346680 
	C127.992416,397.790924 127.992416,406.193420 127.992416,414.970123 
	C136.767975,414.970123 145.170502,414.970123 153.948456,414.970123 
	C153.948456,423.413177 153.948456,431.481750 153.948456,440.005341 
	C162.592896,440.005341 170.859131,440.005341 179.562744,440.003845 
	C180.000107,440.002380 179.930054,439.930054 179.962555,440.402161 
	C180.022018,449.272522 180.048965,457.670746 179.603271,466.036926 
	C170.768097,466.004883 162.405563,466.004883 153.930054,466.004883 
	C153.930054,475.176300 153.930054,483.623108 153.965057,492.033752 
	C154.000061,491.997559 154.068985,491.924133 154.068985,491.924133 
	C145.670731,491.951050 137.272461,491.977997 128.402130,492.037415 
z"/>
<path fill="#FFFFFF" opacity="1.000000" stroke="none" 
	d="
M308.597870,362.962585 
	C309.069946,380.054138 309.069946,397.178253 309.069946,414.821289 
	C283.091919,414.821289 257.270233,414.821289 230.994644,414.821289 
	C230.994644,423.263367 230.994644,431.194366 230.996109,439.562744 
	C230.997574,440.000092 231.069946,439.930054 230.597824,439.962555 
	C213.393814,439.973389 196.661942,439.951721 179.930054,439.930054 
	C179.930054,439.930054 180.000107,440.002380 180.034561,440.039124 
	C180.069016,431.949921 180.069016,423.824005 180.069016,415.159393 
	C188.579193,415.159393 197.089676,415.159393 206.005615,415.159393 
	C206.005615,406.376648 206.005615,398.125793 206.005859,389.437622 
	C206.006104,389.000275 205.937302,389.073486 205.937302,389.073486 
	C231.490784,389.073486 257.044281,389.073486 282.973267,389.073486 
	C282.973267,380.224060 282.973267,371.828979 282.973267,362.995087 
	C291.604065,362.995087 299.864929,362.995087 308.597870,362.962585 
z"/>
<path fill="#FFFFFF" opacity="1.000000" stroke="none" 
	d="
M206.042786,388.965942 
	C188.954361,388.931610 171.829254,388.931610 154.352097,388.931610 
	C154.352097,380.530579 154.352097,372.133301 154.352097,363.367218 
	C171.219940,363.367218 188.384048,363.367218 205.995499,363.367218 
	C205.995499,371.600372 205.995499,379.864471 205.966400,388.601013 
	C205.937302,389.073486 206.006104,389.000275 206.042786,388.965942 
z"/>
<path fill="#FFFFFF" opacity="1.000000" stroke="none" 
	d="
M283.075867,466.069031 
	C283.075867,457.592346 283.075867,449.115631 283.075867,440.319641 
	C299.874969,440.319641 316.602295,440.319641 333.722290,440.319641 
	C333.722290,448.511414 333.722290,456.916992 333.722290,465.660095 
	C342.501678,465.660095 350.904480,465.660095 359.691406,465.660095 
	C359.691406,449.177856 359.691406,432.448578 359.691406,415.360138 
	C394.234467,415.360138 428.398254,415.360138 462.945129,415.360138 
	C462.945129,432.080078 462.945129,448.808899 462.945129,466.004883 
	C471.589264,466.004883 479.859924,466.004883 488.603210,466.036957 
	C489.075867,466.069031 489.002441,466.000092 488.998779,466.437195 
	C488.973419,475.272858 488.951752,483.671387 488.930054,492.069946 
	C488.930054,492.069946 489.000000,492.000000 488.562836,491.997528 
	C471.200165,491.995056 454.274658,491.995056 436.976318,491.995056 
	C436.976318,474.505493 436.976318,457.446411 436.976318,440.196594 
	C428.535767,440.196594 420.471771,440.196594 411.842041,440.196594 
	C411.842041,448.899353 411.842041,457.429138 411.842041,466.319061 
	C402.873749,466.319061 394.470093,466.319061 385.696411,466.319061 
	C385.696411,475.110474 385.696411,483.512939 385.696411,492.075867 
	C359.848694,492.075867 334.389832,492.075867 308.963043,491.603210 
	C308.995117,482.768066 308.995117,474.405518 308.995117,465.930054 
	C299.823669,465.930054 291.376862,465.930054 282.966248,465.965088 
	C283.002441,466.000092 283.075867,466.069031 283.075867,466.069031 
z"/>
<path fill="#FFFFFF" opacity="1.000000" stroke="none" 
	d="
M230.960846,440.034546 
	C239.371323,440.069031 247.818512,440.069031 256.994659,440.069031 
	C256.994659,448.402039 256.994659,456.763702 256.996124,465.562744 
	C256.997589,466.000122 257.069946,465.930054 256.597870,465.962585 
	C247.764267,465.995087 239.402740,465.995087 231.069946,465.995087 
	C231.069946,456.822449 231.069946,448.376251 231.069946,439.930054 
	C231.069946,439.930054 230.997574,440.000092 230.960846,440.034546 
z"/>
<path fill="#FFFFFF" opacity="1.000000" stroke="none" 
	d="
M256.960876,466.034607 
	C265.326294,466.047668 273.728455,466.026276 282.603210,466.036957 
	C283.075867,466.069031 283.002441,466.000092 282.998749,466.437195 
	C283.019745,475.274811 283.044403,483.675323 282.597229,492.040588 
	C273.726959,491.980255 265.328491,491.955170 256.930054,491.930054 
	C256.930054,491.930054 257.000000,492.000000 257.002472,491.562866 
	C257.026611,482.727142 257.048279,474.328613 257.069946,465.930054 
	C257.069946,465.930054 256.997589,466.000122 256.960876,466.034607 
z"/>
<path fill="#FCFCFC" opacity="1.000000" stroke="none" 
	d="
M698.000000,53.998699 
	C714.462524,53.998699 730.425110,53.998699 746.657837,53.998699 
	C746.657837,96.983917 746.657837,139.673355 746.657837,182.598602 
	C703.853271,182.598602 661.277771,182.598602 618.350281,182.598602 
	C618.350281,139.932587 618.350281,97.237434 618.350281,53.998699 
	C644.665100,53.998699 671.082520,53.998699 698.000000,53.998699 
M656.506226,156.999512 
	C677.904968,156.999512 699.303711,156.999512 720.615845,156.999512 
	C720.615845,130.909943 720.615845,105.506798 720.615845,80.151428 
	C694.794189,80.151428 669.246460,80.151428 643.830444,80.151428 
	C643.830444,105.888702 643.830444,131.286346 643.830444,156.999512 
	C647.898132,156.999512 651.703918,156.999512 656.506226,156.999512 
z"/>
<path fill="#FCFCFC" opacity="1.000000" stroke="none" 
	d="
M102.000000,53.997169 
	C128.143631,53.997169 153.787277,53.997169 179.716553,53.997169 
	C179.716553,96.937943 179.716553,139.656631 179.716553,182.606049 
	C136.988739,182.606049 94.396812,182.606049 51.484100,182.606049 
	C51.484100,139.961349 51.484100,97.374924 51.484100,53.997169 
	C68.020927,53.997169 84.760468,53.997169 102.000000,53.997169 
M153.998245,141.496674 
	C153.998245,121.065720 153.998245,100.634766 153.998245,80.121902 
	C128.071777,80.121902 102.562515,80.121902 77.022293,80.121902 
	C77.022293,105.820755 77.022293,131.211380 77.022293,156.705887 
	C102.750732,156.705887 128.270157,156.705887 153.998245,156.705887 
	C153.998245,151.775177 153.998245,147.135223 153.998245,141.496674 
z"/>
<path fill="#FCFCFC" opacity="1.000000" stroke="none" 
	d="
M104.999863,749.707275 
	C86.880547,749.707275 69.261223,749.707275 51.403206,749.707275 
	C51.403206,706.632996 51.403206,664.054382 51.403206,621.150391 
	C94.080643,621.150391 136.668381,621.150391 179.630981,621.150391 
	C179.630981,663.627319 179.630981,706.348450 179.630981,749.707275 
	C155.032639,749.707275 130.266251,749.707275 104.999863,749.707275 
M147.400421,723.886475 
	C149.503326,723.886475 151.606216,723.886475 153.681152,723.886475 
	C153.681152,697.785889 153.681152,672.242981 153.681152,646.847168 
	C127.962906,646.847168 102.562233,646.847168 77.177940,646.847168 
	C77.177940,672.643799 77.177940,698.158936 77.177940,723.886475 
	C100.500343,723.886475 123.460045,723.886475 147.400421,723.886475 
z"/>
<path fill="#FFFFFF" opacity="1.000000" stroke="none" 
	d="
M514.949219,105.025993 
	C523.046265,105.060173 531.179932,105.060173 539.656738,105.060173 
	C539.656738,113.481491 539.656738,121.872253 539.656738,130.632294 
	C531.777222,130.632294 523.604675,130.632294 515.003967,130.632294 
	C515.003967,122.382889 515.003967,114.124405 515.029175,105.392326 
	C515.054321,104.918732 514.985840,104.991814 514.949219,105.025993 
z"/>
<path fill="#FFFFFF" opacity="1.000000" stroke="none" 
	d="
M283.039124,208.965424 
	C274.675323,208.955612 266.274811,208.980270 257.402161,209.037445 
	C256.930054,200.623138 256.930054,192.176331 256.930054,183.004898 
	C265.405518,183.004898 273.768066,183.004898 282.603210,183.036942 
	C283.075867,183.068985 283.002441,183.000061 282.998749,183.437164 
	C282.973389,192.272842 282.951721,200.671387 282.930054,209.069946 
	C282.930054,209.069946 283.002380,208.999893 283.039124,208.965424 
z"/>
<path fill="#FFFFFF" opacity="1.000000" stroke="none" 
	d="
M334.402161,105.037445 
	C333.930054,96.943802 333.930054,88.817657 333.930054,79.995049 
	C351.103485,79.995049 368.114563,79.995049 385.597809,79.962555 
	C386.069946,88.056252 386.069946,96.182442 386.069946,105.004951 
	C368.896484,105.004951 351.885376,105.004951 334.402161,105.037445 
z"/>
<path fill="#FFFFFF" opacity="1.000000" stroke="none" 
	d="
M128.037445,542.597900 
	C119.671394,543.048279 111.272835,543.026611 102.402176,543.037476 
	C101.951729,526.338074 101.973389,509.606201 101.962555,492.402191 
	C110.328613,491.951721 118.727165,491.973389 127.597832,491.962555 
	C128.048279,508.661957 128.026611,525.393860 128.037445,542.597900 
z"/>
<path fill="#FFFFFF" opacity="1.000000" stroke="none" 
	d="
M180.039124,517.965393 
	C171.627808,517.930908 163.179779,517.930908 154.004898,517.930908 
	C154.004898,509.595917 154.004898,501.232666 154.036942,492.396790 
	C154.068985,491.924133 154.000061,491.997559 154.437164,492.001251 
	C163.274811,491.980286 171.675339,491.955627 180.040619,492.402802 
	C179.980255,501.273071 179.955154,509.671509 179.930054,518.069946 
	C179.930054,518.069946 180.002396,517.999878 180.039124,517.965393 
z"/>
<path fill="#000000" opacity="1.000000" stroke="none" 
	d="
M256.962585,492.402161 
	C265.328491,491.955170 273.726959,491.980255 282.562744,492.003876 
	C283.000122,492.002411 282.930054,491.930054 282.962585,492.402130 
	C282.995087,501.125061 282.995087,509.375916 282.995087,517.651367 
	C291.915802,517.651367 300.414124,517.651367 309.069946,517.651367 
	C309.069946,508.845490 309.069946,500.387787 309.034912,491.966248 
	C308.999908,492.002441 308.930969,492.075867 308.930969,492.075867 
	C334.389832,492.075867 359.848694,492.075867 385.696411,492.075867 
	C385.696411,483.512939 385.696411,475.110474 385.696411,466.319061 
	C394.470093,466.319061 402.873749,466.319061 411.842041,466.319061 
	C411.842041,457.429138 411.842041,448.899353 411.842041,440.196594 
	C420.471771,440.196594 428.535767,440.196594 436.976318,440.196594 
	C436.976318,457.446411 436.976318,474.505493 436.976318,491.995056 
	C454.274658,491.995056 471.200165,491.995056 488.597839,491.962555 
	C489.048309,500.328613 489.026642,508.727173 489.037476,517.597839 
	C463.524994,518.069946 437.980011,518.069946 411.994385,518.069946 
	C411.994385,526.274597 411.994385,534.199890 411.994019,542.562622 
	C411.993652,542.999939 412.062469,542.926758 412.062469,542.926758 
	C403.666504,542.949402 395.270508,542.972046 386.437195,542.996216 
	C385.999817,542.997742 386.069946,543.069946 386.037415,542.597900 
	C386.004913,534.201172 386.004913,526.276611 386.004913,518.338257 
	C368.413605,518.338257 351.263214,518.338257 333.930054,518.338257 
	C333.930054,526.807312 333.930054,534.938660 333.965088,543.033813 
	C334.000122,542.997620 334.069031,542.924194 334.069031,542.924194 
	C308.512573,542.924194 282.956116,542.924194 256.995087,542.924194 
	C256.995087,526.031982 256.995087,509.453125 256.962585,492.402161 
z"/>
<path fill="#000000" opacity="1.000000" stroke="none" 
	d="
M256.597870,465.962585 
	C257.048279,474.328613 257.026611,482.727142 257.037445,491.597839 
	C240.338181,492.044861 223.606400,492.019775 206.437256,491.996155 
	C205.999893,491.997620 206.069946,492.069946 206.037445,491.597839 
	C206.004944,482.764374 206.004944,474.403076 206.004944,465.930054 
	C196.822540,465.930054 188.376297,465.930054 179.966278,465.965027 
	C180.002487,466.000031 180.075912,466.068970 180.075928,466.068970 
	C180.048965,457.670746 180.022018,449.272522 179.962555,440.402161 
	C196.661942,439.951721 213.393814,439.973389 230.597824,439.962555 
	C231.069946,448.376251 231.069946,456.822449 231.069946,465.995087 
	C239.402740,465.995087 247.764267,465.995087 256.597870,465.962585 
z"/>
<path fill="#000000" opacity="1.000000" stroke="none" 
	d="
M385.965332,542.961060 
	C385.930878,551.389648 385.930878,559.854980 385.930878,568.660034 
	C368.738098,568.660034 351.585632,568.660034 334.004883,568.660034 
	C334.004883,560.386414 334.004883,552.127930 334.036957,543.396851 
	C334.069031,542.924194 334.000122,542.997620 334.437225,543.001343 
	C351.939545,543.026672 369.004730,543.048340 386.069946,543.069946 
	C386.069946,543.069946 385.999817,542.997742 385.965332,542.961060 
z"/>
<path fill="#000000" opacity="1.000000" stroke="none" 
	d="
M309.043030,594.965698 
	C300.614685,594.931396 292.149658,594.931396 283.342407,594.931396 
	C283.342407,586.517090 283.342407,578.126648 283.342407,569.367310 
	C291.555573,569.367310 300.060364,569.367310 308.995514,569.367310 
	C308.995514,577.613220 308.995514,585.870850 308.966522,594.600830 
	C308.937531,595.073242 309.006348,595.000061 309.043030,594.965698 
z"/>
<path fill="#000000" opacity="1.000000" stroke="none" 
	d="
M180.402130,518.037476 
	C179.955154,509.671509 179.980255,501.273071 180.003891,492.437256 
	C180.002426,491.999908 179.930054,492.069946 180.402130,492.037415 
	C189.272781,492.026581 197.671371,492.048248 206.069946,492.069946 
	C206.069946,492.069946 205.999893,491.997620 205.965439,491.960876 
	C205.930984,500.371399 205.930984,508.818665 205.930984,518.004944 
	C197.597427,518.004944 189.235825,518.004944 180.402130,518.037476 
z"/>
<path fill="#000000" opacity="1.000000" stroke="none" 
	d="
M411.956970,543.034302 
	C420.052368,543.068604 428.184418,543.068604 436.658173,543.068604 
	C436.658173,551.483704 436.658173,559.873779 436.658173,568.632690 
	C428.777649,568.632690 420.606232,568.632690 412.004486,568.632690 
	C412.004486,560.385986 412.004486,552.128784 412.033478,543.399170 
	C412.062469,542.926758 411.993652,542.999939 411.956970,543.034302 
z"/>
<path fill="#000000" opacity="1.000000" stroke="none" 
	d="
M489.402161,492.037415 
	C488.951752,483.671387 488.973419,475.272858 488.962585,466.402161 
	C505.715942,465.930054 522.501831,465.930054 539.643799,465.930054 
	C539.643799,474.580841 539.643799,483.089142 539.643799,492.004913 
	C523.029480,492.004913 506.451874,492.004913 489.402161,492.037415 
z"/>
<path fill="#000000" opacity="1.000000" stroke="none" 
	d="
M592.000000,616.862793 
	C592.000000,609.411987 592.000000,602.446533 592.000000,595.242737 
	C600.709656,595.242737 609.113647,595.242737 617.759888,595.242737 
	C617.759888,603.715027 617.759888,612.118958 617.759888,620.998535 
	C609.913757,620.998535 602.134521,620.895386 594.360291,621.047913 
	C591.127319,621.111389 592.185181,618.953613 592.000000,616.862793 
z"/>
<path fill="#000000" opacity="1.000000" stroke="none" 
	d="
M334.402130,363.037415 
	C333.951691,354.671387 333.973358,346.272858 333.962524,337.402161 
	C368.045715,336.930054 402.161407,336.930054 436.638489,336.930054 
	C436.638489,345.577332 436.638489,354.093109 436.638489,363.004913 
	C402.687836,363.004913 368.781036,363.004913 334.402130,363.037415 
z"/>
<path fill="#000000" opacity="1.000000" stroke="none" 
	d="
M540.034302,389.043030 
	C540.068604,380.608154 540.068604,372.136597 540.068604,363.332642 
	C557.168396,363.332642 574.216492,363.332642 591.632690,363.332642 
	C591.632690,371.562592 591.632690,380.073822 591.632690,388.995514 
	C574.703796,388.995514 557.787720,388.995514 540.399170,388.966522 
	C539.926758,388.937531 539.999939,389.006348 540.034302,389.043030 
z"/>
<path fill="#000000" opacity="1.000000" stroke="none" 
	d="
M386.037415,182.597870 
	C377.671387,183.048279 369.272858,183.026611 360.402161,183.037445 
	C359.930054,174.612274 359.930054,166.154602 359.930054,157.348618 
	C368.585876,157.348618 377.084229,157.348618 386.004913,157.348618 
	C386.004913,165.624100 386.004913,173.874954 386.037415,182.597870 
z"/>
<path fill="#000000" opacity="1.000000" stroke="none" 
	d="
M283.402130,209.037445 
	C282.951721,200.671387 282.973389,192.272842 282.962555,183.402161 
	C291.376282,182.930054 299.822540,182.930054 309.004944,182.930054 
	C309.004944,191.403076 309.004944,199.764389 309.037445,208.597824 
	C300.671356,209.048279 292.272797,209.026611 283.402130,209.037445 
z"/>
<path fill="#000000" opacity="1.000000" stroke="none" 
	d="
M462.597839,182.962555 
	C463.048279,191.328613 463.026611,199.727158 463.037445,208.597839 
	C454.612274,209.069946 446.154602,209.069946 437.348633,209.069946 
	C437.348633,200.414139 437.348633,191.915802 437.348633,182.995056 
	C445.624084,182.995056 453.874939,182.995056 462.597839,182.962555 
z"/>
<path fill="#000000" opacity="1.000000" stroke="none" 
	d="
M386.402161,209.037445 
	C385.951721,200.671387 385.973389,192.272842 385.962555,183.402161 
	C394.387726,182.930054 402.845398,182.930054 411.651367,182.930054 
	C411.651367,191.585861 411.651367,200.084198 411.651367,209.004944 
	C403.375916,209.004944 395.125061,209.004944 386.402161,209.037445 
z"/>
<path fill="#000000" opacity="1.000000" stroke="none" 
	d="
M360.037445,208.597870 
	C351.671387,209.048279 343.272858,209.026611 334.402161,209.037445 
	C333.930054,200.623703 333.930054,192.177460 333.930054,182.995056 
	C342.403076,182.995056 350.764374,182.995056 359.597839,182.962555 
	C360.048279,191.328629 360.026611,199.727219 360.037445,208.597870 
z"/>
<path fill="#000000" opacity="1.000000" stroke="none" 
	d="
M333.597870,208.962555 
	C334.048279,216.995270 334.026611,225.060501 334.037445,233.597839 
	C325.957062,234.069946 317.844147,234.069946 308.995056,234.069946 
	C308.995056,225.930923 308.995056,217.902603 308.962555,209.402161 
	C316.995300,208.951721 325.060547,208.973389 333.597870,208.962555 
z"/>
<path fill="#000000" opacity="1.000000" stroke="none" 
	d="
M180.039154,491.965454 
	C171.675339,491.955627 163.274811,491.980286 154.402161,492.037445 
	C153.930054,483.623108 153.930054,475.176300 153.930054,466.004883 
	C162.405563,466.004883 170.768097,466.004883 179.603271,466.036926 
	C180.075912,466.068970 180.002487,466.000031 179.998779,466.437164 
	C179.973389,475.272858 179.951721,483.671387 179.930054,492.069946 
	C179.930054,492.069946 180.002426,491.999908 180.039154,491.965454 
z"/>
<path fill="#000000" opacity="1.000000" stroke="none" 
	d="
M283.034607,492.039124 
	C283.044403,483.675323 283.019745,475.274811 282.962555,466.402161 
	C291.376862,465.930054 299.823669,465.930054 308.995117,465.930054 
	C308.995117,474.405518 308.995117,482.768066 308.963043,491.603210 
	C308.930969,492.075867 308.999908,492.002441 308.562805,491.998749 
	C299.727142,491.973389 291.328613,491.951721 282.930054,491.930054 
	C282.930054,491.930054 283.000122,492.002411 283.034607,492.039124 
z"/>
<path fill="#010101" opacity="1.000000" stroke="none" 
	d="
M656.007996,156.999512 
	C651.703918,156.999512 647.898132,156.999512 643.830444,156.999512 
	C643.830444,131.286346 643.830444,105.888702 643.830444,80.151428 
	C669.246460,80.151428 694.794189,80.151428 720.615845,80.151428 
	C720.615845,105.506798 720.615845,130.909943 720.615845,156.999512 
	C699.303711,156.999512 677.904968,156.999512 656.007996,156.999512 
z"/>
<path fill="#000000" opacity="1.000000" stroke="none" 
	d="
M153.998245,141.995972 
	C153.998245,147.135223 153.998245,151.775177 153.998245,156.705887 
	C128.270157,156.705887 102.750732,156.705887 77.022293,156.705887 
	C77.022293,131.211380 77.022293,105.820755 77.022293,80.121902 
	C102.562515,80.121902 128.071777,80.121902 153.998245,80.121902 
	C153.998245,100.634766 153.998245,121.065720 153.998245,141.995972 
z"/>
<path fill="#010101" opacity="1.000000" stroke="none" 
	d="
M146.910095,723.886475 
	C123.460045,723.886475 100.500343,723.886475 77.177940,723.886475 
	C77.177940,698.158936 77.177940,672.643799 77.177940,646.847168 
	C102.562233,646.847168 127.962906,646.847168 153.681152,646.847168 
	C153.681152,672.242981 153.681152,697.785889 153.681152,723.886475 
	C151.606216,723.886475 149.503326,723.886475 146.910095,723.886475 
z"/>
<path fill="#FFFFFF" opacity="1.000000" stroke="none" 
	d="
M386.037415,542.597900 
	C369.004730,543.048340 351.939545,543.026672 334.402191,543.037476 
	C333.930054,534.938660 333.930054,526.807312 333.930054,518.338257 
	C351.263214,518.338257 368.413605,518.338257 386.004913,518.338257 
	C386.004913,526.276611 386.004913,534.201172 386.037415,542.597900 
z"/>
<path fill="#FFFFFF" opacity="1.000000" stroke="none" 
	d="
M282.962585,492.402130 
	C291.328613,491.951721 299.727142,491.973389 308.597839,491.962555 
	C309.069946,500.387787 309.069946,508.845490 309.069946,517.651367 
	C300.414124,517.651367 291.915802,517.651367 282.995087,517.651367 
	C282.995087,509.375916 282.995087,501.125061 282.962585,492.402130 
z"/>
<path fill="#FFFFFF" opacity="1.000000" stroke="none" 
	d="
M180.402130,492.037415 
	C179.951721,483.671387 179.973389,475.272858 179.962555,466.402161 
	C188.376297,465.930054 196.822540,465.930054 206.004944,465.930054 
	C206.004944,474.403076 206.004944,482.764374 206.037445,491.597839 
	C197.671371,492.048248 189.272781,492.026581 180.402130,492.037415 
z"/>
</svg>