<svg version="1.1" id="Layer_1" xmlns="http://www.w3.org/2000/svg" xmlns:xlink="http://www.w3.org/1999/xlink" x="0px" y="0px"
	 width="100%" viewBox="0 0 800 800" enable-background="new 0 0 800 800" xml:space="preserve">
<path fill="#FEFEFE" opacity="1.000000" stroke="none" 
	d="
M1.000000,217.000000 
	C1.000000,144.666672 1.000000,72.833336 1.000000,1.000000 
	C267.666656,1.000000 534.333313,1.000000 801.000000,1.000000 
	C801.000000,267.666656 801.000000,534.333313 801.000000,801.000000 
	C534.333313,801.000000 267.666656,801.000000 1.000000,801.000000 
	C1.000000,606.500000 1.000000,412.000000 1.000000,217.000000 
M461.130463,181.005798 
	C452.878784,181.005798 444.627136,181.005798 436.350525,181.005798 
	C436.350525,189.916016 436.350525,198.414673 436.350525,206.931168 
	C445.158600,206.931168 453.617188,206.931168 462.006256,207.874863 
	C462.006256,215.803329 462.006256,223.731781 462.006256,231.668365 
	C436.077972,231.668365 410.601440,231.668365 384.924194,231.668365 
	C384.924194,223.201309 384.924194,215.066269 385.869537,206.994202 
	C394.121216,206.994202 402.372864,206.994202 410.649475,206.994202 
	C410.649475,198.083984 410.649475,189.585327 410.649475,181.068832 
	C401.841400,181.068832 393.382812,181.068832 384.993744,180.125137 
	C384.993744,171.864014 384.993744,163.602875 384.993744,155.335785 
	C359.075745,155.335785 333.598938,155.335785 308.068848,155.335785 
	C308.068848,164.138855 308.068848,172.607330 307.125153,181.006271 
	C298.727173,181.029465 290.329193,181.052643 281.994202,180.130463 
	C281.994202,163.202011 281.994202,146.273560 281.994202,128.957916 
	C290.838440,128.957916 299.244598,128.957916 307.788147,128.957916 
	C307.788147,120.168015 307.788147,111.769905 307.788147,103.362183 
	C281.740021,103.362183 255.904434,103.362183 230.356995,103.362183 
	C230.356995,112.128471 230.356995,120.531708 230.356995,129.308472 
	C239.116730,129.308472 247.520721,129.308472 255.657257,129.308472 
	C255.657257,138.104599 255.657257,146.507446 255.657257,155.285583 
	C246.910553,155.285583 238.505188,155.285583 230.323059,155.285583 
	C230.323059,172.737259 230.323059,189.796738 230.323059,206.931168 
	C239.121780,206.931168 247.598770,206.931168 256.006256,207.874863 
	C256.006256,215.803574 256.006256,223.732285 256.006256,232.161682 
	C230.078537,232.161682 204.597549,232.161682 179.068802,232.161682 
	C179.068802,241.138748 179.068802,249.607285 178.125107,258.006256 
	C169.855377,258.006256 161.585663,258.006256 152.933472,258.006256 
	C152.933472,249.136353 152.933472,240.731750 152.933472,232.358322 
	C109.720322,232.358322 66.899063,232.358322 24.353043,232.358322 
	C24.353043,241.120560 24.353043,249.523483 24.353043,258.289795 
	C41.765198,258.289795 58.826450,258.289795 75.682724,258.289795 
	C75.682724,275.730865 75.682724,292.790466 75.682724,310.073242 
	C66.889435,310.073242 58.413563,310.073242 49.994602,309.128357 
	C49.994602,300.871246 49.994602,292.614136 49.994602,284.368347 
	C41.060257,284.368347 32.556034,284.368347 24.343594,284.368347 
	C24.343594,293.127258 24.343594,301.517181 24.343594,309.931488 
	C33.150593,309.931488 41.615158,309.931488 50.006561,310.874908 
	C50.006561,318.811127 50.006561,326.747345 50.006561,334.781433 
	C67.194481,334.781433 83.918053,334.781433 101.031250,334.781433 
	C101.031250,326.502289 101.031250,318.429443 101.031250,310.191681 
	C118.478806,310.191681 135.535675,310.191681 152.638702,310.191681 
	C152.638702,318.572998 152.638702,326.757019 152.638702,335.321838 
	C143.873001,335.321838 135.468506,335.321838 127.350456,335.321838 
	C127.350456,344.116272 127.350456,352.518524 127.350456,360.678406 
	C153.417480,360.678406 179.134369,360.678406 204.924179,360.678406 
	C204.924179,351.882507 204.924179,343.406860 205.869537,334.994202 
	C213.797531,334.994202 221.725510,334.994202 230.022064,334.994202 
	C230.022064,343.822876 230.022064,352.218781 230.022064,361.155731 
	C238.903244,361.155731 247.424515,361.155731 256.293121,361.155731 
	C256.293121,370.102020 256.293121,378.495880 256.293121,386.924164 
	C265.135864,386.924164 273.602325,386.924164 282.005798,387.869568 
	C282.005798,404.451599 282.005798,421.033630 282.005798,437.638489 
	C273.080292,437.638489 264.569275,437.638489 255.686081,437.638489 
	C255.686081,429.211670 255.686081,421.146027 255.686081,413.072968 
	C238.515549,413.072968 221.726730,413.072968 204.994598,412.128174 
	C204.994598,403.871063 204.994598,395.613983 204.994598,387.368439 
	C196.060150,387.368439 187.555969,387.368439 179.343689,387.368439 
	C179.343689,396.127350 179.343689,404.517151 179.343689,412.931213 
	C188.150803,412.931213 196.615387,412.931213 205.006577,413.874664 
	C205.006577,421.806702 205.006577,429.738739 205.006577,438.046509 
	C196.154541,438.046509 187.754639,438.046509 179.203064,438.046509 
	C179.203064,446.823914 179.203064,455.217072 179.203064,464.134460 
	C204.892105,464.134460 230.384171,464.134460 256.068817,464.134460 
	C256.068817,473.131042 256.068817,481.603424 255.125122,490.006256 
	C229.882629,490.006256 204.640121,490.006256 179.364044,490.006256 
	C179.364044,498.914246 179.364044,507.427460 179.364044,516.316895 
	C188.127258,516.316895 196.528625,516.316895 204.660950,516.316895 
	C204.660950,524.770630 204.660950,532.837036 204.660950,541.072937 
	C187.193451,541.072937 170.065674,541.072937 152.994614,540.128052 
	C152.994614,532.196411 152.994614,524.264832 152.994614,515.958496 
	C144.155533,515.958496 135.755157,515.958496 127.196968,515.958496 
	C127.196968,507.182312 127.196968,498.789429 127.196968,489.837738 
	C135.904266,489.837738 144.429337,489.837738 152.652161,489.837738 
	C152.652161,480.879303 152.652161,472.481934 152.652161,464.075836 
	C135.180618,464.075836 118.055923,464.075836 100.994202,463.130463 
	C100.970856,454.730713 100.947517,446.330963 101.869545,437.994202 
	C118.787544,437.994202 135.705536,437.994202 152.645111,437.994202 
	C152.645111,420.748383 152.645111,403.915253 152.645111,387.342224 
	C143.891678,387.342224 135.494171,387.342224 126.728546,387.342224 
	C126.728546,396.081116 126.728546,404.480988 126.728546,413.075836 
	C117.874199,413.075836 109.402710,413.075836 100.994194,412.130463 
	C100.994194,403.872894 100.994194,395.615326 100.994194,387.339478 
	C83.749367,387.339478 66.931328,387.339478 50.075825,387.339478 
	C50.075825,396.141479 50.075825,404.605133 49.130459,413.005798 
	C40.879124,413.005798 32.627789,413.005798 24.351036,413.005798 
	C24.351036,421.582642 24.351036,429.748657 24.351036,437.931152 
	C33.159275,437.931152 41.617538,437.931152 50.006283,438.874847 
	C50.006283,447.143799 50.006283,455.412750 50.006283,464.063110 
	C41.139381,464.063110 32.734341,464.063110 24.361891,464.063110 
	C24.361891,498.612671 24.361891,532.771240 24.361891,566.644653 
	C33.126953,566.644653 41.529266,566.644653 50.280769,566.644653 
	C50.280769,540.906799 50.280769,515.522644 50.280769,489.931183 
	C59.122955,489.931183 67.599388,489.931183 76.006279,490.874878 
	C76.006279,507.458954 76.006279,524.043030 76.006279,541.007935 
	C84.476021,541.007935 92.544106,541.007935 101.159409,541.007935 
	C101.159409,549.901184 101.159409,558.426453 101.159409,566.653198 
	C110.118332,566.653198 118.515831,566.653198 127.280312,566.653198 
	C127.280312,557.909607 127.280312,549.509705 127.280312,540.931152 
	C136.135223,540.931152 144.607605,540.931152 153.006577,541.874634 
	C153.006577,550.141724 153.006577,558.408813 153.006577,567.026367 
	C178.839081,567.026367 204.218033,567.026367 230.142517,567.026367 
	C230.142517,584.554504 230.142517,601.732483 230.142517,618.662720 
	C239.093430,618.662720 247.492966,618.662720 256.265198,618.662720 
	C256.265198,609.926819 256.265198,601.524170 256.265198,592.931091 
	C265.126373,592.931091 273.601044,592.931091 282.006256,593.874817 
	C282.006256,610.784058 282.006256,627.693298 282.006256,645.130249 
	C299.219055,645.130249 316.050873,645.130249 332.914062,645.130249 
	C332.914062,653.794006 332.914062,661.927673 332.987305,669.992798 
	C332.987305,669.992798 333.055847,669.919739 332.114166,669.995239 
	C306.841064,669.995239 281.567963,669.995239 255.897064,669.995239 
	C255.897064,661.435547 255.897064,653.356201 255.897064,645.257202 
	C247.088501,645.257202 238.683701,645.257202 230.260681,645.257202 
	C230.260681,687.917969 230.260681,730.321899 230.260681,772.734497 
	C238.928391,772.734497 247.334137,772.734497 256.135498,772.734497 
	C256.135498,764.398926 256.135498,756.320984 256.135498,747.854370 
	C264.941803,747.854370 273.353271,747.854370 282.151703,747.854370 
	C282.151703,730.381775 282.151703,713.306396 282.151703,696.279175 
	C290.961426,696.279175 299.367767,696.279175 308.168060,696.279175 
	C308.168060,713.631042 308.168060,730.706482 308.168060,747.710327 
	C316.644989,747.710327 324.718018,747.710327 333.183807,747.710327 
	C333.183807,739.015198 333.183807,730.602356 333.183807,721.806763 
	C359.323120,721.806763 385.063599,721.806763 411.198608,721.806763 
	C411.198608,704.334106 411.198608,687.258789 411.198608,670.302612 
	C419.676514,670.302612 427.750458,670.302612 436.215332,670.302612 
	C436.215332,679.013550 436.215332,687.426453 436.215332,695.925842 
	C445.098175,695.925842 453.580566,695.925842 462.005402,696.871094 
	C462.028168,713.934937 462.050903,730.998840 461.128632,748.005371 
	C435.883606,748.005371 410.638550,748.005371 385.368164,748.005371 
	C385.368164,756.585693 385.368164,764.766663 385.368164,772.671753 
	C411.112305,772.671753 436.488708,772.671753 461.931915,772.671753 
	C461.931915,764.203369 461.931915,756.062012 462.875305,747.993469 
	C496.783203,747.993469 530.691101,747.993469 564.633667,747.993469 
	C564.633667,739.086426 564.633667,730.570374 564.633667,721.699341 
	C538.885986,721.699341 513.503174,721.699341 487.737671,721.699341 
	C487.737671,712.934021 487.737671,704.529602 487.737671,696.067627 
	C478.873047,696.067627 470.397003,696.067627 461.993500,695.124268 
	C461.993500,686.858215 461.993500,678.592163 461.993500,669.948486 
	C470.850067,669.948486 479.252380,669.948486 488.027802,669.948486 
	C488.027802,661.504272 488.027802,653.435486 488.027802,645.194580 
	C496.808990,645.194580 505.203735,645.194580 514.161011,645.194580 
	C514.161011,653.568054 514.161011,661.763733 514.161011,670.314331 
	C522.791016,670.314331 530.859436,670.314331 539.294312,670.314331 
	C539.294312,679.100098 539.294312,687.501953 539.294312,696.087219 
	C556.807312,696.087219 573.935059,696.087219 590.994385,696.013977 
	C590.994385,696.013977 590.921326,695.945374 590.995361,696.886963 
	C590.995361,705.156738 590.995361,713.426514 590.995361,721.769775 
	C608.544556,721.769775 625.604919,721.769775 643.048279,721.769775 
	C643.048279,704.481079 643.048279,687.417419 643.048279,669.966064 
	C651.495850,669.966064 659.569336,669.966064 668.016296,669.966064 
	C668.016296,652.847229 668.016296,636.116089 668.016296,619.195435 
	C676.800598,619.195435 685.200195,619.195435 694.161072,619.195435 
	C694.161072,636.236145 694.161072,653.089478 694.161072,669.658508 
	C720.112610,669.658508 745.502319,669.658508 770.670044,669.658508 
	C770.670044,652.587646 770.670044,635.858521 770.670044,618.751953 
	C753.611938,618.751953 736.880859,618.751953 720.087219,618.751953 
	C720.087219,609.890869 720.087219,601.414001 720.013977,593.005615 
	C720.013977,593.005615 719.945374,593.078674 720.886963,593.004639 
	C729.136475,593.004639 737.385986,593.004639 745.924194,593.004639 
	C745.924194,575.362549 745.924194,558.146912 746.869568,540.994202 
	C754.788025,540.994202 762.706482,540.994202 770.649536,540.994202 
	C770.649536,532.416992 770.649536,524.251648 770.649536,516.068787 
	C762.174744,516.068787 754.049438,516.068787 745.993713,515.125061 
	C745.993713,498.203339 745.993713,481.281616 745.993713,464.206848 
	C737.172180,464.206848 728.777100,464.206848 719.996277,464.206848 
	C719.996277,472.804169 719.996277,481.207214 719.996277,489.639893 
	C711.090759,489.639893 702.576172,489.639893 693.684143,489.639893 
	C693.684143,480.878052 693.684143,472.475983 693.684143,464.327515 
	C676.575806,464.327515 659.855042,464.327515 643.068909,464.327515 
	C643.068909,473.127655 643.068909,481.601654 642.125183,490.006256 
	C633.727173,490.029449 625.329163,490.052612 616.994202,489.130432 
	C616.994202,472.218658 616.994202,455.306885 616.994202,437.865051 
	C634.219116,437.865051 651.052734,437.865051 667.931091,437.865051 
	C667.931091,429.196381 667.931091,421.060364 668.874817,412.993744 
	C685.816772,412.993744 702.758728,412.993744 720.097412,412.993744 
	C720.097412,421.558807 720.097412,429.637848 720.097412,437.745056 
	C737.238464,437.745056 753.976990,437.745056 770.739990,437.745056 
	C770.739990,420.751221 770.739990,404.012634 770.739990,386.875153 
	C762.409180,386.875153 754.331604,386.875153 745.864380,386.875153 
	C745.864380,378.068542 745.864380,369.658112 745.864380,361.274048 
	C737.054199,361.274048 728.648254,361.274048 719.847046,361.274048 
	C719.847046,369.952911 719.847046,378.365509 719.847046,386.719574 
	C711.036438,386.719574 702.629883,386.719574 693.828735,386.719574 
	C693.828735,378.031952 693.828735,369.619232 693.828735,360.821716 
	C685.020874,360.821716 676.608582,360.821716 668.293091,360.821716 
	C668.293091,352.010193 668.293091,343.603241 668.293091,334.803406 
	C676.994202,334.803406 685.406433,334.803406 694.203613,334.803406 
	C694.203613,326.327942 694.203613,318.248932 694.203613,309.785583 
	C703.012573,309.785583 711.425354,309.785583 719.925842,309.785583 
	C719.925842,300.902252 719.925842,292.419647 720.871094,283.994568 
	C729.134888,283.994568 737.398682,283.994568 745.631958,283.994568 
	C745.631958,266.383881 745.631958,249.220428 745.631958,232.353317 
	C736.866455,232.353317 728.469604,232.353317 720.067627,232.353317 
	C720.067627,249.830109 720.067627,266.954559 719.124268,284.006500 
	C710.848083,284.006500 702.571899,284.006500 693.902466,284.006500 
	C693.902466,266.440704 693.902466,249.364975 693.902466,232.254807 
	C685.093811,232.254807 676.688354,232.254807 667.885742,232.254807 
	C667.885742,240.913193 667.885742,249.324631 667.885742,257.739044 
	C659.409363,257.739044 651.337280,257.739044 642.867798,257.739044 
	C642.867798,249.072556 642.867798,240.661301 642.867798,232.272217 
	C634.058167,232.272217 625.652161,232.272217 616.850891,232.272217 
	C616.850891,240.949036 616.850891,249.361313 616.850891,257.721619 
	C608.040466,257.721619 599.634033,257.721619 590.833008,257.721619 
	C590.833008,249.036377 590.833008,240.623535 590.833008,231.826141 
	C582.025391,231.826141 573.612915,231.826141 564.815674,231.826141 
	C564.815674,214.685913 564.815674,197.943527 564.815674,181.298187 
	C556.004944,181.298187 547.598328,181.298187 538.798950,181.298187 
	C538.798950,190.002609 538.798950,198.415085 538.798950,206.695679 
	C530.320618,206.695679 522.246643,206.695679 513.781067,206.695679 
	C513.781067,197.982727 513.781067,189.569901 513.781067,181.075821 
	C504.897461,181.075821 496.414337,181.075821 487.994232,180.130463 
	C488.037842,171.792572 488.081451,163.454666 489.040863,155.007309 
	C514.299377,155.007309 539.557861,155.007309 564.691772,155.007309 
	C564.691772,120.320526 564.691772,86.249001 564.691772,52.073215 
	C555.902649,52.073215 547.420227,52.073215 538.994690,51.128323 
	C538.994690,42.871605 538.994690,34.614887 538.994690,26.368412 
	C530.394043,26.368412 522.222717,26.368412 514.343018,26.368412 
	C514.343018,35.126980 514.343018,43.516502 514.343018,51.931465 
	C522.816650,51.931465 530.948303,51.931465 539.006592,52.874847 
	C539.006592,61.124393 539.006592,69.373940 539.006592,78.155258 
	C530.429077,78.155258 522.251465,78.155258 513.912964,78.155258 
	C513.912964,86.816330 513.912964,94.939308 513.986206,102.993881 
	C513.986206,102.993881 514.054810,102.920807 513.113220,102.995308 
	C504.846802,102.995308 496.580383,102.995308 488.276917,102.995308 
	C488.276917,120.732208 488.276917,137.991653 487.284454,155.019699 
	C478.829681,155.035965 470.374939,155.052231 461.993469,154.125107 
	C461.993469,137.215820 461.993469,120.306549 461.993469,102.869553 
	C444.780823,102.869553 427.949005,102.869553 410.926483,102.869553 
	C410.926483,94.205688 410.926483,86.071541 411.871490,77.994583 
	C437.120941,77.994583 462.370361,77.994583 487.800476,77.994583 
	C487.800476,69.190147 487.800476,60.793686 487.800476,51.845249 
	C470.430206,51.845249 453.250153,51.845249 435.696228,51.845249 
	C435.696228,42.891052 435.696228,34.488941 435.696228,26.339636 
	C427.237427,26.339636 419.169525,26.339636 411.068237,26.339636 
	C411.068237,43.811928 411.068237,60.945671 410.124847,78.006538 
	C401.729523,77.975746 393.334229,77.944946 385.007294,77.987381 
	C385.007294,77.987381 385.080414,78.055931 385.004761,77.114288 
	C385.004761,68.845711 385.004761,60.577126 385.004761,51.926331 
	C376.125061,51.926331 367.719635,51.926331 358.936462,51.926331 
	C358.936462,43.139336 358.936462,34.733509 358.936462,26.222370 
	C350.146240,26.222370 341.748138,26.222370 333.362000,26.222370 
	C333.362000,60.606754 333.362000,94.768478 333.362000,129.286850 
	C367.767975,129.286850 401.813385,129.286850 436.245117,129.286850 
	C436.245117,138.047760 436.245117,146.453445 436.245117,154.926743 
	C445.111115,154.926743 453.586639,154.926743 462.005371,155.871643 
	C462.028839,164.270691 462.052338,172.669724 461.130463,181.005798 
M746.005371,722.871582 
	C746.005371,731.128296 746.005371,739.385010 746.005371,747.631653 
	C754.605896,747.631653 762.777283,747.631653 770.656982,747.631653 
	C770.656982,738.873169 770.656982,730.483765 770.656982,722.068359 
	C762.183411,722.068359 754.051758,722.068359 745.993408,721.124939 
	C745.993408,712.855652 745.993408,704.586304 745.993408,696.218506 
	C728.472412,696.218506 711.415466,696.218506 693.968994,696.218506 
	C693.968994,704.830872 693.968994,713.236633 693.968994,722.019897 
	C685.184204,722.019897 676.778442,722.019897 667.994751,722.019897 
	C667.994751,730.804321 667.994751,739.210083 667.994751,747.994568 
	C659.543945,747.994568 651.470886,747.994568 643.364380,747.994568 
	C643.364380,756.574036 643.364380,764.757874 643.364380,772.663269 
	C669.113037,772.663269 694.497681,772.663269 720.256714,772.663269 
	C720.256714,755.601501 720.256714,738.873840 720.256714,721.926636 
	C729.110901,721.926636 737.586548,721.926636 746.005371,722.871582 
M695.500183,26.322922 
	C660.788147,26.322922 626.076172,26.322922 591.463074,26.322922 
	C591.463074,86.767982 591.463074,146.328995 591.463074,205.898254 
	C651.463501,205.898254 711.167725,205.898254 770.766541,205.898254 
	C770.766541,145.933838 770.766541,86.261009 770.766541,26.322933 
	C745.760071,26.322933 721.130188,26.322933 695.500183,26.322922 
M175.500183,26.325281 
	C125.377724,26.325281 75.255257,26.325281 24.996397,26.325281 
	C24.996397,86.533173 24.996397,146.238464 24.996397,205.901764 
	C84.910126,205.901764 144.492065,205.901764 204.111725,205.901764 
	C204.111725,146.016953 204.111725,86.417862 204.111725,26.325293 
	C194.757538,26.325293 185.628860,26.325293 175.500183,26.325281 
M29.557938,593.000427 
	C27.964165,593.000427 26.370392,593.000427 24.989895,593.000427 
	C24.989895,653.379089 24.989895,713.104919 24.989895,772.822144 
	C84.894150,772.822144 144.475235,772.822144 204.125671,772.822144 
	C204.125671,712.837402 204.125671,653.107544 204.125671,593.000427 
	C146.122711,593.000427 88.337151,593.000427 29.557938,593.000427 
M307.941193,77.267212 
	C307.941193,68.979713 307.941193,60.692211 307.941193,52.205402 
	C299.210999,52.205402 290.807434,52.205402 282.202271,52.205402 
	C282.202271,60.795414 282.202271,69.198982 282.202271,77.942657 
	C290.678741,77.942657 298.964783,77.942657 307.941193,77.267212 
M242.502197,52.000977 
	C238.401138,52.000977 234.300079,52.000977 230.287659,52.000977 
	C230.287659,60.979729 230.287659,69.382927 230.287659,77.711906 
	C238.980591,77.711906 247.383789,77.711906 255.711487,77.711906 
	C255.711487,69.018539 255.711487,60.615334 255.711487,52.000977 
	C251.449493,52.000977 247.473190,52.000977 242.502197,52.000977 
M605.487183,748.000916 
	C600.723450,748.000916 595.959717,748.000916 591.292847,748.000916 
	C591.292847,756.656921 591.292847,764.727295 591.292847,772.706665 
	C599.991272,772.706665 608.394653,772.706665 616.706055,772.706665 
	C616.706055,764.340759 616.706055,756.270386 616.706055,748.000916 
	C613.104370,748.000916 609.792297,748.000916 605.487183,748.000916 
M767.347839,310.000977 
	C760.262634,310.000977 753.177429,310.000977 746.344543,310.000977 
	C746.344543,318.759735 746.344543,326.834106 746.344543,334.652771 
	C754.765076,334.652771 762.839600,334.652771 770.998962,334.652771 
	C770.998962,327.314728 770.968445,320.322449 771.018738,313.330750 
	C771.032715,311.385254 771.198059,309.512207 767.347839,310.000977 
z"/>
<path fill="#000000" opacity="1.000000" stroke="none" 
	d="
M616.931152,490.075806 
	C625.329163,490.052612 633.727173,490.029449 642.562622,490.004272 
	C643.000122,490.002319 642.930054,489.930054 642.962524,490.402130 
	C642.995056,499.234772 642.995056,507.595337 642.995056,516.069946 
	C651.842651,516.069946 659.956299,516.069946 668.034973,516.034973 
	C668.000000,516.000000 667.930054,515.930054 667.962524,516.402161 
	C667.995056,524.799866 667.995056,532.725464 667.995056,541.069946 
	C694.313293,541.069946 720.191589,541.069946 746.033752,541.035034 
	C745.997559,541.000061 745.924194,540.931274 745.924194,540.931274 
	C745.924194,558.146912 745.924194,575.362549 745.924194,593.004639 
	C737.385986,593.004639 729.136475,593.004639 720.441528,592.568359 
	C719.996033,583.867249 719.996033,575.602417 719.996033,567.368164 
	C702.384827,567.368164 685.220276,567.368164 668.353394,567.368164 
	C668.353394,576.135498 668.353394,584.533081 668.353394,592.937195 
	C685.833618,592.937195 702.960388,592.937195 720.087219,592.937195 
	C720.087219,601.414001 720.087219,609.890869 720.087219,618.751953 
	C736.880859,618.751953 753.611938,618.751953 770.670044,618.751953 
	C770.670044,635.858521 770.670044,652.587646 770.670044,669.658508 
	C745.502319,669.658508 720.112610,669.658508 694.161072,669.658508 
	C694.161072,653.089478 694.161072,636.236145 694.161072,619.195435 
	C685.200195,619.195435 676.800598,619.195435 668.016296,619.195435 
	C668.016296,636.116089 668.016296,652.847229 668.016296,669.966064 
	C659.569336,669.966064 651.495850,669.966064 643.048279,669.966064 
	C643.048279,687.417419 643.048279,704.481079 643.048279,721.769775 
	C625.604919,721.769775 608.544556,721.769775 590.995361,721.769775 
	C590.995361,713.426514 590.995361,705.156738 591.431641,696.441528 
	C600.126404,695.996033 608.385010,695.996033 616.631836,695.996033 
	C616.631836,687.060791 616.631836,678.555664 616.631836,670.343994 
	C607.871155,670.343994 599.480164,670.343994 591.062805,670.343994 
	C591.062805,679.154236 591.062805,687.620728 591.062805,696.087219 
	C573.935059,696.087219 556.807312,696.087219 539.294312,696.087219 
	C539.294312,687.501953 539.294312,679.100098 539.294312,670.314331 
	C530.859436,670.314331 522.791016,670.314331 514.161011,670.314331 
	C514.161011,661.763733 514.161011,653.568054 514.161011,645.194580 
	C505.203735,645.194580 496.808990,645.194580 488.027802,645.194580 
	C488.027802,653.435486 488.027802,661.504272 488.027802,669.948486 
	C479.252380,669.948486 470.850067,669.948486 461.993500,669.948486 
	C461.993500,678.592163 461.993500,686.858215 461.993896,695.561646 
	C461.994263,695.999023 462.062958,695.925842 462.062958,695.925842 
	C453.580566,695.925842 445.098175,695.925842 436.215332,695.925842 
	C436.215332,687.426453 436.215332,679.013550 436.215332,670.302612 
	C427.750458,670.302612 419.676514,670.302612 411.198608,670.302612 
	C411.198608,687.258789 411.198608,704.334106 411.198608,721.806763 
	C385.063599,721.806763 359.323120,721.806763 333.183807,721.806763 
	C333.183807,730.602356 333.183807,739.015198 333.183807,747.710327 
	C324.718018,747.710327 316.644989,747.710327 308.168060,747.710327 
	C308.168060,730.706482 308.168060,713.631042 308.168060,696.279175 
	C299.367767,696.279175 290.961426,696.279175 282.151703,696.279175 
	C282.151703,713.306396 282.151703,730.381775 282.151703,747.854370 
	C273.353271,747.854370 264.941803,747.854370 256.135498,747.854370 
	C256.135498,756.320984 256.135498,764.398926 256.135498,772.734497 
	C247.334137,772.734497 238.928391,772.734497 230.260681,772.734497 
	C230.260681,730.321899 230.260681,687.917969 230.260681,645.257202 
	C238.683701,645.257202 247.088501,645.257202 255.897064,645.257202 
	C255.897064,653.356201 255.897064,661.435547 255.897064,669.995239 
	C281.567963,669.995239 306.841064,669.995239 332.559113,670.430908 
	C333.004059,679.128540 333.004059,687.390503 333.004059,695.646729 
	C350.599823,695.646729 367.758850,695.646729 384.926666,695.646729 
	C384.926666,678.508057 384.926666,661.722656 385.399109,644.966431 
	C411.117554,644.995544 436.363495,644.995544 461.632721,644.995544 
	C461.632721,636.080322 461.632721,627.565979 461.632721,619.327881 
	C435.887512,619.327881 410.510071,619.327881 385.068542,619.327881 
	C385.068542,628.130066 385.068542,636.604797 384.596863,645.042542 
	C375.873535,645.005615 367.621918,645.005615 358.835754,645.005615 
	C358.835754,653.581116 358.835754,661.760803 358.835754,670.061279 
	C349.834442,670.061279 341.374237,670.061279 332.914062,670.061279 
	C332.914062,661.927673 332.914062,653.794006 332.914062,645.130249 
	C316.050873,645.130249 299.219055,645.130249 282.006256,645.130249 
	C282.006256,627.693298 282.006256,610.784058 282.004272,593.437378 
	C282.002319,592.999878 281.930054,593.069946 282.402130,593.037476 
	C291.125183,593.004944 299.376160,593.004944 308.159119,593.004944 
	C308.159119,584.090027 308.159119,575.579468 308.159119,566.931030 
	C316.823700,566.931030 324.949768,566.931030 333.040588,567.402832 
	C333.005341,576.135315 333.005341,584.395874 333.005341,592.646606 
	C350.602448,592.646606 367.760345,592.646606 385.290466,592.646606 
	C385.290466,583.899170 385.290466,575.504150 385.290466,567.079468 
	C394.134460,567.079468 402.601501,567.079468 411.034241,567.042847 
	C410.999908,567.006165 410.926666,566.937317 410.960754,567.408813 
	C410.994843,576.150208 410.994843,584.419983 410.994843,593.053589 
	C436.859955,593.053589 462.248291,593.053589 488.024170,593.053589 
	C488.024170,601.821533 488.024170,610.227295 488.024170,618.797302 
	C496.814941,618.797302 505.213684,618.797302 514.003540,618.797302 
	C514.003540,610.199768 514.003540,601.792969 514.003540,593.006409 
	C522.456360,593.006409 530.530396,593.006409 538.645569,593.006409 
	C538.645569,575.434937 538.645569,558.257690 538.645569,541.349670 
	C530.218384,541.349670 522.147766,541.349670 513.702637,541.349670 
	C513.702637,550.103088 513.702637,558.509460 513.702637,566.670410 
	C496.248993,566.670410 479.188110,566.670410 462.324402,566.670410 
	C462.324402,557.936096 462.324402,549.533936 462.324402,540.753052 
	C471.051056,540.753052 479.457306,540.753052 488.069946,540.753052 
	C488.069946,532.218201 488.069946,524.074097 488.034973,515.965027 
	C488.000000,516.000000 487.930054,516.069946 488.402191,516.037476 
	C531.538513,516.004944 574.202698,516.004944 617.069946,516.004944 
	C617.069946,506.872437 617.069946,498.401245 617.034973,489.966217 
	C617.000000,490.002380 616.931152,490.075806 616.931152,490.075806 
M567.677612,567.000244 
	C564.225159,566.490234 565.014038,568.997375 565.012146,570.833984 
	C564.992371,589.832520 565.000000,608.831116 565.000000,627.829651 
	C565.000000,633.444824 565.000000,639.059937 565.000000,644.769409 
	C591.194153,644.769409 616.931274,644.769409 642.767090,644.769409 
	C642.767090,618.801147 642.767090,593.064026 642.767090,567.000000 
	C617.907654,567.000000 593.279663,567.000000 567.677612,567.000244 
z"/>
<path fill="#000000" opacity="1.000000" stroke="none" 
	d="
M487.931213,181.075821 
	C496.414337,181.075821 504.897461,181.075821 513.781067,181.075821 
	C513.781067,189.569901 513.781067,197.982727 513.781067,206.695679 
	C522.246643,206.695679 530.320618,206.695679 538.798950,206.695679 
	C538.798950,198.415085 538.798950,190.002609 538.798950,181.298187 
	C547.598328,181.298187 556.004944,181.298187 564.815674,181.298187 
	C564.815674,197.943527 564.815674,214.685913 564.815674,231.826141 
	C573.612915,231.826141 582.025391,231.826141 590.833008,231.826141 
	C590.833008,240.623535 590.833008,249.036377 590.833008,257.721619 
	C599.634033,257.721619 608.040466,257.721619 616.850891,257.721619 
	C616.850891,249.361313 616.850891,240.949036 616.850891,232.272217 
	C625.652161,232.272217 634.058167,232.272217 642.867798,232.272217 
	C642.867798,240.661301 642.867798,249.072556 642.867798,257.739044 
	C651.337280,257.739044 659.409363,257.739044 667.885742,257.739044 
	C667.885742,249.324631 667.885742,240.913193 667.885742,232.254807 
	C676.688354,232.254807 685.093811,232.254807 693.902466,232.254807 
	C693.902466,249.364975 693.902466,266.440704 693.902466,284.006500 
	C702.571899,284.006500 710.848083,284.006500 719.561646,284.006104 
	C719.999023,284.005737 719.925842,283.937042 719.925842,283.937042 
	C719.925842,292.419647 719.925842,300.902252 719.925842,309.785583 
	C711.425354,309.785583 703.012573,309.785583 694.203613,309.785583 
	C694.203613,318.248932 694.203613,326.327942 694.203613,334.803406 
	C685.406433,334.803406 676.994202,334.803406 668.293091,334.803406 
	C668.293091,343.603241 668.293091,352.010193 668.293091,360.821716 
	C676.608582,360.821716 685.020874,360.821716 693.828735,360.821716 
	C693.828735,369.619232 693.828735,378.031952 693.828735,386.719574 
	C702.629883,386.719574 711.036438,386.719574 719.847046,386.719574 
	C719.847046,378.365509 719.847046,369.952911 719.847046,361.274048 
	C728.648254,361.274048 737.054199,361.274048 745.864380,361.274048 
	C745.864380,369.658112 745.864380,378.068542 745.864380,386.875153 
	C754.331604,386.875153 762.409180,386.875153 770.739990,386.875153 
	C770.739990,404.012634 770.739990,420.751221 770.739990,437.745056 
	C753.976990,437.745056 737.238464,437.745056 720.097412,437.745056 
	C720.097412,429.637848 720.097412,421.558807 720.097412,412.993744 
	C702.758728,412.993744 685.816772,412.993744 668.437378,412.995728 
	C667.999878,412.997681 668.069946,413.069946 668.037476,412.597839 
	C668.004944,403.853516 668.004944,395.581360 668.004944,386.930115 
	C650.795715,386.930115 634.062561,386.930115 616.948364,386.930115 
	C616.948364,369.480713 616.948364,352.414703 616.948364,334.980408 
	C582.507996,334.980408 548.452515,334.980408 514.357544,334.980408 
	C514.357544,309.095032 514.357544,283.585266 514.357544,257.683807 
	C522.788330,257.683807 530.863342,257.683807 538.646973,257.683807 
	C538.646973,248.881516 538.646973,240.476028 538.646973,232.344055 
	C521.560974,232.344055 504.829041,232.344055 487.710999,232.344055 
	C487.710999,241.093658 487.710999,249.501724 487.710999,258.284302 
	C478.911163,258.284302 470.503510,258.284302 462.337006,258.284302 
	C462.337006,267.085876 462.337006,275.490448 462.337006,284.274902 
	C471.079071,284.274902 479.487152,284.274902 487.667694,284.274902 
	C487.667694,293.076141 487.667694,301.480438 487.667694,310.251953 
	C461.942566,310.251953 436.548492,310.251953 411.075867,310.251953 
	C411.075867,318.777924 411.075867,326.923492 410.603210,335.036957 
	C401.728455,335.026276 393.326294,335.047668 384.959412,334.597229 
	C384.994659,326.200500 384.994659,318.275604 384.994659,310.339844 
	C367.411774,310.339844 350.260651,310.339844 333.069061,310.339844 
	C333.069061,318.811646 333.069061,326.943756 332.597229,335.040588 
	C324.060272,334.980255 315.995178,334.955139 307.965027,334.965027 
	C308.000000,335.000000 308.069946,335.069946 308.037415,334.597870 
	C308.004913,326.201019 308.004913,318.276215 308.004913,309.987061 
	C299.183136,309.987061 290.790161,309.987061 282.069946,309.987061 
	C282.069946,292.388458 282.069946,275.159271 282.034973,257.965027 
	C282.000000,258.000000 281.930054,258.069946 282.402161,258.037445 
	C291.141388,258.004944 299.408447,258.004944 308.054230,258.004944 
	C308.054230,266.854187 308.054230,275.256256 308.054230,283.641632 
	C333.937378,283.641632 359.432037,283.641632 384.651550,283.641632 
	C384.651550,274.880890 384.651550,266.480499 384.651550,257.709839 
	C375.902649,257.709839 367.499817,257.709839 359.069946,257.709839 
	C359.069946,240.525421 359.069946,223.727737 359.034973,206.965027 
	C359.000000,207.000000 358.930054,207.069946 359.402161,207.037445 
	C368.272858,207.026611 376.671387,207.048279 385.033752,207.034988 
	C384.997589,207.000031 384.924194,206.931229 384.924194,206.931229 
	C384.924194,215.066269 384.924194,223.201309 384.924194,231.668365 
	C410.601440,231.668365 436.077972,231.668365 462.006256,231.668365 
	C462.006256,223.731781 462.006256,215.803329 462.004333,207.437424 
	C462.002380,206.999985 461.930054,207.069946 462.402161,207.037445 
	C471.235565,207.004944 479.596893,207.004944 488.069946,207.004944 
	C488.069946,197.822525 488.069946,189.376282 488.034973,180.966232 
	C488.000031,181.002411 487.931213,181.075821 487.931213,181.075821 
M607.466309,310.000000 
	C610.573425,310.000000 613.680603,310.000000 616.720947,310.000000 
	C616.720947,301.039185 616.720947,292.633881 616.720947,284.278259 
	C590.705444,284.278259 564.970093,284.278259 539.280945,284.278259 
	C539.280945,292.964600 539.280945,301.369904 539.280945,310.000000 
	C561.866394,310.000000 584.171631,310.000000 607.466309,310.000000 
M655.500916,310.000000 
	C659.602051,310.000000 663.703186,310.000000 667.711914,310.000000 
	C667.711914,301.018036 667.711914,292.614014 667.711914,284.288818 
	C659.349609,284.288818 651.278503,284.288818 643.289429,284.288818 
	C643.289429,292.984802 643.289429,301.388855 643.289429,310.000000 
	C647.221130,310.000000 650.865173,310.000000 655.500916,310.000000 
z"/>
<path fill="#000000" opacity="1.000000" stroke="none" 
	d="
M152.937912,541.072937 
	C170.065674,541.072937 187.193451,541.072937 204.660950,541.072937 
	C204.660950,532.837036 204.660950,524.770630 204.660950,516.316895 
	C196.528625,516.316895 188.127258,516.316895 179.364044,516.316895 
	C179.364044,507.427460 179.364044,498.914246 179.364044,490.006256 
	C204.640121,490.006256 229.882629,490.006256 255.562576,490.004333 
	C256.000031,490.002380 255.930054,489.930054 255.962555,490.402161 
	C255.995056,499.138916 255.995056,507.403625 255.995056,515.804443 
	C273.502350,515.804443 290.550201,515.804443 308.157471,515.804443 
	C308.157471,507.099121 308.157471,498.573517 308.157471,489.692139 
	C316.783295,489.692139 324.850830,489.692139 333.069946,489.692139 
	C333.069946,472.182159 333.069946,455.056122 333.034973,437.965027 
	C333.000000,438.000000 332.930054,438.069946 333.402130,438.037415 
	C342.143707,438.004913 350.413208,438.004913 359.053406,438.004913 
	C359.053406,455.523987 359.053406,472.584290 359.053406,489.790192 
	C367.831299,489.790192 376.229187,489.790192 385.005310,489.790192 
	C385.005310,472.525024 385.005310,455.464203 385.005310,438.351685 
	C402.229248,438.351685 419.071594,438.351685 436.289062,438.351685 
	C436.289062,455.762848 436.289062,472.823425 436.289062,489.930939 
	C453.804016,489.930939 470.939941,489.930939 488.040588,490.402771 
	C487.980255,499.273041 487.955170,507.671509 487.930054,516.069946 
	C487.930054,516.069946 488.000000,516.000000 487.562836,515.997559 
	C435.797272,515.995056 384.468872,515.995056 333.075836,515.995056 
	C333.075836,524.789612 333.075836,532.929321 332.603210,541.036987 
	C315.437775,541.004883 298.744965,541.004883 281.930054,541.004883 
	C281.930054,558.843750 281.930054,575.956848 281.930054,593.069946 
	C281.930054,593.069946 282.002319,592.999878 282.039001,592.965454 
	C273.601044,592.931091 265.126373,592.931091 256.265198,592.931091 
	C256.265198,601.524170 256.265198,609.926819 256.265198,618.662720 
	C247.492966,618.662720 239.093430,618.662720 230.142517,618.662720 
	C230.142517,601.732483 230.142517,584.554504 230.142517,567.026367 
	C204.218033,567.026367 178.839081,567.026367 153.006577,567.026367 
	C153.006577,558.408813 153.006577,550.141724 153.006592,541.437195 
	C153.006622,540.999756 152.937912,541.072937 152.937912,541.072937 
z"/>
<path fill="#020202" opacity="1.000000" stroke="none" 
	d="
M696.000244,26.322927 
	C721.130188,26.322933 745.760071,26.322933 770.766541,26.322933 
	C770.766541,86.261009 770.766541,145.933838 770.766541,205.898254 
	C711.167725,205.898254 651.463501,205.898254 591.463074,205.898254 
	C591.463074,146.328995 591.463074,86.767982 591.463074,26.322922 
	C626.076172,26.322922 660.788147,26.322922 696.000244,26.322927 
M745.929871,80.500015 
	C745.929871,71.074371 745.929871,61.648731 745.929871,52.298882 
	C702.616089,52.298882 659.904053,52.298882 617.380615,52.298882 
	C617.380615,95.294312 617.380615,137.988693 617.380615,180.570969 
	C660.338440,180.570969 702.913879,180.570969 745.929871,180.570969 
	C745.929871,147.373108 745.929871,114.436562 745.929871,80.500015 
z"/>
<path fill="#010101" opacity="1.000000" stroke="none" 
	d="
M176.000183,26.325287 
	C185.628860,26.325293 194.757538,26.325293 204.111725,26.325293 
	C204.111725,86.417862 204.111725,146.016953 204.111725,205.901764 
	C144.492065,205.901764 84.910126,205.901764 24.996397,205.901764 
	C24.996397,146.238464 24.996397,86.533173 24.996397,26.325281 
	C75.255257,26.325281 125.377724,26.325281 176.000183,26.325287 
M50.163704,169.472000 
	C50.163704,173.218964 50.163704,176.965912 50.163704,180.534790 
	C93.549850,180.534790 136.145447,180.534790 178.640289,180.534790 
	C178.640289,137.509811 178.640289,94.787308 178.640289,52.287697 
	C135.678238,52.287697 93.079018,52.287697 50.163704,52.287697 
	C50.163704,91.212051 50.163704,129.846741 50.163704,169.472000 
z"/>
<path fill="#010101" opacity="1.000000" stroke="none" 
	d="
M30.054764,593.000427 
	C88.337151,593.000427 146.122711,593.000427 204.125671,593.000427 
	C204.125671,653.107544 204.125671,712.837402 204.125671,772.822144 
	C144.475235,772.822144 84.894150,772.822144 24.989895,772.822144 
	C24.989895,713.104919 24.989895,653.379089 24.989895,593.000427 
	C26.370392,593.000427 27.964165,593.000427 30.054764,593.000427 
M50.160194,699.499939 
	C50.160194,715.435059 50.160194,731.370117 50.160194,747.501953 
	C93.332085,747.501953 135.918045,747.501953 178.754730,747.501953 
	C178.754730,704.575562 178.754730,661.854431 178.754730,619.201782 
	C135.816315,619.201782 93.112953,619.201782 50.160198,619.201782 
	C50.160198,645.884949 50.160198,672.192383 50.160194,699.499939 
z"/>
<path fill="#000000" opacity="1.000000" stroke="none" 
	d="
M667.965454,412.960999 
	C667.931091,421.060364 667.931091,429.196381 667.931091,437.865051 
	C651.052734,437.865051 634.219116,437.865051 616.994202,437.865051 
	C616.994202,455.306885 616.994202,472.218658 616.962646,489.603119 
	C616.931152,490.075806 617.000000,490.002380 616.562866,489.998718 
	C607.859070,489.995056 599.592468,489.995056 590.962830,489.995056 
	C590.962830,472.489838 590.962830,455.434723 590.962830,438.324829 
	C556.441284,438.324829 522.291687,438.324829 488.075867,438.324829 
	C488.075867,447.122528 488.075867,455.595795 487.603210,464.036957 
	C478.861969,464.004883 470.593384,464.004883 461.956909,464.004883 
	C461.956909,446.818909 461.956909,430.093628 461.956909,412.847961 
	C427.425873,412.847961 393.266907,412.847961 359.330933,412.847961 
	C359.330933,403.918671 359.330933,395.518250 359.330933,386.743164 
	C368.062408,386.743164 376.466522,386.743164 384.924133,386.743164 
	C384.924133,377.880432 384.924133,369.405701 385.396790,360.963013 
	C394.271545,360.973694 402.673706,360.952301 411.040588,361.402771 
	C411.005341,370.140289 411.005341,378.405975 411.005341,386.639099 
	C436.950073,386.639099 462.441010,386.639099 488.313232,386.639099 
	C488.313232,377.878448 488.313232,369.477264 488.313232,361.337280 
	C497.098785,361.337280 505.497284,361.337280 514.265991,361.337280 
	C514.265991,370.072968 514.265991,378.474487 514.265991,387.079712 
	C522.789673,387.079712 530.929138,387.079712 539.034302,387.043030 
	C538.999939,387.006348 538.926758,386.937531 538.960815,387.409058 
	C538.994812,396.144043 538.994812,404.407562 538.994812,413.069946 
	C582.327087,413.069946 625.198486,413.069946 668.069946,413.069946 
	C668.069946,413.069946 667.999878,412.997681 667.965454,412.960999 
z"/>
<path fill="#000000" opacity="1.000000" stroke="none" 
	d="
M49.937687,310.073242 
	C58.413563,310.073242 66.889435,310.073242 75.682724,310.073242 
	C75.682724,292.790466 75.682724,275.730865 75.682724,258.289795 
	C58.826450,258.289795 41.765198,258.289795 24.353043,258.289795 
	C24.353043,249.523483 24.353043,241.120560 24.353043,232.358322 
	C66.899063,232.358322 109.720322,232.358322 152.933472,232.358322 
	C152.933472,240.731750 152.933472,249.136353 152.933472,258.006256 
	C161.585663,258.006256 169.855377,258.006256 178.562561,258.004333 
	C179.000015,258.002380 178.930054,257.930054 178.962555,258.402161 
	C178.995056,267.235565 178.995056,275.596893 178.995056,284.069946 
	C188.177475,284.069946 196.623718,284.069946 205.034973,284.034973 
	C205.000000,284.000000 204.930054,283.930054 204.962555,284.402130 
	C204.973389,293.272797 204.951721,301.671356 204.965027,310.034973 
	C205.000000,310.000000 205.069946,309.930054 204.597870,309.962585 
	C195.875290,309.995087 187.624786,309.995087 179.349121,309.995087 
	C179.349121,318.582428 179.349121,326.748108 179.349121,335.069946 
	C188.155289,335.069946 196.612610,335.069946 205.033768,335.034973 
	C204.997589,335.000031 204.924179,334.931213 204.924179,334.931213 
	C204.924179,343.406860 204.924179,351.882507 204.924179,360.678406 
	C179.134369,360.678406 153.417480,360.678406 127.350456,360.678406 
	C127.350456,352.518524 127.350456,344.116272 127.350456,335.321838 
	C135.468506,335.321838 143.873001,335.321838 152.638702,335.321838 
	C152.638702,326.757019 152.638702,318.572998 152.638702,310.191681 
	C135.535675,310.191681 118.478806,310.191681 101.031250,310.191681 
	C101.031250,318.429443 101.031250,326.502289 101.031250,334.781433 
	C83.918053,334.781433 67.194481,334.781433 50.006561,334.781433 
	C50.006561,326.747345 50.006561,318.811127 50.006481,310.437500 
	C50.006401,310.000061 49.937687,310.073242 49.937687,310.073242 
M126.999725,281.319580 
	C126.999725,273.569702 126.999725,265.819824 126.999725,258.354553 
	C117.885727,258.354553 109.476601,258.354553 101.357574,258.354553 
	C101.357574,267.120483 101.357574,275.529785 101.357574,283.999908 
	C109.044380,283.999908 116.375214,284.071411 123.701622,283.923462 
	C124.810333,283.901062 125.898430,282.857574 126.999725,281.319580 
z"/>
<path fill="#000000" opacity="1.000000" stroke="none" 
	d="
M281.931213,181.075821 
	C290.329193,181.052643 298.727173,181.029465 307.562561,181.004333 
	C308.000000,181.002396 307.930054,180.930054 307.962585,181.402130 
	C307.995087,190.234772 307.995087,198.595337 307.995087,207.069946 
	C316.842651,207.069946 324.956299,207.069946 333.034973,207.034973 
	C333.000000,207.000000 332.930054,206.930054 332.962585,207.402130 
	C332.995087,215.798843 332.995087,223.723465 332.995087,232.159546 
	C315.749329,232.159546 298.925049,232.159546 281.930054,232.159546 
	C281.930054,241.142136 281.930054,249.606033 281.930054,258.069946 
	C281.930054,258.069946 282.000000,258.000000 281.562866,257.997528 
	C272.862000,257.995056 264.598297,257.995056 256.348877,257.995056 
	C256.348877,283.937805 256.348877,309.422638 256.348877,335.069946 
	C273.821686,335.069946 290.945831,335.069946 308.069946,335.069946 
	C308.069946,335.069946 308.000000,335.000000 307.997528,335.437134 
	C307.995056,344.125122 307.995056,352.375946 307.995056,361.158630 
	C299.090454,361.158630 290.580048,361.158630 281.930054,361.158630 
	C281.930054,370.154541 281.930054,378.612244 281.965027,387.033752 
	C281.999969,386.997589 282.068787,386.924164 282.068787,386.924164 
	C273.602325,386.924164 265.135864,386.924164 256.293121,386.924164 
	C256.293121,378.495880 256.293121,370.102020 256.293121,361.155731 
	C247.424515,361.155731 238.903244,361.155731 230.022064,361.155731 
	C230.022064,352.218781 230.022064,343.822876 230.022064,334.994202 
	C221.725510,334.994202 213.797531,334.994202 205.396851,334.962708 
	C204.924179,334.931213 204.997589,335.000031 205.001266,334.562866 
	C205.026611,326.060486 205.048279,317.995270 205.069946,309.930054 
	C205.069946,309.930054 205.000000,310.000000 205.437134,310.002472 
	C213.792252,310.004944 221.710220,310.004944 229.651886,310.004944 
	C229.651886,301.083496 229.651886,292.586273 229.651886,283.930054 
	C221.179428,283.930054 213.054749,283.930054 204.930054,283.930054 
	C204.930054,283.930054 205.000000,284.000000 205.002472,283.562866 
	C205.004944,274.764374 205.004944,266.403076 205.004944,257.930054 
	C195.822540,257.930054 187.376297,257.930054 178.930054,257.930054 
	C178.930054,257.930054 179.000015,258.002380 179.034409,258.039093 
	C179.068802,249.607285 179.068802,241.138748 179.068802,232.161682 
	C204.597549,232.161682 230.078537,232.161682 256.006256,232.161682 
	C256.006256,223.732285 256.006256,215.803574 256.004333,207.437424 
	C256.002380,206.999985 255.930054,207.069946 256.402130,207.037445 
	C265.235535,207.004944 273.596863,207.004944 282.069946,207.004944 
	C282.069946,197.822525 282.069946,189.376297 282.034973,180.966232 
	C282.000031,181.002411 281.931213,181.075821 281.931213,181.075821 
z"/>
<path fill="#000000" opacity="1.000000" stroke="none" 
	d="
M462.062195,154.926743 
	C453.586639,154.926743 445.111115,154.926743 436.245117,154.926743 
	C436.245117,146.453445 436.245117,138.047760 436.245117,129.286850 
	C401.813385,129.286850 367.767975,129.286850 333.362000,129.286850 
	C333.362000,94.768478 333.362000,60.606754 333.362000,26.222370 
	C341.748138,26.222370 350.146240,26.222370 358.936462,26.222370 
	C358.936462,34.733509 358.936462,43.139336 358.936462,51.926331 
	C367.719635,51.926331 376.125061,51.926331 385.004761,51.926331 
	C385.004761,60.577126 385.004761,68.845711 384.569092,77.559189 
	C375.875153,78.004082 367.616852,78.004082 359.367493,78.004082 
	C359.367493,86.604721 359.367493,94.777206 359.367493,102.657074 
	C368.127228,102.657074 376.517883,102.657074 384.938904,102.657074 
	C384.938904,94.180962 384.938904,86.047554 384.938904,77.914154 
	C393.334229,77.944946 401.729523,77.975746 410.562256,78.006325 
	C410.999664,78.006111 410.926483,77.937393 410.926483,77.937393 
	C410.926483,86.071541 410.926483,94.205688 410.926483,102.869553 
	C427.949005,102.869553 444.780823,102.869553 461.993469,102.869553 
	C461.993469,120.306549 461.993469,137.215820 461.993469,154.562531 
	C461.993500,154.999939 462.062195,154.926743 462.062195,154.926743 
z"/>
<path fill="#000000" opacity="1.000000" stroke="none" 
	d="
M204.937912,413.072968 
	C221.726730,413.072968 238.515549,413.072968 255.686081,413.072968 
	C255.686081,421.146027 255.686081,429.211670 255.686081,437.638489 
	C264.569275,437.638489 273.080292,437.638489 282.005798,437.638489 
	C282.005798,421.033630 282.005798,404.451599 282.037292,387.396851 
	C282.068787,386.924164 281.999969,386.997589 282.437134,387.001282 
	C291.130493,387.004944 299.386658,387.004944 308.182251,387.004944 
	C308.182251,395.931274 308.182251,404.447662 308.182251,413.307251 
	C316.786682,413.307251 324.845947,413.307251 332.930054,413.307251 
	C332.930054,421.809174 332.930054,429.939575 332.930054,438.069946 
	C332.930054,438.069946 333.000000,438.000000 332.562866,437.997528 
	C324.198364,437.995056 316.271027,437.995056 307.975586,437.995056 
	C307.975586,446.827240 307.975586,455.223022 307.975586,464.159332 
	C299.094574,464.159332 290.574341,464.159332 281.705750,464.159332 
	C281.705750,473.105133 281.705750,481.498627 281.705750,489.930054 
	C272.863251,489.930054 264.396667,489.930054 255.930054,489.930054 
	C255.930054,489.930054 256.000031,490.002380 256.034424,490.039093 
	C256.068817,481.603424 256.068817,473.131042 256.068817,464.134460 
	C230.384171,464.134460 204.892105,464.134460 179.203064,464.134460 
	C179.203064,455.217072 179.203064,446.823914 179.203064,438.046509 
	C187.754639,438.046509 196.154541,438.046509 205.006577,438.046509 
	C205.006577,429.738739 205.006577,421.806702 205.006622,413.437225 
	C205.006653,412.999786 204.937912,413.072968 204.937912,413.072968 
z"/>
<path fill="#000000" opacity="1.000000" stroke="none" 
	d="
M538.937866,52.073215 
	C547.420227,52.073215 555.902649,52.073215 564.691772,52.073215 
	C564.691772,86.249001 564.691772,120.320526 564.691772,155.007309 
	C539.557861,155.007309 514.299377,155.007309 488.617737,155.092819 
	C488.194611,155.178329 488.276917,155.251099 488.276917,155.251099 
	C488.276917,137.991653 488.276917,120.732208 488.276917,102.995308 
	C496.580383,102.995308 504.846802,102.995308 513.558594,103.431358 
	C514.003967,112.125648 514.003967,120.383896 514.003967,128.631989 
	C522.605225,128.631989 530.777588,128.631989 538.656677,128.631989 
	C538.656677,119.871681 538.656677,111.480988 538.656677,103.062286 
	C530.179993,103.062286 522.046448,103.062286 513.912964,103.062286 
	C513.912964,94.939308 513.912964,86.816330 513.912964,78.155258 
	C522.251465,78.155258 530.429077,78.155258 539.006592,78.155258 
	C539.006592,69.373940 539.006592,61.124393 539.006592,52.437439 
	C539.006592,52.000034 538.937866,52.073215 538.937866,52.073215 
z"/>
<path fill="#000000" opacity="1.000000" stroke="none" 
	d="
M153.043304,540.965454 
	C144.607605,540.931152 136.135223,540.931152 127.280312,540.931152 
	C127.280312,549.509705 127.280312,557.909607 127.280312,566.653198 
	C118.515831,566.653198 110.118332,566.653198 101.159409,566.653198 
	C101.159409,558.426453 101.159409,549.901184 101.159409,541.007935 
	C92.544106,541.007935 84.476021,541.007935 76.006279,541.007935 
	C76.006279,524.043030 76.006279,507.458954 76.004333,490.437439 
	C76.002396,490.000000 75.930061,490.069946 76.402130,490.037445 
	C84.902794,490.004944 92.931404,490.004944 101.069939,490.004944 
	C101.069939,480.820587 101.069939,472.375305 101.034988,463.966248 
	C101.000046,464.002411 100.931221,464.075836 100.931221,464.075836 
	C118.055923,464.075836 135.180618,464.075836 152.652161,464.075836 
	C152.652161,472.481934 152.652161,480.879303 152.652161,489.837738 
	C144.429337,489.837738 135.904266,489.837738 127.196968,489.837738 
	C127.196968,498.789429 127.196968,507.182312 127.196968,515.958496 
	C135.755157,515.958496 144.155533,515.958496 152.994614,515.958496 
	C152.994614,524.264832 152.994614,532.196411 152.966263,540.600464 
	C152.937912,541.072937 153.006622,540.999756 153.043304,540.965454 
z"/>
<path fill="#000000" opacity="1.000000" stroke="none" 
	d="
M256.039062,206.965576 
	C247.598770,206.931168 239.121780,206.931168 230.323059,206.931168 
	C230.323059,189.796738 230.323059,172.737259 230.323059,155.285583 
	C238.505188,155.285583 246.910553,155.285583 255.657257,155.285583 
	C255.657257,146.507446 255.657257,138.104599 255.657257,129.308472 
	C247.520721,129.308472 239.116730,129.308472 230.356995,129.308472 
	C230.356995,120.531708 230.356995,112.128471 230.356995,103.362183 
	C255.904434,103.362183 281.740021,103.362183 307.788147,103.362183 
	C307.788147,111.769905 307.788147,120.168015 307.788147,128.957916 
	C299.244598,128.957916 290.838440,128.957916 281.994202,128.957916 
	C281.994202,146.273560 281.994202,163.202011 281.962708,180.603149 
	C281.931213,181.075821 282.000031,181.002411 281.562866,180.998734 
	C272.764374,180.995056 264.403076,180.995056 255.930054,180.995056 
	C255.930054,190.177460 255.930054,198.623703 255.930054,207.069946 
	C255.930054,207.069946 256.002380,206.999985 256.039062,206.965576 
z"/>
<path fill="#000000" opacity="1.000000" stroke="none" 
	d="
M100.924179,437.931213 
	C100.947517,446.330963 100.970856,454.730713 100.962708,463.603149 
	C100.931221,464.075836 101.000046,464.002411 100.562881,463.998718 
	C92.097145,463.995056 84.068565,463.995056 75.930061,463.995056 
	C75.930061,473.179474 75.930061,481.624695 75.930061,490.069946 
	C75.930061,490.069946 76.002396,490.000000 76.039108,489.965576 
	C67.599388,489.931183 59.122955,489.931183 50.280769,489.931183 
	C50.280769,515.522644 50.280769,540.906799 50.280769,566.644653 
	C41.529266,566.644653 33.126953,566.644653 24.361891,566.644653 
	C24.361891,532.771240 24.361891,498.612671 24.361891,464.063110 
	C32.734341,464.063110 41.139381,464.063110 50.006283,464.063110 
	C50.006283,455.412750 50.006283,447.143799 50.004341,438.437439 
	C50.002399,438.000000 49.930061,438.069946 50.402138,438.037445 
	C67.606117,438.026611 84.338028,438.048279 101.033752,438.034973 
	C100.997574,438.000031 100.924171,437.931213 100.924179,437.931213 
z"/>
<path fill="#000000" opacity="1.000000" stroke="none" 
	d="
M746.062134,721.926636 
	C737.586548,721.926636 729.110901,721.926636 720.256714,721.926636 
	C720.256714,738.873840 720.256714,755.601501 720.256714,772.663269 
	C694.497681,772.663269 669.113037,772.663269 643.364380,772.663269 
	C643.364380,764.757874 643.364380,756.574036 643.364380,747.994568 
	C651.470886,747.994568 659.543945,747.994568 667.994751,747.994568 
	C667.994751,739.210083 667.994751,730.804321 667.994751,722.019897 
	C676.778442,722.019897 685.184204,722.019897 693.968994,722.019897 
	C693.968994,713.236633 693.968994,704.830872 693.968994,696.218506 
	C711.415466,696.218506 728.472412,696.218506 745.993408,696.218506 
	C745.993408,704.586304 745.993408,712.855652 745.993408,721.562378 
	C745.993408,721.999817 746.062134,721.926636 746.062134,721.926636 
z"/>
<path fill="#000000" opacity="1.000000" stroke="none" 
	d="
M643.034546,490.039001 
	C643.068909,481.601654 643.068909,473.127655 643.068909,464.327515 
	C659.855042,464.327515 676.575806,464.327515 693.684143,464.327515 
	C693.684143,472.475983 693.684143,480.878052 693.684143,489.639893 
	C702.576172,489.639893 711.090759,489.639893 719.996277,489.639893 
	C719.996277,481.207214 719.996277,472.804169 719.996277,464.206848 
	C728.777100,464.206848 737.172180,464.206848 745.993713,464.206848 
	C745.993713,481.281616 745.993713,498.203339 745.995667,515.562500 
	C745.997620,515.999939 746.069946,515.930054 745.597900,515.962524 
	C719.393860,515.973328 693.661987,515.951660 667.930054,515.930054 
	C667.930054,515.930054 668.000000,516.000000 668.002502,515.562866 
	C668.005005,506.765198 668.005005,498.404633 668.005005,489.930054 
	C659.157349,489.930054 651.043701,489.930054 642.930054,489.930054 
	C642.930054,489.930054 643.000122,490.002319 643.034546,490.039001 
z"/>
<path fill="#000000" opacity="1.000000" stroke="none" 
	d="
M461.957611,696.033325 
	C470.397003,696.067627 478.873047,696.067627 487.737671,696.067627 
	C487.737671,704.529602 487.737671,712.934021 487.737671,721.699341 
	C513.503174,721.699341 538.885986,721.699341 564.633667,721.699341 
	C564.633667,730.570374 564.633667,739.086426 564.633667,747.993469 
	C530.691101,747.993469 496.783203,747.993469 462.437897,747.993774 
	C462.000488,747.994019 462.073669,748.062683 462.073669,748.062683 
	C462.050903,730.998840 462.028168,713.934937 462.034180,696.398438 
	C462.062958,695.925842 461.994263,695.999023 461.957611,696.033325 
z"/>
<path fill="#000000" opacity="1.000000" stroke="none" 
	d="
M308.034424,181.039093 
	C308.068848,172.607330 308.068848,164.138855 308.068848,155.335785 
	C333.598938,155.335785 359.075745,155.335785 384.993744,155.335785 
	C384.993744,163.602875 384.993744,171.864014 384.995667,180.562576 
	C384.997620,181.000015 385.069946,180.930054 384.597839,180.962555 
	C375.764435,180.995056 367.403107,180.995056 358.930054,180.995056 
	C358.930054,190.177475 358.930054,198.623718 358.930054,207.069946 
	C358.930054,207.069946 359.000000,207.000000 358.562866,206.997528 
	C349.727142,206.973389 341.328613,206.951721 332.930054,206.930054 
	C332.930054,206.930054 333.000000,207.000000 333.002472,206.562851 
	C333.004944,197.765167 333.004944,189.404617 333.004944,180.930054 
	C324.157349,180.930054 316.043701,180.930054 307.930054,180.930054 
	C307.930054,180.930054 308.000000,181.002396 308.034424,181.039093 
z"/>
<path fill="#000000" opacity="1.000000" stroke="none" 
	d="
M411.033936,78.042763 
	C411.068237,60.945671 411.068237,43.811928 411.068237,26.339636 
	C419.169525,26.339636 427.237427,26.339636 435.696228,26.339636 
	C435.696228,34.488941 435.696228,42.891052 435.696228,51.845249 
	C453.250153,51.845249 470.430206,51.845249 487.800476,51.845249 
	C487.800476,60.793686 487.800476,69.190147 487.800476,77.994583 
	C462.370361,77.994583 437.120941,77.994583 411.398987,77.965988 
	C410.926483,77.937393 410.999664,78.006111 411.033936,78.042763 
z"/>
<path fill="#000000" opacity="1.000000" stroke="none" 
	d="
M100.931221,413.075836 
	C109.402710,413.075836 117.874199,413.075836 126.728546,413.075836 
	C126.728546,404.480988 126.728546,396.081116 126.728546,387.342224 
	C135.494171,387.342224 143.891678,387.342224 152.645111,387.342224 
	C152.645111,403.915253 152.645111,420.748383 152.645111,437.994202 
	C135.705536,437.994202 118.787544,437.994202 101.396858,437.962708 
	C100.924171,437.931213 100.997574,438.000031 101.001266,437.562866 
	C101.026611,429.060486 101.048279,420.995270 101.034988,412.966248 
	C101.000046,413.002411 100.931221,413.075836 100.931221,413.075836 
z"/>
<path fill="#000000" opacity="1.000000" stroke="none" 
	d="
M461.966187,747.957336 
	C461.931915,756.062012 461.931915,764.203369 461.931915,772.671753 
	C436.488708,772.671753 411.112305,772.671753 385.368164,772.671753 
	C385.368164,764.766663 385.368164,756.585693 385.368164,748.005371 
	C410.638550,748.005371 435.883606,748.005371 461.601135,748.034058 
	C462.073669,748.062683 462.000488,747.994019 461.966187,747.957336 
z"/>
<path fill="#000000" opacity="1.000000" stroke="none" 
	d="
M720.033325,284.042389 
	C720.067627,266.954559 720.067627,249.830109 720.067627,232.353317 
	C728.469604,232.353317 736.866455,232.353317 745.631958,232.353317 
	C745.631958,249.220428 745.631958,266.383881 745.631958,283.994568 
	C737.398682,283.994568 729.134888,283.994568 720.398438,283.965820 
	C719.925842,283.937042 719.999023,284.005737 720.033325,284.042389 
z"/>
<path fill="#000000" opacity="1.000000" stroke="none" 
	d="
M50.075825,413.068787 
	C50.075825,404.605133 50.075825,396.141479 50.075825,387.339478 
	C66.931328,387.339478 83.749367,387.339478 100.994194,387.339478 
	C100.994194,395.615326 100.994194,403.872894 100.962708,412.603149 
	C100.931221,413.075836 101.000046,413.002411 100.562874,412.998718 
	C83.393822,412.973389 66.661942,412.951721 49.966240,412.965027 
	C50.002422,412.999969 50.075825,413.068787 50.075825,413.068787 
z"/>
<path fill="#000000" opacity="1.000000" stroke="none" 
	d="
M461.956848,155.034210 
	C470.374939,155.052231 478.829681,155.035965 487.780701,155.135406 
	C488.276917,155.251099 488.194611,155.178329 488.159851,155.147552 
	C488.081451,163.454666 488.037842,171.792572 487.962708,180.603149 
	C487.931213,181.075821 488.000031,181.002411 487.562866,180.998734 
	C478.727142,180.973389 470.328613,180.951721 461.966248,180.965012 
	C462.002411,180.999969 462.075806,181.068771 462.075806,181.068771 
	C462.052338,172.669724 462.028839,164.270691 462.033783,155.399200 
	C462.062195,154.926743 461.993500,154.999939 461.956848,155.034210 
z"/>
<path fill="#000000" opacity="1.000000" stroke="none" 
	d="
M384.960938,181.034424 
	C393.382812,181.068832 401.841400,181.068832 410.649475,181.068832 
	C410.649475,189.585327 410.649475,198.083984 410.649475,206.994202 
	C402.372864,206.994202 394.121216,206.994202 385.396851,206.962708 
	C384.924194,206.931229 384.997589,207.000031 385.001282,206.562866 
	C385.026611,197.727158 385.048279,189.328613 385.069946,180.930054 
	C385.069946,180.930054 384.997620,181.000015 384.960938,181.034424 
z"/>
<path fill="#000000" opacity="1.000000" stroke="none" 
	d="
M462.039062,206.965576 
	C453.617188,206.931168 445.158600,206.931168 436.350525,206.931168 
	C436.350525,198.414673 436.350525,189.916016 436.350525,181.005798 
	C444.627136,181.005798 452.878784,181.005798 461.603149,181.037292 
	C462.075806,181.068771 462.002411,180.999969 461.998718,181.437134 
	C461.973358,190.272842 461.951691,198.671387 461.930054,207.069946 
	C461.930054,207.069946 462.002380,206.999985 462.039062,206.965576 
z"/>
<path fill="#000000" opacity="1.000000" stroke="none" 
	d="
M50.043064,309.965759 
	C41.615158,309.931488 33.150593,309.931488 24.343594,309.931488 
	C24.343594,301.517181 24.343594,293.127258 24.343594,284.368347 
	C32.556034,284.368347 41.060257,284.368347 49.994602,284.368347 
	C49.994602,292.614136 49.994602,300.871246 49.966145,309.600800 
	C49.937687,310.073242 50.006401,310.000061 50.043064,309.965759 
z"/>
<path fill="#000000" opacity="1.000000" stroke="none" 
	d="
M307.596008,77.604935 
	C298.964783,77.942657 290.678741,77.942657 282.202271,77.942657 
	C282.202271,69.198982 282.202271,60.795414 282.202271,52.205402 
	C290.807434,52.205402 299.210999,52.205402 307.941193,52.205402 
	C307.941193,60.692211 307.941193,68.979713 307.596008,77.604935 
z"/>
<path fill="#000000" opacity="1.000000" stroke="none" 
	d="
M242.999542,52.000977 
	C247.473190,52.000977 251.449493,52.000977 255.711487,52.000977 
	C255.711487,60.615334 255.711487,69.018539 255.711487,77.711906 
	C247.383789,77.711906 238.980591,77.711906 230.287659,77.711906 
	C230.287659,69.382927 230.287659,60.979729 230.287659,52.000977 
	C234.300079,52.000977 238.401138,52.000977 242.999542,52.000977 
z"/>
<path fill="#000000" opacity="1.000000" stroke="none" 
	d="
M205.043304,412.965515 
	C196.615387,412.931213 188.150803,412.931213 179.343689,412.931213 
	C179.343689,404.517151 179.343689,396.127350 179.343689,387.368439 
	C187.555969,387.368439 196.060150,387.368439 204.994598,387.368439 
	C204.994598,395.613983 204.994598,403.871063 204.966248,412.600586 
	C204.937912,413.072968 205.006653,412.999786 205.043304,412.965515 
z"/>
<path fill="#000000" opacity="1.000000" stroke="none" 
	d="
M605.983704,748.000916 
	C609.792297,748.000916 613.104370,748.000916 616.706055,748.000916 
	C616.706055,756.270386 616.706055,764.340759 616.706055,772.706665 
	C608.394653,772.706665 599.991272,772.706665 591.292847,772.706665 
	C591.292847,764.727295 591.292847,756.656921 591.292847,748.000916 
	C595.959717,748.000916 600.723450,748.000916 605.983704,748.000916 
z"/>
<path fill="#000000" opacity="1.000000" stroke="none" 
	d="
M745.956787,722.034058 
	C754.051758,722.068359 762.183411,722.068359 770.656982,722.068359 
	C770.656982,730.483765 770.656982,738.873169 770.656982,747.631653 
	C762.777283,747.631653 754.605896,747.631653 746.005371,747.631653 
	C746.005371,739.385010 746.005371,731.128296 746.033752,722.399109 
	C746.062134,721.926636 745.993408,721.999817 745.956787,722.034058 
z"/>
<path fill="#000000" opacity="1.000000" stroke="none" 
	d="
M539.043274,51.965752 
	C530.948303,51.931465 522.816650,51.931465 514.343018,51.931465 
	C514.343018,43.516502 514.343018,35.126980 514.343018,26.368412 
	C522.222717,26.368412 530.394043,26.368412 538.994690,26.368412 
	C538.994690,34.614887 538.994690,42.871605 538.966309,51.600769 
	C538.937866,52.073215 539.006592,52.000034 539.043274,51.965752 
z"/>
<path fill="#000000" opacity="1.000000" stroke="none" 
	d="
M50.039101,437.965576 
	C41.617538,437.931152 33.159275,437.931152 24.351036,437.931152 
	C24.351036,429.748657 24.351036,421.582642 24.351036,413.005798 
	C32.627789,413.005798 40.879124,413.005798 49.603142,413.037292 
	C50.075825,413.068787 50.002422,412.999969 49.998734,413.437134 
	C49.973385,421.939514 49.951721,430.004730 49.930061,438.069946 
	C49.930061,438.069946 50.002399,438.000000 50.039101,437.965576 
z"/>
<path fill="#000000" opacity="1.000000" stroke="none" 
	d="
M745.960938,516.034363 
	C754.049438,516.068787 762.174744,516.068787 770.649536,516.068787 
	C770.649536,524.251648 770.649536,532.416992 770.649536,540.994202 
	C762.706482,540.994202 754.788025,540.994202 746.396851,540.962769 
	C745.924194,540.931274 745.997559,541.000061 746.001221,540.562866 
	C746.026611,532.060486 746.048279,523.995300 746.069946,515.930054 
	C746.069946,515.930054 745.997620,515.999939 745.960938,516.034363 
z"/>
<path fill="#000000" opacity="1.000000" stroke="none" 
	d="
M767.833252,310.001099 
	C771.198059,309.512207 771.032715,311.385254 771.018738,313.330750 
	C770.968445,320.322449 770.998962,327.314728 770.998962,334.652771 
	C762.839600,334.652771 754.765076,334.652771 746.344543,334.652771 
	C746.344543,326.834106 746.344543,318.759735 746.344543,310.000977 
	C753.177429,310.000977 760.262634,310.000977 767.833252,310.001099 
z"/>
<path fill="#FFFFFF" opacity="1.000000" stroke="none" 
	d="
M333.075836,541.069031 
	C333.075836,532.929321 333.075836,524.789612 333.075836,515.995056 
	C384.468872,515.995056 435.797272,515.995056 487.597809,515.962524 
	C488.069946,524.074097 488.069946,532.218201 488.069946,540.753052 
	C479.457306,540.753052 471.051056,540.753052 462.324402,540.753052 
	C462.324402,549.533936 462.324402,557.936096 462.324402,566.670410 
	C479.188110,566.670410 496.248993,566.670410 513.702637,566.670410 
	C513.702637,558.509460 513.702637,550.103088 513.702637,541.349670 
	C522.147766,541.349670 530.218384,541.349670 538.645569,541.349670 
	C538.645569,558.257690 538.645569,575.434937 538.645569,593.006409 
	C530.530396,593.006409 522.456360,593.006409 514.003540,593.006409 
	C514.003540,601.792969 514.003540,610.199768 514.003540,618.797302 
	C505.213684,618.797302 496.814941,618.797302 488.024170,618.797302 
	C488.024170,610.227295 488.024170,601.821533 488.024170,593.053589 
	C462.248291,593.053589 436.859955,593.053589 410.994843,593.053589 
	C410.994843,584.419983 410.994843,576.150208 411.433197,567.437988 
	C419.796295,566.995544 427.721069,566.995544 435.632751,566.995544 
	C435.632751,558.059631 435.632751,549.555176 435.632751,541.342896 
	C427.206085,541.342896 419.148285,541.342896 411.068542,541.342896 
	C411.068542,550.150330 411.068542,558.614868 411.068542,567.079468 
	C402.601501,567.079468 394.134460,567.079468 385.290466,567.079468 
	C385.290466,575.504150 385.290466,583.899170 385.290466,592.646606 
	C367.760345,592.646606 350.602448,592.646606 333.005341,592.646606 
	C333.005341,584.395874 333.005341,576.135315 333.003845,567.437317 
	C333.002380,566.999939 332.930054,567.069946 333.402130,567.037476 
	C342.125061,567.004944 350.375916,567.004944 358.651398,567.004944 
	C358.651398,558.084229 358.651398,549.585876 358.651398,540.930054 
	C349.845490,540.930054 341.387787,540.930054 332.966217,540.965088 
	C333.002380,541.000061 333.075836,541.069031 333.075836,541.069031 
z"/>
<path fill="#FFFFFF" opacity="1.000000" stroke="none" 
	d="
M488.075867,464.069031 
	C488.075867,455.595795 488.075867,447.122528 488.075867,438.324829 
	C522.291687,438.324829 556.441284,438.324829 590.962830,438.324829 
	C590.962830,455.434723 590.962830,472.489838 590.962830,489.995056 
	C599.592468,489.995056 607.859070,489.995056 616.597839,489.962555 
	C617.069946,498.401245 617.069946,506.872437 617.069946,516.004944 
	C574.202698,516.004944 531.538513,516.004944 488.402222,516.037476 
	C487.955170,507.671509 487.980255,499.273041 488.003876,490.437225 
	C488.002380,489.999847 487.930054,490.069946 488.402161,490.037415 
	C505.451874,490.004913 522.029480,490.004913 538.643799,490.004913 
	C538.643799,481.089142 538.643799,472.580841 538.643799,463.930054 
	C521.501831,463.930054 504.715942,463.930054 487.966248,463.965088 
	C488.002441,464.000092 488.075867,464.069031 488.075867,464.069031 
z"/>
<path fill="#FFFFFF" opacity="1.000000" stroke="none" 
	d="
M568.164673,567.000122 
	C593.279663,567.000000 617.907654,567.000000 642.767090,567.000000 
	C642.767090,593.064026 642.767090,618.801147 642.767090,644.769409 
	C616.931274,644.769409 591.194153,644.769409 565.000000,644.769409 
	C565.000000,639.059937 565.000000,633.444824 565.000000,627.829651 
	C565.000000,608.831116 564.992371,589.832520 565.012146,570.833984 
	C565.014038,568.997375 564.225159,566.490234 568.164673,567.000122 
M616.943054,593.746338 
	C608.425293,593.746338 599.907593,593.746338 591.207642,593.746338 
	C591.207642,601.814209 591.207642,610.218262 591.207642,618.789551 
	C599.820068,618.789551 608.224121,618.789551 616.996033,618.789551 
	C616.996033,610.627808 616.996033,602.670776 616.943054,593.746338 
z"/>
<path fill="#FFFFFF" opacity="1.000000" stroke="none" 
	d="
M282.402130,593.037476 
	C281.930054,575.956848 281.930054,558.843750 281.930054,541.004883 
	C298.744965,541.004883 315.437775,541.004883 332.603210,541.036987 
	C333.075836,541.069031 333.002380,541.000061 332.998718,541.437134 
	C332.973419,550.272827 332.951721,558.671387 332.930054,567.069946 
	C332.930054,567.069946 333.002380,566.999939 333.039124,566.965454 
	C324.949768,566.931030 316.823700,566.931030 308.159119,566.931030 
	C308.159119,575.579468 308.159119,584.090027 308.159119,593.004944 
	C299.376160,593.004944 291.125183,593.004944 282.402130,593.037476 
z"/>
<path fill="#FFFFFF" opacity="1.000000" stroke="none" 
	d="
M332.950684,670.027039 
	C341.374237,670.061279 349.834442,670.061279 358.835754,670.061279 
	C358.835754,661.760803 358.835754,653.581116 358.835754,645.005615 
	C367.621918,645.005615 375.873535,645.005615 384.562561,645.005859 
	C384.999908,645.006165 384.926666,644.937317 384.926666,644.937317 
	C384.926666,661.722656 384.926666,678.508057 384.926666,695.646729 
	C367.758850,695.646729 350.599823,695.646729 333.004059,695.646729 
	C333.004059,687.390503 333.004059,679.128540 333.029968,670.393188 
	C333.055847,669.919739 332.987305,669.992798 332.950684,670.027039 
z"/>
<path fill="#FFFFFF" opacity="1.000000" stroke="none" 
	d="
M385.034241,645.042847 
	C385.068542,636.604797 385.068542,628.130066 385.068542,619.327881 
	C410.510071,619.327881 435.887512,619.327881 461.632721,619.327881 
	C461.632721,627.565979 461.632721,636.080322 461.632721,644.995544 
	C436.363495,644.995544 411.117554,644.995544 385.399109,644.966431 
	C384.926666,644.937317 384.999908,645.006165 385.034241,645.042847 
z"/>
<path fill="#FFFFFF" opacity="1.000000" stroke="none" 
	d="
M745.597900,515.962524 
	C746.048279,523.995300 746.026611,532.060486 746.037476,540.597839 
	C720.191589,541.069946 694.313293,541.069946 667.995056,541.069946 
	C667.995056,532.725464 667.995056,524.799866 667.962524,516.402100 
	C693.661987,515.951660 719.393860,515.973328 745.597900,515.962524 
z"/>
<path fill="#FFFFFF" opacity="1.000000" stroke="none" 
	d="
M720.050598,592.971436 
	C702.960388,592.937195 685.833618,592.937195 668.353394,592.937195 
	C668.353394,584.533081 668.353394,576.135498 668.353394,567.368164 
	C685.220276,567.368164 702.384827,567.368164 719.996033,567.368164 
	C719.996033,575.602417 719.996033,583.867249 719.970703,592.605408 
	C719.945374,593.078674 720.013977,593.005615 720.050598,592.971436 
z"/>
<path fill="#FFFFFF" opacity="1.000000" stroke="none" 
	d="
M591.028564,696.050598 
	C591.062805,687.620728 591.062805,679.154236 591.062805,670.343994 
	C599.480164,670.343994 607.871155,670.343994 616.631836,670.343994 
	C616.631836,678.555664 616.631836,687.060791 616.631836,695.996033 
	C608.385010,695.996033 600.126404,695.996033 591.394592,695.970703 
	C590.921326,695.945374 590.994385,696.013977 591.028564,696.050598 
z"/>
<path fill="#FFFFFF" opacity="1.000000" stroke="none" 
	d="
M642.962524,490.402130 
	C651.043701,489.930054 659.157349,489.930054 668.005005,489.930054 
	C668.005005,498.404633 668.005005,506.765198 668.037476,515.597839 
	C659.956299,516.069946 651.842651,516.069946 642.995056,516.069946 
	C642.995056,507.595337 642.995056,499.234772 642.962524,490.402130 
z"/>
<path fill="#FFFFFF" opacity="1.000000" stroke="none" 
	d="
M539.068604,387.079712 
	C530.929138,387.079712 522.789673,387.079712 514.265991,387.079712 
	C514.265991,378.474487 514.265991,370.072968 514.265991,361.337280 
	C505.497284,361.337280 497.098785,361.337280 488.313232,361.337280 
	C488.313232,369.477264 488.313232,377.878448 488.313232,386.639099 
	C462.441010,386.639099 436.950073,386.639099 411.005341,386.639099 
	C411.005341,378.405975 411.005341,370.140289 411.003876,361.437256 
	C411.002411,360.999878 410.930054,361.069946 411.402130,361.037415 
	C419.792175,361.004913 427.710144,361.004913 435.651886,361.004913 
	C435.651886,352.083862 435.651886,343.586212 435.651886,334.930054 
	C427.179504,334.930054 419.054779,334.930054 410.966248,334.965088 
	C411.002441,335.000092 411.075867,335.069031 411.075867,335.069031 
	C411.075867,326.923492 411.075867,318.777924 411.075867,310.251953 
	C436.548492,310.251953 461.942566,310.251953 487.667694,310.251953 
	C487.667694,301.480438 487.667694,293.076141 487.667694,284.274902 
	C479.487152,284.274902 471.079071,284.274902 462.337006,284.274902 
	C462.337006,275.490448 462.337006,267.085876 462.337006,258.284302 
	C470.503510,258.284302 478.911163,258.284302 487.710999,258.284302 
	C487.710999,249.501724 487.710999,241.093658 487.710999,232.344055 
	C504.829041,232.344055 521.560974,232.344055 538.646973,232.344055 
	C538.646973,240.476028 538.646973,248.881516 538.646973,257.683807 
	C530.863342,257.683807 522.788330,257.683807 514.357544,257.683807 
	C514.357544,283.585266 514.357544,309.095032 514.357544,334.980408 
	C548.452515,334.980408 582.507996,334.980408 616.948364,334.980408 
	C616.948364,352.414703 616.948364,369.480713 616.948364,386.930115 
	C634.062561,386.930115 650.795715,386.930115 668.004944,386.930115 
	C668.004944,395.581360 668.004944,403.853516 668.037476,412.597839 
	C625.198486,413.069946 582.327087,413.069946 538.994812,413.069946 
	C538.994812,404.407562 538.994812,396.144043 539.433228,387.438049 
	C556.787720,386.995514 573.703796,386.995514 590.632690,386.995514 
	C590.632690,378.073822 590.632690,369.562592 590.632690,361.332642 
	C573.216492,361.332642 556.168396,361.332642 539.068604,361.332642 
	C539.068604,370.136597 539.068604,378.608154 539.068604,387.079712 
z"/>
<path fill="#FFFFFF" opacity="1.000000" stroke="none" 
	d="
M333.402130,438.037415 
	C332.930054,429.939575 332.930054,421.809174 332.930054,413.307251 
	C324.845947,413.307251 316.786682,413.307251 308.182251,413.307251 
	C308.182251,404.447662 308.182251,395.931274 308.182251,387.004944 
	C299.386658,387.004944 291.130493,387.004944 282.402161,387.037445 
	C281.930054,378.612244 281.930054,370.154541 281.930054,361.158630 
	C290.580048,361.158630 299.090454,361.158630 307.995056,361.158630 
	C307.995056,352.375946 307.995056,344.125122 307.962555,335.402161 
	C315.995178,334.955139 324.060272,334.980255 332.562744,335.003876 
	C333.000122,335.002411 332.930054,334.930054 332.962555,335.402161 
	C332.995056,344.126282 332.995056,352.378265 332.995056,361.069946 
	C350.632538,361.069946 367.851257,361.069946 385.033752,361.034912 
	C384.997559,360.999908 384.924133,360.930969 384.924133,360.930969 
	C384.924133,369.405701 384.924133,377.880432 384.924133,386.743164 
	C376.466522,386.743164 368.062408,386.743164 359.330933,386.743164 
	C359.330933,395.518250 359.330933,403.918671 359.330933,412.847961 
	C393.266907,412.847961 427.425873,412.847961 461.956909,412.847961 
	C461.956909,430.093628 461.956909,446.818909 461.956909,464.004883 
	C470.593384,464.004883 478.861969,464.004883 487.603210,464.036957 
	C488.075867,464.069031 488.002441,464.000092 487.998779,464.437195 
	C487.973419,473.272858 487.951752,481.671387 487.930054,490.069946 
	C487.930054,490.069946 488.002380,489.999847 488.039124,489.965393 
	C470.939941,489.930939 453.804016,489.930939 436.289062,489.930939 
	C436.289062,472.823425 436.289062,455.762848 436.289062,438.351685 
	C419.071594,438.351685 402.229248,438.351685 385.005310,438.351685 
	C385.005310,455.464203 385.005310,472.525024 385.005310,489.790192 
	C376.229187,489.790192 367.831299,489.790192 359.053406,489.790192 
	C359.053406,472.584290 359.053406,455.523987 359.053406,438.004913 
	C350.413208,438.004913 342.143707,438.004913 333.402130,438.037415 
z"/>
<path fill="#FFFFFF" opacity="1.000000" stroke="none" 
	d="
M332.962585,207.402130 
	C341.328613,206.951721 349.727142,206.973389 358.597839,206.962555 
	C359.069946,223.727737 359.069946,240.525421 359.069946,257.709839 
	C367.499817,257.709839 375.902649,257.709839 384.651550,257.709839 
	C384.651550,266.480499 384.651550,274.880890 384.651550,283.641632 
	C359.432037,283.641632 333.937378,283.641632 308.054230,283.641632 
	C308.054230,275.256256 308.054230,266.854187 308.054230,258.004944 
	C299.408447,258.004944 291.141388,258.004944 282.402161,258.037445 
	C281.930054,249.606033 281.930054,241.142136 281.930054,232.159546 
	C298.925049,232.159546 315.749329,232.159546 332.995087,232.159546 
	C332.995087,223.723465 332.995087,215.798843 332.962585,207.402130 
z"/>
<path fill="#FFFFFF" opacity="1.000000" stroke="none" 
	d="
M308.037415,334.597870 
	C290.945831,335.069946 273.821686,335.069946 256.348877,335.069946 
	C256.348877,309.422638 256.348877,283.937805 256.348877,257.995056 
	C264.598297,257.995056 272.862000,257.995056 281.597839,257.962555 
	C282.069946,275.159271 282.069946,292.388458 282.069946,309.987061 
	C290.790161,309.987061 299.183136,309.987061 308.004913,309.987061 
	C308.004913,318.276215 308.004913,326.201019 308.037415,334.597870 
z"/>
<path fill="#FFFFFF" opacity="1.000000" stroke="none" 
	d="
M606.971619,310.000000 
	C584.171631,310.000000 561.866394,310.000000 539.280945,310.000000 
	C539.280945,301.369904 539.280945,292.964600 539.280945,284.278259 
	C564.970093,284.278259 590.705444,284.278259 616.720947,284.278259 
	C616.720947,292.633881 616.720947,301.039185 616.720947,310.000000 
	C613.680603,310.000000 610.573425,310.000000 606.971619,310.000000 
z"/>
<path fill="#FFFFFF" opacity="1.000000" stroke="none" 
	d="
M333.034607,335.039124 
	C333.069061,326.943756 333.069061,318.811646 333.069061,310.339844 
	C350.260651,310.339844 367.411774,310.339844 384.994659,310.339844 
	C384.994659,318.275604 384.994659,326.200500 384.996155,334.562775 
	C384.997620,335.000153 385.069946,334.930054 384.597839,334.962585 
	C367.060516,334.973419 349.995300,334.951752 332.930054,334.930054 
	C332.930054,334.930054 333.000122,335.002411 333.034607,335.039124 
z"/>
<path fill="#FFFFFF" opacity="1.000000" stroke="none" 
	d="
M411.039124,360.965393 
	C402.673706,360.952301 394.271545,360.973694 385.396790,360.963013 
	C384.924133,360.930969 384.997559,360.999908 385.001251,360.562805 
	C385.026611,351.727142 385.048279,343.328613 385.069946,334.930054 
	C385.069946,334.930054 384.997620,335.000153 384.960876,335.034607 
	C393.326294,335.047668 401.728455,335.026276 410.603210,335.036957 
	C411.075867,335.069031 411.002441,335.000092 410.998749,335.437195 
	C410.973389,344.272858 410.951721,352.671387 410.930054,361.069946 
	C410.930054,361.069946 411.002411,360.999878 411.039124,360.965393 
z"/>
<path fill="#FFFFFF" opacity="1.000000" stroke="none" 
	d="
M384.597839,180.962555 
	C385.048279,189.328613 385.026611,197.727158 385.037445,206.597839 
	C376.671387,207.048279 368.272858,207.026611 359.402161,207.037445 
	C358.930054,198.623718 358.930054,190.177475 358.930054,180.995056 
	C367.403107,180.995056 375.764435,180.995056 384.597839,180.962555 
z"/>
<path fill="#FFFFFF" opacity="1.000000" stroke="none" 
	d="
M462.402130,207.037445 
	C461.951691,198.671387 461.973358,190.272842 461.962524,181.402161 
	C470.328613,180.951721 478.727142,180.973389 487.597839,180.962555 
	C488.069946,189.376282 488.069946,197.822525 488.069946,207.004944 
	C479.596893,207.004944 471.235565,207.004944 462.402130,207.037445 
z"/>
<path fill="#FFFFFF" opacity="1.000000" stroke="none" 
	d="
M655.005066,310.000000 
	C650.865173,310.000000 647.221130,310.000000 643.289429,310.000000 
	C643.289429,301.388855 643.289429,292.984802 643.289429,284.288818 
	C651.278503,284.288818 659.349609,284.288818 667.711914,284.288818 
	C667.711914,292.614014 667.711914,301.018036 667.711914,310.000000 
	C663.703186,310.000000 659.602051,310.000000 655.005066,310.000000 
z"/>
<path fill="#FFFFFF" opacity="1.000000" stroke="none" 
	d="
M255.962555,490.402161 
	C264.396667,489.930054 272.863251,489.930054 281.705750,489.930054 
	C281.705750,481.498627 281.705750,473.105133 281.705750,464.159332 
	C290.574341,464.159332 299.094574,464.159332 307.975586,464.159332 
	C307.975586,455.223022 307.975586,446.827240 307.975586,437.995056 
	C316.271027,437.995056 324.198364,437.995056 332.597839,437.962555 
	C333.069946,455.056122 333.069946,472.182159 333.069946,489.692139 
	C324.850830,489.692139 316.783295,489.692139 308.157471,489.692139 
	C308.157471,498.573517 308.157471,507.099121 308.157471,515.804443 
	C290.550201,515.804443 273.502350,515.804443 255.995056,515.804443 
	C255.995056,507.403625 255.995056,499.138916 255.962555,490.402161 
z"/>
<path fill="#FCFCFC" opacity="1.000000" stroke="none" 
	d="
M745.929871,81.000015 
	C745.929871,114.436562 745.929871,147.373108 745.929871,180.570969 
	C702.913879,180.570969 660.338440,180.570969 617.380615,180.570969 
	C617.380615,137.988693 617.380615,95.294312 617.380615,52.298882 
	C659.904053,52.298882 702.616089,52.298882 745.929871,52.298882 
	C745.929871,61.648731 745.929871,71.074371 745.929871,81.000015 
M642.564575,107.499802 
	C642.564575,123.236862 642.564575,138.973923 642.564575,154.639648 
	C668.668335,154.639648 694.199829,154.639648 719.601929,154.639648 
	C719.601929,128.874741 719.601929,103.470581 719.601929,78.173843 
	C693.773560,78.173843 668.233032,78.173843 642.564575,78.173843 
	C642.564575,87.856468 642.564575,97.178131 642.564575,107.499802 
z"/>
<path fill="#FCFCFC" opacity="1.000000" stroke="none" 
	d="
M50.163704,168.976715 
	C50.163704,129.846741 50.163704,91.212051 50.163704,52.287697 
	C93.079018,52.287697 135.678238,52.287697 178.640289,52.287697 
	C178.640289,94.787308 178.640289,137.509811 178.640289,180.534790 
	C136.145447,180.534790 93.549850,180.534790 50.163704,180.534790 
	C50.163704,176.965912 50.163704,173.218964 50.163704,168.976715 
M75.814224,120.499931 
	C75.814224,131.910370 75.814224,143.320816 75.814224,154.637451 
	C101.898819,154.637451 127.414009,154.637451 152.729980,154.637451 
	C152.729980,128.868225 152.729980,103.460220 152.729980,78.190109 
	C126.944611,78.190109 101.429108,78.190109 75.814224,78.190109 
	C75.814224,92.210503 75.814224,105.855217 75.814224,120.499931 
z"/>
<path fill="#FCFCFC" opacity="1.000000" stroke="none" 
	d="
M50.160194,698.999878 
	C50.160198,672.192383 50.160198,645.884949 50.160198,619.201782 
	C93.112953,619.201782 135.816315,619.201782 178.754730,619.201782 
	C178.754730,661.854431 178.754730,704.575562 178.754730,747.501953 
	C135.918045,747.501953 93.332085,747.501953 50.160194,747.501953 
	C50.160194,731.370117 50.160194,715.435059 50.160194,698.999878 
M110.499962,721.886475 
	C124.584129,721.886475 138.668304,721.886475 152.653076,721.886475 
	C152.653076,695.755005 152.653076,670.223267 152.653076,644.867859 
	C126.914856,644.867859 101.522346,644.867859 75.997849,644.867859 
	C75.997849,670.577881 75.997849,695.987366 75.997849,721.886475 
	C87.282707,721.886475 98.391335,721.886475 110.499962,721.886475 
z"/>
<path fill="#FFFFFF" opacity="1.000000" stroke="none" 
	d="
M126.997894,281.802979 
	C125.898430,282.857574 124.810333,283.901062 123.701622,283.923462 
	C116.375214,284.071411 109.044380,283.999908 101.357574,283.999908 
	C101.357574,275.529785 101.357574,267.120483 101.357574,258.354553 
	C109.476601,258.354553 117.885727,258.354553 126.999725,258.354553 
	C126.999725,265.819824 126.999725,273.569702 126.997894,281.802979 
z"/>
<path fill="#FFFFFF" opacity="1.000000" stroke="none" 
	d="
M178.962555,258.402161 
	C187.376297,257.930054 195.822540,257.930054 205.004944,257.930054 
	C205.004944,266.403076 205.004944,274.764374 205.037445,283.597839 
	C196.623718,284.069946 188.177475,284.069946 178.995056,284.069946 
	C178.995056,275.596893 178.995056,267.235565 178.962555,258.402161 
z"/>
<path fill="#FFFFFF" opacity="1.000000" stroke="none" 
	d="
M204.962555,284.402130 
	C213.054749,283.930054 221.179428,283.930054 229.651886,283.930054 
	C229.651886,292.586273 229.651886,301.083496 229.651886,310.004944 
	C221.710220,310.004944 213.792252,310.004944 205.402161,310.037445 
	C204.951721,301.671356 204.973389,293.272797 204.962555,284.402130 
z"/>
<path fill="#FFFFFF" opacity="1.000000" stroke="none" 
	d="
M204.597870,309.962585 
	C205.048279,317.995270 205.026611,326.060486 205.037445,334.597839 
	C196.612610,335.069946 188.155289,335.069946 179.349121,335.069946 
	C179.349121,326.748108 179.349121,318.582428 179.349121,309.995087 
	C187.624786,309.995087 195.875290,309.995087 204.597870,309.962585 
z"/>
<path fill="#FFFFFF" opacity="1.000000" stroke="none" 
	d="
M256.402130,207.037445 
	C255.930054,198.623703 255.930054,190.177460 255.930054,180.995056 
	C264.403076,180.995056 272.764374,180.995056 281.597839,180.962555 
	C282.069946,189.376297 282.069946,197.822525 282.069946,207.004944 
	C273.596863,207.004944 265.235535,207.004944 256.402130,207.037445 
z"/>
<path fill="#FFFFFF" opacity="1.000000" stroke="none" 
	d="
M307.962585,181.402130 
	C316.043701,180.930054 324.157349,180.930054 333.004944,180.930054 
	C333.004944,189.404617 333.004944,197.765167 333.037445,206.597824 
	C324.956299,207.069946 316.842651,207.069946 307.995087,207.069946 
	C307.995087,198.595337 307.995087,190.234772 307.962585,181.402130 
z"/>
<path fill="#FFFFFF" opacity="1.000000" stroke="none" 
	d="
M384.973083,77.950768 
	C384.938904,86.047554 384.938904,94.180962 384.938904,102.657074 
	C376.517883,102.657074 368.127228,102.657074 359.367493,102.657074 
	C359.367493,94.777206 359.367493,86.604721 359.367493,78.004082 
	C367.616852,78.004082 375.875153,78.004082 384.606934,78.030006 
	C385.080414,78.055931 385.007294,77.987381 384.973083,77.950768 
z"/>
<path fill="#FFFFFF" opacity="1.000000" stroke="none" 
	d="
M513.949585,103.028084 
	C522.046448,103.062286 530.179993,103.062286 538.656677,103.062286 
	C538.656677,111.480988 538.656677,119.871681 538.656677,128.631989 
	C530.777588,128.631989 522.605225,128.631989 514.003967,128.631989 
	C514.003967,120.383896 514.003967,112.125648 514.029419,103.394104 
	C514.054810,102.920807 513.986206,102.993881 513.949585,103.028084 
z"/>
<path fill="#FFFFFF" opacity="1.000000" stroke="none" 
	d="
M76.402130,490.037445 
	C75.930061,481.624695 75.930061,473.179474 75.930061,463.995056 
	C84.068565,463.995056 92.097145,463.995056 100.597824,463.962555 
	C101.069939,472.375305 101.069939,480.820587 101.069939,490.004944 
	C92.931404,490.004944 84.902794,490.004944 76.402130,490.037445 
z"/>
<path fill="#FFFFFF" opacity="1.000000" stroke="none" 
	d="
M50.402134,438.037445 
	C49.951721,430.004730 49.973385,421.939514 49.962555,413.402161 
	C66.661942,412.951721 83.393822,412.973389 100.597824,412.962555 
	C101.048279,420.995270 101.026611,429.060486 101.037445,437.597839 
	C84.338028,438.048279 67.606117,438.026611 50.402134,438.037445 
z"/>
<path fill="#000000" opacity="1.000000" stroke="none" 
	d="
M333.402130,567.037476 
	C332.951721,558.671387 332.973419,550.272827 332.962585,541.402161 
	C341.387787,540.930054 349.845490,540.930054 358.651398,540.930054 
	C358.651398,549.585876 358.651398,558.084229 358.651398,567.004944 
	C350.375916,567.004944 342.125061,567.004944 333.402130,567.037476 
z"/>
<path fill="#000000" opacity="1.000000" stroke="none" 
	d="
M411.034241,567.042847 
	C411.068542,558.614868 411.068542,550.150330 411.068542,541.342896 
	C419.148285,541.342896 427.206085,541.342896 435.632751,541.342896 
	C435.632751,549.555176 435.632751,558.059631 435.632751,566.995544 
	C427.721069,566.995544 419.796295,566.995544 411.399109,566.966431 
	C410.926666,566.937317 410.999908,567.006165 411.034241,567.042847 
z"/>
<path fill="#000000" opacity="1.000000" stroke="none" 
	d="
M488.402161,490.037415 
	C487.951752,481.671387 487.973419,473.272858 487.962585,464.402161 
	C504.715942,463.930054 521.501831,463.930054 538.643799,463.930054 
	C538.643799,472.580841 538.643799,481.089142 538.643799,490.004913 
	C522.029480,490.004913 505.451874,490.004913 488.402161,490.037415 
z"/>
<path fill="#000000" opacity="1.000000" stroke="none" 
	d="
M616.969543,594.230103 
	C616.996033,602.670776 616.996033,610.627808 616.996033,618.789551 
	C608.224121,618.789551 599.820068,618.789551 591.207642,618.789551 
	C591.207642,610.218262 591.207642,601.814209 591.207642,593.746338 
	C599.907593,593.746338 608.425293,593.746338 616.969543,594.230103 
z"/>
<path fill="#000000" opacity="1.000000" stroke="none" 
	d="
M539.034302,387.043030 
	C539.068604,378.608154 539.068604,370.136597 539.068604,361.332642 
	C556.168396,361.332642 573.216492,361.332642 590.632690,361.332642 
	C590.632690,369.562592 590.632690,378.073822 590.632690,386.995514 
	C573.703796,386.995514 556.787720,386.995514 539.399170,386.966522 
	C538.926758,386.937531 538.999939,387.006348 539.034302,387.043030 
z"/>
<path fill="#000000" opacity="1.000000" stroke="none" 
	d="
M411.402130,361.037415 
	C410.951721,352.671387 410.973389,344.272858 410.962555,335.402161 
	C419.054779,334.930054 427.179504,334.930054 435.651886,334.930054 
	C435.651886,343.586212 435.651886,352.083862 435.651886,361.004913 
	C427.710144,361.004913 419.792175,361.004913 411.402130,361.037415 
z"/>
<path fill="#000000" opacity="1.000000" stroke="none" 
	d="
M384.597839,334.962585 
	C385.048279,343.328613 385.026611,351.727142 385.037445,360.597839 
	C367.851257,361.069946 350.632538,361.069946 332.995056,361.069946 
	C332.995056,352.378265 332.995056,344.126282 332.962555,335.402161 
	C349.995300,334.951752 367.060516,334.973419 384.597839,334.962585 
z"/>
<path fill="#010101" opacity="1.000000" stroke="none" 
	d="
M642.564575,106.999802 
	C642.564575,97.178131 642.564575,87.856468 642.564575,78.173843 
	C668.233032,78.173843 693.773560,78.173843 719.601929,78.173843 
	C719.601929,103.470581 719.601929,128.874741 719.601929,154.639648 
	C694.199829,154.639648 668.668335,154.639648 642.564575,154.639648 
	C642.564575,138.973923 642.564575,123.236862 642.564575,106.999802 
z"/>
<path fill="#000000" opacity="1.000000" stroke="none" 
	d="
M75.814224,119.999924 
	C75.814224,105.855217 75.814224,92.210503 75.814224,78.190109 
	C101.429108,78.190109 126.944611,78.190109 152.729980,78.190109 
	C152.729980,103.460220 152.729980,128.868225 152.729980,154.637451 
	C127.414009,154.637451 101.898819,154.637451 75.814224,154.637451 
	C75.814224,143.320816 75.814224,131.910370 75.814224,119.999924 
z"/>
<path fill="#010101" opacity="1.000000" stroke="none" 
	d="
M109.999954,721.886475 
	C98.391335,721.886475 87.282707,721.886475 75.997849,721.886475 
	C75.997849,695.987366 75.997849,670.577881 75.997849,644.867859 
	C101.522346,644.867859 126.914856,644.867859 152.653076,644.867859 
	C152.653076,670.223267 152.653076,695.755005 152.653076,721.886475 
	C138.668304,721.886475 124.584129,721.886475 109.999954,721.886475 
z"/>
</svg>