<svg version="1.1" id="Layer_1" xmlns="http://www.w3.org/2000/svg" xmlns:xlink="http://www.w3.org/1999/xlink" x="0px" y="0px"
	 width="100%" viewBox="0 0 800 800" enable-background="new 0 0 800 800" xml:space="preserve">
<path fill="#FFFFFF" opacity="1.000000" stroke="none" 
	d="
M801.000000,214.000000 
	C801.000000,410.000000 801.000000,605.500000 801.000000,801.000000 
	C534.333313,801.000000 267.666656,801.000000 1.000000,801.000000 
	C1.000000,534.333313 1.000000,267.666656 1.000000,1.000000 
	C267.666656,1.000000 534.333313,1.000000 801.000000,1.000000 
	C801.000000,71.833336 801.000000,142.666672 801.000000,214.000000 
M749.874817,746.993896 
	C757.799438,746.993896 765.723999,746.993896 773.659363,746.993896 
	C773.659363,729.411438 773.659363,712.260864 773.659363,695.068848 
	C765.187805,695.068848 757.055969,695.068848 748.993896,694.125183 
	C748.993896,685.862976 748.993896,677.600830 748.993896,668.965698 
	C757.500916,668.965698 765.566711,668.965698 773.630981,668.965698 
	C773.630981,660.403809 773.630981,652.227966 773.630981,643.702271 
	C756.550720,643.702271 739.837830,643.702271 722.926636,643.702271 
	C722.926636,634.874512 722.926636,626.406189 723.871704,617.994812 
	C732.124390,617.994812 740.377075,617.994812 748.931152,617.994812 
	C748.931152,600.364258 748.931152,583.144165 749.874817,565.993896 
	C757.811035,565.993896 765.747253,565.993896 773.781982,565.993896 
	C773.781982,548.806030 773.781982,532.082520 773.781982,514.969482 
	C765.503357,514.969482 757.430481,514.969482 748.981018,514.969482 
	C748.981018,506.184814 748.981018,497.780121 748.981018,489.352295 
	C722.755737,489.352295 696.922058,489.352295 671.346069,489.352295 
	C671.346069,498.108124 671.346069,506.510132 671.346069,515.286255 
	C680.093872,515.286255 688.498840,515.286255 697.263245,515.286255 
	C697.263245,532.401978 697.263245,549.129272 697.263245,565.924194 
	C706.117554,565.924194 714.593140,565.924194 723.005676,566.869568 
	C723.026611,583.939697 723.047546,601.009827 722.125061,618.006409 
	C713.859497,618.006409 705.593872,618.006409 696.951416,618.006409 
	C696.951416,609.152405 696.951416,600.750610 696.951416,591.977051 
	C688.175720,591.977051 679.773865,591.977051 670.840027,591.977051 
	C670.840027,574.425598 670.840027,557.250793 670.840027,539.722290 
	C653.576782,539.722290 636.856689,539.722290 619.926636,539.722290 
	C619.926636,531.215759 619.926636,523.076782 620.871704,514.994812 
	C629.128906,514.994812 637.386108,514.994812 645.631836,514.994812 
	C645.631836,506.059692 645.631836,497.555756 645.631836,489.343445 
	C636.872803,489.343445 628.482910,489.343445 620.068420,489.343445 
	C620.068420,498.150635 620.068420,506.615295 619.125061,515.006409 
	C610.856140,515.006409 602.587219,515.006409 593.936646,515.006409 
	C593.936646,523.530701 593.936646,531.603088 593.936646,539.792969 
	C576.489563,539.792969 559.433167,539.792969 541.987122,539.792969 
	C541.987122,531.524597 541.987122,523.451904 541.987122,515.196411 
	C533.532715,515.196411 525.468506,515.196411 517.354492,515.196411 
	C517.354492,532.234619 517.354492,549.076050 517.354492,566.303345 
	C525.777954,566.303345 533.847656,566.303345 541.661255,566.303345 
	C541.661255,575.097717 541.661255,583.499512 541.661255,592.264587 
	C524.596436,592.264587 507.869568,592.264587 491.075745,592.264587 
	C491.075745,601.118103 491.075745,609.593506 490.130463,618.005615 
	C481.859558,618.005615 473.588684,618.005615 464.934326,618.005615 
	C464.934326,609.137085 464.934326,600.730652 464.934326,592.224670 
	C456.142303,592.224670 447.743439,592.224670 438.954681,592.224670 
	C438.954681,600.844849 438.954681,609.251587 438.954681,618.278503 
	C430.294434,618.278503 422.020966,618.278503 413.980347,617.285706 
	C413.980347,600.232849 413.980347,583.179993 413.980347,566.068970 
	C404.868469,566.068970 396.396362,566.068970 387.993927,565.125244 
	C387.993927,548.549683 387.993927,531.974121 387.993927,515.350342 
	C396.902740,515.350342 405.409973,515.350342 414.286743,515.350342 
	C414.286743,523.762207 414.286743,531.824463 414.286743,540.085388 
	C422.796722,540.085388 430.929901,540.085388 438.994629,540.012146 
	C438.994629,540.012146 438.921509,539.943542 438.995209,540.885437 
	C438.995209,549.153442 438.995209,557.421509 438.995209,565.779541 
	C456.533234,565.779541 473.589661,565.779541 490.631592,565.779541 
	C490.631592,540.058228 490.631592,514.558411 490.631592,488.671265 
	C481.860718,488.671265 473.455963,488.671265 464.682495,488.671265 
	C464.682495,479.876984 464.682495,471.472504 464.682495,463.347717 
	C455.888458,463.347717 447.486420,463.347717 438.710541,463.347717 
	C438.710541,472.096954 438.710541,480.501892 438.710541,488.679260 
	C421.594025,488.679260 404.868591,488.679260 387.924194,488.679260 
	C387.924194,479.882751 387.924194,471.406921 388.869507,462.994385 
	C397.128479,462.994385 405.387451,462.994385 413.931091,462.994385 
	C413.931091,437.019623 413.931091,411.471924 414.874786,385.993927 
	C422.806793,385.993927 430.738800,385.993927 439.029236,385.993927 
	C439.029236,368.494751 439.029236,351.442963 439.029236,333.836304 
	C447.905670,333.836304 456.431610,333.836304 464.924194,333.836304 
	C464.924194,307.827667 464.924194,282.379395 465.869568,256.994385 
	C482.798767,256.994385 499.727966,256.994385 516.783508,256.994385 
	C516.783508,265.845367 516.783508,274.244141 516.783508,283.033081 
	C508.170715,283.033081 499.764160,283.033081 491.198303,283.033081 
	C491.198303,300.150146 491.198303,316.875519 491.198303,333.799957 
	C499.794098,333.799957 508.192505,333.799957 517.159546,333.799957 
	C517.159546,325.431580 517.159546,317.232605 517.159546,309.358154 
	C525.801025,309.358154 533.872192,309.358154 542.316772,309.358154 
	C542.316772,317.788361 542.316772,325.861542 542.316772,333.650024 
	C551.113953,333.650024 559.517151,333.650024 568.295837,333.650024 
	C568.295837,325.230103 568.295837,317.157593 568.295837,308.712891 
	C577.091187,308.712891 585.497009,308.712891 594.274963,308.712891 
	C594.274963,299.918304 594.274963,291.512604 594.274963,283.317017 
	C611.728149,283.317017 628.788574,283.317017 646.074280,283.317017 
	C646.074280,292.110291 646.074280,300.586639 645.129028,309.005249 
	C636.852844,309.005249 628.576660,309.005249 620.247559,309.005249 
	C620.247559,326.225677 620.247559,342.963379 620.247559,360.126160 
	C637.289001,360.126160 654.085571,360.126160 670.992493,361.041748 
	C670.952820,369.321777 670.913208,377.601776 669.957947,385.992432 
	C662.029236,385.992432 654.100525,385.992432 645.785461,385.992432 
	C645.785461,395.016205 645.785461,403.428864 645.785461,411.688934 
	C636.973816,411.688934 628.566162,411.688934 619.768250,411.688934 
	C619.768250,402.969086 619.768250,394.556244 619.768250,386.321228 
	C602.292969,386.321228 585.220276,386.321228 567.752441,386.321228 
	C567.752441,395.050232 567.752441,403.463104 567.752441,411.672974 
	C541.944641,411.672974 516.538818,411.672974 490.736603,411.672974 
	C490.736603,394.271759 490.736603,377.196259 490.736603,360.337189 
	C481.924713,360.337189 473.516266,360.337189 465.341370,360.337189 
	C465.341370,386.080292 465.341370,411.486053 465.341370,437.287872 
	C474.091888,437.287872 482.504120,437.287872 491.297729,437.287872 
	C491.297729,446.098999 491.297729,454.511780 491.297729,462.645508 
	C500.110596,462.645508 508.520203,462.645508 517.314087,462.645508 
	C517.314087,453.881134 517.314087,445.470428 517.314087,437.360840 
	C525.794312,437.360840 533.871399,437.360840 542.331299,437.360840 
	C542.331299,446.133514 542.331299,454.546539 542.331299,463.161438 
	C551.020935,463.161438 559.310242,463.161438 567.994507,463.161438 
	C567.994507,471.786102 567.994507,480.198639 567.994507,488.797119 
	C576.800415,488.797119 585.205200,488.797119 594.010864,488.797119 
	C594.010864,480.193939 594.010864,471.780609 594.010864,462.979797 
	C619.815308,462.979797 645.222412,462.979797 670.999268,462.979797 
	C670.999268,461.459412 671.002869,460.334869 670.998657,459.210327 
	C670.906738,434.722717 670.814026,410.235107 671.714294,385.980347 
	C680.099182,385.980347 688.484131,385.980347 697.213928,385.980347 
	C697.213928,395.026215 697.213928,403.410339 697.213928,412.126160 
	C706.008972,412.126160 714.445557,412.126160 722.992493,413.041748 
	C722.992493,420.962677 722.992493,428.883575 722.992493,437.179565 
	C714.018860,437.179565 705.614685,437.179565 697.277100,437.179565 
	C697.277100,445.969391 697.277100,454.367432 697.277100,462.742981 
	C714.610168,462.742981 731.665527,462.742981 749.106995,462.742981 
	C749.106995,454.090332 749.106995,445.686523 749.106995,436.906952 
	C757.558289,436.906952 765.628784,436.906952 773.765381,436.906952 
	C773.765381,428.451874 773.765381,420.387970 773.765381,412.278168 
	C756.603882,412.278168 739.675842,412.278168 722.980347,411.285492 
	C722.980347,394.261414 722.980347,377.237305 722.980347,360.278168 
	C705.198730,360.278168 687.973267,360.278168 670.980347,359.285492 
	C670.980347,350.885040 670.980347,342.484589 670.980347,333.719696 
	C662.243103,333.719696 654.176208,333.719696 645.932434,333.719696 
	C645.932434,325.198730 645.932434,317.059845 646.875793,308.993683 
	C663.452454,308.993683 680.029175,308.993683 697.132690,308.993683 
	C697.132690,291.445374 697.132690,274.280853 697.132690,256.926849 
	C706.128540,256.926849 714.595398,256.926849 723.005188,257.871704 
	C723.005188,283.112701 723.005188,308.353729 723.005188,333.641113 
	C731.905029,333.641113 740.417786,333.641113 748.925720,333.641113 
	C748.925720,307.834320 748.925720,282.385651 749.870972,256.994751 
	C757.795410,256.994751 765.719849,256.994751 773.632202,256.994751 
	C773.632202,248.059814 773.632202,239.555756 773.632202,231.343704 
	C765.206116,231.343704 757.148743,231.343704 749.067566,231.343704 
	C749.067566,240.150681 749.067566,248.614883 748.124268,257.006317 
	C739.722900,257.027069 731.321533,257.047821 722.993591,256.125214 
	C722.993591,247.856750 722.993591,239.588272 722.993591,231.202271 
	C697.152222,231.202271 671.771606,231.202271 646.002258,231.202271 
	C646.002258,239.796707 646.002258,248.201614 646.002258,256.651093 
	C628.437195,256.651093 611.263367,256.651093 593.704529,256.651093 
	C593.704529,247.899353 593.704529,239.495178 593.704529,230.733841 
	C576.257996,230.733841 559.199219,230.733841 541.924194,230.733841 
	C541.924194,222.215698 541.924194,214.073456 542.869568,205.994370 
	C551.121338,205.994370 559.373047,205.994370 567.649719,205.994370 
	C567.649719,197.084015 567.649719,188.585251 567.649719,180.068817 
	C558.841553,180.068817 550.382874,180.068817 541.993896,179.125137 
	C541.971252,162.062439 541.948608,144.999741 542.871094,127.994743 
	C551.134766,127.994743 559.398499,127.994743 567.632202,127.994743 
	C567.632202,110.717552 567.632202,93.887085 567.632202,77.352806 
	C558.866638,77.352806 550.469849,77.352806 542.067749,77.352806 
	C542.067749,94.496208 542.067749,111.287643 541.124451,128.006332 
	C533.059998,128.029526 524.995544,128.052719 516.994385,127.130569 
	C516.971558,101.732727 516.948792,76.334885 517.871094,50.994736 
	C525.795532,50.994736 533.719910,50.994736 541.632202,50.994736 
	C541.632202,42.059765 541.632202,33.555698 541.632202,25.343731 
	C533.206116,25.343731 525.148743,25.343731 517.067749,25.343731 
	C517.067749,34.150684 517.067749,42.614880 516.124390,51.006336 
	C507.866333,51.006336 499.608276,51.006336 491.068878,51.006336 
	C491.068878,76.982605 491.068878,102.529213 490.125183,128.006104 
	C481.864075,128.006104 473.602966,128.006104 464.841553,128.006104 
	C464.841553,102.081238 464.841553,76.600792 464.841553,51.075825 
	C455.866333,51.075825 447.398743,51.075825 438.994385,50.130493 
	C438.994385,41.879082 438.994385,33.627666 438.994385,25.350815 
	C430.417419,25.350815 422.251282,25.350815 414.068909,25.350815 
	C414.068909,34.159107 414.068909,42.617447 413.125214,51.006107 
	C396.193939,51.006107 379.262695,51.006107 361.941956,51.006107 
	C361.941956,59.857449 361.941956,68.265205 361.941956,76.786072 
	C344.819458,76.786072 328.091095,76.786072 310.977905,76.786072 
	C310.977905,59.511650 310.977905,42.446529 310.977905,25.362282 
	C284.749817,25.362282 258.909058,25.362282 233.359512,25.362282 
	C233.359512,34.130703 233.359512,42.535809 233.359512,51.316601 
	C242.123932,51.316601 250.531250,51.316601 258.649170,51.316601 
	C258.649170,60.117165 258.649170,68.522041 258.649170,77.303825 
	C249.892288,77.303825 241.486008,77.303825 233.330765,77.303825 
	C233.330765,103.088860 233.330765,128.479660 233.330765,153.671997 
	C242.066635,153.671997 250.469910,153.671997 259.253601,153.671997 
	C259.253601,144.941040 259.253601,136.533432 259.253601,128.084930 
	C276.785553,128.084930 293.924194,128.084930 310.994385,128.011673 
	C310.994385,128.011673 310.921265,127.943054 310.995178,128.884964 
	C311.021271,137.277466 311.047363,145.669968 310.128510,154.005234 
	C301.864685,154.005234 293.600861,154.005234 285.368042,154.005234 
	C285.368042,171.616257 285.368042,188.779770 285.368042,205.646774 
	C294.133972,205.646774 302.530914,205.646774 310.931641,205.646774 
	C310.931641,188.169708 310.931641,171.045059 311.875031,153.993637 
	C319.808624,153.993637 327.742218,153.993637 336.199585,153.993637 
	C336.199585,179.952225 336.199585,205.449387 336.199585,231.306915 
	C353.785492,231.306915 370.840210,231.306915 387.914825,231.306915 
	C387.914825,248.805908 387.914825,265.934418 387.988098,282.994507 
	C387.988098,282.994507 388.056702,282.921387 387.114807,282.995209 
	C378.722321,283.021301 370.329865,283.047394 361.994781,282.128510 
	C361.994781,273.871307 361.994781,265.614105 361.994781,257.368011 
	C353.059875,257.368011 344.555878,257.368011 336.343262,257.368011 
	C336.343262,266.126801 336.343262,274.516785 336.343262,282.931702 
	C345.150208,282.931702 353.614807,282.931702 362.006348,283.875092 
	C362.006348,292.145813 362.006348,300.416565 362.006348,308.778687 
	C344.801422,308.778687 328.074585,308.778687 310.956451,308.778687 
	C310.956451,300.160248 310.956451,291.754211 310.956451,283.205292 
	C293.504150,283.205292 276.444580,283.205292 258.824371,283.205292 
	C258.824371,300.252777 258.824371,317.104218 258.824371,334.333496 
	C249.858734,334.333496 241.452850,334.333496 233.360245,334.333496 
	C233.360245,343.133759 233.360245,351.538177 233.360245,359.661926 
	C259.442017,359.661926 285.163727,359.661926 311.272583,359.661926 
	C311.272583,350.921082 311.272583,342.514557 311.272583,334.327423 
	C319.737457,334.327423 327.807373,334.327423 336.075806,334.327423 
	C336.075806,351.793091 336.075806,368.931000 335.130432,386.005615 
	C318.536469,386.005615 301.942505,386.005615 285.215424,386.005615 
	C285.215424,394.841248 285.215424,403.238739 285.215424,412.024902 
	C293.824432,412.024902 302.229950,412.024902 311.178345,412.024902 
	C311.178345,429.255615 311.178345,446.104645 311.178345,463.328430 
	C319.804626,463.328430 327.876892,463.328430 336.317078,463.328430 
	C336.317078,472.122406 336.317078,480.527130 336.317078,489.301849 
	C345.109924,489.301849 353.513123,489.301849 361.672974,489.301849 
	C361.672974,506.418579 361.672974,523.144226 361.672974,540.252625 
	C352.943939,540.252625 344.538818,540.252625 336.075745,540.252625 
	C336.075745,549.117737 336.075745,557.593323 335.130463,566.005615 
	C327.196411,566.005615 319.262329,566.005615 310.965088,566.005615 
	C310.965088,583.509399 310.965088,600.564514 310.965088,617.807312 
	C302.198730,617.807312 293.803467,617.807312 284.860565,617.807312 
	C284.860565,600.447693 284.860565,583.270630 284.860565,566.067749 
	C267.182373,566.067749 250.051682,566.067749 232.993668,565.124390 
	C232.993668,556.857056 232.993668,548.589722 232.993668,539.971436 
	C259.171112,539.971436 284.883636,539.971436 310.637573,539.971436 
	C310.637573,531.425354 310.637573,523.243835 310.637573,514.711975 
	C284.563995,514.711975 258.851471,514.711975 232.924179,514.711975 
	C232.924179,505.879425 232.924179,497.405304 233.869522,488.994385 
	C250.805222,488.994385 267.740936,488.994385 284.770630,488.994385 
	C284.770630,471.466431 284.770630,454.401245 284.770630,437.000763 
	C266.924835,437.000763 249.305450,436.964783 231.686295,437.011200 
	C215.040085,437.055023 198.394135,437.185455 181.980408,436.285156 
	C181.980408,428.212189 181.980408,420.139221 181.980408,411.695770 
	C191.109253,411.695770 199.514297,411.695770 207.659027,411.695770 
	C207.659027,402.901947 207.659027,394.500366 207.659027,385.735840 
	C190.260437,385.735840 173.200714,385.735840 155.924179,385.735840 
	C155.924179,376.882690 155.924179,368.406921 156.869522,359.994385 
	C173.778641,359.994385 190.687775,359.994385 207.647949,359.994385 
	C207.647949,351.098480 207.647949,342.591217 207.647949,333.714935 
	C198.903030,333.714935 190.507462,333.714935 181.926224,333.714935 
	C181.926224,325.204803 181.926224,317.070984 182.871277,308.994751 
	C191.128494,308.994751 199.385712,308.994751 207.632080,308.994751 
	C207.632080,300.060486 207.632080,291.556061 207.632080,283.343170 
	C198.873398,283.343170 190.483414,283.343170 182.068024,283.343170 
	C182.068024,292.149994 182.068024,300.614594 181.124664,309.006317 
	C172.726837,309.029480 164.328995,309.052643 155.994370,308.130493 
	C155.994370,299.767517 155.994370,291.404572 155.994370,283.068878 
	C146.819672,283.068878 138.371933,283.068878 129.993896,282.125183 
	C129.993896,265.201660 129.993896,248.278137 129.993896,231.346069 
	C95.408524,231.346069 61.255051,231.346069 27.323818,231.346069 
	C27.323818,248.747803 27.323818,265.803162 27.323818,282.924164 
	C36.120617,282.924164 44.594715,282.924164 53.005630,283.869507 
	C53.005630,292.135773 53.005630,300.402069 53.005630,309.045898 
	C44.155243,309.045898 35.753178,309.045898 27.205482,309.045898 
	C27.205482,317.493103 27.205482,325.554443 27.205482,334.144409 
	C52.900295,334.144409 78.395592,334.144409 104.266891,334.144409 
	C104.266891,343.072174 104.266891,351.473572 104.266891,359.924194 
	C113.124123,359.924194 121.596474,359.924194 130.005630,360.869537 
	C130.005630,377.810089 130.005630,394.750641 130.005630,412.086670 
	C138.884933,412.086670 147.296753,412.086670 156.094574,412.086670 
	C156.094574,420.556641 156.094574,428.635010 156.094574,437.125763 
	C164.954483,437.125763 173.418442,437.125763 181.992477,438.041443 
	C182.017944,446.386230 182.043411,454.731018 181.125183,463.006073 
	C172.858047,463.006073 164.590897,463.006073 155.959167,463.006073 
	C155.959167,480.514832 155.959167,497.571136 155.959167,514.803711 
	C147.190292,514.803711 138.794464,514.803711 129.849533,514.803711 
	C129.849533,497.436981 129.849533,480.258759 129.849533,463.073273 
	C103.846039,463.073273 78.391830,463.073273 52.994774,462.128357 
	C52.994774,436.882904 52.994774,411.637482 52.994774,386.368134 
	C44.080048,386.368134 35.566422,386.368134 27.328674,386.368134 
	C27.328674,412.112823 27.328674,437.489655 27.328674,462.931488 
	C36.130737,462.931488 44.605209,462.931488 53.006378,463.874878 
	C53.028709,472.270721 53.051037,480.666565 52.128448,489.005219 
	C43.871239,489.005219 35.614029,489.005219 27.368113,489.005219 
	C27.368113,497.939697 27.368113,506.444061 27.368113,514.656738 
	C36.126984,514.656738 44.516960,514.656738 52.931587,514.656738 
	C52.931587,505.849640 52.931587,497.384979 53.874966,488.993652 
	C62.141506,488.993652 70.408051,488.993652 79.052696,488.993652 
	C79.052696,497.851379 79.052696,506.254120 79.052696,515.030457 
	C87.497849,515.030457 95.568054,515.030457 104.172897,515.030457 
	C104.172897,532.253113 104.172897,549.097046 104.172897,565.664856 
	C121.775139,565.664856 138.828690,565.664856 156.260620,565.664856 
	C156.260620,556.931396 156.260620,548.528992 156.260620,540.086304 
	C165.118942,540.086304 173.591385,540.086304 181.995407,540.013000 
	C181.995407,540.013000 181.922287,539.944336 181.995239,540.886169 
	C181.995239,549.135071 181.995239,557.383972 181.995239,565.925964 
	C199.300156,565.925964 216.181595,565.925964 233.005264,566.871033 
	C233.005264,575.146545 233.005264,583.422058 233.005264,592.088867 
	C241.887360,592.088867 250.298615,592.088867 259.093689,592.088867 
	C259.093689,609.556946 259.093689,626.630249 259.093689,644.095459 
	C267.894257,644.095459 276.305359,644.095459 284.873840,644.095459 
	C284.873840,652.622559 284.873840,660.752319 283.958252,668.992493 
	C267.033356,668.992493 250.108490,668.992493 233.303421,668.992493 
	C233.303421,703.674683 233.303421,737.744019 233.303421,771.696899 
	C276.341858,771.696899 319.077026,771.696899 361.696167,771.696899 
	C361.696167,737.324463 361.696167,703.255127 361.696167,669.307739 
	C352.983521,669.307739 344.576874,669.307739 335.781189,669.307739 
	C335.781189,686.686462 335.781189,703.760742 335.781189,720.914612 
	C327.233978,720.914612 319.085449,720.914612 311.005371,720.987854 
	C311.005371,720.987854 311.078491,721.056458 311.004791,720.114563 
	C311.004791,711.848694 311.004791,703.582886 311.004791,694.938721 
	C302.136932,694.938721 293.735168,694.938721 284.721832,694.938721 
	C284.721832,685.953735 284.721832,677.350830 285.714508,668.980347 
	C294.115051,668.980347 302.515594,668.980347 311.280701,668.980347 
	C311.280701,660.242737 311.280701,652.175781 311.280701,643.745483 
	C319.727203,643.745483 327.793732,643.745483 336.224670,643.745483 
	C336.224670,634.967407 336.224670,626.568848 336.224670,618.126465 
	C362.365082,618.126465 388.123444,618.126465 413.992432,619.042053 
	C413.992432,627.302979 413.992432,635.563965 413.992432,644.210693 
	C404.990295,644.210693 396.578735,644.210693 388.308960,644.210693 
	C388.308960,652.686340 388.308960,660.759216 388.308960,669.221680 
	C397.023987,669.221680 405.435791,669.221680 414.073151,669.221680 
	C414.073151,686.767944 414.073151,703.915100 413.128296,721.005188 
	C404.864655,721.005188 396.601013,721.005188 388.368164,721.005188 
	C388.368164,738.282898 388.368164,755.113098 388.368164,771.646973 
	C397.133942,771.646973 405.530670,771.646973 413.931396,771.646973 
	C413.931396,754.503174 413.931396,737.711670 414.874786,720.993591 
	C431.472809,720.993591 448.070831,720.993591 464.776001,720.993591 
	C464.776001,729.858459 464.776001,738.258545 464.776001,747.049927 
	C456.153992,747.049927 447.747406,747.049927 439.219299,747.049927 
	C439.219299,755.510986 439.219299,763.577515 439.219299,771.800049 
	C465.160126,771.800049 490.882202,771.800049 516.997681,771.800049 
	C516.997681,763.538391 516.997681,755.463318 516.997681,747.200073 
	C525.457764,747.200073 533.524597,747.200073 542.161865,747.200073 
	C542.161865,755.566650 542.161865,763.767822 542.161865,771.661072 
	C577.116943,771.661072 611.501465,771.661072 645.663757,771.661072 
	C645.663757,763.249756 645.663757,755.179077 645.663757,746.746460 
	C619.604736,746.746460 593.880127,746.746460 567.926636,746.746460 
	C567.926636,737.893005 567.926636,729.415466 568.871704,720.994812 
	C577.128906,720.994812 585.386108,720.994812 593.631836,720.994812 
	C593.631836,712.059692 593.631836,703.555725 593.631836,695.343384 
	C584.872681,695.343384 576.482666,695.343384 568.068420,695.343384 
	C568.068420,704.150635 568.068420,712.615295 567.125061,721.006409 
	C558.868286,721.006409 550.611572,721.006409 541.814270,721.006409 
	C541.814270,712.067261 541.814270,703.550415 541.814270,694.689453 
	C533.208130,694.689453 525.148376,694.689453 516.931152,694.689453 
	C516.931152,685.852600 516.931152,677.388367 517.874817,668.993896 
	C560.450317,668.993896 603.025818,668.993896 645.632629,668.993896 
	C645.632629,677.914185 645.632629,686.431580 645.632629,695.332397 
	C636.860107,695.332397 628.454163,695.332397 620.358582,695.332397 
	C620.358582,704.131226 620.358582,712.535095 620.358582,721.303589 
	C637.444885,721.303589 654.174438,721.303589 671.276245,721.303589 
	C671.276245,738.414001 671.276245,755.143616 671.276245,771.674927 
	C680.063171,771.674927 688.465149,771.674927 697.246399,771.674927 
	C697.246399,763.281189 697.246399,755.207520 697.246399,746.924194 
	C706.114746,746.924194 714.591736,746.924194 723.005615,747.869568 
	C723.005615,755.788452 723.005615,763.707275 723.005615,771.650146 
	C731.916382,771.650146 740.414429,771.650146 748.931152,771.650146 
	C748.931152,763.175476 748.931152,755.049805 749.874817,746.993896 
M594.166992,109.499939 
	C594.166992,141.262497 594.166992,173.025070 594.166992,204.946198 
	C654.379517,204.946198 714.080322,204.946198 773.820923,204.946198 
	C773.820923,145.022766 773.820923,85.343102 773.820923,25.706123 
	C713.803955,25.706123 654.111145,25.706123 594.166992,25.706123 
	C594.166992,53.559242 594.166992,81.029587 594.166992,109.499939 
M36.560707,25.324970 
	C33.764477,25.324970 30.968248,25.324970 27.977375,25.324970 
	C27.977375,85.504089 27.977375,145.208145 27.977375,204.916626 
	C87.873268,204.916626 147.456116,204.916626 207.130188,204.916626 
	C207.130188,145.043930 207.130188,85.442261 207.130188,25.324982 
	C150.459686,25.324982 94.003662,25.324982 36.560707,25.324970 
M177.500000,592.000244 
	C127.592499,592.000244 77.684990,592.000244 27.996948,592.000244 
	C27.996948,652.395874 27.996948,712.118896 27.996948,771.817566 
	C87.908401,771.817566 147.489304,771.817566 207.119781,771.817566 
	C207.119781,711.828247 207.119781,652.098755 207.119781,592.000244 
	C197.432602,592.000244 187.966309,592.000244 177.500000,592.000244 
M80.714645,386.004700 
	C80.144547,386.602600 79.079819,387.197754 79.076477,387.798798 
	C78.986092,404.078796 79.004356,420.359375 79.004356,436.780151 
	C87.503426,436.780151 95.574211,436.780151 103.777855,436.780151 
	C103.777855,419.823944 103.777855,403.087433 103.777855,386.001038 
	C96.268501,386.001038 88.974907,386.001038 80.714645,386.004700 
M258.999237,404.439941 
	C258.999237,398.346436 258.999237,392.252930 258.999237,386.310120 
	C249.975372,386.310120 241.570236,386.310120 233.311584,386.310120 
	C233.311584,395.027588 233.311584,403.432770 233.311584,411.686707 
	C242.030182,411.686707 250.435104,411.686707 258.999237,411.686707 
	C258.999237,409.391266 258.999237,407.407379 258.999237,404.439941 
M258.999237,250.423447 
	C258.999237,243.997757 258.999237,237.572052 258.999237,231.316925 
	C249.962296,231.316925 241.556747,231.316925 233.318985,231.316925 
	C233.318985,240.041855 233.318985,248.447784 233.318985,256.678467 
	C242.045456,256.678467 250.450882,256.678467 258.999237,256.678467 
	C258.999237,254.707153 258.999237,253.053650 258.999237,250.423447 
M310.999237,243.502197 
	C310.999237,239.401077 310.999237,235.299957 310.999237,231.287476 
	C302.020355,231.287476 293.617035,231.287476 285.287903,231.287476 
	C285.287903,239.980515 285.287903,248.383835 285.287903,256.711670 
	C293.981384,256.711670 302.384735,256.711670 310.999237,256.711670 
	C310.999237,252.449631 310.999237,248.473267 310.999237,243.502197 
M187.599899,231.000778 
	C185.826187,231.000778 184.052475,231.000778 182.256134,231.000778 
	C182.256134,239.913391 182.256134,248.317062 182.256134,256.741821 
	C190.917465,256.741821 199.320618,256.741821 207.739792,256.741821 
	C207.739792,248.078384 207.739792,239.674484 207.739792,231.000778 
	C201.181503,231.000778 194.879028,231.000778 187.599899,231.000778 
M77.285339,565.995300 
	C77.855438,565.397461 78.913345,564.806519 78.921814,564.200806 
	C79.032814,556.253296 78.995636,548.303711 78.995636,540.219727 
	C70.162415,540.219727 61.758724,540.219727 53.222771,540.219727 
	C53.222771,548.843750 53.222771,557.247437 53.222771,565.998962 
	C61.065842,565.998962 68.692245,565.998962 77.285339,565.995300 
M253.400085,205.999222 
	C255.173782,205.999222 256.947479,205.999222 258.743896,205.999222 
	C258.743896,197.086624 258.743896,188.683624 258.743896,180.258179 
	C250.082565,180.258179 241.678741,180.258179 233.260208,180.258179 
	C233.260208,188.921616 233.260208,197.325516 233.260208,205.999222 
	C239.818497,205.999222 246.120972,205.999222 253.400085,205.999222 
z"/>
<path fill="#000000" opacity="1.000000" stroke="none" 
	d="
M311.073425,154.062469 
	C311.047363,145.669968 311.021271,137.277466 311.431458,128.440399 
	C319.793365,127.995850 327.718964,127.995850 335.632416,127.995850 
	C335.632416,119.060394 335.632416,110.555550 335.632416,102.343933 
	C327.204926,102.343933 319.146637,102.343933 311.062836,102.343933 
	C311.062836,111.153458 311.062836,119.619194 311.062836,128.084930 
	C293.924194,128.084930 276.785553,128.084930 259.253601,128.084930 
	C259.253601,136.533432 259.253601,144.941040 259.253601,153.671997 
	C250.469910,153.671997 242.066635,153.671997 233.330765,153.671997 
	C233.330765,128.479660 233.330765,103.088860 233.330765,77.303825 
	C241.486008,77.303825 249.892288,77.303825 258.649170,77.303825 
	C258.649170,68.522041 258.649170,60.117165 258.649170,51.316601 
	C250.531250,51.316601 242.123932,51.316601 233.359512,51.316601 
	C233.359512,42.535809 233.359512,34.130703 233.359512,25.362282 
	C258.909058,25.362282 284.749817,25.362282 310.977905,25.362282 
	C310.977905,42.446529 310.977905,59.511650 310.977905,76.786072 
	C328.091095,76.786072 344.819458,76.786072 361.941956,76.786072 
	C361.941956,68.265205 361.941956,59.857449 361.941956,51.006107 
	C379.262695,51.006107 396.193939,51.006107 413.562622,51.004242 
	C414.000061,51.002380 413.930054,50.930061 413.962555,51.402130 
	C413.995056,60.124702 413.995056,68.375206 413.995056,76.650879 
	C422.582733,76.650879 430.748108,76.650879 439.069946,76.650879 
	C439.069946,67.844727 439.069946,59.387394 439.034973,50.966240 
	C439.000000,51.002415 438.931152,51.075825 438.931152,51.075825 
	C447.398743,51.075825 455.866333,51.075825 464.841553,51.075825 
	C464.841553,76.600792 464.841553,102.081238 464.841553,128.006104 
	C473.602966,128.006104 481.864075,128.006104 490.562592,128.004257 
	C491.000000,128.002411 490.930054,127.930061 490.962585,128.402130 
	C490.995087,137.125046 490.995087,145.375900 490.995087,153.651382 
	C499.915771,153.651382 508.414093,153.651382 517.069946,153.651382 
	C517.069946,144.845413 517.069946,136.387741 517.034912,127.966278 
	C516.999939,128.002487 516.931091,128.075912 516.931091,128.075912 
	C524.995544,128.052719 533.059998,128.029526 541.561768,128.006042 
	C541.999146,128.005753 541.925964,127.937042 541.925964,127.937042 
	C541.948608,144.999741 541.971252,162.062439 541.995728,179.562561 
	C541.997620,179.999985 542.069946,179.930054 541.597900,179.962555 
	C533.097229,179.995056 525.068604,179.995056 516.930054,179.995056 
	C516.930054,189.179428 516.930054,197.624680 516.965027,206.034973 
	C517.000000,206.000000 517.069946,205.930054 516.597900,205.962555 
	C507.866058,205.995056 499.606354,205.995056 490.978516,205.995056 
	C490.978516,197.175720 490.978516,188.780869 490.978516,180.353928 
	C482.091370,180.353928 473.584167,180.353928 464.709900,180.353928 
	C464.709900,189.100739 464.709900,197.495728 464.709900,206.073425 
	C455.868927,206.073425 447.403168,206.073425 438.966492,205.600983 
	C438.995514,196.790573 438.995514,188.452606 438.995514,179.872833 
	C430.265259,179.872833 422.192078,179.872833 414.063660,179.415100 
	C414.008362,170.703522 414.008362,162.449692 414.008362,153.819794 
	C405.016785,153.819794 396.612579,153.819794 387.834991,153.819794 
	C387.834991,145.032471 387.834991,136.628235 387.834991,128.269470 
	C379.044769,128.269470 370.646576,128.269470 362.237366,128.269470 
	C362.237366,154.253983 362.237366,179.968277 362.237366,205.770233 
	C370.873718,205.770233 379.271027,205.770233 388.055176,205.770233 
	C388.055176,197.145569 388.055176,188.740692 388.055176,179.720505 
	C397.044189,179.720505 405.648834,179.720505 414.136261,180.216949 
	C414.019012,189.109192 414.019012,197.504990 414.019012,205.931549 
	C422.810944,205.931549 430.945251,205.931549 439.042603,206.403229 
	C439.005615,214.802536 439.005615,222.730148 439.005615,231.027374 
	C430.503601,231.027374 422.440765,231.027374 414.358643,231.027374 
	C414.358643,239.917175 414.358643,248.425125 414.358643,257.069946 
	C431.501434,257.069946 448.285706,257.069946 465.033783,257.034973 
	C464.997620,256.999969 464.924194,256.931122 464.924194,256.931122 
	C464.924194,282.379395 464.924194,307.827667 464.924194,333.836304 
	C456.431610,333.836304 447.905670,333.836304 439.029236,333.836304 
	C439.029236,351.442963 439.029236,368.494751 439.029236,385.993927 
	C430.738800,385.993927 422.806793,385.993927 414.437378,385.995789 
	C413.999939,385.997620 414.069946,386.069946 414.037415,385.597839 
	C414.004913,368.208740 414.004913,351.291748 414.004913,334.193848 
	C405.191437,334.193848 396.798553,334.193848 387.846588,334.193848 
	C387.846588,342.896851 387.846588,351.422058 387.846588,360.301941 
	C378.889221,360.301941 370.490936,360.301941 361.725952,360.301941 
	C361.725952,369.082123 361.725952,377.481476 361.725952,385.930054 
	C352.872284,385.930054 344.401154,385.930054 335.966217,385.965027 
	C336.002380,386.000031 336.075806,386.068878 336.075806,386.068878 
	C336.075806,368.931000 336.075806,351.793091 336.075806,334.327423 
	C327.807373,334.327423 319.737457,334.327423 311.272583,334.327423 
	C311.272583,342.514557 311.272583,350.921082 311.272583,359.661926 
	C285.163727,359.661926 259.442017,359.661926 233.360245,359.661926 
	C233.360245,351.538177 233.360245,343.133759 233.360245,334.333496 
	C241.452850,334.333496 249.858734,334.333496 258.824371,334.333496 
	C258.824371,317.104218 258.824371,300.252777 258.824371,283.205292 
	C276.444580,283.205292 293.504150,283.205292 310.956451,283.205292 
	C310.956451,291.754211 310.956451,300.160248 310.956451,308.778687 
	C328.074585,308.778687 344.801422,308.778687 362.006348,308.778687 
	C362.006348,300.416565 362.006348,292.145813 362.006226,283.437683 
	C362.006104,283.000305 361.937378,283.073486 361.937378,283.073486 
	C370.329865,283.047394 378.722321,283.021301 387.559448,283.431519 
	C388.004120,292.132477 388.004120,300.397125 388.004120,308.632324 
	C405.281372,308.632324 422.112854,308.632324 438.647308,308.632324 
	C438.647308,299.865540 438.647308,291.468109 438.647308,283.062958 
	C421.501373,283.062958 404.708099,283.062958 387.914825,283.062958 
	C387.914825,265.934418 387.914825,248.805908 387.914825,231.306915 
	C370.840210,231.306915 353.785492,231.306915 336.199585,231.306915 
	C336.199585,205.449387 336.199585,179.952225 336.199585,153.993637 
	C327.742218,153.993637 319.808624,153.993637 311.437622,153.993683 
	C311.000244,153.993729 311.073425,154.062469 311.073425,154.062469 
z"/>
<path fill="#000000" opacity="1.000000" stroke="none" 
	d="
M722.926636,617.937866 
	C722.926636,626.406189 722.926636,634.874512 722.926636,643.702271 
	C739.837830,643.702271 756.550720,643.702271 773.630981,643.702271 
	C773.630981,652.227966 773.630981,660.403809 773.630981,668.965698 
	C765.566711,668.965698 757.500916,668.965698 748.993896,668.965698 
	C748.993896,677.600830 748.993896,685.862976 748.995728,694.562622 
	C748.997559,695.000000 749.069946,694.930054 748.597839,694.962524 
	C739.873779,694.994995 731.621765,694.994995 722.930054,694.994995 
	C722.930054,712.632690 722.930054,729.851318 722.964966,747.033813 
	C722.999939,746.997620 723.068787,746.924194 723.068787,746.924194 
	C714.591736,746.924194 706.114746,746.924194 697.246399,746.924194 
	C697.246399,755.207520 697.246399,763.281189 697.246399,771.674927 
	C688.465149,771.674927 680.063171,771.674927 671.276245,771.674927 
	C671.276245,755.143616 671.276245,738.414001 671.276245,721.303589 
	C654.174438,721.303589 637.444885,721.303589 620.358582,721.303589 
	C620.358582,712.535095 620.358582,704.131226 620.358582,695.332397 
	C628.454163,695.332397 636.860107,695.332397 645.632629,695.332397 
	C645.632629,686.431580 645.632629,677.914185 645.632629,668.993896 
	C603.025818,668.993896 560.450317,668.993896 517.437378,668.995728 
	C516.999939,668.997559 517.069946,669.069946 517.037476,668.597900 
	C517.004944,660.197998 517.004944,652.270264 517.004944,643.972961 
	C525.495972,643.972961 533.558838,643.972961 541.641479,643.972961 
	C541.641479,635.083069 541.641479,626.575134 541.641479,617.930054 
	C524.498718,617.930054 507.714386,617.930054 490.966187,617.965088 
	C491.002350,618.000122 491.075745,618.068970 491.075745,618.068970 
	C491.075745,609.593506 491.075745,601.118103 491.075745,592.264587 
	C507.869568,592.264587 524.596436,592.264587 541.661255,592.264587 
	C541.661255,583.499512 541.661255,575.097717 541.661255,566.303345 
	C533.847656,566.303345 525.777954,566.303345 517.354492,566.303345 
	C517.354492,549.076050 517.354492,532.234619 517.354492,515.196411 
	C525.468506,515.196411 533.532715,515.196411 541.987122,515.196411 
	C541.987122,523.451904 541.987122,531.524597 541.987122,539.792969 
	C559.433167,539.792969 576.489563,539.792969 593.936646,539.792969 
	C593.936646,531.603088 593.936646,523.530701 593.936646,515.006409 
	C602.587219,515.006409 610.856140,515.006409 619.562439,515.006531 
	C619.999817,515.006653 619.926636,514.937866 619.926636,514.937866 
	C619.926636,523.076782 619.926636,531.215759 619.926636,539.722290 
	C636.856689,539.722290 653.576782,539.722290 670.840027,539.722290 
	C670.840027,557.250793 670.840027,574.425598 670.840027,591.977051 
	C679.773865,591.977051 688.175720,591.977051 696.951416,591.977051 
	C696.951416,600.750610 696.951416,609.152405 696.951416,618.006409 
	C705.593872,618.006409 713.859497,618.006409 722.562439,618.006531 
	C722.999817,618.006653 722.926636,617.937866 722.926636,617.937866 
M568.000000,614.500000 
	C568.000000,624.264038 568.000000,634.028137 568.000000,643.712769 
	C594.311584,643.712769 620.047607,643.712769 645.712769,643.712769 
	C645.712769,617.688416 645.712769,591.952393 645.712769,566.287231 
	C619.688477,566.287231 593.952454,566.287231 568.000000,566.287231 
	C568.000000,582.215698 568.000000,597.857849 568.000000,614.500000 
M697.000000,666.500000 
	C697.000000,659.068848 697.000000,651.637695 697.000000,644.287781 
	C688.019714,644.287781 679.615173,644.287781 671.286255,644.287781 
	C671.286255,661.312378 671.286255,678.047729 671.286255,694.712280 
	C679.980164,694.712280 688.384705,694.712280 697.000000,694.712280 
	C697.000000,685.450806 697.000000,676.475403 697.000000,666.500000 
z"/>
<path fill="#000000" opacity="1.000000" stroke="none" 
	d="
M567.926636,720.937866 
	C567.926636,729.415466 567.926636,737.893005 567.926636,746.746460 
	C593.880127,746.746460 619.604736,746.746460 645.663757,746.746460 
	C645.663757,755.179077 645.663757,763.249756 645.663757,771.661072 
	C611.501465,771.661072 577.116943,771.661072 542.161865,771.661072 
	C542.161865,763.767822 542.161865,755.566650 542.161865,747.200073 
	C533.524597,747.200073 525.457764,747.200073 516.997681,747.200073 
	C516.997681,755.463318 516.997681,763.538391 516.997681,771.800049 
	C490.882202,771.800049 465.160126,771.800049 439.219299,771.800049 
	C439.219299,763.577515 439.219299,755.510986 439.219299,747.049927 
	C447.747406,747.049927 456.153992,747.049927 464.776001,747.049927 
	C464.776001,738.258545 464.776001,729.858459 464.776001,720.993591 
	C448.070831,720.993591 431.472809,720.993591 414.437378,720.993530 
	C413.999969,720.993530 414.073151,721.062256 414.073151,721.062256 
	C414.073151,703.915100 414.073151,686.767944 414.073151,669.221680 
	C405.435791,669.221680 397.023987,669.221680 388.308960,669.221680 
	C388.308960,660.759216 388.308960,652.686340 388.308960,644.210693 
	C396.578735,644.210693 404.990295,644.210693 413.992432,644.210693 
	C413.992432,635.563965 413.992432,627.302979 413.906372,618.619080 
	C413.820343,618.196106 413.747498,618.278503 413.747498,618.278503 
	C422.020966,618.278503 430.294434,618.278503 438.954681,618.278503 
	C438.954681,609.251587 438.954681,600.844849 438.954681,592.224670 
	C447.743439,592.224670 456.142303,592.224670 464.934326,592.224670 
	C464.934326,600.730652 464.934326,609.137085 464.934326,618.005615 
	C473.588684,618.005615 481.859558,618.005615 490.603088,618.037292 
	C491.075745,618.068970 491.002350,618.000122 490.998718,618.437195 
	C490.995056,635.553162 490.995056,652.231995 490.995056,669.069946 
	C500.152924,669.069946 508.611450,669.069946 517.069946,669.069946 
	C517.069946,669.069946 516.999939,668.997559 516.965576,668.960815 
	C516.931152,677.388367 516.931152,685.852600 516.931152,694.689453 
	C525.148376,694.689453 533.208130,694.689453 541.814270,694.689453 
	C541.814270,703.550415 541.814270,712.067261 541.814270,721.006409 
	C550.611572,721.006409 558.868286,721.006409 567.562439,721.006531 
	C567.999817,721.006653 567.926636,720.937866 567.926636,720.937866 
z"/>
<path fill="#000000" opacity="1.000000" stroke="none" 
	d="
M723.062256,256.926849 
	C714.595398,256.926849 706.128540,256.926849 697.132690,256.926849 
	C697.132690,274.280853 697.132690,291.445374 697.132690,308.993683 
	C680.029175,308.993683 663.452454,308.993683 646.438416,308.993958 
	C646.001038,308.994263 646.074280,309.062988 646.074280,309.062988 
	C646.074280,300.586639 646.074280,292.110291 646.074280,283.317017 
	C628.788574,283.317017 611.728149,283.317017 594.274963,283.317017 
	C594.274963,291.512604 594.274963,299.918304 594.274963,308.712891 
	C585.497009,308.712891 577.091187,308.712891 568.295837,308.712891 
	C568.295837,317.157593 568.295837,325.230103 568.295837,333.650024 
	C559.517151,333.650024 551.113953,333.650024 542.316772,333.650024 
	C542.316772,325.861542 542.316772,317.788361 542.316772,309.358154 
	C533.872192,309.358154 525.801025,309.358154 517.159546,309.358154 
	C517.159546,317.232605 517.159546,325.431580 517.159546,333.799957 
	C508.192505,333.799957 499.794098,333.799957 491.198303,333.799957 
	C491.198303,316.875519 491.198303,300.150146 491.198303,283.033081 
	C499.764160,283.033081 508.170715,283.033081 516.783508,283.033081 
	C516.783508,274.244141 516.783508,265.845367 516.783508,256.994385 
	C499.727966,256.994385 482.798767,256.994385 465.396881,256.962769 
	C464.924194,256.931122 464.997620,256.999969 465.001282,256.562805 
	C465.004944,247.868423 465.004944,239.611191 465.004944,230.842712 
	C482.581909,230.842712 499.738983,230.842712 517.069946,230.842712 
	C517.069946,222.193008 517.069946,214.061523 517.069946,205.930054 
	C517.069946,205.930054 517.000000,206.000000 517.437134,206.002472 
	C525.939514,206.026611 534.004700,206.048279 542.033813,206.034988 
	C541.997620,206.000031 541.924194,205.931198 541.924194,205.931198 
	C541.924194,214.073456 541.924194,222.215698 541.924194,230.733841 
	C559.199219,230.733841 576.257996,230.733841 593.704529,230.733841 
	C593.704529,239.495178 593.704529,247.899353 593.704529,256.651093 
	C611.263367,256.651093 628.437195,256.651093 646.002258,256.651093 
	C646.002258,248.201614 646.002258,239.796707 646.002258,231.202271 
	C671.771606,231.202271 697.152222,231.202271 722.993591,231.202271 
	C722.993591,239.588272 722.993591,247.856750 722.993530,256.562622 
	C722.993530,257.000031 723.062256,256.926849 723.062256,256.926849 
z"/>
<path fill="#020202" opacity="1.000000" stroke="none" 
	d="
M594.166992,108.999931 
	C594.166992,81.029587 594.166992,53.559242 594.166992,25.706123 
	C654.111145,25.706123 713.803955,25.706123 773.820923,25.706123 
	C773.820923,85.343102 773.820923,145.022766 773.820923,204.946198 
	C714.080322,204.946198 654.379517,204.946198 594.166992,204.946198 
	C594.166992,173.025070 594.166992,141.262497 594.166992,108.999931 
M738.463501,179.834259 
	C741.886353,179.834259 745.309204,179.834259 748.694702,179.834259 
	C748.694702,136.521423 748.694702,93.945724 748.694702,51.233143 
	C705.747742,51.233143 663.036316,51.233143 620.312256,51.233143 
	C620.312256,94.165085 620.312256,136.861816 620.312256,179.834244 
	C659.574280,179.834244 698.523376,179.834244 738.463501,179.834259 
z"/>
<path fill="#010101" opacity="1.000000" stroke="none" 
	d="
M37.054169,25.324976 
	C94.003662,25.324982 150.459686,25.324982 207.130188,25.324982 
	C207.130188,85.442261 207.130188,145.043930 207.130188,204.916626 
	C147.456116,204.916626 87.873268,204.916626 27.977375,204.916626 
	C27.977375,145.208145 27.977375,85.504089 27.977375,25.324970 
	C30.968248,25.324970 33.764477,25.324970 37.054169,25.324976 
M182.002808,81.500000 
	C182.002808,71.401604 182.002808,61.303207 182.002808,51.394890 
	C138.712021,51.394890 95.999046,51.394890 53.486301,51.394890 
	C53.486301,94.379494 53.486301,136.965866 53.486301,179.603973 
	C96.401314,179.603973 138.993332,179.603973 182.002808,179.603973 
	C182.002808,147.082291 182.002808,114.791145 182.002808,81.500000 
z"/>
<path fill="#010101" opacity="1.000000" stroke="none" 
	d="
M178.000000,592.000244 
	C187.966309,592.000244 197.432602,592.000244 207.119781,592.000244 
	C207.119781,652.098755 207.119781,711.828247 207.119781,771.817566 
	C147.489304,771.817566 87.908401,771.817566 27.996948,771.817566 
	C27.996948,712.118896 27.996948,652.395874 27.996948,592.000244 
	C77.684990,592.000244 127.592499,592.000244 178.000000,592.000244 
M165.498749,617.825317 
	C128.213501,617.825317 90.928246,617.825317 53.502544,617.825317 
	C53.502544,660.990295 53.502544,703.687927 53.502544,746.461548 
	C96.432953,746.461548 139.020584,746.461548 181.721512,746.461548 
	C181.721512,703.486938 181.721512,660.758728 181.721512,617.825317 
	C176.459106,617.825317 171.478363,617.825317 165.498749,617.825317 
z"/>
<path fill="#000000" opacity="1.000000" stroke="none" 
	d="
M336.075745,566.068970 
	C336.075745,557.593323 336.075745,549.117737 336.075745,540.252625 
	C344.538818,540.252625 352.943939,540.252625 361.672974,540.252625 
	C361.672974,523.144226 361.672974,506.418579 361.672974,489.301849 
	C353.513123,489.301849 345.109924,489.301849 336.317078,489.301849 
	C336.317078,480.527130 336.317078,472.122406 336.317078,463.328430 
	C327.876892,463.328430 319.804626,463.328430 311.178345,463.328430 
	C311.178345,446.104645 311.178345,429.255615 311.178345,412.024902 
	C302.229950,412.024902 293.824432,412.024902 285.215424,412.024902 
	C285.215424,403.238739 285.215424,394.841248 285.215424,386.005615 
	C301.942505,386.005615 318.536469,386.005615 335.603119,386.037231 
	C336.075806,386.068878 336.002380,386.000031 335.998718,386.437164 
	C335.995056,395.134827 335.995056,403.395355 335.995056,412.025330 
	C344.827820,412.025330 353.223450,412.025330 362.138641,412.025330 
	C362.138641,429.225739 362.138641,446.057190 362.138641,463.069946 
	C371.135193,463.069946 379.602570,463.069946 388.033783,463.034973 
	C387.997620,462.999969 387.924194,462.931122 387.924194,462.931122 
	C387.924194,471.406921 387.924194,479.882751 387.924194,488.679260 
	C404.868591,488.679260 421.594025,488.679260 438.710541,488.679260 
	C438.710541,480.501892 438.710541,472.096954 438.710541,463.347717 
	C447.486420,463.347717 455.888458,463.347717 464.682495,463.347717 
	C464.682495,471.472504 464.682495,479.876984 464.682495,488.671265 
	C473.455963,488.671265 481.860718,488.671265 490.631592,488.671265 
	C490.631592,514.558411 490.631592,540.058228 490.631592,565.779541 
	C473.589661,565.779541 456.533234,565.779541 438.995209,565.779541 
	C438.995209,557.421509 438.995209,549.153442 439.431580,540.440674 
	C448.125977,539.995911 456.384064,539.995911 464.632263,539.995911 
	C464.632263,531.394836 464.632263,523.222534 464.632263,515.342957 
	C455.872437,515.342957 447.481934,515.342957 439.063080,515.342957 
	C439.063080,523.818970 439.063080,531.952209 439.063080,540.085388 
	C430.929901,540.085388 422.796722,540.085388 414.286743,540.085388 
	C414.286743,531.824463 414.286743,523.762207 414.286743,515.350342 
	C405.409973,515.350342 396.902740,515.350342 387.993927,515.350342 
	C387.993927,531.974121 387.993927,548.549683 387.995789,565.562683 
	C387.997650,566.000122 388.069946,565.930054 387.597839,565.962524 
	C370.060516,565.973389 352.995300,565.951721 335.966187,565.965088 
	C336.002350,566.000122 336.075745,566.068970 336.075745,566.068970 
z"/>
<path fill="#000000" opacity="1.000000" stroke="none" 
	d="
M670.721436,385.747498 
	C670.814026,410.235107 670.906738,434.722717 670.998657,459.210327 
	C671.002869,460.334869 670.999268,461.459412 670.999268,462.979797 
	C645.222412,462.979797 619.815308,462.979797 594.010864,462.979797 
	C594.010864,471.780609 594.010864,480.193939 594.010864,488.797119 
	C585.205200,488.797119 576.800415,488.797119 567.994507,488.797119 
	C567.994507,480.198639 567.994507,471.786102 567.994507,463.161438 
	C559.310242,463.161438 551.020935,463.161438 542.331299,463.161438 
	C542.331299,454.546539 542.331299,446.133514 542.331299,437.360840 
	C533.871399,437.360840 525.794312,437.360840 517.314087,437.360840 
	C517.314087,445.470428 517.314087,453.881134 517.314087,462.645508 
	C508.520203,462.645508 500.110596,462.645508 491.297729,462.645508 
	C491.297729,454.511780 491.297729,446.098999 491.297729,437.287872 
	C482.504120,437.287872 474.091888,437.287872 465.341370,437.287872 
	C465.341370,411.486053 465.341370,386.080292 465.341370,360.337189 
	C473.516266,360.337189 481.924713,360.337189 490.736603,360.337189 
	C490.736603,377.196259 490.736603,394.271759 490.736603,411.672974 
	C516.538818,411.672974 541.944641,411.672974 567.752441,411.672974 
	C567.752441,403.463104 567.752441,395.050232 567.752441,386.321228 
	C585.220276,386.321228 602.292969,386.321228 619.768250,386.321228 
	C619.768250,394.556244 619.768250,402.969086 619.768250,411.688934 
	C628.566162,411.688934 636.973816,411.688934 645.785461,411.688934 
	C645.785461,403.428864 645.785461,395.016205 645.785461,385.992432 
	C654.100525,385.992432 662.029236,385.992432 670.380920,385.906372 
	C670.803894,385.820343 670.721497,385.747498 670.721436,385.747498 
z"/>
<path fill="#000000" opacity="1.000000" stroke="none" 
	d="
M52.937622,463.073273 
	C78.391830,463.073273 103.846039,463.073273 129.849533,463.073273 
	C129.849533,480.258759 129.849533,497.436981 129.849533,514.803711 
	C138.794464,514.803711 147.190292,514.803711 155.959167,514.803711 
	C155.959167,497.571136 155.959167,480.514832 155.959167,463.006073 
	C164.590897,463.006073 172.858047,463.006073 181.562592,463.004211 
	C182.000015,463.002380 181.930054,462.930054 181.962555,463.402161 
	C181.995056,472.125916 181.995056,480.377563 181.995056,489.069946 
	C199.298676,489.069946 216.184311,489.069946 233.033752,489.034973 
	C232.997574,489.000031 232.924179,488.931183 232.924179,488.931183 
	C232.924179,497.405304 232.924179,505.879425 232.924179,514.711975 
	C258.851471,514.711975 284.563995,514.711975 310.637573,514.711975 
	C310.637573,523.243835 310.637573,531.425354 310.637573,539.971436 
	C284.883636,539.971436 259.171112,539.971436 232.993668,539.971436 
	C232.993668,548.589722 232.993668,556.857056 232.993988,565.561768 
	C232.994308,565.999146 233.063034,565.925964 233.063034,565.925964 
	C216.181595,565.925964 199.300156,565.925964 181.995239,565.925964 
	C181.995239,557.383972 181.995239,549.135071 182.431854,540.441040 
	C191.126526,539.995972 199.384567,539.995972 207.631866,539.995972 
	C207.631866,531.394470 207.631866,523.222290 207.631866,515.343262 
	C198.871704,515.343262 190.481232,515.343262 182.063828,515.343262 
	C182.063828,523.819702 182.063828,531.953003 182.063828,540.086304 
	C173.591385,540.086304 165.118942,540.086304 156.260620,540.086304 
	C156.260620,548.528992 156.260620,556.931396 156.260620,565.664856 
	C138.828690,565.664856 121.775139,565.664856 104.172897,565.664856 
	C104.172897,549.097046 104.172897,532.253113 104.172897,515.030457 
	C95.568054,515.030457 87.497849,515.030457 79.052696,515.030457 
	C79.052696,506.254120 79.052696,497.851379 79.052696,488.993652 
	C70.408051,488.993652 62.141506,488.993652 53.437572,488.993652 
	C53.000179,488.993683 53.073368,489.062408 53.073364,489.062408 
	C53.051037,480.666565 53.028709,472.270721 53.006363,463.437469 
	C53.006351,463.000061 52.937622,463.073273 52.937622,463.073273 
z"/>
<path fill="#000000" opacity="1.000000" stroke="none" 
	d="
M284.721832,668.747864 
	C284.721832,677.350830 284.721832,685.953735 284.721832,694.938721 
	C293.735168,694.938721 302.136932,694.938721 311.004791,694.938721 
	C311.004791,703.582886 311.004791,711.848694 310.568420,720.559326 
	C293.214905,721.004089 276.297729,721.004089 259.367737,721.004089 
	C259.367737,729.926392 259.367737,738.437439 259.367737,746.666016 
	C276.784973,746.666016 293.833679,746.666016 310.936920,746.666016 
	C310.936920,737.859680 310.936920,729.387146 310.936920,720.914612 
	C319.085449,720.914612 327.233978,720.914612 335.781189,720.914612 
	C335.781189,703.760742 335.781189,686.686462 335.781189,669.307739 
	C344.576874,669.307739 352.983521,669.307739 361.696167,669.307739 
	C361.696167,703.255127 361.696167,737.324463 361.696167,771.696899 
	C319.077026,771.696899 276.341858,771.696899 233.303421,771.696899 
	C233.303421,737.744019 233.303421,703.674683 233.303421,668.992493 
	C250.108490,668.992493 267.033356,668.992493 284.381226,668.906616 
	C284.804230,668.820679 284.721832,668.747864 284.721832,668.747864 
z"/>
<path fill="#000000" opacity="1.000000" stroke="none" 
	d="
M232.957642,566.033447 
	C250.051682,566.067749 267.182373,566.067749 284.860565,566.067749 
	C284.860565,583.270630 284.860565,600.447693 284.860565,617.807312 
	C293.803467,617.807312 302.198730,617.807312 310.965088,617.807312 
	C310.965088,600.564514 310.965088,583.509399 310.965088,566.005615 
	C319.262329,566.005615 327.196411,566.005615 335.603088,566.037292 
	C336.075745,566.068970 336.002350,566.000122 335.998718,566.437195 
	C335.995056,575.131653 335.995056,583.389099 335.995056,591.661133 
	C353.585999,591.661133 370.737183,591.661133 388.069946,591.661133 
	C388.069946,582.858521 388.069946,574.394287 388.069946,565.930054 
	C388.069946,565.930054 387.997650,566.000122 387.960938,566.034546 
	C396.396362,566.068970 404.868469,566.068970 413.980347,566.068970 
	C413.980347,583.179993 413.980347,600.232849 413.863922,617.782104 
	C413.747498,618.278503 413.820343,618.196106 413.851074,618.161255 
	C388.123444,618.126465 362.365082,618.126465 336.224670,618.126465 
	C336.224670,626.568848 336.224670,634.967407 336.224670,643.745483 
	C327.793732,643.745483 319.727203,643.745483 311.280701,643.745483 
	C311.280701,652.175781 311.280701,660.242737 311.280701,668.980347 
	C302.515594,668.980347 294.115051,668.980347 285.218170,668.864136 
	C284.721832,668.747864 284.804230,668.820679 284.839050,668.851440 
	C284.873840,660.752319 284.873840,652.622559 284.873840,644.095459 
	C276.305359,644.095459 267.894257,644.095459 259.093689,644.095459 
	C259.093689,626.630249 259.093689,609.556946 259.093689,592.088867 
	C250.298615,592.088867 241.887360,592.088867 233.005264,592.088867 
	C233.005264,583.422058 233.005264,575.146545 233.034149,566.398499 
	C233.063034,565.925964 232.994308,565.999146 232.957642,566.033447 
z"/>
<path fill="#000000" opacity="1.000000" stroke="none" 
	d="
M723.068787,565.924194 
	C714.593140,565.924194 706.117554,565.924194 697.263245,565.924194 
	C697.263245,549.129272 697.263245,532.401978 697.263245,515.286255 
	C688.498840,515.286255 680.093872,515.286255 671.346069,515.286255 
	C671.346069,506.510132 671.346069,498.108124 671.346069,489.352295 
	C696.922058,489.352295 722.755737,489.352295 748.981018,489.352295 
	C748.981018,497.780121 748.981018,506.184814 748.981018,514.969482 
	C757.430481,514.969482 765.503357,514.969482 773.781982,514.969482 
	C773.781982,532.082520 773.781982,548.806030 773.781982,565.993896 
	C765.747253,565.993896 757.811035,565.993896 749.437378,565.995728 
	C748.999939,565.997559 749.069946,566.069946 749.037476,565.597900 
	C749.004944,556.874939 749.004944,548.624084 749.004944,540.348633 
	C740.084167,540.348633 731.585876,540.348633 722.930054,540.348633 
	C722.930054,549.154480 722.930054,557.612244 722.964966,566.033813 
	C722.999939,565.997620 723.068787,565.924194 723.068787,565.924194 
z"/>
<path fill="#000000" opacity="1.000000" stroke="none" 
	d="
M53.068817,282.924164 
	C44.594715,282.924164 36.120617,282.924164 27.323818,282.924164 
	C27.323818,265.803162 27.323818,248.747803 27.323818,231.346069 
	C61.255051,231.346069 95.408524,231.346069 129.993896,231.346069 
	C129.993896,248.278137 129.993896,265.201660 129.995743,282.562592 
	C129.997589,283.000000 130.069946,282.930054 129.597870,282.962585 
	C112.393883,282.973389 95.661972,282.951721 78.965027,282.965027 
	C79.000000,283.000000 79.069939,283.069946 79.037445,282.597839 
	C79.004951,273.874939 79.004951,265.624084 79.004951,257.348633 
	C70.084206,257.348633 61.585876,257.348633 52.930061,257.348633 
	C52.930061,266.154602 52.930061,274.612274 52.965019,283.033752 
	C52.999977,282.997589 53.068817,282.924164 53.068817,282.924164 
z"/>
<path fill="#000000" opacity="1.000000" stroke="none" 
	d="
M182.034454,463.039093 
	C182.043411,454.731018 182.017944,446.386230 181.906693,437.618408 
	C181.820908,437.195404 181.748062,437.277771 181.748062,437.277771 
	C198.394135,437.185455 215.040085,437.055023 231.686295,437.011200 
	C249.305450,436.964783 266.924835,437.000763 284.770630,437.000763 
	C284.770630,454.401245 284.770630,471.466431 284.770630,488.994385 
	C267.740936,488.994385 250.805222,488.994385 233.396851,488.962769 
	C232.924179,488.931183 232.997574,489.000031 233.001251,488.562866 
	C233.004944,479.874054 233.004944,471.622375 233.004944,462.930054 
	C215.701309,462.930054 198.815674,462.930054 181.930054,462.930054 
	C181.930054,462.930054 182.000015,463.002380 182.034454,463.039093 
z"/>
<path fill="#000000" opacity="1.000000" stroke="none" 
	d="
M130.068832,359.924194 
	C121.596474,359.924194 113.124123,359.924194 104.266891,359.924194 
	C104.266891,351.473572 104.266891,343.072174 104.266891,334.144409 
	C78.395592,334.144409 52.900295,334.144409 27.205482,334.144409 
	C27.205482,325.554443 27.205482,317.493103 27.205482,309.045898 
	C35.753178,309.045898 44.155243,309.045898 53.005630,309.045898 
	C53.005630,300.402069 53.005630,292.135773 53.037224,283.396851 
	C53.068817,282.924164 52.999977,282.997589 53.437134,283.001282 
	C62.272842,283.026611 70.671387,283.048279 79.069939,283.069946 
	C79.069939,283.069946 79.000000,283.000000 78.997528,283.437134 
	C78.995049,292.125946 78.995049,300.377625 78.995049,309.069946 
	C96.298523,309.069946 113.184235,309.069946 130.034973,309.034973 
	C130.000000,309.000000 129.930054,308.930054 129.962555,309.402161 
	C129.973389,326.606140 129.951721,343.338043 129.965027,360.033752 
	C130.000000,359.997589 130.068832,359.924194 130.068832,359.924194 
z"/>
<path fill="#000000" opacity="1.000000" stroke="none" 
	d="
M155.924179,359.931183 
	C155.924179,368.406921 155.924179,376.882690 155.924179,385.735840 
	C173.200714,385.735840 190.260437,385.735840 207.659027,385.735840 
	C207.659027,394.500366 207.659027,402.901947 207.659027,411.695770 
	C199.514297,411.695770 191.109253,411.695770 181.980408,411.695770 
	C181.980408,420.139221 181.980408,428.212189 181.864227,436.781464 
	C181.748062,437.277771 181.820908,437.195404 181.851654,437.160583 
	C173.418442,437.125763 164.954483,437.125763 156.094574,437.125763 
	C156.094574,428.635010 156.094574,420.556641 156.094574,412.086670 
	C147.296753,412.086670 138.884933,412.086670 130.005630,412.086670 
	C130.005630,394.750641 130.005630,377.810089 130.037231,360.396851 
	C130.068832,359.924194 130.000000,359.997589 130.437134,360.001282 
	C139.272842,360.026611 147.671387,360.048279 156.033752,360.034973 
	C155.997574,360.000031 155.924179,359.931183 155.924179,359.931183 
z"/>
<path fill="#000000" opacity="1.000000" stroke="none" 
	d="
M722.747864,412.278168 
	C739.675842,412.278168 756.603882,412.278168 773.765381,412.278168 
	C773.765381,420.387970 773.765381,428.451874 773.765381,436.906952 
	C765.628784,436.906952 757.558289,436.906952 749.106995,436.906952 
	C749.106995,445.686523 749.106995,454.090332 749.106995,462.742981 
	C731.665527,462.742981 714.610168,462.742981 697.277100,462.742981 
	C697.277100,454.367432 697.277100,445.969391 697.277100,437.179565 
	C705.614685,437.179565 714.018860,437.179565 722.992493,437.179565 
	C722.992493,428.883575 722.992493,420.962677 722.906616,412.618774 
	C722.820679,412.195770 722.747864,412.278168 722.747864,412.278168 
z"/>
<path fill="#000000" opacity="1.000000" stroke="none" 
	d="
M670.747864,360.278168 
	C687.973267,360.278168 705.198730,360.278168 722.980347,360.278168 
	C722.980347,377.237305 722.980347,394.261414 722.864136,411.781830 
	C722.747864,412.278168 722.820679,412.195770 722.851440,412.160950 
	C714.445557,412.126160 706.008972,412.126160 697.213928,412.126160 
	C697.213928,403.410339 697.213928,395.026215 697.213928,385.980347 
	C688.484131,385.980347 680.099182,385.980347 671.217896,385.863922 
	C670.721497,385.747498 670.803894,385.820343 670.838745,385.851074 
	C670.913208,377.601776 670.952820,369.321777 670.906616,360.618774 
	C670.820679,360.195770 670.747864,360.278168 670.747864,360.278168 
z"/>
<path fill="#000000" opacity="1.000000" stroke="none" 
	d="
M491.034424,128.039124 
	C491.068878,102.529213 491.068878,76.982605 491.068878,51.006336 
	C499.608276,51.006336 507.866333,51.006336 516.561768,51.006042 
	C516.999146,51.005753 516.925964,50.937046 516.925964,50.937046 
	C516.948792,76.334885 516.971558,101.732727 516.962769,127.603241 
	C516.931091,128.075912 516.999939,128.002487 516.562866,127.998764 
	C507.727173,127.973389 499.328613,127.951721 490.930054,127.930061 
	C490.930054,127.930061 491.000000,128.002411 491.034424,128.039124 
z"/>
<path fill="#000000" opacity="1.000000" stroke="none" 
	d="
M413.965515,385.960938 
	C413.931091,411.471924 413.931091,437.019623 413.931091,462.994385 
	C405.387451,462.994385 397.128479,462.994385 388.396851,462.962769 
	C387.924194,462.931122 387.997620,462.999969 388.001282,462.562805 
	C388.004944,436.787689 388.004944,411.449707 388.004944,386.069946 
	C397.140381,386.069946 405.605164,386.069946 414.069946,386.069946 
	C414.069946,386.069946 413.999939,385.997620 413.965515,385.960938 
z"/>
<path fill="#000000" opacity="1.000000" stroke="none" 
	d="
M722.956848,257.034302 
	C731.321533,257.047821 739.722900,257.027069 748.561646,257.006042 
	C748.998962,257.005737 748.925720,256.937012 748.925720,256.937012 
	C748.925720,282.385651 748.925720,307.834320 748.925720,333.641113 
	C740.417786,333.641113 731.905029,333.641113 723.005188,333.641113 
	C723.005188,308.353729 723.005188,283.112701 723.033691,257.399292 
	C723.062256,256.926849 722.993530,257.000031 722.956848,257.034302 
z"/>
<path fill="#000000" opacity="1.000000" stroke="none" 
	d="
M53.043015,462.965759 
	C44.605209,462.931488 36.130737,462.931488 27.328674,462.931488 
	C27.328674,437.489655 27.328674,412.112823 27.328674,386.368134 
	C35.566422,386.368134 44.080048,386.368134 52.994774,386.368134 
	C52.994774,411.637482 52.994774,436.882904 52.966198,462.600830 
	C52.937622,463.073273 53.006351,463.000061 53.043015,462.965759 
z"/>
<path fill="#000000" opacity="1.000000" stroke="none" 
	d="
M181.926224,308.937164 
	C181.926224,317.070984 181.926224,325.204803 181.926224,333.714935 
	C190.507462,333.714935 198.903030,333.714935 207.647949,333.714935 
	C207.647949,342.591217 207.647949,351.098480 207.647949,359.994385 
	C190.687775,359.994385 173.778641,359.994385 156.396851,359.962769 
	C155.924179,359.931183 155.997574,360.000031 156.001251,359.562866 
	C156.026596,342.393799 156.048264,325.661926 156.034973,308.966248 
	C156.000000,309.002411 155.931168,309.075806 155.931168,309.075806 
	C164.328995,309.052643 172.726837,309.029480 181.562042,309.006104 
	C181.999420,309.005890 181.926224,308.937164 181.926224,308.937164 
z"/>
<path fill="#000000" opacity="1.000000" stroke="none" 
	d="
M645.966736,308.957581 
	C645.932434,317.059845 645.932434,325.198730 645.932434,333.719696 
	C654.176208,333.719696 662.243103,333.719696 670.980347,333.719696 
	C670.980347,342.484589 670.980347,350.885040 670.864136,359.781830 
	C670.747864,360.278168 670.820679,360.195770 670.851440,360.160950 
	C654.085571,360.126160 637.289001,360.126160 620.247559,360.126160 
	C620.247559,342.963379 620.247559,326.225677 620.247559,309.005249 
	C628.576660,309.005249 636.852844,309.005249 645.601685,309.034119 
	C646.074280,309.062988 646.001038,308.994263 645.966736,308.957581 
z"/>
<path fill="#000000" opacity="1.000000" stroke="none" 
	d="
M310.965942,153.957062 
	C310.931641,171.045059 310.931641,188.169708 310.931641,205.646774 
	C302.530914,205.646774 294.133972,205.646774 285.368042,205.646774 
	C285.368042,188.779770 285.368042,171.616257 285.368042,154.005234 
	C293.600861,154.005234 301.864685,154.005234 310.600952,154.033844 
	C311.073425,154.062469 311.000244,153.993729 310.965942,153.957062 
z"/>
<path fill="#000000" opacity="1.000000" stroke="none" 
	d="
M723.034180,618.043335 
	C723.047546,601.009827 723.026611,583.939697 723.037231,566.396851 
	C723.068787,565.924194 722.999939,565.997620 723.437134,566.001282 
	C732.272827,566.026611 740.671387,566.048279 749.069946,566.069946 
	C749.069946,566.069946 748.999939,565.997559 748.965576,565.960815 
	C748.931152,583.144165 748.931152,600.364258 748.931152,617.994812 
	C740.377075,617.994812 732.124390,617.994812 723.399170,617.966309 
	C722.926636,617.937866 722.999817,618.006653 723.034180,618.043335 
z"/>
<path fill="#000000" opacity="1.000000" stroke="none" 
	d="
M413.965698,720.956848 
	C413.931396,737.711670 413.931396,754.503174 413.931396,771.646973 
	C405.530670,771.646973 397.133942,771.646973 388.368164,771.646973 
	C388.368164,755.113098 388.368164,738.282898 388.368164,721.005188 
	C396.601013,721.005188 404.864655,721.005188 413.600708,721.033691 
	C414.073151,721.062256 413.999969,720.993530 413.965698,720.956848 
z"/>
<path fill="#000000" opacity="1.000000" stroke="none" 
	d="
M542.033447,128.042419 
	C542.067749,111.287643 542.067749,94.496208 542.067749,77.352806 
	C550.469849,77.352806 558.866638,77.352806 567.632202,77.352806 
	C567.632202,93.887085 567.632202,110.717552 567.632202,127.994743 
	C559.398499,127.994743 551.134766,127.994743 542.398560,127.965897 
	C541.925964,127.937042 541.999146,128.005753 542.033447,128.042419 
z"/>
<path fill="#000000" opacity="1.000000" stroke="none" 
	d="
M748.960815,695.034424 
	C757.055969,695.068848 765.187805,695.068848 773.659363,695.068848 
	C773.659363,712.260864 773.659363,729.411438 773.659363,746.993896 
	C765.723999,746.993896 757.799438,746.993896 749.437378,746.995728 
	C749.000000,746.997559 749.069946,747.069946 749.037476,746.597900 
	C749.026611,729.060547 749.048279,711.995300 749.069946,694.930054 
	C749.069946,694.930054 748.997559,695.000000 748.960815,695.034424 
z"/>
<path fill="#000000" opacity="1.000000" stroke="none" 
	d="
M81.197983,386.002869 
	C88.974907,386.001038 96.268501,386.001038 103.777855,386.001038 
	C103.777855,403.087433 103.777855,419.823944 103.777855,436.780151 
	C95.574211,436.780151 87.503426,436.780151 79.004356,436.780151 
	C79.004356,420.359375 78.986092,404.078796 79.076477,387.798798 
	C79.079819,387.197754 80.144547,386.602600 81.197983,386.002869 
z"/>
<path fill="#000000" opacity="1.000000" stroke="none" 
	d="
M258.999237,404.931702 
	C258.999237,407.407379 258.999237,409.391266 258.999237,411.686707 
	C250.435104,411.686707 242.030182,411.686707 233.311584,411.686707 
	C233.311584,403.432770 233.311584,395.027588 233.311584,386.310120 
	C241.570236,386.310120 249.975372,386.310120 258.999237,386.310120 
	C258.999237,392.252930 258.999237,398.346436 258.999237,404.931702 
z"/>
<path fill="#000000" opacity="1.000000" stroke="none" 
	d="
M568.034119,721.043335 
	C568.068420,712.615295 568.068420,704.150635 568.068420,695.343384 
	C576.482666,695.343384 584.872681,695.343384 593.631836,695.343384 
	C593.631836,703.555725 593.631836,712.059692 593.631836,720.994812 
	C585.386108,720.994812 577.128906,720.994812 568.399170,720.966309 
	C567.926636,720.937866 567.999817,721.006653 568.034119,721.043335 
z"/>
<path fill="#000000" opacity="1.000000" stroke="none" 
	d="
M258.999237,250.911804 
	C258.999237,253.053650 258.999237,254.707153 258.999237,256.678467 
	C250.450882,256.678467 242.045456,256.678467 233.318985,256.678467 
	C233.318985,248.447784 233.318985,240.041855 233.318985,231.316925 
	C241.556747,231.316925 249.962296,231.316925 258.999237,231.316925 
	C258.999237,237.572052 258.999237,243.997757 258.999237,250.911804 
z"/>
<path fill="#000000" opacity="1.000000" stroke="none" 
	d="
M310.999237,243.999542 
	C310.999237,248.473267 310.999237,252.449631 310.999237,256.711670 
	C302.384735,256.711670 293.981384,256.711670 285.287903,256.711670 
	C285.287903,248.383835 285.287903,239.980515 285.287903,231.287476 
	C293.617035,231.287476 302.020355,231.287476 310.999237,231.287476 
	C310.999237,235.299957 310.999237,239.401077 310.999237,243.999542 
z"/>
<path fill="#000000" opacity="1.000000" stroke="none" 
	d="
M188.088226,231.000778 
	C194.879028,231.000778 201.181503,231.000778 207.739792,231.000778 
	C207.739792,239.674484 207.739792,248.078384 207.739792,256.741821 
	C199.320618,256.741821 190.917465,256.741821 182.256134,256.741821 
	C182.256134,248.317062 182.256134,239.913391 182.256134,231.000778 
	C184.052475,231.000778 185.826187,231.000778 188.088226,231.000778 
z"/>
<path fill="#000000" opacity="1.000000" stroke="none" 
	d="
M362.042755,282.966003 
	C353.614807,282.931702 345.150208,282.931702 336.343262,282.931702 
	C336.343262,274.516785 336.343262,266.126801 336.343262,257.368011 
	C344.555878,257.368011 353.059875,257.368011 361.994781,257.368011 
	C361.994781,265.614105 361.994781,273.871307 361.966064,282.601013 
	C361.937378,283.073486 362.006104,283.000305 362.042755,282.966003 
z"/>
<path fill="#000000" opacity="1.000000" stroke="none" 
	d="
M129.960876,283.034424 
	C138.371933,283.068878 146.819672,283.068878 155.994370,283.068878 
	C155.994370,291.404572 155.994370,299.767517 155.962769,308.603149 
	C155.931168,309.075806 156.000000,309.002411 155.562866,308.998718 
	C146.727158,308.973389 138.328613,308.951721 129.930054,308.930054 
	C129.930054,308.930054 130.000000,309.000000 130.002472,308.562866 
	C130.026627,299.727142 130.048294,291.328613 130.069946,282.930054 
	C130.069946,282.930054 129.997589,283.000000 129.960876,283.034424 
z"/>
<path fill="#000000" opacity="1.000000" stroke="none" 
	d="
M76.801994,565.997131 
	C68.692245,565.998962 61.065842,565.998962 53.222771,565.998962 
	C53.222771,557.247437 53.222771,548.843750 53.222771,540.219727 
	C61.758724,540.219727 70.162415,540.219727 78.995636,540.219727 
	C78.995636,548.303711 79.032814,556.253296 78.921814,564.200806 
	C78.913345,564.806519 77.855438,565.397461 76.801994,565.997131 
z"/>
<path fill="#000000" opacity="1.000000" stroke="none" 
	d="
M182.033722,309.042542 
	C182.068024,300.614594 182.068024,292.149994 182.068024,283.343170 
	C190.483414,283.343170 198.873398,283.343170 207.632080,283.343170 
	C207.632080,291.556061 207.632080,300.060486 207.632080,308.994751 
	C199.385712,308.994751 191.128494,308.994751 182.398743,308.965942 
	C181.926224,308.937164 181.999420,309.005890 182.033722,309.042542 
z"/>
<path fill="#000000" opacity="1.000000" stroke="none" 
	d="
M252.911758,205.999222 
	C246.120972,205.999222 239.818497,205.999222 233.260208,205.999222 
	C233.260208,197.325516 233.260208,188.921616 233.260208,180.258179 
	C241.678741,180.258179 250.082565,180.258179 258.743896,180.258179 
	C258.743896,188.683624 258.743896,197.086624 258.743896,205.999222 
	C256.947479,205.999222 255.173782,205.999222 252.911758,205.999222 
z"/>
<path fill="#000000" opacity="1.000000" stroke="none" 
	d="
M620.034119,515.043335 
	C620.068420,506.615295 620.068420,498.150635 620.068420,489.343445 
	C628.482910,489.343445 636.872803,489.343445 645.631836,489.343445 
	C645.631836,497.555756 645.631836,506.059692 645.631836,514.994812 
	C637.386108,514.994812 629.128906,514.994812 620.399170,514.966309 
	C619.926636,514.937866 619.999817,515.006653 620.034119,515.043335 
z"/>
<path fill="#000000" opacity="1.000000" stroke="none" 
	d="
M52.965881,488.957031 
	C52.931587,497.384979 52.931587,505.849640 52.931587,514.656738 
	C44.516960,514.656738 36.126984,514.656738 27.368113,514.656738 
	C27.368113,506.444061 27.368113,497.939697 27.368113,489.005219 
	C35.614029,489.005219 43.871239,489.005219 52.600906,489.033813 
	C53.073368,489.062408 53.000179,488.993683 52.965881,488.957031 
z"/>
<path fill="#000000" opacity="1.000000" stroke="none" 
	d="
M541.960938,180.034393 
	C550.382874,180.068817 558.841553,180.068817 567.649719,180.068817 
	C567.649719,188.585251 567.649719,197.084015 567.649719,205.994370 
	C559.373047,205.994370 551.121338,205.994370 542.396851,205.962784 
	C541.924194,205.931198 541.997620,206.000031 542.001221,205.562866 
	C542.026550,196.727158 542.048218,188.328613 542.069946,179.930054 
	C542.069946,179.930054 541.997620,179.999985 541.960938,180.034393 
z"/>
<path fill="#000000" opacity="1.000000" stroke="none" 
	d="
M414.034485,51.039085 
	C414.068909,42.617447 414.068909,34.159107 414.068909,25.350815 
	C422.251282,25.350815 430.417419,25.350815 438.994385,25.350815 
	C438.994385,33.627666 438.994385,41.879082 438.962769,50.603157 
	C438.931152,51.075825 439.000000,51.002415 438.562866,50.998734 
	C430.060486,50.973385 421.995270,50.951725 413.930054,50.930061 
	C413.930054,50.930061 414.000061,51.002380 414.034485,51.039085 
z"/>
<path fill="#000000" opacity="1.000000" stroke="none" 
	d="
M748.965576,746.960815 
	C748.931152,755.049805 748.931152,763.175476 748.931152,771.650146 
	C740.414429,771.650146 731.916382,771.650146 723.005615,771.650146 
	C723.005615,763.707275 723.005615,755.788452 723.037231,747.396851 
	C723.068787,746.924194 722.999939,746.997620 723.437134,747.001282 
	C732.272827,747.026611 740.671387,747.048279 749.069946,747.069946 
	C749.069946,747.069946 749.000000,746.997559 748.965576,746.960815 
z"/>
<path fill="#000000" opacity="1.000000" stroke="none" 
	d="
M517.033447,51.042412 
	C517.067749,42.614880 517.067749,34.150684 517.067749,25.343731 
	C525.148743,25.343731 533.206116,25.343731 541.632202,25.343731 
	C541.632202,33.555698 541.632202,42.059765 541.632202,50.994736 
	C533.719910,50.994736 525.795532,50.994736 517.398560,50.965889 
	C516.925964,50.937046 516.999146,51.005753 517.033447,51.042412 
z"/>
<path fill="#000000" opacity="1.000000" stroke="none" 
	d="
M749.033264,257.042419 
	C749.067566,248.614883 749.067566,240.150681 749.067566,231.343704 
	C757.148743,231.343704 765.206116,231.343704 773.632202,231.343704 
	C773.632202,239.555756 773.632202,248.059814 773.632202,256.994751 
	C765.719849,256.994751 757.795410,256.994751 749.398315,256.965881 
	C748.925720,256.937012 748.998962,257.005737 749.033264,257.042419 
z"/>
<path fill="#FFFFFF" opacity="1.000000" stroke="none" 
	d="
M414.037415,385.597839 
	C405.605164,386.069946 397.140381,386.069946 388.004944,386.069946 
	C388.004944,411.449707 388.004944,436.787689 388.037445,462.597809 
	C379.602570,463.069946 371.135193,463.069946 362.138641,463.069946 
	C362.138641,446.057190 362.138641,429.225739 362.138641,412.025330 
	C353.223450,412.025330 344.827820,412.025330 335.995056,412.025330 
	C335.995056,403.395355 335.995056,395.134827 335.962555,386.402161 
	C344.401154,385.930054 352.872284,385.930054 361.725952,385.930054 
	C361.725952,377.481476 361.725952,369.082123 361.725952,360.301941 
	C370.490936,360.301941 378.889221,360.301941 387.846588,360.301941 
	C387.846588,351.422058 387.846588,342.896851 387.846588,334.193848 
	C396.798553,334.193848 405.191437,334.193848 414.004913,334.193848 
	C414.004913,351.291748 414.004913,368.208740 414.037415,385.597839 
z"/>
<path fill="#FFFFFF" opacity="1.000000" stroke="none" 
	d="
M516.597900,205.962555 
	C517.069946,214.061523 517.069946,222.193008 517.069946,230.842712 
	C499.738983,230.842712 482.581909,230.842712 465.004944,230.842712 
	C465.004944,239.611191 465.004944,247.868423 465.037445,256.597809 
	C448.285706,257.069946 431.501434,257.069946 414.358643,257.069946 
	C414.358643,248.425125 414.358643,239.917175 414.358643,231.027374 
	C422.440765,231.027374 430.503601,231.027374 439.005615,231.027374 
	C439.005615,222.730148 439.005615,214.802536 439.005920,206.437561 
	C439.006256,206.000214 438.937439,206.073425 438.937439,206.073425 
	C447.403168,206.073425 455.868927,206.073425 464.709900,206.073425 
	C464.709900,197.495728 464.709900,189.100739 464.709900,180.353928 
	C473.584167,180.353928 482.091370,180.353928 490.978516,180.353928 
	C490.978516,188.780869 490.978516,197.175720 490.978516,205.995056 
	C499.606354,205.995056 507.866058,205.995056 516.597900,205.962555 
z"/>
<path fill="#FFFFFF" opacity="1.000000" stroke="none" 
	d="
M414.253510,179.720505 
	C405.648834,179.720505 397.044189,179.720505 388.055176,179.720505 
	C388.055176,188.740692 388.055176,197.145569 388.055176,205.770233 
	C379.271027,205.770233 370.873718,205.770233 362.237366,205.770233 
	C362.237366,179.968277 362.237366,154.253983 362.237366,128.269470 
	C370.646576,128.269470 379.044769,128.269470 387.834991,128.269470 
	C387.834991,136.628235 387.834991,145.032471 387.834991,153.819794 
	C396.612579,153.819794 405.016785,153.819794 414.008362,153.819794 
	C414.008362,162.449692 414.008362,170.703522 414.094391,179.380203 
	C414.180420,179.803055 414.253510,179.720505 414.253510,179.720505 
z"/>
<path fill="#FFFFFF" opacity="1.000000" stroke="none" 
	d="
M387.951477,283.028748 
	C404.708099,283.062958 421.501373,283.062958 438.647308,283.062958 
	C438.647308,291.468109 438.647308,299.865540 438.647308,308.632324 
	C422.112854,308.632324 405.281372,308.632324 388.004120,308.632324 
	C388.004120,300.397125 388.004120,292.132477 388.030396,283.394592 
	C388.056702,282.921387 387.988098,282.994507 387.951477,283.028748 
z"/>
<path fill="#FFFFFF" opacity="1.000000" stroke="none" 
	d="
M490.962585,128.402130 
	C499.328613,127.951721 507.727173,127.973389 516.597839,127.962555 
	C517.069946,136.387741 517.069946,144.845413 517.069946,153.651382 
	C508.414093,153.651382 499.915771,153.651382 490.995087,153.651382 
	C490.995087,145.375900 490.995087,137.125046 490.962585,128.402130 
z"/>
<path fill="#FFFFFF" opacity="1.000000" stroke="none" 
	d="
M413.962555,51.402130 
	C421.995270,50.951725 430.060486,50.973385 438.597839,50.962555 
	C439.069946,59.387394 439.069946,67.844727 439.069946,76.650879 
	C430.748108,76.650879 422.582733,76.650879 413.995056,76.650879 
	C413.995056,68.375206 413.995056,60.124702 413.962555,51.402130 
z"/>
<path fill="#FFFFFF" opacity="1.000000" stroke="none" 
	d="
M311.028625,128.048309 
	C311.062836,119.619194 311.062836,111.153458 311.062836,102.343933 
	C319.146637,102.343933 327.204926,102.343933 335.632416,102.343933 
	C335.632416,110.555550 335.632416,119.060394 335.632416,127.995850 
	C327.718964,127.995850 319.793365,127.995850 311.394501,127.969452 
	C310.921265,127.943054 310.994385,128.011673 311.028625,128.048309 
z"/>
<path fill="#FFFFFF" opacity="1.000000" stroke="none" 
	d="
M439.042908,205.965881 
	C430.945251,205.931549 422.810944,205.931549 414.019012,205.931549 
	C414.019012,197.504990 414.019012,189.109192 414.136261,180.216949 
	C414.253510,179.720505 414.180420,179.803055 414.149658,179.837952 
	C422.192078,179.872833 430.265259,179.872833 438.995514,179.872833 
	C438.995514,188.452606 438.995514,196.790573 438.966492,205.600983 
	C438.937439,206.073425 439.006256,206.000214 439.042908,205.965881 
z"/>
<path fill="#FFFFFF" opacity="1.000000" stroke="none" 
	d="
M541.597839,179.962555 
	C542.048218,188.328613 542.026550,196.727158 542.037415,205.597839 
	C534.004700,206.048279 525.939514,206.026611 517.402161,206.037445 
	C516.930054,197.624680 516.930054,189.179428 516.930054,179.995056 
	C525.068604,179.995056 533.097229,179.995056 541.597839,179.962555 
z"/>
<path fill="#FFFFFF" opacity="1.000000" stroke="none" 
	d="
M568.000000,614.000000 
	C568.000000,597.857849 568.000000,582.215698 568.000000,566.287231 
	C593.952454,566.287231 619.688477,566.287231 645.712769,566.287231 
	C645.712769,591.952393 645.712769,617.688416 645.712769,643.712769 
	C620.047607,643.712769 594.311584,643.712769 568.000000,643.712769 
	C568.000000,634.028137 568.000000,624.264038 568.000000,614.000000 
M596.677612,592.000244 
	C595.785583,592.777954 594.138733,593.536743 594.118652,594.336304 
	C593.923950,602.110657 594.001587,609.891846 594.001587,617.769531 
	C602.861633,617.769531 611.265503,617.769531 619.767273,617.769531 
	C619.767273,609.133728 619.767273,600.729858 619.767273,592.000000 
	C612.243530,592.000000 604.947632,592.000000 596.677612,592.000244 
z"/>
<path fill="#FFFFFF" opacity="1.000000" stroke="none" 
	d="
M517.037476,668.597900 
	C508.611450,669.069946 500.152924,669.069946 490.995056,669.069946 
	C490.995056,652.231995 490.995056,635.553162 490.962555,618.402161 
	C507.714386,617.930054 524.498718,617.930054 541.641479,617.930054 
	C541.641479,626.575134 541.641479,635.083069 541.641479,643.972961 
	C533.558838,643.972961 525.495972,643.972961 517.004944,643.972961 
	C517.004944,652.270264 517.004944,660.197998 517.037476,668.597900 
z"/>
<path fill="#FFFFFF" opacity="1.000000" stroke="none" 
	d="
M749.037476,746.597900 
	C740.671387,747.048279 732.272827,747.026611 723.402161,747.037476 
	C722.930054,729.851318 722.930054,712.632690 722.930054,694.994995 
	C731.621765,694.994995 739.873779,694.994995 748.597839,694.962524 
	C749.048279,711.995300 749.026611,729.060547 749.037476,746.597900 
z"/>
<path fill="#FFFFFF" opacity="1.000000" stroke="none" 
	d="
M697.000000,667.000000 
	C697.000000,676.475403 697.000000,685.450806 697.000000,694.712280 
	C688.384705,694.712280 679.980164,694.712280 671.286255,694.712280 
	C671.286255,678.047729 671.286255,661.312378 671.286255,644.287781 
	C679.615173,644.287781 688.019714,644.287781 697.000000,644.287781 
	C697.000000,651.637695 697.000000,659.068848 697.000000,667.000000 
z"/>
<path fill="#FCFCFC" opacity="1.000000" stroke="none" 
	d="
M737.968018,179.834259 
	C698.523376,179.834244 659.574280,179.834244 620.312256,179.834244 
	C620.312256,136.861816 620.312256,94.165085 620.312256,51.233143 
	C663.036316,51.233143 705.747742,51.233143 748.694702,51.233143 
	C748.694702,93.945724 748.694702,136.521423 748.694702,179.834259 
	C745.309204,179.834259 741.886353,179.834259 737.968018,179.834259 
M650.508423,76.812492 
	C648.908142,76.812492 647.307800,76.812492 645.820251,76.812492 
	C645.820251,102.873245 645.820251,128.272446 645.820251,153.665085 
	C671.612427,153.665085 697.147461,153.665085 722.623352,153.665085 
	C722.623352,127.927727 722.623352,102.525681 722.623352,76.812485 
	C698.744019,76.812485 675.128296,76.812485 650.508423,76.812492 
z"/>
<path fill="#FCFCFC" opacity="1.000000" stroke="none" 
	d="
M182.002808,82.000000 
	C182.002808,114.791145 182.002808,147.082291 182.002808,179.603973 
	C138.993332,179.603973 96.401314,179.603973 53.486301,179.603973 
	C53.486301,136.965866 53.486301,94.379494 53.486301,51.394890 
	C95.999046,51.394890 138.712021,51.394890 182.002808,51.394890 
	C182.002808,61.303207 182.002808,71.401604 182.002808,82.000000 
M133.499969,153.998245 
	C140.925201,153.998245 148.350449,153.998245 155.630707,153.998245 
	C155.630707,127.924347 155.630707,102.410858 155.630707,77.108757 
	C129.867554,77.108757 104.472511,77.108757 79.007614,77.108757 
	C79.007614,102.795227 79.007614,128.186752 79.007614,153.998245 
	C96.965118,153.998245 114.732544,153.998245 133.499969,153.998245 
z"/>
<path fill="#FCFCFC" opacity="1.000000" stroke="none" 
	d="
M165.998169,617.825317 
	C171.478363,617.825317 176.459106,617.825317 181.721512,617.825317 
	C181.721512,660.758728 181.721512,703.486938 181.721512,746.461548 
	C139.020584,746.461548 96.432953,746.461548 53.502544,746.461548 
	C53.502544,703.687927 53.502544,660.990295 53.502544,617.825317 
	C90.928246,617.825317 128.213501,617.825317 165.998169,617.825317 
M132.499939,720.886475 
	C140.257568,720.886475 148.015198,720.886475 155.643250,720.886475 
	C155.643250,694.744934 155.643250,669.216675 155.643250,643.875793 
	C129.897705,643.875793 104.507713,643.875793 79.005753,643.875793 
	C79.005753,669.592590 79.005753,695.000793 79.005753,720.886475 
	C96.628548,720.886475 114.064240,720.886475 132.499939,720.886475 
z"/>
<path fill="#FFFFFF" opacity="1.000000" stroke="none" 
	d="
M387.597839,565.962524 
	C388.069946,574.394287 388.069946,582.858521 388.069946,591.661133 
	C370.737183,591.661133 353.585999,591.661133 335.995056,591.661133 
	C335.995056,583.389099 335.995056,575.131653 335.962555,566.402161 
	C352.995300,565.951721 370.060516,565.973389 387.597839,565.962524 
z"/>
<path fill="#FFFFFF" opacity="1.000000" stroke="none" 
	d="
M439.028870,540.048767 
	C439.063080,531.952209 439.063080,523.818970 439.063080,515.342957 
	C447.481934,515.342957 455.872437,515.342957 464.632263,515.342957 
	C464.632263,523.222534 464.632263,531.394836 464.632263,539.995911 
	C456.384064,539.995911 448.125977,539.995911 439.394714,539.969727 
	C438.921509,539.943542 438.994629,540.012146 439.028870,540.048767 
z"/>
<path fill="#FFFFFF" opacity="1.000000" stroke="none" 
	d="
M181.962555,463.402161 
	C198.815674,462.930054 215.701309,462.930054 233.004944,462.930054 
	C233.004944,471.622375 233.004944,479.874054 233.037445,488.597839 
	C216.184311,489.069946 199.298676,489.069946 181.995056,489.069946 
	C181.995056,480.377563 181.995056,472.125916 181.962555,463.402161 
z"/>
<path fill="#FFFFFF" opacity="1.000000" stroke="none" 
	d="
M182.029617,540.049683 
	C182.063828,531.953003 182.063828,523.819702 182.063828,515.343262 
	C190.481232,515.343262 198.871704,515.343262 207.631866,515.343262 
	C207.631866,523.222290 207.631866,531.394470 207.631866,539.995972 
	C199.384567,539.995972 191.126526,539.995972 182.395386,539.970154 
	C181.922287,539.944336 181.995407,540.013000 182.029617,540.049683 
z"/>
<path fill="#FFFFFF" opacity="1.000000" stroke="none" 
	d="
M310.971130,720.951233 
	C310.936920,729.387146 310.936920,737.859680 310.936920,746.666016 
	C293.833679,746.666016 276.784973,746.666016 259.367737,746.666016 
	C259.367737,738.437439 259.367737,729.926392 259.367737,721.004089 
	C276.297729,721.004089 293.214905,721.004089 310.605286,721.030273 
	C311.078491,721.056458 311.005371,720.987854 310.971130,720.951233 
z"/>
<path fill="#FFFFFF" opacity="1.000000" stroke="none" 
	d="
M749.037476,565.597900 
	C740.671387,566.048279 732.272827,566.026611 723.402161,566.037476 
	C722.930054,557.612244 722.930054,549.154480 722.930054,540.348633 
	C731.585876,540.348633 740.084167,540.348633 749.004944,540.348633 
	C749.004944,548.624084 749.004944,556.874939 749.037476,565.597900 
z"/>
<path fill="#FFFFFF" opacity="1.000000" stroke="none" 
	d="
M129.597870,282.962585 
	C130.048294,291.328613 130.026627,299.727142 130.037445,308.597839 
	C113.184235,309.069946 96.298523,309.069946 78.995049,309.069946 
	C78.995049,300.377625 78.995049,292.125946 78.962555,283.402161 
	C95.661972,282.951721 112.393883,282.973389 129.597870,282.962585 
z"/>
<path fill="#FFFFFF" opacity="1.000000" stroke="none" 
	d="
M79.037445,282.597839 
	C70.671387,283.048279 62.272842,283.026611 53.402176,283.037445 
	C52.930061,274.612274 52.930061,266.154602 52.930061,257.348633 
	C61.585876,257.348633 70.084206,257.348633 79.004951,257.348633 
	C79.004951,265.624084 79.004951,273.874939 79.037445,282.597839 
z"/>
<path fill="#FFFFFF" opacity="1.000000" stroke="none" 
	d="
M129.962555,309.402161 
	C138.328613,308.951721 146.727158,308.973389 155.597824,308.962555 
	C156.048264,325.661926 156.026596,342.393799 156.037445,359.597809 
	C147.671387,360.048279 139.272842,360.026611 130.402161,360.037445 
	C129.951721,343.338043 129.973389,326.606140 129.962555,309.402161 
z"/>
<path fill="#000000" opacity="1.000000" stroke="none" 
	d="
M597.164673,592.000122 
	C604.947632,592.000000 612.243530,592.000000 619.767273,592.000000 
	C619.767273,600.729858 619.767273,609.133728 619.767273,617.769531 
	C611.265503,617.769531 602.861633,617.769531 594.001587,617.769531 
	C594.001587,609.891846 593.923950,602.110657 594.118652,594.336304 
	C594.138733,593.536743 595.785583,592.777954 597.164673,592.000122 
z"/>
<path fill="#010101" opacity="1.000000" stroke="none" 
	d="
M651.010498,76.812485 
	C675.128296,76.812485 698.744019,76.812485 722.623352,76.812485 
	C722.623352,102.525681 722.623352,127.927727 722.623352,153.665085 
	C697.147461,153.665085 671.612427,153.665085 645.820251,153.665085 
	C645.820251,128.272446 645.820251,102.873245 645.820251,76.812492 
	C647.307800,76.812492 648.908142,76.812492 651.010498,76.812485 
z"/>
<path fill="#000000" opacity="1.000000" stroke="none" 
	d="
M132.999969,153.998245 
	C114.732544,153.998245 96.965118,153.998245 79.007614,153.998245 
	C79.007614,128.186752 79.007614,102.795227 79.007614,77.108757 
	C104.472511,77.108757 129.867554,77.108757 155.630707,77.108757 
	C155.630707,102.410858 155.630707,127.924347 155.630707,153.998245 
	C148.350449,153.998245 140.925201,153.998245 132.999969,153.998245 
z"/>
<path fill="#010101" opacity="1.000000" stroke="none" 
	d="
M131.999939,720.886475 
	C114.064240,720.886475 96.628548,720.886475 79.005753,720.886475 
	C79.005753,695.000793 79.005753,669.592590 79.005753,643.875793 
	C104.507713,643.875793 129.897705,643.875793 155.643250,643.875793 
	C155.643250,669.216675 155.643250,694.744934 155.643250,720.886475 
	C148.015198,720.886475 140.257568,720.886475 131.999939,720.886475 
z"/>
</svg>