<svg version="1.1" id="Layer_1" xmlns="http://www.w3.org/2000/svg" xmlns:xlink="http://www.w3.org/1999/xlink" x="0px" y="0px"
	 width="100%" viewBox="0 0 800 800" enable-background="new 0 0 800 800" xml:space="preserve">
<path fill="#FEFEFE" opacity="1.000000" stroke="none" 
	d="
M801.000000,214.000000 
	C801.000000,410.000000 801.000000,605.500000 801.000000,801.000000 
	C534.333313,801.000000 267.666656,801.000000 1.000000,801.000000 
	C1.000000,534.333313 1.000000,267.666656 1.000000,1.000000 
	C267.666656,1.000000 534.333313,1.000000 801.000000,1.000000 
	C801.000000,71.833336 801.000000,142.666672 801.000000,214.000000 
M337.005859,749.869690 
	C337.005859,757.788391 337.005859,765.707153 337.005859,773.649963 
	C345.916382,773.649963 354.414276,773.649963 362.931122,773.649963 
	C362.931122,765.175476 362.931122,757.049927 363.874847,748.993652 
	C372.135498,748.993652 380.396179,748.993652 389.026642,748.993652 
	C389.026642,740.168945 389.026642,731.773071 389.026642,722.833618 
	C397.910065,722.833618 406.432129,722.833618 414.931122,722.833618 
	C414.931122,705.161255 414.931122,688.042847 415.874847,670.993652 
	C423.809631,670.993652 431.744415,670.993652 440.058533,670.993652 
	C440.058533,679.856384 440.058533,688.260193 440.058533,696.721741 
	C449.047516,696.721741 457.649811,696.721741 466.019897,697.714478 
	C466.037811,714.830566 466.055756,731.946594 465.128601,749.005432 
	C448.546570,749.005432 431.964508,749.005432 415.368225,749.005432 
	C415.368225,757.592834 415.368225,765.770081 415.368225,773.666748 
	C432.450104,773.666748 449.164001,773.666748 465.931915,773.666748 
	C465.931915,765.196655 465.931915,757.058594 466.875305,748.993408 
	C500.812531,748.993408 534.749756,748.993408 568.755493,748.993408 
	C568.755493,740.113464 568.755493,731.709351 568.755493,722.910522 
	C543.110107,722.910522 517.705200,722.910522 491.905212,722.910522 
	C491.905212,714.110107 491.905212,705.698914 491.905212,696.873718 
	C483.044983,696.873718 474.581451,696.873718 466.007355,695.958130 
	C466.007355,687.697754 466.007355,679.437439 466.007355,670.791931 
	C475.006775,670.791931 483.417603,670.791931 492.210083,670.791931 
	C492.210083,662.320312 492.210083,654.242920 492.210083,646.305237 
	C501.017883,646.305237 509.423859,646.305237 518.218628,646.305237 
	C518.218628,654.684448 518.218628,662.762146 518.218628,671.220703 
	C526.690613,671.220703 534.768555,671.220703 543.226685,671.220703 
	C543.226685,680.025940 543.226685,688.437134 543.226685,697.086731 
	C560.770325,697.086731 577.915833,697.086731 594.992859,697.013550 
	C594.992859,697.013550 594.919800,696.944946 594.995300,697.886414 
	C594.995300,706.156250 594.995300,714.426086 594.995300,722.769897 
	C612.544189,722.769897 629.604492,722.769897 647.047729,722.769897 
	C647.047729,705.481628 647.047729,688.417664 647.047729,670.966492 
	C655.495239,670.966492 663.568726,670.966492 672.015625,670.966492 
	C672.015625,653.847717 672.015625,637.116577 672.015625,620.195251 
	C680.799866,620.195251 689.199524,620.195251 698.160339,620.195251 
	C698.160339,637.235229 698.160339,654.088501 698.160339,670.658936 
	C724.111694,670.658936 749.501343,670.658936 774.670471,670.658936 
	C774.670471,653.588501 774.670471,636.859497 774.670471,619.752991 
	C757.612793,619.752991 740.881714,619.752991 724.086731,619.752991 
	C724.086731,610.892090 724.086731,602.415405 724.013550,594.007141 
	C724.013550,594.007141 723.944946,594.080200 724.886414,594.004700 
	C733.135986,594.004700 741.385620,594.004700 749.924316,594.004700 
	C749.924316,576.362671 749.924316,559.146973 750.869690,541.994141 
	C758.788086,541.994141 766.706482,541.994141 774.649414,541.994141 
	C774.649414,533.416992 774.649414,525.251648 774.649414,517.068726 
	C766.174744,517.068726 758.049500,517.068726 749.993652,516.125061 
	C749.993652,507.857056 749.993652,499.589081 749.993652,490.940460 
	C758.523682,490.940460 766.593750,490.940460 774.783203,490.940460 
	C774.783203,482.154266 774.783203,473.757965 774.783203,465.196228 
	C757.846069,465.196228 741.125000,465.196228 723.839355,465.196228 
	C723.839355,473.904205 723.839355,482.434113 723.839355,490.647064 
	C714.871094,490.647064 706.469360,490.647064 697.696533,490.647064 
	C697.696533,481.891388 697.696533,473.489532 697.696533,465.325745 
	C680.584106,465.325745 663.861084,465.325745 647.068848,465.325745 
	C647.068848,474.125366 647.068848,482.600555 646.125183,491.006348 
	C637.727173,491.029510 629.329163,491.052673 620.994141,490.130432 
	C620.994141,473.218658 620.994141,456.306885 620.994141,438.865051 
	C638.218994,438.865051 655.052551,438.865051 671.931152,438.865051 
	C671.931152,430.196320 671.931152,422.060303 672.874878,413.993683 
	C689.816833,413.993683 706.758789,413.993683 724.097412,413.993683 
	C724.097412,422.558136 724.097412,430.637054 724.097412,438.744995 
	C741.238464,438.744995 757.976990,438.744995 774.739868,438.744995 
	C774.739868,421.751160 774.739868,405.012604 774.739868,387.875183 
	C766.409058,387.875183 758.331482,387.875183 749.864319,387.875183 
	C749.864319,379.068573 749.864319,370.658173 749.864319,362.274170 
	C741.054504,362.274170 732.648315,362.274170 723.847046,362.274170 
	C723.847046,370.953064 723.847046,379.365662 723.847046,387.719666 
	C715.036438,387.719666 706.629883,387.719666 697.828796,387.719666 
	C697.828796,379.032104 697.828796,370.619385 697.828796,361.821899 
	C689.020935,361.821899 680.608643,361.821899 672.292969,361.821899 
	C672.292969,353.010406 672.292969,344.603424 672.292969,335.803589 
	C680.993896,335.803589 689.406189,335.803589 698.203369,335.803589 
	C698.203369,327.328156 698.203369,319.249146 698.203369,310.785828 
	C707.012207,310.785828 715.425049,310.785828 723.926270,310.785828 
	C723.926270,301.902557 723.926270,293.419983 724.871338,284.994537 
	C733.135132,284.994537 741.398865,284.994537 749.631775,284.994537 
	C749.631775,267.383606 749.631775,250.220352 749.631775,233.353516 
	C740.866089,233.353516 732.469299,233.353516 724.068054,233.353516 
	C724.068054,250.830429 724.068054,267.954926 723.124695,285.006561 
	C714.848450,285.006561 706.572205,285.006561 697.902832,285.006561 
	C697.902832,267.441132 697.902832,250.365387 697.902832,233.254730 
	C689.094116,233.254730 680.688660,233.254730 671.885986,233.254730 
	C671.885986,241.912979 671.885986,250.324463 671.885986,258.739258 
	C663.409729,258.739258 655.336914,258.739258 646.868042,258.739258 
	C646.868042,250.072418 646.868042,241.662155 646.868042,233.272156 
	C638.058105,233.272156 629.652344,233.272156 620.851196,233.272156 
	C620.851196,241.948639 620.851196,250.360962 620.851196,258.721863 
	C612.040771,258.721863 603.634277,258.721863 594.833252,258.721863 
	C594.833252,250.036758 594.833252,241.623871 594.833252,232.826462 
	C586.025818,232.826462 577.612793,232.826462 568.815918,232.826462 
	C568.815918,215.686203 568.815918,198.943802 568.815918,182.298187 
	C560.005066,182.298187 551.598450,182.298187 542.799072,182.298187 
	C542.799072,191.002563 542.799072,199.415054 542.799072,207.695801 
	C534.320740,207.695801 526.246765,207.695801 517.781128,207.695801 
	C517.781128,198.982956 517.781128,190.569885 517.781128,182.075806 
	C508.897339,182.075806 500.414276,182.075806 491.994141,181.130432 
	C492.037750,172.792526 492.081390,164.454605 493.040833,156.007233 
	C518.299316,156.007233 543.557739,156.007233 568.691772,156.007233 
	C568.691772,121.320549 568.691772,87.249054 568.691772,53.073399 
	C559.902771,53.073399 551.420349,53.073399 542.994629,52.128448 
	C542.994629,43.871742 542.994629,35.615036 542.994629,27.368423 
	C534.394104,27.368423 526.222778,27.368423 518.343079,27.368423 
	C518.343079,36.126789 518.343079,44.516205 518.343079,52.931648 
	C526.816650,52.931648 534.948303,52.931648 543.006653,53.875015 
	C543.006653,62.124477 543.006653,70.373940 543.006653,79.155052 
	C534.429871,79.155052 526.252991,79.155052 517.912842,79.155052 
	C517.912842,87.815826 517.912842,95.938637 517.986084,103.993065 
	C517.986084,103.993065 518.054688,103.919991 517.113220,103.995308 
	C508.846832,103.995308 500.580444,103.995308 492.276886,103.995308 
	C492.276886,121.732208 492.276886,138.991608 491.284393,156.019730 
	C482.831024,156.036087 474.377625,156.052444 465.993683,155.125107 
	C465.993683,138.215881 465.993683,121.306641 465.993683,103.869720 
	C448.780884,103.869720 431.949097,103.869720 414.926727,103.869720 
	C414.926727,95.205925 414.926727,87.071815 415.871643,78.994545 
	C441.121063,78.994545 466.370453,78.994545 491.800354,78.994545 
	C491.800354,70.190010 491.800354,61.793579 491.800354,52.845177 
	C474.429993,52.845177 457.249939,52.845177 439.696045,52.845177 
	C439.696045,43.890987 439.696045,35.488899 439.696045,27.339821 
	C431.237244,27.339821 423.169342,27.339821 415.068481,27.339821 
	C415.068481,44.812244 415.068481,61.945995 414.125061,79.006615 
	C405.727112,79.029686 397.329163,79.052750 388.994141,78.130470 
	C388.994141,69.864227 388.994141,61.597984 388.994141,52.808983 
	C363.052277,52.808983 337.556488,52.808983 311.684967,52.808983 
	C311.684967,43.878654 311.684967,35.476662 311.684967,27.323959 
	C294.246277,27.323959 277.194092,27.323959 260.073212,27.323959 
	C260.073212,36.118454 260.073212,44.590366 259.128357,53.005455 
	C250.871277,53.005455 242.614197,53.005455 234.368408,53.005455 
	C234.368408,61.939754 234.368408,70.443939 234.368408,78.656326 
	C243.127167,78.656326 251.516983,78.656326 259.931488,78.656326 
	C259.931488,69.849335 259.931488,61.384792 260.874908,52.993378 
	C269.131683,52.993378 277.388489,52.993378 286.185883,52.993378 
	C286.185883,61.932430 286.185883,70.449280 286.185883,79.309174 
	C295.124451,79.309174 303.516449,79.309174 312.068787,79.309174 
	C312.068787,87.812386 312.068787,95.944107 311.125122,104.006340 
	C285.544617,104.006340 259.964111,104.006340 234.197174,104.006340 
	C234.197174,112.805946 234.197174,121.201851 234.197174,130.162018 
	C242.906113,130.162018 251.434937,130.162018 259.647034,130.162018 
	C259.647034,139.129593 259.647034,147.531067 259.647034,156.303085 
	C250.891785,156.303085 242.488190,156.303085 234.323944,156.303085 
	C234.323944,173.747345 234.323944,190.802658 234.323944,207.924194 
	C243.120605,207.924194 251.594696,207.924194 260.005859,208.869568 
	C260.005859,216.806213 260.005859,224.742859 260.005859,233.038177 
	C234.155701,233.038177 208.771194,233.038177 183.196991,233.038177 
	C183.196991,241.802719 183.196991,250.200027 183.196991,258.666992 
	C217.552979,258.666992 251.711975,258.666992 285.924225,258.666992 
	C285.924225,241.533844 285.924225,224.732529 286.869568,207.994125 
	C295.269318,207.970810 303.669037,207.947495 312.005859,208.869568 
	C312.005859,216.899231 312.005859,224.928909 312.005859,232.931183 
	C320.847137,232.931183 328.961426,232.931183 337.006317,233.874893 
	C337.006317,250.792358 337.006317,267.709839 337.006317,285.166351 
	C319.752136,285.166351 302.912109,285.166351 286.341980,285.166351 
	C286.341980,294.107849 286.341980,302.505188 286.341980,311.270508 
	C295.080139,311.270508 303.480133,311.270508 312.075836,311.270508 
	C312.075836,319.791718 312.075836,327.930237 311.130493,336.005859 
	C294.218872,336.005859 277.307281,336.005859 260.358246,336.005859 
	C260.358246,344.910706 260.358246,353.419708 260.358246,361.931152 
	C277.835571,361.931152 294.955658,361.931152 312.006317,362.874847 
	C312.006317,371.134949 312.006317,379.395050 312.006317,388.024170 
	C303.175171,388.024170 294.779175,388.024170 285.842163,388.024170 
	C285.842163,396.905853 285.842163,405.426300 285.842163,414.295563 
	C276.895660,414.295563 268.501984,414.295563 260.068817,414.295563 
	C260.068817,422.806549 260.068817,430.941162 259.125122,439.006317 
	C250.862396,439.006317 242.599686,439.006317 233.808044,439.006317 
	C233.808044,421.724060 233.808044,404.887939 233.808044,388.328735 
	C216.557678,388.328735 199.844589,388.328735 182.913727,388.328735 
	C182.913727,397.123962 182.913727,405.592377 182.986954,413.992371 
	C182.986954,413.992371 183.055481,413.919281 182.113922,413.995270 
	C156.508484,413.995270 130.903061,413.995270 105.248039,413.995270 
	C105.248039,405.101685 105.248039,396.696564 105.248039,387.894775 
	C122.567444,387.894775 139.642349,387.894775 156.743225,387.894775 
	C156.743225,370.422760 156.743225,353.351837 156.743225,335.883270 
	C139.416931,335.883270 122.342033,335.883270 104.875259,335.883270 
	C104.875259,318.746094 104.875259,302.004425 104.875259,284.870392 
	C96.403908,284.870392 88.327156,284.870392 80.267654,284.870392 
	C80.267654,276.061493 80.267654,267.655518 80.267654,258.856262 
	C105.940071,258.856262 131.346436,258.856262 156.723572,258.856262 
	C156.723572,250.048904 156.723572,241.643188 156.723572,233.277954 
	C113.711533,233.277954 70.975502,233.277954 28.282440,233.277954 
	C28.282440,241.963715 28.282440,250.369461 28.282440,259.168762 
	C36.969505,259.168762 45.382004,259.168762 53.713524,259.168762 
	C53.713524,276.642639 53.713524,293.714417 53.713524,311.182861 
	C45.019829,311.182861 36.608135,311.182861 28.295292,311.182861 
	C28.295292,336.988617 28.295292,362.392670 28.295292,388.194458 
	C36.996124,388.194458 45.407864,388.194458 54.203945,388.194458 
	C54.203945,397.001923 54.203945,405.413940 54.203945,414.209473 
	C63.011620,414.209473 71.423874,414.209473 80.218994,414.209473 
	C80.218994,422.684265 80.218994,430.763275 80.218994,439.223145 
	C106.024246,439.223145 131.430542,439.223145 157.075806,439.223145 
	C157.075806,456.770721 157.075806,473.919769 156.130432,491.005890 
	C147.733307,490.975098 139.336197,490.944305 131.007477,490.986725 
	C131.007477,490.986725 131.080566,491.055267 131.004745,490.113739 
	C131.004745,481.843262 131.004745,473.572784 131.004745,464.931580 
	C105.125298,464.931580 79.732529,464.931580 53.950134,464.931580 
	C53.950134,456.154755 53.950134,447.747711 53.950134,439.220276 
	C45.154945,439.220276 36.754868,439.220276 28.364933,439.220276 
	C28.364933,482.272125 28.364933,525.103699 28.364933,567.637268 
	C37.136063,567.637268 45.541580,567.637268 54.307999,567.637268 
	C54.307999,541.883423 54.307999,516.490784 54.307999,491.339539 
	C63.094074,491.339539 71.498611,491.339539 80.275024,491.339539 
	C80.275024,508.410950 80.275024,525.143555 80.275024,542.260376 
	C88.733002,542.260376 96.807579,542.260376 105.256836,542.260376 
	C105.256836,551.058533 105.256836,559.466431 105.256836,567.676270 
	C114.056770,567.676270 122.460045,567.676270 131.244751,567.676270 
	C131.244751,558.949829 131.244751,550.541992 131.244751,541.931213 
	C140.117203,541.931213 148.596481,541.931213 157.006332,542.874878 
	C157.006332,551.146423 157.006332,559.417969 157.006332,568.059753 
	C182.866028,568.059753 208.258652,568.059753 234.033173,568.059753 
	C234.033173,585.498962 234.033173,602.564392 234.033173,620.017578 
	C242.816010,620.017578 251.224228,620.017578 259.798523,620.017578 
	C259.798523,628.812073 259.798523,637.212341 259.798523,646.006104 
	C251.199844,646.006104 242.791626,646.006104 234.344910,646.006104 
	C234.344910,688.898804 234.344910,731.396667 234.344910,773.665039 
	C251.753494,773.665039 268.817047,773.665039 285.667023,773.665039 
	C285.667023,765.257751 285.667023,757.187012 285.667023,748.736816 
	C276.930847,748.736816 268.523010,748.736816 260.324280,748.736816 
	C260.324280,739.936707 260.324280,731.532959 260.324280,722.924377 
	C277.789032,722.924377 294.928894,722.924377 312.005859,723.869690 
	C312.005859,732.230896 312.005859,740.592163 312.005859,748.924377 
	C320.841797,748.924377 328.955292,748.924377 337.005859,749.869690 
M750.005432,723.871704 
	C750.005432,732.128418 750.005432,740.385071 750.005432,748.631592 
	C758.605957,748.631592 766.777283,748.631592 774.656982,748.631592 
	C774.656982,739.873230 774.656982,731.483826 774.656982,723.068420 
	C766.183472,723.068420 758.051880,723.068420 749.993347,722.125061 
	C749.993347,713.855774 749.993347,705.586426 749.993347,697.218628 
	C732.472412,697.218628 715.415466,697.218628 697.969055,697.218628 
	C697.969055,705.831055 697.969055,714.236816 697.969055,723.020020 
	C689.184265,723.020020 680.778503,723.020020 671.994873,723.020020 
	C671.994873,731.804382 671.994873,740.210205 671.994873,748.994629 
	C663.544067,748.994629 655.471802,748.994629 647.364502,748.994629 
	C647.364502,757.574036 647.364502,765.757874 647.364502,773.663086 
	C673.113159,773.663086 698.497803,773.663086 724.256836,773.663086 
	C724.256836,756.601257 724.256836,739.873901 724.256836,722.926697 
	C733.111023,722.926697 741.586670,722.926697 750.005432,723.871704 
M662.500183,27.323027 
	C640.118042,27.323027 617.735962,27.323027 595.470459,27.323027 
	C595.470459,87.790016 595.470459,147.349533 595.470459,206.889465 
	C655.478943,206.889465 715.183777,206.889465 774.756592,206.889465 
	C774.756592,146.917572 774.756592,87.246017 774.756592,27.323034 
	C737.413269,27.323034 700.456726,27.323034 662.500183,27.323027 
M208.345810,116.500168 
	C208.345810,86.903778 208.345810,57.307384 208.345810,27.649109 
	C148.140106,27.649109 88.575500,27.649109 28.882118,27.649109 
	C28.882118,87.565559 28.882118,147.158112 28.882118,206.837433 
	C88.809311,206.837433 148.518906,206.837433 208.345840,206.837433 
	C208.345840,176.825348 208.345840,147.162766 208.345810,116.500168 
M176.499985,774.076843 
	C187.082596,774.076843 197.665192,774.076843 208.214722,774.076843 
	C208.214722,713.741821 208.214722,654.118530 208.214722,594.254150 
	C148.359802,594.254150 88.633934,594.254150 28.905321,594.254150 
	C28.905321,654.240356 28.905321,713.972534 28.905321,774.076843 
	C77.928322,774.076843 126.714149,774.076843 176.499985,774.076843 
M201.439667,310.998993 
	C203.876999,310.998993 206.314331,310.998993 208.732422,310.998993 
	C208.732422,319.607147 208.732422,327.678528 208.732422,336.143738 
	C200.059662,336.143738 191.649918,336.143738 183.275131,336.143738 
	C183.275131,344.950256 183.275131,353.355072 183.275131,361.723755 
	C200.286835,361.723755 217.022995,361.723755 233.724762,361.723755 
	C233.724762,336.046387 233.724762,310.645233 233.724762,285.272156 
	C199.383484,285.272156 165.317139,285.272156 131.275269,285.272156 
	C131.275269,293.950531 131.275269,302.355347 131.275269,310.998993 
	C154.517807,310.998993 177.486954,310.998993 201.439667,310.998993 
M598.652222,773.999023 
	C606.070190,773.999023 613.488220,773.999023 620.655396,773.999023 
	C620.655396,765.240356 620.655396,757.165955 620.655396,749.347168 
	C611.901855,749.347168 603.494263,749.347168 595.001099,749.347168 
	C595.001099,756.685059 595.031616,763.677429 594.981323,770.669128 
	C594.967346,772.614624 594.802063,774.487610 598.652222,773.999023 
M750.747437,311.058014 
	C750.747437,319.241730 750.747437,327.425446 750.747437,335.791321 
	C758.481201,335.791321 766.551208,335.791321 774.788513,335.791321 
	C774.788513,327.512970 774.788513,319.442932 774.788513,311.005005 
	C766.960938,311.005005 759.337830,311.005005 750.747437,311.058014 
z"/>
<path fill="#000000" opacity="1.000000" stroke="none" 
	d="
M182.913727,414.060760 
	C182.913727,405.592377 182.913727,397.123962 182.913727,388.328735 
	C199.844589,388.328735 216.557678,388.328735 233.808044,388.328735 
	C233.808044,404.887939 233.808044,421.724060 233.808044,439.006317 
	C242.599686,439.006317 250.862396,439.006317 259.562561,439.004333 
	C260.000031,439.002380 259.930054,438.930054 259.962585,439.402130 
	C260.021179,448.270294 260.047272,456.666412 259.600891,465.033508 
	C250.870865,465.004486 242.613297,465.004486 234.367310,465.004486 
	C234.367310,473.939636 234.367310,482.444427 234.367310,490.657593 
	C243.126617,490.657593 251.517044,490.657593 259.931458,490.657593 
	C259.931458,481.850342 259.931458,473.385345 260.403137,464.957367 
	C269.135895,464.994385 277.396973,464.994385 286.158295,464.994385 
	C286.158295,490.920135 286.158295,516.400696 286.158295,541.924194 
	C295.133667,541.924194 303.601349,541.924194 312.036957,542.396851 
	C312.026306,551.271545 312.047699,559.673584 311.597290,568.040527 
	C302.858643,568.005371 294.591827,568.005371 286.204926,568.005371 
	C286.204926,585.512878 286.204926,602.564880 286.204926,620.164917 
	C303.246155,620.164917 320.090759,620.164917 336.653564,620.164917 
	C336.653564,629.115417 336.653564,637.515442 336.653564,646.271362 
	C319.585968,646.271362 302.863403,646.271362 286.073334,646.271362 
	C286.073334,654.782959 286.073334,662.922791 285.600891,671.033569 
	C276.870850,671.004456 268.613281,671.004456 260.367249,671.004456 
	C260.367249,679.939575 260.367249,688.444458 260.367249,696.657654 
	C269.126495,696.657654 277.516937,696.657654 285.931458,696.657654 
	C285.931458,687.850464 285.931458,679.385498 286.403137,670.957458 
	C295.126709,670.994385 303.378601,670.994385 311.930054,670.994385 
	C311.930054,688.633179 311.930054,705.851562 311.965027,723.033813 
	C311.999969,722.997742 312.068787,722.924377 312.068787,722.924377 
	C294.928894,722.924377 277.789032,722.924377 260.324280,722.924377 
	C260.324280,731.532959 260.324280,739.936707 260.324280,748.736816 
	C268.523010,748.736816 276.930847,748.736816 285.667023,748.736816 
	C285.667023,757.187012 285.667023,765.257751 285.667023,773.665039 
	C268.817047,773.665039 251.753494,773.665039 234.344910,773.665039 
	C234.344910,731.396667 234.344910,688.898804 234.344910,646.006104 
	C242.791626,646.006104 251.199844,646.006104 259.798523,646.006104 
	C259.798523,637.212341 259.798523,628.812073 259.798523,620.017578 
	C251.224228,620.017578 242.816010,620.017578 234.033173,620.017578 
	C234.033173,602.564392 234.033173,585.498962 234.033173,568.059753 
	C208.258652,568.059753 182.866028,568.059753 157.006332,568.059753 
	C157.006332,559.417969 157.006332,551.146423 157.004349,542.437500 
	C157.002365,542.000061 156.930054,542.069946 157.402130,542.037476 
	C183.113525,542.004944 208.352844,542.004944 233.644226,542.004944 
	C233.644226,533.432190 233.644226,525.252747 233.644226,516.715820 
	C216.571045,516.715820 199.852722,516.715820 182.926575,516.715820 
	C182.926575,507.879303 182.926575,499.408386 183.399017,490.966492 
	C192.129059,490.995514 200.386658,490.995514 208.632721,490.995514 
	C208.632721,482.060425 208.632721,473.555603 208.632721,465.342377 
	C199.873459,465.342377 191.483032,465.342377 183.068451,465.342377 
	C183.068451,474.149567 183.068451,482.614594 182.596771,491.042603 
	C173.726761,490.980438 165.328400,490.955231 156.966232,490.965027 
	C157.002411,490.999969 157.075806,491.068787 157.075806,491.068787 
	C157.075806,473.919769 157.075806,456.770721 157.075806,439.223145 
	C131.430542,439.223145 106.024246,439.223145 80.218994,439.223145 
	C80.218994,430.763275 80.218994,422.684265 80.218994,414.209473 
	C71.423874,414.209473 63.011620,414.209473 54.203945,414.209473 
	C54.203945,405.413940 54.203945,397.001923 54.203945,388.194458 
	C45.407864,388.194458 36.996124,388.194458 28.295292,388.194458 
	C28.295292,362.392670 28.295292,336.988617 28.295292,311.182861 
	C36.608135,311.182861 45.019829,311.182861 53.713524,311.182861 
	C53.713524,293.714417 53.713524,276.642639 53.713524,259.168762 
	C45.382004,259.168762 36.969505,259.168762 28.282440,259.168762 
	C28.282440,250.369461 28.282440,241.963715 28.282440,233.277954 
	C70.975502,233.277954 113.711533,233.277954 156.723572,233.277954 
	C156.723572,241.643188 156.723572,250.048904 156.723572,258.856262 
	C131.346436,258.856262 105.940071,258.856262 80.267654,258.856262 
	C80.267654,267.655518 80.267654,276.061493 80.267654,284.870392 
	C88.327156,284.870392 96.403908,284.870392 104.875259,284.870392 
	C104.875259,302.004425 104.875259,318.746094 104.875259,335.883270 
	C122.342033,335.883270 139.416931,335.883270 156.743225,335.883270 
	C156.743225,353.351837 156.743225,370.422760 156.743225,387.894775 
	C139.642349,387.894775 122.567444,387.894775 105.248039,387.894775 
	C105.248039,396.696564 105.248039,405.101685 105.248039,413.995270 
	C130.903061,413.995270 156.508484,413.995270 182.558990,414.430786 
	C183.004059,422.792206 183.004059,430.718079 183.004059,438.632477 
	C191.939224,438.632477 200.444260,438.632477 208.655884,438.632477 
	C208.655884,430.204895 208.655884,422.146454 208.655884,414.060760 
	C199.845840,414.060760 191.379776,414.060760 182.913727,414.060760 
z"/>
<path fill="#000000" opacity="1.000000" stroke="none" 
	d="
M723.926270,284.937408 
	C723.926270,293.419983 723.926270,301.902557 723.926270,310.785828 
	C715.425049,310.785828 707.012207,310.785828 698.203369,310.785828 
	C698.203369,319.249146 698.203369,327.328156 698.203369,335.803589 
	C689.406189,335.803589 680.993896,335.803589 672.292969,335.803589 
	C672.292969,344.603424 672.292969,353.010406 672.292969,361.821899 
	C680.608643,361.821899 689.020935,361.821899 697.828796,361.821899 
	C697.828796,370.619385 697.828796,379.032104 697.828796,387.719666 
	C706.629883,387.719666 715.036438,387.719666 723.847046,387.719666 
	C723.847046,379.365662 723.847046,370.953064 723.847046,362.274170 
	C732.648315,362.274170 741.054504,362.274170 749.864319,362.274170 
	C749.864319,370.658173 749.864319,379.068573 749.864319,387.875183 
	C758.331482,387.875183 766.409058,387.875183 774.739868,387.875183 
	C774.739868,405.012604 774.739868,421.751160 774.739868,438.744995 
	C757.976990,438.744995 741.238464,438.744995 724.097412,438.744995 
	C724.097412,430.637054 724.097412,422.558136 724.097412,413.993683 
	C706.758789,413.993683 689.816833,413.993683 672.437378,413.995667 
	C671.999939,413.997650 672.069946,414.069946 672.037476,413.597839 
	C672.004944,404.852997 672.004944,396.580322 672.004944,387.927124 
	C654.793152,387.927124 638.058899,387.927124 620.942383,387.927124 
	C620.942383,370.475281 620.942383,353.407867 620.942383,335.970032 
	C586.498535,335.970032 552.441040,335.970032 518.366638,335.970032 
	C518.366638,310.080292 518.366638,284.569244 518.366638,258.665710 
	C526.807495,258.665710 534.883362,258.665710 542.636597,258.665710 
	C542.636597,249.861496 542.636597,241.454758 542.636597,233.355896 
	C525.539062,233.355896 508.805817,233.355896 491.686584,233.355896 
	C491.686584,242.118469 491.686584,250.525650 491.686584,259.310181 
	C482.884796,259.310181 474.478088,259.310181 466.351074,259.310181 
	C466.351074,268.113342 466.351074,276.519257 466.351074,285.303741 
	C475.108459,285.303741 483.517365,285.303741 491.652161,285.303741 
	C491.652161,294.106873 491.652161,302.512512 491.652161,311.266785 
	C439.922913,311.266785 388.541046,311.266785 337.075867,311.266785 
	C337.075867,319.776886 337.075867,327.922974 336.603210,336.036957 
	C328.063751,335.979919 319.996887,335.954987 311.966248,335.964996 
	C312.002411,335.999939 312.075836,336.068756 312.075836,336.068756 
	C312.075836,327.930237 312.075836,319.791718 312.075836,311.270508 
	C303.480133,311.270508 295.080139,311.270508 286.341980,311.270508 
	C286.341980,302.505188 286.341980,294.107849 286.341980,285.166351 
	C302.912109,285.166351 319.752136,285.166351 337.006317,285.166351 
	C337.006317,267.709839 337.006317,250.792358 337.004333,233.437439 
	C337.002350,233.000000 336.930054,233.069946 337.402161,233.037445 
	C346.235535,233.004944 354.596832,233.004944 362.930969,233.004944 
	C362.930969,224.153854 362.930969,216.038986 363.402802,207.959381 
	C372.275024,207.973404 380.675446,207.952179 389.040588,208.402771 
	C389.005341,216.802917 389.005341,224.731247 389.005341,232.667480 
	C414.922333,232.667480 440.398315,232.667480 465.924133,232.667480 
	C465.924133,224.200470 465.924133,216.065735 466.396790,207.963058 
	C475.231934,207.995102 483.594482,207.995102 492.069946,207.995102 
	C492.069946,198.823669 492.069946,190.376862 492.034973,181.966232 
	C492.000031,182.002411 491.931213,182.075806 491.931213,182.075806 
	C500.414276,182.075806 508.897339,182.075806 517.781128,182.075806 
	C517.781128,190.569885 517.781128,198.982956 517.781128,207.695801 
	C526.246765,207.695801 534.320740,207.695801 542.799072,207.695801 
	C542.799072,199.415054 542.799072,191.002563 542.799072,182.298187 
	C551.598450,182.298187 560.005066,182.298187 568.815918,182.298187 
	C568.815918,198.943802 568.815918,215.686203 568.815918,232.826462 
	C577.612793,232.826462 586.025818,232.826462 594.833252,232.826462 
	C594.833252,241.623871 594.833252,250.036758 594.833252,258.721863 
	C603.634277,258.721863 612.040771,258.721863 620.851196,258.721863 
	C620.851196,250.360962 620.851196,241.948639 620.851196,233.272156 
	C629.652344,233.272156 638.058105,233.272156 646.868042,233.272156 
	C646.868042,241.662155 646.868042,250.072418 646.868042,258.739258 
	C655.336914,258.739258 663.409729,258.739258 671.885986,258.739258 
	C671.885986,250.324463 671.885986,241.912979 671.885986,233.254730 
	C680.688660,233.254730 689.094116,233.254730 697.902832,233.254730 
	C697.902832,250.365387 697.902832,267.441132 697.902832,285.006561 
	C706.572205,285.006561 714.848450,285.006561 723.562134,285.006348 
	C723.999512,285.006104 723.926270,284.937408 723.926270,284.937408 
M576.500000,311.000000 
	C591.261353,311.000000 606.022766,311.000000 620.712646,311.000000 
	C620.712646,302.021606 620.712646,293.616547 620.712646,285.285095 
	C594.689758,285.285095 568.955200,285.285095 543.287292,285.285095 
	C543.287292,293.978546 543.287292,302.383759 543.287292,311.000000 
	C554.215515,311.000000 564.857788,311.000000 576.500000,311.000000 
M389.000000,281.348328 
	C389.000000,273.929688 389.000000,266.511017 389.000000,259.343689 
	C379.907379,259.343689 371.499207,259.343689 363.346313,259.343689 
	C363.346313,268.098175 363.346313,276.506409 363.346313,284.999908 
	C371.018341,284.999908 378.344543,284.970490 385.670227,285.019653 
	C387.615967,285.032745 389.488983,285.198914 389.000000,281.348328 
M657.518738,311.000000 
	C662.282166,311.000000 667.045532,311.000000 671.705444,311.000000 
	C671.705444,302.005219 671.705444,293.600708 671.705444,285.295593 
	C663.336426,285.295593 655.265015,285.295593 647.296509,285.295593 
	C647.296509,293.998779 647.296509,302.403381 647.296509,311.000000 
	C650.571106,311.000000 653.550720,311.000000 657.518738,311.000000 
z"/>
<path fill="#000000" opacity="1.000000" stroke="none" 
	d="
M724.086731,593.938721 
	C724.086731,602.415405 724.086731,610.892090 724.086731,619.752991 
	C740.881714,619.752991 757.612793,619.752991 774.670471,619.752991 
	C774.670471,636.859497 774.670471,653.588501 774.670471,670.658936 
	C749.501343,670.658936 724.111694,670.658936 698.160339,670.658936 
	C698.160339,654.088501 698.160339,637.235229 698.160339,620.195251 
	C689.199524,620.195251 680.799866,620.195251 672.015625,620.195251 
	C672.015625,637.116577 672.015625,653.847717 672.015625,670.966492 
	C663.568726,670.966492 655.495239,670.966492 647.047729,670.966492 
	C647.047729,688.417664 647.047729,705.481628 647.047729,722.769897 
	C629.604492,722.769897 612.544189,722.769897 594.995300,722.769897 
	C594.995300,714.426086 594.995300,706.156250 595.431030,697.441223 
	C604.125488,696.996033 612.384155,696.996033 620.632202,696.996033 
	C620.632202,688.061279 620.632202,679.555969 620.632202,671.343750 
	C611.871826,671.343750 603.480774,671.343750 595.061279,671.343750 
	C595.061279,680.153748 595.061279,688.620239 595.061279,697.086731 
	C577.915833,697.086731 560.770325,697.086731 543.226685,697.086731 
	C543.226685,688.437134 543.226685,680.025940 543.226685,671.220703 
	C534.768555,671.220703 526.690613,671.220703 518.218628,671.220703 
	C518.218628,662.762146 518.218628,654.684448 518.218628,646.305237 
	C509.423859,646.305237 501.017883,646.305237 492.210083,646.305237 
	C492.210083,654.242920 492.210083,662.320312 492.210083,670.791931 
	C483.417603,670.791931 475.006775,670.791931 466.007355,670.791931 
	C466.007355,679.437439 466.007355,687.697754 466.093323,696.381104 
	C466.179321,696.804138 466.252106,696.721741 466.252106,696.721741 
	C457.649811,696.721741 449.047516,696.721741 440.058533,696.721741 
	C440.058533,688.260193 440.058533,679.856384 440.058533,670.993652 
	C431.744415,670.993652 423.809631,670.993652 415.437408,670.995728 
	C414.999969,670.997742 415.069946,671.069946 415.037415,670.597839 
	C415.004913,662.191223 415.004913,654.256714 415.004913,645.957031 
	C432.181763,645.957031 448.905457,645.957031 465.801208,645.957031 
	C465.801208,637.187256 465.801208,628.791382 465.801208,619.874146 
	C431.450714,619.874146 397.295013,619.874146 362.924164,619.874146 
	C362.924164,610.879211 362.924164,602.405090 363.396790,593.963013 
	C406.448792,593.995117 449.028198,593.995117 491.998932,593.995117 
	C491.998932,602.795166 491.998932,611.202698 491.998932,619.799072 
	C500.790649,619.799072 509.190033,619.799072 518.158936,619.799072 
	C518.158936,611.100891 518.158936,602.568420 518.158936,593.672363 
	C526.800781,593.672363 534.875000,593.672363 542.652588,593.672363 
	C542.652588,576.215759 542.652588,559.153015 542.652588,542.343628 
	C534.231995,542.343628 526.161072,542.343628 517.713745,542.343628 
	C517.713745,551.091248 517.713745,559.498169 517.713745,567.673462 
	C500.257751,567.673462 483.195618,567.673462 466.322449,567.673462 
	C466.322449,558.941406 466.322449,550.538818 466.322449,541.755981 
	C475.047791,541.755981 483.454865,541.755981 492.069946,541.755981 
	C492.069946,533.219482 492.069946,525.074768 492.034973,516.965027 
	C492.000000,517.000000 491.930054,517.069946 492.402161,517.037476 
	C535.538452,517.004944 578.202637,517.004944 621.069946,517.004944 
	C621.069946,507.872437 621.069946,499.401245 621.034973,490.966217 
	C621.000000,491.002380 620.931152,491.075806 620.931152,491.075806 
	C629.329163,491.052673 637.727173,491.029510 646.562622,491.004333 
	C647.000061,491.002350 646.930054,490.930054 646.962524,491.402130 
	C646.995056,500.234772 646.995056,508.595337 646.995056,517.069946 
	C655.842651,517.069946 663.956299,517.069946 672.034973,517.034973 
	C672.000000,517.000000 671.930054,516.930054 671.962524,517.402161 
	C671.995056,525.799866 671.995056,533.725464 671.995056,542.069946 
	C698.313293,542.069946 724.191589,542.069946 750.033813,542.035034 
	C749.997620,542.000061 749.924316,541.931274 749.924316,541.931274 
	C749.924316,559.146973 749.924316,576.362671 749.924316,594.004700 
	C741.385620,594.004700 733.135986,594.004700 724.441223,593.568970 
	C723.996033,584.868225 723.996033,576.603210 723.996033,568.367798 
	C706.385315,568.367798 689.220581,568.367798 672.353149,568.367798 
	C672.353149,577.134888 672.353149,585.532532 672.353149,593.938721 
	C689.833069,593.938721 706.959900,593.938721 724.086731,593.938721 
M620.500000,568.000000 
	C603.405029,568.000000 586.310059,568.000000 569.286011,568.000000 
	C569.286011,594.309082 569.286011,620.045105 569.286011,645.713989 
	C595.309021,645.713989 621.045044,645.713989 646.713989,645.713989 
	C646.713989,619.690979 646.713989,593.954956 646.713989,568.000000 
	C638.119934,568.000000 629.809937,568.000000 620.500000,568.000000 
z"/>
<path fill="#000000" opacity="1.000000" stroke="none" 
	d="
M671.965576,413.960938 
	C671.931152,422.060303 671.931152,430.196320 671.931152,438.865051 
	C655.052551,438.865051 638.218994,438.865051 620.994141,438.865051 
	C620.994141,456.306885 620.994141,473.218658 620.962646,490.603119 
	C620.931152,491.075806 621.000000,491.002380 620.562866,490.998718 
	C611.859070,490.995056 603.592468,490.995056 594.962830,490.995056 
	C594.962830,473.489838 594.962830,456.434723 594.962830,439.324829 
	C560.441284,439.324829 526.291687,439.324829 492.075867,439.324829 
	C492.075867,448.122528 492.075867,456.595795 491.603210,465.036957 
	C482.861389,465.004883 474.592163,465.004883 465.953430,465.004883 
	C465.953430,447.815948 465.953430,431.089691 465.953430,414.193054 
	C448.852875,414.193054 432.130096,414.193054 415.362610,414.193054 
	C415.362610,422.574219 415.362610,430.757690 415.362610,439.321472 
	C423.795410,439.321472 431.867188,439.321472 440.294983,439.321472 
	C440.294983,456.769531 440.294983,473.828918 440.294983,490.930939 
	C457.806671,490.930939 474.941254,490.930939 492.040588,491.402771 
	C491.980255,500.273041 491.955170,508.671509 491.930054,517.069946 
	C491.930054,517.069946 492.000000,517.000000 491.562836,516.997559 
	C465.873810,516.995056 440.621948,516.995056 415.203979,516.995056 
	C415.203979,525.486084 415.203979,533.550537 415.203979,542.004639 
	C423.468445,542.004639 431.541168,542.004639 439.632599,542.004639 
	C439.632599,550.915649 439.632599,559.431946 439.632599,567.651245 
	C422.538666,567.651245 405.812927,567.651245 388.717407,567.651245 
	C388.717407,550.576721 388.717407,533.849670 388.717407,516.742615 
	C379.937469,516.742615 371.532410,516.742615 362.930939,516.742615 
	C362.930939,507.877136 362.930939,499.400635 363.402771,490.959412 
	C372.142975,490.994659 380.411316,490.994659 388.800629,490.994659 
	C388.800629,465.154724 388.800629,439.774536 388.800629,414.368652 
	C380.081665,414.368652 371.566589,414.368652 362.670410,414.368652 
	C362.670410,422.806824 362.670410,430.877838 362.670410,438.930054 
	C328.162994,438.930054 294.046539,438.930054 259.930054,438.930054 
	C259.930054,438.930054 260.000031,439.002380 260.034424,439.039093 
	C260.068817,430.941162 260.068817,422.806549 260.068817,414.295563 
	C268.501984,414.295563 276.895660,414.295563 285.842163,414.295563 
	C285.842163,405.426300 285.842163,396.905853 285.842163,388.024170 
	C294.779175,388.024170 303.175171,388.024170 312.006317,388.024170 
	C312.006317,379.395050 312.006317,371.134949 312.004333,362.437408 
	C312.002380,361.999969 311.930054,362.069946 312.402130,362.037415 
	C320.941406,361.980255 329.008636,361.955597 337.040588,362.402771 
	C337.005341,371.143494 337.005341,379.412354 337.005341,387.656952 
	C388.942780,387.656952 440.418488,387.656952 492.282074,387.656952 
	C492.282074,378.911865 492.282074,370.507568 492.282074,362.328430 
	C501.074921,362.328430 509.475861,362.328430 518.252808,362.328430 
	C518.252808,371.057922 518.252808,379.462738 518.252808,388.079712 
	C526.783813,388.079712 534.926208,388.079712 543.034302,388.043030 
	C542.999939,388.006348 542.926758,387.937531 542.960815,388.409058 
	C542.994812,397.144043 542.994812,405.407562 542.994812,414.069946 
	C586.327087,414.069946 629.198486,414.069946 672.069946,414.069946 
	C672.069946,414.069946 671.999939,413.997650 671.965576,413.960938 
z"/>
<path fill="#020202" opacity="1.000000" stroke="none" 
	d="
M663.000244,27.323030 
	C700.456726,27.323034 737.413269,27.323034 774.756592,27.323034 
	C774.756592,87.246017 774.756592,146.917572 774.756592,206.889465 
	C715.183777,206.889465 655.478943,206.889465 595.470459,206.889465 
	C595.470459,147.349533 595.470459,87.790016 595.470459,27.323027 
	C617.735962,27.323027 640.118042,27.323027 663.000244,27.323030 
M749.929871,85.500015 
	C749.929871,74.742111 749.929871,63.984211 749.929871,53.297974 
	C706.617859,53.297974 663.905823,53.297974 621.379700,53.297974 
	C621.379700,96.292526 621.379700,138.986938 621.379700,181.571838 
	C664.336548,181.571838 706.911987,181.571838 749.929871,181.571838 
	C749.929871,149.707672 749.929871,118.103844 749.929871,85.500015 
z"/>
<path fill="#010101" opacity="1.000000" stroke="none" 
	d="
M208.345825,117.000168 
	C208.345840,147.162766 208.345840,176.825348 208.345840,206.837433 
	C148.518906,206.837433 88.809311,206.837433 28.882118,206.837433 
	C28.882118,147.158112 28.882118,87.565559 28.882118,27.649109 
	C88.575500,27.649109 148.140106,27.649109 208.345810,27.649109 
	C208.345810,57.307384 208.345810,86.903778 208.345825,117.000168 
M154.499924,181.836288 
	C163.931259,181.836288 173.362610,181.836288 182.798492,181.836288 
	C182.798492,138.591934 182.798492,95.987572 182.798492,53.306381 
	C139.878113,53.306381 97.162773,53.306381 54.402199,53.306381 
	C54.402199,96.204727 54.402199,138.793427 54.402199,181.836288 
	C87.592377,181.836288 120.546143,181.836288 154.499924,181.836288 
z"/>
<path fill="#010101" opacity="1.000000" stroke="none" 
	d="
M175.999969,774.076843 
	C126.714149,774.076843 77.928322,774.076843 28.905321,774.076843 
	C28.905321,713.972534 28.905321,654.240356 28.905321,594.254150 
	C88.633934,594.254150 148.359802,594.254150 208.214722,594.254150 
	C208.214722,654.118530 208.214722,713.741821 208.214722,774.076843 
	C197.665192,774.076843 187.082596,774.076843 175.999969,774.076843 
M111.500069,619.825317 
	C92.545937,619.825317 73.591805,619.825317 54.504799,619.825317 
	C54.504799,662.994873 54.504799,705.692200 54.504799,748.459717 
	C97.437469,748.459717 140.025085,748.459717 182.719818,748.459717 
	C182.719818,705.483215 182.719818,662.754700 182.719818,619.825317 
	C159.123184,619.825317 135.811630,619.825317 111.500069,619.825317 
z"/>
<path fill="#000000" opacity="1.000000" stroke="none" 
	d="
M157.039062,541.965637 
	C148.596481,541.931213 140.117203,541.931213 131.244751,541.931213 
	C131.244751,550.541992 131.244751,558.949829 131.244751,567.676270 
	C122.460045,567.676270 114.056770,567.676270 105.256836,567.676270 
	C105.256836,559.466431 105.256836,551.058533 105.256836,542.260376 
	C96.807579,542.260376 88.733002,542.260376 80.275024,542.260376 
	C80.275024,525.143555 80.275024,508.410950 80.275024,491.339539 
	C71.498611,491.339539 63.094074,491.339539 54.307999,491.339539 
	C54.307999,516.490784 54.307999,541.883423 54.307999,567.637268 
	C45.541580,567.637268 37.136063,567.637268 28.364933,567.637268 
	C28.364933,525.103699 28.364933,482.272125 28.364933,439.220276 
	C36.754868,439.220276 45.154945,439.220276 53.950134,439.220276 
	C53.950134,447.747711 53.950134,456.154755 53.950134,464.931580 
	C79.732529,464.931580 105.125298,464.931580 131.004745,464.931580 
	C131.004745,473.572784 131.004745,481.843262 130.569153,490.558899 
	C121.874840,491.004028 113.616112,491.004028 105.367622,491.004028 
	C105.367622,499.938538 105.367622,508.443909 105.367622,516.656372 
	C114.127899,516.656372 122.518967,516.656372 130.939072,516.656372 
	C130.939072,507.846436 130.939072,499.379974 130.939072,490.913513 
	C139.336197,490.944305 147.733307,490.975098 156.603119,491.037354 
	C157.075806,491.068787 157.002411,490.999969 156.998718,491.437134 
	C156.973373,508.606201 156.951706,525.338074 156.930054,542.069946 
	C156.930054,542.069946 157.002365,542.000061 157.039062,541.965637 
z"/>
<path fill="#000000" opacity="1.000000" stroke="none" 
	d="
M517.912842,104.061455 
	C517.912842,95.938637 517.912842,87.815826 517.912842,79.155052 
	C526.252991,79.155052 534.429871,79.155052 543.006653,79.155052 
	C543.006653,70.373940 543.006653,62.124477 543.006592,53.437599 
	C543.006592,53.000183 542.937866,53.073399 542.937866,53.073399 
	C551.420349,53.073399 559.902771,53.073399 568.691772,53.073399 
	C568.691772,87.249054 568.691772,121.320549 568.691772,156.007233 
	C543.557739,156.007233 518.299316,156.007233 492.617706,156.092743 
	C492.194580,156.178238 492.276886,156.251007 492.276886,156.251007 
	C492.276886,138.991608 492.276886,121.732208 492.276886,103.995308 
	C500.580444,103.995308 508.846832,103.995308 517.558594,104.431068 
	C518.003967,113.125168 518.003967,121.383507 518.003967,129.632111 
	C526.605042,129.632111 534.777405,129.632111 542.656738,129.632111 
	C542.656738,120.871857 542.656738,112.481110 542.656738,104.061455 
	C534.179993,104.061455 526.046387,104.061455 517.912842,104.061455 
z"/>
<path fill="#000000" opacity="1.000000" stroke="none" 
	d="
M260.068787,207.924194 
	C251.594696,207.924194 243.120605,207.924194 234.323944,207.924194 
	C234.323944,190.802658 234.323944,173.747345 234.323944,156.303085 
	C242.488190,156.303085 250.891785,156.303085 259.647034,156.303085 
	C259.647034,147.531067 259.647034,139.129593 259.647034,130.162018 
	C251.434937,130.162018 242.906113,130.162018 234.197174,130.162018 
	C234.197174,121.201851 234.197174,112.805946 234.197174,104.006340 
	C259.964111,104.006340 285.544617,104.006340 311.562561,104.004379 
	C312.000000,104.002419 311.930054,103.930061 311.962555,104.402176 
	C311.995056,113.131721 311.995056,121.389160 311.995056,130.011536 
	C303.184723,130.011536 294.791534,130.011536 285.930054,130.011536 
	C285.930054,147.610260 285.930054,164.840103 285.965027,182.034973 
	C286.000000,182.000000 286.069946,181.930054 285.597839,181.962555 
	C276.764435,181.995056 268.403107,181.995056 259.930054,181.995056 
	C259.930054,191.177475 259.930054,199.623718 259.965027,208.033768 
	C259.999969,207.997589 260.068787,207.924194 260.068787,207.924194 
z"/>
<path fill="#000000" opacity="1.000000" stroke="none" 
	d="
M647.034424,491.039062 
	C647.068848,482.600555 647.068848,474.125366 647.068848,465.325745 
	C663.861084,465.325745 680.584106,465.325745 697.696533,465.325745 
	C697.696533,473.489532 697.696533,481.891388 697.696533,490.647064 
	C706.469360,490.647064 714.871094,490.647064 723.839355,490.647064 
	C723.839355,482.434113 723.839355,473.904205 723.839355,465.196228 
	C741.125000,465.196228 757.846069,465.196228 774.783203,465.196228 
	C774.783203,473.757965 774.783203,482.154266 774.783203,490.940460 
	C766.593750,490.940460 758.523682,490.940460 749.993652,490.940460 
	C749.993652,499.589081 749.993652,507.857056 749.995605,516.562500 
	C749.997620,516.999939 750.069946,516.930054 749.597900,516.962524 
	C723.393860,516.973389 697.661987,516.951721 671.930054,516.930054 
	C671.930054,516.930054 672.000000,517.000000 672.002502,516.562866 
	C672.005005,507.765198 672.005005,499.404633 672.005005,490.930054 
	C663.157349,490.930054 655.043701,490.930054 646.930054,490.930054 
	C646.930054,490.930054 647.000061,491.002350 647.034424,491.039062 
z"/>
<path fill="#000000" opacity="1.000000" stroke="none" 
	d="
M414.926727,78.937706 
	C414.926727,87.071815 414.926727,95.205925 414.926727,103.869720 
	C431.949097,103.869720 448.780884,103.869720 465.993683,103.869720 
	C465.993683,121.306641 465.993683,138.215881 465.995667,155.562561 
	C465.997650,156.000000 466.069946,155.930054 465.597839,155.962555 
	C456.860626,155.995056 448.595551,155.995056 439.953918,155.995056 
	C439.953918,147.153198 439.953918,138.751816 439.953918,129.854492 
	C405.426514,129.854492 371.279602,129.854492 337.069946,129.854492 
	C337.069946,120.873970 337.069946,112.402016 337.034973,103.965027 
	C337.000000,104.000000 336.930054,104.069939 337.402161,104.037445 
	C354.885376,104.004951 371.896484,104.004951 389.069946,104.004951 
	C389.069946,95.182442 389.069946,87.056252 389.034973,78.966248 
	C389.000031,79.002426 388.931213,79.075829 388.931213,79.075821 
	C397.329163,79.052750 405.727112,79.029686 414.562500,79.006523 
	C414.999908,79.006432 414.926727,78.937706 414.926727,78.937706 
z"/>
<path fill="#000000" opacity="1.000000" stroke="none" 
	d="
M260.073212,53.062283 
	C260.073212,44.590366 260.073212,36.118454 260.073212,27.323959 
	C277.194092,27.323959 294.246277,27.323959 311.684967,27.323959 
	C311.684967,35.476662 311.684967,43.878654 311.684967,52.808983 
	C337.556488,52.808983 363.052277,52.808983 388.994141,52.808983 
	C388.994141,61.597984 388.994141,69.864227 388.962677,78.603149 
	C388.931213,79.075829 389.000031,79.002426 388.562866,78.998734 
	C371.114563,78.995049 354.103485,78.995049 336.930054,78.995049 
	C336.930054,87.817657 336.930054,95.943802 336.930054,104.069939 
	C336.930054,104.069939 337.000000,104.000000 336.562866,103.997520 
	C328.060486,103.973381 319.995270,103.951714 311.930054,103.930054 
	C311.930054,103.930061 312.000000,104.002419 312.034393,104.039124 
	C312.068787,95.944107 312.068787,87.812386 312.068787,79.309174 
	C303.516449,79.309174 295.124451,79.309174 286.185883,79.309174 
	C286.185883,70.449280 286.185883,61.932430 286.185883,52.993378 
	C277.388489,52.993378 269.131683,52.993378 260.437469,52.993473 
	C260.000031,52.993568 260.073212,53.062283 260.073212,53.062283 
z"/>
<path fill="#000000" opacity="1.000000" stroke="none" 
	d="
M750.062317,722.926697 
	C741.586670,722.926697 733.111023,722.926697 724.256836,722.926697 
	C724.256836,739.873901 724.256836,756.601257 724.256836,773.663086 
	C698.497803,773.663086 673.113159,773.663086 647.364502,773.663086 
	C647.364502,765.757874 647.364502,757.574036 647.364502,748.994629 
	C655.471802,748.994629 663.544067,748.994629 671.994873,748.994629 
	C671.994873,740.210205 671.994873,731.804382 671.994873,723.020020 
	C680.778503,723.020020 689.184265,723.020020 697.969055,723.020020 
	C697.969055,714.236816 697.969055,705.831055 697.969055,697.218628 
	C715.415466,697.218628 732.472412,697.218628 749.993347,697.218628 
	C749.993347,705.586426 749.993347,713.855774 749.993469,722.562439 
	C749.993591,722.999817 750.062317,722.926697 750.062317,722.926697 
z"/>
<path fill="#000000" opacity="1.000000" stroke="none" 
	d="
M200.947876,310.998993 
	C177.486954,310.998993 154.517807,310.998993 131.275269,310.998993 
	C131.275269,302.355347 131.275269,293.950531 131.275269,285.272156 
	C165.317139,285.272156 199.383484,285.272156 233.724762,285.272156 
	C233.724762,310.645233 233.724762,336.046387 233.724762,361.723755 
	C217.022995,361.723755 200.286835,361.723755 183.275131,361.723755 
	C183.275131,353.355072 183.275131,344.950256 183.275131,336.143738 
	C191.649918,336.143738 200.059662,336.143738 208.732422,336.143738 
	C208.732422,327.678528 208.732422,319.607147 208.732422,310.998993 
	C206.314331,310.998993 203.876999,310.998993 200.947876,310.998993 
z"/>
<path fill="#000000" opacity="1.000000" stroke="none" 
	d="
M414.965546,670.961060 
	C414.931122,688.042847 414.931122,705.161255 414.931122,722.833618 
	C406.432129,722.833618 397.910065,722.833618 389.026642,722.833618 
	C389.026642,731.773071 389.026642,740.168945 389.026642,748.993652 
	C380.396179,748.993652 372.135498,748.993652 363.437408,748.995728 
	C362.999969,748.997742 363.069946,749.069946 363.037415,748.597900 
	C363.004913,739.764465 363.004913,731.403076 363.004913,722.930054 
	C353.822571,722.930054 345.376312,722.930054 336.965027,722.965027 
	C337.000000,723.000000 337.069946,723.069946 337.037415,722.597900 
	C337.004913,713.868408 337.004913,705.610962 337.004913,696.841858 
	C354.582642,696.841858 371.740051,696.841858 389.079712,696.841858 
	C389.079712,687.859253 389.079712,679.395325 389.043030,670.965698 
	C389.006348,671.000061 388.937531,671.073242 389.408997,671.039185 
	C398.276978,671.026733 406.673462,671.048340 415.069946,671.069946 
	C415.069946,671.069946 414.999969,670.997742 414.965546,670.961060 
z"/>
<path fill="#000000" opacity="1.000000" stroke="none" 
	d="
M466.073669,749.062683 
	C466.055756,731.946594 466.037811,714.830566 466.135986,697.218140 
	C466.252106,696.721741 466.179321,696.804138 466.148621,696.838928 
	C474.581451,696.873718 483.044983,696.873718 491.905212,696.873718 
	C491.905212,705.698914 491.905212,714.110107 491.905212,722.910522 
	C517.705200,722.910522 543.110107,722.910522 568.755493,722.910522 
	C568.755493,731.709351 568.755493,740.113464 568.755493,748.993408 
	C534.749756,748.993408 500.812531,748.993408 466.437897,748.993652 
	C466.000488,748.993958 466.073669,749.062683 466.073669,749.062683 
z"/>
<path fill="#000000" opacity="1.000000" stroke="none" 
	d="
M285.924225,207.931213 
	C285.924225,224.732529 285.924225,241.533844 285.924225,258.666992 
	C251.711975,258.666992 217.552979,258.666992 183.196991,258.666992 
	C183.196991,250.200027 183.196991,241.802719 183.196991,233.038177 
	C208.771194,233.038177 234.155701,233.038177 260.005859,233.038177 
	C260.005859,224.742859 260.005859,216.806213 260.037323,208.396881 
	C260.068787,207.924194 259.999969,207.997589 260.437134,208.001251 
	C269.272858,208.026596 277.671387,208.048264 286.033783,208.034973 
	C285.997620,208.000015 285.924225,207.931213 285.924225,207.931213 
z"/>
<path fill="#000000" opacity="1.000000" stroke="none" 
	d="
M415.034180,79.043091 
	C415.068481,61.945995 415.068481,44.812244 415.068481,27.339821 
	C423.169342,27.339821 431.237244,27.339821 439.696045,27.339821 
	C439.696045,35.488899 439.696045,43.890987 439.696045,52.845177 
	C457.249939,52.845177 474.429993,52.845177 491.800354,52.845177 
	C491.800354,61.793579 491.800354,70.190010 491.800354,78.994545 
	C466.370453,78.994545 441.121063,78.994545 415.399170,78.966125 
	C414.926727,78.937706 414.999908,79.006432 415.034180,79.043091 
z"/>
<path fill="#000000" opacity="1.000000" stroke="none" 
	d="
M312.039062,361.965576 
	C294.955658,361.931152 277.835571,361.931152 260.358246,361.931152 
	C260.358246,353.419708 260.358246,344.910706 260.358246,336.005859 
	C277.307281,336.005859 294.218872,336.005859 311.603149,336.037292 
	C312.075836,336.068756 312.002411,335.999939 311.998718,336.437134 
	C311.973389,345.272858 311.951721,353.671387 311.930054,362.069946 
	C311.930054,362.069946 312.002380,361.999969 312.039062,361.965576 
z"/>
<path fill="#000000" opacity="1.000000" stroke="none" 
	d="
M724.033813,285.042755 
	C724.068054,267.954926 724.068054,250.830429 724.068054,233.353516 
	C732.469299,233.353516 740.866089,233.353516 749.631775,233.353516 
	C749.631775,250.220352 749.631775,267.383606 749.631775,284.994537 
	C741.398865,284.994537 733.135132,284.994537 724.398804,284.965973 
	C723.926270,284.937408 723.999512,285.006104 724.033813,285.042755 
z"/>
<path fill="#000000" opacity="1.000000" stroke="none" 
	d="
M465.966187,748.957275 
	C465.931915,757.058594 465.931915,765.196655 465.931915,773.666748 
	C449.164001,773.666748 432.450104,773.666748 415.368225,773.666748 
	C415.368225,765.770081 415.368225,757.592834 415.368225,749.005432 
	C431.964508,749.005432 448.546570,749.005432 465.601135,749.034058 
	C466.073669,749.062683 466.000488,748.993958 465.966187,748.957275 
z"/>
<path fill="#000000" opacity="1.000000" stroke="none" 
	d="
M312.068787,207.924194 
	C303.669037,207.947495 295.269318,207.970810 286.396912,207.962677 
	C285.924225,207.931213 285.997620,208.000015 286.001282,207.562866 
	C286.026611,198.727158 286.048279,190.328613 286.069946,181.930054 
	C286.069946,181.930054 286.000000,182.000000 286.437134,182.002472 
	C295.235809,182.004944 303.597321,182.004944 311.930054,182.004944 
	C311.930054,191.177582 311.930054,199.623764 311.965027,208.033768 
	C311.999969,207.997589 312.068787,207.924194 312.068787,207.924194 
z"/>
<path fill="#000000" opacity="1.000000" stroke="none" 
	d="
M465.960938,156.034393 
	C474.377625,156.052444 482.831024,156.036087 491.780640,156.135376 
	C492.276886,156.251007 492.194580,156.178238 492.159790,156.147461 
	C492.081390,164.454605 492.037750,172.792526 491.962677,181.603119 
	C491.931213,182.075806 492.000031,182.002411 491.562866,181.998749 
	C482.725189,182.019730 474.324677,182.044388 465.959412,181.597229 
	C466.019775,172.726944 466.044861,164.328506 466.069946,155.930054 
	C466.069946,155.930054 465.997650,156.000000 465.960938,156.034393 
z"/>
<path fill="#000000" opacity="1.000000" stroke="none" 
	d="
M259.965759,52.956909 
	C259.931488,61.384792 259.931488,69.849335 259.931488,78.656326 
	C251.516983,78.656326 243.127167,78.656326 234.368408,78.656326 
	C234.368408,70.443939 234.368408,61.939754 234.368408,53.005455 
	C242.614197,53.005455 250.871277,53.005455 259.600769,53.033867 
	C260.073212,53.062283 260.000031,52.993568 259.965759,52.956909 
z"/>
<path fill="#000000" opacity="1.000000" stroke="none" 
	d="
M337.068787,748.924377 
	C328.955292,748.924377 320.841797,748.924377 312.005859,748.924377 
	C312.005859,740.592163 312.005859,732.230896 312.037323,723.397034 
	C312.068787,722.924377 311.999969,722.997742 312.437134,723.001343 
	C320.939514,723.026672 329.004730,723.048340 337.069946,723.069946 
	C337.069946,723.069946 337.000000,723.000000 336.997559,723.437134 
	C336.973419,732.272827 336.951752,740.671387 336.965027,749.033813 
	C336.999969,748.997742 337.068787,748.924377 337.068787,748.924377 
z"/>
<path fill="#000000" opacity="1.000000" stroke="none" 
	d="
M749.956909,723.034119 
	C758.051880,723.068420 766.183472,723.068420 774.656982,723.068420 
	C774.656982,731.483826 774.656982,739.873230 774.656982,748.631592 
	C766.777283,748.631592 758.605957,748.631592 750.005432,748.631592 
	C750.005432,740.385071 750.005432,732.128418 750.033875,723.399170 
	C750.062317,722.926697 749.993591,722.999817 749.956909,723.034119 
z"/>
<path fill="#000000" opacity="1.000000" stroke="none" 
	d="
M362.965546,748.961060 
	C362.931122,757.049927 362.931122,765.175476 362.931122,773.649963 
	C354.414276,773.649963 345.916382,773.649963 337.005859,773.649963 
	C337.005859,765.707153 337.005859,757.788391 337.037323,749.397034 
	C337.068787,748.924377 336.999969,748.997742 337.437134,749.001343 
	C346.272858,749.026611 354.671387,749.048279 363.069946,749.069946 
	C363.069946,749.069946 362.999969,748.997742 362.965546,748.961060 
z"/>
<path fill="#000000" opacity="1.000000" stroke="none" 
	d="
M598.166809,773.998901 
	C594.802063,774.487610 594.967346,772.614624 594.981323,770.669128 
	C595.031616,763.677429 595.001099,756.685059 595.001099,749.347168 
	C603.494263,749.347168 611.901855,749.347168 620.655396,749.347168 
	C620.655396,757.165955 620.655396,765.240356 620.655396,773.999023 
	C613.488220,773.999023 606.070190,773.999023 598.166809,773.998901 
z"/>
<path fill="#000000" opacity="1.000000" stroke="none" 
	d="
M543.043213,52.965916 
	C534.948303,52.931648 526.816650,52.931648 518.343079,52.931648 
	C518.343079,44.516205 518.343079,36.126789 518.343079,27.368423 
	C526.222778,27.368423 534.394104,27.368423 542.994629,27.368423 
	C542.994629,35.615036 542.994629,43.871742 542.966248,52.600922 
	C542.937866,53.073399 543.006592,53.000183 543.043213,52.965916 
z"/>
<path fill="#000000" opacity="1.000000" stroke="none" 
	d="
M337.039062,232.965591 
	C328.961426,232.931183 320.847137,232.931183 312.005859,232.931183 
	C312.005859,224.928909 312.005859,216.899231 312.037323,208.396881 
	C312.068787,207.924194 311.999969,207.997589 312.437134,208.001282 
	C320.939178,207.977997 329.004089,207.951050 337.036926,208.396729 
	C336.979950,216.936234 336.955017,225.003082 336.930054,233.069946 
	C336.930054,233.069946 337.002350,233.000000 337.039062,232.965591 
z"/>
<path fill="#000000" opacity="1.000000" stroke="none" 
	d="
M751.231079,311.031494 
	C759.337830,311.005005 766.960938,311.005005 774.788513,311.005005 
	C774.788513,319.442932 774.788513,327.512970 774.788513,335.791321 
	C766.551208,335.791321 758.481201,335.791321 750.747437,335.791321 
	C750.747437,327.425446 750.747437,319.241730 751.231079,311.031494 
z"/>
<path fill="#000000" opacity="1.000000" stroke="none" 
	d="
M749.960938,517.034302 
	C758.049500,517.068726 766.174744,517.068726 774.649414,517.068726 
	C774.649414,525.251648 774.649414,533.416992 774.649414,541.994141 
	C766.706482,541.994141 758.788086,541.994141 750.396973,541.962708 
	C749.924316,541.931274 749.997620,542.000061 750.001282,541.562866 
	C750.026611,533.060486 750.048279,524.995300 750.069946,516.930054 
	C750.069946,516.930054 749.997620,516.999939 749.960938,517.034302 
z"/>
<path fill="#FFFFFF" opacity="1.000000" stroke="none" 
	d="
M337.037415,722.597900 
	C329.004730,723.048340 320.939514,723.026672 312.402161,723.037476 
	C311.930054,705.851562 311.930054,688.633179 311.930054,670.994385 
	C303.378601,670.994385 295.126709,670.994385 286.437439,670.994141 
	C286.000092,670.993835 286.073334,671.062683 286.073334,671.062683 
	C286.073334,662.922791 286.073334,654.782959 286.073334,646.271362 
	C302.863403,646.271362 319.585968,646.271362 336.653564,646.271362 
	C336.653564,637.515442 336.653564,629.115417 336.653564,620.164917 
	C320.090759,620.164917 303.246155,620.164917 286.204926,620.164917 
	C286.204926,602.564880 286.204926,585.512878 286.204926,568.005371 
	C294.591827,568.005371 302.858643,568.005371 311.562805,568.003784 
	C312.000183,568.002258 311.930054,567.930054 311.962555,568.402161 
	C311.995056,577.125916 311.995056,585.377625 311.995056,594.069946 
	C329.298523,594.069946 346.184235,594.069946 363.033783,594.034912 
	C362.997620,593.999939 362.924164,593.930969 362.924164,593.930969 
	C362.924164,602.405090 362.924164,610.879211 362.924164,619.874146 
	C397.295013,619.874146 431.450714,619.874146 465.801208,619.874146 
	C465.801208,628.791382 465.801208,637.187256 465.801208,645.957031 
	C448.905457,645.957031 432.181763,645.957031 415.004913,645.957031 
	C415.004913,654.256714 415.004913,662.191223 415.037415,670.597839 
	C406.673462,671.048340 398.276978,671.026733 389.437988,670.566772 
	C388.995514,662.203674 388.995514,654.278870 388.995514,646.367310 
	C380.059052,646.367310 371.554993,646.367310 363.342987,646.367310 
	C363.342987,654.794067 363.342987,662.851868 363.342987,670.931396 
	C372.150452,670.931396 380.615082,670.931396 389.079712,670.931396 
	C389.079712,679.395325 389.079712,687.859253 389.079712,696.841858 
	C371.740051,696.841858 354.582642,696.841858 337.004913,696.841858 
	C337.004913,705.610962 337.004913,713.868408 337.037415,722.597900 
z"/>
<path fill="#FFFFFF" opacity="1.000000" stroke="none" 
	d="
M259.962585,439.402130 
	C294.046539,438.930054 328.162994,438.930054 362.670410,438.930054 
	C362.670410,430.877838 362.670410,422.806824 362.670410,414.368652 
	C371.566589,414.368652 380.081665,414.368652 388.800629,414.368652 
	C388.800629,439.774536 388.800629,465.154724 388.800629,490.994659 
	C380.411316,490.994659 372.142975,490.994659 363.437256,490.996124 
	C362.999878,490.997589 363.069946,491.069946 363.037415,490.597870 
	C363.004913,481.874939 363.004913,473.624084 363.004913,465.348633 
	C354.084198,465.348633 345.585876,465.348633 336.930054,465.348633 
	C336.930054,474.154602 336.930054,482.612274 336.965027,491.034973 
	C337.000000,491.000000 337.069946,490.930054 336.597870,490.962585 
	C328.206665,490.995087 320.287537,490.995087 311.930054,490.995087 
	C311.930054,508.300018 311.930054,525.184998 311.965088,542.033813 
	C312.000122,541.997620 312.069031,541.924194 312.069031,541.924194 
	C303.601349,541.924194 295.133667,541.924194 286.158295,541.924194 
	C286.158295,516.400696 286.158295,490.920135 286.158295,464.994385 
	C277.396973,464.994385 269.135895,464.994385 260.437469,464.994019 
	C260.000122,464.993683 260.073334,465.062500 260.073334,465.062500 
	C260.047272,456.666412 260.021179,448.270294 259.962585,439.402130 
z"/>
<path fill="#FFFFFF" opacity="1.000000" stroke="none" 
	d="
M157.402130,542.037476 
	C156.951706,525.338074 156.973373,508.606201 156.962555,491.402191 
	C165.328400,490.955231 173.726761,490.980438 182.562439,491.005920 
	C182.999786,491.006256 182.926575,490.937439 182.926575,490.937439 
	C182.926575,499.408386 182.926575,507.879303 182.926575,516.715820 
	C199.852722,516.715820 216.571045,516.715820 233.644226,516.715820 
	C233.644226,525.252747 233.644226,533.432190 233.644226,542.004944 
	C208.352844,542.004944 183.113525,542.004944 157.402130,542.037476 
z"/>
<path fill="#FFFFFF" opacity="1.000000" stroke="none" 
	d="
M183.034119,491.042908 
	C183.068451,482.614594 183.068451,474.149567 183.068451,465.342377 
	C191.483032,465.342377 199.873459,465.342377 208.632721,465.342377 
	C208.632721,473.555603 208.632721,482.060425 208.632721,490.995514 
	C200.386658,490.995514 192.129059,490.995514 183.399017,490.966492 
	C182.926575,490.937439 182.999786,491.006256 183.034119,491.042908 
z"/>
<path fill="#FFFFFF" opacity="1.000000" stroke="none" 
	d="
M285.965759,670.957153 
	C285.931458,679.385498 285.931458,687.850464 285.931458,696.657654 
	C277.516937,696.657654 269.126495,696.657654 260.367249,696.657654 
	C260.367249,688.444458 260.367249,679.939575 260.367249,671.004456 
	C268.613281,671.004456 276.870850,671.004456 285.600891,671.033569 
	C286.073334,671.062683 286.000092,670.993835 285.965759,670.957153 
z"/>
<path fill="#FFFFFF" opacity="1.000000" stroke="none" 
	d="
M259.965790,464.957031 
	C259.931458,473.385345 259.931458,481.850342 259.931458,490.657593 
	C251.517044,490.657593 243.126617,490.657593 234.367310,490.657593 
	C234.367310,482.444427 234.367310,473.939636 234.367310,465.004486 
	C242.613297,465.004486 250.870865,465.004486 259.600891,465.033508 
	C260.073334,465.062500 260.000122,464.993683 259.965790,464.957031 
z"/>
<path fill="#FFFFFF" opacity="1.000000" stroke="none" 
	d="
M312.034668,568.038940 
	C312.047699,559.673584 312.026306,551.271545 312.036957,542.396851 
	C312.069031,541.924194 312.000122,541.997620 312.437195,542.001343 
	C320.939514,542.026672 329.004730,542.048340 337.034973,542.035034 
	C337.000000,542.000000 336.930054,541.930054 336.962585,542.402100 
	C336.995087,551.234985 336.995087,559.595703 336.995087,567.930054 
	C328.157288,567.930054 320.043671,567.930054 311.930054,567.930054 
	C311.930054,567.930054 312.000183,568.002258 312.034668,568.038940 
z"/>
<path fill="#FFFFFF" opacity="1.000000" stroke="none" 
	d="
M182.950348,414.026550 
	C191.379776,414.060760 199.845840,414.060760 208.655884,414.060760 
	C208.655884,422.146454 208.655884,430.204895 208.655884,438.632477 
	C200.444260,438.632477 191.939224,438.632477 183.004059,438.632477 
	C183.004059,430.718079 183.004059,422.792206 183.029770,414.392792 
	C183.055481,413.919281 182.986954,413.992371 182.950348,414.026550 
z"/>
<path fill="#FFFFFF" opacity="1.000000" stroke="none" 
	d="
M543.068604,388.079712 
	C534.926208,388.079712 526.783813,388.079712 518.252808,388.079712 
	C518.252808,379.462738 518.252808,371.057922 518.252808,362.328430 
	C509.475861,362.328430 501.074921,362.328430 492.282074,362.328430 
	C492.282074,370.507568 492.282074,378.911865 492.282074,387.656952 
	C440.418488,387.656952 388.942780,387.656952 337.005341,387.656952 
	C337.005341,379.412354 337.005341,371.143494 337.003845,362.437225 
	C337.002380,361.999847 336.930054,362.069946 337.402161,362.037415 
	C354.785034,362.004913 371.695862,362.004913 388.643585,362.004913 
	C388.643585,353.089294 388.643585,344.580780 388.643585,335.930054 
	C371.168213,335.930054 354.049133,335.930054 336.966248,335.965088 
	C337.002441,336.000092 337.075867,336.069031 337.075867,336.069031 
	C337.075867,327.922974 337.075867,319.776886 337.075867,311.266785 
	C388.541046,311.266785 439.922913,311.266785 491.652161,311.266785 
	C491.652161,302.512512 491.652161,294.106873 491.652161,285.303741 
	C483.517365,285.303741 475.108459,285.303741 466.351074,285.303741 
	C466.351074,276.519257 466.351074,268.113342 466.351074,259.310181 
	C474.478088,259.310181 482.884796,259.310181 491.686584,259.310181 
	C491.686584,250.525650 491.686584,242.118469 491.686584,233.355896 
	C508.805817,233.355896 525.539062,233.355896 542.636597,233.355896 
	C542.636597,241.454758 542.636597,249.861496 542.636597,258.665710 
	C534.883362,258.665710 526.807495,258.665710 518.366638,258.665710 
	C518.366638,284.569244 518.366638,310.080292 518.366638,335.970032 
	C552.441040,335.970032 586.498535,335.970032 620.942383,335.970032 
	C620.942383,353.407867 620.942383,370.475281 620.942383,387.927124 
	C638.058899,387.927124 654.793152,387.927124 672.004944,387.927124 
	C672.004944,396.580322 672.004944,404.852997 672.037476,413.597839 
	C629.198486,414.069946 586.327087,414.069946 542.994812,414.069946 
	C542.994812,405.407562 542.994812,397.144043 543.433228,388.438049 
	C560.787720,387.995514 577.703796,387.995514 594.632690,387.995514 
	C594.632690,379.073822 594.632690,370.562592 594.632690,362.332642 
	C577.216492,362.332642 560.168396,362.332642 543.068604,362.332642 
	C543.068604,371.136597 543.068604,379.608154 543.068604,388.079712 
M415.746399,336.056854 
	C415.746399,344.574554 415.746399,353.092285 415.746399,361.792358 
	C423.480774,361.792358 431.551514,361.792358 439.789581,361.792358 
	C439.789581,353.180084 439.789581,344.776031 439.789581,336.003937 
	C431.961395,336.003937 424.337646,336.003937 415.746399,336.056854 
z"/>
<path fill="#FFFFFF" opacity="1.000000" stroke="none" 
	d="
M337.068970,207.924103 
	C329.004089,207.951050 320.939178,207.977997 312.402161,208.037445 
	C311.930054,199.623764 311.930054,191.177582 311.930054,182.004944 
	C303.597321,182.004944 295.235809,182.004944 286.402161,182.037445 
	C285.930054,164.840103 285.930054,147.610260 285.930054,130.011536 
	C294.791534,130.011536 303.184723,130.011536 311.995056,130.011536 
	C311.995056,121.389160 311.995056,113.131721 311.962555,104.402168 
	C319.995270,103.951714 328.060486,103.973381 336.597839,103.962555 
	C337.069946,112.402016 337.069946,120.873970 337.069946,129.854492 
	C371.279602,129.854492 405.426514,129.854492 439.953918,129.854492 
	C439.953918,138.751816 439.953918,147.153198 439.953918,155.995056 
	C448.595551,155.995056 456.860626,155.995056 465.597839,155.962555 
	C466.044861,164.328506 466.019775,172.726944 465.996155,181.562744 
	C465.997620,182.000107 466.069946,181.930054 465.597839,181.962555 
	C456.874939,181.995056 448.624084,181.995056 440.348633,181.995056 
	C440.348633,190.915802 440.348633,199.414139 440.348633,208.069946 
	C449.154602,208.069946 457.612274,208.069946 466.033752,208.034943 
	C465.997559,207.999939 465.924133,207.931015 465.924133,207.931015 
	C465.924133,216.065735 465.924133,224.200470 465.924133,232.667480 
	C440.398315,232.667480 414.922333,232.667480 389.005341,232.667480 
	C389.005341,224.731247 389.005341,216.802917 389.003845,208.437256 
	C389.002380,207.999893 388.930054,208.069946 389.402161,208.037445 
	C398.125061,208.004944 406.375916,208.004944 414.651367,208.004944 
	C414.651367,199.084198 414.651367,190.585861 414.651367,181.930054 
	C405.845398,181.930054 397.387726,181.930054 388.965027,181.965027 
	C389.000000,182.000000 389.069946,182.069946 389.037415,181.597870 
	C389.004913,172.874954 389.004913,164.624100 389.004913,156.348618 
	C380.084229,156.348618 371.585876,156.348618 362.930054,156.348618 
	C362.930054,165.154602 362.930054,173.612274 362.965027,182.034973 
	C363.000000,182.000000 363.069946,181.930054 362.597839,181.962555 
	C353.764374,181.995056 345.403076,181.995056 336.930054,181.995056 
	C336.930054,191.177460 336.930054,199.623703 336.965027,208.033722 
	C337.000031,207.997513 337.068970,207.924088 337.068970,207.924103 
z"/>
<path fill="#FFFFFF" opacity="1.000000" stroke="none" 
	d="
M576.000000,311.000000 
	C564.857788,311.000000 554.215515,311.000000 543.287292,311.000000 
	C543.287292,302.383759 543.287292,293.978546 543.287292,285.285095 
	C568.955200,285.285095 594.689758,285.285095 620.712646,285.285095 
	C620.712646,293.616547 620.712646,302.021606 620.712646,311.000000 
	C606.022766,311.000000 591.261353,311.000000 576.000000,311.000000 
z"/>
<path fill="#FFFFFF" opacity="1.000000" stroke="none" 
	d="
M465.960876,182.034576 
	C474.324677,182.044388 482.725189,182.019730 491.597839,181.962555 
	C492.069946,190.376862 492.069946,198.823669 492.069946,207.995102 
	C483.594482,207.995102 475.231934,207.995102 466.396790,207.963058 
	C465.924133,207.931015 465.997559,207.999939 466.001251,207.562836 
	C466.026611,198.727158 466.048279,190.328613 466.069946,181.930054 
	C466.069946,181.930054 465.997620,182.000107 465.960876,182.034576 
z"/>
<path fill="#FFFFFF" opacity="1.000000" stroke="none" 
	d="
M389.039124,207.965424 
	C380.675446,207.952179 372.275024,207.973404 363.437256,207.996094 
	C362.999878,207.997559 363.069946,208.069946 363.037415,207.597870 
	C363.026581,198.727219 363.048248,190.328629 363.069946,181.930054 
	C363.069946,181.930054 363.000000,182.000000 363.437134,182.002472 
	C372.272858,182.026611 380.671387,182.048279 389.069946,182.069946 
	C389.069946,182.069946 389.000000,182.000000 388.997528,182.437134 
	C388.973389,191.272842 388.951721,199.671387 388.930054,208.069946 
	C388.930054,208.069946 389.002380,207.999893 389.039124,207.965424 
z"/>
<path fill="#FFFFFF" opacity="1.000000" stroke="none" 
	d="
M388.999878,281.833801 
	C389.488983,285.198914 387.615967,285.032745 385.670227,285.019653 
	C378.344543,284.970490 371.018341,284.999908 363.346313,284.999908 
	C363.346313,276.506409 363.346313,268.098175 363.346313,259.343689 
	C371.499207,259.343689 379.907379,259.343689 389.000000,259.343689 
	C389.000000,266.511017 389.000000,273.929688 388.999878,281.833801 
z"/>
<path fill="#FFFFFF" opacity="1.000000" stroke="none" 
	d="
M337.402161,233.037445 
	C336.955017,225.003082 336.979950,216.936234 337.036926,208.396729 
	C337.068970,207.924088 337.000031,207.997513 337.437164,208.001221 
	C346.272858,208.026596 354.671387,208.048264 363.069946,208.069946 
	C363.069946,208.069946 362.999878,207.997559 362.965424,207.960846 
	C362.930969,216.038986 362.930969,224.153854 362.930969,233.004944 
	C354.596832,233.004944 346.235535,233.004944 337.402161,233.037445 
z"/>
<path fill="#FFFFFF" opacity="1.000000" stroke="none" 
	d="
M657.024536,311.000000 
	C653.550720,311.000000 650.571106,311.000000 647.296509,311.000000 
	C647.296509,302.403381 647.296509,293.998779 647.296509,285.295593 
	C655.265015,285.295593 663.336426,285.295593 671.705444,285.295593 
	C671.705444,293.600708 671.705444,302.005219 671.705444,311.000000 
	C667.045532,311.000000 662.282166,311.000000 657.024536,311.000000 
z"/>
<path fill="#FFFFFF" opacity="1.000000" stroke="none" 
	d="
M312.402130,362.037415 
	C311.951721,353.671387 311.973389,345.272858 311.962555,336.402161 
	C319.996887,335.954987 328.063751,335.979919 336.603210,336.036957 
	C337.075867,336.069031 337.002441,336.000092 336.998749,336.437195 
	C336.973389,345.272858 336.951721,353.671387 336.930054,362.069946 
	C336.930054,362.069946 337.002380,361.999847 337.039124,361.965393 
	C329.008636,361.955597 320.941406,361.980255 312.402130,362.037415 
z"/>
<path fill="#FFFFFF" opacity="1.000000" stroke="none" 
	d="
M362.965393,490.960876 
	C362.930939,499.400635 362.930939,507.877136 362.930939,516.742615 
	C371.532410,516.742615 379.937469,516.742615 388.717407,516.742615 
	C388.717407,533.849670 388.717407,550.576721 388.717407,567.651245 
	C405.812927,567.651245 422.538666,567.651245 439.632599,567.651245 
	C439.632599,559.431946 439.632599,550.915649 439.632599,542.004639 
	C431.541168,542.004639 423.468445,542.004639 415.203979,542.004639 
	C415.203979,533.550537 415.203979,525.486084 415.203979,516.995056 
	C440.621948,516.995056 465.873810,516.995056 491.597809,516.962524 
	C492.069946,525.074768 492.069946,533.219482 492.069946,541.755981 
	C483.454865,541.755981 475.047791,541.755981 466.322449,541.755981 
	C466.322449,550.538818 466.322449,558.941406 466.322449,567.673462 
	C483.195618,567.673462 500.257751,567.673462 517.713745,567.673462 
	C517.713745,559.498169 517.713745,551.091248 517.713745,542.343628 
	C526.161072,542.343628 534.231995,542.343628 542.652588,542.343628 
	C542.652588,559.153015 542.652588,576.215759 542.652588,593.672363 
	C534.875000,593.672363 526.800781,593.672363 518.158936,593.672363 
	C518.158936,602.568420 518.158936,611.100891 518.158936,619.799072 
	C509.190033,619.799072 500.790649,619.799072 491.998932,619.799072 
	C491.998932,611.202698 491.998932,602.795166 491.998932,593.995117 
	C449.028198,593.995117 406.448792,593.995117 363.396790,593.963013 
	C362.924164,593.930969 362.997620,593.999939 363.001282,593.562866 
	C363.004944,576.113953 363.004944,559.102112 363.004944,541.930054 
	C353.847778,541.930054 345.388916,541.930054 336.930054,541.930054 
	C336.930054,541.930054 337.000000,542.000000 337.002472,541.562866 
	C337.026611,524.393860 337.048279,507.661957 337.069946,490.930054 
	C337.069946,490.930054 337.000000,491.000000 337.437134,491.002472 
	C346.272858,491.026611 354.671387,491.048279 363.069946,491.069946 
	C363.069946,491.069946 362.999878,490.997589 362.965393,490.960876 
z"/>
<path fill="#FFFFFF" opacity="1.000000" stroke="none" 
	d="
M492.402161,517.037476 
	C491.955170,508.671509 491.980255,500.273041 492.003876,491.437256 
	C492.002411,490.999878 491.930054,491.069946 492.402161,491.037415 
	C509.451874,491.004913 526.029480,491.004913 542.643799,491.004913 
	C542.643799,482.089142 542.643799,473.580841 542.643799,464.930054 
	C525.501831,464.930054 508.715942,464.930054 491.966248,464.965088 
	C492.002441,465.000092 492.075867,465.069031 492.075867,465.069031 
	C492.075867,456.595795 492.075867,448.122528 492.075867,439.324829 
	C526.291687,439.324829 560.441284,439.324829 594.962830,439.324829 
	C594.962830,456.434723 594.962830,473.489838 594.962830,490.995056 
	C603.592468,490.995056 611.859070,490.995056 620.597839,490.962555 
	C621.069946,499.401245 621.069946,507.872437 621.069946,517.004944 
	C578.202637,517.004944 535.538452,517.004944 492.402161,517.037476 
z"/>
<path fill="#FFFFFF" opacity="1.000000" stroke="none" 
	d="
M621.000000,568.000000 
	C629.809937,568.000000 638.119934,568.000000 646.713989,568.000000 
	C646.713989,593.954956 646.713989,619.690979 646.713989,645.713989 
	C621.045044,645.713989 595.309021,645.713989 569.286011,645.713989 
	C569.286011,620.045105 569.286011,594.309082 569.286011,568.000000 
	C586.310059,568.000000 603.405029,568.000000 621.000000,568.000000 
M596.709595,619.996033 
	C604.789917,619.996033 612.870239,619.996033 620.635132,619.996033 
	C620.635132,610.864807 620.635132,602.455017 620.635132,594.368713 
	C611.859741,594.368713 603.450928,594.368713 595.744019,594.368713 
	C595.744019,603.143127 595.744019,611.543396 596.709595,619.996033 
z"/>
<path fill="#FFFFFF" opacity="1.000000" stroke="none" 
	d="
M749.597900,516.962524 
	C750.048279,524.995300 750.026611,533.060486 750.037476,541.597839 
	C724.191589,542.069946 698.313293,542.069946 671.995056,542.069946 
	C671.995056,533.725464 671.995056,525.799866 671.962524,517.402161 
	C697.661987,516.951721 723.393860,516.973389 749.597900,516.962524 
z"/>
<path fill="#FFFFFF" opacity="1.000000" stroke="none" 
	d="
M724.050171,593.972900 
	C706.959900,593.938721 689.833069,593.938721 672.353149,593.938721 
	C672.353149,585.532532 672.353149,577.134888 672.353149,568.367798 
	C689.220581,568.367798 706.385315,568.367798 723.996033,568.367798 
	C723.996033,576.603210 723.996033,584.868225 723.970459,593.606689 
	C723.944946,594.080200 724.013550,594.007141 724.050171,593.972900 
z"/>
<path fill="#FFFFFF" opacity="1.000000" stroke="none" 
	d="
M595.027100,697.050171 
	C595.061279,688.620239 595.061279,680.153748 595.061279,671.343750 
	C603.480774,671.343750 611.871826,671.343750 620.632202,671.343750 
	C620.632202,679.555969 620.632202,688.061279 620.632202,696.996033 
	C612.384155,696.996033 604.125488,696.996033 595.393311,696.970459 
	C594.919800,696.944946 594.992859,697.013550 595.027100,697.050171 
z"/>
<path fill="#FFFFFF" opacity="1.000000" stroke="none" 
	d="
M646.962524,491.402130 
	C655.043701,490.930054 663.157349,490.930054 672.005005,490.930054 
	C672.005005,499.404633 672.005005,507.765198 672.037476,516.597839 
	C663.956299,517.069946 655.842651,517.069946 646.995056,517.069946 
	C646.995056,508.595337 646.995056,500.234772 646.962524,491.402130 
z"/>
<path fill="#FFFFFF" opacity="1.000000" stroke="none" 
	d="
M492.039124,490.965393 
	C474.941254,490.930939 457.806671,490.930939 440.294983,490.930939 
	C440.294983,473.828918 440.294983,456.769531 440.294983,439.321472 
	C431.867188,439.321472 423.795410,439.321472 415.362610,439.321472 
	C415.362610,430.757690 415.362610,422.574219 415.362610,414.193054 
	C432.130096,414.193054 448.852875,414.193054 465.953430,414.193054 
	C465.953430,431.089691 465.953430,447.815948 465.953430,465.004883 
	C474.592163,465.004883 482.861389,465.004883 491.603210,465.036957 
	C492.075867,465.069031 492.002441,465.000092 491.998749,465.437195 
	C491.973389,474.272858 491.951721,482.671387 491.930054,491.069946 
	C491.930054,491.069946 492.002411,490.999878 492.039124,490.965393 
z"/>
<path fill="#FCFCFC" opacity="1.000000" stroke="none" 
	d="
M749.929871,86.000015 
	C749.929871,118.103844 749.929871,149.707672 749.929871,181.571838 
	C706.911987,181.571838 664.336548,181.571838 621.379700,181.571838 
	C621.379700,138.986938 621.379700,96.292526 621.379700,53.297974 
	C663.905823,53.297974 706.617859,53.297974 749.929871,53.297974 
	C749.929871,63.984211 749.929871,74.742111 749.929871,86.000015 
M646.564575,96.500298 
	C646.564575,116.234520 646.564575,135.968750 646.564575,155.643875 
	C672.658936,155.643875 698.191040,155.643875 723.605469,155.643875 
	C723.605469,129.883514 723.605469,104.479668 723.605469,79.168060 
	C697.778687,79.168060 672.236328,79.168060 646.564575,79.168060 
	C646.564575,84.848877 646.564575,90.174591 646.564575,96.500298 
z"/>
<path fill="#FCFCFC" opacity="1.000000" stroke="none" 
	d="
M153.999908,181.836288 
	C120.546143,181.836288 87.592377,181.836288 54.402199,181.836288 
	C54.402199,138.793427 54.402199,96.204727 54.402199,53.306381 
	C97.162773,53.306381 139.878113,53.306381 182.798492,53.306381 
	C182.798492,95.987572 182.798492,138.591934 182.798492,181.836288 
	C173.362610,181.836288 163.931259,181.836288 153.999908,181.836288 
M156.998245,83.585022 
	C156.998245,82.020149 156.998245,80.455269 156.998245,79.118637 
	C130.844467,79.118637 105.450928,79.118637 80.019791,79.118637 
	C80.019791,104.815048 80.019791,130.206512 80.019791,155.707138 
	C105.746529,155.707138 131.266769,155.707138 156.998245,155.707138 
	C156.998245,131.801971 156.998245,108.187309 156.998245,83.585022 
z"/>
<path fill="#FCFCFC" opacity="1.000000" stroke="none" 
	d="
M112.000076,619.825317 
	C135.811630,619.825317 159.123184,619.825317 182.719818,619.825317 
	C182.719818,662.754700 182.719818,705.483215 182.719818,748.459717 
	C140.025085,748.459717 97.437469,748.459717 54.504799,748.459717 
	C54.504799,705.692200 54.504799,662.994873 54.504799,619.825317 
	C73.591805,619.825317 92.545937,619.825317 112.000076,619.825317 
M98.500374,645.567444 
	C92.398544,645.567444 86.296715,645.567444 80.147156,645.567444 
	C80.147156,671.588989 80.147156,697.107544 80.147156,722.630249 
	C105.871819,722.630249 131.263062,722.630249 156.715240,722.630249 
	C156.715240,696.818604 156.715240,671.264221 156.715240,645.567444 
	C137.455338,645.567444 118.477882,645.567444 98.500374,645.567444 
z"/>
<path fill="#FFFFFF" opacity="1.000000" stroke="none" 
	d="
M130.973267,490.950134 
	C130.939072,499.379974 130.939072,507.846436 130.939072,516.656372 
	C122.518967,516.656372 114.127899,516.656372 105.367622,516.656372 
	C105.367622,508.443909 105.367622,499.938538 105.367622,491.004028 
	C113.616112,491.004028 121.874840,491.004028 130.607071,491.029663 
	C131.080566,491.055267 131.007477,490.986725 130.973267,490.950134 
z"/>
<path fill="#FFFFFF" opacity="1.000000" stroke="none" 
	d="
M517.949463,104.027260 
	C526.046387,104.061455 534.179993,104.061455 542.656738,104.061455 
	C542.656738,112.481110 542.656738,120.871857 542.656738,129.632111 
	C534.777405,129.632111 526.605042,129.632111 518.003967,129.632111 
	C518.003967,121.383507 518.003967,113.125168 518.029297,104.393410 
	C518.054688,103.919991 517.986084,103.993065 517.949463,104.027260 
z"/>
<path fill="#FFFFFF" opacity="1.000000" stroke="none" 
	d="
M285.597839,181.962555 
	C286.048279,190.328613 286.026611,198.727158 286.037445,207.597824 
	C277.671387,208.048264 269.272858,208.026596 260.402161,208.037445 
	C259.930054,199.623718 259.930054,191.177475 259.930054,181.995056 
	C268.403107,181.995056 276.764435,181.995056 285.597839,181.962555 
z"/>
<path fill="#FFFFFF" opacity="1.000000" stroke="none" 
	d="
M337.402161,104.037445 
	C336.930054,95.943802 336.930054,87.817657 336.930054,78.995049 
	C354.103485,78.995049 371.114563,78.995049 388.597809,78.962555 
	C389.069946,87.056252 389.069946,95.182442 389.069946,104.004951 
	C371.896484,104.004951 354.885376,104.004951 337.402161,104.037445 
z"/>
<path fill="#FFFFFF" opacity="1.000000" stroke="none" 
	d="
M363.037415,748.597900 
	C354.671387,749.048279 346.272858,749.026611 337.402161,749.037476 
	C336.951752,740.671387 336.973419,732.272827 336.962585,723.402161 
	C345.376312,722.930054 353.822571,722.930054 363.004913,722.930054 
	C363.004913,731.403076 363.004913,739.764465 363.037415,748.597900 
z"/>
<path fill="#000000" opacity="1.000000" stroke="none" 
	d="
M336.962585,542.402100 
	C345.388916,541.930054 353.847778,541.930054 363.004944,541.930054 
	C363.004944,559.102112 363.004944,576.113953 363.037445,593.597839 
	C346.184235,594.069946 329.298523,594.069946 311.995056,594.069946 
	C311.995056,585.377625 311.995056,577.125916 311.962555,568.402161 
	C320.043671,567.930054 328.157288,567.930054 336.995087,567.930054 
	C336.995087,559.595703 336.995087,551.234985 336.962585,542.402100 
z"/>
<path fill="#000000" opacity="1.000000" stroke="none" 
	d="
M389.043030,670.965698 
	C380.615082,670.931396 372.150452,670.931396 363.342987,670.931396 
	C363.342987,662.851868 363.342987,654.794067 363.342987,646.367310 
	C371.554993,646.367310 380.059052,646.367310 388.995514,646.367310 
	C388.995514,654.278870 388.995514,662.203674 388.966522,670.600830 
	C388.937531,671.073242 389.006348,671.000061 389.043030,670.965698 
z"/>
<path fill="#000000" opacity="1.000000" stroke="none" 
	d="
M336.597870,490.962585 
	C337.048279,507.661957 337.026611,524.393860 337.037445,541.597900 
	C329.004730,542.048340 320.939514,542.026672 312.402161,542.037476 
	C311.930054,525.184998 311.930054,508.300018 311.930054,490.995087 
	C320.287537,490.995087 328.206665,490.995087 336.597870,490.962585 
z"/>
<path fill="#000000" opacity="1.000000" stroke="none" 
	d="
M363.037415,490.597870 
	C354.671387,491.048279 346.272858,491.026611 337.402161,491.037445 
	C336.930054,482.612274 336.930054,474.154602 336.930054,465.348633 
	C345.585876,465.348633 354.084198,465.348633 363.004913,465.348633 
	C363.004913,473.624084 363.004913,481.874939 363.037415,490.597870 
z"/>
<path fill="#000000" opacity="1.000000" stroke="none" 
	d="
M543.034302,388.043030 
	C543.068604,379.608154 543.068604,371.136597 543.068604,362.332642 
	C560.168396,362.332642 577.216492,362.332642 594.632690,362.332642 
	C594.632690,370.562592 594.632690,379.073822 594.632690,387.995514 
	C577.703796,387.995514 560.787720,387.995514 543.399170,387.966522 
	C542.926758,387.937531 542.999939,388.006348 543.034302,388.043030 
z"/>
<path fill="#000000" opacity="1.000000" stroke="none" 
	d="
M337.402161,362.037415 
	C336.951721,353.671387 336.973389,345.272858 336.962555,336.402161 
	C354.049133,335.930054 371.168213,335.930054 388.643585,335.930054 
	C388.643585,344.580780 388.643585,353.089294 388.643585,362.004913 
	C371.695862,362.004913 354.785034,362.004913 337.402161,362.037415 
z"/>
<path fill="#000000" opacity="1.000000" stroke="none" 
	d="
M416.230133,336.030396 
	C424.337646,336.003937 431.961395,336.003937 439.789581,336.003937 
	C439.789581,344.776031 439.789581,353.180084 439.789581,361.792358 
	C431.551514,361.792358 423.480774,361.792358 415.746399,361.792358 
	C415.746399,353.092285 415.746399,344.574554 416.230133,336.030396 
z"/>
<path fill="#000000" opacity="1.000000" stroke="none" 
	d="
M465.597839,181.962555 
	C466.048279,190.328613 466.026611,198.727158 466.037445,207.597839 
	C457.612274,208.069946 449.154602,208.069946 440.348633,208.069946 
	C440.348633,199.414139 440.348633,190.915802 440.348633,181.995056 
	C448.624084,181.995056 456.874939,181.995056 465.597839,181.962555 
z"/>
<path fill="#000000" opacity="1.000000" stroke="none" 
	d="
M389.402161,208.037445 
	C388.951721,199.671387 388.973389,191.272842 388.962555,182.402161 
	C397.387726,181.930054 405.845398,181.930054 414.651367,181.930054 
	C414.651367,190.585861 414.651367,199.084198 414.651367,208.004944 
	C406.375916,208.004944 398.125061,208.004944 389.402161,208.037445 
z"/>
<path fill="#000000" opacity="1.000000" stroke="none" 
	d="
M363.037415,207.597870 
	C354.671387,208.048264 346.272858,208.026596 337.402161,208.037445 
	C336.930054,199.623703 336.930054,191.177460 336.930054,181.995056 
	C345.403076,181.995056 353.764374,181.995056 362.597839,181.962555 
	C363.048248,190.328629 363.026581,198.727219 363.037415,207.597870 
z"/>
<path fill="#000000" opacity="1.000000" stroke="none" 
	d="
M389.037415,181.597870 
	C380.671387,182.048279 372.272858,182.026611 363.402161,182.037445 
	C362.930054,173.612274 362.930054,165.154602 362.930054,156.348618 
	C371.585876,156.348618 380.084229,156.348618 389.004913,156.348618 
	C389.004913,164.624100 389.004913,172.874954 389.037415,181.597870 
z"/>
<path fill="#000000" opacity="1.000000" stroke="none" 
	d="
M492.402161,491.037415 
	C491.951721,482.671387 491.973389,474.272858 491.962555,465.402161 
	C508.715942,464.930054 525.501831,464.930054 542.643799,464.930054 
	C542.643799,473.580841 542.643799,482.089142 542.643799,491.004913 
	C526.029480,491.004913 509.451874,491.004913 492.402161,491.037415 
z"/>
<path fill="#000000" opacity="1.000000" stroke="none" 
	d="
M596.226807,619.969849 
	C595.744019,611.543396 595.744019,603.143127 595.744019,594.368713 
	C603.450928,594.368713 611.859741,594.368713 620.635132,594.368713 
	C620.635132,602.455017 620.635132,610.864807 620.635132,619.996033 
	C612.870239,619.996033 604.789917,619.996033 596.226807,619.969849 
z"/>
<path fill="#010101" opacity="1.000000" stroke="none" 
	d="
M646.564575,96.000305 
	C646.564575,90.174591 646.564575,84.848877 646.564575,79.168060 
	C672.236328,79.168060 697.778687,79.168060 723.605469,79.168060 
	C723.605469,104.479668 723.605469,129.883514 723.605469,155.643875 
	C698.191040,155.643875 672.658936,155.643875 646.564575,155.643875 
	C646.564575,135.968750 646.564575,116.234520 646.564575,96.000305 
z"/>
<path fill="#000000" opacity="1.000000" stroke="none" 
	d="
M156.998245,84.078827 
	C156.998245,108.187309 156.998245,131.801971 156.998245,155.707138 
	C131.266769,155.707138 105.746529,155.707138 80.019791,155.707138 
	C80.019791,130.206512 80.019791,104.815048 80.019791,79.118637 
	C105.450928,79.118637 130.844467,79.118637 156.998245,79.118637 
	C156.998245,80.455269 156.998245,82.020149 156.998245,84.078827 
z"/>
<path fill="#010101" opacity="1.000000" stroke="none" 
	d="
M99.000397,645.567444 
	C118.477882,645.567444 137.455338,645.567444 156.715240,645.567444 
	C156.715240,671.264221 156.715240,696.818604 156.715240,722.630249 
	C131.263062,722.630249 105.871819,722.630249 80.147156,722.630249 
	C80.147156,697.107544 80.147156,671.588989 80.147156,645.567444 
	C86.296715,645.567444 92.398544,645.567444 99.000397,645.567444 
z"/>
</svg>