<svg version="1.1" id="Layer_1" xmlns="http://www.w3.org/2000/svg" xmlns:xlink="http://www.w3.org/1999/xlink" x="0px" y="0px"
	 width="100%" viewBox="0 0 800 800" enable-background="new 0 0 800 800" xml:space="preserve">
<path fill="#FFFFFF" opacity="1.000000" stroke="none" 
	d="
M1.000000,213.000000 
	C1.000000,142.000000 1.000000,71.500000 1.000000,1.000000 
	C267.666656,1.000000 534.333313,1.000000 801.000000,1.000000 
	C801.000000,267.666656 801.000000,534.333313 801.000000,801.000000 
	C534.333313,801.000000 267.666656,801.000000 1.000000,801.000000 
	C1.000000,605.166687 1.000000,409.333344 1.000000,213.000000 
M747.995483,334.128448 
	C747.995483,325.852417 747.995483,317.576416 747.995483,309.246246 
	C739.441162,309.246246 731.369873,309.246246 722.872131,309.246246 
	C722.872131,317.952332 722.872131,326.416351 721.956848,334.991669 
	C713.695618,334.991669 705.434387,334.991669 697.305176,334.991669 
	C697.305176,317.320831 697.305176,300.249359 697.305176,282.782837 
	C706.017456,282.782837 714.429565,282.782837 722.687988,282.782837 
	C722.687988,273.972870 722.687988,265.565857 722.687988,257.073334 
	C687.896545,257.073334 653.416992,257.073334 618.995483,256.128448 
	C618.995483,248.204132 618.995483,240.279816 618.995483,232.367371 
	C610.392944,232.367371 602.221985,232.367371 594.342407,232.367371 
	C594.342407,240.793640 594.342407,248.850952 594.342407,256.931458 
	C602.816345,256.931458 610.947937,256.931458 619.005737,257.874817 
	C619.005737,266.140320 619.005737,274.405823 619.005737,283.031616 
	C636.505676,283.031616 653.558716,283.031616 670.635864,283.031616 
	C670.635864,291.917480 670.635864,300.431000 670.635864,309.319702 
	C661.871826,309.319702 653.470459,309.319702 644.720703,309.319702 
	C644.720703,326.423431 644.720703,343.143646 644.720703,360.073334 
	C635.880981,360.073334 627.409241,360.073334 618.995483,359.128448 
	C618.995483,351.204132 618.995483,343.279785 618.995483,335.367371 
	C610.393433,335.367371 602.221863,335.367371 594.342407,335.367371 
	C594.342407,343.793640 594.342407,351.850922 594.342407,359.931458 
	C602.816284,359.931458 610.947937,359.931458 619.005737,360.874817 
	C619.029114,369.272888 619.052429,377.670959 618.130554,386.004974 
	C610.211365,386.004974 602.292236,386.004974 594.348938,386.004974 
	C594.348938,394.916412 594.348938,403.414459 594.348938,411.930908 
	C602.823730,411.930908 610.949707,411.930908 619.005432,412.874573 
	C619.005432,421.124969 619.005432,429.375366 619.005432,438.158569 
	C610.424683,438.158569 602.245605,438.158569 594.075806,438.158569 
	C594.075806,447.155029 594.075806,455.612030 593.130554,464.004974 
	C584.728455,464.026337 576.326416,464.047729 567.994568,463.125427 
	C567.994568,454.763763 567.994568,446.402130 567.994568,438.069092 
	C558.818604,438.069092 550.371460,438.069092 541.994568,437.125427 
	C541.994568,428.855652 541.994568,420.585876 541.994568,411.933868 
	C533.134583,411.933868 524.728821,411.933868 516.222412,411.933868 
	C516.222412,403.143402 516.222412,394.745056 516.222412,385.957764 
	C524.840271,385.957764 533.246399,385.957764 542.030029,385.957764 
	C542.030029,377.171875 542.030029,368.765717 542.030029,359.981689 
	C550.815552,359.981689 559.220825,359.981689 567.645569,359.981689 
	C567.645569,334.086792 567.645569,308.584320 567.645569,282.694061 
	C558.887512,282.694061 550.483887,282.694061 542.342285,282.694061 
	C542.342285,273.898376 542.342285,265.495819 542.342285,256.717957 
	C551.087524,256.717957 559.492615,256.717957 567.669067,256.717957 
	C567.669067,248.255554 567.669067,240.186859 567.669067,232.075836 
	C550.202515,232.075836 533.066772,232.075836 515.994995,231.130539 
	C515.994995,214.219955 515.994995,197.309372 515.994995,180.353668 
	C507.094971,180.353668 498.586456,180.353668 489.708679,180.353668 
	C489.708679,189.101746 489.708679,197.497055 489.708679,206.069000 
	C481.195648,206.069000 473.059906,206.069000 464.994568,205.125351 
	C464.994568,188.197769 464.994568,171.270172 464.994568,153.976929 
	C490.829987,153.976929 516.216187,153.976929 541.632874,153.976929 
	C541.632874,145.085938 541.632874,136.568985 541.632874,127.670242 
	C532.861877,127.670242 524.456421,127.670242 515.681213,127.670242 
	C515.681213,119.208076 515.681213,111.136276 515.681213,103.348907 
	C506.885284,103.348907 498.482452,103.348907 489.704956,103.348907 
	C489.704956,111.767960 489.704956,119.840149 489.704956,128.273041 
	C472.587219,128.273041 455.859009,128.273041 438.749786,128.273041 
	C438.749786,137.055084 438.749786,145.460724 438.749786,154.075882 
	C429.883820,154.075882 421.407410,154.075882 412.995026,153.130600 
	C412.995026,144.767380 412.995026,136.404144 412.995026,128.069031 
	C403.820160,128.069031 395.372162,128.069031 386.994568,127.125389 
	C386.994568,119.187325 386.994568,111.249260 386.994568,102.927399 
	C395.871063,102.927399 404.277954,102.927399 413.055878,102.927399 
	C413.055878,85.475052 413.055878,68.411301 413.055878,51.215954 
	C421.840729,51.215954 430.240326,51.215954 439.022888,51.215954 
	C439.022888,68.490906 439.022888,85.555161 439.022888,102.800323 
	C447.806793,102.800323 456.206268,102.800323 464.998352,102.800323 
	C464.998352,94.205383 464.998352,85.798508 464.998352,77.009109 
	C473.453033,77.009109 481.527832,77.009109 489.643829,77.009109 
	C489.643829,59.434872 489.643829,42.256046 489.643829,25.318350 
	C446.576355,25.318350 403.865356,25.318350 361.075836,25.318350 
	C361.075836,34.113815 361.075836,42.591412 360.130524,51.004993 
	C352.192261,51.004993 344.254028,51.004993 335.932220,51.004993 
	C335.932220,42.133804 335.932220,33.727013 335.932220,25.199163 
	C301.491516,25.199163 267.443390,25.199163 233.197784,25.199163 
	C233.197784,33.797344 233.197784,42.196548 233.197784,51.147175 
	C258.894257,51.147175 284.404663,51.147175 309.655243,51.147175 
	C309.655243,60.104553 309.655243,68.508278 309.655243,77.279602 
	C292.248260,77.279602 275.184631,77.279602 258.327209,77.279602 
	C258.327209,86.068298 258.327209,94.471046 258.327209,103.252991 
	C267.057343,103.252991 275.464203,103.252991 284.244690,103.252991 
	C284.244690,111.715088 284.244690,119.789001 284.244690,127.924088 
	C293.114349,127.924088 301.591644,127.924088 310.004974,128.869385 
	C310.004974,137.232620 310.004974,145.595840 310.004974,153.931000 
	C319.179840,153.931000 327.627838,153.931000 336.005432,154.874649 
	C336.028931,171.939407 336.052429,189.004181 335.130585,206.004990 
	C326.728455,206.026321 318.326294,206.047668 309.994568,205.125366 
	C309.994568,196.764023 309.994568,188.402695 309.994568,180.075882 
	C300.822693,180.075882 292.376862,180.075882 283.995026,179.130600 
	C283.995026,170.878525 283.995026,162.626434 283.995026,154.349548 
	C275.084229,154.349548 266.585083,154.349548 258.069000,154.349548 
	C258.069000,163.157898 258.069000,171.616882 257.125336,180.005447 
	C249.195526,180.005447 241.265717,180.005447 233.362946,180.005447 
	C233.362946,197.613831 233.362946,214.775696 233.362946,232.312943 
	C241.789703,232.312943 249.854996,232.312943 258.281281,232.312943 
	C258.281281,240.756851 258.281281,248.822388 258.281281,256.924164 
	C267.130859,256.924164 275.599945,256.924164 284.004974,257.869446 
	C284.026337,266.271576 284.047668,274.673737 283.125366,283.005463 
	C266.393921,283.028961 249.662491,283.052460 232.995026,282.130585 
	C232.995026,273.768982 232.995026,265.407379 232.995026,257.073456 
	C223.827606,257.073456 215.382492,257.073456 206.995407,256.128540 
	C206.995407,248.203827 206.995407,240.279099 206.995407,232.367325 
	C198.059616,232.367325 189.555222,232.367325 181.343033,232.367325 
	C181.343033,240.793930 181.343033,248.851685 181.343033,256.931580 
	C190.150375,256.931580 198.614944,256.931580 207.005707,257.874939 
	C207.026810,266.275238 207.047913,274.675537 206.125351,283.005432 
	C189.207184,283.005432 172.289001,283.005432 154.830719,283.005432 
	C154.830719,265.747681 154.830719,248.906860 154.830719,232.326233 
	C137.569077,232.326233 120.851494,232.326233 103.920120,232.326233 
	C103.920120,240.790298 103.920120,248.928879 103.993431,256.998810 
	C103.993431,256.998810 104.062218,256.925629 103.119354,256.994873 
	C94.723251,257.021881 86.327141,257.048889 77.995010,256.130585 
	C77.995010,248.197800 77.995010,240.265030 77.995010,232.197144 
	C60.830536,232.197144 44.114826,232.197144 27.326477,232.197144 
	C27.326477,257.884125 27.326477,283.372711 27.326477,308.924164 
	C35.791317,308.924164 43.930164,308.924164 52.004990,309.869476 
	C52.004990,318.121521 52.004990,326.373596 52.004990,334.650482 
	C60.916119,334.650482 69.414856,334.650482 77.930939,334.650482 
	C77.930939,325.842133 77.930939,317.383179 78.874596,308.994568 
	C87.141174,308.994568 95.407753,308.994568 104.052406,308.994568 
	C104.052406,317.852417 104.052406,326.255219 104.052406,335.031555 
	C112.497620,335.031555 120.567886,335.031555 128.801010,335.031555 
	C128.801010,343.480774 128.801010,351.542938 128.801010,360.167908 
	C120.422859,360.167908 112.227623,360.167908 104.355057,360.167908 
	C104.355057,369.133087 104.355057,377.533447 104.355057,385.924072 
	C130.162994,385.924072 155.615967,385.924072 181.004974,386.869415 
	C181.004974,395.232635 181.004974,403.595856 181.004974,411.931000 
	C190.179871,411.931000 198.627869,411.931000 207.005447,412.874664 
	C207.028931,421.272766 207.052414,429.670868 206.130600,438.004974 
	C197.768173,438.004974 189.405746,438.004974 181.075882,438.004974 
	C181.075882,447.176056 181.075882,455.622498 180.130600,464.004974 
	C171.728439,464.026306 163.326279,464.047668 154.994553,463.125336 
	C154.994553,446.192200 154.994553,429.259064 154.994553,411.954529 
	C120.482269,411.954529 86.425735,411.954529 52.208450,411.954529 
	C52.208450,403.177429 52.208450,394.776520 52.208450,385.981537 
	C60.814342,385.981537 69.223358,385.981537 77.795204,385.981537 
	C77.795204,377.185455 77.795204,368.784607 77.795204,360.196655 
	C60.860420,360.196655 44.130413,360.196655 27.326214,360.196655 
	C27.326214,429.215637 27.326214,498.037537 27.326214,566.682007 
	C44.385357,566.682007 61.116985,566.682007 78.237152,566.682007 
	C78.237152,557.959778 78.237152,549.551208 78.237152,541.080566 
	C87.110321,541.080566 95.589096,541.080566 103.999245,541.007202 
	C103.999245,541.007202 103.926025,540.938416 103.994858,541.881226 
	C103.994858,550.144287 103.994858,558.407349 103.994858,566.668579 
	C138.595322,566.668579 172.733307,566.668579 206.931015,566.668579 
	C206.931015,557.866272 206.931015,549.395264 207.874680,540.994568 
	C216.138321,540.994568 224.401962,540.994568 233.197449,540.994568 
	C233.197449,558.614136 233.197449,575.784058 233.197449,592.924194 
	C259.180908,592.924194 284.624969,592.924194 310.004974,593.869446 
	C310.028595,601.935974 310.052216,610.002502 309.130585,618.005005 
	C292.116669,618.005005 275.102753,618.005005 258.069092,618.005005 
	C258.069092,627.155457 258.069092,635.615601 257.125427,644.005432 
	C249.197647,644.005432 241.269852,644.005432 233.353333,644.005432 
	C233.353333,661.603149 233.353333,678.760498 233.353333,696.290649 
	C241.767670,696.290649 249.830948,696.290649 257.919067,696.290649 
	C257.919067,705.134949 257.919067,713.601685 257.992432,721.999756 
	C257.992432,721.999756 258.061218,721.926575 257.118408,721.994873 
	C249.179703,721.994873 241.240997,721.994873 233.232910,721.994873 
	C233.232910,739.213257 233.232910,755.943359 233.232910,772.788452 
	C267.520630,772.788452 301.575226,772.788452 335.796631,772.788452 
	C335.796631,755.846619 335.796631,739.116699 335.796631,721.992249 
	C327.196381,721.992249 318.788177,721.992249 310.199158,721.992249 
	C310.199158,713.196533 310.199158,704.795654 310.199158,696.360962 
	C335.910583,696.360962 361.421112,696.360962 387.310486,696.360962 
	C387.310486,722.115967 387.310486,747.510559 387.310486,772.675049 
	C421.748505,772.675049 455.804077,772.675049 490.250916,772.675049 
	C490.250916,763.945801 490.250916,755.537476 490.250916,746.924133 
	C507.786469,746.924133 524.927734,746.924133 542.005005,747.869446 
	C542.005005,756.121521 542.005005,764.373596 542.005005,772.650513 
	C550.915771,772.650513 559.414917,772.650513 567.931030,772.650513 
	C567.931030,763.842102 567.931030,755.383118 568.874695,746.994507 
	C577.145386,746.994507 585.416077,746.994507 594.070435,746.994507 
	C594.070435,755.869080 594.070435,764.275696 594.070435,772.800293 
	C628.510620,772.800293 662.558350,772.800293 697.165771,772.800293 
	C697.165771,755.756653 697.165771,738.904114 697.165771,722.358276 
	C706.132080,722.358276 714.536560,722.358276 723.315796,722.358276 
	C723.315796,730.788513 723.315796,738.862000 723.315796,746.649963 
	C731.781494,746.649963 739.852478,746.649963 748.298950,746.649963 
	C748.298950,738.228699 748.298950,730.156189 748.298950,721.709656 
	C757.095642,721.709656 765.502197,721.709656 773.663208,721.709656 
	C773.663208,712.912048 773.663208,704.508972 773.663208,695.727905 
	C764.922974,695.727905 756.516418,695.727905 747.746033,695.727905 
	C747.746033,678.274109 747.746033,661.210754 747.746033,644.075867 
	C739.219360,644.075867 731.075195,644.075867 722.994995,643.130554 
	C722.994995,634.767334 722.994995,626.404114 722.994995,618.068970 
	C713.820190,618.068970 705.372131,618.068970 696.994507,617.125305 
	C697.023499,609.060547 697.052490,600.995789 697.008118,592.999634 
	C697.008118,592.999634 696.939331,593.072815 697.882080,593.005066 
	C706.150452,593.005066 714.418884,593.005066 723.068481,593.005066 
	C723.068481,584.131836 723.068481,575.726807 723.068481,567.222595 
	C731.524414,567.222595 739.589050,567.222595 748.041626,567.222595 
	C748.041626,575.840027 748.041626,584.245422 748.041626,592.791199 
	C756.829712,592.791199 765.227234,592.791199 773.667542,592.791199 
	C773.667542,549.763489 773.667542,506.945404 773.667542,464.075836 
	C756.533813,464.075836 739.732361,464.075836 722.994995,463.130585 
	C722.994995,446.197144 722.994995,429.263733 722.994995,411.939575 
	C731.524231,411.939575 739.599976,411.939575 747.774536,411.939575 
	C747.774536,403.142548 747.774536,394.741669 747.774536,385.947937 
	C739.484070,385.947937 731.408203,385.947937 722.719849,385.947937 
	C722.719849,368.619324 722.719849,351.682617 723.712830,334.980835 
	C731.835083,334.964386 739.957275,334.947937 748.005737,335.874817 
	C748.005737,343.798065 748.005737,351.721313 748.005737,359.635406 
	C756.938538,359.635406 765.442261,359.635406 773.661072,359.635406 
	C773.661072,351.212555 773.661072,343.155853 773.661072,335.073334 
	C764.860657,335.073334 756.399048,335.073334 747.995483,334.128448 
M541.125427,51.005730 
	C532.849976,51.005730 524.574524,51.005730 516.246704,51.005730 
	C516.246704,59.893627 516.246704,68.298103 516.246704,77.127045 
	C524.953918,77.127045 533.417603,77.127045 541.991760,78.042534 
	C541.991760,86.286819 541.991760,94.531105 541.991760,102.742493 
	C550.948792,102.742493 559.337769,102.742493 567.763855,102.742493 
	C567.763855,94.095016 567.763855,85.706825 567.763855,77.279343 
	C558.934448,77.279343 550.340576,77.279343 541.980957,76.286491 
	C541.962952,67.836861 541.944946,59.387226 542.871765,50.995426 
	C551.129272,50.995426 559.386780,50.995426 567.632568,50.995426 
	C567.632568,42.060291 567.632568,33.555576 567.632568,25.342556 
	C558.873230,25.342556 550.482849,25.342556 542.068787,25.342556 
	C542.068787,34.149837 542.068787,42.614788 541.125427,51.005730 
M593.964294,132.500000 
	C593.964294,156.756271 593.964294,181.012543 593.964294,205.387695 
	C654.225281,205.387695 713.939575,205.387695 773.635498,205.387695 
	C773.635498,145.297760 773.635498,85.465378 773.635498,25.743996 
	C713.567139,25.743996 653.870117,25.743996 593.964294,25.743996 
	C593.964294,61.226467 593.964294,96.363235 593.964294,132.500000 
M26.992897,64.500000 
	C26.992897,111.414291 26.992897,158.328583 26.992897,205.307083 
	C87.194786,205.307083 146.891327,205.307083 206.570999,205.307083 
	C206.570999,145.257111 206.570999,85.546280 206.570999,25.721268 
	C146.587265,25.721268 86.895065,25.721268 26.992897,25.721268 
	C26.992897,38.529907 26.992897,51.014954 26.992897,64.500000 
M123.500000,773.003174 
	C151.232956,773.003174 178.965897,773.003174 206.527298,773.003174 
	C206.527298,712.542786 206.527298,652.821899 206.527298,593.082764 
	C146.609360,593.082764 87.021362,593.082764 27.297985,593.082764 
	C27.297985,653.114197 27.297985,712.962952 27.297985,773.003174 
	C59.232567,773.003174 90.866287,773.003174 123.500000,773.003174 
M755.559937,282.999939 
	C761.654297,282.999939 767.748718,282.999939 773.690796,282.999939 
	C773.690796,265.643860 773.690796,248.906845 773.690796,232.311691 
	C764.972351,232.311691 756.565979,232.311691 748.312378,232.311691 
	C748.312378,249.361588 748.312378,266.098328 748.312378,282.999939 
	C750.607971,282.999939 752.592163,282.999939 755.559937,282.999939 
M567.999634,182.677765 
	C567.221924,181.785721 566.463135,180.138748 565.663635,180.118713 
	C557.889282,179.923996 550.108154,180.001633 542.230469,180.001633 
	C542.230469,188.861771 542.230469,197.265579 542.230469,205.767166 
	C550.866516,205.767166 559.270386,205.767166 567.999939,205.767166 
	C567.999939,198.243439 567.999939,190.947601 567.999634,182.677765 
z"/>
<path fill="#000000" opacity="1.000000" stroke="none" 
	d="
M310.069031,592.924194 
	C284.624969,592.924194 259.180908,592.924194 233.197449,592.924194 
	C233.197449,575.784058 233.197449,558.614136 233.197449,540.994568 
	C224.401962,540.994568 216.138321,540.994568 207.437317,540.996094 
	C206.999939,540.997620 207.069946,541.069946 207.037445,540.597900 
	C207.004944,531.764465 207.004944,523.403137 207.004944,514.930054 
	C197.822525,514.930054 189.376282,514.930054 180.965027,514.965027 
	C181.000000,515.000000 181.069946,515.069946 181.037445,514.597839 
	C181.026611,505.727173 181.048279,497.328613 181.034973,488.965027 
	C181.000000,489.000000 180.930054,489.069946 181.402130,489.037415 
	C190.234772,489.004913 198.595337,489.004913 207.069946,489.004913 
	C207.069946,480.157349 207.069946,472.043701 207.034973,463.965027 
	C207.000000,464.000000 206.930054,464.069946 207.402130,464.037415 
	C224.475647,464.004913 241.077072,464.004913 258.064575,464.004913 
	C258.064575,481.197998 258.064575,497.933105 258.064575,514.773560 
	C266.858032,514.773560 275.259705,514.773560 284.000000,514.773560 
	C284.000000,513.090088 284.004883,511.628540 283.999298,510.167053 
	C283.907043,486.026764 283.813538,461.886505 284.216766,437.863586 
	C293.114105,437.980957 301.514954,437.980957 309.926666,437.980957 
	C309.926666,420.185211 309.926666,403.061340 310.399109,385.966492 
	C319.129150,385.995514 327.386719,385.995514 335.632690,385.995514 
	C335.632690,377.060394 335.632690,368.555603 335.632690,360.342407 
	C326.873383,360.342407 318.482971,360.342407 310.068542,360.342407 
	C310.068542,369.149658 310.068542,377.614655 309.596863,386.042633 
	C300.765656,386.005615 292.406097,386.005615 283.872589,386.005615 
	C283.872589,403.777710 283.872589,420.829224 283.414886,437.936157 
	C257.614807,437.971100 232.272430,437.950562 206.966248,437.965027 
	C207.002457,438.000031 207.075882,438.068970 207.075882,438.068970 
	C207.052414,429.670868 207.028931,421.272766 207.003937,412.437317 
	C207.002441,411.999939 206.930054,412.069946 207.402130,412.037415 
	C224.457855,412.004913 241.041489,412.004913 257.806671,412.004913 
	C257.806671,403.191925 257.806671,394.799316 257.806671,385.847321 
	C249.437271,385.847321 241.244553,385.847321 233.341736,385.847321 
	C233.341736,376.888702 233.341736,368.491608 233.341736,359.726868 
	C241.747849,359.726868 249.814819,359.726868 258.069946,359.726868 
	C258.069946,351.206268 258.069946,343.068176 258.034973,334.965027 
	C258.000000,335.000000 257.930054,335.069946 258.402191,335.037445 
	C292.887115,335.004944 326.899872,335.004944 361.292175,335.004944 
	C361.292175,343.766968 361.292175,351.833893 361.292175,360.266541 
	C370.074066,360.266541 378.474579,360.266541 387.073334,360.266541 
	C387.073334,369.120483 387.073334,377.591492 386.600891,386.033508 
	C377.767273,386.004486 369.406097,386.004486 361.073334,386.004486 
	C361.073334,395.172729 361.073334,403.617615 360.600891,412.033508 
	C352.203705,412.004486 344.278931,412.004486 336.367310,412.004486 
	C336.367310,420.940430 336.367310,429.444824 336.367310,437.657013 
	C344.794098,437.657013 352.851837,437.657013 360.931458,437.657013 
	C360.931458,428.849548 360.931458,420.384949 361.403137,411.957367 
	C370.115173,411.994385 378.355530,411.994385 386.931458,411.994385 
	C386.931458,403.054779 386.931458,394.487579 387.403137,385.957367 
	C396.143494,385.994385 404.412201,385.994385 413.201965,385.994385 
	C413.201965,351.376465 413.201965,317.215485 413.201965,283.345947 
	C430.790466,283.345947 447.848694,283.345947 465.287598,283.345947 
	C465.287598,292.093872 465.287598,300.498322 465.287598,309.272888 
	C473.745270,309.272888 481.817078,309.272888 490.073334,309.272888 
	C490.073334,326.462280 490.073334,343.262390 489.600891,360.033508 
	C472.540375,360.004486 455.952301,360.004486 439.362183,360.004486 
	C439.362183,377.597412 439.362183,394.766693 439.362183,411.649048 
	C448.125916,411.649048 456.525604,411.649048 465.293945,411.649048 
	C465.293945,402.898346 465.293945,394.496857 465.293945,385.727905 
	C473.745819,385.727905 481.814728,385.727905 489.931458,385.727905 
	C489.931458,376.868134 489.931458,368.394226 490.403137,359.957367 
	C499.138885,359.994385 507.402985,359.994385 516.069946,359.994385 
	C516.069946,317.008667 516.069946,274.469360 516.034912,231.966217 
	C515.999939,232.002396 515.930969,232.075836 515.930969,232.075836 
	C533.066772,232.075836 550.202515,232.075836 567.669067,232.075836 
	C567.669067,240.186859 567.669067,248.255554 567.669067,256.717957 
	C559.492615,256.717957 551.087524,256.717957 542.342285,256.717957 
	C542.342285,265.495819 542.342285,273.898376 542.342285,282.694061 
	C550.483887,282.694061 558.887512,282.694061 567.645569,282.694061 
	C567.645569,308.584320 567.645569,334.086792 567.645569,359.981689 
	C559.220825,359.981689 550.815552,359.981689 542.030029,359.981689 
	C542.030029,368.765717 542.030029,377.171875 542.030029,385.957764 
	C533.246399,385.957764 524.840271,385.957764 516.222412,385.957764 
	C516.222412,394.745056 516.222412,403.143402 516.222412,411.933868 
	C524.728821,411.933868 533.134583,411.933868 541.994568,411.933868 
	C541.994568,420.585876 541.994568,428.855652 541.996094,437.562805 
	C541.997681,438.000183 542.069946,437.930054 541.597900,437.962585 
	C507.125549,437.995087 473.125305,437.995087 439.075867,437.995087 
	C439.075867,447.132294 439.075867,455.600677 438.603210,464.036957 
	C429.728455,464.026276 421.326294,464.047668 412.959412,463.597229 
	C412.994659,454.874146 412.994659,446.622925 412.994659,438.350037 
	C404.081818,438.350037 395.583405,438.350037 387.069061,438.350037 
	C387.069061,447.158600 387.069061,455.617218 386.597229,464.040588 
	C360.873840,464.005341 335.622253,464.005341 310.191803,464.005341 
	C310.191803,481.143829 310.191803,497.867035 310.191803,514.638794 
	C318.904968,514.638794 327.421295,514.638794 336.318604,514.638794 
	C336.318604,505.874481 336.318604,497.470306 336.318604,489.347473 
	C344.779602,489.347473 352.848938,489.347473 361.291016,489.347473 
	C361.291016,498.097321 361.291016,506.502136 361.291016,514.678589 
	C378.739899,514.678589 395.797943,514.678589 412.924133,514.678589 
	C412.924133,505.881958 412.924133,497.406464 413.396790,488.963013 
	C422.271545,488.973694 430.673706,488.952301 439.040588,489.402771 
	C439.005341,506.789185 439.005341,523.703796 439.005341,540.654419 
	C456.241486,540.654419 473.071686,540.654419 490.278748,540.654419 
	C490.278748,531.912476 490.278748,523.513855 490.278748,514.924133 
	C499.129150,514.924133 507.599060,514.924133 516.036926,515.396790 
	C516.004883,524.133972 516.004883,532.398499 516.004883,540.651978 
	C542.268799,540.651978 568.087280,540.651978 594.069946,540.651978 
	C594.069946,523.179443 594.069946,506.054749 594.034973,488.965027 
	C594.000000,489.000000 593.930054,489.069946 594.402100,489.037445 
	C602.939392,489.026611 611.004700,489.048279 619.034973,489.034973 
	C619.000000,489.000000 618.930054,488.930054 618.962524,489.402130 
	C618.995056,498.139862 618.995056,506.405487 618.995056,514.657349 
	C653.936584,514.657349 688.415283,514.657349 723.069946,514.657349 
	C723.069946,497.520020 723.069946,480.725037 723.034912,463.966217 
	C722.999939,464.002380 722.930969,464.075836 722.930969,464.075836 
	C739.732361,464.075836 756.533813,464.075836 773.667542,464.075836 
	C773.667542,506.945404 773.667542,549.763489 773.667542,592.791199 
	C765.227234,592.791199 756.829712,592.791199 748.041626,592.791199 
	C748.041626,584.245422 748.041626,575.840027 748.041626,567.222595 
	C739.589050,567.222595 731.524414,567.222595 723.068481,567.222595 
	C723.068481,575.726807 723.068481,584.131836 723.068481,593.005066 
	C714.418884,593.005066 706.150452,593.005066 697.438843,592.566528 
	C696.995667,575.211853 696.995667,558.295654 696.995667,541.367920 
	C688.073303,541.367920 679.562195,541.367920 671.333252,541.367920 
	C671.333252,558.784607 671.333252,575.832764 671.333252,592.931030 
	C680.138000,592.931030 688.609741,592.931030 697.081543,592.931030 
	C697.052490,600.995789 697.023499,609.060547 696.996033,617.562622 
	C696.997559,618.000000 697.069946,617.930054 696.597900,617.962524 
	C687.874939,617.995056 679.624084,617.995056 671.348633,617.995056 
	C671.348633,626.915833 671.348633,635.414124 671.348633,644.069946 
	C680.154480,644.069946 688.612244,644.069946 697.034973,644.034973 
	C697.000000,644.000000 696.930054,643.930054 696.962524,644.402100 
	C696.995056,653.125061 696.995056,661.375916 696.995056,669.651367 
	C705.915833,669.651367 714.414124,669.651367 723.069946,669.651367 
	C723.069946,660.845520 723.069946,652.387756 723.034973,643.966248 
	C723.000000,644.002441 722.931030,644.075867 722.931030,644.075867 
	C731.075195,644.075867 739.219360,644.075867 747.746033,644.075867 
	C747.746033,661.210754 747.746033,678.274109 747.746033,695.727905 
	C756.516418,695.727905 764.922974,695.727905 773.663208,695.727905 
	C773.663208,704.508972 773.663208,712.912048 773.663208,721.709656 
	C765.502197,721.709656 757.095642,721.709656 748.298950,721.709656 
	C748.298950,730.156189 748.298950,738.228699 748.298950,746.649963 
	C739.852478,746.649963 731.781494,746.649963 723.315796,746.649963 
	C723.315796,738.862000 723.315796,730.788513 723.315796,722.358276 
	C714.536560,722.358276 706.132080,722.358276 697.165771,722.358276 
	C697.165771,738.904114 697.165771,755.756653 697.165771,772.800293 
	C662.558350,772.800293 628.510620,772.800293 594.070435,772.800293 
	C594.070435,764.275696 594.070435,755.869080 594.070435,746.994507 
	C585.416077,746.994507 577.145386,746.994507 568.437378,746.996033 
	C568.000000,746.997559 568.069946,747.069946 568.037476,746.597900 
	C568.004944,738.207214 568.004944,730.288696 568.004944,721.926697 
	C585.296448,721.926697 602.179565,721.926697 619.033569,722.399109 
	C619.004456,730.807251 619.004456,738.742981 619.004456,746.788940 
	C636.519287,746.788940 653.574341,746.788940 670.645325,746.788940 
	C670.645325,721.077820 670.645325,695.579407 670.645325,670.346680 
	C661.887146,670.346680 653.485657,670.346680 644.724243,670.346680 
	C644.724243,687.750488 644.724243,704.809082 644.724243,722.068542 
	C635.872742,722.068542 627.396606,722.068542 618.957397,721.596924 
	C618.994385,704.111145 618.994385,687.096985 618.994385,669.872314 
	C592.905945,669.872314 567.512817,669.872314 542.064026,669.414673 
	C542.008362,660.699707 542.008362,652.442444 542.008362,643.811340 
	C524.341736,643.811340 507.275330,643.811340 490.285522,643.811340 
	C490.285522,635.019043 490.285522,626.617004 490.285522,617.828125 
	C498.972839,617.828125 507.380829,617.828125 516.167236,617.828125 
	C516.167236,609.365356 516.167236,601.290466 516.167236,592.837463 
	C524.963257,592.837463 533.371155,592.837463 541.724060,592.837463 
	C541.724060,584.038696 541.724060,575.636780 541.724060,567.259766 
	C516.055542,567.259766 490.663818,567.259766 464.893402,567.259766 
	C464.893402,592.910767 464.893402,618.304626 464.893402,644.088013 
	C456.113464,644.088013 447.705292,644.088013 439.238678,644.088013 
	C439.238678,652.885193 439.238678,661.286072 439.238678,670.078125 
	C447.876343,670.078125 456.283264,670.078125 465.073242,670.078125 
	C465.073242,678.871399 465.073242,687.279297 465.073242,696.068604 
	C473.532928,696.068604 481.606873,696.068604 490.063965,696.068604 
	C490.063965,704.861694 490.063965,713.269958 490.063965,721.773315 
	C498.860382,721.773315 507.261108,721.773315 516.047119,721.773315 
	C516.047119,704.485229 516.047119,687.419373 516.047119,669.719910 
	C525.037598,669.719910 533.645874,669.719910 542.136597,670.216431 
	C541.989380,696.165283 541.959717,721.617615 541.965027,747.033752 
	C542.000000,746.997559 542.068970,746.924133 542.068970,746.924133 
	C524.927734,746.924133 507.786469,746.924133 490.250916,746.924133 
	C490.250916,755.537476 490.250916,763.945801 490.250916,772.675049 
	C455.804077,772.675049 421.748505,772.675049 387.310486,772.675049 
	C387.310486,747.510559 387.310486,722.115967 387.310486,696.360962 
	C361.421112,696.360962 335.910583,696.360962 310.199158,696.360962 
	C310.199158,704.795654 310.199158,713.196533 310.199158,721.992249 
	C318.788177,721.992249 327.196381,721.992249 335.796631,721.992249 
	C335.796631,739.116699 335.796631,755.846619 335.796631,772.788452 
	C301.575226,772.788452 267.520630,772.788452 233.232910,772.788452 
	C233.232910,755.943359 233.232910,739.213257 233.232910,721.994873 
	C241.240997,721.994873 249.179703,721.994873 257.561401,722.433167 
	C258.004395,730.796326 258.004395,738.721130 258.004395,746.632446 
	C266.941040,746.632446 275.445068,746.632446 283.656677,746.632446 
	C283.656677,738.205383 283.656677,730.147583 283.656677,722.068420 
	C274.848724,722.068420 266.383911,722.068420 257.919067,722.068420 
	C257.919067,713.601685 257.919067,705.134949 257.919067,696.290649 
	C249.830948,696.290649 241.767670,696.290649 233.353333,696.290649 
	C233.353333,678.760498 233.353333,661.603149 233.353333,644.005432 
	C241.269852,644.005432 249.197647,644.005432 257.562805,644.003906 
	C258.000183,644.002319 257.930054,643.930054 257.962585,644.402100 
	C257.995087,653.131653 257.995087,661.389038 257.995087,669.661133 
	C275.585938,669.661133 292.737152,669.661133 310.069946,669.661133 
	C310.069946,660.858521 310.069946,652.394287 310.034973,643.965027 
	C310.000000,644.000000 309.930054,644.069946 310.402161,644.037476 
	C336.121246,644.004944 361.368256,644.004944 387.000427,644.004944 
	C387.000427,652.798523 387.000427,661.201660 387.000427,669.639038 
	C395.907593,669.639038 404.422363,669.639038 412.676086,669.639038 
	C412.676086,643.898621 412.676086,618.519653 412.676086,592.930054 
	C403.878632,592.930054 395.404327,592.930054 386.965027,592.965027 
	C387.000000,593.000000 387.069946,593.069946 387.037415,592.597900 
	C387.004913,583.861084 387.004913,575.596375 387.004913,566.973389 
	C369.832245,566.973389 353.113770,566.973389 335.841125,566.973389 
	C335.841125,558.097656 335.841125,549.572021 335.841125,541.345947 
	C326.881409,541.345947 318.483398,541.345947 309.930054,541.345947 
	C309.930054,558.817810 309.930054,575.943848 309.965088,593.033813 
	C310.000122,592.997620 310.069031,592.924194 310.069031,592.924194 
M645.000000,587.500122 
	C645.000000,580.734497 645.000000,573.968872 645.000000,567.287720 
	C619.020752,567.287720 593.618103,567.287720 568.287720,567.287720 
	C568.287720,592.979187 568.287720,618.381897 568.287720,643.712280 
	C593.979187,643.712280 619.381836,643.712280 645.000000,643.712280 
	C645.000000,625.117004 645.000000,606.808594 645.000000,587.500122 
M424.512421,696.000000 
	C420.742493,696.000000 416.972534,696.000000 413.283722,696.000000 
	C413.283722,704.972900 413.283722,713.376953 413.283722,721.715454 
	C421.974518,721.715454 430.378601,721.715454 438.714691,721.715454 
	C438.714691,713.023865 438.714691,704.619751 438.714691,696.000000 
	C434.121887,696.000000 429.812469,696.000000 424.512421,696.000000 
z"/>
<path fill="#000000" opacity="1.000000" stroke="none" 
	d="
M206.965485,540.960938 
	C206.931015,549.395264 206.931015,557.866272 206.931015,566.668579 
	C172.733307,566.668579 138.595322,566.668579 103.994858,566.668579 
	C103.994858,558.407349 103.994858,550.144287 104.432961,541.438416 
	C112.814217,540.995605 120.757370,540.995605 128.754028,540.995605 
	C128.754028,532.108215 128.754028,523.703552 128.754028,514.871948 
	C120.380981,514.871948 112.250496,514.871948 104.064224,514.414307 
	C104.008438,497.321564 104.008438,480.686432 104.008438,464.073669 
	C94.824585,464.073669 86.380875,464.073669 77.966324,463.601196 
	C77.995491,454.871124 77.995491,446.613525 77.995491,438.367126 
	C69.060547,438.367126 60.555672,438.367126 52.342278,438.367126 
	C52.342278,447.126404 52.342278,455.516937 52.342278,463.931793 
	C61.149376,463.931793 69.614334,463.931793 78.042450,464.403473 
	C78.005608,481.468323 78.005608,498.061493 78.005608,514.719604 
	C87.047142,514.719604 95.650833,514.719604 104.136810,515.216064 
	C104.035355,524.168518 104.051613,532.624573 104.067871,541.080566 
	C95.589096,541.080566 87.110321,541.080566 78.237152,541.080566 
	C78.237152,549.551208 78.237152,557.959778 78.237152,566.682007 
	C61.116985,566.682007 44.385357,566.682007 27.326214,566.682007 
	C27.326214,498.037537 27.326214,429.215637 27.326214,360.196655 
	C44.130413,360.196655 60.860420,360.196655 77.795204,360.196655 
	C77.795204,368.784607 77.795204,377.185455 77.795204,385.981537 
	C69.223358,385.981537 60.814342,385.981537 52.208450,385.981537 
	C52.208450,394.776520 52.208450,403.177429 52.208450,411.954529 
	C86.425735,411.954529 120.482269,411.954529 154.994553,411.954529 
	C154.994553,429.259064 154.994553,446.192200 154.996063,463.562683 
	C154.997559,464.000061 155.069946,463.930054 154.597870,463.962585 
	C145.875290,463.995087 137.624786,463.995087 129.349121,463.995087 
	C129.349121,472.582428 129.349121,480.748108 129.349121,489.069946 
	C138.155289,489.069946 146.612610,489.069946 155.034973,489.034973 
	C155.000000,489.000000 154.930054,488.930054 154.962555,489.402161 
	C154.995056,498.235565 154.995056,506.596863 154.995056,515.069946 
	C164.177475,515.069946 172.623718,515.069946 181.069946,515.069946 
	C181.069946,515.069946 181.000000,515.000000 180.997528,515.437134 
	C180.995041,524.235596 180.995041,532.596863 180.995041,541.069946 
	C190.177490,541.069946 198.623718,541.069946 207.069946,541.069946 
	C207.069946,541.069946 206.999939,540.997620 206.965485,540.960938 
z"/>
<path fill="#030303" opacity="1.000000" stroke="none" 
	d="
M593.964294,132.000000 
	C593.964294,96.363235 593.964294,61.226467 593.964294,25.743996 
	C653.870117,25.743996 713.567139,25.743996 773.635498,25.743996 
	C773.635498,85.465378 773.635498,145.297760 773.635498,205.387695 
	C713.939575,205.387695 654.225281,205.387695 593.964294,205.387695 
	C593.964294,181.012543 593.964294,156.756271 593.964294,132.000000 
M664.500000,179.997910 
	C692.447388,179.997910 720.394714,179.997910 748.189453,179.997910 
	C748.189453,136.725388 748.189453,93.995255 748.189453,51.213448 
	C705.280518,51.213448 662.678955,51.213448 619.909180,51.213448 
	C619.909180,94.150650 619.909180,136.876404 619.909180,179.997910 
	C634.575256,179.997910 649.037659,179.997910 664.500000,179.997910 
z"/>
<path fill="#040404" opacity="1.000000" stroke="none" 
	d="
M26.992897,64.000000 
	C26.992897,51.014954 26.992897,38.529907 26.992897,25.721268 
	C86.895065,25.721268 146.587265,25.721268 206.570999,25.721268 
	C206.570999,85.546280 206.570999,145.257111 206.570999,205.307083 
	C146.891327,205.307083 87.194786,205.307083 26.992897,205.307083 
	C26.992897,158.328583 26.992897,111.414291 26.992897,64.000000 
M131.500000,51.003063 
	C105.106659,51.003063 78.713318,51.003063 52.378967,51.003063 
	C52.378967,94.352257 52.378967,136.938324 52.378967,179.631042 
	C95.417900,179.631042 138.248489,179.631042 180.994507,179.631042 
	C180.994507,136.664383 180.994507,94.063805 180.994507,51.003063 
	C164.720001,51.003063 148.610001,51.003063 131.500000,51.003063 
z"/>
<path fill="#020202" opacity="1.000000" stroke="none" 
	d="
M123.000000,773.003174 
	C90.866287,773.003174 59.232567,773.003174 27.297985,773.003174 
	C27.297985,712.962952 27.297985,653.114197 27.297985,593.082764 
	C87.021362,593.082764 146.609360,593.082764 206.527298,593.082764 
	C206.527298,652.821899 206.527298,712.542786 206.527298,773.003174 
	C178.965897,773.003174 151.232956,773.003174 123.000000,773.003174 
M181.169815,655.500061 
	C181.169815,643.231628 181.169815,630.963196 181.169815,618.650513 
	C137.937500,618.650513 95.236099,618.650513 52.379444,618.650513 
	C52.379444,661.566895 52.379444,704.131287 52.379444,746.796082 
	C95.419464,746.796082 138.244217,746.796082 181.169815,746.796082 
	C181.169815,716.448364 181.169815,686.474243 181.169815,655.500061 
z"/>
<path fill="#000000" opacity="1.000000" stroke="none" 
	d="
M722.719849,334.745911 
	C722.719849,351.682617 722.719849,368.619324 722.719849,385.947937 
	C731.408203,385.947937 739.484070,385.947937 747.774536,385.947937 
	C747.774536,394.741669 747.774536,403.142548 747.774536,411.939575 
	C739.599976,411.939575 731.524231,411.939575 722.994995,411.939575 
	C722.994995,429.263733 722.994995,446.197144 722.963013,463.603210 
	C722.930969,464.075836 722.999939,464.002380 722.562866,463.998718 
	C713.727173,463.973389 705.328613,463.951721 696.965027,463.965027 
	C697.000000,464.000000 697.069946,464.069946 697.037476,463.597809 
	C697.004944,428.772614 697.004944,394.419556 697.004944,360.350525 
	C687.875916,360.350525 679.475769,360.350525 670.706116,360.350525 
	C670.706116,369.101349 670.706116,377.503510 670.706116,385.930054 
	C653.189941,385.930054 636.059998,385.930054 618.966187,385.965088 
	C619.002380,386.000122 619.075806,386.069031 619.075806,386.069031 
	C619.052429,377.670959 619.029114,369.272888 619.005981,360.437469 
	C619.006226,360.000122 618.937439,360.073334 618.937439,360.073334 
	C627.409241,360.073334 635.880981,360.073334 644.720703,360.073334 
	C644.720703,343.143646 644.720703,326.423431 644.720703,309.319702 
	C653.470459,309.319702 661.871826,309.319702 670.635864,309.319702 
	C670.635864,300.431000 670.635864,291.917480 670.635864,283.031616 
	C653.558716,283.031616 636.505676,283.031616 619.005737,283.031616 
	C619.005737,274.405823 619.005737,266.140320 619.005981,257.437469 
	C619.006226,257.000122 618.937439,257.073334 618.937439,257.073334 
	C653.416992,257.073334 687.896545,257.073334 722.687988,257.073334 
	C722.687988,265.565857 722.687988,273.972870 722.687988,282.782837 
	C714.429565,282.782837 706.017456,282.782837 697.305176,282.782837 
	C697.305176,300.249359 697.305176,317.320831 697.305176,334.991669 
	C705.434387,334.991669 713.695618,334.991669 722.379639,334.905334 
	C722.802368,334.818970 722.719849,334.745911 722.719849,334.745911 
z"/>
<path fill="#000000" opacity="1.000000" stroke="none" 
	d="
M181.068939,385.924072 
	C155.615967,385.924072 130.162994,385.924072 104.355057,385.924072 
	C104.355057,377.533447 104.355057,369.133087 104.355057,360.167908 
	C112.227623,360.167908 120.422859,360.167908 128.801010,360.167908 
	C128.801010,351.542938 128.801010,343.480774 128.801010,335.031555 
	C120.567886,335.031555 112.497620,335.031555 104.052406,335.031555 
	C104.052406,326.255219 104.052406,317.852417 104.052406,308.994568 
	C95.407753,308.994568 87.141174,308.994568 78.437225,308.996094 
	C77.999855,308.997620 78.069939,309.069946 78.037445,308.597839 
	C78.026611,291.060516 78.048271,273.995300 78.034935,256.966248 
	C77.999939,257.002472 77.931038,257.075897 77.931038,257.075897 
	C86.327141,257.048889 94.723251,257.021881 103.561913,257.432861 
	C104.004471,266.128143 104.004471,274.385437 104.004471,282.632812 
	C112.605568,282.632812 120.777626,282.632812 128.658203,282.632812 
	C128.658203,273.873993 128.658203,265.483887 128.658203,257.067474 
	C120.184433,257.067474 112.052277,257.067474 103.920120,257.067474 
	C103.920120,248.928879 103.920120,240.790298 103.920120,232.326233 
	C120.851494,232.326233 137.569077,232.326233 154.830719,232.326233 
	C154.830719,248.906860 154.830719,265.747681 154.830719,283.005432 
	C172.289001,283.005432 189.207184,283.005432 206.562729,283.003906 
	C207.000107,283.002380 206.930054,282.930054 206.962555,283.402161 
	C206.995056,292.125092 206.995056,300.375854 206.995056,309.158417 
	C198.090637,309.158417 189.580292,309.158417 181.075912,309.158417 
	C181.075912,318.154266 181.075912,326.611633 180.603271,335.036926 
	C171.878830,335.004883 163.627045,335.004883 155.349915,335.004883 
	C155.349915,343.582703 155.349915,351.748871 155.349915,359.930969 
	C164.158447,359.930969 172.617157,359.930969 181.040619,360.402802 
	C180.980255,369.273071 180.955154,377.671509 180.965042,386.033752 
	C181.000031,385.997528 181.068939,385.924072 181.068939,385.924072 
z"/>
<path fill="#000000" opacity="1.000000" stroke="none" 
	d="
M361.075836,51.069012 
	C361.075836,42.591412 361.075836,34.113815 361.075836,25.318350 
	C403.865356,25.318350 446.576355,25.318350 489.643829,25.318350 
	C489.643829,42.256046 489.643829,59.434872 489.643829,77.009109 
	C481.527832,77.009109 473.453033,77.009109 464.998352,77.009109 
	C464.998352,85.798508 464.998352,94.205383 464.998352,102.800323 
	C456.206268,102.800323 447.806793,102.800323 439.022888,102.800323 
	C439.022888,85.555161 439.022888,68.490906 439.022888,51.215954 
	C430.240326,51.215954 421.840729,51.215954 413.055878,51.215954 
	C413.055878,68.411301 413.055878,85.475052 413.055878,102.927399 
	C404.277954,102.927399 395.871063,102.927399 386.994568,102.927399 
	C386.994568,111.249260 386.994568,119.187325 386.996094,127.562744 
	C386.997589,128.000092 387.069946,127.930061 386.597839,127.962555 
	C377.874054,127.995049 369.622375,127.995049 361.069946,127.995049 
	C361.069946,110.700996 361.069946,93.815529 361.034973,76.965027 
	C361.000000,77.000000 360.930054,77.069939 361.402161,77.037445 
	C370.125061,77.004951 378.375916,77.004951 386.651367,77.004951 
	C386.651367,68.084206 386.651367,59.585880 386.651367,50.930061 
	C377.845398,50.930061 369.387726,50.930061 360.966248,50.965076 
	C361.002411,51.000092 361.075836,51.069012 361.075836,51.069012 
z"/>
<path fill="#000000" opacity="1.000000" stroke="none" 
	d="
M310.068970,127.924088 
	C301.591644,127.924088 293.114349,127.924088 284.244690,127.924088 
	C284.244690,119.789001 284.244690,111.715088 284.244690,103.252991 
	C275.464203,103.252991 267.057343,103.252991 258.327209,103.252991 
	C258.327209,94.471046 258.327209,86.068298 258.327209,77.279602 
	C275.184631,77.279602 292.248260,77.279602 309.655243,77.279602 
	C309.655243,68.508278 309.655243,60.104553 309.655243,51.147175 
	C284.404663,51.147175 258.894257,51.147175 233.197784,51.147175 
	C233.197784,42.196548 233.197784,33.797344 233.197784,25.199163 
	C267.443390,25.199163 301.491516,25.199163 335.932220,25.199163 
	C335.932220,33.727013 335.932220,42.133804 335.932220,51.004993 
	C344.254028,51.004993 352.192261,51.004993 360.603180,51.037003 
	C361.075836,51.069012 361.002411,51.000092 360.998718,51.437195 
	C360.973389,60.272842 360.951721,68.671394 360.930054,77.069939 
	C360.930054,77.069939 361.000000,77.000000 360.562866,76.997528 
	C352.201935,76.995049 344.278168,76.995049 335.815369,76.995049 
	C335.815369,85.933365 335.815369,94.450035 335.815369,103.308426 
	C326.878632,103.308426 318.487061,103.308426 309.930054,103.308426 
	C309.930054,111.809006 309.930054,119.939476 309.965027,128.033737 
	C310.000031,127.997520 310.068970,127.924088 310.068970,127.924088 
z"/>
<path fill="#000000" opacity="1.000000" stroke="none" 
	d="
M412.931030,154.075882 
	C421.407410,154.075882 429.883820,154.075882 438.749786,154.075882 
	C438.749786,145.460724 438.749786,137.055084 438.749786,128.273041 
	C455.859009,128.273041 472.587219,128.273041 489.704956,128.273041 
	C489.704956,119.840149 489.704956,111.767960 489.704956,103.348907 
	C498.482452,103.348907 506.885284,103.348907 515.681213,103.348907 
	C515.681213,111.136276 515.681213,119.208076 515.681213,127.670242 
	C524.456421,127.670242 532.861877,127.670242 541.632874,127.670242 
	C541.632874,136.568985 541.632874,145.085938 541.632874,153.976929 
	C516.216187,153.976929 490.829987,153.976929 464.994568,153.976929 
	C464.994568,171.270172 464.994568,188.197769 464.996094,205.562714 
	C464.997589,206.000076 465.069946,205.930054 464.597839,205.962555 
	C455.727478,206.022003 447.329254,206.048950 438.963074,205.603271 
	C438.995117,196.768158 438.995117,188.405701 438.995117,180.075912 
	C429.824036,180.075912 421.377533,180.075912 412.963074,179.603271 
	C413.020050,170.730438 413.044983,162.330246 413.034943,153.966248 
	C412.999969,154.002457 412.931030,154.075882 412.931030,154.075882 
z"/>
<path fill="#000000" opacity="1.000000" stroke="none" 
	d="
M594.075806,464.069031 
	C594.075806,455.612030 594.075806,447.155029 594.075806,438.158569 
	C602.245605,438.158569 610.424683,438.158569 619.005432,438.158569 
	C619.005432,429.375366 619.005432,421.124969 619.003906,412.437195 
	C619.002319,411.999817 618.930054,412.069946 619.402100,412.037415 
	C636.792114,412.004913 653.710022,412.004913 670.804138,412.004913 
	C670.804138,420.811859 670.804138,429.205200 670.804138,438.158173 
	C662.098450,438.158173 653.572754,438.158173 645.345764,438.158173 
	C645.345764,447.118042 645.345764,455.516113 645.345764,464.069946 
	C662.817505,464.069946 679.943726,464.069946 697.069946,464.069946 
	C697.069946,464.069946 697.000000,464.000000 696.997559,464.437134 
	C696.995056,472.799927 696.995056,480.725525 696.995056,488.930054 
	C670.686462,488.930054 644.808228,488.930054 618.930054,488.930054 
	C618.930054,488.930054 619.000000,489.000000 619.002441,488.562866 
	C619.004944,480.097382 619.004944,472.069061 619.004944,463.930054 
	C610.155884,463.930054 602.042969,463.930054 593.966187,463.965088 
	C594.002380,464.000122 594.075806,464.069031 594.075806,464.069031 
z"/>
<path fill="#000000" opacity="1.000000" stroke="none" 
	d="
M464.960876,206.034546 
	C473.059906,206.069000 481.195648,206.069000 489.708679,206.069000 
	C489.708679,197.497055 489.708679,189.101746 489.708679,180.353668 
	C498.586456,180.353668 507.094971,180.353668 515.994995,180.353668 
	C515.994995,197.309372 515.994995,214.219955 515.963013,231.603180 
	C515.930969,232.075836 515.999939,232.002396 515.562866,231.998718 
	C506.865448,231.995041 498.605194,231.995041 489.974854,231.995041 
	C489.974854,240.494003 489.974854,248.557846 489.974854,256.641418 
	C481.417389,256.641418 473.242065,256.641418 465.069946,256.641418 
	C465.069946,239.498581 465.069946,222.714325 465.069946,205.930054 
	C465.069946,205.930054 464.997589,206.000076 464.960876,206.034546 
z"/>
<path fill="#000000" opacity="1.000000" stroke="none" 
	d="
M284.069000,256.924164 
	C275.599945,256.924164 267.130859,256.924164 258.281281,256.924164 
	C258.281281,248.822388 258.281281,240.756851 258.281281,232.312943 
	C249.854996,232.312943 241.789703,232.312943 233.362946,232.312943 
	C233.362946,214.775696 233.362946,197.613831 233.362946,180.005447 
	C241.265717,180.005447 249.195526,180.005447 257.562683,180.003937 
	C258.000061,180.002441 257.930054,179.930054 257.962585,180.402130 
	C257.995087,189.235535 257.995087,197.596878 257.995087,206.069946 
	C267.177460,206.069946 275.623718,206.069946 284.034973,206.034973 
	C284.000000,206.000000 283.930054,205.930054 283.962524,206.402176 
	C283.973358,223.606186 283.951691,240.338058 283.965057,257.033783 
	C284.000092,256.997620 284.069000,256.924164 284.069000,256.924164 
z"/>
<path fill="#000000" opacity="1.000000" stroke="none" 
	d="
M52.069012,308.924164 
	C43.930164,308.924164 35.791317,308.924164 27.326477,308.924164 
	C27.326477,283.372711 27.326477,257.884125 27.326477,232.197144 
	C44.114826,232.197144 60.830536,232.197144 77.995010,232.197144 
	C77.995010,240.265030 77.995010,248.197800 77.963028,256.603241 
	C77.931038,257.075897 77.999939,257.002472 77.562828,256.998779 
	C68.873734,256.995056 60.621746,256.995056 51.930061,256.995056 
	C51.930061,274.632538 51.930061,291.851257 51.965076,309.033752 
	C52.000092,308.997589 52.069012,308.924164 52.069012,308.924164 
z"/>
<path fill="#000000" opacity="1.000000" stroke="none" 
	d="
M232.931061,283.075928 
	C249.662491,283.052460 266.393921,283.028961 283.562744,283.003967 
	C284.000092,283.002441 283.930054,282.930054 283.962555,283.402161 
	C283.995056,292.125122 283.995056,300.375946 283.995056,309.158630 
	C275.090454,309.158630 266.580048,309.158630 257.930054,309.158630 
	C257.930054,318.154541 257.930054,326.612244 257.930054,335.069946 
	C257.930054,335.069946 258.000000,335.000000 257.562866,334.997528 
	C249.206268,334.995056 241.286835,334.995056 233.069946,334.995056 
	C233.069946,317.365662 233.069946,300.147858 233.034958,282.966248 
	C232.999969,283.002472 232.931061,283.075928 232.931061,283.075928 
z"/>
<path fill="#000000" opacity="1.000000" stroke="none" 
	d="
M336.075928,206.068939 
	C336.052429,189.004181 336.028931,171.939407 336.003906,154.437286 
	C336.002411,153.999924 335.930054,154.069946 336.402161,154.037445 
	C353.606140,154.026611 370.338043,154.048279 387.034973,154.034973 
	C387.000000,154.000000 386.930054,153.930054 386.962585,154.402130 
	C387.019745,163.274765 387.044403,171.675323 386.597229,180.040619 
	C377.874939,180.005356 369.624542,180.005356 360.842804,180.005356 
	C360.842804,188.908295 360.842804,197.418304 360.842804,205.930054 
	C352.179901,205.930054 344.054962,205.930054 335.966248,205.965042 
	C336.002472,206.000031 336.075928,206.068939 336.075928,206.068939 
z"/>
<path fill="#000000" opacity="1.000000" stroke="none" 
	d="
M310.075836,618.069031 
	C310.052216,610.002502 310.028595,601.935974 310.036987,593.396851 
	C310.069031,592.924194 310.000122,592.997620 310.437225,593.001282 
	C336.272858,593.026611 361.671417,593.048279 387.069946,593.069946 
	C387.069946,593.069946 387.000000,593.000000 386.997559,593.437134 
	C386.995087,601.799683 386.995087,609.725098 386.995087,617.930054 
	C361.020172,617.930054 335.475098,617.930054 309.966217,617.965088 
	C310.002380,618.000061 310.075836,618.069031 310.075836,618.069031 
z"/>
<path fill="#000000" opacity="1.000000" stroke="none" 
	d="
M258.034637,644.039001 
	C258.069092,635.615601 258.069092,627.155457 258.069092,618.005005 
	C275.102753,618.005005 292.116669,618.005005 309.603210,618.036987 
	C310.075836,618.069031 310.002380,618.000061 309.998718,618.437134 
	C309.973419,627.272827 309.951721,635.671387 309.930054,644.069946 
	C309.930054,644.069946 310.000000,644.000000 309.562836,643.997498 
	C292.060455,643.973328 274.995270,643.951660 257.930054,643.930054 
	C257.930054,643.930054 258.000183,644.002319 258.034637,644.039001 
z"/>
<path fill="#000000" opacity="1.000000" stroke="none" 
	d="
M755.068115,282.999939 
	C752.592163,282.999939 750.607971,282.999939 748.312378,282.999939 
	C748.312378,266.098328 748.312378,249.361588 748.312378,232.311691 
	C756.565979,232.311691 764.972351,232.311691 773.690796,232.311691 
	C773.690796,248.906845 773.690796,265.643860 773.690796,282.999939 
	C767.748718,282.999939 761.654297,282.999939 755.068115,282.999939 
z"/>
<path fill="#000000" opacity="1.000000" stroke="none" 
	d="
M567.965515,746.960815 
	C567.931030,755.383118 567.931030,763.842102 567.931030,772.650513 
	C559.414917,772.650513 550.915771,772.650513 542.005005,772.650513 
	C542.005005,764.373596 542.005005,756.121521 542.036987,747.396790 
	C542.068970,746.924133 542.000000,746.997559 542.437134,747.001221 
	C551.272827,747.026611 559.671387,747.048279 568.069946,747.069946 
	C568.069946,747.069946 568.000000,746.997559 567.965515,746.960815 
z"/>
<path fill="#000000" opacity="1.000000" stroke="none" 
	d="
M696.960815,618.034485 
	C705.372131,618.068970 713.820190,618.068970 722.994995,618.068970 
	C722.994995,626.404114 722.994995,634.767334 722.963013,643.603210 
	C722.931030,644.075867 723.000000,644.002441 722.562866,643.998779 
	C713.727173,643.973389 705.328613,643.951721 696.930054,643.930054 
	C696.930054,643.930054 697.000000,644.000000 697.002441,643.562866 
	C697.026611,634.727173 697.048279,626.328613 697.069946,617.930054 
	C697.069946,617.930054 696.997559,618.000000 696.960815,618.034485 
z"/>
<path fill="#000000" opacity="1.000000" stroke="none" 
	d="
M541.960999,438.034637 
	C550.371460,438.069092 558.818604,438.069092 567.994568,438.069092 
	C567.994568,446.402130 567.994568,454.763763 567.996094,463.562805 
	C567.997681,464.000183 568.069946,463.930054 567.597900,463.962585 
	C558.725281,464.019775 550.324829,464.044464 541.959473,463.597290 
	C542.019714,454.726990 542.044800,446.328522 542.069946,437.930054 
	C542.069946,437.930054 541.997681,438.000183 541.960999,438.034637 
z"/>
<path fill="#000000" opacity="1.000000" stroke="none" 
	d="
M283.931030,180.075882 
	C292.376862,180.075882 300.822693,180.075882 309.994568,180.075882 
	C309.994568,188.402695 309.994568,196.764023 309.996094,205.562714 
	C309.997589,206.000076 310.069946,205.930054 309.597870,205.962555 
	C300.727203,205.973389 292.328644,205.951721 283.930054,205.930054 
	C283.930054,205.930054 284.000000,206.000000 284.002472,205.562866 
	C284.026611,196.727158 284.048279,188.328613 284.034973,179.966248 
	C283.999969,180.002457 283.931030,180.075882 283.931030,180.075882 
z"/>
<path fill="#000000" opacity="1.000000" stroke="none" 
	d="
M181.075882,464.068970 
	C181.075882,455.622498 181.075882,447.176056 181.075882,438.004974 
	C189.405746,438.004974 197.768173,438.004974 206.603241,438.036987 
	C207.075882,438.068970 207.002457,438.000031 206.998749,438.437164 
	C206.973389,447.272858 206.951721,455.671387 206.930054,464.069946 
	C206.930054,464.069946 207.000000,464.000000 206.562866,463.997528 
	C197.727158,463.973389 189.328613,463.951721 180.966248,463.965027 
	C181.002457,464.000031 181.075882,464.068970 181.075882,464.068970 
z"/>
<path fill="#000000" opacity="1.000000" stroke="none" 
	d="
M284.034546,283.039154 
	C284.047668,274.673737 284.026337,266.271576 284.036987,257.396790 
	C284.069000,256.924164 284.000092,256.997620 284.437195,257.001282 
	C293.235718,257.004944 301.597137,257.004944 309.920349,257.004944 
	C309.920349,266.176941 309.920349,274.622742 309.957031,283.034210 
	C309.993683,282.999878 310.062500,282.926666 309.591003,282.960754 
	C300.723022,282.973236 292.326538,282.951660 283.930054,282.930054 
	C283.930054,282.930054 284.000092,283.002441 284.034546,283.039154 
z"/>
<path fill="#000000" opacity="1.000000" stroke="none" 
	d="
M206.937378,257.073456 
	C215.382492,257.073456 223.827606,257.073456 232.995026,257.073456 
	C232.995026,265.407379 232.995026,273.768982 232.963043,282.603271 
	C232.931061,283.075928 232.999969,283.002472 232.562836,282.998779 
	C223.727158,282.973389 215.328613,282.951721 206.930054,282.930054 
	C206.930054,282.930054 207.000107,283.002380 207.034546,283.039124 
	C207.047913,274.675537 207.026810,266.275238 207.005951,257.437561 
	C207.006180,257.000214 206.937378,257.073456 206.937378,257.073456 
z"/>
<path fill="#000000" opacity="1.000000" stroke="none" 
	d="
M309.960876,206.034546 
	C318.326294,206.047668 326.728455,206.026321 335.603271,206.036957 
	C336.075928,206.068939 336.002472,206.000031 335.998749,206.437164 
	C335.970154,215.272339 335.945251,223.670395 335.957062,232.034119 
	C335.993744,231.999786 336.062561,231.926575 335.591064,231.960693 
	C326.759827,231.994812 318.400085,231.994812 310.069946,231.994812 
	C310.069946,222.820511 310.069946,214.375275 310.069946,205.930054 
	C310.069946,205.930054 309.997589,206.000076 309.960876,206.034546 
z"/>
<path fill="#000000" opacity="1.000000" stroke="none" 
	d="
M567.999756,183.164764 
	C567.999939,190.947601 567.999939,198.243439 567.999939,205.767166 
	C559.270386,205.767166 550.866516,205.767166 542.230469,205.767166 
	C542.230469,197.265579 542.230469,188.861771 542.230469,180.001633 
	C550.108154,180.001633 557.889282,179.923996 565.663635,180.118713 
	C566.463135,180.138748 567.221924,181.785721 567.999756,183.164764 
z"/>
<path fill="#000000" opacity="1.000000" stroke="none" 
	d="
M77.965393,308.960907 
	C77.930939,317.383179 77.930939,325.842133 77.930939,334.650482 
	C69.414856,334.650482 60.916119,334.650482 52.004990,334.650482 
	C52.004990,326.373596 52.004990,318.121521 52.037003,309.396820 
	C52.069012,308.924164 52.000092,308.997589 52.437195,309.001282 
	C61.272842,309.026611 69.671394,309.048279 78.069939,309.069946 
	C78.069939,309.069946 77.999855,308.997620 77.965393,308.960907 
z"/>
<path fill="#000000" opacity="1.000000" stroke="none" 
	d="
M258.034546,180.039154 
	C258.069000,171.616882 258.069000,163.157898 258.069000,154.349548 
	C266.585083,154.349548 275.084229,154.349548 283.995026,154.349548 
	C283.995026,162.626434 283.995026,170.878525 283.963013,179.603241 
	C283.931030,180.075882 283.999969,180.002457 283.562836,179.998749 
	C274.727142,179.973389 266.328613,179.951721 257.930054,179.930054 
	C257.930054,179.930054 258.000061,180.002441 258.034546,180.039154 
z"/>
<path fill="#000000" opacity="1.000000" stroke="none" 
	d="
M386.960876,128.034561 
	C395.372162,128.069031 403.820160,128.069031 412.995026,128.069031 
	C412.995026,136.404144 412.995026,144.767380 412.963013,153.603241 
	C412.931030,154.075882 412.999969,154.002457 412.562836,153.998749 
	C403.727142,153.973373 395.328613,153.951706 386.930054,153.930054 
	C386.930054,153.930054 387.000000,154.000000 387.002472,153.562866 
	C387.026611,144.727173 387.048279,136.328613 387.069946,127.930061 
	C387.069946,127.930061 386.997589,128.000092 386.960876,128.034561 
z"/>
<path fill="#000000" opacity="1.000000" stroke="none" 
	d="
M336.039124,153.965454 
	C327.627838,153.931000 319.179840,153.931000 310.004974,153.931000 
	C310.004974,145.595840 310.004974,137.232620 310.036987,128.396729 
	C310.068970,127.924088 310.000031,127.997520 310.437164,128.001236 
	C319.235809,128.004944 327.597321,128.004944 335.930054,128.004944 
	C335.930054,137.177582 335.930054,145.623764 335.930054,154.069946 
	C335.930054,154.069946 336.002411,153.999924 336.039124,153.965454 
z"/>
<path fill="#000000" opacity="1.000000" stroke="none" 
	d="
M541.746704,77.279343 
	C550.340576,77.279343 558.934448,77.279343 567.763855,77.279343 
	C567.763855,85.706825 567.763855,94.095016 567.763855,102.742493 
	C559.337769,102.742493 550.948792,102.742493 541.991760,102.742493 
	C541.991760,94.531105 541.991760,86.286819 541.905762,77.619659 
	C541.819763,77.196793 541.746704,77.279343 541.746704,77.279343 
z"/>
<path fill="#000000" opacity="1.000000" stroke="none" 
	d="
M541.926941,50.937595 
	C541.944946,59.387226 541.962952,67.836861 541.863831,76.782913 
	C541.746704,77.279343 541.819763,77.196793 541.850525,77.161919 
	C533.417603,77.127045 524.953918,77.127045 516.246704,77.127045 
	C516.246704,68.298103 516.246704,59.893627 516.246704,51.005730 
	C524.574524,51.005730 532.849976,51.005730 541.562744,51.006069 
	C542.000122,51.006409 541.926941,50.937595 541.926941,50.937595 
z"/>
<path fill="#000000" opacity="1.000000" stroke="none" 
	d="
M207.039154,411.965454 
	C198.627869,411.931000 190.179871,411.931000 181.004974,411.931000 
	C181.004974,403.595856 181.004974,395.232635 181.036957,386.396729 
	C181.068939,385.924072 181.000031,385.997528 181.437164,386.001221 
	C190.235809,386.004944 198.597321,386.004944 206.930054,386.004944 
	C206.930054,395.177582 206.930054,403.623779 206.930054,412.069946 
	C206.930054,412.069946 207.002441,411.999939 207.039154,411.965454 
z"/>
<path fill="#000000" opacity="1.000000" stroke="none" 
	d="
M542.034424,51.043076 
	C542.068787,42.614788 542.068787,34.149837 542.068787,25.342556 
	C550.482849,25.342556 558.873230,25.342556 567.632568,25.342556 
	C567.632568,33.555576 567.632568,42.060291 567.632568,50.995426 
	C559.386780,50.995426 551.129272,50.995426 542.399353,50.966511 
	C541.926941,50.937595 542.000122,51.006409 542.034424,51.043076 
z"/>
<path fill="#000000" opacity="1.000000" stroke="none" 
	d="
M619.039001,411.965363 
	C610.949707,411.930908 602.823730,411.930908 594.348938,411.930908 
	C594.348938,403.414459 594.348938,394.916412 594.348938,386.004974 
	C602.292236,386.004974 610.211365,386.004974 618.603149,386.036987 
	C619.075806,386.069031 619.002380,386.000122 618.998718,386.437195 
	C618.973389,395.272858 618.951721,403.671387 618.930054,412.069946 
	C618.930054,412.069946 619.002319,411.999817 619.039001,411.965363 
z"/>
<path fill="#000000" opacity="1.000000" stroke="none" 
	d="
M154.960846,464.034546 
	C163.326279,464.047668 171.728439,464.026306 180.603241,464.036987 
	C181.075882,464.068970 181.002457,464.000031 180.998749,464.437164 
	C180.973389,472.939514 180.951721,481.004730 180.930054,489.069946 
	C180.930054,489.069946 181.000000,489.000000 180.562866,488.997559 
	C171.727158,488.973419 163.328613,488.951752 154.930054,488.930054 
	C154.930054,488.930054 155.000000,489.000000 155.002472,488.562866 
	C155.026611,480.060486 155.048279,471.995270 155.069946,463.930054 
	C155.069946,463.930054 154.997559,464.000061 154.960846,464.034546 
z"/>
<path fill="#000000" opacity="1.000000" stroke="none" 
	d="
M207.042847,256.965881 
	C198.614944,256.931580 190.150375,256.931580 181.343033,256.931580 
	C181.343033,248.851685 181.343033,240.793930 181.343033,232.367325 
	C189.555222,232.367325 198.059616,232.367325 206.995407,232.367325 
	C206.995407,240.279099 206.995407,248.203827 206.966400,256.601013 
	C206.937378,257.073456 207.006180,257.000214 207.042847,256.965881 
z"/>
<path fill="#000000" opacity="1.000000" stroke="none" 
	d="
M567.960999,464.034637 
	C576.326416,464.047729 584.728455,464.026337 593.603149,464.036987 
	C594.075806,464.069031 594.002380,464.000122 593.998718,464.437195 
	C593.973389,472.939514 593.951721,481.004730 593.930054,489.069946 
	C593.930054,489.069946 594.000000,489.000000 593.562866,488.997559 
	C584.727478,489.022003 576.329224,489.048920 567.963013,488.603210 
	C568.020081,480.063751 568.045044,471.996887 568.069946,463.930054 
	C568.069946,463.930054 567.997681,464.000183 567.960999,464.034637 
z"/>
<path fill="#000000" opacity="1.000000" stroke="none" 
	d="
M747.937439,335.073334 
	C756.399048,335.073334 764.860657,335.073334 773.661072,335.073334 
	C773.661072,343.155853 773.661072,351.212555 773.661072,359.635406 
	C765.442261,359.635406 756.938538,359.635406 748.005737,359.635406 
	C748.005737,351.721313 748.005737,343.798065 748.005981,335.437469 
	C748.006226,335.000122 747.937439,335.073334 747.937439,335.073334 
z"/>
<path fill="#000000" opacity="1.000000" stroke="none" 
	d="
M748.042847,334.965790 
	C739.957275,334.947937 731.835083,334.964386 723.216309,334.863373 
	C722.719849,334.745911 722.802368,334.818970 722.837280,334.849670 
	C722.872131,326.416351 722.872131,317.952332 722.872131,309.246246 
	C731.369873,309.246246 739.441162,309.246246 747.995483,309.246246 
	C747.995483,317.576416 747.995483,325.852417 747.966431,334.600891 
	C747.937439,335.073334 748.006226,335.000122 748.042847,334.965790 
z"/>
<path fill="#000000" opacity="1.000000" stroke="none" 
	d="
M619.042847,256.965790 
	C610.947937,256.931458 602.816345,256.931458 594.342407,256.931458 
	C594.342407,248.850952 594.342407,240.793640 594.342407,232.367371 
	C602.221985,232.367371 610.392944,232.367371 618.995483,232.367371 
	C618.995483,240.279816 618.995483,248.204132 618.966431,256.600891 
	C618.937439,257.073334 619.006226,257.000122 619.042847,256.965790 
z"/>
<path fill="#000000" opacity="1.000000" stroke="none" 
	d="
M619.042847,359.965790 
	C610.947937,359.931458 602.816284,359.931458 594.342407,359.931458 
	C594.342407,351.850922 594.342407,343.793640 594.342407,335.367371 
	C602.221863,335.367371 610.393433,335.367371 618.995483,335.367371 
	C618.995483,343.279785 618.995483,351.204132 618.966431,359.600891 
	C618.937439,360.073334 619.006226,360.000122 619.042847,359.965790 
z"/>
<path fill="#FFFFFF" opacity="1.000000" stroke="none" 
	d="
M309.597870,205.962555 
	C310.069946,214.375275 310.069946,222.820511 310.069946,231.994812 
	C318.400085,231.994812 326.759827,231.994812 335.562012,232.433136 
	C336.004486,240.795837 336.004486,248.720215 336.004486,256.632721 
	C344.606567,256.632721 352.778137,256.632721 360.657623,256.632721 
	C360.657623,248.206451 360.657623,240.149033 360.657623,232.068451 
	C352.183716,232.068451 344.052063,232.068451 335.920410,232.068451 
	C335.945251,223.670395 335.970154,215.272339 335.962524,206.402161 
	C344.054962,205.930054 352.179901,205.930054 360.842804,205.930054 
	C360.842804,197.418304 360.842804,188.908295 360.842804,180.005356 
	C369.624542,180.005356 377.874939,180.005356 386.562744,180.003906 
	C387.000122,180.002441 386.930054,179.930054 386.962585,180.402130 
	C386.995087,206.115814 386.995087,231.357407 386.995087,256.657227 
	C404.560425,256.657227 421.728119,256.657227 439.069946,256.657227 
	C439.069946,239.519806 439.069946,222.724930 439.034973,205.966278 
	C438.999969,206.002487 438.931030,206.075912 438.931030,206.075912 
	C447.329254,206.048950 455.727478,206.022003 464.597839,205.962555 
	C465.069946,222.714325 465.069946,239.498581 465.069946,256.641418 
	C473.242065,256.641418 481.417389,256.641418 489.974854,256.641418 
	C489.974854,248.557846 489.974854,240.494003 489.974854,231.995041 
	C498.605194,231.995041 506.865448,231.995041 515.597839,231.962555 
	C516.069946,274.469360 516.069946,317.008667 516.069946,359.994385 
	C507.402985,359.994385 499.138885,359.994385 490.437469,359.994019 
	C490.000122,359.993683 490.073334,360.062500 490.073334,360.062500 
	C490.073334,343.262390 490.073334,326.462280 490.073334,309.272888 
	C481.817078,309.272888 473.745270,309.272888 465.287598,309.272888 
	C465.287598,300.498322 465.287598,292.093872 465.287598,283.345947 
	C447.848694,283.345947 430.790466,283.345947 413.201965,283.345947 
	C413.201965,317.215485 413.201965,351.376465 413.201965,385.994385 
	C404.412201,385.994385 396.143494,385.994385 387.437469,385.994019 
	C387.000122,385.993683 387.073334,386.062500 387.073334,386.062500 
	C387.073334,377.591492 387.073334,369.120483 387.073334,360.266541 
	C378.474579,360.266541 370.074066,360.266541 361.292175,360.266541 
	C361.292175,351.833893 361.292175,343.766968 361.292175,335.004944 
	C326.899872,335.004944 292.887115,335.004944 258.402191,335.037445 
	C257.930054,326.612244 257.930054,318.154541 257.930054,309.158630 
	C266.580048,309.158630 275.090454,309.158630 283.995056,309.158630 
	C283.995056,300.375946 283.995056,292.125122 283.962555,283.402161 
	C292.326538,282.951660 300.723022,282.973236 309.562012,283.433197 
	C310.004486,292.129150 310.004486,300.386719 310.004486,308.632690 
	C318.939606,308.632690 327.444397,308.632690 335.657593,308.632690 
	C335.657593,299.873383 335.657593,291.482971 335.657593,283.068542 
	C326.850342,283.068542 318.385345,283.068542 309.920349,283.068542 
	C309.920349,274.622742 309.920349,266.176941 309.920349,257.004944 
	C301.597137,257.004944 293.235718,257.004944 284.402161,257.037445 
	C283.951691,240.338058 283.973358,223.606186 283.962524,206.402176 
	C292.328644,205.951721 300.727203,205.973389 309.597870,205.962555 
M372.512817,309.000000 
	C377.276947,309.000000 382.041107,309.000000 386.708099,309.000000 
	C386.708099,300.010162 386.708099,291.606018 386.708099,283.292480 
	C378.008972,283.292480 369.604797,283.292480 361.293060,283.292480 
	C361.293060,291.992218 361.293060,300.396393 361.293060,309.000000 
	C364.896210,309.000000 368.207977,309.000000 372.512817,309.000000 
z"/>
<path fill="#FFFFFF" opacity="1.000000" stroke="none" 
	d="
M542.254150,669.719910 
	C533.645874,669.719910 525.037598,669.719910 516.047119,669.719910 
	C516.047119,687.419373 516.047119,704.485229 516.047119,721.773315 
	C507.261108,721.773315 498.860382,721.773315 490.063965,721.773315 
	C490.063965,713.269958 490.063965,704.861694 490.063965,696.068604 
	C481.606873,696.068604 473.532928,696.068604 465.073242,696.068604 
	C465.073242,687.279297 465.073242,678.871399 465.073242,670.078125 
	C456.283264,670.078125 447.876343,670.078125 439.238678,670.078125 
	C439.238678,661.286072 439.238678,652.885193 439.238678,644.088013 
	C447.705292,644.088013 456.113464,644.088013 464.893402,644.088013 
	C464.893402,618.304626 464.893402,592.910767 464.893402,567.259766 
	C490.663818,567.259766 516.055542,567.259766 541.724060,567.259766 
	C541.724060,575.636780 541.724060,584.038696 541.724060,592.837463 
	C533.371155,592.837463 524.963257,592.837463 516.167236,592.837463 
	C516.167236,601.290466 516.167236,609.365356 516.167236,617.828125 
	C507.380829,617.828125 498.972839,617.828125 490.285522,617.828125 
	C490.285522,626.617004 490.285522,635.019043 490.285522,643.811340 
	C507.275330,643.811340 524.341736,643.811340 542.008362,643.811340 
	C542.008362,652.442444 542.008362,660.699707 542.094727,669.379761 
	C542.181091,669.802490 542.254150,669.719910 542.254150,669.719910 
z"/>
<path fill="#FFFFFF" opacity="1.000000" stroke="none" 
	d="
M207.402130,412.037415 
	C206.930054,403.623779 206.930054,395.177582 206.930054,386.004944 
	C198.597321,386.004944 190.235809,386.004944 181.402176,386.037445 
	C180.955154,377.671509 180.980255,369.273071 181.003891,360.437256 
	C181.002426,359.999908 180.930054,360.069946 181.402130,360.037415 
	C190.124710,360.004913 198.375214,360.004913 206.650879,360.004913 
	C206.650879,351.417572 206.650879,343.251892 206.650879,334.930054 
	C197.844711,334.930054 189.387390,334.930054 180.966278,334.965027 
	C181.002487,335.000031 181.075912,335.068970 181.075912,335.068970 
	C181.075912,326.611633 181.075912,318.154266 181.075912,309.158417 
	C189.580292,309.158417 198.090637,309.158417 206.995056,309.158417 
	C206.995056,300.375854 206.995056,292.125092 206.962555,283.402161 
	C215.328613,282.951721 223.727158,282.973389 232.597839,282.962555 
	C233.069946,300.147858 233.069946,317.365662 233.069946,334.995056 
	C241.286835,334.995056 249.206268,334.995056 257.597839,334.962555 
	C258.069946,343.068176 258.069946,351.206268 258.069946,359.726868 
	C249.814819,359.726868 241.747849,359.726868 233.341736,359.726868 
	C233.341736,368.491608 233.341736,376.888702 233.341736,385.847321 
	C241.244553,385.847321 249.437271,385.847321 257.806671,385.847321 
	C257.806671,394.799316 257.806671,403.191925 257.806671,412.004913 
	C241.041489,412.004913 224.457855,412.004913 207.402130,412.037415 
z"/>
<path fill="#FFFFFF" opacity="1.000000" stroke="none" 
	d="
M645.000000,588.000122 
	C645.000000,606.808594 645.000000,625.117004 645.000000,643.712280 
	C619.381836,643.712280 593.979187,643.712280 568.287720,643.712280 
	C568.287720,618.381897 568.287720,592.979187 568.287720,567.287720 
	C593.618103,567.287720 619.020752,567.287720 645.000000,567.287720 
	C645.000000,573.968872 645.000000,580.734497 645.000000,588.000122 
M597.651550,618.000000 
	C604.737366,618.000000 611.823120,618.000000 618.656372,618.000000 
	C618.656372,609.240479 618.656372,601.165466 618.656372,593.346313 
	C610.235107,593.346313 602.159912,593.346313 594.000061,593.346313 
	C594.000061,600.684937 594.030579,607.677795 593.980225,614.670105 
	C593.966248,616.615906 593.801147,618.488831 597.651550,618.000000 
z"/>
<path fill="#FFFFFF" opacity="1.000000" stroke="none" 
	d="
M568.037476,746.597900 
	C559.671387,747.048279 551.272827,747.026611 542.402161,747.037476 
	C541.959717,721.617615 541.989380,696.165283 542.136597,670.216431 
	C542.254150,669.719910 542.181091,669.802490 542.150391,669.837402 
	C567.512817,669.872314 592.905945,669.872314 618.994385,669.872314 
	C618.994385,687.096985 618.994385,704.111145 618.994080,721.562500 
	C618.993774,721.999817 619.062622,721.926697 619.062622,721.926697 
	C602.179565,721.926697 585.296448,721.926697 568.004944,721.926697 
	C568.004944,730.288696 568.004944,738.207214 568.037476,746.597900 
z"/>
<path fill="#FFFFFF" opacity="1.000000" stroke="none" 
	d="
M310.402161,644.037476 
	C309.951721,635.671387 309.973419,627.272827 309.962585,618.402161 
	C335.475098,617.930054 361.020172,617.930054 386.995087,617.930054 
	C386.995087,609.725098 386.995087,601.799683 386.962585,593.402161 
	C395.404327,592.930054 403.878632,592.930054 412.676086,592.930054 
	C412.676086,618.519653 412.676086,643.898621 412.676086,669.639038 
	C404.422363,669.639038 395.907593,669.639038 387.000427,669.639038 
	C387.000427,661.201660 387.000427,652.798523 387.000427,644.004944 
	C361.368256,644.004944 336.121246,644.004944 310.402161,644.037476 
z"/>
<path fill="#FFFFFF" opacity="1.000000" stroke="none" 
	d="
M412.924133,488.930969 
	C412.924133,497.406464 412.924133,505.881958 412.924133,514.678589 
	C395.797943,514.678589 378.739899,514.678589 361.291016,514.678589 
	C361.291016,506.502136 361.291016,498.097321 361.291016,489.347473 
	C352.848938,489.347473 344.779602,489.347473 336.318604,489.347473 
	C336.318604,497.470306 336.318604,505.874481 336.318604,514.638794 
	C327.421295,514.638794 318.904968,514.638794 310.191803,514.638794 
	C310.191803,497.867035 310.191803,481.143829 310.191803,464.005341 
	C335.622253,464.005341 360.873840,464.005341 386.562744,464.003876 
	C387.000122,464.002411 386.930054,463.930054 386.962555,464.402161 
	C386.995056,472.902863 386.995056,480.931427 386.995056,489.069946 
	C396.179474,489.069946 404.624695,489.069946 413.033752,489.034912 
	C412.997559,488.999908 412.924133,488.930969 412.924133,488.930969 
z"/>
<path fill="#FFFFFF" opacity="1.000000" stroke="none" 
	d="
M618.962524,489.402130 
	C644.808228,488.930054 670.686462,488.930054 696.995056,488.930054 
	C696.995056,480.725525 696.995056,472.799927 696.962524,464.402161 
	C705.328613,463.951721 713.727173,463.973389 722.597839,463.962555 
	C723.069946,480.725037 723.069946,497.520020 723.069946,514.657349 
	C688.415283,514.657349 653.936584,514.657349 618.995056,514.657349 
	C618.995056,506.405487 618.995056,498.139862 618.962524,489.402130 
z"/>
<path fill="#FFFFFF" opacity="1.000000" stroke="none" 
	d="
M207.402130,464.037415 
	C206.951721,455.671387 206.973389,447.272858 206.962555,438.402161 
	C232.272430,437.950562 257.614807,437.971100 283.380005,437.905457 
	C283.802826,437.819305 283.720276,437.746216 283.720276,437.746216 
	C283.813538,461.886505 283.907043,486.026764 283.999298,510.167053 
	C284.004883,511.628540 284.000000,513.090088 284.000000,514.773560 
	C275.259705,514.773560 266.858032,514.773560 258.064575,514.773560 
	C258.064575,497.933105 258.064575,481.197998 258.064575,464.004913 
	C241.077072,464.004913 224.475647,464.004913 207.402130,464.037415 
z"/>
<path fill="#FFFFFF" opacity="1.000000" stroke="none" 
	d="
M516.068970,514.924133 
	C507.599060,514.924133 499.129150,514.924133 490.278748,514.924133 
	C490.278748,523.513855 490.278748,531.912476 490.278748,540.654419 
	C473.071686,540.654419 456.241486,540.654419 439.005341,540.654419 
	C439.005341,523.703796 439.005341,506.789185 439.003876,489.437256 
	C439.002411,488.999878 438.930054,489.069946 439.402191,489.037445 
	C465.212311,489.004944 490.550293,489.004944 515.930054,489.004944 
	C515.930054,498.140381 515.930054,506.605164 515.965027,515.033752 
	C516.000000,514.997559 516.068970,514.924133 516.068970,514.924133 
z"/>
<path fill="#FFFFFF" opacity="1.000000" stroke="none" 
	d="
M567.930969,489.075836 
	C576.329224,489.048920 584.727478,489.022003 593.597839,488.962585 
	C594.069946,506.054749 594.069946,523.179443 594.069946,540.651978 
	C568.087280,540.651978 542.268799,540.651978 516.004883,540.651978 
	C516.004883,532.398499 516.004883,524.133972 516.036926,515.396790 
	C516.068970,514.924133 516.000000,514.997559 516.437134,515.001282 
	C533.886047,515.005005 550.897888,515.005005 568.069946,515.005005 
	C568.069946,505.847748 568.069946,497.388916 568.034912,488.966217 
	C567.999939,489.002380 567.930969,489.075836 567.930969,489.075836 
z"/>
<path fill="#FFFFFF" opacity="1.000000" stroke="none" 
	d="
M541.597839,437.962585 
	C542.044800,446.328522 542.019714,454.726990 541.996155,463.562836 
	C541.997742,464.000214 542.069946,463.930054 541.597900,463.962555 
	C507.060547,463.973389 472.995300,463.951721 438.966248,463.965057 
	C439.002441,464.000092 439.075867,464.069031 439.075867,464.069031 
	C439.075867,455.600677 439.075867,447.132294 439.075867,437.995087 
	C473.125305,437.995087 507.125549,437.995087 541.597839,437.962585 
z"/>
<path fill="#FFFFFF" opacity="1.000000" stroke="none" 
	d="
M387.037415,592.597900 
	C361.671417,593.048279 336.272858,593.026611 310.402191,593.037476 
	C309.930054,575.943848 309.930054,558.817810 309.930054,541.345947 
	C318.483398,541.345947 326.881409,541.345947 335.841125,541.345947 
	C335.841125,549.572021 335.841125,558.097656 335.841125,566.973389 
	C353.113770,566.973389 369.832245,566.973389 387.004913,566.973389 
	C387.004913,575.596375 387.004913,583.861084 387.037415,592.597900 
z"/>
<path fill="#FFFFFF" opacity="1.000000" stroke="none" 
	d="
M618.957153,722.034180 
	C627.396606,722.068542 635.872742,722.068542 644.724243,722.068542 
	C644.724243,704.809082 644.724243,687.750488 644.724243,670.346680 
	C653.485657,670.346680 661.887146,670.346680 670.645325,670.346680 
	C670.645325,695.579407 670.645325,721.077820 670.645325,746.788940 
	C653.574341,746.788940 636.519287,746.788940 619.004456,746.788940 
	C619.004456,738.742981 619.004456,730.807251 619.033569,722.399109 
	C619.062622,721.926697 618.993774,721.999817 618.957153,722.034180 
z"/>
<path fill="#FFFFFF" opacity="1.000000" stroke="none" 
	d="
M489.965790,359.957031 
	C489.931458,368.394226 489.931458,376.868134 489.931458,385.727905 
	C481.814728,385.727905 473.745819,385.727905 465.293945,385.727905 
	C465.293945,394.496857 465.293945,402.898346 465.293945,411.649048 
	C456.525604,411.649048 448.125916,411.649048 439.362183,411.649048 
	C439.362183,394.766693 439.362183,377.597412 439.362183,360.004486 
	C455.952301,360.004486 472.540375,360.004486 489.600891,360.033508 
	C490.073334,360.062500 490.000122,359.993683 489.965790,359.957031 
z"/>
<path fill="#FFFFFF" opacity="1.000000" stroke="none" 
	d="
M697.044800,592.965332 
	C688.609741,592.931030 680.138000,592.931030 671.333252,592.931030 
	C671.333252,575.832764 671.333252,558.784607 671.333252,541.367920 
	C679.562195,541.367920 688.073303,541.367920 696.995667,541.367920 
	C696.995667,558.295654 696.995667,575.211853 696.967529,592.600464 
	C696.939331,593.072815 697.008118,592.999634 697.044800,592.965332 
z"/>
<path fill="#FFFFFF" opacity="1.000000" stroke="none" 
	d="
M309.926666,385.937500 
	C309.926666,403.061340 309.926666,420.185211 309.926666,437.980957 
	C301.514954,437.980957 293.114105,437.980957 284.216736,437.863586 
	C283.720276,437.746216 283.802826,437.819305 283.837708,437.850037 
	C283.872589,420.829224 283.872589,403.777710 283.872589,386.005615 
	C292.406097,386.005615 300.765656,386.005615 309.562531,386.005981 
	C309.999878,386.006317 309.926666,385.937500 309.926666,385.937500 
z"/>
<path fill="#FFFFFF" opacity="1.000000" stroke="none" 
	d="
M257.962585,644.402100 
	C274.995270,643.951660 292.060455,643.973328 309.597809,643.962524 
	C310.069946,652.394287 310.069946,660.858521 310.069946,669.661133 
	C292.737152,669.661133 275.585938,669.661133 257.995087,669.661133 
	C257.995087,661.389038 257.995087,653.131653 257.962585,644.402100 
z"/>
<path fill="#FFFFFF" opacity="1.000000" stroke="none" 
	d="
M425.007751,696.000000 
	C429.812469,696.000000 434.121887,696.000000 438.714691,696.000000 
	C438.714691,704.619751 438.714691,713.023865 438.714691,721.715454 
	C430.378601,721.715454 421.974518,721.715454 413.283722,721.715454 
	C413.283722,713.376953 413.283722,704.972900 413.283722,696.000000 
	C416.972534,696.000000 420.742493,696.000000 425.007751,696.000000 
z"/>
<path fill="#FFFFFF" opacity="1.000000" stroke="none" 
	d="
M154.962555,489.402161 
	C163.328613,488.951752 171.727158,488.973419 180.597839,488.962585 
	C181.048279,497.328613 181.026611,505.727173 181.037445,514.597839 
	C172.623718,515.069946 164.177475,515.069946 154.995056,515.069946 
	C154.995056,506.596863 154.995056,498.235565 154.962555,489.402161 
z"/>
<path fill="#FFFFFF" opacity="1.000000" stroke="none" 
	d="
M207.037445,540.597900 
	C198.623718,541.069946 190.177490,541.069946 180.995041,541.069946 
	C180.995041,532.596863 180.995041,524.235596 180.962555,515.402161 
	C189.376282,514.930054 197.822525,514.930054 207.004944,514.930054 
	C207.004944,523.403137 207.004944,531.764465 207.037445,540.597900 
z"/>
<path fill="#FFFFFF" opacity="1.000000" stroke="none" 
	d="
M696.597900,617.962524 
	C697.048279,626.328613 697.026611,634.727173 697.037476,643.597839 
	C688.612244,644.069946 680.154480,644.069946 671.348633,644.069946 
	C671.348633,635.414124 671.348633,626.915833 671.348633,617.995056 
	C679.624084,617.995056 687.874939,617.995056 696.597900,617.962524 
z"/>
<path fill="#FFFFFF" opacity="1.000000" stroke="none" 
	d="
M387.034607,464.039124 
	C387.069061,455.617218 387.069061,447.158600 387.069061,438.350037 
	C395.583405,438.350037 404.081818,438.350037 412.994659,438.350037 
	C412.994659,446.622925 412.994659,454.874146 412.996155,463.562775 
	C412.997620,464.000153 413.069946,463.930054 412.597870,463.962555 
	C403.727203,463.973389 395.328644,463.951721 386.930054,463.930054 
	C386.930054,463.930054 387.000122,464.002411 387.034607,464.039124 
z"/>
<path fill="#FFFFFF" opacity="1.000000" stroke="none" 
	d="
M696.962524,644.402100 
	C705.328613,643.951721 713.727173,643.973389 722.597839,643.962524 
	C723.069946,652.387756 723.069946,660.845520 723.069946,669.651367 
	C714.414124,669.651367 705.915833,669.651367 696.995056,669.651367 
	C696.995056,661.375916 696.995056,653.125061 696.962524,644.402100 
z"/>
<path fill="#FFFFFF" opacity="1.000000" stroke="none" 
	d="
M386.965790,385.957031 
	C386.931458,394.487579 386.931458,403.054779 386.931458,411.994385 
	C378.355530,411.994385 370.115173,411.994385 361.437469,411.994019 
	C361.000122,411.993683 361.073334,412.062500 361.073334,412.062500 
	C361.073334,403.617615 361.073334,395.172729 361.073334,386.004486 
	C369.406097,386.004486 377.767273,386.004486 386.600891,386.033508 
	C387.073334,386.062500 387.000122,385.993683 386.965790,385.957031 
z"/>
<path fill="#FFFFFF" opacity="1.000000" stroke="none" 
	d="
M310.034210,386.042969 
	C310.068542,377.614655 310.068542,369.149658 310.068542,360.342407 
	C318.482971,360.342407 326.873383,360.342407 335.632690,360.342407 
	C335.632690,368.555603 335.632690,377.060394 335.632690,385.995514 
	C327.386719,385.995514 319.129150,385.995514 310.399109,385.966492 
	C309.926666,385.937500 309.999878,386.006317 310.034210,386.042969 
z"/>
<path fill="#FFFFFF" opacity="1.000000" stroke="none" 
	d="
M360.965790,411.957031 
	C360.931458,420.384949 360.931458,428.849548 360.931458,437.657013 
	C352.851837,437.657013 344.794098,437.657013 336.367310,437.657013 
	C336.367310,429.444824 336.367310,420.940430 336.367310,412.004486 
	C344.278931,412.004486 352.203705,412.004486 360.600891,412.033508 
	C361.073334,412.062500 361.000122,411.993683 360.965790,411.957031 
z"/>
<path fill="#FFFFFF" opacity="1.000000" stroke="none" 
	d="
M257.955750,722.034058 
	C266.383911,722.068420 274.848724,722.068420 283.656677,722.068420 
	C283.656677,730.147583 283.656677,738.205383 283.656677,746.632446 
	C275.445068,746.632446 266.941040,746.632446 258.004395,746.632446 
	C258.004395,738.721130 258.004395,730.796326 258.032806,722.399048 
	C258.061218,721.926575 257.992432,721.999756 257.955750,722.034058 
z"/>
<path fill="#FFFFFF" opacity="1.000000" stroke="none" 
	d="
M181.402130,489.037415 
	C180.951721,481.004730 180.973389,472.939514 180.962555,464.402161 
	C189.328613,463.951721 197.727158,463.973389 206.597839,463.962555 
	C207.069946,472.043701 207.069946,480.157349 207.069946,489.004913 
	C198.595337,489.004913 190.234772,489.004913 181.402130,489.037415 
z"/>
<path fill="#FFFFFF" opacity="1.000000" stroke="none" 
	d="
M439.039124,488.965393 
	C430.673706,488.952301 422.271545,488.973694 413.396790,488.963013 
	C412.924133,488.930969 412.997559,488.999908 413.001282,488.562805 
	C413.026642,480.060486 413.048309,471.995270 413.069946,463.930054 
	C413.069946,463.930054 412.997620,464.000153 412.960876,464.034607 
	C421.326294,464.047668 429.728455,464.026276 438.603210,464.036957 
	C439.075867,464.069031 439.002441,464.000092 438.998749,464.437195 
	C438.973389,472.939514 438.951721,481.004730 438.930054,489.069946 
	C438.930054,489.069946 439.002411,488.999878 439.039124,488.965393 
z"/>
<path fill="#FFFFFF" opacity="1.000000" stroke="none" 
	d="
M594.402100,489.037445 
	C593.951721,481.004730 593.973389,472.939514 593.962524,464.402161 
	C602.042969,463.930054 610.155884,463.930054 619.004944,463.930054 
	C619.004944,472.069061 619.004944,480.097382 619.037476,488.597839 
	C611.004700,489.048279 602.939392,489.026611 594.402100,489.037445 
z"/>
<path fill="#FFFFFF" opacity="1.000000" stroke="none" 
	d="
M77.937157,464.073669 
	C86.380875,464.073669 94.824585,464.073669 104.008438,464.073669 
	C104.008438,480.686432 104.008438,497.321564 104.094925,514.379395 
	C104.181419,514.802185 104.254532,514.719604 104.254532,514.719604 
	C95.650833,514.719604 87.047142,514.719604 78.005608,514.719604 
	C78.005608,498.061493 78.005608,481.468323 78.005783,464.437805 
	C78.005951,464.000458 77.937157,464.073669 77.937157,464.073669 
z"/>
<path fill="#FFFFFF" opacity="1.000000" stroke="none" 
	d="
M78.042618,463.966125 
	C69.614334,463.931793 61.149376,463.931793 52.342278,463.931793 
	C52.342278,455.516937 52.342278,447.126404 52.342278,438.367126 
	C60.555672,438.367126 69.060547,438.367126 77.995491,438.367126 
	C77.995491,446.613525 77.995491,454.871124 77.966324,463.601196 
	C77.937157,464.073669 78.005951,464.000458 78.042618,463.966125 
z"/>
<path fill="#FFFFFF" opacity="1.000000" stroke="none" 
	d="
M154.597870,463.962585 
	C155.048279,471.995270 155.026611,480.060486 155.037445,488.597839 
	C146.612610,489.069946 138.155289,489.069946 129.349121,489.069946 
	C129.349121,480.748108 129.349121,472.582428 129.349121,463.995087 
	C137.624786,463.995087 145.875290,463.995087 154.597870,463.962585 
z"/>
<path fill="#FFFFFF" opacity="1.000000" stroke="none" 
	d="
M104.033554,541.043884 
	C104.051613,532.624573 104.035355,524.168518 104.136810,515.216064 
	C104.254532,514.719604 104.181419,514.802185 104.150719,514.837036 
	C112.250496,514.871948 120.380981,514.871948 128.754028,514.871948 
	C128.754028,523.703552 128.754028,532.108215 128.754028,540.995605 
	C120.757370,540.995605 112.814217,540.995605 104.398544,540.967041 
	C103.926025,540.938416 103.999245,541.007202 104.033554,541.043884 
z"/>
<path fill="#FDFDFD" opacity="1.000000" stroke="none" 
	d="
M664.000000,179.997910 
	C649.037659,179.997910 634.575256,179.997910 619.909180,179.997910 
	C619.909180,136.876404 619.909180,94.150650 619.909180,51.213448 
	C662.678955,51.213448 705.280518,51.213448 748.189453,51.213448 
	C748.189453,93.995255 748.189453,136.725388 748.189453,179.997910 
	C720.394714,179.997910 692.447388,179.997910 664.000000,179.997910 
M695.500000,76.904480 
	C678.759583,76.904480 662.019165,76.904480 645.358887,76.904480 
	C645.358887,103.012596 645.358887,128.423859 645.358887,153.774628 
	C671.167725,153.774628 696.701172,153.774628 722.230347,153.774628 
	C722.230347,128.003494 722.230347,102.583420 722.230347,76.904480 
	C713.471252,76.904480 704.985657,76.904480 695.500000,76.904480 
z"/>
<path fill="#FDFDFD" opacity="1.000000" stroke="none" 
	d="
M132.000000,51.003063 
	C148.610001,51.003063 164.720001,51.003063 180.994507,51.003063 
	C180.994507,94.063805 180.994507,136.664383 180.994507,179.631042 
	C138.248489,179.631042 95.417900,179.631042 52.378967,179.631042 
	C52.378967,136.938324 52.378967,94.352257 52.378967,51.003063 
	C78.713318,51.003063 105.106659,51.003063 132.000000,51.003063 
M77.909149,119.499977 
	C77.909149,130.932205 77.909149,142.364441 77.909149,153.781967 
	C103.925728,153.781967 129.445297,153.781967 154.871048,153.781967 
	C154.871048,128.042572 154.871048,102.641708 154.871048,77.244415 
	C129.100540,77.244415 103.580223,77.244415 77.909149,77.244415 
	C77.909149,91.219475 77.909149,104.859726 77.909149,119.499977 
z"/>
<path fill="#FCFCFC" opacity="1.000000" stroke="none" 
	d="
M181.169815,656.000122 
	C181.169815,686.474243 181.169815,716.448364 181.169815,746.796082 
	C138.244217,746.796082 95.419464,746.796082 52.379444,746.796082 
	C52.379444,704.131287 52.379444,661.566895 52.379444,618.650513 
	C95.236099,618.650513 137.937500,618.650513 181.169815,618.650513 
	C181.169815,630.963196 181.169815,643.231628 181.169815,656.000122 
M136.498856,721.512451 
	C142.620911,721.512451 148.742950,721.512451 154.781677,721.512451 
	C154.781677,695.416260 154.781677,669.860168 154.781677,644.354614 
	C129.029297,644.354614 103.619896,644.354614 78.244965,644.354614 
	C78.244965,670.159973 78.244965,695.695068 78.244965,721.512390 
	C97.555138,721.512390 116.527122,721.512390 136.498856,721.512451 
z"/>
<path fill="#FFFFFF" opacity="1.000000" stroke="none" 
	d="
M619.402100,412.037415 
	C618.951721,403.671387 618.973389,395.272858 618.962524,386.402161 
	C636.059998,385.930054 653.189941,385.930054 670.706116,385.930054 
	C670.706116,377.503510 670.706116,369.101349 670.706116,360.350525 
	C679.475769,360.350525 687.875916,360.350525 697.004944,360.350525 
	C697.004944,394.419556 697.004944,428.772614 697.037476,463.597809 
	C679.943726,464.069946 662.817505,464.069946 645.345764,464.069946 
	C645.345764,455.516113 645.345764,447.118042 645.345764,438.158173 
	C653.572754,438.158173 662.098450,438.158173 670.804138,438.158173 
	C670.804138,429.205200 670.804138,420.811859 670.804138,412.004913 
	C653.710022,412.004913 636.792114,412.004913 619.402100,412.037415 
z"/>
<path fill="#FFFFFF" opacity="1.000000" stroke="none" 
	d="
M78.037445,308.597839 
	C69.671394,309.048279 61.272842,309.026611 52.402176,309.037445 
	C51.930061,291.851257 51.930061,274.632538 51.930061,256.995056 
	C60.621746,256.995056 68.873734,256.995056 77.597824,256.962555 
	C78.048271,273.995300 78.026611,291.060516 78.037445,308.597839 
z"/>
<path fill="#FFFFFF" opacity="1.000000" stroke="none" 
	d="
M103.956772,257.033142 
	C112.052277,257.067474 120.184433,257.067474 128.658203,257.067474 
	C128.658203,265.483887 128.658203,273.873993 128.658203,282.632812 
	C120.777626,282.632812 112.605568,282.632812 104.004471,282.632812 
	C104.004471,274.385437 104.004471,266.128143 104.033340,257.398224 
	C104.062218,256.925629 103.993431,256.998810 103.956772,257.033142 
z"/>
<path fill="#FFFFFF" opacity="1.000000" stroke="none" 
	d="
M181.039154,359.965454 
	C172.617157,359.930969 164.158447,359.930969 155.349915,359.930969 
	C155.349915,351.748871 155.349915,343.582703 155.349915,335.004883 
	C163.627045,335.004883 171.878830,335.004883 180.603271,335.036926 
	C181.075912,335.068970 181.002487,335.000031 180.998779,335.437164 
	C180.973389,343.939514 180.951721,352.004730 180.930054,360.069946 
	C180.930054,360.069946 181.002426,359.999908 181.039154,359.965454 
z"/>
<path fill="#FFFFFF" opacity="1.000000" stroke="none" 
	d="
M336.402161,154.037445 
	C335.930054,145.623764 335.930054,137.177582 335.930054,128.004944 
	C327.597321,128.004944 319.235809,128.004944 310.402161,128.037445 
	C309.930054,119.939476 309.930054,111.809006 309.930054,103.308426 
	C318.487061,103.308426 326.878632,103.308426 335.815369,103.308426 
	C335.815369,94.450035 335.815369,85.933365 335.815369,76.995049 
	C344.278168,76.995049 352.201935,76.995049 360.597839,76.962555 
	C361.069946,93.815529 361.069946,110.700996 361.069946,127.995049 
	C369.622375,127.995049 377.874054,127.995049 386.597839,127.962555 
	C387.048279,136.328613 387.026611,144.727173 387.037445,153.597839 
	C370.338043,154.048279 353.606140,154.026611 336.402161,154.037445 
z"/>
<path fill="#FFFFFF" opacity="1.000000" stroke="none" 
	d="
M361.402161,77.037445 
	C360.951721,68.671394 360.973389,60.272842 360.962555,51.402176 
	C369.387726,50.930061 377.845398,50.930061 386.651367,50.930061 
	C386.651367,59.585880 386.651367,68.084206 386.651367,77.004951 
	C378.375916,77.004951 370.125061,77.004951 361.402161,77.037445 
z"/>
<path fill="#FFFFFF" opacity="1.000000" stroke="none" 
	d="
M412.931030,180.075912 
	C421.377533,180.075912 429.824036,180.075912 438.995117,180.075912 
	C438.995117,188.405701 438.995117,196.768158 438.963074,205.603271 
	C438.931030,206.075912 438.999969,206.002487 438.562836,205.998779 
	C429.764191,205.995056 421.402679,205.995056 413.069946,205.995056 
	C413.069946,196.822418 413.069946,188.376236 413.034973,179.966278 
	C412.999969,180.002487 412.931030,180.075912 412.931030,180.075912 
z"/>
<path fill="#FFFFFF" opacity="1.000000" stroke="none" 
	d="
M386.962585,154.402130 
	C395.328613,153.951706 403.727142,153.973373 412.597809,153.962555 
	C413.044983,162.330246 413.020050,170.730438 412.963074,179.603271 
	C412.931030,180.075912 412.999969,180.002487 412.562836,179.998779 
	C403.727142,179.973389 395.328613,179.951721 386.930054,179.930054 
	C386.930054,179.930054 387.000122,180.002441 387.034607,180.039154 
	C387.044403,171.675323 387.019745,163.274765 386.962585,154.402130 
z"/>
<path fill="#FFFFFF" opacity="1.000000" stroke="none" 
	d="
M257.962585,180.402130 
	C266.328613,179.951721 274.727142,179.973389 283.597839,179.962555 
	C284.048279,188.328613 284.026611,196.727158 284.037445,205.597839 
	C275.623718,206.069946 267.177460,206.069946 257.995087,206.069946 
	C257.995087,197.596878 257.995087,189.235535 257.962585,180.402130 
z"/>
<path fill="#FFFFFF" opacity="1.000000" stroke="none" 
	d="
M567.597900,463.962585 
	C568.045044,471.996887 568.020081,480.063751 567.963013,488.603210 
	C567.930969,489.075836 567.999939,489.002380 567.562866,488.998718 
	C558.765015,488.995056 550.404236,488.995056 542.069946,488.995056 
	C542.069946,480.157257 542.069946,472.043640 542.069946,463.930054 
	C542.069946,463.930054 541.997742,464.000214 541.961060,464.034668 
	C550.324829,464.044464 558.725281,464.019775 567.597900,463.962585 
z"/>
<path fill="#000000" opacity="1.000000" stroke="none" 
	d="
M386.962585,180.402130 
	C395.328613,179.951721 403.727142,179.973389 412.597839,179.962555 
	C413.069946,188.376236 413.069946,196.822418 413.069946,205.995056 
	C421.402679,205.995056 429.764191,205.995056 438.597839,205.962555 
	C439.069946,222.724930 439.069946,239.519806 439.069946,256.657227 
	C421.728119,256.657227 404.560425,256.657227 386.995087,256.657227 
	C386.995087,231.357407 386.995087,206.115814 386.962585,180.402130 
z"/>
<path fill="#000000" opacity="1.000000" stroke="none" 
	d="
M372.016296,309.000000 
	C368.207977,309.000000 364.896210,309.000000 361.293060,309.000000 
	C361.293060,300.396393 361.293060,291.992218 361.293060,283.292480 
	C369.604797,283.292480 378.008972,283.292480 386.708099,283.292480 
	C386.708099,291.606018 386.708099,300.010162 386.708099,309.000000 
	C382.041107,309.000000 377.276947,309.000000 372.016296,309.000000 
z"/>
<path fill="#000000" opacity="1.000000" stroke="none" 
	d="
M309.957031,283.034210 
	C318.385345,283.068542 326.850342,283.068542 335.657593,283.068542 
	C335.657593,291.482971 335.657593,299.873383 335.657593,308.632690 
	C327.444397,308.632690 318.939606,308.632690 310.004486,308.632690 
	C310.004486,300.386719 310.004486,292.129150 310.033508,283.399109 
	C310.062500,282.926666 309.993683,282.999878 309.957031,283.034210 
z"/>
<path fill="#000000" opacity="1.000000" stroke="none" 
	d="
M335.957092,232.034119 
	C344.052063,232.068451 352.183716,232.068451 360.657623,232.068451 
	C360.657623,240.149033 360.657623,248.206451 360.657623,256.632721 
	C352.778137,256.632721 344.606567,256.632721 336.004486,256.632721 
	C336.004486,248.720215 336.004486,240.795837 336.033508,232.399017 
	C336.062561,231.926575 335.993744,231.999786 335.957092,232.034119 
z"/>
<path fill="#000000" opacity="1.000000" stroke="none" 
	d="
M181.402130,360.037415 
	C180.951721,352.004730 180.973389,343.939514 180.962555,335.402161 
	C189.387390,334.930054 197.844711,334.930054 206.650879,334.930054 
	C206.650879,343.251892 206.650879,351.417572 206.650879,360.004913 
	C198.375214,360.004913 190.124710,360.004913 181.402130,360.037415 
z"/>
<path fill="#000000" opacity="1.000000" stroke="none" 
	d="
M597.166138,617.999878 
	C593.801147,618.488831 593.966248,616.615906 593.980225,614.670105 
	C594.030579,607.677795 594.000061,600.684937 594.000061,593.346313 
	C602.159912,593.346313 610.235107,593.346313 618.656372,593.346313 
	C618.656372,601.165466 618.656372,609.240479 618.656372,618.000000 
	C611.823120,618.000000 604.737366,618.000000 597.166138,617.999878 
z"/>
<path fill="#000000" opacity="1.000000" stroke="none" 
	d="
M412.597900,463.962555 
	C413.048309,471.995270 413.026642,480.060486 413.037476,488.597839 
	C404.624695,489.069946 396.179474,489.069946 386.995056,489.069946 
	C386.995056,480.931427 386.995056,472.902863 386.962555,464.402161 
	C395.328644,463.951721 403.727203,463.973389 412.597900,463.962555 
z"/>
<path fill="#000000" opacity="1.000000" stroke="none" 
	d="
M541.597900,463.962555 
	C542.069946,472.043640 542.069946,480.157257 542.069946,488.995056 
	C550.404236,488.995056 558.765015,488.995056 567.597839,488.962555 
	C568.069946,497.388916 568.069946,505.847748 568.069946,515.005005 
	C550.897888,515.005005 533.886047,515.005005 516.402161,515.037476 
	C515.930054,506.605164 515.930054,498.140381 515.930054,489.004944 
	C490.550293,489.004944 465.212311,489.004944 439.402191,489.037445 
	C438.951721,481.004730 438.973389,472.939514 438.962555,464.402161 
	C472.995300,463.951721 507.060547,463.973389 541.597900,463.962555 
z"/>
<path fill="#020202" opacity="1.000000" stroke="none" 
	d="
M696.000000,76.904480 
	C704.985657,76.904480 713.471252,76.904480 722.230347,76.904480 
	C722.230347,102.583420 722.230347,128.003494 722.230347,153.774628 
	C696.701172,153.774628 671.167725,153.774628 645.358887,153.774628 
	C645.358887,128.423859 645.358887,103.012596 645.358887,76.904480 
	C662.019165,76.904480 678.759583,76.904480 696.000000,76.904480 
z"/>
<path fill="#000000" opacity="1.000000" stroke="none" 
	d="
M77.909149,118.999969 
	C77.909149,104.859726 77.909149,91.219475 77.909149,77.244415 
	C103.580223,77.244415 129.100540,77.244415 154.871048,77.244415 
	C154.871048,102.641708 154.871048,128.042572 154.871048,153.781967 
	C129.445297,153.781967 103.925728,153.781967 77.909149,153.781967 
	C77.909149,142.364441 77.909149,130.932205 77.909149,118.999969 
z"/>
<path fill="#020202" opacity="1.000000" stroke="none" 
	d="
M135.998993,721.512451 
	C116.527122,721.512390 97.555138,721.512390 78.244965,721.512390 
	C78.244965,695.695068 78.244965,670.159973 78.244965,644.354614 
	C103.619896,644.354614 129.029297,644.354614 154.781677,644.354614 
	C154.781677,669.860168 154.781677,695.416260 154.781677,721.512451 
	C148.742950,721.512451 142.620911,721.512451 135.998993,721.512451 
z"/>
</svg>