<svg version="1.1" id="Layer_1" xmlns="http://www.w3.org/2000/svg" xmlns:xlink="http://www.w3.org/1999/xlink" x="0px" y="0px"
	 width="100%" viewBox="0 0 800 800" enable-background="new 0 0 800 800" xml:space="preserve">
<path fill="#FEFEFE" opacity="1.000000" stroke="none" 
	d="
M1.000000,215.000000 
	C1.000000,143.333328 1.000000,72.166664 1.000000,1.000000 
	C267.666656,1.000000 534.333313,1.000000 801.000000,1.000000 
	C801.000000,267.666656 801.000000,534.333313 801.000000,801.000000 
	C534.333313,801.000000 267.666656,801.000000 1.000000,801.000000 
	C1.000000,605.833313 1.000000,410.666656 1.000000,215.000000 
M308.869568,746.994019 
	C316.938293,746.973083 325.007019,746.952087 333.006409,747.874817 
	C333.006409,755.807068 333.006409,763.739380 333.006409,771.673218 
	C376.259674,771.673218 419.058899,771.673218 461.924194,771.673218 
	C461.924194,763.208923 461.924194,755.070068 462.869568,746.994019 
	C496.778168,746.994019 530.686768,746.994019 564.635010,746.994019 
	C564.635010,738.089783 564.635010,729.573730 564.635010,720.702332 
	C538.888794,720.702332 513.505859,720.702332 487.740112,720.702332 
	C487.740112,711.936829 487.740112,703.532410 487.740112,695.068848 
	C478.875671,695.068848 470.399963,695.068848 461.993591,694.125183 
	C461.993591,685.859070 461.993591,677.592957 461.993591,668.949158 
	C470.848999,668.949158 479.250183,668.949158 488.026764,668.949158 
	C488.026764,660.505066 488.026764,652.435303 488.026764,644.193909 
	C496.807892,644.193909 505.202667,644.193909 514.159912,644.193909 
	C514.159912,652.567139 514.159912,660.761841 514.159912,669.312927 
	C522.789978,669.312927 530.859131,669.312927 539.293091,669.312927 
	C539.293091,678.098694 539.293091,686.500305 539.293091,695.087830 
	C556.805786,695.087830 573.933289,695.087830 590.992371,695.014587 
	C590.992371,695.014587 590.919312,694.946045 590.995361,695.887390 
	C590.995361,704.157043 590.995361,712.426758 590.995361,720.769531 
	C608.544861,720.769531 625.605164,720.769531 643.048340,720.769531 
	C643.048340,703.480652 643.048340,686.417114 643.048340,668.965881 
	C651.495728,668.965881 659.570435,668.965881 668.015991,668.965881 
	C668.015991,651.847168 668.015991,635.116150 668.015991,618.195007 
	C676.800110,618.195007 685.199768,618.195007 694.160522,618.195007 
	C694.160522,635.235291 694.160522,652.088562 694.160522,668.658875 
	C720.111755,668.658875 745.501282,668.658875 770.670410,668.658875 
	C770.670410,651.588562 770.670410,634.859558 770.670410,617.753174 
	C753.612854,617.753174 736.882080,617.753174 720.087830,617.753174 
	C720.087830,608.892456 720.087830,600.415833 720.014587,592.007629 
	C720.014587,592.007629 719.946045,592.080688 720.887390,592.004639 
	C729.136780,592.004639 737.386169,592.004639 745.924316,592.004639 
	C745.924316,574.362305 745.924316,557.146790 746.869690,539.994080 
	C754.788025,539.994080 762.706360,539.994080 770.649353,539.994080 
	C770.649353,531.416931 770.649353,523.251709 770.649353,515.068726 
	C762.174683,515.068726 754.049500,515.068726 745.993591,514.125061 
	C745.971130,505.729126 745.948669,497.333160 746.871277,488.994415 
	C754.795532,488.994415 762.719788,488.994415 770.631775,488.994415 
	C770.631775,480.059631 770.631775,471.555786 770.631775,463.344177 
	C762.205811,463.344177 754.148682,463.344177 746.067993,463.344177 
	C746.067993,472.151184 746.067993,480.615204 745.124634,489.006653 
	C728.209717,489.006653 711.294861,489.006653 693.825195,489.006653 
	C693.825195,480.082855 693.825195,471.558746 693.825195,463.332703 
	C676.552368,463.332703 659.838013,463.332703 643.068848,463.332703 
	C643.068848,472.134613 643.068848,480.605194 642.125183,489.006409 
	C633.727173,489.029541 625.329163,489.052673 616.994019,488.130432 
	C616.994019,471.218658 616.994019,454.306854 616.994019,436.864990 
	C634.218872,436.864990 651.052490,436.864990 667.931152,436.864990 
	C667.931152,428.196289 667.931152,420.060272 668.874878,411.993591 
	C685.816833,411.993591 702.758789,411.993591 720.097412,411.993591 
	C720.097412,420.558563 720.097412,428.637573 720.097412,436.744934 
	C737.238403,436.744934 753.976868,436.744934 770.739746,436.744934 
	C770.739746,419.751099 770.739746,403.012573 770.739746,385.875153 
	C762.408875,385.875153 754.331299,385.875153 745.864136,385.875153 
	C745.864136,377.068542 745.864136,368.658112 745.864136,360.274353 
	C737.054260,360.274353 728.648193,360.274353 719.846924,360.274353 
	C719.846924,368.953369 719.846924,377.365997 719.846924,385.719696 
	C711.035950,385.719696 702.629333,385.719696 693.828491,385.719696 
	C693.828491,377.032013 693.828491,368.619324 693.828491,359.821808 
	C685.020691,359.821808 676.608398,359.821808 668.292908,359.821808 
	C668.292908,351.010498 668.292908,342.603577 668.292908,333.803406 
	C676.993896,333.803406 685.406128,333.803406 694.203308,333.803406 
	C694.203308,325.328156 694.203308,317.248047 694.203308,308.785645 
	C703.012207,308.785645 711.424988,308.785645 719.926270,308.785645 
	C719.926270,299.902496 719.926270,291.419861 720.871277,282.994415 
	C729.135010,282.994415 737.398682,282.994415 745.631775,282.994415 
	C745.631775,265.383728 745.631775,248.220428 745.631775,231.353577 
	C736.866089,231.353577 728.469299,231.353577 720.067993,231.353577 
	C720.067993,248.830414 720.067993,265.954834 719.124634,283.006653 
	C710.848389,283.006653 702.572144,283.006653 693.902710,283.006653 
	C693.902710,265.441223 693.902710,248.365509 693.902710,231.254868 
	C685.094055,231.254868 676.688660,231.254868 667.885986,231.254868 
	C667.885986,239.913147 667.885986,248.324600 667.885986,256.739319 
	C659.409607,256.739319 651.336792,256.739319 642.867981,256.739319 
	C642.867981,248.072479 642.867981,239.662247 642.867981,231.272308 
	C634.058044,231.272308 625.652283,231.272308 616.851135,231.272308 
	C616.851135,239.949066 616.851135,248.361343 616.851135,256.721863 
	C608.040710,256.721863 599.634216,256.721863 590.833130,256.721863 
	C590.833130,248.036621 590.833130,239.623917 590.833130,230.826523 
	C582.025574,230.826523 573.612610,230.826523 564.815796,230.826523 
	C564.815796,213.686295 564.815796,196.943924 564.815796,180.298309 
	C556.005066,180.298309 547.598450,180.298309 538.799072,180.298309 
	C538.799072,189.002625 538.799072,197.415710 538.799072,205.695892 
	C530.320740,205.695892 522.246704,205.695892 513.781128,205.695892 
	C513.781128,196.983002 513.781128,188.570190 513.781128,180.075790 
	C504.897491,180.075790 496.414368,180.075790 487.994019,179.130432 
	C487.973083,170.726974 487.952148,162.323532 488.874695,153.993286 
	C514.119202,153.993286 539.363770,153.993286 564.676880,153.993286 
	C564.676880,119.447701 564.676880,85.298447 564.676880,51.073414 
	C555.882751,51.073414 547.410217,51.073414 538.994507,50.128452 
	C538.994507,41.871799 538.994507,33.615150 538.994507,25.368484 
	C530.394043,25.368484 522.222778,25.368484 514.343140,25.368484 
	C514.343140,34.126762 514.343140,42.516121 514.343140,50.931675 
	C522.816589,50.931675 530.948181,50.931675 539.006714,51.875053 
	C539.006714,60.124409 539.006714,68.373764 539.006714,77.154655 
	C530.430298,77.154655 522.252625,77.154655 513.912781,77.154655 
	C513.912781,85.815063 513.912781,93.937653 513.986023,101.991867 
	C513.986023,101.991867 514.054504,101.918785 513.113037,101.995300 
	C504.864105,101.995300 496.615173,101.995300 488.072968,101.995300 
	C488.072968,119.634300 488.072968,136.848206 487.128174,154.005539 
	C478.726868,154.026627 470.325531,154.047699 461.993591,153.125076 
	C461.993591,136.215881 461.993591,119.306679 461.993591,101.869804 
	C444.780792,101.869804 427.949036,101.869804 410.926910,101.869804 
	C410.926910,93.206039 410.926910,85.071938 411.871765,76.994469 
	C437.121094,76.994469 462.370453,76.994469 487.800171,76.994469 
	C487.800171,68.189926 487.800171,59.793522 487.800171,50.845181 
	C470.429779,50.845181 453.249756,50.845181 435.695923,50.845181 
	C435.695923,41.891037 435.695923,33.488968 435.695923,25.339956 
	C427.237091,25.339956 419.169434,25.339956 411.068604,25.339956 
	C411.068604,42.812405 411.068604,59.946133 410.125183,77.006721 
	C401.729370,77.028931 393.333557,77.051132 384.994476,76.128410 
	C384.994476,67.871361 384.994476,59.614319 384.994476,51.368500 
	C376.060242,51.368500 367.556122,51.368500 359.343750,51.368500 
	C359.343750,60.127327 359.343750,68.517174 359.343750,76.931595 
	C368.150787,76.931595 376.615265,76.931595 385.006683,77.874985 
	C385.006683,85.794464 385.006683,93.713943 385.006683,102.075768 
	C367.367065,102.075768 350.149139,102.075768 332.994049,101.130417 
	C332.994049,93.100677 332.994049,85.070946 332.994049,77.068405 
	C324.150146,77.068405 316.035187,77.068405 307.993317,76.125015 
	C307.993317,67.885094 307.993317,59.645176 307.993317,51.068275 
	C299.053955,51.068275 290.487152,51.068275 281.993317,50.124893 
	C281.993317,41.875294 281.993317,33.625694 281.993317,25.348251 
	C273.085968,25.348251 264.588928,25.348251 256.073303,25.348251 
	C256.073303,34.150955 256.073303,42.606628 255.128357,51.005543 
	C246.871323,51.005543 238.614288,51.005543 230.368484,51.005543 
	C230.368484,59.939770 230.368484,68.443909 230.368484,76.656235 
	C239.127319,76.656235 247.517181,76.656235 255.931564,76.656235 
	C255.931564,67.849243 255.931564,59.384762 256.874969,50.993294 
	C265.270752,50.971039 273.666565,50.948788 282.005524,51.871502 
	C282.005524,60.232254 282.005524,68.593010 282.005524,76.926666 
	C291.173370,76.926666 299.617798,76.926666 308.005524,77.871582 
	C308.026611,85.939667 308.047699,94.007744 307.125061,102.006432 
	C281.439667,102.006432 255.754242,102.006432 230.345490,102.006432 
	C230.345490,111.118118 230.345490,119.514015 230.345490,128.274796 
	C239.085785,128.274796 247.483826,128.274796 256.073242,128.274796 
	C256.073242,137.123962 256.073242,145.593124 255.128342,154.005554 
	C246.864655,154.005554 238.600967,154.005554 230.368500,154.005554 
	C230.368500,171.616486 230.368500,188.779709 230.368500,205.646240 
	C239.134323,205.646240 247.531082,205.646240 255.931519,205.646240 
	C255.931519,188.169174 255.931519,171.044724 256.874939,153.993301 
	C265.132233,153.993301 273.389557,153.993301 282.158630,153.993301 
	C282.158630,171.581055 282.158630,188.738281 282.158630,205.924210 
	C291.141296,205.924210 299.605011,205.924210 308.005981,206.869553 
	C308.026917,214.938293 308.047852,223.007034 307.125092,231.006409 
	C264.461853,231.006409 221.798630,231.006409 179.075790,231.006409 
	C179.075790,240.127533 179.075790,248.598145 178.130432,257.005951 
	C169.728363,257.026917 161.326294,257.047852 152.993576,256.125061 
	C152.993576,247.854507 152.993576,239.583969 152.993576,231.197174 
	C109.818123,231.197174 67.110275,231.197174 24.351574,231.197174 
	C24.351574,257.232819 24.351574,283.070831 24.351574,308.652222 
	C33.107735,308.652222 41.511158,308.652222 50.290901,308.652222 
	C50.290901,299.901611 50.290901,291.494995 50.290901,283.335754 
	C59.089043,283.335754 67.492340,283.335754 76.264450,283.335754 
	C76.264450,300.401123 76.264450,317.131409 76.264450,334.244720 
	C84.717522,334.244720 92.791283,334.244720 101.075768,334.244720 
	C101.075768,343.113983 101.075768,351.591370 100.130417,360.005951 
	C92.195236,360.005951 84.260048,360.005951 75.945091,360.005951 
	C75.945091,368.856750 75.945091,377.260712 75.945091,386.025879 
	C58.504597,386.025879 41.447159,386.025879 24.356236,386.025879 
	C24.356236,403.241882 24.356236,420.080902 24.356236,436.651794 
	C33.114086,436.651794 41.514820,436.651794 50.287994,436.651794 
	C50.287994,428.236389 50.287994,420.165588 50.287994,411.931244 
	C67.476135,411.931244 84.275963,411.931244 101.006424,412.874939 
	C101.027222,429.608551 101.048012,446.342133 100.125107,463.006409 
	C74.869736,463.006409 49.614365,463.006409 24.361141,463.006409 
	C24.361141,497.599762 24.361141,531.763794 24.361141,565.643188 
	C33.126690,565.643188 41.530354,565.643188 50.289238,565.643188 
	C50.289238,539.899902 50.289238,514.511658 50.289238,488.931244 
	C67.466270,488.931244 84.271034,488.931244 101.006432,489.874908 
	C101.028801,498.270691 101.051163,506.666473 100.128540,515.005493 
	C92.197838,515.005493 84.267136,515.005493 76.368454,515.005493 
	C76.368454,532.283508 76.368454,549.113281 76.368454,565.645996 
	C84.801399,565.645996 92.865250,565.645996 100.931778,565.645996 
	C100.931778,548.502197 100.931778,531.711243 101.875153,514.993286 
	C118.885185,514.993286 135.895218,514.993286 153.073441,514.993286 
	C153.073441,523.812317 153.073441,531.937317 152.128464,540.005493 
	C143.871414,540.005493 135.614365,540.005493 127.368484,540.005493 
	C127.368484,548.940247 127.368484,557.444031 127.368484,565.656250 
	C136.127289,565.656250 144.517136,565.656250 152.931702,565.656250 
	C152.931702,556.849243 152.931702,548.384705 153.875092,539.993286 
	C162.270752,539.971130 170.666397,539.949036 179.005524,540.871826 
	C179.005524,549.128845 179.005524,557.385864 179.005524,565.631470 
	C187.939865,565.631470 196.443954,565.631470 204.656158,565.631470 
	C204.656158,556.872559 204.656158,548.482849 204.656158,540.068665 
	C195.849045,540.068665 187.384537,540.068665 178.993286,539.125244 
	C178.993286,531.199768 178.993286,523.274292 178.993286,514.924377 
	C204.978363,514.924377 230.523529,514.924377 256.005920,515.869690 
	C256.026886,532.604980 256.047821,549.340332 255.125076,566.006409 
	C246.854538,566.006409 238.584000,566.006409 230.224457,566.006409 
	C230.224457,583.534058 230.224457,600.593567 230.224457,618.035034 
	C247.506073,618.035034 264.569366,618.035034 281.796814,618.035034 
	C281.796814,626.817932 281.796814,635.217163 281.796814,644.176086 
	C264.416168,644.176086 247.231461,644.176086 230.328278,644.176086 
	C230.328278,687.111877 230.328278,729.487244 230.328278,771.675537 
	C239.060364,771.675537 247.462402,771.675537 256.244690,771.675537 
	C256.244690,763.282532 256.244690,755.208740 256.244690,746.924377 
	C265.113953,746.924377 273.591339,746.924377 282.005951,747.869690 
	C282.005951,755.787903 282.005951,763.706116 282.005951,771.651367 
	C290.914368,771.651367 299.411682,771.651367 307.924194,771.651367 
	C307.924194,763.179626 307.924194,755.055420 308.869568,746.994019 
M746.005493,721.871704 
	C746.005493,730.128357 746.005493,738.385010 746.005493,746.631470 
	C754.605957,746.631470 762.777222,746.631470 770.656799,746.631470 
	C770.656799,737.873047 770.656799,729.483704 770.656799,721.068542 
	C762.183228,721.068542 754.051636,721.068542 745.993286,720.125122 
	C745.993286,711.855835 745.993286,703.586548 745.993286,695.218689 
	C728.472351,695.218689 711.415466,695.218689 693.969116,695.218689 
	C693.969116,703.831116 693.969116,712.235840 693.969116,721.020081 
	C685.184387,721.020081 676.779541,721.020081 667.994995,721.020081 
	C667.994995,729.804382 667.994995,738.209412 667.994995,746.994629 
	C659.544250,746.994629 651.471191,746.994629 643.364502,746.994629 
	C643.364502,755.573975 643.364502,763.757812 643.364502,771.663086 
	C669.113159,771.663086 694.497742,771.663086 720.256653,771.663086 
	C720.256653,754.601196 720.256653,737.873535 720.256653,720.926758 
	C729.111023,720.926758 737.586548,720.926758 746.005493,721.871704 
M711.499939,205.188919 
	C731.262756,205.188919 751.025574,205.188919 770.818115,205.188919 
	C770.818115,145.018692 770.818115,85.339645 770.818115,25.708496 
	C710.799011,25.708496 651.106567,25.708496 591.424805,25.708496 
	C591.424805,85.659210 591.424805,145.224243 591.424805,205.188919 
	C631.287170,205.188919 670.893494,205.188919 711.499939,205.188919 
M107.499931,205.186981 
	C139.746567,205.186981 171.993210,205.186981 204.008606,205.186981 
	C204.008606,144.864594 204.008606,85.278999 204.008606,25.667591 
	C144.112915,25.667591 84.554916,25.667591 24.897285,25.667591 
	C24.897285,85.598572 24.897285,145.187256 24.897285,205.186981 
	C52.251522,205.186981 79.375725,205.186981 107.499931,205.186981 
M24.667339,658.499817 
	C24.667339,696.250916 24.667339,734.001953 24.667339,771.861206 
	C84.787216,771.861206 144.367401,771.861206 204.145477,771.861206 
	C204.145477,711.914795 204.145477,652.183777 204.145477,592.276001 
	C144.294205,592.276001 84.568520,592.276001 24.667330,592.276001 
	C24.667330,614.200623 24.667330,635.850220 24.667339,658.499817 
M49.994953,335.715027 
	C49.397163,335.144928 48.806187,334.087036 48.200554,334.078583 
	C40.253235,333.967560 32.303844,334.004700 24.220127,334.004700 
	C24.220127,342.837616 24.220127,351.241058 24.220127,359.776917 
	C32.843765,359.776917 41.247242,359.776917 49.998585,359.776917 
	C49.998585,351.934021 49.998585,344.307861 49.994953,335.715027 
M593.678467,747.001404 
	C592.786499,747.779114 591.141296,748.536743 591.119995,749.337646 
	C590.921570,756.777771 591.002686,764.225281 591.002686,771.768433 
	C599.862244,771.768433 608.265259,771.768433 616.766052,771.768433 
	C616.766052,763.466370 616.766052,755.396545 616.766052,747.001099 
	C609.242798,747.001099 601.947632,747.001099 593.678467,747.001404 
M764.426514,333.998901 
	C766.531006,333.998901 768.635559,333.998901 770.735352,333.998901 
	C770.735352,325.401855 770.735352,317.331940 770.735352,309.265869 
	C762.399475,309.265869 754.329468,309.265869 746.267090,309.265869 
	C746.267090,317.603210 746.267090,325.672668 746.267090,333.998901 
	C752.166382,333.998901 757.803467,333.998901 764.426514,333.998901 
z"/>
<path fill="#000000" opacity="1.000000" stroke="none" 
	d="
M720.087830,591.939270 
	C720.087830,600.415833 720.087830,608.892456 720.087830,617.753174 
	C736.882080,617.753174 753.612854,617.753174 770.670410,617.753174 
	C770.670410,634.859558 770.670410,651.588562 770.670410,668.658875 
	C745.501282,668.658875 720.111755,668.658875 694.160522,668.658875 
	C694.160522,652.088562 694.160522,635.235291 694.160522,618.195007 
	C685.199768,618.195007 676.800110,618.195007 668.015991,618.195007 
	C668.015991,635.116150 668.015991,651.847168 668.015991,668.965881 
	C659.570435,668.965881 651.495728,668.965881 643.048340,668.965881 
	C643.048340,686.417114 643.048340,703.480652 643.048340,720.769531 
	C625.605164,720.769531 608.544861,720.769531 590.995361,720.769531 
	C590.995361,712.426758 590.995361,704.157043 591.430908,695.441711 
	C600.125244,694.996033 608.384033,694.996033 616.632080,694.996033 
	C616.632080,686.061279 616.632080,677.555908 616.632080,669.343994 
	C607.871277,669.343994 599.480042,669.343994 591.060730,669.343994 
	C591.060730,678.154480 591.060730,686.621155 591.060730,695.087830 
	C573.933289,695.087830 556.805786,695.087830 539.293091,695.087830 
	C539.293091,686.500305 539.293091,678.098694 539.293091,669.312927 
	C530.859131,669.312927 522.789978,669.312927 514.159912,669.312927 
	C514.159912,660.761841 514.159912,652.567139 514.159912,644.193909 
	C505.202667,644.193909 496.807892,644.193909 488.026764,644.193909 
	C488.026764,652.435303 488.026764,660.505066 488.026764,668.949158 
	C479.250183,668.949158 470.848999,668.949158 461.993591,668.949158 
	C461.993591,677.592957 461.993591,685.859070 461.995605,694.562622 
	C461.997650,695.000061 462.069946,694.930054 461.597870,694.962524 
	C452.857971,694.995056 444.590179,694.995056 435.942841,694.995056 
	C435.942841,686.143066 435.942841,677.739136 435.942841,669.214050 
	C427.490662,669.214050 419.427307,669.214050 410.813812,669.214050 
	C410.813812,686.598328 410.813812,703.776306 410.813812,721.328430 
	C401.860596,721.328430 393.457275,721.328430 385.350128,721.328430 
	C385.350128,730.121277 385.350128,738.522400 385.350128,747.069946 
	C411.156738,747.069946 436.613342,747.069946 462.033783,747.034973 
	C461.997620,747.000000 461.924194,746.931152 461.924194,746.931152 
	C461.924194,755.070068 461.924194,763.208923 461.924194,771.673218 
	C419.058899,771.673218 376.259674,771.673218 333.006409,771.673218 
	C333.006409,763.739380 333.006409,755.807068 333.004395,747.437378 
	C333.002350,746.999939 332.930054,747.069946 333.402130,747.037476 
	C342.150360,747.004944 350.426483,747.004944 359.094879,747.004944 
	C359.094879,729.441345 359.094879,712.366028 359.094879,694.897583 
	C367.899170,694.897583 376.311707,694.897583 385.110016,694.897583 
	C385.110016,677.759277 385.110016,661.017151 385.110016,643.883240 
	C410.914490,643.883240 436.321320,643.883240 461.737671,643.883240 
	C461.737671,635.075317 461.737671,626.669434 461.737671,617.869263 
	C427.404663,617.869263 393.331940,617.869263 359.269104,617.869263 
	C359.269104,609.061157 359.269104,600.655396 359.269104,592.271423 
	C402.276001,592.271423 445.013275,592.271423 488.150085,592.271423 
	C488.150085,600.948242 488.150085,609.360291 488.150085,617.720581 
	C496.959656,617.720581 505.365814,617.720581 514.166016,617.720581 
	C514.166016,609.035339 514.166016,600.622803 514.166016,591.825989 
	C522.639587,591.825989 530.719177,591.825989 538.709045,591.825989 
	C538.709045,574.351685 538.709045,557.279541 538.709045,540.294922 
	C530.341614,540.294922 522.268372,540.294922 513.802856,540.294922 
	C513.802856,548.996765 513.802856,557.408813 513.802856,565.697510 
	C496.328308,565.697510 479.255981,565.697510 462.306488,565.697510 
	C462.306488,556.984924 462.306488,548.577698 462.306488,539.779785 
	C471.020569,539.779785 479.433228,539.779785 488.069946,539.779785 
	C488.069946,531.230042 488.069946,523.080017 488.034973,514.965027 
	C488.000000,515.000000 487.930054,515.069946 488.402161,515.037476 
	C531.538452,515.004944 574.202637,515.004944 617.069946,515.004944 
	C617.069946,505.872437 617.069946,497.401245 617.034973,488.966217 
	C617.000000,489.002380 616.931152,489.075806 616.931152,489.075806 
	C625.329163,489.052673 633.727173,489.029541 642.562622,489.004395 
	C643.000061,489.002350 642.930054,488.930054 642.962524,489.402130 
	C642.995056,498.234772 642.995056,506.595337 642.995056,515.069946 
	C651.842651,515.069946 659.956299,515.069946 668.034973,515.034973 
	C668.000000,515.000000 667.930054,514.930054 667.962524,515.402161 
	C667.995056,523.799866 667.995056,531.725464 667.995056,540.069946 
	C694.313293,540.069946 720.191589,540.069946 746.033813,540.035034 
	C745.997620,540.000061 745.924316,539.931274 745.924316,539.931274 
	C745.924316,557.146790 745.924316,574.362305 745.924316,592.004639 
	C737.386169,592.004639 729.136780,592.004639 720.441711,591.569092 
	C719.996033,582.868530 719.996033,574.603394 719.996033,566.367920 
	C702.385376,566.367920 685.220520,566.367920 668.353394,566.367920 
	C668.353394,575.135254 668.353394,583.532898 668.353394,591.939270 
	C685.833740,591.939270 702.960754,591.939270 720.087830,591.939270 
M643.000000,574.541870 
	C643.000000,571.768921 643.000000,568.996033 643.000000,566.274475 
	C616.715149,566.274475 590.978760,566.274475 565.275146,566.274475 
	C565.275146,592.286255 565.275146,618.022644 565.275146,643.724121 
	C591.287720,643.724121 617.024048,643.724121 643.000000,643.724121 
	C643.000000,620.810608 643.000000,598.172180 643.000000,574.541870 
z"/>
<path fill="#000000" opacity="1.000000" stroke="none" 
	d="
M719.926270,282.937225 
	C719.926270,291.419861 719.926270,299.902496 719.926270,308.785645 
	C711.424988,308.785645 703.012207,308.785645 694.203308,308.785645 
	C694.203308,317.248047 694.203308,325.328156 694.203308,333.803406 
	C685.406128,333.803406 676.993896,333.803406 668.292908,333.803406 
	C668.292908,342.603577 668.292908,351.010498 668.292908,359.821808 
	C676.608398,359.821808 685.020691,359.821808 693.828491,359.821808 
	C693.828491,368.619324 693.828491,377.032013 693.828491,385.719696 
	C702.629333,385.719696 711.035950,385.719696 719.846924,385.719696 
	C719.846924,377.365997 719.846924,368.953369 719.846924,360.274353 
	C728.648193,360.274353 737.054260,360.274353 745.864136,360.274353 
	C745.864136,368.658112 745.864136,377.068542 745.864136,385.875153 
	C754.331299,385.875153 762.408875,385.875153 770.739746,385.875153 
	C770.739746,403.012573 770.739746,419.751099 770.739746,436.744934 
	C753.976868,436.744934 737.238403,436.744934 720.097412,436.744934 
	C720.097412,428.637573 720.097412,420.558563 720.097412,411.993591 
	C702.758789,411.993591 685.816833,411.993591 668.437378,411.995605 
	C667.999939,411.997650 668.069946,412.069946 668.037476,411.597839 
	C668.004944,402.849365 668.004944,394.572998 668.004944,385.903473 
	C650.773254,385.903473 634.030579,385.903473 616.894714,385.903473 
	C616.894714,368.431030 616.894714,351.355133 616.894714,333.885986 
	C582.422058,333.885986 548.348206,333.885986 514.261902,333.885986 
	C514.261902,308.078674 514.261902,282.673340 514.261902,256.868561 
	C522.595764,256.868561 530.672913,256.868561 538.729370,256.868561 
	C538.729370,248.058792 538.729370,239.652481 538.729370,231.275040 
	C521.718201,231.275040 504.979187,231.275040 487.842285,231.275040 
	C487.842285,239.955978 487.842285,248.368759 487.842285,257.166534 
	C479.034943,257.166534 470.622131,257.166534 462.288239,257.166534 
	C462.288239,265.977264 462.288239,274.383728 462.288239,283.184143 
	C470.983215,283.184143 479.395294,283.184143 487.702942,283.184143 
	C487.702942,291.995270 487.702942,300.402161 487.702942,309.201660 
	C453.333649,309.201660 419.259857,309.201660 384.789612,309.201660 
	C384.789612,317.677155 384.789612,325.756287 384.789612,333.689880 
	C358.981476,333.689880 333.575592,333.689880 308.069946,333.689880 
	C308.069946,307.896667 308.069946,282.413361 308.034973,256.965027 
	C308.000000,257.000000 307.930054,257.069946 308.402161,257.037445 
	C316.876434,257.045746 324.878601,257.086578 332.936157,257.585114 
	C332.991608,266.293182 332.991608,274.543549 332.991608,282.742615 
	C350.625458,282.742615 367.674866,282.742615 384.755249,282.742615 
	C384.755249,274.089142 384.755249,265.695099 384.755249,257.279724 
	C367.255829,257.279724 350.001038,257.279724 332.863586,256.783264 
	C333.010620,247.834534 333.040283,239.382294 333.034973,230.965027 
	C333.000000,231.000000 332.930054,231.069946 333.402161,231.037445 
	C342.234772,231.004944 350.595337,231.004944 359.069946,231.004944 
	C359.069946,222.157379 359.069946,214.043716 359.034973,205.965027 
	C359.000000,206.000000 358.930054,206.069946 359.402130,206.037445 
	C368.274750,205.980286 376.675293,205.955643 385.040588,206.402802 
	C385.005341,214.802948 385.005341,222.731262 385.005341,230.667480 
	C410.922363,230.667480 436.398315,230.667480 461.924133,230.667480 
	C461.924133,222.200455 461.924133,214.065735 462.396790,205.963058 
	C471.231934,205.995102 479.594482,205.995102 488.069946,205.995102 
	C488.069946,196.823669 488.069946,188.376862 488.035004,179.966217 
	C488.000061,180.002396 487.931244,180.075790 487.931244,180.075790 
	C496.414368,180.075790 504.897491,180.075790 513.781128,180.075790 
	C513.781128,188.570190 513.781128,196.983002 513.781128,205.695892 
	C522.246704,205.695892 530.320740,205.695892 538.799072,205.695892 
	C538.799072,197.415710 538.799072,189.002625 538.799072,180.298309 
	C547.598450,180.298309 556.005066,180.298309 564.815796,180.298309 
	C564.815796,196.943924 564.815796,213.686295 564.815796,230.826523 
	C573.612610,230.826523 582.025574,230.826523 590.833130,230.826523 
	C590.833130,239.623917 590.833130,248.036621 590.833130,256.721863 
	C599.634216,256.721863 608.040710,256.721863 616.851135,256.721863 
	C616.851135,248.361343 616.851135,239.949066 616.851135,231.272308 
	C625.652283,231.272308 634.058044,231.272308 642.867981,231.272308 
	C642.867981,239.662247 642.867981,248.072479 642.867981,256.739319 
	C651.336792,256.739319 659.409607,256.739319 667.885986,256.739319 
	C667.885986,248.324600 667.885986,239.913147 667.885986,231.254868 
	C676.688660,231.254868 685.094055,231.254868 693.902710,231.254868 
	C693.902710,248.365509 693.902710,265.441223 693.902710,283.006653 
	C702.572144,283.006653 710.848389,283.006653 719.562012,283.006287 
	C719.999451,283.005920 719.926270,282.937225 719.926270,282.937225 
M539.000000,292.531982 
	C539.000000,297.960144 539.000000,303.388306 539.000000,308.701660 
	C565.335022,308.701660 591.070679,308.701660 616.698975,308.701660 
	C616.698975,299.994263 616.698975,291.588226 616.698975,283.300293 
	C590.661316,283.300293 564.925720,283.300293 539.000000,283.300293 
	C539.000000,286.247040 539.000000,288.894897 539.000000,292.531982 
M643.000000,292.531982 
	C643.000000,297.959290 643.000000,303.386627 643.000000,308.701050 
	C651.670532,308.701050 659.742004,308.701050 667.700195,308.701050 
	C667.700195,299.994354 667.700195,291.589569 667.700195,283.300903 
	C659.325500,283.300903 651.253906,283.300903 643.000000,283.300903 
	C643.000000,286.247803 643.000000,288.895294 643.000000,292.531982 
z"/>
<path fill="#000000" opacity="1.000000" stroke="none" 
	d="
M667.965576,411.960938 
	C667.931152,420.060272 667.931152,428.196289 667.931152,436.864990 
	C651.052490,436.864990 634.218872,436.864990 616.994019,436.864990 
	C616.994019,454.306854 616.994019,471.218658 616.962585,488.603119 
	C616.931152,489.075806 617.000000,489.002380 616.562866,488.998718 
	C607.859070,488.995056 599.592468,488.995056 590.962830,488.995056 
	C590.962830,471.489838 590.962830,454.434723 590.962830,437.324829 
	C556.441284,437.324829 522.291687,437.324829 488.075867,437.324829 
	C488.075867,446.122528 488.075867,454.595795 487.603210,463.036957 
	C478.860077,463.004883 470.589600,463.004883 461.946075,463.004883 
	C461.946075,445.809784 461.946075,429.080902 461.946075,412.192078 
	C436.179474,412.192078 410.794342,412.192078 385.363464,412.192078 
	C385.363464,420.573547 385.363464,428.758240 385.363464,437.314819 
	C402.454956,437.314819 419.183716,437.314819 436.283691,437.314819 
	C436.283691,454.756836 436.283691,471.818848 436.283691,488.930939 
	C453.801605,488.930939 470.938721,488.930939 488.040588,489.402771 
	C487.980255,498.273041 487.955170,506.671509 487.930054,515.069946 
	C487.930054,515.069946 488.000000,515.000000 487.562836,514.997559 
	C444.462952,514.995056 401.800201,514.995056 358.926666,514.995056 
	C358.926666,505.877930 358.926666,497.407715 359.399109,488.966492 
	C376.787689,488.995514 393.703796,488.995514 410.632690,488.995514 
	C410.632690,480.073822 410.632690,471.562592 410.632690,463.332642 
	C393.216553,463.332642 376.168488,463.332642 359.068542,463.332642 
	C359.068542,472.136505 359.068542,480.608093 358.596863,489.042603 
	C324.060150,488.980408 289.995087,488.955231 255.965027,488.965027 
	C256.000000,489.000000 256.069946,489.069946 256.037445,488.597809 
	C256.004944,462.884064 256.004944,437.642487 256.004944,411.841766 
	C264.901215,411.841766 273.427734,411.841766 282.310486,411.841766 
	C282.310486,402.881042 282.310486,394.479889 282.310486,386.335480 
	C291.095734,386.335480 299.493988,386.335480 308.262115,386.335480 
	C308.262115,395.069092 308.262115,403.470490 308.262115,411.926666 
	C316.785126,411.926666 324.923828,411.926666 333.033508,412.399109 
	C332.960541,420.874603 332.916595,428.877686 332.414917,436.936157 
	C324.045563,436.991608 316.133972,436.991608 308.257568,436.991608 
	C308.257568,445.949738 308.257568,454.338470 308.257568,462.763184 
	C316.572845,462.763184 324.628326,462.763184 332.720276,462.763184 
	C332.720276,453.933319 332.720276,445.339752 333.216736,436.863586 
	C342.114197,436.980957 350.515167,436.980957 358.667847,436.980957 
	C358.667847,428.242310 358.667847,420.178436 358.667847,412.068542 
	C349.864136,412.068542 341.392242,412.068542 332.957367,411.596863 
	C332.994385,402.864655 332.994385,394.604126 332.994385,385.822174 
	C350.599396,385.822174 367.763611,385.822174 385.290497,385.822174 
	C385.290497,376.899261 385.290497,368.503571 385.290497,360.079651 
	C394.134491,360.079651 402.601501,360.079651 411.034210,360.042969 
	C410.999878,360.006317 410.926666,359.937500 410.960754,360.408997 
	C410.994843,369.145569 410.994843,377.410614 410.994843,385.638062 
	C436.953217,385.638062 462.443665,385.638062 488.315063,385.638062 
	C488.315063,376.876495 488.315063,368.475891 488.315063,360.337769 
	C497.100189,360.337769 505.498535,360.337769 514.266724,360.337769 
	C514.266724,369.073853 514.266724,377.475128 514.266724,386.079712 
	C522.789978,386.079712 530.929260,386.079712 539.034302,386.043030 
	C538.999939,386.006348 538.926758,385.937531 538.960815,386.409058 
	C538.994812,395.144043 538.994812,403.407562 538.994812,412.069946 
	C582.327087,412.069946 625.198486,412.069946 668.069946,412.069946 
	C668.069946,412.069946 667.999939,411.997650 667.965576,411.960938 
z"/>
<path fill="#020202" opacity="1.000000" stroke="none" 
	d="
M710.999878,205.188919 
	C670.893494,205.188919 631.287170,205.188919 591.424805,205.188919 
	C591.424805,145.224243 591.424805,85.659210 591.424805,25.708496 
	C651.106567,25.708496 710.799011,25.708496 770.818115,25.708496 
	C770.818115,85.339645 770.818115,145.018692 770.818115,205.188919 
	C751.025574,205.188919 731.262756,205.188919 710.999878,205.188919 
M710.499939,179.834259 
	C722.248779,179.834259 733.997559,179.834259 745.688416,179.834259 
	C745.688416,136.507874 745.688416,93.932396 745.688416,51.238708 
	C702.735657,51.238708 660.024658,51.238708 617.317261,51.238708 
	C617.317261,94.175560 617.317261,136.871613 617.317261,179.834244 
	C648.256653,179.834244 678.878296,179.834244 710.499939,179.834259 
z"/>
<path fill="#010101" opacity="1.000000" stroke="none" 
	d="
M106.999924,205.186981 
	C79.375725,205.186981 52.251522,205.186981 24.897285,205.186981 
	C24.897285,145.187256 24.897285,85.598572 24.897285,25.667591 
	C84.554916,25.667591 144.112915,25.667591 204.008606,25.667591 
	C204.008606,85.278999 204.008606,144.864594 204.008606,205.186981 
	C171.993210,205.186981 139.746567,205.186981 106.999924,205.186981 
M50.163704,63.515560 
	C50.163704,102.134773 50.163704,140.753983 50.163704,179.520508 
	C93.344620,179.520508 136.058044,179.520508 178.802048,179.520508 
	C178.802048,136.599747 178.802048,93.995064 178.802048,51.303413 
	C135.884689,51.303413 93.168770,51.303413 50.163704,51.303413 
	C50.163704,55.243282 50.163704,58.883595 50.163704,63.515560 
z"/>
<path fill="#010101" opacity="1.000000" stroke="none" 
	d="
M24.667336,657.999756 
	C24.667330,635.850220 24.667330,614.200623 24.667330,592.276001 
	C84.568520,592.276001 144.294205,592.276001 204.145477,592.276001 
	C204.145477,652.183777 204.145477,711.914795 204.145477,771.861206 
	C144.367401,771.861206 84.787216,771.861206 24.667339,771.861206 
	C24.667339,734.001953 24.667339,696.250916 24.667336,657.999756 
M81.499870,746.707275 
	C113.931618,746.707275 146.363373,746.707275 178.632599,746.707275 
	C178.632599,703.349854 178.632599,660.628174 178.632599,618.149109 
	C135.671249,618.149109 93.083115,618.149109 50.401978,618.149109 
	C50.401978,661.052002 50.401978,703.630737 50.401978,746.707275 
	C60.590393,746.707275 70.545128,746.707275 81.499870,746.707275 
z"/>
<path fill="#000000" opacity="1.000000" stroke="none" 
	d="
M332.931213,102.075768 
	C350.149139,102.075768 367.367065,102.075768 385.006683,102.075768 
	C385.006683,93.713943 385.006683,85.794464 385.006561,77.437561 
	C385.006439,77.000145 384.937744,77.073334 384.937744,77.073334 
	C393.333557,77.051132 401.729370,77.028931 410.562622,77.006630 
	C411.000061,77.006538 410.926910,76.937843 410.926910,76.937843 
	C410.926910,85.071938 410.926910,93.206039 410.926910,101.869804 
	C427.949036,101.869804 444.780792,101.869804 461.993591,101.869804 
	C461.993591,119.306679 461.993591,136.215881 461.995605,153.562531 
	C461.997650,154.000000 462.069946,153.930054 461.597839,153.962555 
	C452.859985,153.995056 444.594177,153.995056 435.951080,153.995056 
	C435.951080,145.150620 435.951080,136.748566 435.951080,128.349457 
	C410.073456,128.349457 384.582489,128.349457 359.337738,128.349457 
	C359.337738,137.099594 359.337738,145.498184 359.337738,154.266998 
	C368.074036,154.266998 376.475555,154.266998 385.075867,154.266998 
	C385.075867,163.123901 385.075867,171.596436 384.603210,180.036942 
	C375.768066,180.004898 367.405518,180.004898 358.930054,180.004898 
	C358.930054,189.176331 358.930054,197.623138 358.930054,206.069946 
	C358.930054,206.069946 359.000000,206.000000 358.562866,205.997528 
	C349.727142,205.973389 341.328613,205.951721 332.965027,205.965027 
	C333.000000,206.000000 333.069946,206.069946 333.037415,205.597870 
	C333.004913,196.875290 333.004913,188.624786 333.004913,180.349121 
	C324.417572,180.349121 316.251892,180.349121 307.930054,180.349121 
	C307.930054,189.155289 307.930054,197.612610 307.964996,206.033783 
	C307.999939,205.997604 308.068756,205.924210 308.068756,205.924210 
	C299.605011,205.924210 291.141296,205.924210 282.158630,205.924210 
	C282.158630,188.738281 282.158630,171.581055 282.158630,153.993301 
	C273.389557,153.993301 265.132233,153.993301 256.437500,153.993439 
	C256.000061,153.993591 256.073242,154.062302 256.073242,154.062302 
	C256.073242,145.593124 256.073242,137.123962 256.073242,128.274796 
	C247.483826,128.274796 239.085785,128.274796 230.345490,128.274796 
	C230.345490,119.514015 230.345490,111.118118 230.345490,102.006432 
	C255.754242,102.006432 281.439667,102.006432 307.562500,102.004425 
	C307.999969,102.002411 307.930054,101.930061 307.962555,102.402130 
	C307.995056,119.784767 307.995056,136.695343 307.995056,153.643219 
	C316.577393,153.643219 324.753082,153.643219 333.069946,153.643219 
	C333.069946,136.167770 333.069946,119.048912 333.034973,101.966217 
	C333.000000,102.002365 332.931213,102.075768 332.931213,102.075768 
z"/>
<path fill="#000000" opacity="1.000000" stroke="none" 
	d="
M101.075768,360.068787 
	C101.075768,351.591370 101.075768,343.113983 101.075768,334.244720 
	C92.791283,334.244720 84.717522,334.244720 76.264450,334.244720 
	C76.264450,317.131409 76.264450,300.401123 76.264450,283.335754 
	C67.492340,283.335754 59.089043,283.335754 50.290901,283.335754 
	C50.290901,291.494995 50.290901,299.901611 50.290901,308.652222 
	C41.511158,308.652222 33.107735,308.652222 24.351574,308.652222 
	C24.351574,283.070831 24.351574,257.232819 24.351574,231.197174 
	C67.110275,231.197174 109.818123,231.197174 152.993576,231.197174 
	C152.993576,239.583969 152.993576,247.854507 152.995605,256.562500 
	C152.997620,256.999969 153.069946,256.930054 152.597870,256.962585 
	C135.204071,256.995087 118.282349,256.995087 101.365524,256.995087 
	C101.365524,274.602142 101.365524,291.772491 101.365524,309.323853 
	C110.132111,309.323853 118.534706,309.323853 127.303452,309.323853 
	C127.303452,317.777649 127.303452,325.845490 127.303452,333.665344 
	C136.091751,333.665344 144.490982,333.665344 153.262711,333.665344 
	C153.262711,325.264160 153.262711,317.195038 153.262711,308.924133 
	C162.122070,308.924133 170.595520,308.924133 179.036942,309.396790 
	C179.004898,317.789337 179.004898,325.709259 179.004898,334.069946 
	C196.298279,334.069946 213.184113,334.069946 230.034973,334.034973 
	C230.000000,334.000000 229.930054,333.930054 229.962555,334.402191 
	C229.995056,351.885345 229.995056,368.896393 229.995056,386.075867 
	C221.182938,386.075867 213.056976,386.075867 204.963058,385.603210 
	C204.995102,376.867920 204.995102,368.605255 204.995102,359.930054 
	C170.015442,359.930054 135.472748,359.930054 100.966217,359.965027 
	C101.002365,360.000000 101.075768,360.068787 101.075768,360.068787 
z"/>
<path fill="#000000" opacity="1.000000" stroke="none" 
	d="
M282.068756,746.924377 
	C273.591339,746.924377 265.113953,746.924377 256.244690,746.924377 
	C256.244690,755.208740 256.244690,763.282532 256.244690,771.675537 
	C247.462402,771.675537 239.060364,771.675537 230.328278,771.675537 
	C230.328278,729.487244 230.328278,687.111877 230.328278,644.176086 
	C247.231461,644.176086 264.416168,644.176086 281.796814,644.176086 
	C281.796814,635.217163 281.796814,626.817932 281.796814,618.035034 
	C264.569366,618.035034 247.506073,618.035034 230.224457,618.035034 
	C230.224457,600.593567 230.224457,583.534058 230.224457,566.006409 
	C238.584000,566.006409 246.854538,566.006409 255.562531,566.004333 
	C255.999969,566.002258 255.930054,565.930054 255.962555,566.402161 
	C255.995041,575.136963 255.995041,583.399597 255.995041,592.190063 
	C273.609680,592.190063 290.778381,592.190063 308.312317,592.190063 
	C308.312317,601.122192 308.312317,609.519836 308.312317,618.280273 
	C316.755890,618.280273 324.821655,618.280273 332.920288,618.280273 
	C332.920288,627.130249 332.920288,635.599426 332.956970,644.034302 
	C332.993652,643.999939 333.062469,643.926758 332.591003,643.960815 
	C324.188385,643.994812 316.257263,643.994812 307.950684,643.994812 
	C307.950684,652.516846 307.950684,660.584900 307.950684,669.180237 
	C290.402222,669.180237 273.229919,669.180237 256.328125,669.180237 
	C256.328125,686.771301 256.328125,703.820801 256.328125,720.924194 
	C265.126984,720.924194 273.597992,720.924194 282.036926,721.396851 
	C281.979919,730.269592 281.954987,738.669800 281.964966,747.033813 
	C281.999939,746.997742 282.068756,746.924377 282.068756,746.924377 
z"/>
<path fill="#000000" opacity="1.000000" stroke="none" 
	d="
M179.075790,257.068756 
	C179.075790,248.598145 179.075790,240.127533 179.075790,231.006409 
	C221.798630,231.006409 264.461853,231.006409 307.562531,231.004395 
	C307.999969,231.002380 307.930054,230.930054 307.962555,231.402130 
	C307.973389,240.272781 307.951721,248.671371 307.930054,257.069946 
	C307.930054,257.069946 308.000000,257.000000 307.562866,256.997528 
	C298.859436,256.995056 290.593140,256.995056 281.819641,256.995056 
	C281.819641,291.606537 281.819641,325.757812 281.819641,359.663300 
	C272.903351,359.663300 264.504425,359.663300 255.734451,359.663300 
	C255.734451,350.927673 255.734451,342.525635 255.734451,333.930054 
	C246.876480,333.930054 238.403259,333.930054 229.930054,333.930054 
	C229.930054,333.930054 230.000000,334.000000 230.002472,333.562836 
	C230.004944,316.447601 230.004944,299.769531 230.004944,283.075867 
	C221.182037,283.075867 213.056519,283.075867 204.963058,282.603210 
	C204.995102,273.768066 204.995102,265.405518 204.995102,256.930054 
	C195.823669,256.930054 187.376862,256.930054 178.966217,256.964996 
	C179.002396,256.999939 179.075790,257.068756 179.075790,257.068756 
z"/>
<path fill="#000000" opacity="1.000000" stroke="none" 
	d="
M101.073524,515.062256 
	C101.051163,506.666473 101.028801,498.270691 101.004417,489.437500 
	C101.002403,489.000061 100.930061,489.069946 101.402176,489.037445 
	C110.235603,489.004944 118.596924,489.004944 127.069939,489.004944 
	C127.069939,479.822540 127.069939,471.376282 127.034973,462.965027 
	C127.000000,463.000000 126.930061,463.069946 127.402130,463.037445 
	C136.272781,463.026611 144.671371,463.048279 153.034973,463.034973 
	C153.000000,463.000000 152.930054,462.930054 152.962555,463.402161 
	C152.995056,472.136078 152.995056,480.397888 152.995056,489.069946 
	C187.652847,489.069946 221.861389,489.069946 256.069946,489.069946 
	C256.069946,489.069946 256.000000,489.000000 255.997528,489.437134 
	C255.973389,498.272858 255.951721,506.671387 255.964996,515.033813 
	C255.999924,514.997742 256.068695,514.924377 256.068695,514.924377 
	C230.523529,514.924377 204.978363,514.924377 178.993286,514.924377 
	C178.993286,523.274292 178.993286,531.199768 178.993317,539.562683 
	C178.993362,540.000122 179.062057,539.926941 179.062057,539.926941 
	C170.666397,539.949036 162.270752,539.971130 153.437668,539.993408 
	C153.000244,539.993530 153.073441,540.062256 153.073441,540.062256 
	C153.073441,531.937317 153.073441,523.812317 153.073441,514.993286 
	C135.895218,514.993286 118.885185,514.993286 101.437744,514.993408 
	C101.000328,514.993591 101.073524,515.062256 101.073524,515.062256 
z"/>
<path fill="#000000" opacity="1.000000" stroke="none" 
	d="
M513.912781,102.060234 
	C513.912781,93.937653 513.912781,85.815063 513.912781,77.154655 
	C522.252625,77.154655 530.430298,77.154655 539.006714,77.154655 
	C539.006714,68.373764 539.006714,60.124409 539.006592,51.437641 
	C539.006470,51.000229 538.937744,51.073414 538.937744,51.073414 
	C547.410217,51.073414 555.882751,51.073414 564.676880,51.073414 
	C564.676880,85.298447 564.676880,119.447701 564.676880,153.993286 
	C539.363770,153.993286 514.119202,153.993286 488.437256,153.993347 
	C487.999786,153.993408 488.072968,154.062103 488.072968,154.062103 
	C488.072968,136.848206 488.072968,119.634300 488.072968,101.995300 
	C496.615173,101.995300 504.864105,101.995300 513.558472,102.430626 
	C514.003967,111.124420 514.003967,119.382889 514.003967,127.632324 
	C522.604675,127.632324 530.777222,127.632324 538.656738,127.632324 
	C538.656738,118.872200 538.656738,110.481354 538.656738,102.060234 
	C530.180054,102.060234 522.046448,102.060234 513.912781,102.060234 
z"/>
<path fill="#000000" opacity="1.000000" stroke="none" 
	d="
M746.062073,720.926758 
	C737.586548,720.926758 729.111023,720.926758 720.256653,720.926758 
	C720.256653,737.873535 720.256653,754.601196 720.256653,771.663086 
	C694.497742,771.663086 669.113159,771.663086 643.364502,771.663086 
	C643.364502,763.757812 643.364502,755.573975 643.364502,746.994629 
	C651.471191,746.994629 659.544250,746.994629 667.994995,746.994629 
	C667.994995,738.209412 667.994995,729.804382 667.994995,721.020081 
	C676.779541,721.020081 685.184387,721.020081 693.969116,721.020081 
	C693.969116,712.235840 693.969116,703.831116 693.969116,695.218689 
	C711.415466,695.218689 728.472351,695.218689 745.993286,695.218689 
	C745.993286,703.586548 745.993286,711.855835 745.993286,720.562500 
	C745.993347,720.999939 746.062073,720.926758 746.062073,720.926758 
z"/>
<path fill="#000000" opacity="1.000000" stroke="none" 
	d="
M101.039101,488.965637 
	C84.271034,488.931244 67.466270,488.931244 50.289238,488.931244 
	C50.289238,514.511658 50.289238,539.899902 50.289238,565.643188 
	C41.530354,565.643188 33.126690,565.643188 24.361141,565.643188 
	C24.361141,531.763794 24.361141,497.599762 24.361141,463.006409 
	C49.614365,463.006409 74.869736,463.006409 100.562561,463.004395 
	C101.000008,463.002350 100.930061,462.930054 100.962555,463.402130 
	C100.973389,472.272797 100.951729,480.671356 100.930061,489.069946 
	C100.930061,489.069946 101.002403,489.000061 101.039101,488.965637 
z"/>
<path fill="#000000" opacity="1.000000" stroke="none" 
	d="
M101.034409,463.039062 
	C101.048012,446.342133 101.027222,429.608551 101.004410,412.437500 
	C101.002403,412.000061 100.930061,412.069946 101.402130,412.037476 
	C127.608093,411.980316 153.341995,411.955658 179.040619,412.402832 
	C179.005356,420.802582 179.005356,428.730530 179.005356,437.027405 
	C187.829971,437.027405 196.226425,437.027405 204.641190,437.027405 
	C204.641190,445.916931 204.641190,454.425140 204.641190,462.930054 
	C187.164948,462.930054 170.047501,462.930054 152.930054,462.930054 
	C152.930054,462.930054 153.000000,463.000000 153.002472,462.562866 
	C153.004944,453.874878 153.004944,445.624054 153.004944,437.348633 
	C144.084167,437.348633 135.585846,437.348633 126.930061,437.348633 
	C126.930061,446.154602 126.930061,454.612274 126.930061,463.069946 
	C126.930061,463.069946 127.000000,463.000000 126.562859,462.997528 
	C117.727165,462.973389 109.328613,462.951721 100.930061,462.930054 
	C100.930061,462.930054 101.000008,463.002350 101.034409,463.039062 
z"/>
<path fill="#000000" opacity="1.000000" stroke="none" 
	d="
M643.034424,489.039062 
	C643.068848,480.605194 643.068848,472.134613 643.068848,463.332703 
	C659.838013,463.332703 676.552368,463.332703 693.825195,463.332703 
	C693.825195,471.558746 693.825195,480.082855 693.825195,489.006653 
	C711.294861,489.006653 728.209717,489.006653 745.562012,489.006287 
	C745.999451,489.005920 745.926270,488.937225 745.926270,488.937225 
	C745.948669,497.333160 745.971130,505.729126 745.995605,514.562500 
	C745.997620,514.999939 746.069946,514.930054 745.597900,514.962524 
	C719.393860,514.973328 693.661987,514.951660 667.930054,514.930054 
	C667.930054,514.930054 668.000000,515.000000 668.002502,514.562866 
	C668.005005,505.765198 668.005005,497.404633 668.005005,488.930054 
	C659.157349,488.930054 651.043701,488.930054 642.930054,488.930054 
	C642.930054,488.930054 643.000061,489.002350 643.034424,489.039062 
z"/>
<path fill="#000000" opacity="1.000000" stroke="none" 
	d="
M461.960938,695.034424 
	C470.399963,695.068848 478.875671,695.068848 487.740112,695.068848 
	C487.740112,703.532410 487.740112,711.936829 487.740112,720.702332 
	C513.505859,720.702332 538.888794,720.702332 564.635010,720.702332 
	C564.635010,729.573730 564.635010,738.089783 564.635010,746.994019 
	C530.686768,746.994019 496.778168,746.994019 462.396881,746.962585 
	C461.924194,746.931152 461.997620,747.000000 462.001282,746.562866 
	C462.026611,729.060486 462.048279,711.995300 462.069946,694.930054 
	C462.069946,694.930054 461.997650,695.000061 461.960938,695.034424 
z"/>
<path fill="#000000" opacity="1.000000" stroke="none" 
	d="
M101.039101,411.965637 
	C84.275963,411.931244 67.476135,411.931244 50.287994,411.931244 
	C50.287994,420.165588 50.287994,428.236389 50.287994,436.651794 
	C41.514820,436.651794 33.114086,436.651794 24.356236,436.651794 
	C24.356236,420.080902 24.356236,403.241882 24.356236,386.025879 
	C41.447159,386.025879 58.504597,386.025879 75.945091,386.025879 
	C75.945091,377.260712 75.945091,368.856750 75.945091,360.005951 
	C84.260048,360.005951 92.195236,360.005951 100.603088,360.037354 
	C101.075768,360.068787 101.002365,360.000000 100.998703,360.437164 
	C100.973389,377.939545 100.951729,395.004730 100.930061,412.069946 
	C100.930061,412.069946 101.002403,412.000061 101.039101,411.965637 
z"/>
<path fill="#000000" opacity="1.000000" stroke="none" 
	d="
M411.034332,77.043198 
	C411.068604,59.946133 411.068604,42.812405 411.068604,25.339956 
	C419.169434,25.339956 427.237091,25.339956 435.695923,25.339956 
	C435.695923,33.488968 435.695923,41.891037 435.695923,50.845181 
	C453.249756,50.845181 470.429779,50.845181 487.800171,50.845181 
	C487.800171,59.793522 487.800171,68.189926 487.800171,76.994469 
	C462.370453,76.994469 437.121094,76.994469 411.399353,76.966156 
	C410.926910,76.937843 411.000061,77.006538 411.034332,77.043198 
z"/>
<path fill="#000000" opacity="1.000000" stroke="none" 
	d="
M256.034363,566.038940 
	C256.047821,549.340332 256.026886,532.604980 256.037292,515.397034 
	C256.068695,514.924377 255.999924,514.997742 256.437103,515.001343 
	C265.124725,515.004944 273.375153,515.004944 282.158356,515.004944 
	C282.158356,523.575623 282.158356,531.754089 282.158356,540.079468 
	C291.154572,540.079468 299.611572,540.079468 308.034241,540.042847 
	C307.999908,540.006165 307.926666,539.937317 307.960754,540.408813 
	C307.994843,549.131348 307.994843,557.382263 307.994843,565.930054 
	C290.365021,565.930054 273.147522,565.930054 255.930054,565.930054 
	C255.930054,565.930054 255.999969,566.002258 256.034363,566.038940 
z"/>
<path fill="#000000" opacity="1.000000" stroke="none" 
	d="
M720.033691,283.042572 
	C720.067993,265.954834 720.067993,248.830414 720.067993,231.353577 
	C728.469299,231.353577 736.866089,231.353577 745.631775,231.353577 
	C745.631775,248.220428 745.631775,265.383728 745.631775,282.994415 
	C737.398682,282.994415 729.135010,282.994415 720.398804,282.965820 
	C719.926270,282.937225 719.999451,283.005920 720.033691,283.042572 
z"/>
<path fill="#000000" opacity="1.000000" stroke="none" 
	d="
M255.965790,153.956940 
	C255.931519,171.044724 255.931519,188.169174 255.931519,205.646240 
	C247.531082,205.646240 239.134323,205.646240 230.368500,205.646240 
	C230.368500,188.779709 230.368500,171.616486 230.368500,154.005554 
	C238.600967,154.005554 246.864655,154.005554 255.600800,154.033936 
	C256.073242,154.062302 256.000061,153.993591 255.965790,153.956940 
z"/>
<path fill="#000000" opacity="1.000000" stroke="none" 
	d="
M100.966049,514.956909 
	C100.931778,531.711243 100.931778,548.502197 100.931778,565.645996 
	C92.865250,565.645996 84.801399,565.645996 76.368454,565.645996 
	C76.368454,549.113281 76.368454,532.283508 76.368454,515.005493 
	C84.267136,515.005493 92.197838,515.005493 100.601028,515.033875 
	C101.073524,515.062256 101.000328,514.993591 100.966049,514.956909 
z"/>
<path fill="#000000" opacity="1.000000" stroke="none" 
	d="
M178.956696,540.034424 
	C187.384537,540.068665 195.849045,540.068665 204.656158,540.068665 
	C204.656158,548.482849 204.656158,556.872559 204.656158,565.631470 
	C196.443954,565.631470 187.939865,565.631470 179.005524,565.631470 
	C179.005524,557.385864 179.005524,549.128845 179.033783,540.399414 
	C179.062057,539.926941 178.993362,540.000122 178.956696,540.034424 
z"/>
<path fill="#000000" opacity="1.000000" stroke="none" 
	d="
M152.965973,539.956909 
	C152.931702,548.384705 152.931702,556.849243 152.931702,565.656250 
	C144.517136,565.656250 136.127289,565.656250 127.368484,565.656250 
	C127.368484,557.444031 127.368484,548.940247 127.368484,540.005493 
	C135.614365,540.005493 143.871414,540.005493 152.600952,540.033875 
	C153.073441,540.062256 153.000244,539.993530 152.965973,539.956909 
z"/>
<path fill="#000000" opacity="1.000000" stroke="none" 
	d="
M487.965515,153.956741 
	C487.952148,162.323532 487.973083,170.726974 487.962646,179.603119 
	C487.931244,180.075790 488.000061,180.002396 487.562866,179.998718 
	C478.725189,180.019714 470.324677,180.044373 461.959412,179.597229 
	C462.019745,170.726944 462.044830,162.328506 462.069946,153.930054 
	C462.069946,153.930054 461.997650,154.000000 461.960938,154.034393 
	C470.325531,154.047699 478.726868,154.026627 487.600586,154.033813 
	C488.072968,154.062103 487.999786,153.993408 487.965515,153.956741 
z"/>
<path fill="#000000" opacity="1.000000" stroke="none" 
	d="
M282.062347,50.926533 
	C273.666565,50.948788 265.270752,50.971039 256.437561,50.993446 
	C256.000122,50.993599 256.073303,51.062302 256.073303,51.062302 
	C256.073303,42.606628 256.073303,34.150955 256.073303,25.348251 
	C264.588928,25.348251 273.085968,25.348251 281.993317,25.348251 
	C281.993317,33.625694 281.993317,41.875294 281.993469,50.562309 
	C281.993652,50.999725 282.062347,50.926533 282.062347,50.926533 
z"/>
<path fill="#000000" opacity="1.000000" stroke="none" 
	d="
M49.996769,336.198364 
	C49.998585,344.307861 49.998585,351.934021 49.998585,359.776917 
	C41.247242,359.776917 32.843765,359.776917 24.220127,359.776917 
	C24.220127,351.241058 24.220127,342.837616 24.220127,334.004700 
	C32.303844,334.004700 40.253235,333.967560 48.200554,334.078583 
	C48.806187,334.087036 49.397163,335.144928 49.996769,336.198364 
z"/>
<path fill="#000000" opacity="1.000000" stroke="none" 
	d="
M385.043091,76.965866 
	C376.615265,76.931595 368.150787,76.931595 359.343750,76.931595 
	C359.343750,68.517174 359.343750,60.127327 359.343750,51.368500 
	C367.556122,51.368500 376.060242,51.368500 384.994476,51.368500 
	C384.994476,59.614319 384.994476,67.871361 384.966125,76.600876 
	C384.937744,77.073334 385.006439,77.000145 385.043091,76.965866 
z"/>
<path fill="#000000" opacity="1.000000" stroke="none" 
	d="
M152.960922,257.034363 
	C161.326294,257.047852 169.728363,257.026917 178.603119,257.037354 
	C179.075790,257.068756 179.002396,256.999939 178.998718,257.437134 
	C179.019730,266.274811 179.044388,274.675323 178.597229,283.040588 
	C169.764160,283.005341 161.402924,283.005341 153.069946,283.005341 
	C153.069946,273.822327 153.069946,265.376190 153.069946,256.930054 
	C153.069946,256.930054 152.997620,256.999969 152.960922,257.034363 
z"/>
<path fill="#000000" opacity="1.000000" stroke="none" 
	d="
M255.965851,50.956940 
	C255.931564,59.384762 255.931564,67.849243 255.931564,76.656235 
	C247.517181,76.656235 239.127319,76.656235 230.368484,76.656235 
	C230.368484,68.443909 230.368484,59.939770 230.368484,51.005543 
	C238.614288,51.005543 246.871323,51.005543 255.600830,51.033920 
	C256.073303,51.062302 256.000122,50.993599 255.965851,50.956940 
z"/>
<path fill="#000000" opacity="1.000000" stroke="none" 
	d="
M281.956970,51.034000 
	C290.487152,51.068275 299.053955,51.068275 307.993317,51.068275 
	C307.993317,59.645176 307.993317,67.885094 307.993439,76.562439 
	C307.993561,76.999855 308.062256,76.926666 308.062256,76.926666 
	C299.617798,76.926666 291.173370,76.926666 282.005524,76.926666 
	C282.005524,68.593010 282.005524,60.232254 282.033936,51.399017 
	C282.062347,50.926533 281.993652,50.999725 281.956970,51.034000 
z"/>
<path fill="#000000" opacity="1.000000" stroke="none" 
	d="
M594.165405,747.001221 
	C601.947632,747.001099 609.242798,747.001099 616.766052,747.001099 
	C616.766052,755.396545 616.766052,763.466370 616.766052,771.768433 
	C608.265259,771.768433 599.862244,771.768433 591.002686,771.768433 
	C591.002686,764.225281 590.921570,756.777771 591.119995,749.337646 
	C591.141296,748.536743 592.786499,747.779114 594.165405,747.001221 
z"/>
<path fill="#000000" opacity="1.000000" stroke="none" 
	d="
M745.956665,721.034241 
	C754.051636,721.068542 762.183228,721.068542 770.656799,721.068542 
	C770.656799,729.483704 770.656799,737.873047 770.656799,746.631470 
	C762.777222,746.631470 754.605957,746.631470 746.005493,746.631470 
	C746.005493,738.385010 746.005493,730.128357 746.033813,721.399231 
	C746.062073,720.926758 745.993347,720.999939 745.956665,721.034241 
z"/>
<path fill="#000000" opacity="1.000000" stroke="none" 
	d="
M307.924194,746.931152 
	C307.924194,755.055420 307.924194,763.179626 307.924194,771.651367 
	C299.411682,771.651367 290.914368,771.651367 282.005951,771.651367 
	C282.005951,763.706116 282.005951,755.787903 282.037354,747.397034 
	C282.068756,746.924377 281.999939,746.997742 282.437134,747.001343 
	C291.272858,747.026611 299.671387,747.048279 308.033783,747.034973 
	C307.997620,747.000000 307.924194,746.931152 307.924194,746.931152 
z"/>
<path fill="#000000" opacity="1.000000" stroke="none" 
	d="
M333.039062,746.965576 
	C325.007019,746.952087 316.938293,746.973083 308.396881,746.962585 
	C307.924194,746.931152 307.997620,747.000000 308.001282,746.562866 
	C307.980255,737.725281 307.955566,729.324768 308.402710,720.959473 
	C316.903046,720.994629 324.931549,720.994629 332.930054,720.994629 
	C332.930054,730.179626 332.930054,738.624756 332.930054,747.069946 
	C332.930054,747.069946 333.002350,746.999939 333.039062,746.965576 
z"/>
<path fill="#000000" opacity="1.000000" stroke="none" 
	d="
M539.043091,50.965950 
	C530.948181,50.931675 522.816589,50.931675 514.343140,50.931675 
	C514.343140,42.516121 514.343140,34.126762 514.343140,25.368484 
	C522.222778,25.368484 530.394043,25.368484 538.994507,25.368484 
	C538.994507,33.615150 538.994507,41.871799 538.966125,50.600933 
	C538.937744,51.073414 539.006470,51.000229 539.043091,50.965950 
z"/>
<path fill="#000000" opacity="1.000000" stroke="none" 
	d="
M746.033691,489.042572 
	C746.067993,480.615204 746.067993,472.151184 746.067993,463.344177 
	C754.148682,463.344177 762.205811,463.344177 770.631775,463.344177 
	C770.631775,471.555786 770.631775,480.059631 770.631775,488.994415 
	C762.719788,488.994415 754.795532,488.994415 746.398804,488.965820 
	C745.926270,488.937225 745.999451,489.005920 746.033691,489.042572 
z"/>
<path fill="#000000" opacity="1.000000" stroke="none" 
	d="
M745.960938,515.034302 
	C754.049500,515.068726 762.174683,515.068726 770.649353,515.068726 
	C770.649353,523.251709 770.649353,531.416931 770.649353,539.994080 
	C762.706360,539.994080 754.788025,539.994080 746.396973,539.962646 
	C745.924316,539.931274 745.997620,540.000061 746.001282,539.562866 
	C746.026611,531.060486 746.048279,522.995300 746.069946,514.930054 
	C746.069946,514.930054 745.997620,514.999939 745.960938,515.034302 
z"/>
<path fill="#000000" opacity="1.000000" stroke="none" 
	d="
M763.933533,333.998901 
	C757.803467,333.998901 752.166382,333.998901 746.267090,333.998901 
	C746.267090,325.672668 746.267090,317.603210 746.267090,309.265869 
	C754.329468,309.265869 762.399475,309.265869 770.735352,309.265869 
	C770.735352,317.331940 770.735352,325.401855 770.735352,333.998901 
	C768.635559,333.998901 766.531006,333.998901 763.933533,333.998901 
z"/>
<path fill="#000000" opacity="1.000000" stroke="none" 
	d="
M308.034393,231.039078 
	C308.047852,223.007034 308.026917,214.938293 308.037354,206.396881 
	C308.068756,205.924210 307.999939,205.997604 308.437134,206.001282 
	C316.939514,206.026611 325.004730,206.048279 333.069946,206.069946 
	C333.069946,206.069946 333.000000,206.000000 332.997528,206.437134 
	C332.973389,214.939499 332.951721,223.004730 332.930054,231.069946 
	C332.930054,231.069946 333.000000,231.000000 332.562866,230.997528 
	C324.060486,230.973389 315.995270,230.951721 307.930054,230.930054 
	C307.930054,230.930054 307.999969,231.002380 308.034393,231.039078 
z"/>
<path fill="#000000" opacity="1.000000" stroke="none" 
	d="
M307.956909,77.034134 
	C316.035187,77.068405 324.150146,77.068405 332.994049,77.068405 
	C332.994049,85.070946 332.994049,93.100677 332.962646,101.603088 
	C332.931213,102.075768 333.000000,102.002365 332.562866,101.998703 
	C324.060486,101.973389 315.995270,101.951721 307.930054,101.930061 
	C307.930054,101.930061 307.999969,102.002411 308.034363,102.039124 
	C308.047699,94.007744 308.026611,85.939667 308.033875,77.399124 
	C308.062256,76.926666 307.993561,76.999855 307.956909,77.034134 
z"/>
<path fill="#FFFFFF" opacity="1.000000" stroke="none" 
	d="
M333.402130,747.037476 
	C332.930054,738.624756 332.930054,730.179626 332.930054,720.994629 
	C324.931549,720.994629 316.903046,720.994629 308.437195,720.996216 
	C307.999817,720.997742 308.069946,721.069946 308.037415,720.597900 
	C308.004913,711.874939 308.004913,703.624084 308.004913,695.348633 
	C299.084198,695.348633 290.585876,695.348633 281.930054,695.348633 
	C281.930054,704.154480 281.930054,712.612244 281.965088,721.033813 
	C282.000122,720.997620 282.069031,720.924194 282.069031,720.924194 
	C273.597992,720.924194 265.126984,720.924194 256.328125,720.924194 
	C256.328125,703.820801 256.328125,686.771301 256.328125,669.180237 
	C273.229919,669.180237 290.402222,669.180237 307.950684,669.180237 
	C307.950684,660.584900 307.950684,652.516846 307.950684,643.994812 
	C316.257263,643.994812 324.188385,643.994812 332.562012,644.433228 
	C333.004486,652.796326 333.004486,660.721130 333.004486,668.632690 
	C341.940948,668.632690 350.445007,668.632690 358.657013,668.632690 
	C358.657013,660.205933 358.657013,652.148132 358.657013,644.068604 
	C349.849548,644.068604 341.384918,644.068604 332.920288,644.068604 
	C332.920288,635.599426 332.920288,627.130249 332.920288,618.280273 
	C324.821655,618.280273 316.755890,618.280273 308.312317,618.280273 
	C308.312317,609.519836 308.312317,601.122192 308.312317,592.190063 
	C290.778381,592.190063 273.609680,592.190063 255.995041,592.190063 
	C255.995041,583.399597 255.995041,575.136963 255.962555,566.402161 
	C273.147522,565.930054 290.365021,565.930054 307.994843,565.930054 
	C307.994843,557.382263 307.994843,549.131348 308.433197,540.437988 
	C316.795929,539.995544 324.720276,539.995544 332.632751,539.995544 
	C332.632751,531.393433 332.632751,523.221802 332.632751,515.342346 
	C324.206512,515.342346 316.149078,515.342346 308.068542,515.342346 
	C308.068542,523.816162 308.068542,531.947815 308.068542,540.079468 
	C299.611572,540.079468 291.154572,540.079468 282.158356,540.079468 
	C282.158356,531.754089 282.158356,523.575623 282.158356,515.004944 
	C273.375153,515.004944 265.124725,515.004944 256.402161,515.037476 
	C255.951721,506.671387 255.973389,498.272858 255.962555,489.402161 
	C289.995087,488.955231 324.060150,488.980408 358.562531,489.005951 
	C358.999878,489.006317 358.926666,488.937500 358.926666,488.937500 
	C358.926666,497.407715 358.926666,505.877930 358.926666,514.995056 
	C401.800201,514.995056 444.462952,514.995056 487.597809,514.962524 
	C488.069946,523.080017 488.069946,531.230042 488.069946,539.779785 
	C479.433228,539.779785 471.020569,539.779785 462.306488,539.779785 
	C462.306488,548.577698 462.306488,556.984924 462.306488,565.697510 
	C479.255981,565.697510 496.328308,565.697510 513.802856,565.697510 
	C513.802856,557.408813 513.802856,548.996765 513.802856,540.294922 
	C522.268372,540.294922 530.341614,540.294922 538.709045,540.294922 
	C538.709045,557.279541 538.709045,574.351685 538.709045,591.825989 
	C530.719177,591.825989 522.639587,591.825989 514.166016,591.825989 
	C514.166016,600.622803 514.166016,609.035339 514.166016,617.720581 
	C505.365814,617.720581 496.959656,617.720581 488.150085,617.720581 
	C488.150085,609.360291 488.150085,600.948242 488.150085,592.271423 
	C445.013275,592.271423 402.276001,592.271423 359.269104,592.271423 
	C359.269104,600.655396 359.269104,609.061157 359.269104,617.869263 
	C393.331940,617.869263 427.404663,617.869263 461.737671,617.869263 
	C461.737671,626.669434 461.737671,635.075317 461.737671,643.883240 
	C436.321320,643.883240 410.914490,643.883240 385.110016,643.883240 
	C385.110016,661.017151 385.110016,677.759277 385.110016,694.897583 
	C376.311707,694.897583 367.899170,694.897583 359.094879,694.897583 
	C359.094879,712.366028 359.094879,729.441345 359.094879,747.004944 
	C350.426483,747.004944 342.150360,747.004944 333.402130,747.037476 
M405.500183,566.000000 
	C415.596161,566.000000 425.692108,566.000000 435.713074,566.000000 
	C435.713074,557.021423 435.713074,548.616943 435.713074,540.285461 
	C418.689301,540.285461 401.953918,540.285461 385.286926,540.285461 
	C385.286926,548.978760 385.286926,557.383484 385.286926,566.000000 
	C391.881195,566.000000 398.190796,566.000000 405.500183,566.000000 
z"/>
<path fill="#FFFFFF" opacity="1.000000" stroke="none" 
	d="
M488.402161,515.037476 
	C487.955170,506.671509 487.980255,498.273041 488.003906,489.437256 
	C488.002411,488.999878 487.930054,489.069946 488.402161,489.037415 
	C505.451874,489.004913 522.029480,489.004913 538.643799,489.004913 
	C538.643799,480.089142 538.643799,471.580841 538.643799,462.930054 
	C521.501831,462.930054 504.715942,462.930054 487.966248,462.965088 
	C488.002441,463.000092 488.075867,463.069031 488.075867,463.069031 
	C488.075867,454.595795 488.075867,446.122528 488.075867,437.324829 
	C522.291687,437.324829 556.441284,437.324829 590.962830,437.324829 
	C590.962830,454.434723 590.962830,471.489838 590.962830,488.995056 
	C599.592468,488.995056 607.859070,488.995056 616.597839,488.962555 
	C617.069946,497.401245 617.069946,505.872437 617.069946,515.004944 
	C574.202637,515.004944 531.538452,515.004944 488.402161,515.037476 
z"/>
<path fill="#FFFFFF" opacity="1.000000" stroke="none" 
	d="
M643.000000,575.037781 
	C643.000000,598.172180 643.000000,620.810608 643.000000,643.724121 
	C617.024048,643.724121 591.287720,643.724121 565.275146,643.724121 
	C565.275146,618.022644 565.275146,592.286255 565.275146,566.274475 
	C590.978760,566.274475 616.715149,566.274475 643.000000,566.274475 
	C643.000000,568.996033 643.000000,571.768921 643.000000,575.037781 
M616.996094,593.713867 
	C616.398254,593.143738 615.807190,592.085815 615.201477,592.077393 
	C607.253479,591.966370 599.303284,592.003540 591.218994,592.003540 
	C591.218994,600.837341 591.218994,609.241516 591.218994,617.778076 
	C599.843384,617.778076 608.247681,617.778076 616.999817,617.778076 
	C616.999817,609.934509 616.999817,602.307617 616.996094,593.713867 
z"/>
<path fill="#FFFFFF" opacity="1.000000" stroke="none" 
	d="
M461.597870,694.962524 
	C462.048279,711.995300 462.026611,729.060486 462.037445,746.597839 
	C436.613342,747.069946 411.156738,747.069946 385.350128,747.069946 
	C385.350128,738.522400 385.350128,730.121277 385.350128,721.328430 
	C393.457275,721.328430 401.860596,721.328430 410.813812,721.328430 
	C410.813812,703.776306 410.813812,686.598328 410.813812,669.214050 
	C419.427307,669.214050 427.490662,669.214050 435.942841,669.214050 
	C435.942841,677.739136 435.942841,686.143066 435.942841,694.995056 
	C444.590179,694.995056 452.857971,694.995056 461.597870,694.962524 
z"/>
<path fill="#FFFFFF" opacity="1.000000" stroke="none" 
	d="
M745.597900,514.962524 
	C746.048279,522.995300 746.026611,531.060486 746.037476,539.597839 
	C720.191589,540.069946 694.313293,540.069946 667.995056,540.069946 
	C667.995056,531.725464 667.995056,523.799866 667.962524,515.402100 
	C693.661987,514.951660 719.393860,514.973328 745.597900,514.962524 
z"/>
<path fill="#FFFFFF" opacity="1.000000" stroke="none" 
	d="
M720.051208,591.973450 
	C702.960754,591.939270 685.833740,591.939270 668.353394,591.939270 
	C668.353394,583.532898 668.353394,575.135254 668.353394,566.367920 
	C685.220520,566.367920 702.385376,566.367920 719.996033,566.367920 
	C719.996033,574.603394 719.996033,582.868530 719.971069,591.607178 
	C719.946045,592.080688 720.014587,592.007629 720.051208,591.973450 
z"/>
<path fill="#FFFFFF" opacity="1.000000" stroke="none" 
	d="
M591.026550,695.051208 
	C591.060730,686.621155 591.060730,678.154480 591.060730,669.343994 
	C599.480042,669.343994 607.871277,669.343994 616.632080,669.343994 
	C616.632080,677.555908 616.632080,686.061279 616.632080,694.996033 
	C608.384033,694.996033 600.125244,694.996033 591.392822,694.971069 
	C590.919312,694.946045 590.992371,695.014587 591.026550,695.051208 
z"/>
<path fill="#FFFFFF" opacity="1.000000" stroke="none" 
	d="
M642.962524,489.402130 
	C651.043701,488.930054 659.157349,488.930054 668.005005,488.930054 
	C668.005005,497.404633 668.005005,505.765198 668.037476,514.597839 
	C659.956299,515.069946 651.842651,515.069946 642.995056,515.069946 
	C642.995056,506.595337 642.995056,498.234772 642.962524,489.402130 
z"/>
<path fill="#FFFFFF" opacity="1.000000" stroke="none" 
	d="
M152.962555,463.402161 
	C170.047501,462.930054 187.164948,462.930054 204.641190,462.930054 
	C204.641190,454.425140 204.641190,445.916931 204.641190,437.027405 
	C196.226425,437.027405 187.829971,437.027405 179.005356,437.027405 
	C179.005356,428.730530 179.005356,420.802582 179.003906,412.437256 
	C179.002441,411.999878 178.930054,412.069946 179.402130,412.037415 
	C188.235535,412.004913 196.596878,412.004913 205.069946,412.004913 
	C205.069946,402.822540 205.069946,394.376282 205.034943,385.966248 
	C204.999939,386.002441 204.931015,386.075867 204.931015,386.075867 
	C213.056976,386.075867 221.182938,386.075867 229.995056,386.075867 
	C229.995056,368.896393 229.995056,351.885345 229.962555,334.402191 
	C238.403259,333.930054 246.876480,333.930054 255.734451,333.930054 
	C255.734451,342.525635 255.734451,350.927673 255.734451,359.663300 
	C264.504425,359.663300 272.903351,359.663300 281.819641,359.663300 
	C281.819641,325.757812 281.819641,291.606537 281.819641,256.995056 
	C290.593140,256.995056 298.859436,256.995056 307.597839,256.962555 
	C308.069946,282.413361 308.069946,307.896667 308.069946,333.689880 
	C333.575592,333.689880 358.981476,333.689880 384.789612,333.689880 
	C384.789612,325.756287 384.789612,317.677155 384.789612,309.201660 
	C419.259857,309.201660 453.333649,309.201660 487.702942,309.201660 
	C487.702942,300.402161 487.702942,291.995270 487.702942,283.184143 
	C479.395294,283.184143 470.983215,283.184143 462.288239,283.184143 
	C462.288239,274.383728 462.288239,265.977264 462.288239,257.166534 
	C470.622131,257.166534 479.034943,257.166534 487.842285,257.166534 
	C487.842285,248.368759 487.842285,239.955978 487.842285,231.275040 
	C504.979187,231.275040 521.718201,231.275040 538.729370,231.275040 
	C538.729370,239.652481 538.729370,248.058792 538.729370,256.868561 
	C530.672913,256.868561 522.595764,256.868561 514.261902,256.868561 
	C514.261902,282.673340 514.261902,308.078674 514.261902,333.885986 
	C548.348206,333.885986 582.422058,333.885986 616.894714,333.885986 
	C616.894714,351.355133 616.894714,368.431030 616.894714,385.903473 
	C634.030579,385.903473 650.773254,385.903473 668.004944,385.903473 
	C668.004944,394.572998 668.004944,402.849365 668.037476,411.597839 
	C625.198486,412.069946 582.327087,412.069946 538.994812,412.069946 
	C538.994812,403.407562 538.994812,395.144043 539.433228,386.438049 
	C556.787720,385.995514 573.703796,385.995514 590.632690,385.995514 
	C590.632690,377.073822 590.632690,368.562592 590.632690,360.332642 
	C573.216492,360.332642 556.168396,360.332642 539.068604,360.332642 
	C539.068604,369.136597 539.068604,377.608154 539.068604,386.079712 
	C530.929260,386.079712 522.789978,386.079712 514.266724,386.079712 
	C514.266724,377.475128 514.266724,369.073853 514.266724,360.337769 
	C505.498535,360.337769 497.100189,360.337769 488.315063,360.337769 
	C488.315063,368.475891 488.315063,376.876495 488.315063,385.638062 
	C462.443665,385.638062 436.953217,385.638062 410.994843,385.638062 
	C410.994843,377.410614 410.994843,369.145569 411.433197,360.437988 
	C419.796295,359.995514 427.721069,359.995514 435.632690,359.995514 
	C435.632690,351.059570 435.632690,342.555176 435.632690,334.342987 
	C427.205902,334.342987 419.148163,334.342987 411.068542,334.342987 
	C411.068542,343.150452 411.068542,351.615051 411.068542,360.079651 
	C402.601501,360.079651 394.134491,360.079651 385.290497,360.079651 
	C385.290497,368.503571 385.290497,376.899261 385.290497,385.822174 
	C367.763611,385.822174 350.599396,385.822174 332.994385,385.822174 
	C332.994385,394.604126 332.994385,402.864655 332.994019,411.562531 
	C332.993683,411.999878 333.062500,411.926666 333.062500,411.926666 
	C324.923828,411.926666 316.785126,411.926666 308.262115,411.926666 
	C308.262115,403.470490 308.262115,395.069092 308.262115,386.335480 
	C299.493988,386.335480 291.095734,386.335480 282.310486,386.335480 
	C282.310486,394.479889 282.310486,402.881042 282.310486,411.841766 
	C273.427734,411.841766 264.901215,411.841766 256.004944,411.841766 
	C256.004944,437.642487 256.004944,462.884064 256.037445,488.597809 
	C221.861389,489.069946 187.652847,489.069946 152.995056,489.069946 
	C152.995056,480.397888 152.995056,472.136078 152.962555,463.402161 
z"/>
<path fill="#FFFFFF" opacity="1.000000" stroke="none" 
	d="
M461.597839,153.962555 
	C462.044830,162.328506 462.019745,170.726944 461.996155,179.562744 
	C461.997620,180.000107 462.069946,179.930054 461.597839,179.962555 
	C452.874939,179.995056 444.624084,179.995056 436.348633,179.995056 
	C436.348633,188.915802 436.348633,197.414139 436.348633,206.069946 
	C445.154602,206.069946 453.612274,206.069946 462.033752,206.034943 
	C461.997559,205.999939 461.924133,205.931015 461.924133,205.931015 
	C461.924133,214.065735 461.924133,222.200455 461.924133,230.667480 
	C436.398315,230.667480 410.922363,230.667480 385.005341,230.667480 
	C385.005341,222.731262 385.005341,214.802948 385.003845,206.437256 
	C385.002380,205.999893 384.930054,206.069946 385.402161,206.037445 
	C394.125061,206.004944 402.375916,206.004944 410.651367,206.004944 
	C410.651367,197.084198 410.651367,188.585861 410.651367,179.930054 
	C401.845398,179.930054 393.387726,179.930054 384.966248,179.965057 
	C385.002441,180.000061 385.075867,180.068985 385.075867,180.068985 
	C385.075867,171.596436 385.075867,163.123901 385.075867,154.266998 
	C376.475555,154.266998 368.074036,154.266998 359.337738,154.266998 
	C359.337738,145.498184 359.337738,137.099594 359.337738,128.349457 
	C384.582489,128.349457 410.073456,128.349457 435.951080,128.349457 
	C435.951080,136.748566 435.951080,145.150620 435.951080,153.995056 
	C444.594177,153.995056 452.859985,153.995056 461.597839,153.962555 
z"/>
<path fill="#FFFFFF" opacity="1.000000" stroke="none" 
	d="
M539.000000,292.037384 
	C539.000000,288.894897 539.000000,286.247040 539.000000,283.300293 
	C564.925720,283.300293 590.661316,283.300293 616.698975,283.300293 
	C616.698975,291.588226 616.698975,299.994263 616.698975,308.701660 
	C591.070679,308.701660 565.335022,308.701660 539.000000,308.701660 
	C539.000000,303.388306 539.000000,297.960144 539.000000,292.037384 
z"/>
<path fill="#FFFFFF" opacity="1.000000" stroke="none" 
	d="
M332.746216,257.279724 
	C350.001038,257.279724 367.255829,257.279724 384.755249,257.279724 
	C384.755249,265.695099 384.755249,274.089142 384.755249,282.742615 
	C367.674866,282.742615 350.625458,282.742615 332.991608,282.742615 
	C332.991608,274.543549 332.991608,266.293182 332.905457,257.619995 
	C332.819305,257.197174 332.746216,257.279724 332.746216,257.279724 
z"/>
<path fill="#FFFFFF" opacity="1.000000" stroke="none" 
	d="
M359.402130,206.037445 
	C358.930054,197.623138 358.930054,189.176331 358.930054,180.004898 
	C367.405518,180.004898 375.768066,180.004898 384.603210,180.036942 
	C385.075867,180.068985 385.002441,180.000061 384.998749,180.437164 
	C384.973389,189.272842 384.951721,197.671387 384.930054,206.069946 
	C384.930054,206.069946 385.002380,205.999893 385.039124,205.965439 
	C376.675293,205.955643 368.274750,205.980286 359.402130,206.037445 
z"/>
<path fill="#FFFFFF" opacity="1.000000" stroke="none" 
	d="
M461.960876,180.034576 
	C470.324677,180.044373 478.725189,180.019714 487.597839,179.962555 
	C488.069946,188.376862 488.069946,196.823669 488.069946,205.995102 
	C479.594482,205.995102 471.231934,205.995102 462.396790,205.963058 
	C461.924133,205.931015 461.997559,205.999939 462.001251,205.562836 
	C462.026611,196.727158 462.048279,188.328613 462.069946,179.930054 
	C462.069946,179.930054 461.997620,180.000107 461.960876,180.034576 
z"/>
<path fill="#FFFFFF" opacity="1.000000" stroke="none" 
	d="
M643.000000,292.037384 
	C643.000000,288.895294 643.000000,286.247803 643.000000,283.300903 
	C651.253906,283.300903 659.325500,283.300903 667.700195,283.300903 
	C667.700195,291.589569 667.700195,299.994354 667.700195,308.701050 
	C659.742004,308.701050 651.670532,308.701050 643.000000,308.701050 
	C643.000000,303.386627 643.000000,297.959290 643.000000,292.037384 
z"/>
<path fill="#FFFFFF" opacity="1.000000" stroke="none" 
	d="
M307.962555,231.402130 
	C315.995270,230.951721 324.060486,230.973389 332.597839,230.962555 
	C333.040283,239.382294 333.010620,247.834534 332.863586,256.783264 
	C332.746216,257.279724 332.819305,257.197174 332.850037,257.162292 
	C324.878601,257.086578 316.876434,257.045746 308.402161,257.037445 
	C307.951721,248.671371 307.973389,240.272781 307.962555,231.402130 
z"/>
<path fill="#FFFFFF" opacity="1.000000" stroke="none" 
	d="
M333.402161,231.037445 
	C332.951721,223.004730 332.973389,214.939499 332.962555,206.402161 
	C341.328613,205.951721 349.727142,205.973389 358.597839,205.962555 
	C359.069946,214.043716 359.069946,222.157379 359.069946,231.004944 
	C350.595337,231.004944 342.234772,231.004944 333.402161,231.037445 
z"/>
<path fill="#FFFFFF" opacity="1.000000" stroke="none" 
	d="
M488.039124,488.965393 
	C470.938721,488.930939 453.801605,488.930939 436.283691,488.930939 
	C436.283691,471.818848 436.283691,454.756836 436.283691,437.314819 
	C419.183716,437.314819 402.454956,437.314819 385.363464,437.314819 
	C385.363464,428.758240 385.363464,420.573547 385.363464,412.192078 
	C410.794342,412.192078 436.179474,412.192078 461.946075,412.192078 
	C461.946075,429.080902 461.946075,445.809784 461.946075,463.004883 
	C470.589600,463.004883 478.860077,463.004883 487.603210,463.036957 
	C488.075867,463.069031 488.002441,463.000092 487.998749,463.437195 
	C487.973389,472.272858 487.951721,480.671387 487.930054,489.069946 
	C487.930054,489.069946 488.002411,488.999878 488.039124,488.965393 
z"/>
<path fill="#FFFFFF" opacity="1.000000" stroke="none" 
	d="
M359.034210,489.042969 
	C359.068542,480.608093 359.068542,472.136505 359.068542,463.332642 
	C376.168488,463.332642 393.216553,463.332642 410.632690,463.332642 
	C410.632690,471.562592 410.632690,480.073822 410.632690,488.995514 
	C393.703796,488.995514 376.787689,488.995514 359.399109,488.966492 
	C358.926666,488.937500 358.999878,489.006317 359.034210,489.042969 
z"/>
<path fill="#FFFFFF" opacity="1.000000" stroke="none" 
	d="
M332.720276,436.746216 
	C332.720276,445.339752 332.720276,453.933319 332.720276,462.763184 
	C324.628326,462.763184 316.572845,462.763184 308.257568,462.763184 
	C308.257568,454.338470 308.257568,445.949738 308.257568,436.991608 
	C316.133972,436.991608 324.045563,436.991608 332.380005,436.905457 
	C332.802826,436.819305 332.720276,436.746216 332.720276,436.746216 
z"/>
<path fill="#FFFFFF" opacity="1.000000" stroke="none" 
	d="
M332.957031,412.034210 
	C341.392242,412.068542 349.864136,412.068542 358.667847,412.068542 
	C358.667847,420.178436 358.667847,428.242310 358.667847,436.980957 
	C350.515167,436.980957 342.114197,436.980957 333.216736,436.863586 
	C332.720276,436.746216 332.802826,436.819305 332.837708,436.850037 
	C332.916595,428.877686 332.960541,420.874603 333.033508,412.399109 
	C333.062500,411.926666 332.993683,411.999878 332.957031,412.034210 
z"/>
<path fill="#FCFCFC" opacity="1.000000" stroke="none" 
	d="
M709.999878,179.834259 
	C678.878296,179.834244 648.256653,179.834244 617.317261,179.834244 
	C617.317261,136.871613 617.317261,94.175560 617.317261,51.238708 
	C660.024658,51.238708 702.735657,51.238708 745.688416,51.238708 
	C745.688416,93.932396 745.688416,136.507874 745.688416,179.834259 
	C733.997559,179.834259 722.248779,179.834259 709.999878,179.834259 
M711.444885,153.999512 
	C714.202209,153.999512 716.959595,153.999512 719.616821,153.999512 
	C719.616821,127.913261 719.616821,102.509712 719.616821,77.150909 
	C693.795532,77.150909 668.247192,77.150909 642.830811,77.150909 
	C642.830811,102.888184 642.830811,128.286346 642.830811,153.999512 
	C665.549255,153.999512 688.002930,153.999512 711.444885,153.999512 
z"/>
<path fill="#FCFCFC" opacity="1.000000" stroke="none" 
	d="
M50.163704,63.019733 
	C50.163704,58.883595 50.163704,55.243282 50.163704,51.303413 
	C93.168770,51.303413 135.884689,51.303413 178.802048,51.303413 
	C178.802048,93.995064 178.802048,136.599747 178.802048,179.520508 
	C136.058044,179.520508 93.344620,179.520508 50.163704,179.520508 
	C50.163704,140.753983 50.163704,102.134773 50.163704,63.019733 
M138.495697,153.998245 
	C143.259064,153.998245 148.022430,153.998245 152.627319,153.998245 
	C152.627319,127.920982 152.627319,102.408806 152.627319,77.111252 
	C126.861343,77.111252 101.466866,77.111252 76.010460,77.111252 
	C76.010460,102.800110 76.010460,128.191498 76.010460,153.998245 
	C96.634811,153.998245 117.065742,153.998245 138.495697,153.998245 
z"/>
<path fill="#FCFCFC" opacity="1.000000" stroke="none" 
	d="
M80.999863,746.707275 
	C70.545128,746.707275 60.590393,746.707275 50.401978,746.707275 
	C50.401978,703.630737 50.401978,661.052002 50.401978,618.149109 
	C93.083115,618.149109 135.671249,618.149109 178.632599,618.149109 
	C178.632599,660.628174 178.632599,703.349854 178.632599,746.707275 
	C146.363373,746.707275 113.931618,746.707275 80.999863,746.707275 
M75.814583,674.499939 
	C75.814583,689.892517 75.814583,705.285156 75.814583,720.605591 
	C101.927750,720.605591 127.317627,720.605591 152.679626,720.605591 
	C152.679626,694.782104 152.679626,669.240723 152.679626,643.846497 
	C126.961220,643.846497 101.561928,643.846497 75.814583,643.846497 
	C75.814583,653.914246 75.814583,663.707031 75.814583,674.499939 
z"/>
<path fill="#FFFFFF" opacity="1.000000" stroke="none" 
	d="
M307.962555,102.402130 
	C315.995270,101.951721 324.060486,101.973389 332.597839,101.962555 
	C333.069946,119.048912 333.069946,136.167770 333.069946,153.643219 
	C324.753082,153.643219 316.577393,153.643219 307.995056,153.643219 
	C307.995056,136.695343 307.995056,119.784767 307.962555,102.402130 
z"/>
<path fill="#FFFFFF" opacity="1.000000" stroke="none" 
	d="
M333.037415,205.597870 
	C325.004730,206.048279 316.939514,206.026611 308.402161,206.037445 
	C307.930054,197.612610 307.930054,189.155289 307.930054,180.349121 
	C316.251892,180.349121 324.417572,180.349121 333.004913,180.349121 
	C333.004913,188.624786 333.004913,196.875290 333.037415,205.597870 
z"/>
<path fill="#FFFFFF" opacity="1.000000" stroke="none" 
	d="
M101.402130,412.037476 
	C100.951729,395.004730 100.973389,377.939545 100.962555,360.402191 
	C135.472748,359.930054 170.015442,359.930054 204.995102,359.930054 
	C204.995102,368.605255 204.995102,376.867920 204.963058,385.603210 
	C204.931015,386.075867 204.999939,386.002441 204.562820,385.998749 
	C195.764389,385.995056 187.403076,385.995056 178.930054,385.995056 
	C178.930054,395.177460 178.930054,403.623718 178.930054,412.069946 
	C178.930054,412.069946 179.002441,411.999878 179.039154,411.965454 
	C153.341995,411.955658 127.608093,411.980316 101.402130,412.037476 
z"/>
<path fill="#FFFFFF" opacity="1.000000" stroke="none" 
	d="
M152.597870,256.962585 
	C153.069946,265.376190 153.069946,273.822327 153.069946,283.005341 
	C161.402924,283.005341 169.764160,283.005341 178.562744,283.003845 
	C179.000107,283.002380 178.930054,282.930054 178.962555,283.402130 
	C178.973389,292.272797 178.951721,300.671356 178.965057,309.033752 
	C179.000061,308.997559 179.068985,308.924133 179.068985,308.924133 
	C170.595520,308.924133 162.122070,308.924133 153.262711,308.924133 
	C153.262711,317.195038 153.262711,325.264160 153.262711,333.665344 
	C144.490982,333.665344 136.091751,333.665344 127.303452,333.665344 
	C127.303452,325.845490 127.303452,317.777649 127.303452,309.323853 
	C118.534706,309.323853 110.132111,309.323853 101.365524,309.323853 
	C101.365524,291.772491 101.365524,274.602142 101.365524,256.995087 
	C118.282349,256.995087 135.204071,256.995087 152.597870,256.962585 
z"/>
<path fill="#FFFFFF" opacity="1.000000" stroke="none" 
	d="
M204.931015,283.075867 
	C213.056519,283.075867 221.182037,283.075867 230.004944,283.075867 
	C230.004944,299.769531 230.004944,316.447601 230.037445,333.597809 
	C213.184113,334.069946 196.298279,334.069946 179.004898,334.069946 
	C179.004898,325.709259 179.004898,317.789337 179.036942,309.396790 
	C179.068985,308.924133 179.000061,308.997559 179.437180,309.001251 
	C188.235611,309.004944 196.596924,309.004944 205.069946,309.004944 
	C205.069946,299.822540 205.069946,291.376282 205.034943,282.966248 
	C204.999939,283.002441 204.931015,283.075867 204.931015,283.075867 
z"/>
<path fill="#FFFFFF" opacity="1.000000" stroke="none" 
	d="
M307.965332,720.961060 
	C307.955566,729.324768 307.980255,737.725281 308.037415,746.597839 
	C299.671387,747.048279 291.272858,747.026611 282.402161,747.037476 
	C281.954987,738.669800 281.979919,730.269592 282.036926,721.396851 
	C282.069031,720.924194 282.000122,720.997620 282.437195,721.001282 
	C291.272858,721.026611 299.671387,721.048279 308.069946,721.069946 
	C308.069946,721.069946 307.999817,720.997742 307.965332,720.961060 
z"/>
<path fill="#FFFFFF" opacity="1.000000" stroke="none" 
	d="
M179.034576,283.039124 
	C179.044388,274.675323 179.019730,266.274811 178.962555,257.402161 
	C187.376862,256.930054 195.823669,256.930054 204.995102,256.930054 
	C204.995102,265.405518 204.995102,273.768066 204.963058,282.603210 
	C204.931015,283.075867 204.999939,283.002441 204.562836,282.998749 
	C195.727158,282.973389 187.328613,282.951721 178.930054,282.930054 
	C178.930054,282.930054 179.000107,283.002380 179.034576,283.039124 
z"/>
<path fill="#FFFFFF" opacity="1.000000" stroke="none" 
	d="
M100.962555,463.402130 
	C109.328613,462.951721 117.727165,462.973389 126.597824,462.962555 
	C127.069939,471.376282 127.069939,479.822540 127.069939,489.004944 
	C118.596924,489.004944 110.235603,489.004944 101.402176,489.037445 
	C100.951729,480.671356 100.973389,472.272797 100.962555,463.402130 
z"/>
<path fill="#FFFFFF" opacity="1.000000" stroke="none" 
	d="
M127.402130,463.037445 
	C126.930061,454.612274 126.930061,446.154602 126.930061,437.348633 
	C135.585846,437.348633 144.084167,437.348633 153.004944,437.348633 
	C153.004944,445.624054 153.004944,453.874878 153.037445,462.597839 
	C144.671371,463.048279 136.272781,463.026611 127.402130,463.037445 
z"/>
<path fill="#FFFFFF" opacity="1.000000" stroke="none" 
	d="
M513.949402,102.026047 
	C522.046448,102.060234 530.180054,102.060234 538.656738,102.060234 
	C538.656738,110.481354 538.656738,118.872200 538.656738,127.632324 
	C530.777222,127.632324 522.604675,127.632324 514.003967,127.632324 
	C514.003967,119.382889 514.003967,111.124420 514.029236,102.392365 
	C514.054504,101.918785 513.986023,101.991867 513.949402,102.026047 
z"/>
<path fill="#000000" opacity="1.000000" stroke="none" 
	d="
M405.000305,566.000000 
	C398.190796,566.000000 391.881195,566.000000 385.286926,566.000000 
	C385.286926,557.383484 385.286926,548.978760 385.286926,540.285461 
	C401.953918,540.285461 418.689301,540.285461 435.713074,540.285461 
	C435.713074,548.616943 435.713074,557.021423 435.713074,566.000000 
	C425.692108,566.000000 415.596161,566.000000 405.000305,566.000000 
z"/>
<path fill="#000000" opacity="1.000000" stroke="none" 
	d="
M308.037415,720.597900 
	C299.671387,721.048279 291.272858,721.026611 282.402161,721.037476 
	C281.930054,712.612244 281.930054,704.154480 281.930054,695.348633 
	C290.585876,695.348633 299.084198,695.348633 308.004913,695.348633 
	C308.004913,703.624084 308.004913,711.874939 308.037415,720.597900 
z"/>
<path fill="#000000" opacity="1.000000" stroke="none" 
	d="
M332.956970,644.034302 
	C341.384918,644.068604 349.849548,644.068604 358.657013,644.068604 
	C358.657013,652.148132 358.657013,660.205933 358.657013,668.632690 
	C350.445007,668.632690 341.940948,668.632690 333.004486,668.632690 
	C333.004486,660.721130 333.004486,652.796326 333.033478,644.399170 
	C333.062469,643.926758 332.993652,643.999939 332.956970,644.034302 
z"/>
<path fill="#000000" opacity="1.000000" stroke="none" 
	d="
M308.034241,540.042847 
	C308.068542,531.947815 308.068542,523.816162 308.068542,515.342346 
	C316.149078,515.342346 324.206512,515.342346 332.632751,515.342346 
	C332.632751,523.221802 332.632751,531.393433 332.632751,539.995544 
	C324.720276,539.995544 316.795929,539.995544 308.399109,539.966431 
	C307.926666,539.937317 307.999908,540.006165 308.034241,540.042847 
z"/>
<path fill="#000000" opacity="1.000000" stroke="none" 
	d="
M488.402161,489.037415 
	C487.951721,480.671387 487.973389,472.272858 487.962555,463.402161 
	C504.715942,462.930054 521.501831,462.930054 538.643799,462.930054 
	C538.643799,471.580841 538.643799,480.089142 538.643799,489.004913 
	C522.029480,489.004913 505.451874,489.004913 488.402161,489.037415 
z"/>
<path fill="#000000" opacity="1.000000" stroke="none" 
	d="
M616.997925,594.197266 
	C616.999817,602.307617 616.999817,609.934509 616.999817,617.778076 
	C608.247681,617.778076 599.843384,617.778076 591.218994,617.778076 
	C591.218994,609.241516 591.218994,600.837341 591.218994,592.003540 
	C599.303284,592.003540 607.253479,591.966370 615.201477,592.077393 
	C615.807190,592.085815 616.398254,593.143738 616.997925,594.197266 
z"/>
<path fill="#000000" opacity="1.000000" stroke="none" 
	d="
M539.034302,386.043030 
	C539.068604,377.608154 539.068604,369.136597 539.068604,360.332642 
	C556.168396,360.332642 573.216492,360.332642 590.632690,360.332642 
	C590.632690,368.562592 590.632690,377.073822 590.632690,385.995514 
	C573.703796,385.995514 556.787720,385.995514 539.399170,385.966522 
	C538.926758,385.937531 538.999939,386.006348 539.034302,386.043030 
z"/>
<path fill="#000000" opacity="1.000000" stroke="none" 
	d="
M179.402130,412.037415 
	C178.930054,403.623718 178.930054,395.177460 178.930054,385.995056 
	C187.403076,385.995056 195.764389,385.995056 204.597824,385.962555 
	C205.069946,394.376282 205.069946,402.822540 205.069946,412.004913 
	C196.596878,412.004913 188.235535,412.004913 179.402130,412.037415 
z"/>
<path fill="#000000" opacity="1.000000" stroke="none" 
	d="
M411.034210,360.042969 
	C411.068542,351.615051 411.068542,343.150452 411.068542,334.342987 
	C419.148163,334.342987 427.205902,334.342987 435.632690,334.342987 
	C435.632690,342.555176 435.632690,351.059570 435.632690,359.995514 
	C427.721069,359.995514 419.796295,359.995514 411.399109,359.966492 
	C410.926666,359.937500 410.999878,360.006317 411.034210,360.042969 
z"/>
<path fill="#000000" opacity="1.000000" stroke="none" 
	d="
M385.402161,206.037445 
	C384.951721,197.671387 384.973389,189.272842 384.962555,180.402161 
	C393.387726,179.930054 401.845398,179.930054 410.651367,179.930054 
	C410.651367,188.585861 410.651367,197.084198 410.651367,206.004944 
	C402.375916,206.004944 394.125061,206.004944 385.402161,206.037445 
z"/>
<path fill="#000000" opacity="1.000000" stroke="none" 
	d="
M461.597839,179.962555 
	C462.048279,188.328613 462.026611,196.727158 462.037445,205.597839 
	C453.612274,206.069946 445.154602,206.069946 436.348633,206.069946 
	C436.348633,197.414139 436.348633,188.915802 436.348633,179.995056 
	C444.624084,179.995056 452.874939,179.995056 461.597839,179.962555 
z"/>
<path fill="#010101" opacity="1.000000" stroke="none" 
	d="
M710.950684,153.999512 
	C688.002930,153.999512 665.549255,153.999512 642.830811,153.999512 
	C642.830811,128.286346 642.830811,102.888184 642.830811,77.150909 
	C668.247192,77.150909 693.795532,77.150909 719.616821,77.150909 
	C719.616821,102.509712 719.616821,127.913261 719.616821,153.999512 
	C716.959595,153.999512 714.202209,153.999512 710.950684,153.999512 
z"/>
<path fill="#000000" opacity="1.000000" stroke="none" 
	d="
M137.996185,153.998245 
	C117.065742,153.998245 96.634811,153.998245 76.010460,153.998245 
	C76.010460,128.191498 76.010460,102.800110 76.010460,77.111252 
	C101.466866,77.111252 126.861343,77.111252 152.627319,77.111252 
	C152.627319,102.408806 152.627319,127.920982 152.627319,153.998245 
	C148.022430,153.998245 143.259064,153.998245 137.996185,153.998245 
z"/>
<path fill="#010101" opacity="1.000000" stroke="none" 
	d="
M75.814583,673.999878 
	C75.814583,663.707031 75.814583,653.914246 75.814583,643.846497 
	C101.561928,643.846497 126.961220,643.846497 152.679626,643.846497 
	C152.679626,669.240723 152.679626,694.782104 152.679626,720.605591 
	C127.317627,720.605591 101.927750,720.605591 75.814583,720.605591 
	C75.814583,705.285156 75.814583,689.892517 75.814583,673.999878 
z"/>
<path fill="#000000" opacity="1.000000" stroke="none" 
	d="
M178.962555,283.402130 
	C187.328613,282.951721 195.727158,282.973389 204.597839,282.962555 
	C205.069946,291.376282 205.069946,299.822540 205.069946,309.004944 
	C196.596924,309.004944 188.235611,309.004944 179.402176,309.037445 
	C178.951721,300.671356 178.973389,292.272797 178.962555,283.402130 
z"/>
</svg>