<svg version="1.1" id="Layer_1" xmlns="http://www.w3.org/2000/svg" xmlns:xlink="http://www.w3.org/1999/xlink" x="0px" y="0px"
	 width="100%" viewBox="0 0 800 800" enable-background="new 0 0 800 800" xml:space="preserve">
<path fill="#FEFEFE" opacity="1.000000" stroke="none" 
	d="
M1.000000,217.000000 
	C1.000000,144.666672 1.000000,72.833336 1.000000,1.000000 
	C267.666656,1.000000 534.333313,1.000000 801.000000,1.000000 
	C801.000000,267.666656 801.000000,534.333313 801.000000,801.000000 
	C534.333313,801.000000 267.666656,801.000000 1.000000,801.000000 
	C1.000000,606.500000 1.000000,412.000000 1.000000,217.000000 
M233.005951,570.869690 
	C233.005951,587.883057 233.005951,604.896484 233.005951,621.931152 
	C242.156067,621.931152 250.615906,621.931152 259.006409,622.874817 
	C259.006409,631.151062 259.006409,639.427307 259.006409,648.096497 
	C250.108948,648.096497 241.696762,648.096497 233.252747,648.096497 
	C233.252747,690.901733 233.252747,733.305542 233.252747,775.742798 
	C250.576996,775.742798 267.648376,775.742798 284.737823,775.742798 
	C284.737823,767.412048 284.737823,759.339844 284.737823,750.871643 
	C276.071869,750.871643 267.661743,750.871643 259.267090,750.871643 
	C259.267090,733.397339 259.267090,716.325378 259.267090,699.270447 
	C267.943909,699.270447 276.350189,699.270447 285.151367,699.270447 
	C285.151367,707.947327 285.151367,716.359436 285.151367,725.157410 
	C293.958008,725.157410 302.370514,725.157410 311.167847,725.157410 
	C311.167847,733.964294 311.167847,742.376892 311.167847,750.710144 
	C319.644806,750.710144 327.717743,750.710144 336.183777,750.710144 
	C336.183777,742.014832 336.183777,733.603027 336.183777,724.806519 
	C362.323029,724.806519 388.063293,724.806519 414.198364,724.806519 
	C414.198364,707.334045 414.198364,690.258728 414.198364,673.302368 
	C422.675934,673.302368 430.749725,673.302368 439.215118,673.302368 
	C439.215118,682.013123 439.215118,690.425659 439.215118,698.926453 
	C448.097870,698.926453 456.580200,698.926453 465.005524,699.871460 
	C465.028259,716.935181 465.050995,733.998962 464.128662,751.005554 
	C438.883728,751.005554 413.638763,751.005554 388.368317,751.005554 
	C388.368317,759.585632 388.368317,767.766541 388.368317,775.671631 
	C414.112305,775.671631 439.488617,775.671631 464.931976,775.671631 
	C464.931976,767.203369 464.931976,759.062012 465.875366,750.993286 
	C499.783203,750.993286 533.691040,750.993286 567.633301,750.993286 
	C567.633301,742.086182 567.633301,733.570190 567.633301,724.699219 
	C541.885498,724.699219 516.502808,724.699219 490.737305,724.699219 
	C490.737305,715.933899 490.737305,707.529480 490.737305,699.068237 
	C481.872620,699.068237 473.396545,699.068237 464.993317,698.124817 
	C464.993317,689.858704 464.993317,681.592590 464.993317,672.948914 
	C473.849274,672.948914 482.251526,672.948914 491.026917,672.948914 
	C491.026917,664.504822 491.026917,656.436096 491.026917,648.193970 
	C499.808014,648.193970 508.202759,648.193970 517.160034,648.193970 
	C517.160034,656.567139 517.160034,664.761902 517.160034,673.312988 
	C525.789978,673.312988 533.858276,673.312988 542.293152,673.312988 
	C542.293152,682.098694 542.293152,690.500366 542.293152,699.087830 
	C559.805847,699.087830 576.933289,699.087830 593.992371,699.014587 
	C593.992371,699.014587 593.919312,698.946045 593.995361,699.887390 
	C593.995361,708.157043 593.995361,716.426758 593.995361,724.769470 
	C611.544922,724.769470 628.605164,724.769470 646.048340,724.769470 
	C646.048340,707.480591 646.048340,690.417114 646.048340,672.965820 
	C654.495728,672.965820 662.569214,672.965820 671.015991,672.965820 
	C671.015991,655.847107 671.015991,639.116028 671.015991,622.195007 
	C679.800110,622.195007 688.199768,622.195007 697.160522,622.195007 
	C697.160522,639.235291 697.160522,656.088501 697.160522,672.658813 
	C723.111755,672.658813 748.501282,672.658813 773.670410,672.658813 
	C773.670410,655.588501 773.670410,638.859558 773.670410,621.753174 
	C756.612793,621.753174 739.881775,621.753174 723.087830,621.753174 
	C723.087830,612.892456 723.087830,604.415833 723.014587,596.007629 
	C723.014587,596.007629 722.946045,596.080688 723.887390,596.004639 
	C732.136780,596.004639 740.386169,596.004639 748.924316,596.004639 
	C748.924316,578.362244 748.924316,561.146790 749.869690,543.994080 
	C757.788025,543.994080 765.706360,543.994080 773.649292,543.994080 
	C773.649292,535.416565 773.649292,527.251709 773.649292,519.068726 
	C765.174622,519.068726 757.049438,519.068726 748.993591,518.125061 
	C748.993591,509.857086 748.993591,501.589111 748.993591,492.940491 
	C757.523438,492.940491 765.593506,492.940491 773.783081,492.940491 
	C773.783081,484.154236 773.783081,475.757935 773.783081,467.196350 
	C756.846008,467.196350 740.125061,467.196350 722.839478,467.196350 
	C722.839478,475.904327 722.839478,484.434204 722.839478,492.647217 
	C713.871094,492.647217 705.469299,492.647217 696.696533,492.647217 
	C696.696533,483.891571 696.696533,475.489716 696.696533,467.325867 
	C679.584167,467.325867 662.861206,467.325867 646.068848,467.325867 
	C646.068848,476.125427 646.068848,484.600586 645.125183,493.006378 
	C636.727173,493.029510 628.329163,493.052643 619.994019,492.130432 
	C619.994019,475.218658 619.994019,458.306885 619.994019,440.864990 
	C637.218811,440.864990 654.052429,440.864990 670.931152,440.864990 
	C670.931152,432.196289 670.931152,424.060272 671.874878,415.993591 
	C688.816833,415.993591 705.758789,415.993591 723.097412,415.993591 
	C723.097412,424.558502 723.097412,432.637543 723.097412,440.744934 
	C740.238403,440.744934 756.976807,440.744934 773.739746,440.744934 
	C773.739746,423.751160 773.739746,407.012634 773.739746,389.875214 
	C765.408875,389.875214 757.331299,389.875214 748.864136,389.875214 
	C748.864136,381.068604 748.864136,372.658203 748.864136,364.274353 
	C740.054016,364.274353 731.648132,364.274353 722.847046,364.274353 
	C722.847046,372.953125 722.847046,381.365723 722.847046,389.719727 
	C714.036011,389.719727 705.629395,389.719727 696.828613,389.719727 
	C696.828613,381.032135 696.828613,372.619415 696.828613,363.821930 
	C688.020752,363.821930 679.608459,363.821930 671.292847,363.821930 
	C671.292847,355.010437 671.292847,346.603455 671.292847,337.803589 
	C679.993713,337.803589 688.405945,337.803589 697.203125,337.803589 
	C697.203125,329.328156 697.203125,321.249176 697.203125,312.785828 
	C706.012024,312.785828 714.424805,312.785828 722.926453,312.785828 
	C722.926453,303.902679 722.926453,295.420074 723.871460,286.994446 
	C732.135132,286.994446 740.398865,286.994446 748.631653,286.994446 
	C748.631653,269.383636 748.631653,252.220367 748.631653,235.353683 
	C739.865845,235.353683 731.469055,235.353683 723.068237,235.353683 
	C723.068237,252.830627 723.068237,269.955078 722.124817,287.006683 
	C713.848511,287.006683 705.572205,287.006683 696.902771,287.006683 
	C696.902771,269.441315 696.902771,252.365601 696.902771,235.254852 
	C688.094116,235.254852 679.688721,235.254852 670.886108,235.254852 
	C670.886108,243.912399 670.886108,252.323303 670.886108,260.739380 
	C662.409668,260.739380 654.337585,260.739380 645.868042,260.739380 
	C645.868042,252.072601 645.868042,243.662354 645.868042,235.272293 
	C637.058472,235.272293 628.652466,235.272293 619.851196,235.272293 
	C619.851196,243.948792 619.851196,252.361099 619.851196,260.721985 
	C611.040771,260.721985 602.634277,260.721985 593.833130,260.721985 
	C593.833130,252.036926 593.833130,243.624084 593.833130,234.826630 
	C585.025635,234.826630 576.613098,234.826630 567.815918,234.826630 
	C567.815918,217.686371 567.815918,200.943909 567.815918,184.298309 
	C559.004944,184.298309 550.598328,184.298309 541.799194,184.298309 
	C541.799194,193.002609 541.799194,201.415695 541.799194,209.695923 
	C533.320740,209.695923 525.246704,209.695923 516.781128,209.695923 
	C516.781128,200.983139 516.781128,192.570099 516.781128,184.075790 
	C507.897369,184.075790 499.414307,184.075790 490.994019,183.130432 
	C491.037598,174.792419 491.081177,166.454407 492.040649,158.007126 
	C517.299133,158.007126 542.557617,158.007126 567.691650,158.007126 
	C567.691650,123.320572 567.691650,89.249115 567.691650,55.073414 
	C558.902527,55.073414 550.420105,55.073414 541.994507,54.128452 
	C541.994507,45.871799 541.994507,37.615143 541.994507,29.368498 
	C533.394043,29.368498 525.222778,29.368498 517.343140,29.368498 
	C517.343140,38.126774 517.343140,46.516129 517.343140,54.931675 
	C525.816589,54.931675 533.948181,54.931675 542.006714,55.875053 
	C542.006714,64.124420 542.006714,72.373795 542.006714,81.154678 
	C533.430176,81.154678 525.252197,81.154678 516.912781,81.154678 
	C516.912781,89.815086 516.912781,97.937683 516.986023,105.991913 
	C516.986023,105.991913 517.054504,105.918831 516.113098,105.995308 
	C507.846802,105.995308 499.580505,105.995308 491.276642,105.995308 
	C491.276642,123.732162 491.276642,140.991409 490.284210,158.019791 
	C481.830872,158.036118 473.377563,158.052444 464.993591,157.125076 
	C464.993591,140.215881 464.993591,123.306679 464.993591,105.869812 
	C447.780762,105.869812 430.949005,105.869812 413.926910,105.869812 
	C413.926910,97.206184 413.926910,89.072014 414.871765,80.994461 
	C440.121094,80.994461 465.370453,80.994461 490.800171,80.994461 
	C490.800171,72.189896 490.800171,63.793495 490.800171,54.845169 
	C473.429749,54.845169 456.249573,54.845169 438.695923,54.845169 
	C438.695923,45.891174 438.695923,37.487045 438.695923,29.339968 
	C430.237152,29.339968 422.169281,29.339968 414.068604,29.339968 
	C414.068604,46.812416 414.068604,63.946140 413.125183,81.006729 
	C404.727203,81.029747 396.329224,81.052765 387.994049,80.130432 
	C387.994049,71.864220 387.994049,63.598007 387.994049,54.809105 
	C362.052185,54.809105 336.556427,54.809105 310.684998,54.809105 
	C310.684998,45.878922 310.684998,37.477573 310.684998,29.323997 
	C293.246368,29.323997 276.194214,29.323997 259.073090,29.323997 
	C259.073090,38.118401 259.073090,46.590286 258.128235,55.005539 
	C249.871216,55.005539 241.614197,55.005539 233.368561,55.005539 
	C233.368561,63.939831 233.368561,72.443932 233.368561,80.656166 
	C242.127426,80.656166 250.517273,80.656166 258.931396,80.656166 
	C258.931396,71.849121 258.931396,63.384636 259.874817,54.993279 
	C268.131622,54.993279 276.388458,54.993279 285.185913,54.993279 
	C285.185913,63.931835 285.185913,72.448975 285.185913,81.309082 
	C294.124390,81.309082 302.516113,81.309082 311.068726,81.309082 
	C311.068726,89.812332 311.068726,97.944077 310.125061,106.006432 
	C284.544617,106.006432 258.964203,106.006432 233.197327,106.006432 
	C233.197327,114.805992 233.197327,123.201866 233.197327,132.162003 
	C241.906296,132.162003 250.435089,132.162003 258.647156,132.162003 
	C258.647156,141.129623 258.647156,149.531036 258.647156,158.303070 
	C249.891815,158.303070 241.490265,158.303070 233.324020,158.303070 
	C233.324020,175.747299 233.324020,192.802567 233.324020,209.924210 
	C242.120636,209.924210 250.594696,209.924210 259.005951,210.869568 
	C259.005951,218.799026 259.005951,226.728485 259.005951,235.159821 
	C233.081131,235.159821 207.599396,235.159821 182.068771,235.159821 
	C182.068771,244.138260 182.068771,252.607025 181.125076,261.006409 
	C172.854980,261.006409 164.584885,261.006409 155.931808,261.006409 
	C155.931808,252.135010 155.931808,243.728958 155.931808,235.362289 
	C112.716331,235.362289 69.893318,235.362289 27.357647,235.362289 
	C27.357647,244.128799 27.357647,252.532303 27.357647,261.309692 
	C36.118134,261.309692 44.522717,261.309692 53.301014,261.309692 
	C53.301014,270.104889 53.301014,278.510071 53.301014,287.278290 
	C70.420082,287.278290 87.149200,287.278290 104.259888,287.278290 
	C104.259888,296.062408 104.259888,304.468506 104.259888,313.246887 
	C113.053436,313.246887 121.459518,313.246887 130.075790,313.246887 
	C130.075790,321.781036 130.075790,329.924896 129.130432,338.005951 
	C120.767624,338.005951 112.404816,338.005951 104.068802,338.005951 
	C104.068802,347.180542 104.068802,355.628143 103.125107,364.006409 
	C77.770538,364.006409 52.415977,364.006409 27.330086,364.006409 
	C27.330086,381.775818 27.330086,398.823273 27.330086,415.924164 
	C36.128765,415.924164 44.598751,415.924164 53.005955,416.869537 
	C53.005955,424.788940 53.005955,432.708344 53.005955,441.160095 
	C61.913029,441.160095 70.423912,441.160095 79.068802,441.160095 
	C79.068802,450.158051 79.068802,458.616913 78.125107,467.006409 
	C61.198612,467.006409 44.272118,467.006409 27.360260,467.006409 
	C27.360260,501.607147 27.360260,535.766663 27.360260,569.645813 
	C36.123684,569.645813 44.526085,569.645813 53.278961,569.645813 
	C53.278961,543.908630 53.278961,518.523743 53.278961,492.931244 
	C62.122448,492.931244 70.599121,492.931244 79.006432,493.874939 
	C79.006432,502.135010 79.006432,510.395081 79.006432,519.025085 
	C87.496216,519.025085 95.559967,519.025085 104.165237,519.025085 
	C104.165237,527.575623 104.165237,535.764160 104.165237,543.924316 
	C121.835701,543.924316 138.952194,543.924316 156.005951,544.869690 
	C156.005951,553.128174 156.005951,561.386658 156.005951,569.924316 
	C181.977692,569.924316 207.523178,569.924316 233.005951,570.869690 
M749.005493,725.871704 
	C749.005493,734.128357 749.005493,742.385010 749.005493,750.631470 
	C757.606445,750.631470 765.777100,750.631470 773.656799,750.631470 
	C773.656799,741.873047 773.656799,733.483765 773.656799,725.068420 
	C765.183228,725.068420 757.051636,725.068420 748.993225,724.125061 
	C748.993225,715.855774 748.993225,707.586487 748.993225,699.218750 
	C731.472290,699.218750 714.415405,699.218750 696.969055,699.218750 
	C696.969055,707.831238 696.969055,716.236938 696.969055,725.020142 
	C688.184265,725.020142 679.778503,725.020142 670.994934,725.020142 
	C670.994934,733.804565 670.994934,742.210266 670.994934,750.994751 
	C662.544189,750.994751 654.471130,750.994751 646.364624,750.994751 
	C646.364624,759.574097 646.364624,767.757935 646.364624,775.662964 
	C672.113281,775.662964 697.497803,775.662964 723.256714,775.662964 
	C723.256714,758.601135 723.256714,741.873474 723.256714,724.926636 
	C732.111023,724.926636 740.586548,724.926636 749.005493,725.871704 
M594.167480,147.499924 
	C594.167480,167.935425 594.167480,188.370911 594.167480,208.937683 
	C654.393799,208.937683 714.094849,208.937683 773.811401,208.937683 
	C773.811401,149.007645 773.811401,89.329453 773.811401,29.713631 
	C713.785828,29.713631 654.093628,29.713631 594.167480,29.713631 
	C594.167480,68.902382 594.167480,107.701141 594.167480,147.499924 
M27.665329,74.499832 
	C27.665329,119.269150 27.665329,164.038467 27.665329,208.795227 
	C87.857841,208.795227 147.549484,208.795227 206.988373,208.795227 
	C206.988373,148.824982 206.988373,89.246857 206.988373,29.689674 
	C147.080200,29.689674 87.530045,29.689674 27.665319,29.689674 
	C27.665319,44.534286 27.665319,59.017056 27.665329,74.499832 
M27.667353,652.499817 
	C27.667353,693.583618 27.667353,734.667480 27.667353,775.862000 
	C87.785088,775.862000 147.365265,775.862000 207.144409,775.862000 
	C207.144409,715.916382 207.144409,656.185303 207.144409,596.275269 
	C147.296402,596.275269 87.570732,596.275269 27.667341,596.275269 
	C27.667341,614.866272 27.667341,633.182983 27.667353,652.499817 
M604.518311,751.001038 
	C601.080872,751.001038 597.643372,751.001038 594.282593,751.001038 
	C594.282593,759.635742 594.282593,767.705750 594.282593,775.717041 
	C602.969971,775.717041 611.372986,775.717041 619.716431,775.717041 
	C619.716431,767.362305 619.716431,759.292297 619.716431,751.001038 
	C614.794739,751.001038 610.153625,751.001038 604.518311,751.001038 
M759.518921,337.998901 
	C764.281799,337.998901 769.044739,337.998901 773.704346,337.998901 
	C773.704346,329.338043 773.704346,321.267548 773.704346,313.296661 
	C765.336060,313.296661 757.265503,313.296661 749.297607,313.296661 
	C749.297607,321.665924 749.297607,329.736450 749.297607,337.998901 
	C752.570618,337.998901 755.550598,337.998901 759.518921,337.998901 
z"/>
<path fill="#000000" opacity="1.000000" stroke="none" 
	d="
M594.060730,699.087830 
	C576.933289,699.087830 559.805847,699.087830 542.293152,699.087830 
	C542.293152,690.500366 542.293152,682.098694 542.293152,673.312988 
	C533.858276,673.312988 525.789978,673.312988 517.160034,673.312988 
	C517.160034,664.761902 517.160034,656.567139 517.160034,648.193970 
	C508.202759,648.193970 499.808014,648.193970 491.026917,648.193970 
	C491.026917,656.436096 491.026917,664.504822 491.026917,672.948914 
	C482.251526,672.948914 473.849274,672.948914 464.993317,672.948914 
	C464.993317,681.592590 464.993317,689.858704 464.993591,698.562256 
	C464.993835,698.999634 465.062531,698.926453 465.062531,698.926453 
	C456.580200,698.926453 448.097870,698.926453 439.215118,698.926453 
	C439.215118,690.425659 439.215118,682.013123 439.215118,673.302368 
	C430.749725,673.302368 422.675934,673.302368 414.198364,673.302368 
	C414.198364,690.258728 414.198364,707.334045 414.198364,724.806519 
	C388.063293,724.806519 362.323029,724.806519 336.183777,724.806519 
	C336.183777,733.603027 336.183777,742.014832 336.183777,750.710144 
	C327.717743,750.710144 319.644806,750.710144 311.167847,750.710144 
	C311.167847,742.376892 311.167847,733.964294 311.167847,725.157410 
	C302.370514,725.157410 293.958008,725.157410 285.151367,725.157410 
	C285.151367,716.359436 285.151367,707.947327 285.151367,699.270447 
	C276.350189,699.270447 267.943909,699.270447 259.267090,699.270447 
	C259.267090,716.325378 259.267090,733.397339 259.267090,750.871643 
	C267.661743,750.871643 276.071869,750.871643 284.737823,750.871643 
	C284.737823,759.339844 284.737823,767.412048 284.737823,775.742798 
	C267.648376,775.742798 250.576996,775.742798 233.252747,775.742798 
	C233.252747,733.305542 233.252747,690.901733 233.252747,648.096497 
	C241.696762,648.096497 250.108948,648.096497 259.006409,648.096497 
	C259.006409,639.427307 259.006409,631.151062 259.004395,622.437378 
	C259.002350,621.999939 258.930054,622.069946 259.402130,622.037476 
	C268.125031,622.004944 276.375824,622.004944 285.158386,622.004944 
	C285.158386,630.909302 285.158386,639.419678 285.158386,647.924194 
	C294.154266,647.924194 302.611633,647.924194 311.036957,648.396851 
	C311.004883,656.899536 311.004883,664.929626 311.004883,672.930847 
	C319.846436,672.930847 327.961151,672.930847 336.040588,673.402710 
	C336.005341,682.135437 336.005341,690.396240 336.005341,698.645569 
	C353.603516,698.645569 370.761902,698.645569 387.926666,698.645569 
	C387.926666,681.506531 387.926666,664.721924 388.399109,647.966431 
	C414.117554,647.995544 439.363495,647.995544 464.632721,647.995544 
	C464.632721,639.080322 464.632721,630.565979 464.632721,622.327881 
	C438.887512,622.327881 413.510071,622.327881 388.068542,622.327881 
	C388.068542,631.130066 388.068542,639.604797 387.596863,648.042542 
	C378.727112,648.028992 370.329041,648.052368 361.963043,647.603149 
	C361.995117,638.767273 361.995117,630.404053 361.995117,622.069153 
	C352.820221,622.069153 344.372192,622.069153 335.959412,621.597290 
	C335.994659,612.874512 335.994659,604.623657 335.994659,595.839294 
	C327.422180,595.839294 319.243225,595.839294 310.930878,595.839294 
	C310.930878,586.841003 310.930878,578.382629 311.402710,569.959473 
	C328.482544,569.994629 345.090515,569.994629 362.094452,569.994629 
	C362.094452,578.890747 362.094452,587.302124 362.094452,595.748535 
	C370.902496,595.748535 379.307770,595.748535 388.109467,595.748535 
	C388.109467,578.426453 388.109467,561.351257 388.109467,544.258179 
	C405.248962,544.258179 421.987091,544.258179 438.737976,544.258179 
	C438.737976,552.924255 438.737976,561.330017 438.737976,570.131226 
	C430.405273,570.131226 422.327637,570.131226 414.269836,570.131226 
	C414.269836,578.940125 414.269836,587.346130 414.269836,596.145752 
	C439.943848,596.145752 465.350494,596.145752 491.152435,596.145752 
	C491.152435,604.950745 491.152435,613.362854 491.152435,621.719604 
	C499.962189,621.719604 508.368256,621.719604 517.167969,621.719604 
	C517.167969,613.033264 517.167969,604.620850 517.167969,595.824280 
	C525.641235,595.824280 533.720581,595.824280 541.708496,595.824280 
	C541.708496,578.350220 541.708496,561.278259 541.708496,544.295410 
	C533.340515,544.295410 525.267395,544.295410 516.802063,544.295410 
	C516.802063,552.997620 516.802063,561.409607 516.802063,569.697388 
	C499.327698,569.697388 482.255554,569.697388 465.306519,569.697388 
	C465.306519,560.984619 465.306519,552.577820 465.306519,543.779846 
	C474.020477,543.779846 482.433319,543.779846 490.924164,543.779846 
	C490.924164,535.230164 490.924164,527.080566 491.396790,518.963013 
	C534.535034,518.995117 577.200684,518.995117 620.069946,518.995117 
	C620.069946,509.872803 620.069946,501.401428 620.034973,492.966217 
	C620.000000,493.002380 619.931152,493.075806 619.931152,493.075806 
	C628.329163,493.052643 636.727173,493.029510 645.562622,493.004364 
	C646.000061,493.002350 645.930054,492.930054 645.962524,493.402130 
	C645.995056,502.234772 645.995056,510.595337 645.995056,519.069946 
	C654.842651,519.069946 662.956299,519.069946 671.034973,519.034973 
	C671.000000,519.000000 670.930054,518.930054 670.962524,519.402161 
	C670.995056,527.799866 670.995056,535.725464 670.995056,544.069946 
	C697.313293,544.069946 723.191589,544.069946 749.033813,544.035034 
	C748.997620,544.000061 748.924316,543.931274 748.924316,543.931274 
	C748.924316,561.146790 748.924316,578.362244 748.924316,596.004639 
	C740.386169,596.004639 732.136780,596.004639 723.441711,595.569092 
	C722.996033,586.868530 722.996033,578.603394 722.996033,570.367920 
	C705.385376,570.367920 688.220520,570.367920 671.353394,570.367920 
	C671.353394,579.135254 671.353394,587.532898 671.353394,595.939270 
	C688.833740,595.939270 705.960754,595.939270 723.087830,595.939270 
	C723.087830,604.415833 723.087830,612.892456 723.087830,621.753174 
	C739.881775,621.753174 756.612793,621.753174 773.670410,621.753174 
	C773.670410,638.859558 773.670410,655.588501 773.670410,672.658813 
	C748.501282,672.658813 723.111755,672.658813 697.160522,672.658813 
	C697.160522,656.088501 697.160522,639.235291 697.160522,622.195007 
	C688.199768,622.195007 679.800110,622.195007 671.015991,622.195007 
	C671.015991,639.116028 671.015991,655.847107 671.015991,672.965820 
	C662.569214,672.965820 654.495728,672.965820 646.048340,672.965820 
	C646.048340,690.417114 646.048340,707.480591 646.048340,724.769470 
	C628.605164,724.769470 611.544922,724.769470 593.995361,724.769470 
	C593.995361,716.426758 593.995361,708.157043 594.430908,699.441711 
	C603.125244,698.996033 611.384033,698.996033 619.632080,698.996033 
	C619.632080,690.061279 619.632080,681.555908 619.632080,673.343994 
	C610.871338,673.343994 602.480164,673.343994 594.060730,673.343994 
	C594.060730,682.154480 594.060730,690.621155 594.060730,699.087830 
M646.000000,621.500000 
	C646.000000,604.405029 646.000000,587.310059 646.000000,570.286011 
	C619.690918,570.286011 593.954895,570.286011 568.286011,570.286011 
	C568.286011,596.309021 568.286011,622.045044 568.286011,647.713989 
	C594.309021,647.713989 620.045044,647.713989 646.000000,647.713989 
	C646.000000,639.119934 646.000000,630.809937 646.000000,621.500000 
z"/>
<path fill="#000000" opacity="1.000000" stroke="none" 
	d="
M490.931244,184.075790 
	C499.414307,184.075790 507.897369,184.075790 516.781128,184.075790 
	C516.781128,192.570099 516.781128,200.983139 516.781128,209.695923 
	C525.246704,209.695923 533.320740,209.695923 541.799194,209.695923 
	C541.799194,201.415695 541.799194,193.002609 541.799194,184.298309 
	C550.598328,184.298309 559.004944,184.298309 567.815918,184.298309 
	C567.815918,200.943909 567.815918,217.686371 567.815918,234.826630 
	C576.613098,234.826630 585.025635,234.826630 593.833130,234.826630 
	C593.833130,243.624084 593.833130,252.036926 593.833130,260.721985 
	C602.634277,260.721985 611.040771,260.721985 619.851196,260.721985 
	C619.851196,252.361099 619.851196,243.948792 619.851196,235.272293 
	C628.652466,235.272293 637.058472,235.272293 645.868042,235.272293 
	C645.868042,243.662354 645.868042,252.072601 645.868042,260.739380 
	C654.337585,260.739380 662.409668,260.739380 670.886108,260.739380 
	C670.886108,252.323303 670.886108,243.912399 670.886108,235.254852 
	C679.688721,235.254852 688.094116,235.254852 696.902771,235.254852 
	C696.902771,252.365601 696.902771,269.441315 696.902771,287.006683 
	C705.572205,287.006683 713.848511,287.006683 722.562256,287.006409 
	C722.999634,287.006165 722.926453,286.937469 722.926453,286.937469 
	C722.926453,295.420074 722.926453,303.902679 722.926453,312.785828 
	C714.424805,312.785828 706.012024,312.785828 697.203125,312.785828 
	C697.203125,321.249176 697.203125,329.328156 697.203125,337.803589 
	C688.405945,337.803589 679.993713,337.803589 671.292847,337.803589 
	C671.292847,346.603455 671.292847,355.010437 671.292847,363.821930 
	C679.608459,363.821930 688.020752,363.821930 696.828613,363.821930 
	C696.828613,372.619415 696.828613,381.032135 696.828613,389.719727 
	C705.629395,389.719727 714.036011,389.719727 722.847046,389.719727 
	C722.847046,381.365723 722.847046,372.953125 722.847046,364.274353 
	C731.648132,364.274353 740.054016,364.274353 748.864136,364.274353 
	C748.864136,372.658203 748.864136,381.068604 748.864136,389.875214 
	C757.331299,389.875214 765.408875,389.875214 773.739746,389.875214 
	C773.739746,407.012634 773.739746,423.751160 773.739746,440.744934 
	C756.976807,440.744934 740.238403,440.744934 723.097412,440.744934 
	C723.097412,432.637543 723.097412,424.558502 723.097412,415.993591 
	C705.758789,415.993591 688.816833,415.993591 671.437378,415.995605 
	C670.999939,415.997650 671.069946,416.069946 671.037476,415.597839 
	C671.004944,406.853027 671.004944,398.580353 671.004944,389.927155 
	C653.793335,389.927155 637.058899,389.927155 619.942505,389.927155 
	C619.942505,372.475311 619.942505,355.407898 619.942505,337.970032 
	C585.498596,337.970032 551.441101,337.970032 517.366577,337.970032 
	C517.366577,312.080322 517.366577,286.569244 517.366577,260.665741 
	C525.807434,260.665741 533.883301,260.665741 541.636597,260.665741 
	C541.636597,251.861572 541.636597,243.455048 541.636597,235.355865 
	C524.539124,235.355865 507.805878,235.355865 490.686615,235.355865 
	C490.686615,244.118408 490.686615,252.525574 490.686615,261.310120 
	C481.884827,261.310120 473.478149,261.310120 465.351044,261.310120 
	C465.351044,270.113312 465.351044,278.519226 465.351044,287.303711 
	C474.108429,287.303711 482.517334,287.303711 490.652161,287.303711 
	C490.652161,296.106873 490.652161,304.512512 490.652161,313.266754 
	C438.922943,313.266754 387.541046,313.266754 336.075867,313.266754 
	C336.075867,321.776855 336.075867,329.922943 335.603210,338.036957 
	C327.061768,338.026276 318.992981,338.047668 310.959412,337.597229 
	C310.994659,329.193634 310.994659,321.261841 310.994659,312.954742 
	C302.153778,312.954742 293.752960,312.954742 285.200745,312.954742 
	C285.200745,304.177795 285.200745,295.784607 285.200745,286.849915 
	C302.233185,286.849915 319.073212,286.849915 335.924133,286.849915 
	C335.924133,269.182251 335.924133,252.056641 336.396790,234.963058 
	C345.231903,234.995102 353.594421,234.995102 361.930969,234.995102 
	C361.930969,226.154984 361.930969,218.039551 362.402802,209.959396 
	C371.275024,209.973419 379.675446,209.952194 388.040588,210.402786 
	C388.005341,218.802917 388.005341,226.731247 388.005341,234.667480 
	C413.922333,234.667480 439.398315,234.667480 464.924133,234.667480 
	C464.924133,226.200470 464.924133,218.065735 465.396790,209.963058 
	C474.231934,209.995102 482.594482,209.995102 491.069946,209.995102 
	C491.069946,200.823669 491.069946,192.376862 491.035004,183.966217 
	C491.000061,184.002396 490.931244,184.075790 490.931244,184.075790 
M593.500000,313.000000 
	C602.263733,313.000000 611.027527,313.000000 619.711060,313.000000 
	C619.711060,304.018433 619.711060,295.613342 619.711060,287.286621 
	C593.686646,287.286621 567.952087,287.286621 542.288818,287.286621 
	C542.288818,295.981445 542.288818,304.386536 542.288818,313.000000 
	C559.217896,313.000000 575.858948,313.000000 593.500000,313.000000 
M382.400391,287.000000 
	C384.174225,287.000000 385.948059,287.000000 387.744751,287.000000 
	C387.744751,278.087036 387.744751,269.682800 387.744751,261.257294 
	C379.082977,261.257294 370.678619,261.257294 362.259338,261.257294 
	C362.259338,269.921173 362.259338,278.325653 362.259338,287.000000 
	C368.817810,287.000000 375.120728,287.000000 382.400391,287.000000 
M671.000000,299.502197 
	C671.000000,295.400818 671.000000,291.299438 671.000000,287.286682 
	C662.353760,287.286682 654.282959,287.286682 646.287048,287.286682 
	C646.287048,295.980255 646.287048,304.384125 646.287048,312.712463 
	C654.647949,312.712463 662.718811,312.712463 671.000000,312.712463 
	C671.000000,308.450134 671.000000,304.473541 671.000000,299.502197 
z"/>
<path fill="#000000" opacity="1.000000" stroke="none" 
	d="
M670.965576,415.960938 
	C670.931152,424.060272 670.931152,432.196289 670.931152,440.864990 
	C654.052429,440.864990 637.218811,440.864990 619.994019,440.864990 
	C619.994019,458.306885 619.994019,475.218658 619.962585,492.603119 
	C619.931152,493.075806 620.000000,493.002380 619.562866,492.998718 
	C610.859070,492.995056 602.592468,492.995056 593.962830,492.995056 
	C593.962830,475.489838 593.962830,458.434723 593.962830,441.324829 
	C559.441284,441.324829 525.291687,441.324829 491.075867,441.324829 
	C491.075867,450.122528 491.075867,458.595795 490.603210,467.036957 
	C481.864807,467.004883 473.598999,467.004883 464.972748,467.004883 
	C464.972748,449.832306 464.972748,433.112488 464.972748,416.328247 
	C439.113861,416.328247 413.624359,416.328247 388.069061,416.328247 
	C388.069061,424.796051 388.069061,432.935944 387.597229,441.040588 
	C344.461823,441.005341 301.798248,441.005341 258.924133,441.005341 
	C258.924133,432.207092 258.924133,424.069031 259.396790,415.963043 
	C276.895844,415.995117 293.922241,415.995117 310.930939,415.995117 
	C310.930939,398.153564 310.930939,381.038879 311.402771,363.959412 
	C319.939423,363.971161 328.004211,363.947632 336.036957,364.396790 
	C336.004883,373.127930 336.004883,381.386444 336.004883,389.660034 
	C353.585663,389.660034 370.738159,389.660034 387.930939,389.660034 
	C387.930939,380.854858 387.930939,372.389526 388.402771,363.959412 
	C397.272583,364.022980 405.670563,364.051300 414.034210,364.042969 
	C413.999878,364.006317 413.926666,363.937500 413.960754,364.408997 
	C413.994843,373.145569 413.994843,381.410614 413.994843,389.638062 
	C439.953217,389.638062 465.443665,389.638062 491.315063,389.638062 
	C491.315063,380.876495 491.315063,372.475891 491.315063,364.337769 
	C500.100189,364.337769 508.498535,364.337769 517.266724,364.337769 
	C517.266724,373.073853 517.266724,381.475128 517.266724,390.079712 
	C525.789978,390.079712 533.929260,390.079712 542.034302,390.043030 
	C541.999939,390.006348 541.926758,389.937531 541.960815,390.409058 
	C541.994812,399.144043 541.994812,407.407562 541.994812,416.069946 
	C585.327087,416.069946 628.198486,416.069946 671.069946,416.069946 
	C671.069946,416.069946 670.999939,415.997650 670.965576,415.960938 
z"/>
<path fill="#020202" opacity="1.000000" stroke="none" 
	d="
M594.167480,146.999908 
	C594.167480,107.701141 594.167480,68.902382 594.167480,29.713631 
	C654.093628,29.713631 713.785828,29.713631 773.811401,29.713631 
	C773.811401,89.329453 773.811401,149.007645 773.811401,208.937683 
	C714.094849,208.937683 654.393799,208.937683 594.167480,208.937683 
	C594.167480,188.370911 594.167480,167.935425 594.167480,146.999908 
M747.119507,183.822372 
	C747.722961,182.204117 748.849365,180.587143 748.853271,178.967407 
	C748.950989,138.988571 748.932312,99.009453 748.918579,59.030384 
	C748.918152,57.760296 748.752319,56.490269 748.669067,55.299049 
	C705.622559,55.299049 662.907166,55.299049 620.386353,55.299049 
	C620.386353,98.297981 620.386353,140.995682 620.386353,183.833221 
	C662.575256,183.833221 704.376831,183.833221 747.119507,183.822372 
z"/>
<path fill="#010101" opacity="1.000000" stroke="none" 
	d="
M27.665325,73.999832 
	C27.665319,59.017056 27.665319,44.534286 27.665319,29.689674 
	C87.530045,29.689674 147.080200,29.689674 206.988373,29.689674 
	C206.988373,89.246857 206.988373,148.824982 206.988373,208.795227 
	C147.549484,208.795227 87.857841,208.795227 27.665329,208.795227 
	C27.665329,164.038467 27.665329,119.269150 27.665325,73.999832 
M182.002808,143.500000 
	C182.002808,114.070908 182.002808,84.641823 182.002808,55.394436 
	C138.712875,55.394436 95.999893,55.394436 53.485878,55.394436 
	C53.485878,98.378601 53.485878,140.964996 53.485878,183.604370 
	C96.400452,183.604370 138.992447,183.604370 182.002808,183.604370 
	C182.002808,170.417953 182.002808,157.458984 182.002808,143.500000 
z"/>
<path fill="#010101" opacity="1.000000" stroke="none" 
	d="
M27.667347,651.999756 
	C27.667341,633.182983 27.667341,614.866272 27.667341,596.275269 
	C87.570732,596.275269 147.296402,596.275269 207.144409,596.275269 
	C207.144409,656.185303 207.144409,715.916382 207.144409,775.862000 
	C147.365265,775.862000 87.785088,775.862000 27.667353,775.862000 
	C27.667353,734.667480 27.667353,693.583618 27.667347,651.999756 
M66.513916,750.707275 
	C104.944183,750.707275 143.374451,750.707275 181.801361,750.707275 
	C181.801361,707.451477 181.801361,664.838989 181.801361,622.155396 
	C138.893036,622.155396 96.189613,622.155396 53.408779,622.155396 
	C53.408779,665.064453 53.408779,707.642944 53.408779,750.707275 
	C57.601292,750.707275 61.560940,750.707275 66.513916,750.707275 
z"/>
<path fill="#000000" opacity="1.000000" stroke="none" 
	d="
M130.075790,338.068756 
	C130.075790,329.924896 130.075790,321.781036 130.075790,313.246887 
	C121.459518,313.246887 113.053436,313.246887 104.259888,313.246887 
	C104.259888,304.468506 104.259888,296.062408 104.259888,287.278290 
	C87.149200,287.278290 70.420082,287.278290 53.301014,287.278290 
	C53.301014,278.510071 53.301014,270.104889 53.301014,261.309692 
	C44.522717,261.309692 36.118134,261.309692 27.357647,261.309692 
	C27.357647,252.532303 27.357647,244.128799 27.357647,235.362289 
	C69.893318,235.362289 112.716331,235.362289 155.931808,235.362289 
	C155.931808,243.728958 155.931808,252.135010 155.931808,261.006409 
	C164.584885,261.006409 172.854980,261.006409 181.562531,261.004395 
	C181.999985,261.002380 181.930054,260.930054 181.962555,261.402130 
	C182.022018,270.272461 182.048965,278.670715 181.603271,287.036926 
	C172.877670,287.004883 164.624710,287.004883 156.069046,287.004883 
	C156.069046,304.300293 156.069046,321.188080 155.597229,338.040588 
	C146.726944,337.980225 138.328506,337.955139 129.966217,337.964996 
	C130.002396,337.999939 130.075790,338.068756 130.075790,338.068756 
z"/>
<path fill="#000000" opacity="1.000000" stroke="none" 
	d="
M156.068680,543.924316 
	C138.952194,543.924316 121.835701,543.924316 104.165237,543.924316 
	C104.165237,535.764160 104.165237,527.575623 104.165237,519.025085 
	C95.559967,519.025085 87.496216,519.025085 79.006432,519.025085 
	C79.006432,510.395081 79.006432,502.135010 79.004417,493.437500 
	C79.002403,493.000061 78.930061,493.069946 79.402176,493.037445 
	C96.465744,493.004944 113.057190,493.004944 130.033234,493.004944 
	C130.033234,484.167938 130.033234,475.763580 130.033234,466.983765 
	C138.814545,466.983765 147.218918,466.983765 155.999237,466.983765 
	C155.999237,458.203033 155.999237,449.799255 155.999237,441.335938 
	C181.886185,441.335938 207.383453,441.335938 233.075912,441.335938 
	C233.075912,458.804047 233.075912,475.936523 232.603271,493.036926 
	C224.066193,493.027740 216.001740,493.050598 207.966400,492.601013 
	C207.995499,483.871002 207.995499,475.613403 207.995499,467.367249 
	C199.060455,467.367249 190.555603,467.367249 182.342346,467.367249 
	C182.342346,476.126587 182.342346,484.517090 182.342346,492.931610 
	C191.149506,492.931610 199.614487,492.931610 208.042542,493.403290 
	C208.005615,502.132080 208.005615,510.389191 208.005615,519.157471 
	C190.417801,519.157471 173.260818,519.157471 155.930054,519.157471 
	C155.930054,527.806946 155.930054,535.938416 155.964981,544.033813 
	C155.999908,543.997681 156.068680,543.924316 156.068680,543.924316 
z"/>
<path fill="#000000" opacity="1.000000" stroke="none" 
	d="
M491.276642,158.250671 
	C491.276642,140.991409 491.276642,123.732162 491.276642,105.995308 
	C499.580505,105.995308 507.846802,105.995308 516.558533,106.430649 
	C517.003967,115.124466 517.003967,123.382927 517.003967,131.632324 
	C525.604736,131.632324 533.777222,131.632324 541.656738,131.632324 
	C541.656738,122.872307 541.656738,114.481560 541.656738,106.060280 
	C533.180054,106.060280 525.046448,106.060280 516.912781,106.060280 
	C516.912781,97.937683 516.912781,89.815086 516.912781,81.154678 
	C525.252197,81.154678 533.430176,81.154678 542.006714,81.154678 
	C542.006714,72.373795 542.006714,64.124420 542.006592,55.437641 
	C542.006470,55.000229 541.937744,55.073414 541.937744,55.073414 
	C550.420105,55.073414 558.902527,55.073414 567.691650,55.073414 
	C567.691650,89.249115 567.691650,123.320572 567.691650,158.007126 
	C542.557617,158.007126 517.299133,158.007126 491.617493,158.092529 
	C491.194336,158.177948 491.276642,158.250671 491.276642,158.250671 
z"/>
<path fill="#000000" opacity="1.000000" stroke="none" 
	d="
M259.068756,209.924210 
	C250.594696,209.924210 242.120636,209.924210 233.324020,209.924210 
	C233.324020,192.802567 233.324020,175.747299 233.324020,158.303070 
	C241.490265,158.303070 249.891815,158.303070 258.647156,158.303070 
	C258.647156,149.531036 258.647156,141.129623 258.647156,132.162003 
	C250.435089,132.162003 241.906296,132.162003 233.197327,132.162003 
	C233.197327,123.201866 233.197327,114.805992 233.197327,106.006432 
	C258.964203,106.006432 284.544617,106.006432 310.562500,106.004417 
	C310.999939,106.002403 310.930054,105.930061 310.962555,106.402176 
	C310.995056,115.131683 310.995056,123.389091 310.995056,132.011383 
	C302.184845,132.011383 293.791687,132.011383 285.075867,132.011383 
	C285.075867,149.610352 285.075867,166.839676 284.603210,184.036942 
	C275.768066,184.004898 267.405518,184.004898 258.930054,184.004898 
	C258.930054,193.176331 258.930054,201.623138 258.964996,210.033783 
	C258.999939,209.997604 259.068756,209.924210 259.068756,209.924210 
z"/>
<path fill="#000000" opacity="1.000000" stroke="none" 
	d="
M646.034424,493.039062 
	C646.068848,484.600586 646.068848,476.125427 646.068848,467.325867 
	C662.861206,467.325867 679.584167,467.325867 696.696533,467.325867 
	C696.696533,475.489716 696.696533,483.891571 696.696533,492.647217 
	C705.469299,492.647217 713.871094,492.647217 722.839478,492.647217 
	C722.839478,484.434204 722.839478,475.904327 722.839478,467.196350 
	C740.125061,467.196350 756.846008,467.196350 773.783081,467.196350 
	C773.783081,475.757935 773.783081,484.154236 773.783081,492.940491 
	C765.593506,492.940491 757.523438,492.940491 748.993591,492.940491 
	C748.993591,501.589111 748.993591,509.857086 748.995605,518.562500 
	C748.997620,518.999939 749.069946,518.930054 748.597900,518.962524 
	C722.393860,518.973389 696.661987,518.951721 670.930054,518.930054 
	C670.930054,518.930054 671.000000,519.000000 671.002502,518.562866 
	C671.005005,509.765198 671.005005,501.404633 671.005005,492.930054 
	C662.157349,492.930054 654.043701,492.930054 645.930054,492.930054 
	C645.930054,492.930054 646.000061,493.002350 646.034424,493.039062 
z"/>
<path fill="#000000" opacity="1.000000" stroke="none" 
	d="
M413.926910,80.937843 
	C413.926910,89.072014 413.926910,97.206184 413.926910,105.869812 
	C430.949005,105.869812 447.780762,105.869812 464.993591,105.869812 
	C464.993591,123.306679 464.993591,140.215881 464.995605,157.562531 
	C464.997620,157.999985 465.069946,157.930054 464.597839,157.962555 
	C455.860687,157.995056 447.595581,157.995056 438.953949,157.995056 
	C438.953949,149.153244 438.953949,140.751862 438.953949,131.854507 
	C404.426544,131.854507 370.279602,131.854507 336.069946,131.854507 
	C336.069946,122.873970 336.069946,114.402016 336.034973,105.965027 
	C336.000000,106.000000 335.930054,106.069939 336.402161,106.037445 
	C353.885376,106.004951 370.896484,106.004951 388.069946,106.004951 
	C388.069946,97.182442 388.069946,89.056252 388.034973,80.966217 
	C388.000031,81.002373 387.931244,81.075783 387.931244,81.075783 
	C396.329224,81.052765 404.727203,81.029747 413.562622,81.006638 
	C414.000061,81.006538 413.926910,80.937843 413.926910,80.937843 
z"/>
<path fill="#000000" opacity="1.000000" stroke="none" 
	d="
M259.073090,55.062176 
	C259.073090,46.590286 259.073090,38.118401 259.073090,29.323997 
	C276.194214,29.323997 293.246368,29.323997 310.684998,29.323997 
	C310.684998,37.477573 310.684998,45.878922 310.684998,54.809105 
	C336.556427,54.809105 362.052185,54.809105 387.994049,54.809105 
	C387.994049,63.598007 387.994049,71.864220 387.962646,80.603104 
	C387.931244,81.075783 388.000031,81.002373 387.562866,80.998711 
	C370.114563,80.995049 353.103485,80.995049 335.930054,80.995049 
	C335.930054,89.817657 335.930054,97.943802 335.930054,106.069939 
	C335.930054,106.069939 336.000000,106.000000 335.562866,105.997528 
	C327.060486,105.973389 318.995270,105.951721 310.930054,105.930061 
	C310.930054,105.930061 310.999939,106.002403 311.034332,106.039108 
	C311.068726,97.944077 311.068726,89.812332 311.068726,81.309082 
	C302.516113,81.309082 294.124390,81.309082 285.185913,81.309082 
	C285.185913,72.448975 285.185913,63.931835 285.185913,54.993279 
	C276.388458,54.993279 268.131622,54.993279 259.437378,54.993378 
	C258.999939,54.993473 259.073090,55.062176 259.073090,55.062176 
z"/>
<path fill="#000000" opacity="1.000000" stroke="none" 
	d="
M749.062073,724.926636 
	C740.586548,724.926636 732.111023,724.926636 723.256714,724.926636 
	C723.256714,741.873474 723.256714,758.601135 723.256714,775.662964 
	C697.497803,775.662964 672.113281,775.662964 646.364624,775.662964 
	C646.364624,767.757935 646.364624,759.574097 646.364624,750.994751 
	C654.471130,750.994751 662.544189,750.994751 670.994934,750.994751 
	C670.994934,742.210266 670.994934,733.804565 670.994934,725.020142 
	C679.778503,725.020142 688.184265,725.020142 696.969055,725.020142 
	C696.969055,716.236938 696.969055,707.831238 696.969055,699.218750 
	C714.415405,699.218750 731.472290,699.218750 748.993225,699.218750 
	C748.993225,707.586487 748.993225,715.855774 748.993286,724.562439 
	C748.993347,724.999817 749.062073,724.926636 749.062073,724.926636 
z"/>
<path fill="#000000" opacity="1.000000" stroke="none" 
	d="
M79.039101,492.965637 
	C70.599121,492.931244 62.122448,492.931244 53.278961,492.931244 
	C53.278961,518.523743 53.278961,543.908630 53.278961,569.645813 
	C44.526085,569.645813 36.123684,569.645813 27.360260,569.645813 
	C27.360260,535.766663 27.360260,501.607147 27.360260,467.006409 
	C44.272118,467.006409 61.198612,467.006409 78.562561,467.004395 
	C79.000008,467.002350 78.930061,466.930054 78.962555,467.402161 
	C78.973389,476.272858 78.951721,484.671387 78.930061,493.069946 
	C78.930061,493.069946 79.002403,493.000061 79.039101,492.965637 
z"/>
<path fill="#000000" opacity="1.000000" stroke="none" 
	d="
M464.957153,699.033936 
	C473.396545,699.068237 481.872620,699.068237 490.737305,699.068237 
	C490.737305,707.529480 490.737305,715.933899 490.737305,724.699219 
	C516.502808,724.699219 541.885498,724.699219 567.633301,724.699219 
	C567.633301,733.570190 567.633301,742.086182 567.633301,750.993286 
	C533.691040,750.993286 499.783203,750.993286 465.437958,750.993652 
	C465.000549,750.994019 465.073730,751.062683 465.073730,751.062683 
	C465.050995,733.998962 465.028259,716.935181 465.034027,699.398926 
	C465.062531,698.926453 464.993835,698.999634 464.957153,699.033936 
z"/>
<path fill="#000000" opacity="1.000000" stroke="none" 
	d="
M182.034378,261.039062 
	C182.068771,252.607025 182.068771,244.138260 182.068771,235.159821 
	C207.599396,235.159821 233.081131,235.159821 259.005951,235.159821 
	C259.005951,226.728485 259.005951,218.799026 259.037354,210.396881 
	C259.068756,209.924210 258.999939,209.997604 259.437134,210.001282 
	C268.274811,209.980286 276.675323,209.955612 285.040588,210.402771 
	C285.005341,227.458496 285.005341,244.042389 285.005341,260.930054 
	C250.366486,260.930054 216.148270,260.930054 181.930054,260.930054 
	C181.930054,260.930054 181.999985,261.002380 182.034378,261.039062 
z"/>
<path fill="#000000" opacity="1.000000" stroke="none" 
	d="
M53.068741,415.924164 
	C44.598751,415.924164 36.128765,415.924164 27.330086,415.924164 
	C27.330086,398.823273 27.330086,381.775818 27.330086,364.006409 
	C52.415977,364.006409 77.770538,364.006409 103.562561,364.004395 
	C104.000008,364.002350 103.930061,363.930054 103.962555,364.402161 
	C103.995049,373.131500 103.995049,381.388763 103.995049,390.158386 
	C86.750671,390.158386 69.925987,390.158386 52.930061,390.158386 
	C52.930061,399.141846 52.930061,407.605896 52.965000,416.033752 
	C52.999939,415.997589 53.068741,415.924164 53.068741,415.924164 
z"/>
<path fill="#000000" opacity="1.000000" stroke="none" 
	d="
M414.034332,81.043198 
	C414.068604,63.946140 414.068604,46.812416 414.068604,29.339968 
	C422.169281,29.339968 430.237152,29.339968 438.695923,29.339968 
	C438.695923,37.487045 438.695923,45.891174 438.695923,54.845169 
	C456.249573,54.845169 473.429749,54.845169 490.800171,54.845169 
	C490.800171,63.793495 490.800171,72.189896 490.800171,80.994461 
	C465.370453,80.994461 440.121094,80.994461 414.399353,80.966156 
	C413.926910,80.937843 414.000061,81.006538 414.034332,81.043198 
z"/>
<path fill="#000000" opacity="1.000000" stroke="none" 
	d="
M79.034409,467.039062 
	C79.068802,458.616913 79.068802,450.158051 79.068802,441.160095 
	C70.423912,441.160095 61.913029,441.160095 53.005955,441.160095 
	C53.005955,432.708344 53.005955,424.788940 53.037346,416.396851 
	C53.068741,415.924164 52.999939,415.997589 53.437119,416.001282 
	C79.231430,416.004944 104.588554,416.004944 129.645508,416.004944 
	C129.645508,424.802948 129.645508,432.868286 129.645508,441.298645 
	C120.892693,441.298645 112.494240,441.298645 103.728477,441.298645 
	C103.728477,450.079346 103.728477,458.479156 103.728477,466.930054 
	C95.207077,466.930054 87.068565,466.930054 78.930061,466.930054 
	C78.930061,466.930054 79.000008,467.002350 79.034409,467.039062 
z"/>
<path fill="#000000" opacity="1.000000" stroke="none" 
	d="
M233.068680,569.924316 
	C207.523178,569.924316 181.977692,569.924316 156.005951,569.924316 
	C156.005951,561.386658 156.005951,553.128174 156.037323,544.396973 
	C156.068680,543.924316 155.999908,543.997681 156.437103,544.001343 
	C182.272522,543.978027 207.670731,543.951111 233.036926,544.396790 
	C232.979950,553.269592 232.955002,561.669739 232.964981,570.033813 
	C232.999908,569.997681 233.068680,569.924316 233.068680,569.924316 
z"/>
<path fill="#000000" opacity="1.000000" stroke="none" 
	d="
M464.966248,750.957336 
	C464.931976,759.062012 464.931976,767.203369 464.931976,775.671631 
	C439.488617,775.671631 414.112305,775.671631 388.368317,775.671631 
	C388.368317,767.766541 388.368317,759.585632 388.368317,751.005554 
	C413.638763,751.005554 438.883728,751.005554 464.601196,751.034119 
	C465.073730,751.062683 465.000549,750.994019 464.966248,750.957336 
z"/>
<path fill="#000000" opacity="1.000000" stroke="none" 
	d="
M723.033936,287.042847 
	C723.068237,269.955078 723.068237,252.830627 723.068237,235.353683 
	C731.469055,235.353683 739.865845,235.353683 748.631653,235.353683 
	C748.631653,252.220367 748.631653,269.383636 748.631653,286.994446 
	C740.398865,286.994446 732.135132,286.994446 723.398926,286.965942 
	C722.926453,286.937469 722.999634,287.006165 723.033936,287.042847 
z"/>
<path fill="#000000" opacity="1.000000" stroke="none" 
	d="
M259.039062,621.965576 
	C250.615906,621.931152 242.156067,621.931152 233.005951,621.931152 
	C233.005951,604.896484 233.005951,587.883057 233.037323,570.396973 
	C233.068680,569.924316 232.999908,569.997681 233.437103,570.001343 
	C242.274796,569.980225 250.675323,569.955566 259.040588,570.402710 
	C258.980225,587.939697 258.955139,605.004822 258.930054,622.069946 
	C258.930054,622.069946 259.002350,621.999939 259.039062,621.965576 
z"/>
<path fill="#000000" opacity="1.000000" stroke="none" 
	d="
M464.960938,158.034363 
	C473.377563,158.052444 481.830872,158.036118 490.780426,158.135223 
	C491.276642,158.250671 491.194336,158.177948 491.159546,158.147171 
	C491.081177,166.454407 491.037598,174.792419 490.962646,183.603119 
	C490.931244,184.075790 491.000061,184.002396 490.562866,183.998718 
	C481.725189,184.019714 473.324677,184.044373 464.959412,183.597229 
	C465.019775,174.726944 465.044861,166.328506 465.069946,157.930054 
	C465.069946,157.930054 464.997620,157.999985 464.960938,158.034363 
z"/>
<path fill="#000000" opacity="1.000000" stroke="none" 
	d="
M104.034409,364.039062 
	C104.068802,355.628143 104.068802,347.180542 104.068802,338.005951 
	C112.404816,338.005951 120.767624,338.005951 129.603119,338.037354 
	C130.075790,338.068756 130.002396,337.999939 129.998718,338.437134 
	C129.995056,347.235809 129.995056,355.597321 129.995056,363.930054 
	C120.822418,363.930054 112.376236,363.930054 103.930061,363.930054 
	C103.930061,363.930054 104.000008,364.002350 104.034409,364.039062 
z"/>
<path fill="#000000" opacity="1.000000" stroke="none" 
	d="
M258.965668,54.956810 
	C258.931396,63.384636 258.931396,71.849121 258.931396,80.656166 
	C250.517273,80.656166 242.127426,80.656166 233.368561,80.656166 
	C233.368561,72.443932 233.368561,63.939831 233.368561,55.005539 
	C241.614197,55.005539 249.871216,55.005539 258.600647,55.033859 
	C259.073090,55.062176 258.999939,54.993473 258.965668,54.956810 
z"/>
<path fill="#000000" opacity="1.000000" stroke="none" 
	d="
M605.015381,751.001038 
	C610.153625,751.001038 614.794739,751.001038 619.716431,751.001038 
	C619.716431,759.292297 619.716431,767.362305 619.716431,775.717041 
	C611.372986,775.717041 602.969971,775.717041 594.282593,775.717041 
	C594.282593,767.705750 594.282593,759.635742 594.282593,751.001038 
	C597.643372,751.001038 601.080872,751.001038 605.015381,751.001038 
z"/>
<path fill="#000000" opacity="1.000000" stroke="none" 
	d="
M748.956665,725.034119 
	C757.051636,725.068420 765.183228,725.068420 773.656799,725.068420 
	C773.656799,733.483765 773.656799,741.873047 773.656799,750.631470 
	C765.777100,750.631470 757.606445,750.631470 749.005493,750.631470 
	C749.005493,742.385010 749.005493,734.128357 749.033813,725.399170 
	C749.062073,724.926636 748.993347,724.999817 748.956665,725.034119 
z"/>
<path fill="#000000" opacity="1.000000" stroke="none" 
	d="
M542.043091,54.965950 
	C533.948181,54.931675 525.816589,54.931675 517.343140,54.931675 
	C517.343140,46.516129 517.343140,38.126774 517.343140,29.368498 
	C525.222778,29.368498 533.394043,29.368498 541.994507,29.368498 
	C541.994507,37.615143 541.994507,45.871799 541.966125,54.600933 
	C541.937744,55.073414 542.006470,55.000229 542.043091,54.965950 
z"/>
<path fill="#000000" opacity="1.000000" stroke="none" 
	d="
M759.024719,337.998901 
	C755.550598,337.998901 752.570618,337.998901 749.297607,337.998901 
	C749.297607,329.736450 749.297607,321.665924 749.297607,313.296661 
	C757.265503,313.296661 765.336060,313.296661 773.704346,313.296661 
	C773.704346,321.267548 773.704346,329.338043 773.704346,337.998901 
	C769.044739,337.998901 764.281799,337.998901 759.024719,337.998901 
z"/>
<path fill="#000000" opacity="1.000000" stroke="none" 
	d="
M748.960938,519.034302 
	C757.049438,519.068726 765.174622,519.068726 773.649292,519.068726 
	C773.649292,527.251709 773.649292,535.416565 773.649292,543.994080 
	C765.706360,543.994080 757.788025,543.994080 749.396973,543.962646 
	C748.924316,543.931274 748.997620,544.000061 749.001221,543.562866 
	C749.026550,535.060486 749.048218,526.995300 749.069946,518.930054 
	C749.069946,518.930054 748.997620,518.999939 748.960938,519.034302 
z"/>
<path fill="#FFFFFF" opacity="1.000000" stroke="none" 
	d="
M490.924164,518.930969 
	C490.924164,527.080566 490.924164,535.230164 490.924164,543.779846 
	C482.433319,543.779846 474.020477,543.779846 465.306519,543.779846 
	C465.306519,552.577820 465.306519,560.984619 465.306519,569.697388 
	C482.255554,569.697388 499.327698,569.697388 516.802063,569.697388 
	C516.802063,561.409607 516.802063,552.997620 516.802063,544.295410 
	C525.267395,544.295410 533.340515,544.295410 541.708496,544.295410 
	C541.708496,561.278259 541.708496,578.350220 541.708496,595.824280 
	C533.720581,595.824280 525.641235,595.824280 517.167969,595.824280 
	C517.167969,604.620850 517.167969,613.033264 517.167969,621.719604 
	C508.368256,621.719604 499.962189,621.719604 491.152435,621.719604 
	C491.152435,613.362854 491.152435,604.950745 491.152435,596.145752 
	C465.350494,596.145752 439.943848,596.145752 414.269836,596.145752 
	C414.269836,587.346130 414.269836,578.940125 414.269836,570.131226 
	C422.327637,570.131226 430.405273,570.131226 438.737976,570.131226 
	C438.737976,561.330017 438.737976,552.924255 438.737976,544.258179 
	C421.987091,544.258179 405.248962,544.258179 388.109467,544.258179 
	C388.109467,561.351257 388.109467,578.426453 388.109467,595.748535 
	C379.307770,595.748535 370.902496,595.748535 362.094452,595.748535 
	C362.094452,587.302124 362.094452,578.890747 362.094452,569.994629 
	C345.090515,569.994629 328.482544,569.994629 311.437164,569.996216 
	C310.999786,569.997742 311.069946,570.069946 311.037445,569.597839 
	C311.004944,560.868652 311.004944,552.611633 311.004944,543.989014 
	C319.481018,543.989014 327.541595,543.989014 336.069946,543.989014 
	C336.069946,526.722900 336.069946,509.826477 336.034973,492.965027 
	C336.000000,493.000000 335.930054,493.069946 336.402130,493.037415 
	C345.272797,493.026581 353.671356,493.048279 362.034973,493.034973 
	C362.000000,493.000000 361.930054,492.930054 361.962555,493.402161 
	C361.995056,502.138519 361.995056,510.402771 361.995056,519.069946 
	C405.324615,519.069946 448.197266,519.069946 491.033783,519.034912 
	C490.997620,518.999939 490.924164,518.930969 490.924164,518.930969 
z"/>
<path fill="#FFFFFF" opacity="1.000000" stroke="none" 
	d="
M491.075867,467.069031 
	C491.075867,458.595795 491.075867,450.122528 491.075867,441.324829 
	C525.291687,441.324829 559.441284,441.324829 593.962830,441.324829 
	C593.962830,458.434723 593.962830,475.489838 593.962830,492.995056 
	C602.592468,492.995056 610.859070,492.995056 619.597839,492.962555 
	C620.069946,501.401428 620.069946,509.872803 620.069946,518.995117 
	C577.200684,518.995117 534.535034,518.995117 491.396790,518.963013 
	C490.924164,518.930969 490.997620,518.999939 491.001282,518.562866 
	C491.026581,509.727173 491.048248,501.328613 491.034973,492.965027 
	C491.000000,493.000000 490.930054,493.069946 491.402161,493.037415 
	C508.451874,493.004913 525.029480,493.004913 541.643799,493.004913 
	C541.643799,484.089142 541.643799,475.580841 541.643799,466.930054 
	C524.501831,466.930054 507.715942,466.930054 490.966248,466.965088 
	C491.002441,467.000092 491.075867,467.069031 491.075867,467.069031 
z"/>
<path fill="#FFFFFF" opacity="1.000000" stroke="none" 
	d="
M646.000000,622.000000 
	C646.000000,630.809937 646.000000,639.119934 646.000000,647.713989 
	C620.045044,647.713989 594.309021,647.713989 568.286011,647.713989 
	C568.286011,622.045044 568.286011,596.309021 568.286011,570.286011 
	C593.954895,570.286011 619.690918,570.286011 646.000000,570.286011 
	C646.000000,587.310059 646.000000,604.405029 646.000000,622.000000 
M612.440125,596.000000 
	C606.346252,596.000000 600.252319,596.000000 594.309448,596.000000 
	C594.309448,605.024536 594.309448,613.429810 594.309448,621.689209 
	C603.027405,621.689209 611.433167,621.689209 619.687439,621.689209 
	C619.687439,612.970032 619.687439,604.564514 619.687439,596.000000 
	C617.391846,596.000000 615.407776,596.000000 612.440125,596.000000 
z"/>
<path fill="#FFFFFF" opacity="1.000000" stroke="none" 
	d="
M259.402100,622.037476 
	C258.955139,605.004822 258.980225,587.939697 259.003845,570.437195 
	C259.002380,569.999817 258.930054,570.069946 259.402161,570.037476 
	C276.939484,570.026611 294.004700,570.048279 311.069946,570.069946 
	C311.069946,570.069946 310.999786,569.997742 310.965332,569.961060 
	C310.930878,578.382629 310.930878,586.841003 310.930878,595.839294 
	C319.243225,595.839294 327.422180,595.839294 335.994659,595.839294 
	C335.994659,604.623657 335.994659,612.874512 335.996155,621.562805 
	C335.997620,622.000183 336.069946,621.930054 335.597839,621.962524 
	C327.097137,621.995056 319.068542,621.995056 310.930054,621.995056 
	C310.930054,631.179443 310.930054,639.624695 310.965088,648.033813 
	C311.000122,647.997620 311.069031,647.924194 311.069031,647.924194 
	C302.611633,647.924194 294.154266,647.924194 285.158386,647.924194 
	C285.158386,639.419678 285.158386,630.909302 285.158386,622.004944 
	C276.375824,622.004944 268.125031,622.004944 259.402100,622.037476 
z"/>
<path fill="#FFFFFF" opacity="1.000000" stroke="none" 
	d="
M361.930969,648.075806 
	C370.329041,648.052368 378.727112,648.028992 387.562561,648.005859 
	C387.999908,648.006165 387.926666,647.937317 387.926666,647.937317 
	C387.926666,664.721924 387.926666,681.506531 387.926666,698.645569 
	C370.761902,698.645569 353.603516,698.645569 336.005341,698.645569 
	C336.005341,690.396240 336.005341,682.135437 336.003845,673.437195 
	C336.002380,672.999817 335.930054,673.069946 336.402130,673.037476 
	C345.234772,673.004944 353.595306,673.004944 362.069946,673.004944 
	C362.069946,664.157410 362.069946,656.043701 362.034912,647.966187 
	C361.999878,648.002380 361.930969,648.075806 361.930969,648.075806 
z"/>
<path fill="#FFFFFF" opacity="1.000000" stroke="none" 
	d="
M388.034241,648.042847 
	C388.068542,639.604797 388.068542,631.130066 388.068542,622.327881 
	C413.510071,622.327881 438.887512,622.327881 464.632721,622.327881 
	C464.632721,630.565979 464.632721,639.080322 464.632721,647.995544 
	C439.363495,647.995544 414.117554,647.995544 388.399109,647.966431 
	C387.926666,647.937317 387.999908,648.006165 388.034241,648.042847 
z"/>
<path fill="#FFFFFF" opacity="1.000000" stroke="none" 
	d="
M748.597839,518.962524 
	C749.048218,526.995300 749.026550,535.060486 749.037415,543.597839 
	C723.191589,544.069946 697.313293,544.069946 670.995056,544.069946 
	C670.995056,535.725464 670.995056,527.799866 670.962524,519.402161 
	C696.661987,518.951721 722.393860,518.973389 748.597839,518.962524 
z"/>
<path fill="#FFFFFF" opacity="1.000000" stroke="none" 
	d="
M723.051208,595.973450 
	C705.960754,595.939270 688.833740,595.939270 671.353394,595.939270 
	C671.353394,587.532898 671.353394,579.135254 671.353394,570.367920 
	C688.220520,570.367920 705.385376,570.367920 722.996033,570.367920 
	C722.996033,578.603394 722.996033,586.868530 722.971069,595.607178 
	C722.946045,596.080688 723.014587,596.007629 723.051208,595.973450 
z"/>
<path fill="#FFFFFF" opacity="1.000000" stroke="none" 
	d="
M594.026550,699.051208 
	C594.060730,690.621155 594.060730,682.154480 594.060730,673.343994 
	C602.480164,673.343994 610.871338,673.343994 619.632080,673.343994 
	C619.632080,681.555908 619.632080,690.061279 619.632080,698.996033 
	C611.384033,698.996033 603.125244,698.996033 594.392822,698.971069 
	C593.919312,698.946045 593.992371,699.014587 594.026550,699.051208 
z"/>
<path fill="#FFFFFF" opacity="1.000000" stroke="none" 
	d="
M335.960876,622.034668 
	C344.372192,622.069153 352.820221,622.069153 361.995117,622.069153 
	C361.995117,630.404053 361.995117,638.767273 361.963043,647.603149 
	C361.930969,648.075806 361.999878,648.002380 361.562805,647.998779 
	C352.727142,647.973450 344.328613,647.951782 335.965027,647.965088 
	C336.000000,648.000000 336.069946,648.069946 336.037415,647.597900 
	C336.026581,638.727234 336.048248,630.328613 336.069946,621.930054 
	C336.069946,621.930054 335.997620,622.000183 335.960876,622.034668 
z"/>
<path fill="#FFFFFF" opacity="1.000000" stroke="none" 
	d="
M645.962524,493.402130 
	C654.043701,492.930054 662.157349,492.930054 671.005005,492.930054 
	C671.005005,501.404633 671.005005,509.765198 671.037476,518.597839 
	C662.956299,519.069946 654.842651,519.069946 645.995056,519.069946 
	C645.995056,510.595337 645.995056,502.234772 645.962524,493.402130 
z"/>
<path fill="#FFFFFF" opacity="1.000000" stroke="none" 
	d="
M336.039124,672.965332 
	C327.961151,672.930847 319.846436,672.930847 311.004883,672.930847 
	C311.004883,664.929626 311.004883,656.899536 311.036957,648.396851 
	C311.069031,647.924194 311.000122,647.997620 311.437195,648.001282 
	C319.939514,648.026611 328.004730,648.048279 336.069946,648.069946 
	C336.069946,648.069946 336.000000,648.000000 335.997559,648.437134 
	C335.973389,656.939514 335.951721,665.004700 335.930054,673.069946 
	C335.930054,673.069946 336.002380,672.999817 336.039124,672.965332 
z"/>
<path fill="#FFFFFF" opacity="1.000000" stroke="none" 
	d="
M542.068604,390.079712 
	C533.929260,390.079712 525.789978,390.079712 517.266724,390.079712 
	C517.266724,381.475128 517.266724,373.073853 517.266724,364.337769 
	C508.498535,364.337769 500.100189,364.337769 491.315063,364.337769 
	C491.315063,372.475891 491.315063,380.876495 491.315063,389.638062 
	C465.443665,389.638062 439.953217,389.638062 413.994843,389.638062 
	C413.994843,381.410614 413.994843,373.145569 414.433197,364.437988 
	C422.796295,363.995514 430.721069,363.995514 438.632690,363.995514 
	C438.632690,355.059570 438.632690,346.555176 438.632690,338.342987 
	C430.205902,338.342987 422.148163,338.342987 414.068542,338.342987 
	C414.068542,347.150452 414.068542,355.615051 414.068542,364.079651 
	C405.670563,364.051300 397.272583,364.022980 388.437256,363.996094 
	C387.999878,363.997589 388.069946,364.069946 388.037415,363.597870 
	C388.004913,354.873779 388.004913,346.621796 388.004913,337.930054 
	C370.367310,337.930054 353.148682,337.930054 335.966248,337.965088 
	C336.002441,338.000092 336.075867,338.069031 336.075867,338.069031 
	C336.075867,329.922943 336.075867,321.776855 336.075867,313.266754 
	C387.541046,313.266754 438.922943,313.266754 490.652161,313.266754 
	C490.652161,304.512512 490.652161,296.106873 490.652161,287.303711 
	C482.517334,287.303711 474.108429,287.303711 465.351044,287.303711 
	C465.351044,278.519226 465.351044,270.113312 465.351044,261.310120 
	C473.478149,261.310120 481.884827,261.310120 490.686615,261.310120 
	C490.686615,252.525574 490.686615,244.118408 490.686615,235.355865 
	C507.805878,235.355865 524.539124,235.355865 541.636597,235.355865 
	C541.636597,243.455048 541.636597,251.861572 541.636597,260.665741 
	C533.883301,260.665741 525.807434,260.665741 517.366577,260.665741 
	C517.366577,286.569244 517.366577,312.080322 517.366577,337.970032 
	C551.441101,337.970032 585.498596,337.970032 619.942505,337.970032 
	C619.942505,355.407898 619.942505,372.475311 619.942505,389.927155 
	C637.058899,389.927155 653.793335,389.927155 671.004944,389.927155 
	C671.004944,398.580353 671.004944,406.853027 671.037476,415.597839 
	C628.198486,416.069946 585.327087,416.069946 541.994812,416.069946 
	C541.994812,407.407562 541.994812,399.144043 542.433228,390.438049 
	C559.787720,389.995514 576.703796,389.995514 593.632690,389.995514 
	C593.632690,381.073822 593.632690,372.562592 593.632690,364.332642 
	C576.216492,364.332642 559.168396,364.332642 542.068604,364.332642 
	C542.068604,373.136597 542.068604,381.608154 542.068604,390.079712 
z"/>
<path fill="#FFFFFF" opacity="1.000000" stroke="none" 
	d="
M464.597839,157.962555 
	C465.044861,166.328506 465.019775,174.726944 464.996155,183.562744 
	C464.997620,184.000107 465.069946,183.930054 464.597839,183.962555 
	C455.874939,183.995056 447.624084,183.995056 439.348633,183.995056 
	C439.348633,192.915802 439.348633,201.414139 439.348633,210.069946 
	C448.154602,210.069946 456.612274,210.069946 465.033752,210.034943 
	C464.997559,209.999939 464.924133,209.931015 464.924133,209.931015 
	C464.924133,218.065735 464.924133,226.200470 464.924133,234.667480 
	C439.398315,234.667480 413.922333,234.667480 388.005341,234.667480 
	C388.005341,226.731247 388.005341,218.802917 388.003845,210.437256 
	C388.002380,209.999893 387.930054,210.069946 388.402161,210.037445 
	C397.125061,210.004944 405.375916,210.004944 413.651367,210.004944 
	C413.651367,201.084198 413.651367,192.585861 413.651367,183.930054 
	C404.845398,183.930054 396.387726,183.930054 387.965027,183.965027 
	C388.000000,184.000000 388.069946,184.069946 388.037415,183.597870 
	C388.004913,174.874954 388.004913,166.624100 388.004913,158.348618 
	C379.084229,158.348618 370.585876,158.348618 361.930054,158.348618 
	C361.930054,167.154602 361.930054,175.612274 361.965027,184.034973 
	C362.000000,184.000000 362.069946,183.930054 361.597839,183.962555 
	C352.764374,183.995056 344.403076,183.995056 335.930054,183.995056 
	C335.930054,193.177460 335.930054,201.623703 335.965027,210.034973 
	C336.000000,210.000000 336.069946,209.930054 335.597870,209.962555 
	C327.060547,209.973389 318.995300,209.951721 310.965027,209.965027 
	C311.000000,210.000000 311.069946,210.069946 311.037445,209.597824 
	C311.004944,200.764389 311.004944,192.403076 311.004944,183.930054 
	C301.822540,183.930054 293.376282,183.930054 284.966248,183.965057 
	C285.002441,184.000061 285.075867,184.068985 285.075867,184.068985 
	C285.075867,166.839676 285.075867,149.610352 285.075867,132.011383 
	C293.791687,132.011383 302.184845,132.011383 310.995056,132.011383 
	C310.995056,123.389091 310.995056,115.131683 310.962555,106.402176 
	C318.995270,105.951721 327.060486,105.973389 335.597839,105.962555 
	C336.069946,114.402016 336.069946,122.873970 336.069946,131.854507 
	C370.279602,131.854507 404.426544,131.854507 438.953949,131.854507 
	C438.953949,140.751862 438.953949,149.153244 438.953949,157.995056 
	C447.595581,157.995056 455.860687,157.995056 464.597839,157.962555 
z"/>
<path fill="#FFFFFF" opacity="1.000000" stroke="none" 
	d="
M181.962555,261.402130 
	C216.148270,260.930054 250.366486,260.930054 285.005341,260.930054 
	C285.005341,244.042389 285.005341,227.458496 285.003845,210.437256 
	C285.002380,209.999893 284.930054,210.069946 285.402130,210.037445 
	C294.272797,210.026611 302.671356,210.048279 311.069946,210.069946 
	C311.069946,210.069946 311.000000,210.000000 310.997528,210.437134 
	C310.995056,218.902603 310.995056,226.930923 310.995056,235.069946 
	C319.844147,235.069946 327.957062,235.069946 336.033752,235.034943 
	C335.997559,234.999939 335.924133,234.931015 335.924133,234.931015 
	C335.924133,252.056641 335.924133,269.182251 335.924133,286.849915 
	C319.073212,286.849915 302.233185,286.849915 285.200745,286.849915 
	C285.200745,295.784607 285.200745,304.177795 285.200745,312.954742 
	C293.752960,312.954742 302.153778,312.954742 310.994659,312.954742 
	C310.994659,321.261841 310.994659,329.193634 310.996155,337.562775 
	C310.997620,338.000153 311.069946,337.930054 310.597809,337.962555 
	C293.206146,337.995056 276.286621,337.995056 258.825623,337.995056 
	C258.825623,320.742889 258.825623,303.900818 258.825623,286.930054 
	C232.830551,286.930054 207.380295,286.930054 181.966278,286.965027 
	C182.002487,287.000031 182.075912,287.068970 182.075928,287.068970 
	C182.048965,278.670715 182.022018,270.272461 181.962555,261.402130 
z"/>
<path fill="#FFFFFF" opacity="1.000000" stroke="none" 
	d="
M593.000000,313.000000 
	C575.858948,313.000000 559.217896,313.000000 542.288818,313.000000 
	C542.288818,304.386536 542.288818,295.981445 542.288818,287.286621 
	C567.952087,287.286621 593.686646,287.286621 619.711060,287.286621 
	C619.711060,295.613342 619.711060,304.018433 619.711060,313.000000 
	C611.027527,313.000000 602.263733,313.000000 593.000000,313.000000 
z"/>
<path fill="#FFFFFF" opacity="1.000000" stroke="none" 
	d="
M388.039124,209.965424 
	C379.675446,209.952194 371.275024,209.973419 362.437256,209.996124 
	C361.999908,209.997574 362.069946,210.069946 362.037415,209.597870 
	C362.026581,200.727219 362.048248,192.328629 362.069946,183.930054 
	C362.069946,183.930054 362.000000,184.000000 362.437134,184.002472 
	C371.272858,184.026627 379.671387,184.048294 388.069946,184.069946 
	C388.069946,184.069946 388.000000,184.000000 387.997559,184.437134 
	C387.973419,193.272842 387.951752,201.671387 387.930054,210.069946 
	C387.930054,210.069946 388.002380,209.999893 388.039124,209.965424 
z"/>
<path fill="#FFFFFF" opacity="1.000000" stroke="none" 
	d="
M464.960876,184.034576 
	C473.324677,184.044373 481.725189,184.019714 490.597839,183.962555 
	C491.069946,192.376862 491.069946,200.823669 491.069946,209.995102 
	C482.594482,209.995102 474.231934,209.995102 465.396790,209.963058 
	C464.924133,209.931015 464.997559,209.999939 465.001251,209.562836 
	C465.026611,200.727158 465.048279,192.328613 465.069946,183.930054 
	C465.069946,183.930054 464.997620,184.000107 464.960876,184.034576 
z"/>
<path fill="#FFFFFF" opacity="1.000000" stroke="none" 
	d="
M381.912018,287.000000 
	C375.120728,287.000000 368.817810,287.000000 362.259338,287.000000 
	C362.259338,278.325653 362.259338,269.921173 362.259338,261.257294 
	C370.678619,261.257294 379.082977,261.257294 387.744751,261.257294 
	C387.744751,269.682800 387.744751,278.087036 387.744751,287.000000 
	C385.948059,287.000000 384.174225,287.000000 381.912018,287.000000 
z"/>
<path fill="#FFFFFF" opacity="1.000000" stroke="none" 
	d="
M361.965454,209.960846 
	C361.930969,218.039551 361.930969,226.154984 361.930969,234.995102 
	C353.594421,234.995102 345.231903,234.995102 336.396790,234.963058 
	C335.924133,234.931015 335.997559,234.999939 336.001251,234.562836 
	C336.026611,226.060501 336.048279,217.995270 336.069946,209.930054 
	C336.069946,209.930054 336.000000,210.000000 336.437134,210.002472 
	C345.272858,210.026611 353.671387,210.048279 362.069946,210.069946 
	C362.069946,210.069946 361.999908,209.997574 361.965454,209.960846 
z"/>
<path fill="#FFFFFF" opacity="1.000000" stroke="none" 
	d="
M671.000000,299.999573 
	C671.000000,304.473541 671.000000,308.450134 671.000000,312.712463 
	C662.718811,312.712463 654.647949,312.712463 646.287048,312.712463 
	C646.287048,304.384125 646.287048,295.980255 646.287048,287.286682 
	C654.282959,287.286682 662.353760,287.286682 671.000000,287.286682 
	C671.000000,291.299438 671.000000,295.400818 671.000000,299.999573 
z"/>
<path fill="#FFFFFF" opacity="1.000000" stroke="none" 
	d="
M336.069031,363.924133 
	C328.004211,363.947632 319.939423,363.971161 311.437256,363.996124 
	C310.999878,363.997589 311.069946,364.069946 311.037445,363.597839 
	C311.026611,354.727142 311.048279,346.328613 311.069946,337.930054 
	C311.069946,337.930054 310.997620,338.000153 310.960876,338.034607 
	C318.992981,338.047668 327.061768,338.026276 335.603210,338.036957 
	C336.075867,338.069031 336.002441,338.000092 335.998749,338.437195 
	C335.973389,347.272858 335.951721,355.671387 335.965088,364.033752 
	C336.000092,363.997559 336.069031,363.924133 336.069031,363.924133 
z"/>
<path fill="#FFFFFF" opacity="1.000000" stroke="none" 
	d="
M103.962555,364.402161 
	C112.376236,363.930054 120.822418,363.930054 129.995056,363.930054 
	C129.995056,355.597321 129.995056,347.235809 129.962555,338.402161 
	C138.328506,337.955139 146.726944,337.980225 155.562744,338.003845 
	C156.000107,338.002380 155.930054,337.930054 155.962555,338.402161 
	C155.995056,364.562653 155.995056,390.251099 155.995056,415.671112 
	C173.775330,415.671112 190.823608,415.671112 208.079453,415.671112 
	C208.079453,406.872437 208.079453,398.402039 208.042786,389.965942 
	C208.006104,390.000275 207.937302,390.073486 208.408798,390.039307 
	C216.943192,389.978149 225.006088,389.951141 233.036942,390.396790 
	C233.004898,399.231934 233.004898,407.594482 233.004898,416.069946 
	C242.176331,416.069946 250.623138,416.069946 259.033752,416.034912 
	C258.997559,415.999908 258.924133,415.930969 258.924133,415.930969 
	C258.924133,424.069031 258.924133,432.207092 258.924133,441.005341 
	C301.798248,441.005341 344.461823,441.005341 387.562744,441.003876 
	C388.000122,441.002411 387.930054,440.930054 387.962585,441.402130 
	C387.995087,450.134888 387.995087,458.395538 387.995087,467.025879 
	C396.828308,467.025879 405.224945,467.025879 413.641632,467.025879 
	C413.641632,475.915741 413.641632,484.424072 413.641632,492.930054 
	C396.165527,492.930054 379.047791,492.930054 361.930054,492.930054 
	C361.930054,492.930054 362.000000,493.000000 362.002472,492.562866 
	C362.004944,483.874878 362.004944,475.624054 362.004944,467.348633 
	C353.084167,467.348633 344.585846,467.348633 335.930054,467.348633 
	C335.930054,476.154541 335.930054,484.612244 335.930054,493.069946 
	C335.930054,493.069946 336.000000,493.000000 335.562836,492.997528 
	C318.394104,493.021973 301.662537,493.048920 284.963043,492.603210 
	C284.995117,483.878479 284.995117,475.626343 284.995117,467.349426 
	C276.083923,467.349426 267.585144,467.349426 259.069061,467.349426 
	C259.069061,476.157776 259.069061,484.616821 258.597229,493.040588 
	C249.726944,492.980255 241.328506,492.955170 232.966278,492.965027 
	C233.002487,493.000031 233.075912,493.068970 233.075912,493.068970 
	C233.075912,475.936523 233.075912,458.804047 233.075912,441.335938 
	C207.383453,441.335938 181.886185,441.335938 155.999237,441.335938 
	C155.999237,449.799255 155.999237,458.203033 155.999237,466.983765 
	C147.218918,466.983765 138.814545,466.983765 130.033234,466.983765 
	C130.033234,475.763580 130.033234,484.167938 130.033234,493.004944 
	C113.057190,493.004944 96.465744,493.004944 79.402176,493.037445 
	C78.951721,484.671387 78.973389,476.272858 78.962555,467.402161 
	C87.068565,466.930054 95.207077,466.930054 103.728477,466.930054 
	C103.728477,458.479156 103.728477,450.079346 103.728477,441.298645 
	C112.494240,441.298645 120.892693,441.298645 129.645508,441.298645 
	C129.645508,432.868286 129.645508,424.802948 129.645508,416.004944 
	C104.588554,416.004944 79.231430,416.004944 53.402184,416.037445 
	C52.930061,407.605896 52.930061,399.141846 52.930061,390.158386 
	C69.925987,390.158386 86.750671,390.158386 103.995049,390.158386 
	C103.995049,381.388763 103.995049,373.131500 103.962555,364.402161 
z"/>
<path fill="#FFFFFF" opacity="1.000000" stroke="none" 
	d="
M388.034607,441.039124 
	C388.069061,432.935944 388.069061,424.796051 388.069061,416.328247 
	C413.624359,416.328247 439.113861,416.328247 464.972748,416.328247 
	C464.972748,433.112488 464.972748,449.832306 464.972748,467.004883 
	C473.598999,467.004883 481.864807,467.004883 490.603210,467.036957 
	C491.075867,467.069031 491.002441,467.000092 490.998718,467.437195 
	C490.973358,476.272858 490.951691,484.671387 490.930054,493.069946 
	C490.930054,493.069946 491.000000,493.000000 490.562836,492.997528 
	C473.209900,492.995056 456.294128,492.995056 438.842529,492.995056 
	C438.842529,475.424713 438.842529,458.253723 438.842529,440.930054 
	C421.512665,440.930054 404.721344,440.930054 387.930054,440.930054 
	C387.930054,440.930054 388.000122,441.002411 388.034607,441.039124 
z"/>
<path fill="#FFFFFF" opacity="1.000000" stroke="none" 
	d="
M310.965393,363.960876 
	C310.930939,381.038879 310.930939,398.153564 310.930939,415.995117 
	C293.922241,415.995117 276.895844,415.995117 259.396790,415.963043 
	C258.924133,415.930969 258.997559,415.999908 259.001251,415.562805 
	C258.980286,406.725189 258.955627,398.324677 259.402771,389.959412 
	C268.125366,389.994659 276.376160,389.994659 285.158722,389.994659 
	C285.158722,381.090668 285.158722,372.579437 285.158722,364.069946 
	C294.154785,364.069946 302.612366,364.069946 311.069946,364.069946 
	C311.069946,364.069946 310.999878,363.997589 310.965393,363.960876 
z"/>
<path fill="#FFFFFF" opacity="1.000000" stroke="none" 
	d="
M387.965393,363.960876 
	C387.930939,372.389526 387.930939,380.854858 387.930939,389.660034 
	C370.738159,389.660034 353.585663,389.660034 336.004883,389.660034 
	C336.004883,381.386444 336.004883,373.127930 336.036957,364.396790 
	C336.069031,363.924133 336.000092,363.997559 336.437195,364.001251 
	C353.939545,364.026611 371.004730,364.048279 388.069946,364.069946 
	C388.069946,364.069946 387.999878,363.997589 387.965393,363.960876 
z"/>
<path fill="#FCFCFC" opacity="1.000000" stroke="none" 
	d="
M746.648926,183.827789 
	C704.376831,183.833221 662.575256,183.833221 620.386353,183.833221 
	C620.386353,140.995682 620.386353,98.297981 620.386353,55.299049 
	C662.907166,55.299049 705.622559,55.299049 748.669067,55.299049 
	C748.752319,56.490269 748.918152,57.760296 748.918579,59.030384 
	C748.932312,99.009453 748.950989,138.988571 748.853271,178.967407 
	C748.849365,180.587143 747.722961,182.204117 746.648926,183.827789 
M645.564575,98.500298 
	C645.564575,118.234520 645.564575,137.968750 645.564575,157.643875 
	C671.658936,157.643875 697.191040,157.643875 722.605469,157.643875 
	C722.605469,131.883514 722.605469,106.479668 722.605469,81.168060 
	C696.778687,81.168060 671.236328,81.168060 645.564575,81.168060 
	C645.564575,86.848877 645.564575,92.174591 645.564575,98.500298 
z"/>
<path fill="#FCFCFC" opacity="1.000000" stroke="none" 
	d="
M182.002808,144.000000 
	C182.002808,157.458984 182.002808,170.417953 182.002808,183.604370 
	C138.992447,183.604370 96.400452,183.604370 53.485878,183.604370 
	C53.485878,140.964996 53.485878,98.378601 53.485878,55.394436 
	C95.999893,55.394436 138.712875,55.394436 182.002808,55.394436 
	C182.002808,84.641823 182.002808,114.070908 182.002808,144.000000 
M155.998245,110.500000 
	C155.998245,100.723114 155.998245,90.946228 155.998245,81.135719 
	C130.045868,81.135719 104.535454,81.135719 79.037445,81.135719 
	C79.037445,106.847420 79.037445,132.236954 79.037445,157.692322 
	C104.780281,157.692322 130.298737,157.692322 155.998245,157.692322 
	C155.998245,142.091309 155.998245,126.795654 155.998245,110.500000 
z"/>
<path fill="#FCFCFC" opacity="1.000000" stroke="none" 
	d="
M66.017250,750.707275 
	C61.560940,750.707275 57.601292,750.707275 53.408779,750.707275 
	C53.408779,707.642944 53.408779,665.064453 53.408779,622.155396 
	C96.189613,622.155396 138.893036,622.155396 181.801361,622.155396 
	C181.801361,664.838989 181.801361,707.451477 181.801361,750.707275 
	C143.374451,750.707275 104.944183,750.707275 66.017250,750.707275 
M78.814583,695.499939 
	C78.814583,705.231995 78.814583,714.964050 78.814583,724.599609 
	C104.941528,724.599609 130.331085,724.599609 155.670837,724.599609 
	C155.670837,698.773132 155.670837,673.234985 155.670837,647.853577 
	C129.945847,647.853577 104.548790,647.853577 78.814583,647.853577 
	C78.814583,663.591492 78.814583,679.045715 78.814583,695.499939 
z"/>
<path fill="#FFFFFF" opacity="1.000000" stroke="none" 
	d="
M156.034576,338.039124 
	C156.069046,321.188080 156.069046,304.300293 156.069046,287.004883 
	C164.624710,287.004883 172.877670,287.004883 181.603271,287.036926 
	C182.075912,287.068970 182.002487,287.000031 181.998779,287.437164 
	C181.995056,296.139343 181.995056,304.404358 181.995056,313.028564 
	C199.169403,313.028564 215.888535,313.028564 232.638031,313.028564 
	C232.638031,321.580109 232.638031,329.760101 232.638031,337.930054 
	C206.827393,337.930054 181.378723,337.930054 155.930054,337.930054 
	C155.930054,337.930054 156.000107,338.002380 156.034576,338.039124 
z"/>
<path fill="#FFFFFF" opacity="1.000000" stroke="none" 
	d="
M233.068954,543.924194 
	C207.670731,543.951111 182.272522,543.978027 156.402176,544.037476 
	C155.930054,535.938416 155.930054,527.806946 155.930054,519.157471 
	C173.260818,519.157471 190.417801,519.157471 208.005615,519.157471 
	C208.005615,510.389191 208.005615,502.132080 208.005859,493.437622 
	C208.006104,493.000275 207.937302,493.073486 207.937302,493.073486 
	C216.001740,493.050598 224.066193,493.027740 232.603271,493.036926 
	C233.075912,493.068970 233.002487,493.000031 232.998779,493.437195 
	C232.973389,510.606201 232.951721,527.338074 232.965057,544.033752 
	C233.000046,543.997559 233.068954,543.924194 233.068954,543.924194 
z"/>
<path fill="#FFFFFF" opacity="1.000000" stroke="none" 
	d="
M208.042786,492.965942 
	C199.614487,492.931610 191.149506,492.931610 182.342346,492.931610 
	C182.342346,484.517090 182.342346,476.126587 182.342346,467.367249 
	C190.555603,467.367249 199.060455,467.367249 207.995499,467.367249 
	C207.995499,475.613403 207.995499,483.871002 207.966400,492.601013 
	C207.937302,493.073486 208.006104,493.000275 208.042786,492.965942 
z"/>
<path fill="#FFFFFF" opacity="1.000000" stroke="none" 
	d="
M516.949402,106.026093 
	C525.046448,106.060280 533.180054,106.060280 541.656738,106.060280 
	C541.656738,114.481560 541.656738,122.872307 541.656738,131.632324 
	C533.777222,131.632324 525.604736,131.632324 517.003967,131.632324 
	C517.003967,123.382927 517.003967,115.124466 517.029236,106.392410 
	C517.054504,105.918831 516.986023,105.991913 516.949402,106.026093 
z"/>
<path fill="#FFFFFF" opacity="1.000000" stroke="none" 
	d="
M285.039124,209.965424 
	C276.675323,209.955612 268.274811,209.980286 259.402161,210.037445 
	C258.930054,201.623138 258.930054,193.176331 258.930054,184.004898 
	C267.405518,184.004898 275.768066,184.004898 284.603210,184.036942 
	C285.075867,184.068985 285.002441,184.000061 284.998749,184.437164 
	C284.973389,193.272842 284.951721,201.671387 284.930054,210.069946 
	C284.930054,210.069946 285.002380,209.999893 285.039124,209.965424 
z"/>
<path fill="#FFFFFF" opacity="1.000000" stroke="none" 
	d="
M336.402161,106.037445 
	C335.930054,97.943802 335.930054,89.817657 335.930054,80.995049 
	C353.103485,80.995049 370.114563,80.995049 387.597809,80.962555 
	C388.069946,89.056252 388.069946,97.182442 388.069946,106.004951 
	C370.896484,106.004951 353.885376,106.004951 336.402161,106.037445 
z"/>
<path fill="#FFFFFF" opacity="1.000000" stroke="none" 
	d="
M259.039124,569.965332 
	C250.675323,569.955566 242.274796,569.980225 233.402161,570.037476 
	C232.955002,561.669739 232.979950,553.269592 233.036926,544.396790 
	C233.068954,543.924194 233.000046,543.997559 233.437164,544.001221 
	C242.274796,543.980286 250.675323,543.955566 259.040588,544.402710 
	C258.980255,553.273010 258.955139,561.671509 258.930054,570.069946 
	C258.930054,570.069946 259.002380,569.999817 259.039124,569.965332 
z"/>
<path fill="#000000" opacity="1.000000" stroke="none" 
	d="
M387.962585,441.402130 
	C404.721344,440.930054 421.512665,440.930054 438.842529,440.930054 
	C438.842529,458.253723 438.842529,475.424713 438.842529,492.995056 
	C456.294128,492.995056 473.209900,492.995056 490.597809,492.962555 
	C491.048248,501.328613 491.026581,509.727173 491.037415,518.597839 
	C448.197266,519.069946 405.324615,519.069946 361.995056,519.069946 
	C361.995056,510.402771 361.995056,502.138519 361.962555,493.402161 
	C379.047791,492.930054 396.165527,492.930054 413.641632,492.930054 
	C413.641632,484.424072 413.641632,475.915741 413.641632,467.025879 
	C405.224945,467.025879 396.828308,467.025879 387.995087,467.025879 
	C387.995087,458.395538 387.995087,450.134888 387.962585,441.402130 
z"/>
<path fill="#000000" opacity="1.000000" stroke="none" 
	d="
M259.402161,570.037476 
	C258.955139,561.671509 258.980255,553.273010 259.003845,544.437195 
	C259.002380,543.999817 258.930054,544.069946 259.402161,544.037476 
	C268.125977,544.004944 276.377625,544.004944 285.069946,544.004944 
	C285.069946,526.701477 285.069946,509.815765 285.034912,492.966248 
	C284.999908,493.002441 284.930969,493.075867 284.930969,493.075867 
	C301.662537,493.048920 318.394104,493.021973 335.597809,492.962555 
	C336.069946,509.826477 336.069946,526.722900 336.069946,543.989014 
	C327.541595,543.989014 319.481018,543.989014 311.004944,543.989014 
	C311.004944,552.611633 311.004944,560.868652 311.037445,569.597839 
	C294.004700,570.048279 276.939484,570.026611 259.402161,570.037476 
z"/>
<path fill="#000000" opacity="1.000000" stroke="none" 
	d="
M336.402130,493.037415 
	C335.930054,484.612244 335.930054,476.154541 335.930054,467.348633 
	C344.585846,467.348633 353.084167,467.348633 362.004944,467.348633 
	C362.004944,475.624054 362.004944,483.874878 362.037445,492.597839 
	C353.671356,493.048279 345.272797,493.026581 336.402130,493.037415 
z"/>
<path fill="#000000" opacity="1.000000" stroke="none" 
	d="
M491.402130,493.037415 
	C490.951691,484.671387 490.973358,476.272858 490.962524,467.402161 
	C507.715942,466.930054 524.501831,466.930054 541.643799,466.930054 
	C541.643799,475.580841 541.643799,484.089142 541.643799,493.004913 
	C525.029480,493.004913 508.451874,493.004913 491.402130,493.037415 
z"/>
<path fill="#000000" opacity="1.000000" stroke="none" 
	d="
M612.931885,596.000000 
	C615.407776,596.000000 617.391846,596.000000 619.687439,596.000000 
	C619.687439,604.564514 619.687439,612.970032 619.687439,621.689209 
	C611.433167,621.689209 603.027405,621.689209 594.309448,621.689209 
	C594.309448,613.429810 594.309448,605.024536 594.309448,596.000000 
	C600.252319,596.000000 606.346252,596.000000 612.931885,596.000000 
z"/>
<path fill="#000000" opacity="1.000000" stroke="none" 
	d="
M336.037415,647.597900 
	C328.004730,648.048279 319.939514,648.026611 311.402161,648.037476 
	C310.930054,639.624695 310.930054,631.179443 310.930054,621.995056 
	C319.068542,621.995056 327.097137,621.995056 335.597809,621.962524 
	C336.048248,630.328613 336.026581,638.727234 336.037415,647.597900 
z"/>
<path fill="#000000" opacity="1.000000" stroke="none" 
	d="
M336.402130,673.037476 
	C335.951721,665.004700 335.973389,656.939514 335.962585,648.402222 
	C344.328613,647.951782 352.727142,647.973450 361.597839,647.962585 
	C362.069946,656.043701 362.069946,664.157410 362.069946,673.004944 
	C353.595306,673.004944 345.234772,673.004944 336.402130,673.037476 
z"/>
<path fill="#000000" opacity="1.000000" stroke="none" 
	d="
M542.034302,390.043030 
	C542.068604,381.608154 542.068604,373.136597 542.068604,364.332642 
	C559.168396,364.332642 576.216492,364.332642 593.632690,364.332642 
	C593.632690,372.562592 593.632690,381.073822 593.632690,389.995514 
	C576.703796,389.995514 559.787720,389.995514 542.399170,389.966522 
	C541.926758,389.937531 541.999939,390.006348 542.034302,390.043030 
z"/>
<path fill="#000000" opacity="1.000000" stroke="none" 
	d="
M388.037415,363.597870 
	C371.004730,364.048279 353.939545,364.026611 336.402191,364.037445 
	C335.951721,355.671387 335.973389,347.272858 335.962555,338.402161 
	C353.148682,337.930054 370.367310,337.930054 388.004913,337.930054 
	C388.004913,346.621796 388.004913,354.873779 388.037415,363.597870 
z"/>
<path fill="#000000" opacity="1.000000" stroke="none" 
	d="
M414.034210,364.042969 
	C414.068542,355.615051 414.068542,347.150452 414.068542,338.342987 
	C422.148163,338.342987 430.205902,338.342987 438.632690,338.342987 
	C438.632690,346.555176 438.632690,355.059570 438.632690,363.995514 
	C430.721069,363.995514 422.796295,363.995514 414.399109,363.966492 
	C413.926666,363.937500 413.999878,364.006317 414.034210,364.042969 
z"/>
<path fill="#000000" opacity="1.000000" stroke="none" 
	d="
M362.037415,209.597870 
	C353.671387,210.048279 345.272858,210.026611 336.402161,210.037445 
	C335.930054,201.623703 335.930054,193.177460 335.930054,183.995056 
	C344.403076,183.995056 352.764374,183.995056 361.597809,183.962555 
	C362.048248,192.328629 362.026581,200.727219 362.037415,209.597870 
z"/>
<path fill="#000000" opacity="1.000000" stroke="none" 
	d="
M388.402161,210.037445 
	C387.951752,201.671387 387.973419,193.272842 387.962585,184.402161 
	C396.387726,183.930054 404.845398,183.930054 413.651367,183.930054 
	C413.651367,192.585861 413.651367,201.084198 413.651367,210.004944 
	C405.375916,210.004944 397.125061,210.004944 388.402161,210.037445 
z"/>
<path fill="#000000" opacity="1.000000" stroke="none" 
	d="
M464.597839,183.962555 
	C465.048279,192.328613 465.026611,200.727158 465.037445,209.597839 
	C456.612274,210.069946 448.154602,210.069946 439.348633,210.069946 
	C439.348633,201.414139 439.348633,192.915802 439.348633,183.995056 
	C447.624084,183.995056 455.874939,183.995056 464.597839,183.962555 
z"/>
<path fill="#000000" opacity="1.000000" stroke="none" 
	d="
M285.402130,210.037445 
	C284.951721,201.671387 284.973389,193.272842 284.962555,184.402161 
	C293.376282,183.930054 301.822540,183.930054 311.004944,183.930054 
	C311.004944,192.403076 311.004944,200.764389 311.037445,209.597824 
	C302.671356,210.048279 294.272797,210.026611 285.402130,210.037445 
z"/>
<path fill="#000000" opacity="1.000000" stroke="none" 
	d="
M388.037415,183.597870 
	C379.671387,184.048294 371.272858,184.026627 362.402161,184.037445 
	C361.930054,175.612274 361.930054,167.154602 361.930054,158.348618 
	C370.585876,158.348618 379.084229,158.348618 388.004913,158.348618 
	C388.004913,166.624100 388.004913,174.874954 388.037415,183.597870 
z"/>
<path fill="#000000" opacity="1.000000" stroke="none" 
	d="
M335.597870,209.962555 
	C336.048279,217.995270 336.026611,226.060501 336.037445,234.597839 
	C327.957062,235.069946 319.844147,235.069946 310.995056,235.069946 
	C310.995056,226.930923 310.995056,218.902603 310.962555,210.402161 
	C318.995300,209.951721 327.060547,209.973389 335.597870,209.962555 
z"/>
<path fill="#000000" opacity="1.000000" stroke="none" 
	d="
M155.962555,338.402161 
	C181.378723,337.930054 206.827393,337.930054 232.638031,337.930054 
	C232.638031,329.760101 232.638031,321.580109 232.638031,313.028564 
	C215.888535,313.028564 199.169403,313.028564 181.995056,313.028564 
	C181.995056,304.404358 181.995056,296.139343 181.962555,287.402161 
	C207.380295,286.930054 232.830551,286.930054 258.825623,286.930054 
	C258.825623,303.900818 258.825623,320.742889 258.825623,337.995056 
	C276.286621,337.995056 293.206146,337.995056 310.597809,337.962555 
	C311.048279,346.328613 311.026611,354.727142 311.037445,363.597839 
	C302.612366,364.069946 294.154785,364.069946 285.158722,364.069946 
	C285.158722,372.579437 285.158722,381.090668 285.158722,389.994659 
	C276.376160,389.994659 268.125366,389.994659 259.437256,389.996124 
	C258.999878,389.997589 259.069946,390.069946 259.037415,389.597870 
	C259.004913,380.874939 259.004913,372.624084 259.004913,364.348633 
	C250.084229,364.348633 241.585892,364.348633 232.930054,364.348633 
	C232.930054,373.154602 232.930054,381.612274 232.965057,390.033752 
	C233.000061,389.997559 233.068985,389.924133 233.068985,389.924133 
	C225.006088,389.951141 216.943192,389.978149 208.437897,389.566864 
	C207.995499,380.871002 207.995499,372.613403 207.995499,364.367249 
	C199.060455,364.367249 190.555603,364.367249 182.342346,364.367249 
	C182.342346,373.126587 182.342346,381.517090 182.342346,389.931610 
	C191.149506,389.931610 199.614487,389.931610 208.079453,389.931610 
	C208.079453,398.402039 208.079453,406.872437 208.079453,415.671112 
	C190.823608,415.671112 173.775330,415.671112 155.995056,415.671112 
	C155.995056,390.251099 155.995056,364.562653 155.962555,338.402161 
z"/>
<path fill="#000000" opacity="1.000000" stroke="none" 
	d="
M259.039124,543.965332 
	C250.675323,543.955566 242.274796,543.980286 233.402161,544.037476 
	C232.951721,527.338074 232.973389,510.606201 232.962555,493.402191 
	C241.328506,492.955170 249.726944,492.980255 258.562744,493.003876 
	C259.000122,493.002411 258.930054,492.930054 258.962585,493.402161 
	C258.973419,510.606140 258.951752,527.338074 258.930054,544.069946 
	C258.930054,544.069946 259.002380,543.999817 259.039124,543.965332 
z"/>
<path fill="#000000" opacity="1.000000" stroke="none" 
	d="
M258.965393,389.960876 
	C258.955627,398.324677 258.980286,406.725189 259.037445,415.597839 
	C250.623138,416.069946 242.176331,416.069946 233.004898,416.069946 
	C233.004898,407.594482 233.004898,399.231934 233.036942,390.396790 
	C233.068985,389.924133 233.000061,389.997559 233.437164,390.001251 
	C242.272842,390.026611 250.671387,390.048279 259.069946,390.069946 
	C259.069946,390.069946 258.999878,389.997589 258.965393,389.960876 
z"/>
<path fill="#000000" opacity="1.000000" stroke="none" 
	d="
M259.034607,493.039124 
	C259.069061,484.616821 259.069061,476.157776 259.069061,467.349426 
	C267.585144,467.349426 276.083923,467.349426 284.995117,467.349426 
	C284.995117,475.626343 284.995117,483.878479 284.963043,492.603210 
	C284.930969,493.075867 284.999908,493.002441 284.562805,492.998749 
	C275.727142,492.973389 267.328613,492.951721 258.930054,492.930054 
	C258.930054,492.930054 259.000122,493.002411 259.034607,493.039124 
z"/>
<path fill="#010101" opacity="1.000000" stroke="none" 
	d="
M645.564575,98.000305 
	C645.564575,92.174591 645.564575,86.848877 645.564575,81.168060 
	C671.236328,81.168060 696.778687,81.168060 722.605469,81.168060 
	C722.605469,106.479668 722.605469,131.883514 722.605469,157.643875 
	C697.191040,157.643875 671.658936,157.643875 645.564575,157.643875 
	C645.564575,137.968750 645.564575,118.234520 645.564575,98.000305 
z"/>
<path fill="#000000" opacity="1.000000" stroke="none" 
	d="
M155.998245,111.000000 
	C155.998245,126.795654 155.998245,142.091309 155.998245,157.692322 
	C130.298737,157.692322 104.780281,157.692322 79.037445,157.692322 
	C79.037445,132.236954 79.037445,106.847420 79.037445,81.135719 
	C104.535454,81.135719 130.045868,81.135719 155.998245,81.135719 
	C155.998245,90.946228 155.998245,100.723114 155.998245,111.000000 
z"/>
<path fill="#010101" opacity="1.000000" stroke="none" 
	d="
M78.814583,694.999878 
	C78.814583,679.045715 78.814583,663.591492 78.814583,647.853577 
	C104.548790,647.853577 129.945847,647.853577 155.670837,647.853577 
	C155.670837,673.234985 155.670837,698.773132 155.670837,724.599609 
	C130.331085,724.599609 104.941528,724.599609 78.814583,724.599609 
	C78.814583,714.964050 78.814583,705.231995 78.814583,694.999878 
z"/>
<path fill="#FFFFFF" opacity="1.000000" stroke="none" 
	d="
M258.962585,493.402161 
	C267.328613,492.951721 275.727142,492.973389 284.597839,492.962555 
	C285.069946,509.815765 285.069946,526.701477 285.069946,544.004944 
	C276.377625,544.004944 268.125977,544.004944 259.402161,544.037476 
	C258.951752,527.338074 258.973419,510.606140 258.962585,493.402161 
z"/>
<path fill="#FFFFFF" opacity="1.000000" stroke="none" 
	d="
M208.042786,389.965942 
	C199.614487,389.931610 191.149506,389.931610 182.342346,389.931610 
	C182.342346,381.517090 182.342346,373.126587 182.342346,364.367249 
	C190.555603,364.367249 199.060455,364.367249 207.995499,364.367249 
	C207.995499,372.613403 207.995499,380.871002 207.966400,389.601013 
	C207.937302,390.073486 208.006104,390.000275 208.042786,389.965942 
z"/>
<path fill="#FFFFFF" opacity="1.000000" stroke="none" 
	d="
M259.037415,389.597870 
	C250.671387,390.048279 242.272842,390.026611 233.402161,390.037445 
	C232.930054,381.612274 232.930054,373.154602 232.930054,364.348633 
	C241.585892,364.348633 250.084229,364.348633 259.004913,364.348633 
	C259.004913,372.624084 259.004913,380.874939 259.037415,389.597870 
z"/>
</svg>