<svg version="1.1" id="Layer_1" xmlns="http://www.w3.org/2000/svg" xmlns:xlink="http://www.w3.org/1999/xlink" x="0px" y="0px"
	 width="100%" viewBox="0 0 800 800" enable-background="new 0 0 800 800" xml:space="preserve">
<path fill="#FEFEFE" opacity="1.000000" stroke="none" 
	d="
M801.000000,215.000000 
	C801.000000,410.666656 801.000000,605.833313 801.000000,801.000000 
	C534.333313,801.000000 267.666656,801.000000 1.000000,801.000000 
	C1.000000,534.333313 1.000000,267.666656 1.000000,1.000000 
	C267.666656,1.000000 534.333313,1.000000 801.000000,1.000000 
	C801.000000,72.166664 801.000000,143.333328 801.000000,215.000000 
M462.125122,181.006287 
	C453.874359,181.006287 445.623596,181.006287 437.351135,181.006287 
	C437.351135,189.918167 437.351135,198.416428 437.351135,206.931183 
	C446.159393,206.931183 454.617584,206.931183 463.006256,207.874878 
	C463.006256,215.803345 463.006256,223.731796 463.006256,231.668381 
	C437.077942,231.668381 411.601410,231.668381 385.924194,231.668381 
	C385.924194,223.201309 385.924194,215.066269 386.869537,206.994186 
	C395.121216,206.994186 403.372864,206.994186 411.649475,206.994186 
	C411.649475,198.083984 411.649475,189.585327 411.649475,181.068817 
	C402.841400,181.068817 394.382812,181.068817 385.993744,180.125122 
	C385.993744,171.858826 385.993744,163.592545 385.993744,155.351379 
	C351.388763,155.351379 317.240021,155.351379 283.325684,155.351379 
	C283.325684,172.755844 283.325684,189.808884 283.325684,206.924179 
	C292.122986,206.924179 300.595886,206.924179 309.005798,207.869537 
	C309.026825,215.938293 309.047821,224.007034 308.125122,232.006287 
	C265.450867,232.006287 222.776596,232.006287 180.335022,232.006287 
	C180.335022,241.090454 180.335022,249.489105 180.335022,258.259430 
	C189.067886,258.259430 197.470078,258.259430 206.073257,258.259430 
	C206.073257,267.117157 206.073257,275.589661 205.128357,284.005402 
	C188.060303,284.026550 170.992264,284.047668 153.993713,283.125122 
	C153.993713,266.197296 153.993713,249.269455 153.993713,232.355316 
	C110.727280,232.355316 67.905617,232.355316 25.350161,232.355316 
	C25.350161,241.114594 25.350161,249.517365 25.350161,258.274170 
	C51.085266,258.274170 76.472092,258.274170 102.068825,258.274170 
	C102.068825,267.121155 102.068825,275.598480 101.125137,284.006256 
	C84.529877,284.006256 67.934624,284.006256 50.952072,284.006256 
	C50.952072,292.848114 50.952072,301.254456 50.952072,310.038757 
	C42.165138,310.038757 33.758732,310.038757 25.367468,310.038757 
	C25.367468,335.934875 25.367468,361.437866 25.367468,387.329010 
	C34.138325,387.329010 42.544254,387.329010 51.320236,387.329010 
	C51.320236,396.124817 51.320236,404.530243 51.320236,412.648590 
	C60.116711,412.648590 68.519821,412.648590 77.297668,412.648590 
	C77.297668,403.894470 77.297668,395.489075 77.297668,386.721313 
	C94.416481,386.721313 111.145393,386.721313 127.924171,386.721313 
	C127.924171,369.203705 127.924171,352.067474 128.869537,334.994202 
	C137.272995,334.973206 145.676453,334.952240 154.006592,335.874695 
	C154.006592,344.137360 154.006592,352.399994 154.006592,360.634613 
	C171.615158,360.634613 188.777496,360.634613 205.650146,360.634613 
	C205.650146,351.872284 205.650146,343.476135 205.650146,335.072998 
	C188.180161,335.072998 171.059021,335.072998 153.994598,334.128143 
	C153.973465,326.060150 153.952332,317.992188 154.874893,309.993744 
	C171.887695,309.993744 188.900497,309.993744 205.931503,309.993744 
	C205.931503,300.840546 205.931503,292.380371 206.874893,283.993439 
	C214.807877,283.993439 222.740860,283.993439 231.050781,283.993439 
	C231.050781,292.849457 231.050781,301.251434 231.050781,310.025452 
	C239.827103,310.025452 248.229141,310.025452 256.806946,310.025452 
	C256.806946,318.472229 256.806946,326.533752 256.806946,335.156799 
	C248.102539,335.156799 239.574905,335.156799 231.075821,335.156799 
	C231.075821,361.501862 231.075821,387.285309 230.130463,413.005798 
	C222.060333,413.026764 213.990219,413.047729 205.993408,412.125305 
	C205.993408,403.862640 205.993408,395.600006 205.993408,387.365387 
	C188.384842,387.365387 171.222504,387.365387 154.349854,387.365387 
	C154.349854,396.127716 154.349854,404.523865 154.349854,412.927002 
	C171.819839,412.927002 188.940979,412.927002 206.005386,413.871857 
	C206.026520,421.939850 206.047653,430.007812 205.125107,438.006256 
	C179.434601,438.006256 153.744080,438.006256 127.674973,438.006256 
	C127.674973,429.198944 127.674973,421.131226 127.674973,413.343201 
	C118.889801,413.343201 110.492188,413.343201 102.073364,413.343201 
	C102.073364,430.477692 102.073364,447.270020 101.128433,464.005402 
	C84.530739,464.005402 67.933052,464.005402 50.946587,464.005402 
	C50.946587,455.150635 50.946587,446.744446 50.946587,438.220276 
	C42.153236,438.220276 33.753872,438.220276 25.359272,438.220276 
	C25.359272,481.268372 25.359272,524.096130 25.359272,566.644104 
	C34.123856,566.644104 42.528221,566.644104 51.291176,566.644104 
	C51.291176,540.899353 51.291176,515.508789 51.291176,489.740295 
	C68.396240,489.740295 85.127266,489.740295 101.931610,489.740295 
	C101.931610,480.877563 101.931610,472.398926 102.874992,463.993469 
	C111.126457,463.993469 119.377914,463.993469 128.073364,463.993469 
	C128.073364,481.628265 128.073364,498.845184 127.128433,516.005371 
	C110.539452,516.005371 93.950470,516.005371 77.368393,516.005371 
	C77.368393,533.269714 77.368393,550.106323 77.368393,566.656372 
	C94.457474,566.656372 111.178368,566.656372 127.931610,566.656372 
	C127.931610,549.515869 127.931610,532.717957 128.874985,515.993408 
	C137.138031,515.993408 145.401077,515.993408 154.194183,515.993408 
	C154.194183,533.277954 154.194183,550.114624 154.194183,566.669373 
	C171.779190,566.669373 188.825821,566.669373 205.924225,566.669373 
	C205.924225,557.870361 205.924225,549.400757 206.869568,540.994202 
	C214.801086,540.994202 222.732605,540.994202 231.175049,540.994202 
	C231.175049,567.264893 231.175049,593.086121 231.175049,619.280518 
	C240.090958,619.280518 248.490173,619.280518 257.068848,619.280518 
	C257.068848,628.133179 257.068848,636.604431 256.125122,645.006287 
	C247.856735,645.006287 239.588348,645.006287 231.354401,645.006287 
	C231.354401,687.950195 231.354401,730.432251 231.354401,772.677795 
	C257.423157,772.677795 283.137878,772.677795 308.924194,772.677795 
	C308.924194,764.215027 308.924194,756.073120 309.869568,747.994202 
	C317.805542,747.994202 325.741516,747.994202 334.058105,747.994202 
	C334.058105,739.140686 334.058105,730.737244 334.058105,722.214783 
	C342.845551,722.214783 351.242767,722.214783 360.027740,722.214783 
	C360.027740,730.824280 360.027740,739.228149 360.027740,747.798157 
	C368.814026,747.798157 377.210815,747.798157 385.996338,747.798157 
	C385.996338,739.204346 385.996338,730.799438 385.996338,721.840698 
	C394.898895,721.840698 403.428619,721.840698 411.644104,721.840698 
	C411.644104,712.871216 411.644104,704.469299 411.644104,695.720459 
	C385.573944,695.720459 359.857971,695.720459 333.924194,695.720459 
	C333.924194,686.881714 333.924194,678.406433 334.869568,669.994202 
	C343.120880,669.994202 351.372223,669.994202 359.648987,669.994202 
	C359.648987,661.417358 359.648987,653.251343 359.648987,645.068909 
	C350.840820,645.068909 342.382568,645.068909 333.993744,644.125183 
	C333.972839,635.724915 333.951965,627.324646 334.874817,618.993713 
	C351.808472,618.993713 368.742126,618.993713 386.060791,618.993713 
	C386.060791,636.192688 386.060791,652.926941 386.060791,670.043701 
	C403.179138,670.043701 419.913147,670.043701 437.036194,670.043701 
	C437.036194,678.830872 437.036194,687.240051 437.036194,695.721802 
	C446.037689,695.721802 454.645020,695.721802 463.019836,696.714478 
	C463.037781,713.830566 463.055725,730.946594 462.128632,748.005371 
	C445.546539,748.005371 428.964447,748.005371 412.368164,748.005371 
	C412.368164,756.592468 412.368164,764.770203 412.368164,772.666809 
	C429.450043,772.666809 446.163971,772.666809 462.931915,772.666809 
	C462.931915,764.196716 462.931915,756.058716 463.875305,747.993469 
	C497.812531,747.993469 531.749756,747.993469 565.755615,747.993469 
	C565.755615,739.113525 565.755615,730.709412 565.755615,721.910645 
	C540.110291,721.910645 514.705383,721.910645 488.905396,721.910645 
	C488.905396,713.110168 488.905396,704.698975 488.905396,695.873718 
	C480.045197,695.873718 471.581665,695.873718 463.007416,694.958130 
	C463.007416,686.697754 463.007416,678.437317 463.007416,669.791748 
	C472.006958,669.791748 480.418396,669.791748 489.210449,669.791748 
	C489.210449,661.320068 489.210449,653.242615 489.210449,645.305542 
	C498.018311,645.305542 506.424347,645.305542 515.219177,645.305542 
	C515.219177,653.685059 515.219177,661.762817 515.219177,670.221436 
	C523.691284,670.221436 531.769226,670.221436 540.227417,670.221436 
	C540.227417,679.026733 540.227417,687.438049 540.227417,696.087219 
	C557.771301,696.087219 574.916992,696.087219 591.994263,696.013977 
	C591.994263,696.013977 591.921204,695.945374 591.995361,696.886963 
	C591.995361,705.156738 591.995361,713.426514 591.995361,721.769775 
	C609.544617,721.769775 626.604980,721.769775 644.048340,721.769775 
	C644.048340,704.480957 644.048340,687.417297 644.048340,669.965942 
	C652.495850,669.965942 660.570557,669.965942 669.016296,669.965942 
	C669.016296,652.847107 669.016296,636.115967 669.016296,619.195312 
	C677.800598,619.195312 686.200195,619.195312 695.161011,619.195312 
	C695.161011,636.236023 695.161011,653.089355 695.161011,669.658569 
	C721.112549,669.658569 746.502197,669.658569 771.670044,669.658569 
	C771.670044,652.587708 771.670044,635.858582 771.670044,618.752014 
	C754.611938,618.752014 737.880798,618.752014 721.087219,618.752014 
	C721.087219,609.890930 721.087219,601.414124 721.013977,593.005737 
	C721.013977,593.005737 720.945374,593.078796 721.886963,593.004639 
	C730.136475,593.004639 738.385986,593.004639 746.924194,593.004639 
	C746.924194,575.362549 746.924194,558.146912 747.869568,540.994202 
	C755.788025,540.994202 763.706421,540.994202 771.649475,540.994202 
	C771.649475,532.416992 771.649475,524.251648 771.649475,516.068787 
	C763.174683,516.068787 755.049438,516.068787 746.993713,515.125122 
	C746.993713,506.860626 746.993713,498.596130 746.993713,489.973694 
	C729.497070,489.973694 712.445801,489.973694 694.840088,489.973694 
	C694.840088,481.098694 694.840088,472.572327 694.840088,464.330444 
	C677.562134,464.330444 660.845032,464.330444 644.068909,464.330444 
	C644.068909,473.131653 644.068909,481.603668 643.125183,490.006287 
	C634.727173,490.029449 626.329163,490.052643 617.994202,489.130432 
	C617.994202,472.218658 617.994202,455.306885 617.994202,437.865082 
	C635.219055,437.865082 652.052612,437.865082 668.931091,437.865082 
	C668.931091,429.196381 668.931091,421.060364 669.874817,412.993744 
	C686.816772,412.993744 703.758789,412.993744 721.097412,412.993744 
	C721.097412,421.558807 721.097412,429.637878 721.097412,437.745087 
	C738.238464,437.745087 754.976990,437.745087 771.739990,437.745087 
	C771.739990,420.751221 771.739990,404.012634 771.739990,386.875153 
	C763.409180,386.875153 755.331543,386.875153 746.864380,386.875153 
	C746.864380,378.068542 746.864380,369.658112 746.864380,361.274048 
	C738.054565,361.274048 729.648376,361.274048 720.847107,361.274048 
	C720.847107,369.952881 720.847107,378.365509 720.847107,386.719604 
	C712.036438,386.719604 703.629883,386.719604 694.828796,386.719604 
	C694.828796,378.031952 694.828796,369.619232 694.828796,360.821716 
	C686.021057,360.821716 677.607971,360.821716 669.293091,360.821716 
	C669.293091,352.010437 669.293091,343.603546 669.293091,334.803406 
	C677.994202,334.803406 686.406494,334.803406 695.203674,334.803406 
	C695.203674,326.327942 695.203674,318.248932 695.203674,309.785583 
	C704.012573,309.785583 712.425354,309.785583 720.925842,309.785583 
	C720.925842,300.902252 720.925842,292.419647 721.871094,283.994568 
	C730.134888,283.994568 738.398682,283.994568 746.632019,283.994568 
	C746.632019,266.383911 746.632019,249.220428 746.632019,232.353333 
	C737.866455,232.353333 729.469604,232.353333 721.067627,232.353333 
	C721.067627,249.830109 721.067627,266.954559 720.124268,284.006500 
	C711.848083,284.006500 703.571899,284.006500 694.902466,284.006500 
	C694.902466,266.440735 694.902466,249.365005 694.902466,232.254791 
	C686.093872,232.254791 677.688965,232.254791 668.885742,232.254791 
	C668.885742,240.913162 668.885742,249.324600 668.885742,257.739075 
	C660.409424,257.739075 652.336609,257.739075 643.867798,257.739075 
	C643.867798,249.072632 643.867798,240.661377 643.867798,232.272202 
	C635.057922,232.272202 626.652100,232.272202 617.850952,232.272202 
	C617.850952,240.948975 617.850952,249.361252 617.850952,257.721680 
	C609.040527,257.721680 600.634094,257.721680 591.833008,257.721680 
	C591.833008,249.036484 591.833008,240.623596 591.833008,231.826202 
	C583.025574,231.826202 574.612610,231.826202 565.815796,231.826202 
	C565.815796,214.685959 565.815796,197.943588 565.815796,181.298172 
	C557.005005,181.298172 548.598389,181.298172 539.799011,181.298172 
	C539.799011,190.002548 539.799011,198.414993 539.799011,206.695709 
	C531.320618,206.695709 523.246643,206.695709 514.781128,206.695709 
	C514.781128,197.982758 514.781128,189.569931 514.781128,181.075821 
	C505.897339,181.075821 497.414276,181.075821 488.994202,180.130463 
	C488.973206,171.727005 488.952240,163.323547 489.874725,154.993423 
	C515.119324,154.993423 540.363892,154.993423 565.677063,154.993423 
	C565.677063,120.447716 565.677063,86.298355 565.677063,52.073208 
	C556.882874,52.073208 548.410400,52.073208 539.994629,51.128315 
	C539.994629,42.871605 539.994629,34.614895 539.994629,26.368420 
	C531.394043,26.368420 523.222717,26.368420 515.343018,26.368420 
	C515.343018,35.126862 515.343018,43.516308 515.343018,51.931458 
	C523.816650,51.931458 531.948303,51.931458 540.006592,52.874844 
	C540.006592,61.124397 540.006592,69.373955 540.006592,78.155281 
	C531.429382,78.155281 523.251160,78.155281 514.912903,78.155281 
	C514.912903,86.816353 514.912903,94.939339 514.986145,102.993927 
	C514.986145,102.993927 515.054749,102.920853 514.113159,102.995323 
	C505.864166,102.995323 497.615173,102.995323 489.072998,102.995323 
	C489.072998,120.634132 489.072998,137.848129 488.128143,155.005386 
	C479.791138,154.961761 471.454132,154.918152 463.007324,153.958771 
	C463.007324,137.032532 463.007324,120.106300 463.007324,102.785988 
	C445.651978,102.785988 428.909485,102.785988 411.926270,102.785988 
	C411.926270,94.236404 411.926270,86.086853 412.871307,77.994568 
	C438.120758,77.994568 463.370209,77.994568 488.800537,77.994568 
	C488.800537,69.190292 488.800537,60.793827 488.800537,51.845383 
	C471.430267,51.845383 454.250061,51.845383 436.696350,51.845383 
	C436.696350,42.891178 436.696350,34.489048 436.696350,26.339611 
	C428.237518,26.339611 420.169617,26.339611 412.068054,26.339611 
	C412.068054,43.811859 412.068054,60.945595 411.124695,78.006546 
	C402.729004,78.028824 394.333313,78.051094 385.994598,77.128441 
	C385.994598,68.860123 385.994598,60.591797 385.994598,52.199196 
	C360.156525,52.199196 334.777161,52.199196 309.355530,52.199196 
	C309.355530,69.239494 309.355530,86.079239 309.355530,102.651588 
	C317.780518,102.651588 325.848846,102.651588 334.289307,102.651588 
	C334.289307,94.235474 334.289307,86.164398 334.289307,77.931610 
	C351.811920,77.931610 368.945801,77.931610 386.006531,78.874992 
	C386.006531,86.814133 386.006531,94.753273 386.006531,103.077812 
	C377.125824,103.077812 368.717865,103.077812 360.234924,103.077812 
	C360.234924,111.874519 360.234924,120.275002 360.234924,129.054138 
	C385.859650,129.054138 411.253510,129.054138 437.037598,129.054138 
	C437.037598,137.832535 437.037598,146.241165 437.037598,154.722641 
	C446.037811,154.722641 454.644623,154.722641 463.019745,155.715179 
	C463.036102,164.168716 463.052460,172.622253 462.125122,181.006287 
M747.005371,722.871704 
	C747.005371,731.128418 747.005371,739.385071 747.005371,747.631653 
	C755.605896,747.631653 763.777222,747.631653 771.656982,747.631653 
	C771.656982,738.873230 771.656982,730.483826 771.656982,722.068481 
	C763.183472,722.068481 755.051880,722.068481 746.993408,721.125061 
	C746.993408,712.855774 746.993408,704.586426 746.993408,696.218506 
	C729.472412,696.218506 712.415466,696.218506 694.968994,696.218506 
	C694.968994,704.830933 694.968994,713.235718 694.968994,722.020020 
	C686.184265,722.020020 677.779358,722.020020 668.994812,722.020020 
	C668.994812,730.804321 668.994812,739.209290 668.994812,747.994629 
	C660.544006,747.994629 652.470947,747.994629 644.364380,747.994629 
	C644.364380,756.574036 644.364380,764.757874 644.364380,772.663208 
	C670.113098,772.663208 695.497803,772.663208 721.256836,772.663208 
	C721.256836,755.601318 721.256836,738.873962 721.256836,721.926758 
	C730.111023,721.926758 738.586670,721.926758 747.005371,722.871704 
M753.499268,26.322943 
	C699.791199,26.322943 646.083069,26.322943 592.452209,26.322943 
	C592.452209,86.735306 592.452209,146.298477 592.452209,205.911072 
	C652.440796,205.911072 712.144104,205.911072 771.781006,205.911072 
	C771.781006,145.957703 771.781006,86.283081 771.781006,26.322952 
	C765.781128,26.322952 760.139771,26.322952 753.499268,26.322943 
M78.499931,206.187180 
	C120.746292,206.187180 162.992661,206.187180 205.009521,206.187180 
	C205.009521,145.865967 205.009521,86.279999 205.009521,26.666588 
	C145.114105,26.666588 85.555702,26.666588 25.896391,26.666588 
	C25.896391,86.597092 25.896391,146.186066 25.896391,206.187180 
	C43.249580,206.187180 60.374752,206.187180 78.499931,206.187180 
M135.500000,593.000427 
	C98.925140,593.000427 62.350288,593.000427 26.001446,593.000427 
	C26.001446,653.404907 26.001446,713.126404 26.001446,772.814209 
	C85.916855,772.814209 145.497543,772.814209 205.115082,772.814209 
	C205.115082,712.822144 205.115082,653.092957 205.115082,593.000427 
	C182.092163,593.000427 159.296082,593.000427 135.500000,593.000427 
M282.999054,88.500000 
	C282.999054,67.742485 282.999054,46.984962 282.999054,26.283777 
	C274.030060,26.283777 265.626068,26.283777 256.831085,26.283777 
	C256.831085,34.970577 256.831085,43.380962 256.831085,52.172943 
	C248.029160,52.172943 239.618576,52.172943 231.287674,52.172943 
	C231.287674,60.977955 231.287674,69.381996 231.287674,78.176727 
	C239.978638,78.176727 248.388779,78.176727 256.712585,78.176727 
	C256.712585,86.649132 256.712585,94.720543 256.712585,103.181808 
	C248.019897,103.181808 239.609924,103.181808 231.292114,103.181808 
	C231.292114,111.987007 231.292114,120.391182 231.292114,128.709595 
	C248.652634,128.709595 265.720490,128.709595 282.999054,128.709595 
	C282.999054,115.447426 282.999054,102.473717 282.999054,88.500000 
M252.380325,206.999023 
	C253.822266,206.999023 255.264206,206.999023 256.751831,206.999023 
	C256.751831,189.435577 256.751831,172.366959 256.751831,155.251068 
	C248.098663,155.251068 239.694839,155.251068 231.251648,155.251068 
	C231.251648,172.571136 231.251648,189.639938 231.251648,206.999023 
	C238.132156,206.999023 244.766113,206.999023 252.380325,206.999023 
M617.999084,755.559570 
	C617.999084,753.122864 617.999084,750.686096 617.999084,748.269531 
	C609.058655,748.269531 600.655090,748.269531 592.271118,748.269531 
	C592.271118,756.611389 592.271118,764.681458 592.271118,772.727539 
	C600.947327,772.727539 609.351013,772.727539 617.999084,772.727539 
	C617.999084,767.152954 617.999084,761.847717 617.999084,755.559570 
M771.941162,334.267181 
	C771.941162,326.312958 771.941162,318.358704 771.941162,310.205383 
	C763.544312,310.205383 755.474121,310.205383 747.202271,310.205383 
	C747.202271,318.462067 747.202271,326.532318 747.202271,334.942657 
	C755.345215,334.942657 763.298035,334.942657 771.941162,334.267181 
z"/>
<path fill="#000000" opacity="1.000000" stroke="none" 
	d="
M721.087219,592.937317 
	C721.087219,601.414124 721.087219,609.890930 721.087219,618.752014 
	C737.880798,618.752014 754.611938,618.752014 771.670044,618.752014 
	C771.670044,635.858582 771.670044,652.587708 771.670044,669.658569 
	C746.502197,669.658569 721.112549,669.658569 695.161011,669.658569 
	C695.161011,653.089355 695.161011,636.236023 695.161011,619.195312 
	C686.200195,619.195312 677.800598,619.195312 669.016296,619.195312 
	C669.016296,636.115967 669.016296,652.847107 669.016296,669.965942 
	C660.570557,669.965942 652.495850,669.965942 644.048340,669.965942 
	C644.048340,687.417297 644.048340,704.480957 644.048340,721.769775 
	C626.604980,721.769775 609.544617,721.769775 591.995361,721.769775 
	C591.995361,713.426514 591.995361,705.156738 592.431519,696.441528 
	C601.126343,695.996033 609.384888,695.996033 617.631836,695.996033 
	C617.631836,687.060852 617.631836,678.555664 617.631836,670.343994 
	C608.871155,670.343994 600.480225,670.343994 592.062683,670.343994 
	C592.062683,679.154236 592.062683,687.620728 592.062683,696.087219 
	C574.916992,696.087219 557.771301,696.087219 540.227417,696.087219 
	C540.227417,687.438049 540.227417,679.026733 540.227417,670.221436 
	C531.769226,670.221436 523.691284,670.221436 515.219177,670.221436 
	C515.219177,661.762817 515.219177,653.685059 515.219177,645.305542 
	C506.424347,645.305542 498.018311,645.305542 489.210449,645.305542 
	C489.210449,653.242615 489.210449,661.320068 489.210449,669.791748 
	C480.418396,669.791748 472.006958,669.791748 463.007416,669.791748 
	C463.007416,678.437317 463.007416,686.697754 463.093506,695.381104 
	C463.179596,695.804138 463.252380,695.721802 463.252380,695.721802 
	C454.645020,695.721802 446.037689,695.721802 437.036194,695.721802 
	C437.036194,687.240051 437.036194,678.830872 437.036194,670.043701 
	C419.913147,670.043701 403.179138,670.043701 386.060791,670.043701 
	C386.060791,652.926941 386.060791,636.192688 386.060791,618.993713 
	C368.742126,618.993713 351.808472,618.993713 334.437378,618.995728 
	C333.999939,618.997742 334.069946,619.069946 334.037415,618.597900 
	C334.029846,609.727661 334.054779,601.329529 334.043030,592.965698 
	C334.006348,593.000061 333.937531,593.073242 334.409058,593.039185 
	C351.890656,593.005188 368.900757,593.005188 385.924164,593.005188 
	C385.924164,583.846985 385.924164,575.388977 386.396790,566.963013 
	C395.271545,566.973694 403.673706,566.952271 412.040588,567.402710 
	C412.005341,576.145081 412.005341,584.415588 412.005341,593.050659 
	C437.856812,593.050659 463.245636,593.050659 489.022217,593.050659 
	C489.022217,601.819397 489.022217,610.225403 489.022217,618.797852 
	C497.813324,618.797852 506.212219,618.797852 515.002563,618.797852 
	C515.002563,610.200867 515.002563,601.794678 515.002563,593.006958 
	C523.455811,593.006958 531.529114,593.006958 539.645203,593.006958 
	C539.645203,575.434814 539.645203,558.257324 539.645203,541.350220 
	C531.217529,541.350220 523.146729,541.350220 514.701233,541.350220 
	C514.701233,550.104431 514.701233,558.510925 514.701233,566.669067 
	C497.247009,566.669067 480.185791,566.669067 463.325989,566.669067 
	C463.325989,557.933228 463.325989,549.530823 463.325989,540.749756 
	C472.054535,540.749756 480.461029,540.749756 488.930878,540.749756 
	C488.930878,532.213745 488.930878,524.069031 489.402710,515.959473 
	C532.538696,515.994629 575.202820,515.994629 618.069946,515.994629 
	C618.069946,506.872406 618.069946,498.401215 618.034973,489.966217 
	C618.000000,490.002380 617.931152,490.075806 617.931152,490.075806 
	C626.329163,490.052643 634.727173,490.029449 643.562622,490.004303 
	C644.000122,490.002319 643.930054,489.930054 643.962524,490.402130 
	C643.995056,499.234772 643.995056,507.595337 643.995056,516.069946 
	C652.842651,516.069946 660.956299,516.069946 669.034973,516.034973 
	C669.000000,516.000000 668.930054,515.930054 668.962524,516.402161 
	C668.995056,524.799866 668.995056,532.725464 668.995056,541.069946 
	C695.313293,541.069946 721.191589,541.069946 747.033752,541.035034 
	C746.997559,541.000061 746.924194,540.931274 746.924194,540.931274 
	C746.924194,558.146912 746.924194,575.362549 746.924194,593.004639 
	C738.385986,593.004639 730.136475,593.004639 721.441528,592.568481 
	C720.996033,583.867371 720.996033,575.602478 720.996033,567.368164 
	C703.384766,567.368164 686.220276,567.368164 669.353394,567.368164 
	C669.353394,576.135437 669.353394,584.533020 669.353394,592.937317 
	C686.833557,592.937317 703.960388,592.937317 721.087219,592.937317 
M642.290405,567.003967 
	C616.881287,567.003967 591.472229,567.003967 566.364868,567.003967 
	C566.364868,593.463562 566.364868,619.203003 566.364868,644.631348 
	C592.468567,644.631348 618.206848,644.631348 643.999939,644.631348 
	C643.999939,619.597717 644.009277,594.932800 643.968384,570.267944 
	C643.966614,569.197021 643.503906,568.126892 642.290405,567.003967 
M433.500122,645.000000 
	C443.262939,645.000000 453.025787,645.000000 462.713013,645.000000 
	C462.713013,636.021240 462.713013,627.616760 462.713013,619.285522 
	C445.689178,619.285522 428.953827,619.285522 412.286957,619.285522 
	C412.286957,627.978638 412.286957,636.383118 412.286957,645.000000 
	C419.214996,645.000000 425.857574,645.000000 433.500122,645.000000 
z"/>
<path fill="#000000" opacity="1.000000" stroke="none" 
	d="
M720.925842,283.937042 
	C720.925842,292.419647 720.925842,300.902252 720.925842,309.785583 
	C712.425354,309.785583 704.012573,309.785583 695.203674,309.785583 
	C695.203674,318.248932 695.203674,326.327942 695.203674,334.803406 
	C686.406494,334.803406 677.994202,334.803406 669.293091,334.803406 
	C669.293091,343.603546 669.293091,352.010437 669.293091,360.821716 
	C677.607971,360.821716 686.021057,360.821716 694.828796,360.821716 
	C694.828796,369.619232 694.828796,378.031952 694.828796,386.719604 
	C703.629883,386.719604 712.036438,386.719604 720.847107,386.719604 
	C720.847107,378.365509 720.847107,369.952881 720.847107,361.274048 
	C729.648376,361.274048 738.054565,361.274048 746.864380,361.274048 
	C746.864380,369.658112 746.864380,378.068542 746.864380,386.875153 
	C755.331543,386.875153 763.409180,386.875153 771.739990,386.875153 
	C771.739990,404.012634 771.739990,420.751221 771.739990,437.745087 
	C754.976990,437.745087 738.238464,437.745087 721.097412,437.745087 
	C721.097412,429.637878 721.097412,421.558807 721.097412,412.993744 
	C703.758789,412.993744 686.816772,412.993744 669.437378,412.995728 
	C668.999878,412.997681 669.069946,413.069946 669.037476,412.597839 
	C669.004944,403.849518 669.004944,395.573364 669.004944,386.904663 
	C651.774292,386.904663 635.032043,386.904663 617.896973,386.904663 
	C617.896973,369.433167 617.896973,352.357666 617.896973,334.889954 
	C583.425598,334.889954 549.352539,334.889954 515.258545,334.889954 
	C515.258545,309.084320 515.258545,283.679565 515.258545,257.875519 
	C523.588623,257.875519 531.666321,257.875519 539.733154,257.875519 
	C539.733154,249.066330 539.733154,240.660294 539.733154,232.270630 
	C522.726379,232.270630 505.987793,232.270630 488.851379,232.270630 
	C488.851379,240.946701 488.851379,249.358719 488.851379,258.156860 
	C480.044830,258.156860 471.632263,258.156860 463.283020,258.156860 
	C463.283020,266.966858 463.283020,275.373108 463.283020,284.173401 
	C471.972107,284.173401 480.384979,284.173401 488.708740,284.173401 
	C488.708740,292.983795 488.708740,301.390228 488.708740,309.705811 
	C445.679047,309.705811 402.941223,309.705811 360.298309,309.705811 
	C360.298309,301.001801 360.298309,292.595001 360.298309,283.796021 
	C369.003784,283.796021 377.416199,283.796021 385.693451,283.796021 
	C385.693451,274.984924 385.693451,266.577667 385.693451,257.779816 
	C368.314178,257.779816 351.238678,257.779816 334.069946,257.779816 
	C334.069946,248.896530 334.069946,240.413300 334.034973,231.965027 
	C334.000000,232.000000 333.930054,232.069946 334.402161,232.037445 
	C343.234772,232.004944 351.595337,232.004944 360.069946,232.004944 
	C360.069946,223.157379 360.069946,215.043716 360.034973,206.965027 
	C360.000000,207.000000 359.930054,207.069946 360.402161,207.037445 
	C369.272858,207.026627 377.671387,207.048294 386.033752,207.035004 
	C385.997589,207.000031 385.924194,206.931229 385.924194,206.931229 
	C385.924194,215.066269 385.924194,223.201309 385.924194,231.668381 
	C411.601410,231.668381 437.077942,231.668381 463.006256,231.668381 
	C463.006256,223.731796 463.006256,215.803345 463.004333,207.437439 
	C463.002380,206.999985 462.930054,207.069946 463.402161,207.037445 
	C472.235626,207.004944 480.596924,207.004944 489.069946,207.004944 
	C489.069946,197.822540 489.069946,189.376297 489.034973,180.966232 
	C489.000031,181.002411 488.931213,181.075821 488.931213,181.075821 
	C497.414276,181.075821 505.897339,181.075821 514.781128,181.075821 
	C514.781128,189.569931 514.781128,197.982758 514.781128,206.695709 
	C523.246643,206.695709 531.320618,206.695709 539.799011,206.695709 
	C539.799011,198.414993 539.799011,190.002548 539.799011,181.298172 
	C548.598389,181.298172 557.005005,181.298172 565.815796,181.298172 
	C565.815796,197.943588 565.815796,214.685959 565.815796,231.826202 
	C574.612610,231.826202 583.025574,231.826202 591.833008,231.826202 
	C591.833008,240.623596 591.833008,249.036484 591.833008,257.721680 
	C600.634094,257.721680 609.040527,257.721680 617.850952,257.721680 
	C617.850952,249.361252 617.850952,240.948975 617.850952,232.272202 
	C626.652100,232.272202 635.057922,232.272202 643.867798,232.272202 
	C643.867798,240.661377 643.867798,249.072632 643.867798,257.739075 
	C652.336609,257.739075 660.409424,257.739075 668.885742,257.739075 
	C668.885742,249.324600 668.885742,240.913162 668.885742,232.254791 
	C677.688965,232.254791 686.093872,232.254791 694.902466,232.254791 
	C694.902466,249.365005 694.902466,266.440735 694.902466,284.006500 
	C703.571899,284.006500 711.848083,284.006500 720.561646,284.006104 
	C720.999023,284.005737 720.925842,283.937042 720.925842,283.937042 
M580.500000,284.000000 
	C567.071472,284.000000 553.642944,284.000000 540.287720,284.000000 
	C540.287720,292.979095 540.287720,301.384155 540.287720,309.714569 
	C566.310913,309.714569 592.045471,309.714569 617.712341,309.714569 
	C617.712341,301.020996 617.712341,292.615936 617.712341,284.000000 
	C605.450500,284.000000 593.475220,284.000000 580.500000,284.000000 
M662.423828,284.000000 
	C656.330811,284.000000 650.237793,284.000000 644.316162,284.000000 
	C644.316162,293.037537 644.316162,301.443909 644.316162,309.681763 
	C652.708496,309.681763 660.781616,309.681763 668.679199,309.681763 
	C668.679199,300.954742 668.679199,292.548798 668.679199,284.000000 
	C666.706299,284.000000 665.053467,284.000000 662.423828,284.000000 
z"/>
<path fill="#000000" opacity="1.000000" stroke="none" 
	d="
M668.965454,412.960999 
	C668.931091,421.060364 668.931091,429.196381 668.931091,437.865082 
	C652.052612,437.865082 635.219055,437.865082 617.994202,437.865082 
	C617.994202,455.306885 617.994202,472.218658 617.962646,489.603119 
	C617.931152,490.075806 618.000000,490.002380 617.562866,489.998718 
	C608.859070,489.995056 600.592468,489.995056 591.962830,489.995056 
	C591.962830,472.489838 591.962830,455.434723 591.962830,438.324829 
	C557.441284,438.324829 523.291687,438.324829 489.075867,438.324829 
	C489.075867,447.122528 489.075867,455.595795 488.603210,464.036957 
	C479.862122,464.004883 471.593689,464.004883 462.957764,464.004883 
	C462.957764,446.819611 462.957764,430.094604 462.957764,413.324585 
	C419.768616,413.324585 376.955811,413.324585 334.069061,413.324585 
	C334.069061,421.791168 334.069061,429.933502 333.597229,438.040588 
	C316.549225,438.005341 299.973022,438.005341 283.354187,438.005341 
	C283.354187,429.426605 283.354187,421.251404 283.354187,412.708313 
	C292.102081,412.708313 300.497864,412.708313 308.924133,412.708313 
	C308.924133,403.864777 308.924133,395.397858 309.396790,386.963043 
	C317.789642,386.995117 325.709900,386.995117 334.069946,386.995117 
	C334.069946,369.367554 334.069946,352.148804 334.034973,334.965027 
	C334.000000,335.000000 333.930054,335.069946 334.402191,335.037445 
	C368.794281,335.004944 402.714203,335.004944 436.790558,335.004944 
	C436.790558,343.826477 436.790558,352.226349 436.790558,361.179810 
	C411.074677,361.179810 385.562988,361.179810 360.363281,361.179810 
	C360.363281,370.141144 360.363281,378.546417 360.363281,386.672119 
	C403.439697,386.672119 446.152496,386.672119 489.255554,386.672119 
	C489.255554,377.940521 489.255554,369.532990 489.255554,361.320923 
	C498.054596,361.320923 506.457672,361.320923 515.241638,361.320923 
	C515.241638,370.045135 515.241638,378.452637 515.241638,387.079712 
	C523.778870,387.079712 531.923767,387.079712 540.034302,387.043030 
	C539.999939,387.006348 539.926758,386.937531 539.960815,387.409058 
	C539.994812,396.144043 539.994812,404.407562 539.994812,413.069946 
	C583.327087,413.069946 626.198486,413.069946 669.069946,413.069946 
	C669.069946,413.069946 668.999878,412.997681 668.965454,412.960999 
z"/>
<path fill="#020202" opacity="1.000000" stroke="none" 
	d="
M753.998840,26.322948 
	C760.139771,26.322952 765.781128,26.322952 771.781006,26.322952 
	C771.781006,86.283081 771.781006,145.957703 771.781006,205.911072 
	C712.144104,205.911072 652.440796,205.911072 592.452209,205.911072 
	C592.452209,146.298477 592.452209,86.735306 592.452209,26.322943 
	C646.083069,26.322943 699.791199,26.322943 753.998840,26.322948 
M716.500000,51.998699 
	C683.752319,51.998699 651.004639,51.998699 618.345825,51.998699 
	C618.345825,95.228996 618.345825,137.924255 618.345825,180.602722 
	C661.268799,180.602722 703.844360,180.602722 746.662109,180.602722 
	C746.662109,137.681808 746.662109,94.992546 746.662109,51.998699 
	C736.764404,51.998699 727.132202,51.998699 716.500000,51.998699 
z"/>
<path fill="#010101" opacity="1.000000" stroke="none" 
	d="
M77.999924,206.187180 
	C60.374752,206.187180 43.249580,206.187180 25.896391,206.187180 
	C25.896391,146.186066 25.896391,86.597092 25.896391,26.666588 
	C85.555702,26.666588 145.114105,26.666588 205.009521,26.666588 
	C205.009521,86.279999 205.009521,145.865967 205.009521,206.187180 
	C162.992661,206.187180 120.746292,206.187180 77.999924,206.187180 
M180.002808,84.500000 
	C180.002808,73.735229 180.002808,62.970455 180.002808,52.394859 
	C136.712082,52.394859 93.999115,52.394859 51.486279,52.394859 
	C51.486279,95.379433 51.486279,137.965805 51.486279,180.603989 
	C94.401276,180.603989 136.993301,180.603989 180.002808,180.603989 
	C180.002808,148.749023 180.002808,117.124512 180.002808,84.500000 
z"/>
<path fill="#010101" opacity="1.000000" stroke="none" 
	d="
M136.000000,593.000427 
	C159.296082,593.000427 182.092163,593.000427 205.115082,593.000427 
	C205.115082,653.092957 205.115082,712.822144 205.115082,772.814209 
	C145.497543,772.814209 85.916855,772.814209 26.001446,772.814209 
	C26.001446,713.126404 26.001446,653.404907 26.001446,593.000427 
	C62.350288,593.000427 98.925140,593.000427 136.000000,593.000427 
M146.499847,747.707275 
	C157.603363,747.707275 168.706894,747.707275 179.628082,747.707275 
	C179.628082,704.345886 179.628082,661.625732 179.628082,619.152588 
	C136.663315,619.152588 94.076256,619.152588 51.405384,619.152588 
	C51.405384,662.058716 51.405384,704.637085 51.405384,747.707275 
	C82.931938,747.707275 114.215889,747.707275 146.499847,747.707275 
z"/>
<path fill="#000000" opacity="1.000000" stroke="none" 
	d="
M231.075821,413.068787 
	C231.075821,387.285309 231.075821,361.501862 231.075821,335.156799 
	C239.574905,335.156799 248.102539,335.156799 256.806946,335.156799 
	C256.806946,326.533752 256.806946,318.472229 256.806946,310.025452 
	C248.229141,310.025452 239.827103,310.025452 231.050781,310.025452 
	C231.050781,301.251434 231.050781,292.849457 231.050781,283.993439 
	C222.740860,283.993439 214.807877,283.993439 206.437469,283.993469 
	C206.000061,283.993500 206.073257,284.062195 206.073257,284.062195 
	C206.073257,275.589661 206.073257,267.117157 206.073257,258.259430 
	C197.470078,258.259430 189.067886,258.259430 180.335022,258.259430 
	C180.335022,249.489105 180.335022,241.090454 180.335022,232.006287 
	C222.776596,232.006287 265.450867,232.006287 308.562561,232.004349 
	C309.000000,232.002411 308.930054,231.930054 308.962585,232.402130 
	C308.995087,241.138779 308.995087,249.403366 308.995087,258.043701 
	C300.155365,258.043701 291.754517,258.043701 283.358246,258.043701 
	C283.358246,275.595612 283.358246,292.761719 283.358246,310.288757 
	C300.433746,310.288757 317.152008,310.288757 333.930054,310.288757 
	C333.930054,318.792786 333.930054,326.931366 333.930054,335.069946 
	C333.930054,335.069946 334.000000,335.000000 333.562836,334.997528 
	C316.445892,334.995056 299.766113,334.995056 283.069061,334.995056 
	C283.069061,344.156921 283.069061,352.616364 282.597229,361.040588 
	C273.868011,361.005341 265.610596,361.005341 256.841461,361.005341 
	C256.841461,378.583008 256.841461,395.740448 256.841461,412.930054 
	C247.858292,412.930054 239.394165,412.930054 230.966232,412.965027 
	C231.002411,412.999969 231.075821,413.068787 231.075821,413.068787 
z"/>
<path fill="#000000" opacity="1.000000" stroke="none" 
	d="
M127.924171,334.931213 
	C127.924171,352.067474 127.924171,369.203705 127.924171,386.721313 
	C111.145393,386.721313 94.416481,386.721313 77.297668,386.721313 
	C77.297668,395.489075 77.297668,403.894470 77.297668,412.648590 
	C68.519821,412.648590 60.116711,412.648590 51.320236,412.648590 
	C51.320236,404.530243 51.320236,396.124817 51.320236,387.329010 
	C42.544254,387.329010 34.138325,387.329010 25.367468,387.329010 
	C25.367468,361.437866 25.367468,335.934875 25.367468,310.038757 
	C33.758732,310.038757 42.165138,310.038757 50.952072,310.038757 
	C50.952072,301.254456 50.952072,292.848114 50.952072,284.006256 
	C67.934624,284.006256 84.529877,284.006256 101.562576,284.004333 
	C102.000015,284.002380 101.930061,283.930054 101.962555,284.402191 
	C101.995049,301.553162 101.995049,318.232025 101.995049,335.069946 
	C111.152962,335.069946 119.611458,335.069946 128.033752,335.034973 
	C127.997574,335.000031 127.924171,334.931213 127.924171,334.931213 
z"/>
<path fill="#000000" opacity="1.000000" stroke="none" 
	d="
M205.924225,540.931213 
	C205.924225,549.400757 205.924225,557.870361 205.924225,566.669373 
	C188.825821,566.669373 171.779190,566.669373 154.194183,566.669373 
	C154.194183,550.114624 154.194183,533.277954 154.194183,515.993408 
	C145.401077,515.993408 137.138031,515.993408 128.437576,515.993408 
	C128.000168,515.993408 128.073364,516.062134 128.073364,516.062134 
	C128.073364,498.845184 128.073364,481.628265 128.073364,463.993469 
	C119.377914,463.993469 111.126457,463.993469 102.437576,463.993561 
	C102.000168,463.993652 102.073364,464.062378 102.073364,464.062378 
	C102.073364,447.270020 102.073364,430.477692 102.073364,413.343201 
	C110.492188,413.343201 118.889801,413.343201 127.674973,413.343201 
	C127.674973,421.131226 127.674973,429.198944 127.674973,438.006256 
	C153.744080,438.006256 179.434601,438.006256 205.562561,438.004333 
	C206.000015,438.002380 205.930054,437.930054 205.962555,438.402161 
	C205.995056,447.138947 205.995056,455.403656 205.995056,464.026306 
	C188.499008,464.026306 171.447632,464.026306 154.359055,464.026306 
	C154.359055,472.908600 154.359055,481.421051 154.359055,490.290039 
	C171.768448,490.290039 188.819733,490.290039 205.930054,490.290039 
	C205.930054,499.126801 205.930054,507.598389 205.965027,516.034973 
	C206.000000,516.000000 206.069946,515.930054 205.597870,515.962524 
	C196.875290,515.995056 188.624786,515.995056 180.349121,515.995056 
	C180.349121,524.582764 180.349121,532.748108 180.349121,541.069946 
	C189.155289,541.069946 197.612610,541.069946 206.033783,541.035034 
	C205.997635,541.000061 205.924225,540.931213 205.924225,540.931213 
z"/>
<path fill="#000000" opacity="1.000000" stroke="none" 
	d="
M308.924194,747.931152 
	C308.924194,756.073120 308.924194,764.215027 308.924194,772.677795 
	C283.137878,772.677795 257.423157,772.677795 231.354401,772.677795 
	C231.354401,730.432251 231.354401,687.950195 231.354401,645.006287 
	C239.588348,645.006287 247.856735,645.006287 256.562561,645.004272 
	C257.000031,645.002258 256.930054,644.930054 256.962585,645.402161 
	C256.995087,653.804810 256.995087,661.735413 256.995087,670.039062 
	C265.840546,670.039062 274.239899,670.039062 283.143433,670.039062 
	C283.143433,696.235352 283.143433,722.055237 283.143433,748.069946 
	C292.129547,748.069946 300.599762,748.069946 309.033783,748.034973 
	C308.997620,748.000000 308.924194,747.931152 308.924194,747.931152 
z"/>
<path fill="#000000" opacity="1.000000" stroke="none" 
	d="
M333.965515,618.961060 
	C333.951965,627.324646 333.972839,635.724915 333.995728,644.562622 
	C333.997681,645.000122 334.069946,644.930054 333.597839,644.962585 
	C307.727203,644.973450 282.328613,644.951782 256.930054,644.930054 
	C256.930054,644.930054 257.000031,645.002258 257.034424,645.038940 
	C257.068848,636.604431 257.068848,628.133179 257.068848,619.280518 
	C248.490173,619.280518 240.090958,619.280518 231.175049,619.280518 
	C231.175049,593.086121 231.175049,567.264893 231.175049,540.994202 
	C222.732605,540.994202 214.801086,540.994202 206.396896,540.962708 
	C205.924225,540.931213 205.997635,541.000061 206.001282,540.562866 
	C206.026611,532.060486 206.048279,523.995300 206.069946,515.930054 
	C206.069946,515.930054 206.000000,516.000000 206.437149,516.002441 
	C232.274811,515.980347 257.675323,515.955688 283.040588,516.402832 
	C283.005341,524.807617 283.005341,532.740601 283.005341,541.050293 
	C274.149170,541.050293 265.747192,541.050293 257.365753,541.050293 
	C257.365753,558.606323 257.365753,575.774841 257.365753,593.322998 
	C266.131683,593.322998 274.533356,593.322998 283.299408,593.322998 
	C283.299408,602.107422 283.299408,610.507202 283.299408,619.069946 
	C300.479370,619.069946 317.274658,619.069946 334.069946,619.069946 
	C334.069946,619.069946 333.999939,618.997742 333.965515,618.961060 
z"/>
<path fill="#000000" opacity="1.000000" stroke="none" 
	d="
M489.072998,155.062134 
	C489.072998,137.848129 489.072998,120.634132 489.072998,102.995323 
	C497.615173,102.995323 505.864166,102.995323 514.558594,103.431381 
	C515.003967,112.125679 515.003967,120.383919 515.003967,128.631989 
	C523.605286,128.631989 531.777588,128.631989 539.656616,128.631989 
	C539.656616,119.871651 539.656616,111.480965 539.656616,103.062317 
	C531.179993,103.062317 523.046448,103.062317 514.912903,103.062317 
	C514.912903,94.939339 514.912903,86.816353 514.912903,78.155281 
	C523.251160,78.155281 531.429382,78.155281 540.006592,78.155281 
	C540.006592,69.373955 540.006592,61.124397 540.006592,52.437435 
	C540.006592,52.000027 539.937866,52.073208 539.937866,52.073208 
	C548.410400,52.073208 556.882874,52.073208 565.677063,52.073208 
	C565.677063,86.298355 565.677063,120.447716 565.677063,154.993423 
	C540.363892,154.993423 515.119324,154.993423 489.437286,154.993408 
	C488.999847,154.993408 489.072998,155.062134 489.072998,155.062134 
z"/>
<path fill="#000000" opacity="1.000000" stroke="none" 
	d="
M102.034424,284.039062 
	C102.068825,275.598480 102.068825,267.121155 102.068825,258.274170 
	C76.472092,258.274170 51.085266,258.274170 25.350161,258.274170 
	C25.350161,249.517365 25.350161,241.114594 25.350161,232.355316 
	C67.905617,232.355316 110.727280,232.355316 153.993713,232.355316 
	C153.993713,249.269455 153.993713,266.197296 153.995667,283.562561 
	C153.997635,284.000000 154.069946,283.930054 153.597824,283.962555 
	C136.060486,283.973389 118.995277,283.951721 101.930061,283.930054 
	C101.930061,283.930054 102.000015,284.002380 102.034424,284.039062 
z"/>
<path fill="#000000" opacity="1.000000" stroke="none" 
	d="
M101.965889,463.956970 
	C101.931610,472.398926 101.931610,480.877563 101.931610,489.740295 
	C85.127266,489.740295 68.396240,489.740295 51.291176,489.740295 
	C51.291176,515.508789 51.291176,540.899353 51.291176,566.644104 
	C42.528221,566.644104 34.123856,566.644104 25.359272,566.644104 
	C25.359272,524.096130 25.359272,481.268372 25.359272,438.220276 
	C33.753872,438.220276 42.153236,438.220276 50.946587,438.220276 
	C50.946587,446.744446 50.946587,455.150635 50.946587,464.005402 
	C67.933052,464.005402 84.530739,464.005402 101.600899,464.033875 
	C102.073364,464.062378 102.000168,463.993652 101.965889,463.956970 
z"/>
<path fill="#000000" opacity="1.000000" stroke="none" 
	d="
M333.924194,669.931152 
	C333.924194,678.406433 333.924194,686.881714 333.924194,695.720459 
	C359.857971,695.720459 385.573944,695.720459 411.644104,695.720459 
	C411.644104,704.469299 411.644104,712.871216 411.644104,721.840698 
	C403.428619,721.840698 394.898895,721.840698 385.996338,721.840698 
	C385.996338,730.799438 385.996338,739.204346 385.996338,747.798157 
	C377.210815,747.798157 368.814026,747.798157 360.027740,747.798157 
	C360.027740,739.228149 360.027740,730.824280 360.027740,722.214783 
	C351.242767,722.214783 342.845551,722.214783 334.058105,722.214783 
	C334.058105,730.737244 334.058105,739.140686 334.058105,747.994202 
	C325.741516,747.994202 317.805542,747.994202 309.396881,747.962646 
	C308.924194,747.931152 308.997620,748.000000 309.001282,747.562866 
	C309.004944,721.455139 309.004944,695.784607 309.004944,670.069946 
	C317.805542,670.069946 325.937744,670.069946 334.033783,670.034973 
	C333.997620,670.000000 333.924194,669.931152 333.924194,669.931152 
z"/>
<path fill="#000000" opacity="1.000000" stroke="none" 
	d="
M747.062317,721.926758 
	C738.586670,721.926758 730.111023,721.926758 721.256836,721.926758 
	C721.256836,738.873962 721.256836,755.601318 721.256836,772.663208 
	C695.497803,772.663208 670.113098,772.663208 644.364380,772.663208 
	C644.364380,764.757874 644.364380,756.574036 644.364380,747.994629 
	C652.470947,747.994629 660.544006,747.994629 668.994812,747.994629 
	C668.994812,739.209290 668.994812,730.804321 668.994812,722.020020 
	C677.779358,722.020020 686.184265,722.020020 694.968994,722.020020 
	C694.968994,713.235718 694.968994,704.830933 694.968994,696.218506 
	C712.415466,696.218506 729.472412,696.218506 746.993408,696.218506 
	C746.993408,704.586426 746.993408,712.855774 746.993530,721.562500 
	C746.993591,721.999878 747.062317,721.926758 747.062317,721.926758 
z"/>
<path fill="#000000" opacity="1.000000" stroke="none" 
	d="
M309.068787,206.924179 
	C300.595886,206.924179 292.122986,206.924179 283.325684,206.924179 
	C283.325684,189.808884 283.325684,172.755844 283.325684,155.351379 
	C317.240021,155.351379 351.388763,155.351379 385.993744,155.351379 
	C385.993744,163.592545 385.993744,171.858826 385.995667,180.562561 
	C385.997620,181.000015 386.069946,180.930054 385.597839,180.962555 
	C376.764435,180.995056 368.403107,180.995056 359.930054,180.995056 
	C359.930054,190.177475 359.930054,198.623718 359.930054,207.069946 
	C359.930054,207.069946 360.000000,207.000000 359.562866,206.997528 
	C350.727142,206.973389 342.328613,206.951721 333.965027,206.965027 
	C334.000000,207.000000 334.069946,207.069946 334.037415,206.597870 
	C334.004913,197.875290 334.004913,189.624786 334.004913,181.349121 
	C325.417572,181.349121 317.251892,181.349121 308.930054,181.349121 
	C308.930054,190.155289 308.930054,198.612610 308.965027,207.033768 
	C308.999969,206.997589 309.068787,206.924179 309.068787,206.924179 
z"/>
<path fill="#000000" opacity="1.000000" stroke="none" 
	d="
M282.999054,89.000000 
	C282.999054,102.473717 282.999054,115.447426 282.999054,128.709595 
	C265.720490,128.709595 248.652634,128.709595 231.292114,128.709595 
	C231.292114,120.391182 231.292114,111.987007 231.292114,103.181808 
	C239.609924,103.181808 248.019897,103.181808 256.712585,103.181808 
	C256.712585,94.720543 256.712585,86.649132 256.712585,78.176727 
	C248.388779,78.176727 239.978638,78.176727 231.287674,78.176727 
	C231.287674,69.381996 231.287674,60.977955 231.287674,52.172943 
	C239.618576,52.172943 248.029160,52.172943 256.831085,52.172943 
	C256.831085,43.380962 256.831085,34.970577 256.831085,26.283777 
	C265.626068,26.283777 274.030060,26.283777 282.999054,26.283777 
	C282.999054,46.984962 282.999054,67.742485 282.999054,89.000000 
z"/>
<path fill="#000000" opacity="1.000000" stroke="none" 
	d="
M463.251434,154.722641 
	C454.644623,154.722641 446.037811,154.722641 437.037598,154.722641 
	C437.037598,146.241165 437.037598,137.832535 437.037598,129.054138 
	C411.253510,129.054138 385.859650,129.054138 360.234924,129.054138 
	C360.234924,120.275002 360.234924,111.874519 360.234924,103.077812 
	C368.717865,103.077812 377.125824,103.077812 386.006531,103.077812 
	C386.006531,94.753273 386.006531,86.814133 386.006439,78.437576 
	C386.006348,78.000168 385.937622,78.073364 385.937622,78.073364 
	C394.333313,78.051094 402.729004,78.028824 411.562073,78.006279 
	C411.999481,78.006012 411.926270,77.937309 411.926270,77.937309 
	C411.926270,86.086853 411.926270,94.236404 411.926270,102.785988 
	C428.909485,102.785988 445.651978,102.785988 463.007324,102.785988 
	C463.007324,120.106300 463.007324,137.032532 463.092987,154.381866 
	C463.178650,154.804962 463.251434,154.722641 463.251434,154.722641 
z"/>
<path fill="#000000" opacity="1.000000" stroke="none" 
	d="
M644.034546,490.039001 
	C644.068909,481.603668 644.068909,473.131653 644.068909,464.330444 
	C660.845032,464.330444 677.562134,464.330444 694.840088,464.330444 
	C694.840088,472.572327 694.840088,481.098694 694.840088,489.973694 
	C712.445801,489.973694 729.497070,489.973694 746.993713,489.973694 
	C746.993713,498.596130 746.993713,506.860626 746.995667,515.562500 
	C746.997620,515.999939 747.069946,515.930054 746.597900,515.962524 
	C720.393860,515.973328 694.661987,515.951660 668.930054,515.930054 
	C668.930054,515.930054 669.000000,516.000000 669.002502,515.562866 
	C669.005005,506.765198 669.005005,498.404633 669.005005,489.930054 
	C660.157349,489.930054 652.043701,489.930054 643.930054,489.930054 
	C643.930054,489.930054 644.000122,490.002319 644.034546,490.039001 
z"/>
<path fill="#000000" opacity="1.000000" stroke="none" 
	d="
M463.073669,748.062683 
	C463.055725,730.946594 463.037781,713.830566 463.136108,696.218140 
	C463.252380,695.721802 463.179596,695.804138 463.148865,695.838928 
	C471.581665,695.873718 480.045197,695.873718 488.905396,695.873718 
	C488.905396,704.698975 488.905396,713.110168 488.905396,721.910645 
	C514.705383,721.910645 540.110291,721.910645 565.755615,721.910645 
	C565.755615,730.709412 565.755615,739.113525 565.755615,747.993469 
	C531.749756,747.993469 497.812531,747.993469 463.437897,747.993774 
	C463.000488,747.994019 463.073669,748.062683 463.073669,748.062683 
z"/>
<path fill="#000000" opacity="1.000000" stroke="none" 
	d="
M412.033752,78.042671 
	C412.068054,60.945595 412.068054,43.811859 412.068054,26.339611 
	C420.169617,26.339611 428.237518,26.339611 436.696350,26.339611 
	C436.696350,34.489048 436.696350,42.891178 436.696350,51.845383 
	C454.250061,51.845383 471.430267,51.845383 488.800537,51.845383 
	C488.800537,60.793827 488.800537,69.190292 488.800537,77.994568 
	C463.370209,77.994568 438.120758,77.994568 412.398804,77.965942 
	C411.926270,77.937309 411.999481,78.006012 412.033752,78.042671 
z"/>
<path fill="#000000" opacity="1.000000" stroke="none" 
	d="
M386.043030,77.965889 
	C368.945801,77.931610 351.811920,77.931610 334.289307,77.931610 
	C334.289307,86.164398 334.289307,94.235474 334.289307,102.651588 
	C325.848846,102.651588 317.780518,102.651588 309.355530,102.651588 
	C309.355530,86.079239 309.355530,69.239494 309.355530,52.199196 
	C334.777161,52.199196 360.156525,52.199196 385.994598,52.199196 
	C385.994598,60.591797 385.994598,68.860123 385.966125,77.600906 
	C385.937622,78.073364 386.006348,78.000168 386.043030,77.965889 
z"/>
<path fill="#000000" opacity="1.000000" stroke="none" 
	d="
M127.965889,515.956726 
	C127.931610,532.717957 127.931610,549.515869 127.931610,566.656372 
	C111.178368,566.656372 94.457474,566.656372 77.368393,566.656372 
	C77.368393,550.106323 77.368393,533.269714 77.368393,516.005371 
	C93.950470,516.005371 110.539452,516.005371 127.600899,516.033752 
	C128.073364,516.062134 128.000168,515.993408 127.965889,515.956726 
z"/>
<path fill="#000000" opacity="1.000000" stroke="none" 
	d="
M206.062134,412.927002 
	C188.940979,412.927002 171.819839,412.927002 154.349854,412.927002 
	C154.349854,404.523865 154.349854,396.127716 154.349854,387.365387 
	C171.222504,387.365387 188.384842,387.365387 205.993408,387.365387 
	C205.993408,395.600006 205.993408,403.862640 205.993408,412.562744 
	C205.993408,413.000153 206.062134,412.927002 206.062134,412.927002 
z"/>
<path fill="#000000" opacity="1.000000" stroke="none" 
	d="
M153.937866,335.072998 
	C171.059021,335.072998 188.180161,335.072998 205.650146,335.072998 
	C205.650146,343.476135 205.650146,351.872284 205.650146,360.634613 
	C188.777496,360.634613 171.615158,360.634613 154.006592,360.634613 
	C154.006592,352.399994 154.006592,344.137360 154.006592,335.437256 
	C154.006592,334.999847 153.937866,335.072998 153.937866,335.072998 
z"/>
<path fill="#000000" opacity="1.000000" stroke="none" 
	d="
M721.033325,284.042389 
	C721.067627,266.954559 721.067627,249.830109 721.067627,232.353333 
	C729.469604,232.353333 737.866455,232.353333 746.632019,232.353333 
	C746.632019,249.220428 746.632019,266.383911 746.632019,283.994568 
	C738.398682,283.994568 730.134888,283.994568 721.398438,283.965820 
	C720.925842,283.937042 720.999023,284.005737 721.033325,284.042389 
z"/>
<path fill="#000000" opacity="1.000000" stroke="none" 
	d="
M251.890198,206.999023 
	C244.766113,206.999023 238.132156,206.999023 231.251648,206.999023 
	C231.251648,189.639938 231.251648,172.571136 231.251648,155.251068 
	C239.694839,155.251068 248.098663,155.251068 256.751831,155.251068 
	C256.751831,172.366959 256.751831,189.435577 256.751831,206.999023 
	C255.264206,206.999023 253.822266,206.999023 251.890198,206.999023 
z"/>
<path fill="#000000" opacity="1.000000" stroke="none" 
	d="
M205.965790,283.956848 
	C205.931503,292.380371 205.931503,300.840546 205.931503,309.993744 
	C188.900497,309.993744 171.887695,309.993744 154.437439,309.995667 
	C153.999985,309.997620 154.069946,310.069946 154.037445,309.597870 
	C154.026611,300.727203 154.048279,292.328644 154.069946,283.930054 
	C154.069946,283.930054 153.997635,284.000000 153.960922,284.034424 
	C170.992264,284.047668 188.060303,284.026550 205.600800,284.033813 
	C206.073257,284.062195 206.000061,283.993500 205.965790,283.956848 
z"/>
<path fill="#000000" opacity="1.000000" stroke="none" 
	d="
M462.966187,747.957336 
	C462.931915,756.058716 462.931915,764.196716 462.931915,772.666809 
	C446.163971,772.666809 429.450043,772.666809 412.368164,772.666809 
	C412.368164,764.770203 412.368164,756.592468 412.368164,748.005371 
	C428.964447,748.005371 445.546539,748.005371 462.601135,748.034058 
	C463.073669,748.062683 463.000488,747.994019 462.966187,747.957336 
z"/>
<path fill="#000000" opacity="1.000000" stroke="none" 
	d="
M385.960938,181.034424 
	C394.382812,181.068817 402.841400,181.068817 411.649475,181.068817 
	C411.649475,189.585327 411.649475,198.083984 411.649475,206.994186 
	C403.372864,206.994186 395.121216,206.994186 386.396851,206.962708 
	C385.924194,206.931229 385.997589,207.000031 386.001282,206.562866 
	C386.026611,197.727158 386.048279,189.328613 386.069946,180.930054 
	C386.069946,180.930054 385.997620,181.000015 385.960938,181.034424 
z"/>
<path fill="#000000" opacity="1.000000" stroke="none" 
	d="
M463.039062,206.965576 
	C454.617584,206.931183 446.159393,206.931183 437.351135,206.931183 
	C437.351135,198.416428 437.351135,189.918167 437.351135,181.006287 
	C445.623596,181.006287 453.874359,181.006287 462.562561,181.004333 
	C463.000000,181.002365 462.930054,180.930054 462.962555,181.402130 
	C462.973389,190.272781 462.951721,198.671371 462.930054,207.069946 
	C462.930054,207.069946 463.002380,206.999985 463.039062,206.965576 
z"/>
<path fill="#000000" opacity="1.000000" stroke="none" 
	d="
M488.965576,154.956757 
	C488.952240,163.323547 488.973206,171.727005 488.962708,180.603149 
	C488.931213,181.075821 489.000031,181.002411 488.562866,180.998734 
	C479.727142,180.973389 471.328613,180.951721 462.930054,180.930054 
	C462.930054,180.930054 463.000000,181.002365 463.034424,181.039078 
	C463.052460,172.622253 463.036102,164.168716 463.135590,155.218903 
	C463.251434,154.722641 463.178650,154.804962 463.147888,154.839752 
	C471.454132,154.918152 479.791138,154.961761 488.600586,155.033752 
	C489.072998,155.062134 488.999847,154.993408 488.965576,154.956757 
z"/>
<path fill="#000000" opacity="1.000000" stroke="none" 
	d="
M333.960999,645.034546 
	C342.382568,645.068909 350.840820,645.068909 359.648987,645.068909 
	C359.648987,653.251343 359.648987,661.417358 359.648987,669.994202 
	C351.372223,669.994202 343.120880,669.994202 334.396881,669.962646 
	C333.924194,669.931152 333.997620,670.000000 334.001282,669.562866 
	C334.026581,661.060486 334.048248,652.995300 334.069946,644.930054 
	C334.069946,644.930054 333.997681,645.000122 333.960999,645.034546 
z"/>
<path fill="#000000" opacity="1.000000" stroke="none" 
	d="
M540.043274,51.965744 
	C531.948303,51.931458 523.816650,51.931458 515.343018,51.931458 
	C515.343018,43.516308 515.343018,35.126862 515.343018,26.368420 
	C523.222717,26.368420 531.394043,26.368420 539.994629,26.368420 
	C539.994629,34.614895 539.994629,42.871605 539.966248,51.600761 
	C539.937866,52.073208 540.006592,52.000027 540.043274,51.965744 
z"/>
<path fill="#000000" opacity="1.000000" stroke="none" 
	d="
M746.956909,722.034180 
	C755.051880,722.068481 763.183472,722.068481 771.656982,722.068481 
	C771.656982,730.483826 771.656982,738.873230 771.656982,747.631653 
	C763.777222,747.631653 755.605896,747.631653 747.005371,747.631653 
	C747.005371,739.385071 747.005371,731.128418 747.033813,722.399231 
	C747.062317,721.926758 746.993591,721.999878 746.956909,722.034180 
z"/>
<path fill="#000000" opacity="1.000000" stroke="none" 
	d="
M617.999084,756.051025 
	C617.999084,761.847717 617.999084,767.152954 617.999084,772.727539 
	C609.351013,772.727539 600.947327,772.727539 592.271118,772.727539 
	C592.271118,764.681458 592.271118,756.611389 592.271118,748.269531 
	C600.655090,748.269531 609.058655,748.269531 617.999084,748.269531 
	C617.999084,750.686096 617.999084,753.122864 617.999084,756.051025 
z"/>
<path fill="#000000" opacity="1.000000" stroke="none" 
	d="
M154.043243,334.965576 
	C145.676453,334.952240 137.272995,334.973206 128.396851,334.962708 
	C127.924171,334.931213 127.997574,335.000031 128.001251,334.562866 
	C128.004944,326.097076 128.004944,318.068481 128.004944,310.069946 
	C137.179550,310.069946 145.624741,310.069946 154.069946,310.069946 
	C154.069946,310.069946 153.999985,309.997620 153.965591,309.960907 
	C153.952332,317.992188 153.973465,326.060150 153.966232,334.600586 
	C153.937866,335.072998 154.006592,334.999847 154.043243,334.965576 
z"/>
<path fill="#000000" opacity="1.000000" stroke="none" 
	d="
M309.034424,232.039093 
	C309.047821,224.007034 309.026825,215.938293 309.037292,207.396851 
	C309.068787,206.924179 308.999969,206.997589 309.437134,207.001266 
	C317.939514,207.026611 326.004730,207.048279 334.069946,207.069946 
	C334.069946,207.069946 334.000000,207.000000 333.997528,207.437134 
	C333.973389,215.939499 333.951721,224.004730 333.930054,232.069946 
	C333.930054,232.069946 334.000000,232.000000 333.562866,231.997528 
	C325.060486,231.973404 316.995270,231.951736 308.930054,231.930054 
	C308.930054,231.930054 309.000000,232.002411 309.034424,232.039093 
z"/>
<path fill="#000000" opacity="1.000000" stroke="none" 
	d="
M746.960938,516.034363 
	C755.049438,516.068787 763.174683,516.068787 771.649475,516.068787 
	C771.649475,524.251648 771.649475,532.416992 771.649475,540.994202 
	C763.706421,540.994202 755.788025,540.994202 747.396851,540.962769 
	C746.924194,540.931274 746.997559,541.000061 747.001221,540.562866 
	C747.026550,532.060486 747.048218,523.995300 747.069946,515.930054 
	C747.069946,515.930054 746.997620,515.999939 746.960938,516.034363 
z"/>
<path fill="#000000" opacity="1.000000" stroke="none" 
	d="
M771.595947,334.604919 
	C763.298035,334.942657 755.345215,334.942657 747.202271,334.942657 
	C747.202271,326.532318 747.202271,318.462067 747.202271,310.205383 
	C755.474121,310.205383 763.544312,310.205383 771.941162,310.205383 
	C771.941162,318.358704 771.941162,326.312958 771.595947,334.604919 
z"/>
<path fill="#000000" opacity="1.000000" stroke="none" 
	d="
M205.956757,413.034424 
	C213.990219,413.047729 222.060333,413.026764 230.603149,413.037292 
	C231.075821,413.068787 231.002411,412.999969 230.998734,413.437134 
	C230.970215,421.938995 230.945389,430.003693 230.957214,438.034058 
	C230.993896,437.999725 231.062698,437.926514 230.591202,437.960693 
	C222.056488,437.973267 213.993271,437.951660 205.930054,437.930054 
	C205.930054,437.930054 206.000015,438.002380 206.034393,438.039093 
	C206.047653,430.007812 206.026520,421.939850 206.033752,413.399414 
	C206.062134,412.927002 205.993408,413.000153 205.956757,413.034424 
z"/>
<path fill="#FFFFFF" opacity="1.000000" stroke="none" 
	d="
M489.075867,464.069031 
	C489.075867,455.595795 489.075867,447.122528 489.075867,438.324829 
	C523.291687,438.324829 557.441284,438.324829 591.962830,438.324829 
	C591.962830,455.434723 591.962830,472.489838 591.962830,489.995056 
	C600.592468,489.995056 608.859070,489.995056 617.597839,489.962555 
	C618.069946,498.401215 618.069946,506.872406 618.069946,515.994629 
	C575.202820,515.994629 532.538696,515.994629 489.437195,515.996216 
	C488.999817,515.997742 489.069946,516.069946 489.037476,515.597839 
	C489.026642,506.727173 489.048309,498.328613 489.034973,489.965027 
	C489.000000,490.000000 488.930054,490.069946 489.402161,490.037415 
	C506.451874,490.004913 523.029480,490.004913 539.643799,490.004913 
	C539.643799,481.089142 539.643799,472.580841 539.643799,463.930054 
	C522.501831,463.930054 505.715942,463.930054 488.966248,463.965088 
	C489.002441,464.000092 489.075867,464.069031 489.075867,464.069031 
z"/>
<path fill="#FFFFFF" opacity="1.000000" stroke="none" 
	d="
M334.037415,618.597900 
	C317.274658,619.069946 300.479370,619.069946 283.299408,619.069946 
	C283.299408,610.507202 283.299408,602.107422 283.299408,593.322998 
	C274.533356,593.322998 266.131683,593.322998 257.365753,593.322998 
	C257.365753,575.774841 257.365753,558.606323 257.365753,541.050293 
	C265.747192,541.050293 274.149170,541.050293 283.005341,541.050293 
	C283.005341,532.740601 283.005341,524.807617 283.003845,516.437317 
	C283.002380,515.999939 282.930054,516.069946 283.402161,516.037476 
	C292.131317,516.004944 300.388336,516.004944 309.010864,516.004944 
	C309.010864,524.481018 309.010864,532.540649 309.010864,540.924194 
	C326.277008,540.924194 343.173004,540.924194 360.036957,541.396851 
	C360.004883,550.231995 360.004883,558.594482 360.004883,567.069946 
	C369.176331,567.069946 377.623138,567.069946 386.033783,567.034912 
	C385.997620,566.999939 385.924164,566.930969 385.924164,566.930969 
	C385.924164,575.388977 385.924164,583.846985 385.924164,593.005188 
	C368.900757,593.005188 351.890656,593.005188 334.438049,592.566772 
	C333.995514,583.871216 333.995514,575.614014 333.995514,567.367310 
	C325.393768,567.367310 317.222351,567.367310 309.341827,567.367310 
	C309.341827,576.126221 309.341827,584.516296 309.341827,592.931396 
	C317.815582,592.931396 325.947632,592.931396 334.079712,592.931396 
	C334.054779,601.329529 334.029846,609.727661 334.037415,618.597900 
z"/>
<path fill="#FFFFFF" opacity="1.000000" stroke="none" 
	d="
M488.965332,515.961060 
	C488.930878,524.069031 488.930878,532.213745 488.930878,540.749756 
	C480.461029,540.749756 472.054535,540.749756 463.325989,540.749756 
	C463.325989,549.530823 463.325989,557.933228 463.325989,566.669067 
	C480.185791,566.669067 497.247009,566.669067 514.701233,566.669067 
	C514.701233,558.510925 514.701233,550.104431 514.701233,541.350220 
	C523.146729,541.350220 531.217529,541.350220 539.645203,541.350220 
	C539.645203,558.257324 539.645203,575.434814 539.645203,593.006958 
	C531.529114,593.006958 523.455811,593.006958 515.002563,593.006958 
	C515.002563,601.794678 515.002563,610.200867 515.002563,618.797852 
	C506.212219,618.797852 497.813324,618.797852 489.022217,618.797852 
	C489.022217,610.225403 489.022217,601.819397 489.022217,593.050659 
	C463.245636,593.050659 437.856812,593.050659 412.005341,593.050659 
	C412.005341,584.415588 412.005341,576.145081 412.003845,567.437195 
	C412.002380,566.999817 411.930054,567.069946 412.402130,567.037476 
	C420.792206,567.004944 428.710175,567.004944 436.651917,567.004944 
	C436.651917,558.083496 436.651917,549.586243 436.651917,540.930054 
	C428.179474,540.930054 420.054749,540.930054 411.965027,540.965027 
	C412.000000,541.000000 412.069946,541.069946 412.037415,540.597839 
	C412.004913,532.200317 412.004913,524.274902 412.004913,516.069946 
	C437.979828,516.069946 463.524902,516.069946 489.069946,516.069946 
	C489.069946,516.069946 488.999817,515.997742 488.965332,515.961060 
z"/>
<path fill="#FFFFFF" opacity="1.000000" stroke="none" 
	d="
M642.773193,567.030151 
	C643.503906,568.126892 643.966614,569.197021 643.968384,570.267944 
	C644.009277,594.932800 643.999939,619.597717 643.999939,644.631348 
	C618.206848,644.631348 592.468567,644.631348 566.364868,644.631348 
	C566.364868,619.203003 566.364868,593.463562 566.364868,567.003967 
	C591.472229,567.003967 616.881287,567.003967 642.773193,567.030151 
M598.573242,593.000000 
	C596.468506,593.000000 594.363708,593.000000 592.263428,593.000000 
	C592.263428,601.930786 592.263428,610.334717 592.263428,618.735474 
	C600.933044,618.735474 609.337097,618.735474 617.734253,618.735474 
	C617.734253,610.064575 617.734253,601.660461 617.734253,593.000000 
	C611.501404,593.000000 605.530579,593.000000 598.573242,593.000000 
z"/>
<path fill="#FFFFFF" opacity="1.000000" stroke="none" 
	d="
M746.597839,515.962524 
	C747.048218,523.995300 747.026550,532.060486 747.037415,540.597839 
	C721.191589,541.069946 695.313293,541.069946 668.995056,541.069946 
	C668.995056,532.725464 668.995056,524.799866 668.962524,516.402100 
	C694.661987,515.951660 720.393860,515.973328 746.597839,515.962524 
z"/>
<path fill="#FFFFFF" opacity="1.000000" stroke="none" 
	d="
M721.050598,592.971558 
	C703.960388,592.937317 686.833557,592.937317 669.353394,592.937317 
	C669.353394,584.533020 669.353394,576.135437 669.353394,567.368164 
	C686.220276,567.368164 703.384766,567.368164 720.996033,567.368164 
	C720.996033,575.602478 720.996033,583.867371 720.970703,592.605530 
	C720.945374,593.078796 721.013977,593.005737 721.050598,592.971558 
z"/>
<path fill="#FFFFFF" opacity="1.000000" stroke="none" 
	d="
M433.000153,645.000000 
	C425.857574,645.000000 419.214996,645.000000 412.286957,645.000000 
	C412.286957,636.383118 412.286957,627.978638 412.286957,619.285522 
	C428.953827,619.285522 445.689178,619.285522 462.713013,619.285522 
	C462.713013,627.616760 462.713013,636.021240 462.713013,645.000000 
	C453.025787,645.000000 443.262939,645.000000 433.000153,645.000000 
z"/>
<path fill="#FFFFFF" opacity="1.000000" stroke="none" 
	d="
M412.039124,566.965332 
	C403.673706,566.952271 395.271545,566.973694 386.396790,566.963013 
	C385.924164,566.930969 385.997620,566.999939 386.001282,566.562866 
	C385.980225,557.725281 385.955536,549.324768 386.402710,540.959473 
	C395.273010,541.019714 403.671478,541.044800 412.069946,541.069946 
	C412.069946,541.069946 412.000000,541.000000 411.997559,541.437134 
	C411.973389,550.272827 411.951721,558.671387 411.930054,567.069946 
	C411.930054,567.069946 412.002380,566.999817 412.039124,566.965332 
z"/>
<path fill="#FFFFFF" opacity="1.000000" stroke="none" 
	d="
M592.028442,696.050598 
	C592.062683,687.620728 592.062683,679.154236 592.062683,670.343994 
	C600.480225,670.343994 608.871155,670.343994 617.631836,670.343994 
	C617.631836,678.555664 617.631836,687.060852 617.631836,695.996033 
	C609.384888,695.996033 601.126343,695.996033 592.394470,695.970703 
	C591.921204,695.945374 591.994263,696.013977 592.028442,696.050598 
z"/>
<path fill="#FFFFFF" opacity="1.000000" stroke="none" 
	d="
M643.962524,490.402130 
	C652.043701,489.930054 660.157349,489.930054 669.005005,489.930054 
	C669.005005,498.404633 669.005005,506.765198 669.037476,515.597839 
	C660.956299,516.069946 652.842651,516.069946 643.995056,516.069946 
	C643.995056,507.595337 643.995056,499.234772 643.962524,490.402130 
z"/>
<path fill="#FFFFFF" opacity="1.000000" stroke="none" 
	d="
M308.962585,232.402130 
	C316.995270,231.951736 325.060486,231.973404 333.597839,231.962555 
	C334.069946,240.413300 334.069946,248.896530 334.069946,257.779816 
	C351.238678,257.779816 368.314178,257.779816 385.693451,257.779816 
	C385.693451,266.577667 385.693451,274.984924 385.693451,283.796021 
	C377.416199,283.796021 369.003784,283.796021 360.298309,283.796021 
	C360.298309,292.595001 360.298309,301.001801 360.298309,309.705811 
	C402.941223,309.705811 445.679047,309.705811 488.708740,309.705811 
	C488.708740,301.390228 488.708740,292.983795 488.708740,284.173401 
	C480.384979,284.173401 471.972107,284.173401 463.283020,284.173401 
	C463.283020,275.373108 463.283020,266.966858 463.283020,258.156860 
	C471.632263,258.156860 480.044830,258.156860 488.851379,258.156860 
	C488.851379,249.358719 488.851379,240.946701 488.851379,232.270630 
	C505.987793,232.270630 522.726379,232.270630 539.733154,232.270630 
	C539.733154,240.660294 539.733154,249.066330 539.733154,257.875519 
	C531.666321,257.875519 523.588623,257.875519 515.258545,257.875519 
	C515.258545,283.679565 515.258545,309.084320 515.258545,334.889954 
	C549.352539,334.889954 583.425598,334.889954 617.896973,334.889954 
	C617.896973,352.357666 617.896973,369.433167 617.896973,386.904663 
	C635.032043,386.904663 651.774292,386.904663 669.004944,386.904663 
	C669.004944,395.573364 669.004944,403.849518 669.037476,412.597839 
	C626.198486,413.069946 583.327087,413.069946 539.994812,413.069946 
	C539.994812,404.407562 539.994812,396.144043 540.433228,387.438049 
	C557.787720,386.995514 574.703796,386.995514 591.632690,386.995514 
	C591.632690,378.073822 591.632690,369.562592 591.632690,361.332642 
	C574.216492,361.332642 557.168396,361.332642 540.068604,361.332642 
	C540.068604,370.136597 540.068604,378.608154 540.068604,387.079712 
	C531.923767,387.079712 523.778870,387.079712 515.241638,387.079712 
	C515.241638,378.452637 515.241638,370.045135 515.241638,361.320923 
	C506.457672,361.320923 498.054596,361.320923 489.255554,361.320923 
	C489.255554,369.532990 489.255554,377.940521 489.255554,386.672119 
	C446.152496,386.672119 403.439697,386.672119 360.363281,386.672119 
	C360.363281,378.546417 360.363281,370.141144 360.363281,361.179810 
	C385.562988,361.179810 411.074677,361.179810 436.790558,361.179810 
	C436.790558,352.226349 436.790558,343.826477 436.790558,335.004944 
	C402.714203,335.004944 368.794281,335.004944 334.402191,335.037445 
	C333.930054,326.931366 333.930054,318.792786 333.930054,310.288757 
	C317.152008,310.288757 300.433746,310.288757 283.358246,310.288757 
	C283.358246,292.761719 283.358246,275.595612 283.358246,258.043701 
	C291.754517,258.043701 300.155365,258.043701 308.995087,258.043701 
	C308.995087,249.403366 308.995087,241.138779 308.962585,232.402130 
z"/>
<path fill="#FFFFFF" opacity="1.000000" stroke="none" 
	d="
M581.000000,284.000000 
	C593.475220,284.000000 605.450500,284.000000 617.712341,284.000000 
	C617.712341,292.615936 617.712341,301.020996 617.712341,309.714569 
	C592.045471,309.714569 566.310913,309.714569 540.287720,309.714569 
	C540.287720,301.384155 540.287720,292.979095 540.287720,284.000000 
	C553.642944,284.000000 567.071472,284.000000 581.000000,284.000000 
z"/>
<path fill="#FFFFFF" opacity="1.000000" stroke="none" 
	d="
M462.962555,181.402130 
	C471.328613,180.951721 479.727142,180.973389 488.597839,180.962555 
	C489.069946,189.376297 489.069946,197.822540 489.069946,207.004944 
	C480.596924,207.004944 472.235626,207.004944 463.402161,207.037445 
	C462.951721,198.671371 462.973389,190.272781 462.962555,181.402130 
z"/>
<path fill="#FFFFFF" opacity="1.000000" stroke="none" 
	d="
M385.597839,180.962555 
	C386.048279,189.328613 386.026611,197.727158 386.037445,206.597839 
	C377.671387,207.048294 369.272858,207.026627 360.402161,207.037445 
	C359.930054,198.623718 359.930054,190.177475 359.930054,180.995056 
	C368.403107,180.995056 376.764435,180.995056 385.597839,180.962555 
z"/>
<path fill="#FFFFFF" opacity="1.000000" stroke="none" 
	d="
M334.402161,232.037445 
	C333.951721,224.004730 333.973389,215.939499 333.962555,207.402161 
	C342.328613,206.951721 350.727142,206.973389 359.597839,206.962555 
	C360.069946,215.043716 360.069946,223.157379 360.069946,232.004944 
	C351.595337,232.004944 343.234772,232.004944 334.402161,232.037445 
z"/>
<path fill="#FFFFFF" opacity="1.000000" stroke="none" 
	d="
M662.912231,284.000000 
	C665.053467,284.000000 666.706299,284.000000 668.679199,284.000000 
	C668.679199,292.548798 668.679199,300.954742 668.679199,309.681763 
	C660.781616,309.681763 652.708496,309.681763 644.316162,309.681763 
	C644.316162,301.443909 644.316162,293.037537 644.316162,284.000000 
	C650.237793,284.000000 656.330811,284.000000 662.912231,284.000000 
z"/>
<path fill="#FFFFFF" opacity="1.000000" stroke="none" 
	d="
M205.962555,438.402161 
	C213.993271,437.951660 222.056488,437.973267 230.562103,438.433167 
	C231.004501,447.128998 231.004501,455.386597 231.004501,463.632782 
	C239.940048,463.632782 248.444504,463.632782 256.657654,463.632782 
	C256.657654,454.873444 256.657654,446.482941 256.657654,438.068390 
	C247.850494,438.068390 239.385529,438.068390 230.920547,438.068390 
	C230.945389,430.003693 230.970215,421.938995 230.962555,413.402161 
	C239.394165,412.930054 247.858292,412.930054 256.841461,412.930054 
	C256.841461,395.740448 256.841461,378.583008 256.841461,361.005341 
	C265.610596,361.005341 273.868011,361.005341 282.562744,361.003876 
	C283.000122,361.002411 282.930054,360.930054 282.962585,361.402130 
	C282.995087,370.235565 282.995087,378.596893 282.995087,387.069946 
	C292.177460,387.069946 300.623718,387.069946 309.033752,387.034912 
	C308.997559,386.999908 308.924133,386.930969 308.924133,386.930969 
	C308.924133,395.397858 308.924133,403.864777 308.924133,412.708313 
	C300.497864,412.708313 292.102081,412.708313 283.354187,412.708313 
	C283.354187,421.251404 283.354187,429.426605 283.354187,438.005341 
	C299.973022,438.005341 316.549225,438.005341 333.562744,438.003876 
	C334.000122,438.002411 333.930054,437.930054 333.962585,438.402130 
	C333.973389,447.272797 333.951721,455.671356 333.965027,464.034973 
	C334.000000,464.000000 334.069946,463.930054 333.597839,463.962585 
	C316.434143,463.995087 299.742554,463.995087 282.930054,463.995087 
	C282.930054,481.845062 282.930054,498.957489 282.930054,516.069946 
	C282.930054,516.069946 283.002380,515.999939 283.039124,515.965454 
	C257.675323,515.955688 232.274811,515.980347 206.402176,516.037476 
	C205.930054,507.598389 205.930054,499.126801 205.930054,490.290039 
	C188.819733,490.290039 171.768448,490.290039 154.359055,490.290039 
	C154.359055,481.421051 154.359055,472.908600 154.359055,464.026306 
	C171.447632,464.026306 188.499008,464.026306 205.995056,464.026306 
	C205.995056,455.403656 205.995056,447.138947 205.962555,438.402161 
z"/>
<path fill="#FFFFFF" opacity="1.000000" stroke="none" 
	d="
M334.034607,438.039124 
	C334.069061,429.933502 334.069061,421.791168 334.069061,413.324585 
	C376.955811,413.324585 419.768616,413.324585 462.957764,413.324585 
	C462.957764,430.094604 462.957764,446.819611 462.957764,464.004883 
	C471.593689,464.004883 479.862122,464.004883 488.603210,464.036957 
	C489.075867,464.069031 489.002441,464.000092 488.998779,464.437195 
	C488.973419,473.272858 488.951752,481.671387 488.930054,490.069946 
	C488.930054,490.069946 489.000000,490.000000 488.562836,489.997528 
	C471.200653,489.995056 454.275635,489.995056 436.978485,489.995056 
	C436.978485,472.507446 436.978485,455.448883 436.978485,438.368378 
	C428.415558,438.368378 420.233337,438.368378 411.671112,438.368378 
	C411.671112,447.139069 411.671112,455.542938 411.671112,464.314331 
	C402.878479,464.314331 394.474579,464.314331 385.701843,464.314331 
	C385.701843,473.104980 385.701843,481.508270 385.701843,489.677429 
	C368.255219,489.677429 351.198395,489.677429 334.069946,489.677429 
	C334.069946,480.880127 334.069946,472.405090 334.069946,463.930054 
	C334.069946,463.930054 334.000000,464.000000 334.437134,464.002472 
	C343.125122,464.004944 351.375946,464.004944 359.651367,464.004944 
	C359.651367,455.084167 359.651367,446.585846 359.651367,437.930054 
	C350.845459,437.930054 342.387756,437.930054 333.930054,437.930054 
	C333.930054,437.930054 334.000122,438.002411 334.034607,438.039124 
z"/>
<path fill="#FFFFFF" opacity="1.000000" stroke="none" 
	d="
M283.034607,361.039124 
	C283.069061,352.616364 283.069061,344.156921 283.069061,334.995056 
	C299.766113,334.995056 316.445892,334.995056 333.597809,334.962555 
	C334.069946,352.148804 334.069946,369.367554 334.069946,386.995117 
	C325.709900,386.995117 317.789642,386.995117 309.396790,386.963043 
	C308.924133,386.930969 308.997559,386.999908 309.001251,386.562805 
	C309.004944,377.764374 309.004944,369.403046 309.004944,360.930054 
	C299.822510,360.930054 291.376282,360.930054 282.930054,360.930054 
	C282.930054,360.930054 283.000122,361.002411 283.034607,361.039124 
z"/>
<path fill="#FCFCFC" opacity="1.000000" stroke="none" 
	d="
M717.000000,51.998699 
	C727.132202,51.998699 736.764404,51.998699 746.662109,51.998699 
	C746.662109,94.992546 746.662109,137.681808 746.662109,180.602722 
	C703.844360,180.602722 661.268799,180.602722 618.345825,180.602722 
	C618.345825,137.924255 618.345825,95.228996 618.345825,51.998699 
	C651.004639,51.998699 683.752319,51.998699 717.000000,51.998699 
M720.883484,79.723419 
	C719.323425,79.086449 717.766296,77.902939 716.202942,77.894661 
	C693.557190,77.774773 670.910645,77.808586 648.264282,77.821632 
	C646.808960,77.822472 645.353699,77.954300 643.739990,78.032913 
	C643.739990,103.728287 643.739990,129.136688 643.739990,154.750610 
	C669.416687,154.750610 694.967957,154.750610 720.887878,154.750610 
	C720.887878,129.898712 720.887878,105.293877 720.883484,79.723419 
z"/>
<path fill="#FCFCFC" opacity="1.000000" stroke="none" 
	d="
M180.002808,85.000000 
	C180.002808,117.124512 180.002808,148.749023 180.002808,180.603989 
	C136.993301,180.603989 94.401276,180.603989 51.486279,180.603989 
	C51.486279,137.965805 51.486279,95.379433 51.486279,52.394859 
	C93.999115,52.394859 136.712082,52.394859 180.002808,52.394859 
	C180.002808,62.970455 180.002808,73.735229 180.002808,85.000000 
M153.998245,87.526016 
	C153.998245,84.403831 153.998245,81.281647 153.998245,78.136887 
	C128.044571,78.136887 102.533623,78.136887 77.039566,78.136887 
	C77.039566,103.850159 77.039566,129.240097 77.039566,154.689636 
	C102.784958,154.689636 128.303802,154.689636 153.998245,154.689636 
	C153.998245,132.426819 153.998245,110.472160 153.998245,87.526016 
z"/>
<path fill="#FCFCFC" opacity="1.000000" stroke="none" 
	d="
M145.999847,747.707275 
	C114.215889,747.707275 82.931938,747.707275 51.405384,747.707275 
	C51.405384,704.637085 51.405384,662.058716 51.405384,619.152588 
	C94.076256,619.152588 136.663315,619.152588 179.628082,619.152588 
	C179.628082,661.625732 179.628082,704.345886 179.628082,747.707275 
	C168.706894,747.707275 157.603363,747.707275 145.999847,747.707275 
M153.997986,676.500000 
	C153.997986,665.899353 153.997986,655.298767 153.997986,644.825928 
	C128.005844,644.825928 102.600037,644.825928 77.154800,644.825928 
	C77.154800,670.603210 77.154800,696.120605 77.154800,721.623657 
	C102.886795,721.623657 128.277664,721.623657 153.997986,721.623657 
	C153.997986,706.742188 153.997986,692.121094 153.997986,676.500000 
z"/>
<path fill="#FFFFFF" opacity="1.000000" stroke="none" 
	d="
M154.037445,309.597870 
	C145.624741,310.069946 137.179550,310.069946 128.004944,310.069946 
	C128.004944,318.068481 128.004944,326.097076 128.037445,334.597839 
	C119.611458,335.069946 111.152962,335.069946 101.995049,335.069946 
	C101.995049,318.232025 101.995049,301.553162 101.962555,284.402191 
	C118.995277,283.951721 136.060486,283.973389 153.597824,283.962555 
	C154.048279,292.328644 154.026611,300.727203 154.037445,309.597870 
z"/>
<path fill="#FFFFFF" opacity="1.000000" stroke="none" 
	d="
M205.597870,515.962524 
	C206.048279,523.995300 206.026611,532.060486 206.037445,540.597839 
	C197.612610,541.069946 189.155289,541.069946 180.349121,541.069946 
	C180.349121,532.748108 180.349121,524.582764 180.349121,515.995056 
	C188.624786,515.995056 196.875290,515.995056 205.597870,515.962524 
z"/>
<path fill="#FFFFFF" opacity="1.000000" stroke="none" 
	d="
M333.597839,644.962585 
	C334.048248,652.995300 334.026581,661.060486 334.037415,669.597839 
	C325.937744,670.069946 317.805542,670.069946 309.004944,670.069946 
	C309.004944,695.784607 309.004944,721.455139 309.037445,747.597839 
	C300.599762,748.069946 292.129547,748.069946 283.143433,748.069946 
	C283.143433,722.055237 283.143433,696.235352 283.143433,670.039062 
	C274.239899,670.039062 265.840546,670.039062 256.995087,670.039062 
	C256.995087,661.735413 256.995087,653.804810 256.962585,645.402222 
	C282.328613,644.951782 307.727203,644.973450 333.597839,644.962585 
z"/>
<path fill="#FFFFFF" opacity="1.000000" stroke="none" 
	d="
M514.949524,103.028122 
	C523.046448,103.062317 531.179993,103.062317 539.656616,103.062317 
	C539.656616,111.480965 539.656616,119.871651 539.656616,128.631989 
	C531.777588,128.631989 523.605286,128.631989 515.003967,128.631989 
	C515.003967,120.383919 515.003967,112.125679 515.029358,103.394142 
	C515.054749,102.920853 514.986145,102.993927 514.949524,103.028122 
z"/>
<path fill="#FFFFFF" opacity="1.000000" stroke="none" 
	d="
M334.037415,206.597870 
	C326.004730,207.048279 317.939514,207.026611 309.402161,207.037445 
	C308.930054,198.612610 308.930054,190.155289 308.930054,181.349121 
	C317.251892,181.349121 325.417572,181.349121 334.004913,181.349121 
	C334.004913,189.624786 334.004913,197.875290 334.037415,206.597870 
z"/>
<path fill="#000000" opacity="1.000000" stroke="none" 
	d="
M333.597839,463.962585 
	C334.069946,472.405090 334.069946,480.880127 334.069946,489.677429 
	C351.198395,489.677429 368.255219,489.677429 385.701843,489.677429 
	C385.701843,481.508270 385.701843,473.104980 385.701843,464.314331 
	C394.474579,464.314331 402.878479,464.314331 411.671112,464.314331 
	C411.671112,455.542938 411.671112,447.139069 411.671112,438.368378 
	C420.233337,438.368378 428.415558,438.368378 436.978485,438.368378 
	C436.978485,455.448883 436.978485,472.507446 436.978485,489.995056 
	C454.275635,489.995056 471.200653,489.995056 488.597839,489.962555 
	C489.048309,498.328613 489.026642,506.727173 489.037476,515.597839 
	C463.524902,516.069946 437.979828,516.069946 412.004913,516.069946 
	C412.004913,524.274902 412.004913,532.200317 412.037415,540.597839 
	C403.671478,541.044800 395.273010,541.019714 386.437195,540.996216 
	C385.999817,540.997742 386.069946,541.069946 386.037415,540.597900 
	C386.004913,532.207825 386.004913,524.289856 386.004913,516.348083 
	C377.083862,516.348083 368.586212,516.348083 359.930054,516.348083 
	C359.930054,524.820557 359.930054,532.945251 359.965088,541.033813 
	C360.000122,540.997620 360.069031,540.924194 360.069031,540.924194 
	C343.173004,540.924194 326.277008,540.924194 309.010864,540.924194 
	C309.010864,532.540649 309.010864,524.481018 309.010864,516.004944 
	C300.388336,516.004944 292.131317,516.004944 283.402161,516.037476 
	C282.930054,498.957489 282.930054,481.845062 282.930054,463.995087 
	C299.742554,463.995087 316.434143,463.995087 333.597839,463.962585 
z"/>
<path fill="#000000" opacity="1.000000" stroke="none" 
	d="
M489.402161,490.037415 
	C488.951752,481.671387 488.973419,473.272858 488.962585,464.402161 
	C505.715942,463.930054 522.501831,463.930054 539.643799,463.930054 
	C539.643799,472.580841 539.643799,481.089142 539.643799,490.004913 
	C523.029480,490.004913 506.451874,490.004913 489.402161,490.037415 
z"/>
<path fill="#000000" opacity="1.000000" stroke="none" 
	d="
M385.965332,540.961060 
	C385.955536,549.324768 385.980225,557.725281 386.037415,566.597839 
	C377.623138,567.069946 369.176331,567.069946 360.004883,567.069946 
	C360.004883,558.594482 360.004883,550.231995 360.036957,541.396851 
	C360.069031,540.924194 360.000122,540.997620 360.437195,541.001221 
	C369.272858,541.026550 377.671387,541.048218 386.069946,541.069946 
	C386.069946,541.069946 385.999817,540.997742 385.965332,540.961060 
z"/>
<path fill="#000000" opacity="1.000000" stroke="none" 
	d="
M334.043030,592.965698 
	C325.947632,592.931396 317.815582,592.931396 309.341827,592.931396 
	C309.341827,584.516296 309.341827,576.126221 309.341827,567.367310 
	C317.222351,567.367310 325.393768,567.367310 333.995514,567.367310 
	C333.995514,575.614014 333.995514,583.871216 333.966522,592.600830 
	C333.937531,593.073242 334.006348,593.000061 334.043030,592.965698 
z"/>
<path fill="#000000" opacity="1.000000" stroke="none" 
	d="
M412.402130,567.037476 
	C411.951721,558.671387 411.973389,550.272827 411.962585,541.402161 
	C420.054749,540.930054 428.179474,540.930054 436.651917,540.930054 
	C436.651917,549.586243 436.651917,558.083496 436.651917,567.004944 
	C428.710175,567.004944 420.792206,567.004944 412.402130,567.037476 
z"/>
<path fill="#000000" opacity="1.000000" stroke="none" 
	d="
M599.066528,593.000000 
	C605.530579,593.000000 611.501404,593.000000 617.734253,593.000000 
	C617.734253,601.660461 617.734253,610.064575 617.734253,618.735474 
	C609.337097,618.735474 600.933044,618.735474 592.263428,618.735474 
	C592.263428,610.334717 592.263428,601.930786 592.263428,593.000000 
	C594.363708,593.000000 596.468506,593.000000 599.066528,593.000000 
z"/>
<path fill="#000000" opacity="1.000000" stroke="none" 
	d="
M540.034302,387.043030 
	C540.068604,378.608154 540.068604,370.136597 540.068604,361.332642 
	C557.168396,361.332642 574.216492,361.332642 591.632690,361.332642 
	C591.632690,369.562592 591.632690,378.073822 591.632690,386.995514 
	C574.703796,386.995514 557.787720,386.995514 540.399170,386.966522 
	C539.926758,386.937531 539.999939,387.006348 540.034302,387.043030 
z"/>
<path fill="#000000" opacity="1.000000" stroke="none" 
	d="
M282.962585,361.402130 
	C291.376282,360.930054 299.822510,360.930054 309.004944,360.930054 
	C309.004944,369.403046 309.004944,377.764374 309.037445,386.597839 
	C300.623718,387.069946 292.177460,387.069946 282.995087,387.069946 
	C282.995087,378.596893 282.995087,370.235565 282.962585,361.402130 
z"/>
<path fill="#000000" opacity="1.000000" stroke="none" 
	d="
M230.957214,438.034058 
	C239.385529,438.068390 247.850494,438.068390 256.657654,438.068390 
	C256.657654,446.482941 256.657654,454.873444 256.657654,463.632782 
	C248.444504,463.632782 239.940048,463.632782 231.004501,463.632782 
	C231.004501,455.386597 231.004501,447.128998 231.033600,438.398987 
	C231.062698,437.926514 230.993896,437.999725 230.957214,438.034058 
z"/>
<path fill="#000000" opacity="1.000000" stroke="none" 
	d="
M333.962585,438.402130 
	C342.387756,437.930054 350.845459,437.930054 359.651367,437.930054 
	C359.651367,446.585846 359.651367,455.084167 359.651367,464.004944 
	C351.375946,464.004944 343.125122,464.004944 334.402161,464.037445 
	C333.951721,455.671356 333.973389,447.272797 333.962585,438.402130 
z"/>
<path fill="#010101" opacity="1.000000" stroke="none" 
	d="
M720.885681,80.206223 
	C720.887878,105.293877 720.887878,129.898712 720.887878,154.750610 
	C694.967957,154.750610 669.416687,154.750610 643.739990,154.750610 
	C643.739990,129.136688 643.739990,103.728287 643.739990,78.032913 
	C645.353699,77.954300 646.808960,77.822472 648.264282,77.821632 
	C670.910645,77.808586 693.557190,77.774773 716.202942,77.894661 
	C717.766296,77.902939 719.323425,79.086449 720.885681,80.206223 
z"/>
<path fill="#000000" opacity="1.000000" stroke="none" 
	d="
M153.998245,88.021759 
	C153.998245,110.472160 153.998245,132.426819 153.998245,154.689636 
	C128.303802,154.689636 102.784958,154.689636 77.039566,154.689636 
	C77.039566,129.240097 77.039566,103.850159 77.039566,78.136887 
	C102.533623,78.136887 128.044571,78.136887 153.998245,78.136887 
	C153.998245,81.281647 153.998245,84.403831 153.998245,88.021759 
z"/>
<path fill="#010101" opacity="1.000000" stroke="none" 
	d="
M153.997986,677.000000 
	C153.997986,692.121094 153.997986,706.742188 153.997986,721.623657 
	C128.277664,721.623657 102.886795,721.623657 77.154800,721.623657 
	C77.154800,696.120605 77.154800,670.603210 77.154800,644.825928 
	C102.600037,644.825928 128.005844,644.825928 153.997986,644.825928 
	C153.997986,655.298767 153.997986,665.899353 153.997986,677.000000 
z"/>
<path fill="#FFFFFF" opacity="1.000000" stroke="none" 
	d="
M386.037415,540.597839 
	C377.671387,541.048218 369.272858,541.026550 360.402161,541.037415 
	C359.930054,532.945251 359.930054,524.820557 359.930054,516.348083 
	C368.586212,516.348083 377.083862,516.348083 386.004913,516.348083 
	C386.004913,524.289856 386.004913,532.207825 386.037415,540.597839 
z"/>
</svg>