<?xml version="1.0" encoding="UTF-8"?>
<svg width="21px" height="25px" viewBox="0 0 21 25" version="1.1" xmlns="http://www.w3.org/2000/svg" xmlns:xlink="http://www.w3.org/1999/xlink">
    <!-- Generator: Sketch 42 (36781) - http://www.bohemiancoding.com/sketch -->
    <title>workbook</title>
    <desc>Created with Sketch.</desc>
    <defs></defs>
    <g id="Page-1" stroke="none" stroke-width="1" fill="none" fill-rule="evenodd">
        <g id="Full-Color" transform="translate(-152.000000, -300.000000)">
            <g id="workbook" transform="translate(152.000000, 300.000000)">
                <path d="M19.5,24.5031 L2.5,24.5031 C1.95,24.5031 1.5,24.0531 1.5,23.5031 L1.5,1.5031 C1.5,0.9531 1.95,0.5031 2.5,0.5031 L19.5,0.5031 C20.05,0.5031 20.5,0.9531 20.5,1.5031 L20.5,23.5031 C20.5,24.0531 20.05,24.5031 19.5,24.5031" id="Fill-77" fill="#FF9500"></path>
                <path d="M4.5,0.5031 L4.5,24.5031 L2.5,24.5031 C1.95,24.5031 1.5,24.0531 1.5,23.5031 L1.5,1.5031 C1.5,0.9531 1.95,0.5031 2.5,0.5031 L4.5,0.5031 Z" id="Fill-78" fill="#FFCC00"></path>
                <path d="M8.96,13.3127 C8.99,13.3737 9,13.4427 9,13.5027 C9,13.5727 8.99,13.6327 8.96,13.6927 C8.94,13.7527 8.9,13.8127 8.85,13.8527 C8.76,13.9537 8.63,14.0027 8.5,14.0027 C8.43,14.0027 8.37,13.9937 8.31,13.9627 C8.25,13.9427 8.19,13.9027 8.15,13.8527 C8.1,13.8127 8.06,13.7527 8.04,13.6927 C8.01,13.6327 8,13.5727 8,13.5027 C8,13.3737 8.05,13.2437 8.15,13.1527 C8.33,12.9627 8.67,12.9627 8.85,13.1527 C8.9,13.1927 8.94,13.2527 8.96,13.3127 L8.96,13.3127 Z M10,13.5027 C10,13.2267 10.224,13.0027 10.5,13.0027 L16.5,13.0027 C16.776,13.0027 17,13.2267 17,13.5027 C17,13.7797 16.776,14.0027 16.5,14.0027 L10.5,14.0027 C10.224,14.0027 10,13.7797 10,13.5027 L10,13.5027 Z M8.04,10.6927 C8.01,10.6327 8,10.5727 8,10.5027 C8,10.4427 8.01,10.3737 8.04,10.3127 C8.06,10.2527 8.1,10.1927 8.15,10.1527 C8.29,10.0127 8.51,9.9627 8.69,10.0427 C8.75,10.0627 8.81,10.1027 8.85,10.1527 C8.95,10.2437 9,10.3737 9,10.5027 C9,10.5727 8.99,10.6327 8.96,10.6927 C8.94,10.7527 8.9,10.8127 8.85,10.8527 C8.81,10.9027 8.75,10.9427 8.69,10.9627 C8.63,10.9937 8.57,11.0027 8.5,11.0027 C8.43,11.0027 8.37,10.9937 8.31,10.9627 C8.25,10.9427 8.19,10.9027 8.15,10.8527 C8.1,10.8127 8.06,10.7527 8.04,10.6927 L8.04,10.6927 Z M10,10.5027 C10,10.2267 10.224,10.0027 10.5,10.0027 L16.5,10.0027 C16.776,10.0027 17,10.2267 17,10.5027 C17,10.7797 16.776,11.0027 16.5,11.0027 L10.5,11.0027 C10.224,11.0027 10,10.7797 10,10.5027 L10,10.5027 Z M8.04,7.6927 C8.01,7.6327 8,7.5727 8,7.5027 C8,7.3737 8.05,7.2437 8.15,7.1527 C8.29,7.0127 8.51,6.9627 8.69,7.0427 C8.75,7.0627 8.81,7.1027 8.85,7.1527 C8.9,7.1927 8.94,7.2527 8.96,7.3127 C8.99,7.3737 9,7.4327 9,7.5027 C9,7.5727 8.99,7.6327 8.96,7.6927 C8.94,7.7527 8.9,7.8127 8.85,7.8527 C8.81,7.9027 8.75,7.9427 8.69,7.9627 C8.63,7.9937 8.57,8.0027 8.5,8.0027 C8.43,8.0027 8.37,7.9937 8.31,7.9627 C8.25,7.9427 8.19,7.9027 8.15,7.8527 C8.1,7.8127 8.06,7.7527 8.04,7.6927 L8.04,7.6927 Z M10,7.5027 C10,7.2267 10.224,7.0027 10.5,7.0027 L16.5,7.0027 C16.776,7.0027 17,7.2267 17,7.5027 C17,7.7797 16.776,8.0027 16.5,8.0027 L10.5,8.0027 C10.224,8.0027 10,7.7797 10,7.5027 L10,7.5027 Z M2,19.0027 L2.5,19.0027 C2.776,19.0027 3,18.7797 3,18.5027 C3,18.2267 2.776,18.0027 2.5,18.0027 L2,18.0027 L2,16.0027 L2.5,16.0027 C2.776,16.0027 3,15.7797 3,15.5027 C3,15.2267 2.776,15.0027 2.5,15.0027 L2,15.0027 L2,13.0027 L2.5,13.0027 C2.776,13.0027 3,12.7797 3,12.5027 C3,12.2267 2.776,12.0027 2.5,12.0027 L2,12.0027 L2,10.0027 L2.5,10.0027 C2.776,10.0027 3,9.7797 3,9.5027 C3,9.2267 2.776,9.0027 2.5,9.0027 L2,9.0027 L2,7.0027 L2.5,7.0027 C2.776,7.0027 3,6.7797 3,6.5027 C3,6.2267 2.776,6.0027 2.5,6.0027 L2,6.0027 L2,4.0027 L2.5,4.0027 C2.776,4.0027 3,3.7797 3,3.5027 C3,3.2267 2.776,3.0027 2.5,3.0027 L2,3.0027 L2,1.5027 C2,1.2277 2.224,1.0027 2.5,1.0027 L4,1.0027 L4,24.0027 L2.5,24.0027 C2.224,24.0027 2,23.7787 2,23.5027 L2,22.0027 L2.5,22.0027 C2.776,22.0027 3,21.7797 3,21.5027 C3,21.2267 2.776,21.0027 2.5,21.0027 L2,21.0027 L2,19.0027 Z M20,1.5027 L20,23.5027 C20,23.7787 19.776,24.0027 19.5,24.0027 L5,24.0027 L5,1.0027 L19.5,1.0027 C19.776,1.0027 20,1.2277 20,1.5027 L20,1.5027 Z M2.5,25.0027 L19.5,25.0027 C20.327,25.0027 21,24.3307 21,23.5027 L21,1.5027 C21,0.6757 20.327,0.0027 19.5,0.0027 L2.5,0.0027 C1.673,0.0027 1,0.6757 1,1.5027 L1,3.0027 L0.5,3.0027 C0.224,3.0027 0,3.2267 0,3.5027 C0,3.7797 0.224,4.0027 0.5,4.0027 L1,4.0027 L1,6.0027 L0.5,6.0027 C0.224,6.0027 0,6.2267 0,6.5027 C0,6.7797 0.224,7.0027 0.5,7.0027 L1,7.0027 L1,9.0027 L0.5,9.0027 C0.224,9.0027 0,9.2267 0,9.5027 C0,9.7797 0.224,10.0027 0.5,10.0027 L1,10.0027 L1,12.0027 L0.5,12.0027 C0.224,12.0027 0,12.2267 0,12.5027 C0,12.7797 0.224,13.0027 0.5,13.0027 L1,13.0027 L1,15.0027 L0.5,15.0027 C0.224,15.0027 0,15.2267 0,15.5027 C0,15.7797 0.224,16.0027 0.5,16.0027 L1,16.0027 L1,18.0027 L0.5,18.0027 C0.224,18.0027 0,18.2267 0,18.5027 C0,18.7797 0.224,19.0027 0.5,19.0027 L1,19.0027 L1,21.0027 L0.5,21.0027 C0.224,21.0027 0,21.2267 0,21.5027 C0,21.7797 0.224,22.0027 0.5,22.0027 L1,22.0027 L1,23.5027 C1,24.3307 1.673,25.0027 2.5,25.0027 L2.5,25.0027 Z" id="Fill-225" fill="#000000"></path>
                <path d="M19.5,22.0031 L2.5,22.0031 C2.225,22.0031 2,21.7781 2,21.5031 C2,21.2271 1.776,21.0031 1.5,21.0031 C1.224,21.0031 1,21.2271 1,21.5031 L1,23.5031 C1,24.3301 1.673,25.0031 2.5,25.0031 L19.5,25.0031 C20.327,25.0031 21,24.3301 21,23.5031 L21,21.5031 C21,21.2271 20.776,21.0031 20.5,21.0031 C20.224,21.0031 20,21.2271 20,21.5031 C20,21.7781 19.775,22.0031 19.5,22.0031" id="Fill-359" fill="#000000" opacity="0.119999997"></path>
            </g>
        </g>
    </g>
</svg>