<svg id="icons" xmlns="http://www.w3.org/2000/svg" viewBox="0 0 64 64"><title>art-easel-mouse</title><g id="art-easel-mouse"><polyline points="27 7 2 7 2 45 34 45 34 7 31 7" fill="#fff"/><polyline points="25.88 9 4 9 4 43 32 43 32 9 29.38 9" fill="#e9ebef"/><polyline points="14 40 29 40 29 12 7 12 7 40 10 40" fill="#3dbbe8"/><polyline points="31 7 34 7 34 45 2 45 2 7 27 7" fill="none" stroke="#37464f" stroke-linejoin="round" stroke-width="2"/><polyline points="7 40 7 36 16 27 25 34 29 30.21 29 40" fill="#8dce25"/><polyline points="7 33 16 24 25 31 29 27" fill="none" stroke="#fff" stroke-miterlimit="10" stroke-width="2"/><polyline points="7 35 16 26 25 33 29 29" fill="none" stroke="#37464f" stroke-miterlimit="10" stroke-width="2"/><polyline points="14 40 29 40 29 12 7 12 7 40 10 40" fill="none" stroke="#37464f" stroke-miterlimit="10" stroke-width="2"/><rect x="15" y="2" width="6" height="5" fill="#c8ced6"/><rect x="15" y="5" width="6" height="2" fill="#b1b7c4"/><rect x="15" y="2" width="6" height="5" fill="none" stroke="#37464f" stroke-linejoin="round" stroke-width="2"/><rect x="10" y="50" width="16" height="4" fill="#b1b7c4"/><polygon points="24 45 28 45 34 62 30 62 24 45" fill="#c8ced6"/><polygon points="12 45 8 45 2 62 6 62 12 45" fill="#c8ced6"/><polygon points="29 48 25 48 24 46 28 46 29 48" fill="#b1b7c4"/><polygon points="7 48 11 48 12 46 8 46 7 48" fill="#b1b7c4"/><polygon points="24 45 28 45 34 62 30 62 24 45" fill="none" stroke="#37464f" stroke-linecap="round" stroke-linejoin="round" stroke-width="2"/><polygon points="12 45 8 45 2 62 6 62 12 45" fill="none" stroke="#37464f" stroke-linejoin="round" stroke-width="2"/><circle cx="23" cy="20" r="2.25" fill="#ffc81a"/><circle cx="23" cy="20" r="2.25" fill="none" stroke="#37464f" stroke-linejoin="round" stroke-width="1.5"/><line x1="27" y1="54" x2="9" y2="54" fill="none" stroke="#37464f" stroke-miterlimit="10" stroke-width="2"/><line x1="10" y1="50" x2="26" y2="50" fill="none" stroke="#37464f" stroke-miterlimit="10" stroke-width="2"/><path d="M54,46a5,5,0,0,1,5,5v4a5,5,0,0,1-5,5" fill="#c1c5d0"/><path d="M54,60h0a5,5,0,0,1-5-5V51a5,5,0,0,1,5-5h0" fill="#dadee4"/><path d="M37,10H59a3,3,0,0,1,3,3v2a3,3,0,0,1-3,3H43a3,3,0,0,0-3,3v2a3,3,0,0,0,3,3H59a3,3,0,0,1,3,3v2a3,3,0,0,1-3,3H43a3,3,0,0,0-3,3v2a3,3,0,0,0,3,3h8a3,3,0,0,1,3,3h0v6" fill="none" stroke="#37464f" stroke-linejoin="round" stroke-width="2"/><path d="M53,46h2a4,4,0,0,1,4,4v5a5,5,0,0,1-5,5h0a5,5,0,0,1-5-5V50a4,4,0,0,1,4-4Z" fill="none" stroke="#37464f" stroke-linejoin="round" stroke-width="2"/></g></svg>