<svg id="icons" xmlns="http://www.w3.org/2000/svg" viewBox="0 0 64 64"><title>screen-open-book</title><g id="screen-open-book"><rect x="25" y="51" width="14" height="8" fill="#c8ced6"/><path d="M2,44H62a0,0,0,0,1,0,0v6a2,2,0,0,1-2,2H4a2,2,0,0,1-2-2V44A0,0,0,0,1,2,44Z" fill="#e9ebef"/><rect x="20" y="59" width="24" height="3" fill="#e4e7eb"/><rect x="2" y="7" width="60" height="37" fill="#b7ff45"/><rect x="4" y="9" width="56" height="33" fill="#8dce25"/><path d="M56,7h4a2,2,0,0,1,2,2V44H2V9A2,2,0,0,1,4,7H8" fill="none" stroke="#37464f" stroke-miterlimit="10" stroke-width="2"/><polyline points="39 52 25 52 25 58 20 58 20 62 44 62 44 58 39 58 39 52.5" fill="none" stroke="#37464f" stroke-miterlimit="10" stroke-width="2"/><path d="M2,44v6a2,2,0,0,0,2,2H60a2,2,0,0,0,2-2V44" fill="none" stroke="#37464f" stroke-miterlimit="10" stroke-width="2"/><line x1="30" y1="48" x2="34" y2="48" fill="none" stroke="#37464f" stroke-miterlimit="10" stroke-width="2"/><polyline points="52.83 34.5 57 34.5 57 38 7 38 7 34.5 11.17 34.5" fill="#79b01f"/><polyline points="52 4 56 4 56 35 8 35 8 4 12 4" fill="#b1b7c4"/><polyline points="50.33 6 54 6 54 33 10 33 10 6 13.67 6" fill="#c8ced6"/><polyline points="28 35 8 35 8 4 12 4" fill="none" stroke="#37464f" stroke-miterlimit="10" stroke-width="2"/><polyline points="52 4 56 4 56 35 36 35" fill="none" stroke="#37464f" stroke-miterlimit="10" stroke-width="2"/><polygon points="32 34 34 34 36 32 52 32 52 2 36 2 34 4 32 4 32 34" fill="#fff"/><polygon points="32 34 30 34 28 32 12 32 12 2 28 2 30 4 32 4 32 34" fill="#fff"/><rect x="28" y="3" width="8" height="30" fill="#e9ebef"/><rect x="29.5" y="5" width="5" height="28" fill="#c8ced6"/><polygon points="32 34 30 34 28 32 12 32 12 2 28 2 30 4 32 4 32 34" fill="none" stroke="#37464f" stroke-miterlimit="10" stroke-width="2"/><polygon points="32 34 34 34 36 32 52 32 52 2 36 2 34 4 32 4 32 34" fill="none" stroke="#37464f" stroke-miterlimit="10" stroke-width="2"/><rect x="15" y="5" width="11" height="8" fill="#e74b3c"/><line x1="15" y1="16" x2="26" y2="16" fill="none" stroke="#37464f" stroke-miterlimit="10" stroke-width="2"/><line x1="15" y1="20" x2="26" y2="20" fill="none" stroke="#37464f" stroke-miterlimit="10" stroke-width="2"/><line x1="15" y1="24" x2="26" y2="24" fill="none" stroke="#37464f" stroke-miterlimit="10" stroke-width="2"/><line x1="15" y1="28" x2="26" y2="28" fill="none" stroke="#37464f" stroke-miterlimit="10" stroke-width="2"/><line x1="38" y1="6" x2="49" y2="6" fill="none" stroke="#37464f" stroke-miterlimit="10" stroke-width="2"/><line x1="38" y1="10" x2="49" y2="10" fill="none" stroke="#37464f" stroke-miterlimit="10" stroke-width="2"/><line x1="38" y1="14" x2="49" y2="14" fill="none" stroke="#37464f" stroke-miterlimit="10" stroke-width="2"/><rect x="38" y="17" width="4" height="4" fill="#8dce25"/><rect x="45" y="17" width="4" height="4" fill="#3598dc"/><rect x="38" y="24" width="4" height="4" fill="#ffc81a"/><rect x="45" y="24" width="4" height="4" fill="#ff6ea6"/></g></svg>