<svg version="1.1" id="Layer_1" xmlns="http://www.w3.org/2000/svg" xmlns:xlink="http://www.w3.org/1999/xlink" x="0px" y="0px"
	 width="100%" viewBox="0 0 800 800" enable-background="new 0 0 800 800" xml:space="preserve">
<path fill="#FFFFFF" opacity="1.000000" stroke="none" 
	d="
M1.000000,212.000000 
	C1.000000,141.333328 1.000000,71.166664 1.000000,1.000000 
	C267.666656,1.000000 534.333313,1.000000 801.000000,1.000000 
	C801.000000,267.666656 801.000000,534.333313 801.000000,801.000000 
	C534.333313,801.000000 267.666656,801.000000 1.000000,801.000000 
	C1.000000,604.833313 1.000000,408.666656 1.000000,212.000000 
M284.005707,642.869629 
	C284.026764,650.938293 284.047821,659.006958 283.125214,667.006165 
	C266.194977,667.006165 249.264709,667.006165 232.199585,667.006165 
	C232.199585,701.505737 232.199585,735.554504 232.199585,769.653076 
	C266.566193,769.653076 300.732941,769.653076 334.931091,769.653076 
	C334.931091,735.179504 334.931091,701.051941 335.874786,666.993835 
	C344.143890,666.993835 352.412994,666.993835 361.052551,666.993835 
	C361.052551,649.808594 361.052551,633.081482 361.052551,615.970459 
	C369.826080,615.970459 378.231598,615.970459 386.795959,615.970459 
	C386.795959,607.182495 386.795959,598.785034 386.795959,589.844055 
	C361.092926,589.844055 335.587860,589.844055 309.701935,589.844055 
	C309.701935,580.897278 309.701935,572.492371 309.701935,563.717224 
	C300.909515,563.717224 292.504822,563.717224 284.328613,563.717224 
	C284.328613,554.923279 284.328613,546.521851 284.328613,537.743896 
	C293.059509,537.743896 301.464661,537.743896 309.931122,537.743896 
	C309.931122,529.210876 309.931122,521.067566 310.874817,512.993835 
	C318.792664,512.993835 326.710510,512.993835 335.160339,512.993835 
	C335.160339,521.576172 335.160339,529.754211 335.160339,537.924255 
	C344.155853,537.924255 352.612366,537.924255 361.005707,538.869629 
	C361.005707,547.127808 361.005707,555.385925 361.005707,563.659241 
	C378.586060,563.659241 395.737823,563.659241 412.931091,563.659241 
	C412.931091,554.854431 412.931091,546.389404 413.874756,537.993835 
	C421.936951,538.024048 429.999176,538.054321 437.992889,538.011353 
	C437.992889,538.011353 437.919769,537.942749 437.995148,538.884521 
	C437.995148,547.159119 437.995148,555.433655 437.995148,563.747559 
	C455.568726,563.747559 472.639709,563.747559 489.744507,563.747559 
	C489.744507,538.091309 489.744507,512.687500 489.744507,486.884521 
	C481.086365,486.884521 472.675812,486.884521 463.875305,486.884521 
	C463.875305,478.080048 463.875305,469.669281 463.875305,461.267456 
	C455.066528,461.267456 446.661224,461.267456 437.860535,461.267456 
	C437.860535,469.938721 437.860535,478.350006 437.860535,486.727112 
	C429.384552,486.727112 421.311676,486.727112 412.845520,486.727112 
	C412.845520,469.382233 412.845520,452.307281 412.845520,435.282013 
	C404.036987,435.282013 395.631165,435.282013 386.831421,435.282013 
	C386.831421,443.968903 386.831421,452.381439 386.831421,460.712585 
	C378.021515,460.712585 369.615326,460.712585 360.815796,460.712585 
	C360.815796,452.018219 360.815796,443.605560 360.815796,434.809814 
	C352.008759,434.809814 343.596039,434.809814 335.297546,434.809814 
	C335.297546,417.668884 335.297546,400.930145 335.297546,383.795471 
	C344.002777,383.795471 352.415466,383.795471 361.210510,383.795471 
	C361.210510,374.987793 361.210510,366.575073 361.210510,358.307678 
	C378.684906,358.307678 395.757172,358.307678 413.073517,358.307678 
	C413.073517,367.097626 413.073517,375.580109 412.128540,384.005310 
	C403.871368,384.005310 395.614166,384.005310 387.368103,384.005310 
	C387.368103,392.939636 387.368103,401.443939 387.368103,409.656677 
	C396.126984,409.656677 404.516998,409.656677 412.931732,409.656677 
	C412.931732,400.849701 412.931732,392.385132 413.875122,383.993591 
	C421.807068,383.993591 429.739044,383.993591 438.029358,383.993591 
	C438.029358,366.494476 438.029358,349.442719 438.029358,331.836182 
	C446.905731,331.836182 455.431671,331.836182 463.924164,331.836182 
	C463.924164,305.827606 463.924164,280.379425 464.869537,254.994308 
	C481.805054,254.994308 498.740570,254.994308 515.769653,254.994308 
	C515.769653,263.867554 515.769653,272.269531 515.769653,281.065552 
	C507.138977,281.065552 498.730682,281.065552 490.226135,281.065552 
	C490.226135,298.194092 490.226135,314.925659 490.226135,331.773926 
	C498.854492,331.773926 507.256195,331.773926 516.052368,331.773926 
	C516.052368,323.482697 516.052368,315.407379 516.052368,307.222900 
	C524.518982,307.222900 532.587708,307.222900 541.050964,307.222900 
	C541.050964,315.512421 541.050964,323.587830 541.050964,331.776001 
	C549.850220,331.776001 558.251892,331.776001 567.048157,331.776001 
	C567.048157,323.487061 567.048157,315.411652 567.048157,306.951294 
	C575.843567,306.951294 584.252197,306.951294 593.045715,306.951294 
	C593.045715,298.156097 593.045715,289.746338 593.045715,281.214020 
	C610.507446,281.214020 627.572449,281.214020 645.278259,281.214020 
	C645.278259,290.033234 645.278259,298.642761 644.285583,307.019684 
	C635.879761,307.019684 627.473938,307.019684 619.336670,307.019684 
	C619.336670,324.434357 619.336670,341.159698 619.336670,357.931915 
	C636.474731,357.931915 653.277100,357.931915 670.006470,358.875275 
	C669.962219,367.210846 669.917969,375.546417 668.958130,383.992493 
	C661.029541,383.992493 653.100952,383.992493 644.785950,383.992493 
	C644.785950,393.015869 644.785950,401.428558 644.785950,409.689270 
	C635.974304,409.689270 627.566650,409.689270 618.768677,409.689270 
	C618.768677,400.969696 618.768677,392.556885 618.768677,384.321106 
	C601.293396,384.321106 584.220642,384.321106 566.752930,384.321106 
	C566.752930,393.049957 566.752930,401.462799 566.752930,409.673279 
	C540.945068,409.673279 515.539246,409.673279 489.737061,409.673279 
	C489.737061,392.272369 489.737061,375.196869 489.737061,358.337036 
	C480.925201,358.337036 472.516754,358.337036 464.341248,358.337036 
	C464.341248,384.079895 464.341248,409.485657 464.341248,435.287415 
	C473.091583,435.287415 481.503754,435.287415 490.297424,435.287415 
	C490.297424,444.098541 490.297424,452.511292 490.297424,460.645569 
	C499.110291,460.645569 507.519684,460.645569 516.313721,460.645569 
	C516.313721,451.881317 516.313721,443.470673 516.313721,435.360596 
	C524.793945,435.360596 532.871033,435.360596 541.330994,435.360596 
	C541.330994,444.133057 541.330994,452.546112 541.330994,461.160980 
	C550.020630,461.160980 558.309998,461.160980 566.994263,461.160980 
	C566.994263,469.785706 566.994263,478.199036 566.994263,486.797180 
	C575.800110,486.797180 584.204834,486.797180 593.010498,486.797180 
	C593.010498,478.194122 593.010498,469.780792 593.010498,460.979980 
	C618.814880,460.979980 644.222229,460.979980 669.999207,460.979980 
	C669.999207,459.459595 670.002869,458.335114 669.998657,457.210602 
	C669.906860,432.722961 669.814270,408.235352 670.714417,383.980316 
	C679.099304,383.980316 687.484192,383.980316 696.213989,383.980316 
	C696.213989,393.026245 696.213989,401.409698 696.213989,410.125946 
	C705.008972,410.125946 713.445557,410.125946 721.992554,411.041565 
	C721.992554,418.962494 721.992554,426.883423 721.992554,435.179382 
	C713.019165,435.179382 704.615234,435.179382 696.277100,435.179382 
	C696.277100,443.969147 696.277100,452.367157 696.277100,460.742950 
	C713.610046,460.742950 730.665344,460.742950 748.106812,460.742950 
	C748.106812,452.090698 748.106812,443.687622 748.106812,434.907043 
	C756.558105,434.907043 764.628540,434.907043 772.765381,434.907043 
	C772.765381,426.451965 772.765381,418.388092 772.765381,410.277924 
	C755.603821,410.277924 738.675842,410.277924 721.980286,409.285278 
	C721.980286,392.227966 721.980286,375.170654 721.980286,358.073700 
	C704.196960,358.073700 687.067200,358.073700 669.994751,357.128662 
	C669.994751,348.852600 669.994751,340.576569 669.994751,331.907745 
	C661.442749,331.907745 653.363953,331.907745 645.126282,331.907745 
	C645.126282,323.378754 645.126282,315.248383 646.041931,307.007477 
	C662.608459,307.007477 679.175049,307.007477 696.097412,307.007477 
	C696.097412,289.423798 696.097412,272.375366 696.097412,254.721939 
	C705.053589,254.721939 713.652893,254.721939 722.019714,255.714584 
	C722.019714,281.105652 722.019714,306.496735 722.019714,331.664917 
	C731.082458,331.664917 739.485229,331.664917 747.926270,331.664917 
	C747.926270,305.866241 747.926270,280.401733 748.871277,254.994690 
	C756.795654,254.994690 764.719971,254.994690 772.632019,254.994690 
	C772.632019,246.059662 772.632019,237.555679 772.632019,229.343887 
	C764.205872,229.343887 756.148560,229.343887 748.068054,229.343887 
	C748.068054,238.150940 748.068054,246.615112 747.124695,255.006409 
	C738.789124,254.962250 730.453552,254.918076 722.007446,253.958313 
	C722.007446,245.697327 722.007446,237.436340 722.007446,229.304077 
	C695.990173,229.304077 670.587463,229.304077 644.788208,229.304077 
	C644.788208,238.013901 644.788208,246.425659 644.788208,254.693756 
	C627.315735,254.693756 610.244629,254.693756 592.778870,254.693756 
	C592.778870,245.979858 592.778870,237.567749 592.778870,228.776062 
	C575.307861,228.776062 558.234070,228.776062 540.924194,228.776062 
	C540.924194,220.229599 540.924194,212.080414 541.869507,203.994308 
	C550.121216,203.994308 558.372925,203.994308 566.649658,203.994308 
	C566.649658,195.083664 566.649658,186.585327 566.649658,178.068817 
	C557.841492,178.068817 549.382812,178.068817 540.993835,177.125137 
	C540.971313,160.062500 540.948730,142.999863 541.871277,125.994682 
	C550.134949,125.994682 558.398560,125.994682 566.632019,125.994682 
	C566.632019,108.717453 566.632019,91.887085 566.632019,75.352974 
	C557.866516,75.352974 549.469788,75.352974 541.067993,75.352974 
	C541.067993,92.496452 541.067993,109.287849 540.124634,126.006424 
	C532.060120,126.029564 523.995667,126.052696 515.994263,125.130478 
	C515.971558,99.732727 515.948853,74.334976 516.871277,48.994678 
	C524.795654,48.994678 532.720032,48.994678 540.632080,48.994678 
	C540.632080,40.059677 540.632080,31.555693 540.632080,23.343880 
	C532.205933,23.343880 524.148621,23.343880 516.067993,23.343880 
	C516.067993,32.150890 516.067993,40.615074 515.124634,49.006424 
	C506.866547,49.006424 498.608490,49.006424 490.068878,49.006424 
	C490.068878,74.982574 490.068878,100.529198 489.125183,126.006180 
	C480.864075,126.006180 472.602936,126.006180 463.841553,126.006180 
	C463.841553,100.081360 463.841553,74.600929 463.841553,49.075836 
	C454.866302,49.075836 446.398743,49.075836 437.994293,48.130497 
	C437.994293,39.879108 437.994293,31.627722 437.994293,23.350910 
	C429.417358,23.350910 421.251282,23.350910 413.068878,23.350910 
	C413.068878,32.159187 413.068878,40.617496 412.125183,49.006180 
	C395.203033,49.006180 378.280853,49.006180 360.975403,49.006180 
	C360.975403,40.177906 360.975403,31.774702 360.975403,23.196625 
	C352.193268,23.196625 343.798035,23.196625 334.839722,23.196625 
	C334.839722,31.904354 334.839722,40.432354 334.839722,48.648766 
	C326.206604,48.648766 318.138672,48.648766 309.701965,48.648766 
	C309.701965,39.896122 309.701965,31.494398 309.701965,23.333334 
	C300.913574,23.333334 292.514435,23.333334 283.742737,23.333334 
	C283.742737,32.065098 283.742737,40.467899 283.742737,49.073456 
	C274.883636,49.073456 266.410522,49.073456 257.994690,48.128494 
	C257.994690,39.871330 257.994690,31.614162 257.994690,23.368130 
	C249.059830,23.368130 240.555893,23.368130 232.343384,23.368130 
	C232.343384,32.126892 232.343384,40.516815 232.343384,48.931683 
	C241.150330,48.931683 249.614899,48.931683 258.006409,49.875069 
	C258.006409,58.141907 258.006409,66.408745 258.006409,75.054115 
	C249.147446,75.054115 240.744415,75.054115 232.358337,75.054115 
	C232.358337,100.936226 232.358337,126.430031 232.358337,151.651276 
	C241.117691,151.651276 249.517624,151.651276 258.287903,151.651276 
	C258.287903,142.903214 258.287903,134.500641 258.287903,126.085136 
	C275.803680,126.085136 292.932892,126.085136 309.993652,126.011894 
	C309.993652,126.011894 309.920563,125.943314 309.995209,126.885124 
	C309.995209,135.153763 309.995209,143.422409 309.995209,152.073090 
	C301.129120,152.073090 292.723785,152.073090 283.807556,152.073090 
	C283.807556,195.284134 283.807556,238.107224 283.807556,281.282837 
	C249.239212,281.282837 215.194427,281.282837 181.075821,281.282837 
	C181.075821,290.116852 181.075821,298.592834 180.130478,307.005737 
	C171.728378,307.026764 163.326294,307.047821 154.993835,306.125153 
	C154.993835,289.196991 154.993835,272.268829 154.993835,254.953339 
	C146.153442,254.953339 137.748230,254.953339 128.962875,254.953339 
	C128.962875,246.166565 128.962875,237.761261 128.962875,229.355804 
	C94.407661,229.355804 60.244926,229.355804 26.320423,229.355804 
	C26.320423,263.756866 26.320423,297.802490 26.320423,331.924164 
	C35.116001,331.924164 43.592403,331.924164 52.005703,332.869507 
	C52.005703,341.232422 52.005703,349.595367 52.005703,357.931122 
	C61.180367,357.931122 69.628090,357.931122 78.006180,358.874817 
	C78.006180,375.885315 78.006180,392.895782 78.006180,409.924164 
	C86.817696,409.924164 94.943253,409.924164 103.005699,410.869507 
	C103.005699,418.789001 103.005699,426.708527 103.005699,435.073334 
	C85.705811,435.073334 68.821732,435.073334 51.994705,434.128387 
	C51.994705,417.545868 51.994705,400.963379 51.994705,384.368195 
	C43.073139,384.368195 34.562904,384.368195 26.333778,384.368195 
	C26.333778,401.450653 26.333778,418.165009 26.333778,434.931549 
	C35.137543,434.931549 43.608627,434.931549 52.006454,435.874939 
	C52.006454,444.138855 52.006454,452.402740 52.006454,461.041748 
	C60.844501,461.041748 69.243721,461.041748 78.015030,461.041748 
	C78.015030,469.813660 78.015030,478.213959 78.015030,486.656219 
	C95.231682,486.656219 112.063507,486.656219 129.274033,486.656219 
	C129.274033,477.916107 129.274033,469.516937 129.274033,460.924164 
	C138.126968,460.924164 146.597885,460.924164 155.005692,461.869507 
	C155.005692,470.232422 155.005692,478.595337 155.005692,486.931152 
	C164.180374,486.931152 172.628082,486.931152 181.006165,487.874847 
	C181.006165,496.135437 181.006165,504.395996 181.006165,512.643494 
	C198.271667,512.643494 215.096893,512.643494 232.294373,512.643494 
	C232.294373,503.893524 232.294373,495.499207 232.294373,486.931152 
	C241.139435,486.931152 249.607605,486.931152 258.006165,487.874847 
	C258.006165,513.118286 258.006165,538.361694 258.006165,564.165283 
	C249.093430,564.165283 240.566147,564.165283 232.353638,564.165283 
	C232.353638,573.128784 232.353638,581.528442 232.353638,590.280762 
	C249.759415,590.280762 266.813568,590.280762 284.075836,590.280762 
	C284.075836,599.122925 284.075836,607.595886 283.130493,616.005737 
	C274.879272,616.005737 266.628052,616.005737 258.348877,616.005737 
	C258.348877,624.913879 258.348877,633.412048 258.348877,641.924255 
	C267.154175,641.924255 275.611511,641.924255 284.005707,642.869629 
M748.874878,744.993835 
	C756.799438,744.993835 764.724060,744.993835 772.659302,744.993835 
	C772.659302,727.411438 772.659302,710.260925 772.659302,693.068787 
	C764.187805,693.068787 756.056030,693.068787 747.993835,692.125122 
	C747.993835,683.853882 747.993835,675.582642 747.993835,666.926636 
	C756.536621,666.926636 764.609558,666.926636 772.769104,666.926636 
	C772.769104,658.465088 772.769104,650.398499 772.769104,641.949341 
	C755.812439,641.949341 739.081604,641.949341 721.721375,641.949341 
	C721.721375,632.961914 721.721375,624.354553 722.714111,615.980225 
	C731.116028,615.980225 739.517944,615.980225 747.931580,615.980225 
	C747.931580,598.175720 747.931580,581.047852 748.874939,563.993530 
	C756.808044,563.993530 764.741089,563.993530 772.634705,563.993530 
	C772.634705,538.045227 772.634705,512.553467 772.634705,487.355225 
	C764.201416,487.355225 756.134521,487.355225 748.073364,487.355225 
	C748.073364,513.160461 748.073364,538.611267 747.128357,564.005249 
	C738.791748,563.961304 730.455139,563.917297 722.007507,562.957825 
	C722.007507,537.721985 722.007507,512.486084 722.007507,487.253113 
	C704.400818,487.253113 687.344177,487.253113 670.246704,487.253113 
	C670.246704,495.905334 670.246704,504.302887 670.246704,513.087280 
	C678.889038,513.087280 687.294006,513.087280 696.063843,513.087280 
	C696.063843,530.199768 696.063843,546.926392 696.063843,563.721375 
	C705.045349,563.721375 713.649109,563.721375 722.019775,564.714111 
	C721.970947,581.769897 721.922180,598.825684 720.957825,615.992493 
	C712.696960,615.992493 704.436035,615.992493 695.789429,615.992493 
	C695.789429,606.990540 695.789429,598.579041 695.789429,589.785522 
	C686.983276,589.785522 678.571655,589.785522 669.780273,589.785522 
	C669.780273,572.315247 669.780273,555.241821 669.780273,537.779907 
	C652.645081,537.779907 635.905090,537.779907 618.926636,537.779907 
	C618.926636,529.234680 618.926636,521.086304 619.871704,512.994751 
	C628.128845,512.994751 636.386047,512.994751 644.631714,512.994751 
	C644.631714,504.059692 644.631714,495.555786 644.631714,487.343506 
	C635.872803,487.343506 627.482910,487.343506 619.068420,487.343506 
	C619.068420,496.150696 619.068420,504.615326 618.125061,513.006470 
	C609.856140,513.006470 601.587219,513.006470 592.936646,513.006470 
	C592.936646,521.530762 592.936646,529.601746 592.936646,537.793091 
	C575.489563,537.793091 558.433167,537.793091 540.987183,537.793091 
	C540.987183,529.524658 540.987183,521.453064 540.987183,513.196533 
	C532.532776,513.196533 524.468567,513.196533 516.354614,513.196533 
	C516.354614,530.234680 516.354614,547.076050 516.354614,564.303345 
	C524.778137,564.303345 532.850098,564.303345 540.661316,564.303345 
	C540.661316,573.097473 540.661316,581.499207 540.661316,590.264526 
	C523.596619,590.264526 506.869751,590.264526 490.075836,590.264526 
	C490.075836,599.118042 490.075836,607.593445 489.130493,616.005737 
	C480.853943,616.005737 472.577393,616.005737 463.908936,616.005737 
	C463.908936,607.113831 463.908936,598.702087 463.908936,590.250366 
	C455.101624,590.250366 446.696899,590.250366 437.894989,590.250366 
	C437.894989,598.903687 437.894989,607.315796 437.894989,616.113892 
	C429.423889,616.113892 421.344971,616.113892 412.881348,616.113892 
	C412.881348,633.251465 412.881348,649.992920 412.881348,667.126709 
	C404.077301,667.126709 395.667450,667.126709 387.268188,667.126709 
	C387.268188,675.935181 387.268188,684.340393 387.268188,693.140625 
	C395.940430,693.140625 404.351013,693.140625 413.149536,693.140625 
	C413.149536,701.946106 413.149536,710.357666 413.149536,719.154175 
	C430.287598,719.154175 447.029053,719.154175 463.720490,719.154175 
	C463.720490,727.962585 463.720490,736.368591 463.720490,745.168274 
	C455.034515,745.168274 446.622314,745.168274 438.289001,745.168274 
	C438.289001,753.644409 438.289001,761.717041 438.289001,769.708618 
	C464.315277,769.708618 490.052399,769.708618 516.187256,769.708618 
	C516.187256,761.344971 516.187256,753.265808 516.187256,745.296509 
	C524.664124,745.296509 532.737305,745.296509 541.202209,745.296509 
	C541.202209,753.667297 541.202209,761.745911 541.202209,769.696716 
	C576.006592,769.696716 610.409790,769.696716 644.692505,769.696716 
	C644.692505,761.317810 644.692505,753.244507 644.692505,744.782410 
	C618.648254,744.782410 592.908997,744.782410 566.926636,744.782410 
	C566.926636,735.902466 566.926636,727.420166 567.871704,718.994751 
	C576.128906,718.994751 584.386047,718.994751 592.631714,718.994751 
	C592.631714,710.060242 592.631714,701.555969 592.631714,693.343506 
	C583.872742,693.343506 575.482849,693.343506 567.068420,693.343506 
	C567.068420,702.150696 567.068420,710.615295 566.125061,719.006470 
	C557.868286,719.006470 549.611572,719.006470 540.814209,719.006470 
	C540.814209,710.067688 540.814209,701.550476 540.814209,692.689453 
	C532.208069,692.689453 524.148254,692.689453 515.931213,692.689453 
	C515.931213,683.852661 515.931213,675.388428 516.874939,666.993835 
	C559.450439,666.993835 602.025940,666.993835 644.632812,666.993835 
	C644.632812,675.914246 644.632812,684.431641 644.632812,693.332397 
	C635.860474,693.332397 627.454895,693.332397 619.358643,693.332397 
	C619.358643,702.131165 619.358643,710.535095 619.358643,719.303589 
	C636.444946,719.303589 653.174561,719.303589 670.276245,719.303589 
	C670.276245,736.413940 670.276245,753.143433 670.276245,769.674805 
	C679.063171,769.674805 687.465149,769.674805 696.246399,769.674805 
	C696.246399,761.281128 696.246399,753.207458 696.246399,744.924194 
	C705.114685,744.924194 713.591736,744.924194 722.005676,745.869568 
	C722.005676,753.788391 722.005676,761.707275 722.005676,769.650146 
	C730.916321,769.650146 739.414368,769.650146 747.931213,769.650146 
	C747.931213,761.175537 747.931213,753.049866 748.874878,744.993835 
M129.005310,538.871277 
	C129.005310,547.138367 129.005310,555.405396 129.005310,563.632019 
	C155.288193,563.632019 181.114761,563.632019 206.641815,563.632019 
	C206.641815,554.862915 206.641815,546.462952 206.641815,538.068054 
	C180.496582,538.068054 154.708664,538.068054 128.993591,537.124695 
	C128.993591,529.190674 128.993591,521.256714 128.993591,513.208984 
	C111.815994,513.208984 95.096748,513.208984 77.990753,513.208984 
	C77.990753,521.475830 77.990753,529.546509 77.990753,538.167969 
	C69.090981,538.167969 60.562809,538.167969 52.356712,538.167969 
	C52.356712,547.133606 52.356712,555.534241 52.356712,563.666870 
	C69.434975,563.666870 86.156433,563.666870 103.257050,563.666870 
	C103.257050,554.935120 103.257050,546.532227 103.257050,537.926270 
	C112.116364,537.926270 120.589561,537.926270 129.005310,538.871277 
M674.499939,203.189285 
	C707.256531,203.189285 740.013123,203.189285 772.828857,203.189285 
	C772.828857,143.035873 772.828857,83.355278 772.828857,23.700100 
	C712.819641,23.700100 653.126648,23.700100 593.416687,23.700100 
	C593.416687,83.641701 593.416687,143.205582 593.416687,203.189285 
	C620.276001,203.189285 646.887939,203.189285 674.499939,203.189285 
M187.499298,23.325096 
	C134.043640,23.325096 80.587990,23.325096 26.996490,23.325096 
	C26.996490,83.533440 26.996490,143.238907 26.996490,202.901627 
	C86.910683,202.901627 146.492813,202.901627 206.111389,202.901627 
	C206.111389,143.016388 206.111389,83.417183 206.111389,23.325108 
	C200.093155,23.325108 194.295853,23.325108 187.499298,23.325096 
M50.500008,770.077026 
	C102.410553,770.077026 154.321106,770.077026 206.020050,770.077026 
	C206.020050,709.677612 206.020050,649.957214 206.020050,590.244873 
	C146.108673,590.244873 86.521652,590.244873 26.891796,590.244873 
	C26.891796,650.221497 26.891796,709.953369 26.891796,770.077026 
	C34.573730,770.077026 42.036873,770.077026 50.500008,770.077026 
M361.001129,767.321655 
	C361.778961,768.213684 362.537872,769.860535 363.337585,769.880554 
	C371.111847,770.075256 378.892975,769.997620 386.768555,769.997620 
	C386.768555,752.804077 386.768555,736.068115 386.768555,719.234619 
	C378.132507,719.234619 369.728699,719.234619 361.000854,719.234619 
	C361.000854,735.093384 361.000854,750.720520 361.001129,767.321655 
M234.678314,229.001129 
	C233.786346,229.778809 232.139496,230.537582 232.119476,231.337112 
	C231.924759,239.110931 232.002411,246.891571 232.002411,254.768661 
	C240.862106,254.768661 249.265366,254.768661 257.766357,254.768661 
	C257.766357,246.133331 257.766357,237.730103 257.766357,229.000870 
	C250.243027,229.000870 242.947632,229.000870 234.678314,229.001129 
M198.459335,254.999146 
	C201.231354,254.999146 204.003372,254.999146 206.724915,254.999146 
	C206.724915,246.046295 206.724915,237.642929 206.724915,229.275818 
	C198.044495,229.275818 189.641266,229.275818 181.276550,229.275818 
	C181.276550,237.956711 181.276550,246.360092 181.276550,254.999146 
	C186.856155,254.999146 192.162125,254.999146 198.459335,254.999146 
M255.318939,178.001129 
	C247.569611,178.001129 239.820282,178.001129 232.355377,178.001129 
	C232.355377,187.114471 232.355377,195.522995 232.355377,203.641586 
	C241.120667,203.641586 249.529373,203.641586 257.999054,203.641586 
	C257.999054,195.955338 258.070526,188.625031 257.922577,181.299164 
	C257.900208,180.190475 256.856812,179.102417 255.318939,178.001129 
M51.999134,493.573608 
	C51.999134,491.468994 51.999134,489.364380 51.999134,487.264282 
	C43.068874,487.264282 34.665493,487.264282 26.265490,487.264282 
	C26.265490,495.933441 26.265490,504.336853 26.265490,512.733398 
	C34.935833,512.733398 43.339314,512.733398 51.999134,512.733398 
	C51.999134,506.500824 51.999134,500.530426 51.999134,493.573608 
z"/>
<path fill="#000000" opacity="1.000000" stroke="none" 
	d="
M181.075821,307.068817 
	C181.075821,298.592834 181.075821,290.116852 181.075821,281.282837 
	C215.194427,281.282837 249.239212,281.282837 283.807556,281.282837 
	C283.807556,238.107224 283.807556,195.284134 283.807556,152.073090 
	C292.723785,152.073090 301.129120,152.073090 309.995209,152.073090 
	C309.995209,143.422409 309.995209,135.153763 310.431213,126.440491 
	C318.801361,125.995865 326.735504,125.995865 335.047424,125.995865 
	C335.047424,117.152527 335.047424,108.751068 335.047424,99.974518 
	C343.824921,99.974518 352.227570,99.974518 360.804688,99.974518 
	C360.804688,91.526657 360.804688,83.464729 360.804688,75.345734 
	C343.770813,75.345734 326.934418,75.345734 310.062134,75.345734 
	C310.062134,92.489304 310.062134,109.287216 310.062134,126.085136 
	C292.932892,126.085136 275.803680,126.085136 258.287903,126.085136 
	C258.287903,134.500641 258.287903,142.903214 258.287903,151.651276 
	C249.517624,151.651276 241.117691,151.651276 232.358337,151.651276 
	C232.358337,126.430031 232.358337,100.936226 232.358337,75.054115 
	C240.744415,75.054115 249.147446,75.054115 258.006409,75.054115 
	C258.006409,66.408745 258.006409,58.141907 258.006287,49.437668 
	C258.006165,49.000271 257.937439,49.073456 257.937439,49.073456 
	C266.410522,49.073456 274.883636,49.073456 283.742737,49.073456 
	C283.742737,40.467899 283.742737,32.065098 283.742737,23.333334 
	C292.514435,23.333334 300.913574,23.333334 309.701965,23.333334 
	C309.701965,31.494398 309.701965,39.896122 309.701965,48.648766 
	C318.138672,48.648766 326.206604,48.648766 334.839722,48.648766 
	C334.839722,40.432354 334.839722,31.904354 334.839722,23.196625 
	C343.798035,23.196625 352.193268,23.196625 360.975403,23.196625 
	C360.975403,31.774702 360.975403,40.177906 360.975403,49.006180 
	C378.280853,49.006180 395.203033,49.006180 412.562622,49.004284 
	C413.000031,49.002388 412.930054,48.930061 412.962555,49.402130 
	C412.995056,58.124702 412.995056,66.375206 412.995056,74.650879 
	C421.582733,74.650879 429.748108,74.650879 438.069946,74.650879 
	C438.069946,65.844727 438.069946,57.387394 438.034973,48.966248 
	C438.000000,49.002438 437.931183,49.075836 437.931183,49.075836 
	C446.398743,49.075836 454.866302,49.075836 463.841553,49.075836 
	C463.841553,74.600929 463.841553,100.081360 463.841553,126.006180 
	C472.602936,126.006180 480.864075,126.006180 489.562622,126.004288 
	C490.000031,126.002388 489.930054,125.930061 489.962555,126.402130 
	C489.995056,135.125031 489.995056,143.375885 489.995056,151.651382 
	C498.915771,151.651382 507.414093,151.651382 516.069946,151.651382 
	C516.069946,142.845413 516.069946,134.387741 516.034973,125.966232 
	C516.000000,126.002411 515.931152,126.075829 515.931152,126.075829 
	C523.995667,126.052696 532.060120,126.029564 540.562012,126.006172 
	C540.999390,126.005920 540.926208,125.937225 540.926208,125.937225 
	C540.948730,142.999863 540.971313,160.062500 540.995728,177.562561 
	C540.997620,177.999985 541.069946,177.930054 540.597900,177.962555 
	C532.097229,177.995056 524.068604,177.995056 515.930054,177.995056 
	C515.930054,187.179428 515.930054,195.624680 515.965027,204.034973 
	C516.000000,204.000000 516.069946,203.930054 515.597900,203.962555 
	C506.865753,203.995056 498.605682,203.995056 489.977051,203.995056 
	C489.977051,195.174332 489.977051,186.778397 489.977051,178.355438 
	C481.088928,178.355438 472.581360,178.355438 463.706360,178.355438 
	C463.706360,187.104431 463.706360,195.498093 463.706360,203.930054 
	C454.863525,203.930054 446.396790,203.930054 437.965027,203.965027 
	C438.000000,204.000000 438.069946,204.069946 438.037415,203.597870 
	C438.004913,194.765228 438.004913,186.404663 438.004913,177.930054 
	C429.157349,177.930054 421.043701,177.930054 412.965027,177.965027 
	C413.000000,178.000000 413.069946,178.069946 413.037415,177.597870 
	C413.004913,168.861969 413.004913,160.598129 413.004913,151.959717 
	C404.158508,151.959717 395.758484,151.959717 386.988953,151.959717 
	C386.988953,143.188660 386.988953,134.788605 386.988953,126.358368 
	C378.090973,126.358368 369.579437,126.358368 360.694641,126.358368 
	C360.694641,135.114456 360.694641,143.513214 360.694641,152.276108 
	C351.915527,152.276108 343.516510,152.276108 334.930054,152.276108 
	C334.930054,161.128265 334.930054,169.599106 334.965027,178.034973 
	C335.000000,178.000000 335.069946,177.930054 334.597839,177.962555 
	C326.201355,177.995056 318.276947,177.995056 310.338562,177.995056 
	C310.338562,195.252884 310.338562,212.070389 310.338562,229.069946 
	C318.807617,229.069946 326.938782,229.069946 335.034973,229.034973 
	C335.000000,229.000000 334.930054,228.930054 334.962585,229.402130 
	C335.022003,238.272461 335.048950,246.670731 334.603210,255.036942 
	C326.211334,255.004898 318.292114,255.004898 310.348938,255.004898 
	C310.348938,263.916046 310.348938,272.414581 310.348938,280.930939 
	C318.823822,280.930939 326.949829,280.930939 335.040588,281.402771 
	C335.005341,290.131561 335.005341,298.388550 335.005341,307.011108 
	C326.518738,307.011108 318.459045,307.011108 309.930054,307.011108 
	C309.930054,324.276978 309.930054,341.173462 309.965027,358.034973 
	C310.000000,358.000000 310.069946,357.930054 309.597809,357.962555 
	C292.113892,357.995056 275.102112,357.995056 257.930054,357.995056 
	C257.930054,367.152222 257.930054,375.611084 257.965027,384.034973 
	C258.000000,384.000000 258.069946,383.930054 257.597809,383.962555 
	C248.865143,383.995056 240.604614,383.995056 231.974640,383.995056 
	C231.974640,392.827881 231.974640,401.224365 231.974640,409.665833 
	C214.770813,409.665833 197.946121,409.665833 181.069946,409.665833 
	C181.069946,400.864594 181.069946,392.397308 181.034973,383.965027 
	C181.000000,384.000000 180.930054,384.069946 181.402130,384.037415 
	C190.235535,384.004913 198.596878,384.004913 207.069946,384.004913 
	C207.069946,374.822540 207.069946,366.376282 207.034973,357.965027 
	C207.000000,358.000000 206.930054,358.069946 207.402130,358.037415 
	C215.902451,358.004913 223.930695,358.004913 231.926575,358.004913 
	C231.926575,348.825043 231.926575,340.381256 232.399017,331.966492 
	C241.128677,331.995514 249.385880,331.995514 257.632721,331.995514 
	C257.632721,323.394226 257.632721,315.222260 257.632721,307.341797 
	C248.873718,307.341797 240.483612,307.341797 232.068451,307.341797 
	C232.068451,315.815491 232.068451,323.947540 231.596786,332.042603 
	C223.060104,331.980438 214.995071,331.955261 206.965027,331.965027 
	C207.000000,332.000000 207.069946,332.069946 207.037445,331.597839 
	C207.004944,323.097168 207.004944,315.068573 207.004944,306.930054 
	C197.820572,306.930054 189.375305,306.930054 180.966248,306.965027 
	C181.002426,306.999969 181.075821,307.068817 181.075821,307.068817 
z"/>
<path fill="#000000" opacity="1.000000" stroke="none" 
	d="
M438.061371,538.084534 
	C429.999176,538.054321 421.936951,538.024048 413.437347,537.995789 
	C412.999939,537.997742 413.069946,538.069946 413.037415,537.597900 
	C413.004913,529.201172 413.004913,521.276611 413.004913,513.338257 
	C395.413605,513.338257 378.263214,513.338257 360.930054,513.338257 
	C360.930054,521.807312 360.930054,529.938660 360.965057,538.033813 
	C361.000061,537.997620 361.068848,537.924255 361.068848,537.924255 
	C352.612366,537.924255 344.155853,537.924255 335.160339,537.924255 
	C335.160339,529.754211 335.160339,521.576172 335.160339,512.993835 
	C326.710510,512.993835 318.792664,512.993835 310.437378,512.995728 
	C309.999939,512.997620 310.069946,513.069946 310.037415,512.597900 
	C309.977997,503.727509 309.951080,495.329254 310.396790,486.963043 
	C318.788635,486.995117 326.707855,486.995117 334.651062,486.995117 
	C334.651062,478.083923 334.651062,469.585419 334.651062,461.069061 
	C326.176178,461.069061 318.050171,461.069061 309.959412,460.597229 
	C310.019745,426.060272 310.044830,391.995178 310.069946,357.930054 
	C310.069946,357.930054 310.000000,358.000000 310.437134,358.002472 
	C318.809082,358.004944 326.743866,358.004944 335.057861,358.004944 
	C335.057861,349.142273 335.057861,340.738434 335.057861,331.811218 
	C361.274475,331.811218 387.108215,331.811218 413.320190,331.811218 
	C413.320190,323.205444 413.320190,315.134796 413.320190,306.696899 
	C421.776886,306.696899 429.847595,306.696899 437.663391,306.696899 
	C437.663391,297.906219 437.663391,289.506012 437.663391,281.075867 
	C420.528259,281.075867 403.729614,281.075867 386.963043,280.603210 
	C386.995117,263.104858 386.995117,246.079163 386.995117,228.930054 
	C369.156982,228.930054 352.043518,228.930054 334.930054,228.930054 
	C334.930054,228.930054 335.000000,229.000000 335.002472,228.562851 
	C335.026611,211.393814 335.048279,194.661942 335.069946,177.930054 
	C335.069946,177.930054 335.000000,178.000000 335.437134,178.002472 
	C344.134338,178.004944 352.394379,178.004944 361.023010,178.004944 
	C361.023010,186.825729 361.023010,195.221649 361.023010,203.644547 
	C369.911102,203.644547 378.418671,203.644547 387.293671,203.644547 
	C387.293671,194.895538 387.293671,186.501892 387.293671,178.069946 
	C396.136475,178.069946 404.603210,178.069946 413.069946,178.069946 
	C413.069946,178.069946 413.000000,178.000000 412.997528,178.437149 
	C412.995056,187.234833 412.995056,195.595383 412.995056,204.069946 
	C421.842651,204.069946 429.956299,204.069946 438.069946,204.069946 
	C438.069946,204.069946 438.000000,204.000000 437.997528,204.437134 
	C437.995056,212.802048 437.995056,220.729797 437.995056,229.027069 
	C429.503937,229.027069 421.441071,229.027069 413.358582,229.027069 
	C413.358582,237.916946 413.358582,246.424927 413.358582,255.069946 
	C430.501312,255.069946 447.285645,255.069946 464.033752,255.035004 
	C463.997589,255.000046 463.924164,254.931213 463.924164,254.931213 
	C463.924164,280.379425 463.924164,305.827606 463.924164,331.836182 
	C455.431671,331.836182 446.905731,331.836182 438.029358,331.836182 
	C438.029358,349.442719 438.029358,366.494476 438.029358,383.993591 
	C429.739044,383.993591 421.807068,383.993591 413.437744,383.993713 
	C413.000336,383.993835 413.073517,384.062561 413.073517,384.062561 
	C413.073517,375.580109 413.073517,367.097626 413.073517,358.307678 
	C395.757172,358.307678 378.684906,358.307678 361.210510,358.307678 
	C361.210510,366.575073 361.210510,374.987793 361.210510,383.795471 
	C352.415466,383.795471 344.002777,383.795471 335.297546,383.795471 
	C335.297546,400.930145 335.297546,417.668884 335.297546,434.809814 
	C343.596039,434.809814 352.008759,434.809814 360.815796,434.809814 
	C360.815796,443.605560 360.815796,452.018219 360.815796,460.712585 
	C369.615326,460.712585 378.021515,460.712585 386.831421,460.712585 
	C386.831421,452.381439 386.831421,443.968903 386.831421,435.282013 
	C395.631165,435.282013 404.036987,435.282013 412.845520,435.282013 
	C412.845520,452.307281 412.845520,469.382233 412.845520,486.727112 
	C421.311676,486.727112 429.384552,486.727112 437.860535,486.727112 
	C437.860535,478.350006 437.860535,469.938721 437.860535,461.267456 
	C446.661224,461.267456 455.066528,461.267456 463.875305,461.267456 
	C463.875305,469.669281 463.875305,478.080048 463.875305,486.884521 
	C472.675812,486.884521 481.086365,486.884521 489.744507,486.884521 
	C489.744507,512.687500 489.744507,538.091309 489.744507,563.747559 
	C472.639709,563.747559 455.568726,563.747559 437.995148,563.747559 
	C437.995148,555.433655 437.995148,547.159119 438.430908,538.440186 
	C447.124878,537.995911 455.383087,537.995911 463.632812,537.995911 
	C463.632812,529.395386 463.632812,521.222900 463.632812,513.342590 
	C454.873383,513.342590 446.482758,513.342590 438.061371,513.342590 
	C438.061371,521.818176 438.061371,529.951355 438.061371,538.084534 
z"/>
<path fill="#000000" opacity="1.000000" stroke="none" 
	d="
M618.926636,512.937866 
	C618.926636,521.086304 618.926636,529.234680 618.926636,537.779907 
	C635.905090,537.779907 652.645081,537.779907 669.780273,537.779907 
	C669.780273,555.241821 669.780273,572.315247 669.780273,589.785522 
	C678.571655,589.785522 686.983276,589.785522 695.789429,589.785522 
	C695.789429,598.579041 695.789429,606.990540 695.789429,615.992493 
	C704.436035,615.992493 712.696960,615.992493 721.380737,615.906250 
	C721.803711,615.820068 721.721375,615.747192 721.721375,615.747192 
	C721.721375,624.354553 721.721375,632.961914 721.721375,641.949341 
	C739.081604,641.949341 755.812439,641.949341 772.769104,641.949341 
	C772.769104,650.398499 772.769104,658.465088 772.769104,666.926636 
	C764.609558,666.926636 756.536621,666.926636 747.993835,666.926636 
	C747.993835,675.582642 747.993835,683.853882 747.995728,692.562500 
	C747.997620,692.999939 748.069946,692.930054 747.597839,692.962524 
	C738.873779,692.994995 730.621765,692.994995 721.930054,692.994995 
	C721.930054,710.632690 721.930054,727.851318 721.964966,745.033752 
	C721.999939,744.997559 722.068726,744.924194 722.068726,744.924194 
	C713.591736,744.924194 705.114685,744.924194 696.246399,744.924194 
	C696.246399,753.207458 696.246399,761.281128 696.246399,769.674805 
	C687.465149,769.674805 679.063171,769.674805 670.276245,769.674805 
	C670.276245,753.143433 670.276245,736.413940 670.276245,719.303589 
	C653.174561,719.303589 636.444946,719.303589 619.358643,719.303589 
	C619.358643,710.535095 619.358643,702.131165 619.358643,693.332397 
	C627.454895,693.332397 635.860474,693.332397 644.632812,693.332397 
	C644.632812,684.431641 644.632812,675.914246 644.632812,666.993835 
	C602.025940,666.993835 559.450439,666.993835 516.437500,666.995728 
	C516.000000,666.997620 516.069946,667.069946 516.037476,666.597900 
	C516.004944,658.197998 516.004944,650.270264 516.004944,641.972961 
	C524.495972,641.972961 532.558838,641.972961 540.641479,641.972961 
	C540.641479,633.083069 540.641479,624.575134 540.641479,615.930054 
	C523.498718,615.930054 506.714386,615.930054 489.966248,615.965027 
	C490.002411,616.000000 490.075836,616.068848 490.075836,616.068848 
	C490.075836,607.593445 490.075836,599.118042 490.075836,590.264526 
	C506.869751,590.264526 523.596619,590.264526 540.661316,590.264526 
	C540.661316,581.499207 540.661316,573.097473 540.661316,564.303345 
	C532.850098,564.303345 524.778137,564.303345 516.354614,564.303345 
	C516.354614,547.076050 516.354614,530.234680 516.354614,513.196533 
	C524.468567,513.196533 532.532776,513.196533 540.987183,513.196533 
	C540.987183,521.453064 540.987183,529.524658 540.987183,537.793091 
	C558.433167,537.793091 575.489563,537.793091 592.936646,537.793091 
	C592.936646,529.601746 592.936646,521.530762 592.936646,513.006470 
	C601.587219,513.006470 609.856140,513.006470 618.562439,513.006592 
	C618.999817,513.006653 618.926636,512.937866 618.926636,512.937866 
M645.000000,586.500000 
	C645.000000,579.067871 645.000000,571.635803 645.000000,564.287659 
	C618.687561,564.287659 592.951538,564.287659 567.287659,564.287659 
	C567.287659,590.312378 567.287659,616.048401 567.287659,641.712341 
	C593.312378,641.712341 619.048401,641.712341 645.000000,641.712341 
	C645.000000,623.450378 645.000000,605.475159 645.000000,586.500000 
M670.003967,643.709595 
	C670.003967,660.119629 670.003967,676.529663 670.003967,692.635132 
	C679.134583,692.635132 687.544678,692.635132 695.631958,692.635132 
	C695.631958,675.530151 695.631958,658.790833 695.631958,642.744019 
	C686.857727,642.744019 678.457031,642.744019 670.003967,643.709595 
z"/>
<path fill="#000000" opacity="1.000000" stroke="none" 
	d="
M566.926636,718.937866 
	C566.926636,727.420166 566.926636,735.902466 566.926636,744.782410 
	C592.908997,744.782410 618.648254,744.782410 644.692505,744.782410 
	C644.692505,753.244507 644.692505,761.317810 644.692505,769.696716 
	C610.409790,769.696716 576.006592,769.696716 541.202209,769.696716 
	C541.202209,761.745911 541.202209,753.667297 541.202209,745.296509 
	C532.737305,745.296509 524.664124,745.296509 516.187256,745.296509 
	C516.187256,753.265808 516.187256,761.344971 516.187256,769.708618 
	C490.052399,769.708618 464.315277,769.708618 438.289001,769.708618 
	C438.289001,761.717041 438.289001,753.644409 438.289001,745.168274 
	C446.622314,745.168274 455.034515,745.168274 463.720490,745.168274 
	C463.720490,736.368591 463.720490,727.962585 463.720490,719.154175 
	C447.029053,719.154175 430.287598,719.154175 413.149536,719.154175 
	C413.149536,710.357666 413.149536,701.946106 413.149536,693.140625 
	C404.351013,693.140625 395.940430,693.140625 387.268188,693.140625 
	C387.268188,684.340393 387.268188,675.935181 387.268188,667.126709 
	C395.667450,667.126709 404.077301,667.126709 412.881348,667.126709 
	C412.881348,649.992920 412.881348,633.251465 412.881348,616.113892 
	C421.344971,616.113892 429.423889,616.113892 437.894989,616.113892 
	C437.894989,607.315796 437.894989,598.903687 437.894989,590.250366 
	C446.696899,590.250366 455.101624,590.250366 463.908936,590.250366 
	C463.908936,598.702087 463.908936,607.113831 463.908936,616.005737 
	C472.577393,616.005737 480.853943,616.005737 489.603149,616.037292 
	C490.075836,616.068848 490.002411,616.000000 489.998718,616.437134 
	C489.995056,633.553162 489.995056,650.231995 489.995056,667.069946 
	C499.152924,667.069946 507.611450,667.069946 516.069946,667.069946 
	C516.069946,667.069946 516.000000,666.997620 515.965576,666.960938 
	C515.931213,675.388428 515.931213,683.852661 515.931213,692.689453 
	C524.148254,692.689453 532.208069,692.689453 540.814209,692.689453 
	C540.814209,701.550476 540.814209,710.067688 540.814209,719.006470 
	C549.611572,719.006470 557.868286,719.006470 566.562439,719.006592 
	C566.999817,719.006653 566.926636,718.937866 566.926636,718.937866 
z"/>
<path fill="#000000" opacity="1.000000" stroke="none" 
	d="
M645.278259,307.252289 
	C645.278259,298.642761 645.278259,290.033234 645.278259,281.214020 
	C627.572449,281.214020 610.507446,281.214020 593.045715,281.214020 
	C593.045715,289.746338 593.045715,298.156097 593.045715,306.951294 
	C584.252197,306.951294 575.843567,306.951294 567.048157,306.951294 
	C567.048157,315.411652 567.048157,323.487061 567.048157,331.776001 
	C558.251892,331.776001 549.850220,331.776001 541.050964,331.776001 
	C541.050964,323.587830 541.050964,315.512421 541.050964,307.222900 
	C532.587708,307.222900 524.518982,307.222900 516.052368,307.222900 
	C516.052368,315.407379 516.052368,323.482697 516.052368,331.773926 
	C507.256195,331.773926 498.854492,331.773926 490.226135,331.773926 
	C490.226135,314.925659 490.226135,298.194092 490.226135,281.065552 
	C498.730682,281.065552 507.138977,281.065552 515.769653,281.065552 
	C515.769653,272.269531 515.769653,263.867554 515.769653,254.994308 
	C498.740570,254.994308 481.805054,254.994308 464.396851,254.962769 
	C463.924164,254.931213 463.997589,255.000046 464.001282,254.562866 
	C464.004944,245.868454 464.004944,237.611206 464.004944,228.842712 
	C481.581909,228.842712 498.738983,228.842712 516.069946,228.842712 
	C516.069946,220.193008 516.069946,212.061523 516.069946,203.930054 
	C516.069946,203.930054 516.000000,204.000000 516.437134,204.002472 
	C524.939514,204.026596 533.004700,204.048264 541.033752,204.034988 
	C540.997559,204.000046 540.924194,203.931229 540.924194,203.931229 
	C540.924194,212.080414 540.924194,220.229599 540.924194,228.776062 
	C558.234070,228.776062 575.307861,228.776062 592.778870,228.776062 
	C592.778870,237.567749 592.778870,245.979858 592.778870,254.693756 
	C610.244629,254.693756 627.315735,254.693756 644.788208,254.693756 
	C644.788208,246.425659 644.788208,238.013901 644.788208,229.304077 
	C670.587463,229.304077 695.990173,229.304077 722.007446,229.304077 
	C722.007446,237.436340 722.007446,245.697327 722.093445,254.381317 
	C722.179443,254.804306 722.252258,254.721939 722.252258,254.721939 
	C713.652893,254.721939 705.053589,254.721939 696.097412,254.721939 
	C696.097412,272.375366 696.097412,289.423798 696.097412,307.007477 
	C679.175049,307.007477 662.608459,307.007477 645.618896,307.093506 
	C645.195862,307.179504 645.278259,307.252289 645.278259,307.252289 
z"/>
<path fill="#020202" opacity="1.000000" stroke="none" 
	d="
M673.999878,203.189285 
	C646.887939,203.189285 620.276001,203.189285 593.416687,203.189285 
	C593.416687,143.205582 593.416687,83.641701 593.416687,23.700100 
	C653.126648,23.700100 712.819641,23.700100 772.828857,23.700100 
	C772.828857,83.355278 772.828857,143.035873 772.828857,203.189285 
	C740.013123,203.189285 707.256531,203.189285 673.999878,203.189285 
M618.998779,169.439606 
	C618.998779,172.189133 618.998779,174.938660 618.998779,177.578659 
	C662.319885,177.578659 704.896179,177.578659 747.636292,177.578659 
	C747.636292,134.631516 747.636292,91.940437 747.636292,49.292950 
	C704.629395,49.292950 661.916687,49.292950 618.998779,49.292950 
	C618.998779,89.208824 618.998779,128.830795 618.998779,169.439606 
z"/>
<path fill="#010101" opacity="1.000000" stroke="none" 
	d="
M187.998917,23.325102 
	C194.295853,23.325108 200.093155,23.325108 206.111389,23.325108 
	C206.111389,83.417183 206.111389,143.016388 206.111389,202.901627 
	C146.492813,202.901627 86.910683,202.901627 26.996490,202.901627 
	C26.996490,143.238907 26.996490,83.533440 26.996490,23.325096 
	C80.587990,23.325096 134.043640,23.325096 187.998917,23.325102 
M118.499939,177.836288 
	C139.261887,177.836288 160.023819,177.836288 180.798706,177.836288 
	C180.798706,134.592346 180.798706,91.987999 180.798706,49.306145 
	C137.878555,49.306145 95.163216,49.306145 52.401962,49.306145 
	C52.401962,92.204247 52.401962,134.792953 52.401962,177.836288 
	C74.258072,177.836288 95.878998,177.836288 118.499939,177.836288 
z"/>
<path fill="#010101" opacity="1.000000" stroke="none" 
	d="
M50.000015,770.077026 
	C42.036873,770.077026 34.573730,770.077026 26.891796,770.077026 
	C26.891796,709.953369 26.891796,650.221497 26.891796,590.244873 
	C86.521652,590.244873 146.108673,590.244873 206.020050,590.244873 
	C206.020050,649.957214 206.020050,709.677612 206.020050,770.077026 
	C154.321106,770.077026 102.410553,770.077026 50.000015,770.077026 
M52.160194,727.498047 
	C52.160194,733.104309 52.160194,738.710571 52.160194,744.501099 
	C95.334129,744.501099 137.920181,744.501099 180.755829,744.501099 
	C180.755829,701.573547 180.755829,658.852234 180.755829,616.203003 
	C137.814331,616.203003 95.110909,616.203003 52.160198,616.203003 
	C52.160198,653.219788 52.160198,689.859375 52.160194,727.498047 
z"/>
<path fill="#000000" opacity="1.000000" stroke="none" 
	d="
M669.721741,383.747711 
	C669.814270,408.235352 669.906860,432.722961 669.998657,457.210602 
	C670.002869,458.335114 669.999207,459.459595 669.999207,460.979980 
	C644.222229,460.979980 618.814880,460.979980 593.010498,460.979980 
	C593.010498,469.780792 593.010498,478.194122 593.010498,486.797180 
	C584.204834,486.797180 575.800110,486.797180 566.994263,486.797180 
	C566.994263,478.199036 566.994263,469.785706 566.994263,461.160980 
	C558.309998,461.160980 550.020630,461.160980 541.330994,461.160980 
	C541.330994,452.546112 541.330994,444.133057 541.330994,435.360596 
	C532.871033,435.360596 524.793945,435.360596 516.313721,435.360596 
	C516.313721,443.470673 516.313721,451.881317 516.313721,460.645569 
	C507.519684,460.645569 499.110291,460.645569 490.297424,460.645569 
	C490.297424,452.511292 490.297424,444.098541 490.297424,435.287415 
	C481.503754,435.287415 473.091583,435.287415 464.341248,435.287415 
	C464.341248,409.485657 464.341248,384.079895 464.341248,358.337036 
	C472.516754,358.337036 480.925201,358.337036 489.737061,358.337036 
	C489.737061,375.196869 489.737061,392.272369 489.737061,409.673279 
	C515.539246,409.673279 540.945068,409.673279 566.752930,409.673279 
	C566.752930,401.462799 566.752930,393.049957 566.752930,384.321106 
	C584.220642,384.321106 601.293396,384.321106 618.768677,384.321106 
	C618.768677,392.556885 618.768677,400.969696 618.768677,409.689270 
	C627.566650,409.689270 635.974304,409.689270 644.785950,409.689270 
	C644.785950,401.428558 644.785950,393.015869 644.785950,383.992493 
	C653.100952,383.992493 661.029541,383.992493 669.381104,383.906494 
	C669.804138,383.820496 669.721741,383.747711 669.721741,383.747711 
z"/>
<path fill="#000000" opacity="1.000000" stroke="none" 
	d="
M284.075836,616.068848 
	C284.075836,607.595886 284.075836,599.122925 284.075836,590.280762 
	C266.813568,590.280762 249.759415,590.280762 232.353638,590.280762 
	C232.353638,581.528442 232.353638,573.128784 232.353638,564.165283 
	C240.566147,564.165283 249.093430,564.165283 258.006165,564.165283 
	C258.006165,538.361694 258.006165,513.118286 258.004272,487.437439 
	C258.002411,487.000000 257.930054,487.069946 258.402130,487.037445 
	C267.274750,486.980286 275.675293,486.955627 284.040588,487.402771 
	C284.005341,496.236053 284.005341,504.597504 284.005341,513.069946 
	C293.177551,513.069946 301.623749,513.069946 310.069946,513.069946 
	C310.069946,513.069946 309.999939,512.997620 309.965515,512.960938 
	C309.931122,521.067566 309.931122,529.210876 309.931122,537.743896 
	C301.464661,537.743896 293.059509,537.743896 284.328613,537.743896 
	C284.328613,546.521851 284.328613,554.923279 284.328613,563.717224 
	C292.504822,563.717224 300.909515,563.717224 309.701935,563.717224 
	C309.701935,572.492371 309.701935,580.897278 309.701935,589.844055 
	C335.587860,589.844055 361.092926,589.844055 386.795959,589.844055 
	C386.795959,598.785034 386.795959,607.182495 386.795959,615.970459 
	C378.231598,615.970459 369.826080,615.970459 361.052551,615.970459 
	C361.052551,633.081482 361.052551,649.808594 361.052551,666.993835 
	C352.412994,666.993835 344.143890,666.993835 335.437378,666.995789 
	C334.999939,666.997742 335.069946,667.069946 335.037415,666.597839 
	C335.004913,658.097412 335.004913,650.069092 335.004913,641.930054 
	C326.155853,641.930054 318.042938,641.930054 309.965027,641.965027 
	C310.000000,642.000000 310.069946,642.069946 310.037415,641.597900 
	C310.004913,632.764465 310.004913,624.403076 310.004913,615.930054 
	C300.822571,615.930054 292.376312,615.930054 283.966248,615.965027 
	C284.002411,616.000000 284.075836,616.068848 284.075836,616.068848 
z"/>
<path fill="#000000" opacity="1.000000" stroke="none" 
	d="
M52.068802,331.924164 
	C43.592403,331.924164 35.116001,331.924164 26.320423,331.924164 
	C26.320423,297.802490 26.320423,263.756866 26.320423,229.355804 
	C60.244926,229.355804 94.407661,229.355804 128.962875,229.355804 
	C128.962875,237.761261 128.962875,246.166565 128.962875,254.953339 
	C137.748230,254.953339 146.153442,254.953339 154.993835,254.953339 
	C154.993835,272.268829 154.993835,289.196991 154.995728,306.562561 
	C154.997604,307.000000 155.069946,306.930054 154.597824,306.962555 
	C145.860703,306.995056 137.595688,306.995056 128.954193,306.995056 
	C128.954193,298.153473 128.954193,289.752167 128.954193,281.344147 
	C103.079880,281.344147 77.591080,281.344147 51.930061,281.344147 
	C51.930061,298.482025 51.930061,315.275970 51.965015,332.033752 
	C51.999969,331.997589 52.068802,331.924164 52.068802,331.924164 
z"/>
<path fill="#000000" opacity="1.000000" stroke="none" 
	d="
M334.965515,666.961060 
	C334.931091,701.051941 334.931091,735.179504 334.931091,769.653076 
	C300.732941,769.653076 266.566193,769.653076 232.199585,769.653076 
	C232.199585,735.554504 232.199585,701.505737 232.199585,667.006165 
	C249.264709,667.006165 266.194977,667.006165 283.562622,667.004211 
	C284.000061,667.002258 283.930054,666.930054 283.962585,667.402100 
	C283.995087,684.797607 283.995087,701.721008 283.995087,719.028137 
	C275.172913,719.028137 266.769104,719.028137 258.198486,719.028137 
	C258.198486,727.811829 258.198486,736.207764 258.198486,744.648254 
	C275.570892,744.648254 292.742554,744.648254 310.069946,744.648254 
	C310.069946,718.507812 310.069946,692.718933 310.034973,666.965027 
	C310.000000,667.000000 309.930054,667.069946 310.402130,667.037476 
	C318.939453,667.026611 327.004700,667.048279 335.069946,667.069946 
	C335.069946,667.069946 334.999939,666.997742 334.965515,666.961060 
z"/>
<path fill="#000000" opacity="1.000000" stroke="none" 
	d="
M154.960907,307.034424 
	C163.326294,307.047821 171.728378,307.026764 180.603149,307.037292 
	C181.075821,307.068817 181.002426,306.999969 180.998749,307.437134 
	C180.995056,315.902863 180.995056,323.931458 180.995056,332.069946 
	C190.179428,332.069946 198.624680,332.069946 207.069946,332.069946 
	C207.069946,332.069946 207.000000,332.000000 206.997528,332.437134 
	C206.973389,341.272858 206.951721,349.671387 206.930054,358.069946 
	C206.930054,358.069946 207.000000,358.000000 206.562851,357.997528 
	C197.764389,357.995056 189.403076,357.995056 180.930054,357.995056 
	C180.930054,367.177460 180.930054,375.623718 180.930054,384.069946 
	C180.930054,384.069946 181.000000,384.000000 180.562851,383.997528 
	C154.454605,383.995056 128.783508,383.995056 102.930061,383.995056 
	C102.930061,393.139832 102.930061,401.604889 102.965012,410.033752 
	C102.999969,409.997589 103.068802,409.924164 103.068802,409.924164 
	C94.943253,409.924164 86.817696,409.924164 78.006180,409.924164 
	C78.006180,392.895782 78.006180,375.885315 78.004288,358.437378 
	C78.002388,357.999969 77.930061,358.069946 78.402130,358.037445 
	C86.805641,358.004944 94.737091,358.004944 103.043129,358.004944 
	C103.043129,349.155731 103.043129,340.755371 103.043129,332.198730 
	C111.818909,332.198730 120.211662,332.198730 129.162964,332.198730 
	C129.162964,340.906891 129.162964,349.431946 129.162964,357.653137 
	C138.121490,357.653137 146.519150,357.653137 155.069946,357.653137 
	C155.069946,340.514404 155.069946,323.722229 155.069946,306.930054 
	C155.069946,306.930054 154.997604,307.000000 154.960907,307.034424 
z"/>
<path fill="#000000" opacity="1.000000" stroke="none" 
	d="
M258.039093,486.965576 
	C249.607605,486.931152 241.139435,486.931152 232.294373,486.931152 
	C232.294373,495.499207 232.294373,503.893524 232.294373,512.643494 
	C215.096893,512.643494 198.271667,512.643494 181.006165,512.643494 
	C181.006165,504.395996 181.006165,496.135437 181.004272,487.437439 
	C181.002396,487.000000 180.930054,487.069946 181.402130,487.037415 
	C190.235809,487.004913 198.597412,487.004913 206.930984,487.004913 
	C206.930984,477.818665 206.930984,469.371399 207.402802,460.959412 
	C215.802460,460.994659 223.730286,460.994659 232.026840,460.994659 
	C232.026840,452.170563 232.026840,443.775055 232.026840,434.836670 
	C240.909317,434.836670 249.430145,434.836670 258.069946,434.836670 
	C258.069946,417.499115 258.069946,400.714569 258.069946,383.930054 
	C258.069946,383.930054 258.000000,384.000000 258.437134,384.002472 
	C267.132355,384.004944 275.390411,384.004944 284.075867,384.004944 
	C284.075867,409.978058 284.075867,435.523529 283.603210,461.036957 
	C274.768066,461.004883 266.405518,461.004883 257.930054,461.004883 
	C257.930054,470.176331 257.930054,478.623138 257.930054,487.069946 
	C257.930054,487.069946 258.002411,487.000000 258.039093,486.965576 
z"/>
<path fill="#000000" opacity="1.000000" stroke="none" 
	d="
M51.937656,435.073334 
	C68.821732,435.073334 85.705811,435.073334 103.005699,435.073334 
	C103.005699,426.708527 103.005699,418.789001 103.037247,410.396851 
	C103.068802,409.924164 102.999969,409.997589 103.437126,410.001282 
	C112.130676,410.004944 120.387070,410.004944 129.184479,410.004944 
	C129.184479,418.599121 129.184479,426.783905 129.184479,435.309601 
	C138.123001,435.309601 146.514664,435.309601 154.930054,435.309601 
	C154.930054,444.143738 154.930054,452.606842 154.964996,461.033752 
	C154.999954,460.997589 155.068787,460.924164 155.068787,460.924164 
	C146.597885,460.924164 138.126968,460.924164 129.274033,460.924164 
	C129.274033,469.516937 129.274033,477.916107 129.274033,486.656219 
	C112.063507,486.656219 95.231682,486.656219 78.015030,486.656219 
	C78.015030,478.213959 78.015030,469.813660 78.015030,461.041748 
	C69.243721,461.041748 60.844501,461.041748 52.006454,461.041748 
	C52.006454,452.402740 52.006454,444.138855 52.006416,435.437531 
	C52.006382,435.000122 51.937656,435.073334 51.937656,435.073334 
z"/>
<path fill="#000000" opacity="1.000000" stroke="none" 
	d="
M722.252808,563.721375 
	C713.649109,563.721375 705.045349,563.721375 696.063843,563.721375 
	C696.063843,546.926392 696.063843,530.199768 696.063843,513.087280 
	C687.294006,513.087280 678.889038,513.087280 670.246704,513.087280 
	C670.246704,504.302887 670.246704,495.905334 670.246704,487.253113 
	C687.344177,487.253113 704.400818,487.253113 722.007507,487.253113 
	C722.007507,512.486084 722.007507,537.721985 722.093750,563.380737 
	C722.179932,563.803711 722.252808,563.721375 722.252808,563.721375 
z"/>
<path fill="#000000" opacity="1.000000" stroke="none" 
	d="
M721.747864,410.277924 
	C738.675842,410.277924 755.603821,410.277924 772.765381,410.277924 
	C772.765381,418.388092 772.765381,426.451965 772.765381,434.907043 
	C764.628540,434.907043 756.558105,434.907043 748.106812,434.907043 
	C748.106812,443.687622 748.106812,452.090698 748.106812,460.742950 
	C730.665344,460.742950 713.610046,460.742950 696.277100,460.742950 
	C696.277100,452.367157 696.277100,443.969147 696.277100,435.179382 
	C704.615234,435.179382 713.019165,435.179382 721.992554,435.179382 
	C721.992554,426.883423 721.992554,418.962494 721.906616,410.618561 
	C721.820679,410.195557 721.747864,410.277924 721.747864,410.277924 
z"/>
<path fill="#000000" opacity="1.000000" stroke="none" 
	d="
M129.062759,537.926270 
	C120.589561,537.926270 112.116364,537.926270 103.257050,537.926270 
	C103.257050,546.532227 103.257050,554.935120 103.257050,563.666870 
	C86.156433,563.666870 69.434975,563.666870 52.356712,563.666870 
	C52.356712,555.534241 52.356712,547.133606 52.356712,538.167969 
	C60.562809,538.167969 69.090981,538.167969 77.990753,538.167969 
	C77.990753,529.546509 77.990753,521.475830 77.990753,513.208984 
	C95.096748,513.208984 111.815994,513.208984 128.993591,513.208984 
	C128.993591,521.256714 128.993591,529.190674 128.993805,537.562134 
	C128.994034,537.999512 129.062759,537.926270 129.062759,537.926270 
z"/>
<path fill="#000000" opacity="1.000000" stroke="none" 
	d="
M128.957382,538.033813 
	C154.708664,538.068054 180.496582,538.068054 206.641815,538.068054 
	C206.641815,546.462952 206.641815,554.862915 206.641815,563.632019 
	C181.114761,563.632019 155.288193,563.632019 129.005310,563.632019 
	C129.005310,555.405396 129.005310,547.138367 129.034027,538.398804 
	C129.062759,537.926270 128.994034,537.999512 128.957382,538.033813 
z"/>
<path fill="#000000" opacity="1.000000" stroke="none" 
	d="
M669.937378,358.073700 
	C687.067200,358.073700 704.196960,358.073700 721.980286,358.073700 
	C721.980286,375.170654 721.980286,392.227966 721.864075,409.781616 
	C721.747864,410.277924 721.820679,410.195557 721.851440,410.160767 
	C713.445557,410.125946 705.008972,410.125946 696.213989,410.125946 
	C696.213989,401.409698 696.213989,393.026245 696.213989,383.980316 
	C687.484192,383.980316 679.099304,383.980316 670.218079,383.864014 
	C669.721741,383.747711 669.804138,383.820496 669.838928,383.851257 
	C669.917969,375.546417 669.962219,367.210846 670.006287,358.437866 
	C670.006104,358.000488 669.937378,358.073700 669.937378,358.073700 
z"/>
<path fill="#000000" opacity="1.000000" stroke="none" 
	d="
M747.926270,254.937241 
	C747.926270,280.401733 747.926270,305.866241 747.926270,331.664917 
	C739.485229,331.664917 731.082458,331.664917 722.019714,331.664917 
	C722.019714,306.496735 722.019714,281.105652 722.135986,255.218262 
	C722.252258,254.721939 722.179443,254.804306 722.148682,254.839111 
	C730.453552,254.918076 738.789124,254.962250 747.562134,255.006195 
	C747.999512,255.005966 747.926270,254.937241 747.926270,254.937241 
z"/>
<path fill="#000000" opacity="1.000000" stroke="none" 
	d="
M490.034454,126.039101 
	C490.068878,100.529198 490.068878,74.982574 490.068878,49.006424 
	C498.608490,49.006424 506.866547,49.006424 515.562012,49.006172 
	C515.999390,49.005924 515.926208,48.937225 515.926208,48.937225 
	C515.948853,74.334976 515.971558,99.732727 515.962708,125.603149 
	C515.931152,126.075829 516.000000,126.002411 515.562866,125.998734 
	C506.727173,125.973389 498.328613,125.951721 489.930054,125.930061 
	C489.930054,125.930061 490.000031,126.002388 490.034454,126.039101 
z"/>
<path fill="#000000" opacity="1.000000" stroke="none" 
	d="
M670.042725,357.966187 
	C653.277100,357.931915 636.474731,357.931915 619.336670,357.931915 
	C619.336670,341.159698 619.336670,324.434357 619.336670,307.019684 
	C627.473938,307.019684 635.879761,307.019684 644.781921,307.135986 
	C645.278259,307.252289 645.195862,307.179504 645.161072,307.148743 
	C645.126282,315.248383 645.126282,323.378754 645.126282,331.907745 
	C653.363953,331.907745 661.442749,331.907745 669.994751,331.907745 
	C669.994751,340.576569 669.994751,348.852600 669.966064,357.601196 
	C669.937378,358.073700 670.006104,358.000488 670.042725,357.966187 
z"/>
<path fill="#000000" opacity="1.000000" stroke="none" 
	d="
M748.073364,564.062134 
	C748.073364,538.611267 748.073364,513.160461 748.073364,487.355225 
	C756.134521,487.355225 764.201416,487.355225 772.634705,487.355225 
	C772.634705,512.553467 772.634705,538.045227 772.634705,563.993530 
	C764.741089,563.993530 756.808044,563.993530 748.437561,563.993408 
	C748.000183,563.993347 748.073364,564.062134 748.073364,564.062134 
z"/>
<path fill="#000000" opacity="1.000000" stroke="none" 
	d="
M747.965881,563.956665 
	C747.931580,581.047852 747.931580,598.175720 747.931580,615.980225 
	C739.517944,615.980225 731.116028,615.980225 722.217773,615.863708 
	C721.721375,615.747192 721.803711,615.820068 721.838501,615.850769 
	C721.922180,598.825684 721.970947,581.769897 722.136292,564.217773 
	C722.252808,563.721375 722.179932,563.803711 722.149231,563.838501 
	C730.455139,563.917297 738.791748,563.961304 747.600830,564.033691 
	C748.073364,564.062134 748.000183,563.993347 747.965881,563.956665 
z"/>
<path fill="#000000" opacity="1.000000" stroke="none" 
	d="
M412.965515,537.961060 
	C412.931091,546.389404 412.931091,554.854431 412.931091,563.659241 
	C395.737823,563.659241 378.586060,563.659241 361.005707,563.659241 
	C361.005707,555.385925 361.005707,547.127808 361.037292,538.396973 
	C361.068848,537.924255 361.000061,537.997620 361.437195,538.001282 
	C378.939545,538.026611 396.004730,538.048279 413.069946,538.069946 
	C413.069946,538.069946 412.999939,537.997742 412.965515,537.961060 
z"/>
<path fill="#000000" opacity="1.000000" stroke="none" 
	d="
M52.043045,434.965820 
	C43.608627,434.931549 35.137543,434.931549 26.333778,434.931549 
	C26.333778,418.165009 26.333778,401.450653 26.333778,384.368195 
	C34.562904,384.368195 43.073139,384.368195 51.994705,384.368195 
	C51.994705,400.963379 51.994705,417.545868 51.966179,434.600861 
	C51.937656,435.073334 52.006382,435.000122 52.043045,434.965820 
z"/>
<path fill="#000000" opacity="1.000000" stroke="none" 
	d="
M541.033691,126.042587 
	C541.067993,109.287849 541.067993,92.496452 541.067993,75.352974 
	C549.469788,75.352974 557.866516,75.352974 566.632019,75.352974 
	C566.632019,91.887085 566.632019,108.717453 566.632019,125.994682 
	C558.398560,125.994682 550.134949,125.994682 541.398743,125.965958 
	C540.926208,125.937225 540.999390,126.005920 541.033691,126.042587 
z"/>
<path fill="#000000" opacity="1.000000" stroke="none" 
	d="
M361.000977,766.834656 
	C361.000854,750.720520 361.000854,735.093384 361.000854,719.234619 
	C369.728699,719.234619 378.132507,719.234619 386.768555,719.234619 
	C386.768555,736.068115 386.768555,752.804077 386.768555,769.997620 
	C378.892975,769.997620 371.111847,770.075256 363.337585,769.880554 
	C362.537872,769.860535 361.778961,768.213684 361.000977,766.834656 
z"/>
<path fill="#000000" opacity="1.000000" stroke="none" 
	d="
M747.960938,693.034363 
	C756.056030,693.068787 764.187805,693.068787 772.659302,693.068787 
	C772.659302,710.260925 772.659302,727.411438 772.659302,744.993835 
	C764.724060,744.993835 756.799438,744.993835 748.437500,744.995728 
	C748.000061,744.997620 748.069946,745.069946 748.037476,744.597900 
	C748.026672,727.060547 748.048340,709.995300 748.069946,692.930054 
	C748.069946,692.930054 747.997620,692.999939 747.960938,693.034363 
z"/>
<path fill="#000000" opacity="1.000000" stroke="none" 
	d="
M540.960938,178.034393 
	C549.382812,178.068817 557.841492,178.068817 566.649658,178.068817 
	C566.649658,186.585327 566.649658,195.083664 566.649658,203.994308 
	C558.372925,203.994308 550.121216,203.994308 541.396851,203.962769 
	C540.924194,203.931229 540.997559,204.000046 541.001221,203.562881 
	C541.026611,194.727158 541.048279,186.328613 541.069946,177.930054 
	C541.069946,177.930054 540.997620,177.999985 540.960938,178.034393 
z"/>
<path fill="#000000" opacity="1.000000" stroke="none" 
	d="
M235.165283,229.001007 
	C242.947632,229.000870 250.243027,229.000870 257.766357,229.000870 
	C257.766357,237.730103 257.766357,246.133331 257.766357,254.768661 
	C249.265366,254.768661 240.862106,254.768661 232.002411,254.768661 
	C232.002411,246.891571 231.924759,239.110931 232.119476,231.337112 
	C232.139496,230.537582 233.786346,229.778809 235.165283,229.001007 
z"/>
<path fill="#000000" opacity="1.000000" stroke="none" 
	d="
M197.963715,254.999146 
	C192.162125,254.999146 186.856155,254.999146 181.276550,254.999146 
	C181.276550,246.360092 181.276550,237.956711 181.276550,229.275818 
	C189.641266,229.275818 198.044495,229.275818 206.724915,229.275818 
	C206.724915,237.642929 206.724915,246.046295 206.724915,254.999146 
	C204.003372,254.999146 201.231354,254.999146 197.963715,254.999146 
z"/>
<path fill="#000000" opacity="1.000000" stroke="none" 
	d="
M255.802307,178.002960 
	C256.856812,179.102417 257.900208,180.190475 257.922577,181.299164 
	C258.070526,188.625031 257.999054,195.955338 257.999054,203.641586 
	C249.529373,203.641586 241.120667,203.641586 232.355377,203.641586 
	C232.355377,195.522995 232.355377,187.114471 232.355377,178.001129 
	C239.820282,178.001129 247.569611,178.001129 255.802307,178.002960 
z"/>
<path fill="#000000" opacity="1.000000" stroke="none" 
	d="
M258.042816,48.965977 
	C249.614899,48.931683 241.150330,48.931683 232.343384,48.931683 
	C232.343384,40.516815 232.343384,32.126892 232.343384,23.368130 
	C240.555893,23.368130 249.059830,23.368130 257.994690,23.368130 
	C257.994690,31.614162 257.994690,39.871330 257.966064,48.600975 
	C257.937439,49.073456 258.006165,49.000271 258.042816,48.965977 
z"/>
<path fill="#000000" opacity="1.000000" stroke="none" 
	d="
M284.068848,641.924255 
	C275.611511,641.924255 267.154175,641.924255 258.348877,641.924255 
	C258.348877,633.412048 258.348877,624.913879 258.348877,616.005737 
	C266.628052,616.005737 274.879272,616.005737 283.603149,616.037292 
	C284.075836,616.068848 284.002411,616.000000 283.998749,616.437134 
	C283.973419,625.272827 283.951752,633.671387 283.965057,642.033813 
	C284.000061,641.997620 284.068848,641.924255 284.068848,641.924255 
z"/>
<path fill="#000000" opacity="1.000000" stroke="none" 
	d="
M619.034119,513.043335 
	C619.068420,504.615326 619.068420,496.150696 619.068420,487.343506 
	C627.482910,487.343506 635.872803,487.343506 644.631714,487.343506 
	C644.631714,495.555786 644.631714,504.059692 644.631714,512.994751 
	C636.386047,512.994751 628.128845,512.994751 619.399170,512.966309 
	C618.926636,512.937866 618.999817,513.006653 619.034119,513.043335 
z"/>
<path fill="#000000" opacity="1.000000" stroke="none" 
	d="
M78.039101,357.965546 
	C69.628090,357.931122 61.180367,357.931122 52.005703,357.931122 
	C52.005703,349.595367 52.005703,341.232422 52.037254,332.396851 
	C52.068802,331.924164 51.999969,331.997589 52.437134,332.001282 
	C61.235806,332.004944 69.597321,332.004944 77.930061,332.004944 
	C77.930061,341.177582 77.930061,349.623779 77.930061,358.069946 
	C77.930061,358.069946 78.002388,357.999969 78.039101,357.965546 
z"/>
<path fill="#000000" opacity="1.000000" stroke="none" 
	d="
M567.034119,719.043335 
	C567.068420,710.615295 567.068420,702.150696 567.068420,693.343506 
	C575.482849,693.343506 583.872742,693.343506 592.631714,693.343506 
	C592.631714,701.555969 592.631714,710.060242 592.631714,718.994751 
	C584.386047,718.994751 576.128906,718.994751 567.399170,718.966309 
	C566.926636,718.937866 566.999817,719.006653 567.034119,719.043335 
z"/>
<path fill="#000000" opacity="1.000000" stroke="none" 
	d="
M412.966034,383.957184 
	C412.931732,392.385132 412.931732,400.849701 412.931732,409.656677 
	C404.516998,409.656677 396.126984,409.656677 387.368103,409.656677 
	C387.368103,401.443939 387.368103,392.939636 387.368103,384.005310 
	C395.614166,384.005310 403.871368,384.005310 412.601013,384.033936 
	C413.073517,384.062561 413.000336,383.993835 412.966034,383.957184 
z"/>
<path fill="#000000" opacity="1.000000" stroke="none" 
	d="
M181.039093,486.965576 
	C172.628082,486.931152 164.180374,486.931152 155.005692,486.931152 
	C155.005692,478.595337 155.005692,470.232422 155.037231,461.396851 
	C155.068787,460.924164 154.999954,460.997589 155.437119,461.001282 
	C164.272522,460.978027 172.670746,460.951111 181.036942,461.396790 
	C180.979950,470.269592 180.955002,478.669769 180.930054,487.069946 
	C180.930054,487.069946 181.002396,487.000000 181.039093,486.965576 
z"/>
<path fill="#000000" opacity="1.000000" stroke="none" 
	d="
M51.999134,494.066833 
	C51.999134,500.530426 51.999134,506.500824 51.999134,512.733398 
	C43.339314,512.733398 34.935833,512.733398 26.265490,512.733398 
	C26.265490,504.336853 26.265490,495.933441 26.265490,487.264282 
	C34.665493,487.264282 43.068874,487.264282 51.999134,487.264282 
	C51.999134,489.364380 51.999134,491.468994 51.999134,494.066833 
z"/>
<path fill="#000000" opacity="1.000000" stroke="none" 
	d="
M284.034485,667.038940 
	C284.047821,659.006958 284.026764,650.938293 284.037292,642.396973 
	C284.068848,641.924255 284.000061,641.997620 284.437195,642.001282 
	C293.272858,642.026611 301.671387,642.048279 310.069946,642.069946 
	C310.069946,642.069946 310.000000,642.000000 309.997559,642.437134 
	C309.973419,650.939514 309.951721,659.004700 309.930054,667.069946 
	C309.930054,667.069946 310.000000,667.000000 309.562866,666.997559 
	C300.727142,666.973450 292.328613,666.951782 283.930054,666.930054 
	C283.930054,666.930054 284.000061,667.002258 284.034485,667.038940 
z"/>
<path fill="#000000" opacity="1.000000" stroke="none" 
	d="
M413.034454,49.039097 
	C413.068878,40.617496 413.068878,32.159187 413.068878,23.350910 
	C421.251282,23.350910 429.417358,23.350910 437.994293,23.350910 
	C437.994293,31.627722 437.994293,39.879108 437.962738,48.603165 
	C437.931183,49.075836 438.000000,49.002438 437.562866,48.998741 
	C429.060486,48.973385 420.995270,48.951725 412.930054,48.930061 
	C412.930054,48.930061 413.000031,49.002388 413.034454,49.039097 
z"/>
<path fill="#000000" opacity="1.000000" stroke="none" 
	d="
M747.965637,744.960938 
	C747.931213,753.049866 747.931213,761.175537 747.931213,769.650146 
	C739.414368,769.650146 730.916321,769.650146 722.005676,769.650146 
	C722.005676,761.707275 722.005676,753.788391 722.037231,745.396851 
	C722.068726,744.924194 721.999939,744.997559 722.437134,745.001221 
	C731.272827,745.026611 739.671387,745.048279 748.069946,745.069946 
	C748.069946,745.069946 748.000061,744.997620 747.965637,744.960938 
z"/>
<path fill="#000000" opacity="1.000000" stroke="none" 
	d="
M516.033691,49.042587 
	C516.067993,40.615074 516.067993,32.150890 516.067993,23.343880 
	C524.148621,23.343880 532.205933,23.343880 540.632080,23.343880 
	C540.632080,31.555693 540.632080,40.059677 540.632080,48.994678 
	C532.720032,48.994678 524.795654,48.994678 516.398743,48.965950 
	C515.926208,48.937225 515.999390,49.005924 516.033691,49.042587 
z"/>
<path fill="#000000" opacity="1.000000" stroke="none" 
	d="
M748.033813,255.042618 
	C748.068054,246.615112 748.068054,238.150940 748.068054,229.343887 
	C756.148560,229.343887 764.205872,229.343887 772.632019,229.343887 
	C772.632019,237.555679 772.632019,246.059662 772.632019,254.994690 
	C764.719971,254.994690 756.795654,254.994690 748.398804,254.965973 
	C747.926270,254.937241 747.999512,255.005966 748.033813,255.042618 
z"/>
<path fill="#FFFFFF" opacity="1.000000" stroke="none" 
	d="
M181.068985,460.924133 
	C172.670746,460.951111 164.272522,460.978027 155.402161,461.037476 
	C154.930054,452.606842 154.930054,444.143738 154.930054,435.309601 
	C146.514664,435.309601 138.123001,435.309601 129.184479,435.309601 
	C129.184479,426.783905 129.184479,418.599121 129.184479,410.004944 
	C120.387070,410.004944 112.130676,410.004944 103.402176,410.037445 
	C102.930061,401.604889 102.930061,393.139832 102.930061,383.995056 
	C128.783508,383.995056 154.454605,383.995056 180.597824,383.962555 
	C181.069946,392.397308 181.069946,400.864594 181.069946,409.665833 
	C197.946121,409.665833 214.770813,409.665833 231.974640,409.665833 
	C231.974640,401.224365 231.974640,392.827881 231.974640,383.995056 
	C240.604614,383.995056 248.865143,383.995056 257.597809,383.962555 
	C258.069946,400.714569 258.069946,417.499115 258.069946,434.836670 
	C249.430145,434.836670 240.909317,434.836670 232.026840,434.836670 
	C232.026840,443.775055 232.026840,452.170563 232.026840,460.994659 
	C223.730286,460.994659 215.802460,460.994659 207.437256,460.996155 
	C206.999893,460.997620 207.069946,461.069946 207.037445,460.597839 
	C207.004944,451.874939 207.004944,443.624084 207.004944,435.348633 
	C198.084198,435.348633 189.585861,435.348633 180.930054,435.348633 
	C180.930054,444.154602 180.930054,452.612274 180.965057,461.033752 
	C181.000061,460.997559 181.068985,460.924133 181.068985,460.924133 
z"/>
<path fill="#FFFFFF" opacity="1.000000" stroke="none" 
	d="
M386.930969,281.075867 
	C403.729614,281.075867 420.528259,281.075867 437.663391,281.075867 
	C437.663391,289.506012 437.663391,297.906219 437.663391,306.696899 
	C429.847595,306.696899 421.776886,306.696899 413.320190,306.696899 
	C413.320190,315.134796 413.320190,323.205444 413.320190,331.811218 
	C387.108215,331.811218 361.274475,331.811218 335.057861,331.811218 
	C335.057861,340.738434 335.057861,349.142273 335.057861,358.004944 
	C326.743866,358.004944 318.809082,358.004944 310.402161,358.037445 
	C309.930054,341.173462 309.930054,324.276978 309.930054,307.011108 
	C318.459045,307.011108 326.518738,307.011108 335.005341,307.011108 
	C335.005341,298.388550 335.005341,290.131561 335.003876,281.437256 
	C335.002411,280.999878 334.930054,281.069946 335.402130,281.037415 
	C344.272797,281.026581 352.671356,281.048279 361.034973,281.034973 
	C361.000000,281.000000 360.930054,280.930054 360.962585,281.402130 
	C360.995087,290.125061 360.995087,298.375916 360.995087,306.651367 
	C369.915802,306.651367 378.414124,306.651367 387.069946,306.651367 
	C387.069946,297.845398 387.069946,289.387726 387.034912,280.966248 
	C386.999908,281.002441 386.930969,281.075867 386.930969,281.075867 
z"/>
<path fill="#FFFFFF" opacity="1.000000" stroke="none" 
	d="
M515.597900,203.962555 
	C516.069946,212.061523 516.069946,220.193008 516.069946,228.842712 
	C498.738983,228.842712 481.581909,228.842712 464.004944,228.842712 
	C464.004944,237.611206 464.004944,245.868454 464.037445,254.597824 
	C447.285645,255.069946 430.501312,255.069946 413.358582,255.069946 
	C413.358582,246.424927 413.358582,237.916946 413.358582,229.027069 
	C421.441071,229.027069 429.503937,229.027069 437.995056,229.027069 
	C437.995056,220.729797 437.995056,212.802048 437.962555,204.402161 
	C446.396790,203.930054 454.863525,203.930054 463.706360,203.930054 
	C463.706360,195.498093 463.706360,187.104431 463.706360,178.355438 
	C472.581360,178.355438 481.088928,178.355438 489.977051,178.355438 
	C489.977051,186.778397 489.977051,195.174332 489.977051,203.995056 
	C498.605682,203.995056 506.865753,203.995056 515.597900,203.962555 
z"/>
<path fill="#FFFFFF" opacity="1.000000" stroke="none" 
	d="
M413.037415,177.597870 
	C404.603210,178.069946 396.136475,178.069946 387.293671,178.069946 
	C387.293671,186.501892 387.293671,194.895538 387.293671,203.644547 
	C378.418671,203.644547 369.911102,203.644547 361.023010,203.644547 
	C361.023010,195.221649 361.023010,186.825729 361.023010,178.004944 
	C352.394379,178.004944 344.134338,178.004944 335.402161,178.037445 
	C334.930054,169.599106 334.930054,161.128265 334.930054,152.276108 
	C343.516510,152.276108 351.915527,152.276108 360.694641,152.276108 
	C360.694641,143.513214 360.694641,135.114456 360.694641,126.358368 
	C369.579437,126.358368 378.090973,126.358368 386.988953,126.358368 
	C386.988953,134.788605 386.988953,143.188660 386.988953,151.959717 
	C395.758484,151.959717 404.158508,151.959717 413.004913,151.959717 
	C413.004913,160.598129 413.004913,168.861969 413.037415,177.597870 
z"/>
<path fill="#FFFFFF" opacity="1.000000" stroke="none" 
	d="
M284.075867,461.069031 
	C284.075867,435.523529 284.075867,409.978058 284.075867,384.004944 
	C275.390411,384.004944 267.132355,384.004944 258.402161,384.037445 
	C257.930054,375.611084 257.930054,367.152222 257.930054,357.995056 
	C275.102112,357.995056 292.113892,357.995056 309.597809,357.962555 
	C310.044830,391.995178 310.019745,426.060272 309.996124,460.562744 
	C309.997589,461.000122 310.069946,460.930054 309.597839,460.962555 
	C300.727142,460.973389 292.328613,460.951721 283.966248,460.965088 
	C284.002441,461.000092 284.075867,461.069031 284.075867,461.069031 
z"/>
<path fill="#FFFFFF" opacity="1.000000" stroke="none" 
	d="
M334.962585,229.402130 
	C352.043518,228.930054 369.156982,228.930054 386.995117,228.930054 
	C386.995117,246.079163 386.995117,263.104858 386.963043,280.603210 
	C386.930969,281.075867 386.999908,281.002441 386.562805,280.998749 
	C377.727142,280.973389 369.328613,280.951721 360.930054,280.930054 
	C360.930054,280.930054 361.000000,281.000000 361.002472,280.562866 
	C361.004944,271.764374 361.004944,263.403076 361.004944,254.930054 
	C351.822540,254.930054 343.376282,254.930054 334.966248,254.965057 
	C335.002441,255.000061 335.075867,255.068985 335.075867,255.068985 
	C335.048950,246.670731 335.022003,238.272461 334.962585,229.402130 
z"/>
<path fill="#FFFFFF" opacity="1.000000" stroke="none" 
	d="
M310.027893,126.048515 
	C310.062134,109.287216 310.062134,92.489304 310.062134,75.345734 
	C326.934418,75.345734 343.770813,75.345734 360.804688,75.345734 
	C360.804688,83.464729 360.804688,91.526657 360.804688,99.974518 
	C352.227570,99.974518 343.824921,99.974518 335.047424,99.974518 
	C335.047424,108.751068 335.047424,117.152527 335.047424,125.995865 
	C326.735504,125.995865 318.801361,125.995865 310.393921,125.969589 
	C309.920563,125.943314 309.993652,126.011894 310.027893,126.048515 
z"/>
<path fill="#FFFFFF" opacity="1.000000" stroke="none" 
	d="
M334.597839,177.962555 
	C335.048279,194.661942 335.026611,211.393814 335.037445,228.597824 
	C326.938782,229.069946 318.807617,229.069946 310.338562,229.069946 
	C310.338562,212.070389 310.338562,195.252884 310.338562,177.995056 
	C318.276947,177.995056 326.201355,177.995056 334.597839,177.962555 
z"/>
<path fill="#FFFFFF" opacity="1.000000" stroke="none" 
	d="
M181.402130,384.037415 
	C180.930054,375.623718 180.930054,367.177460 180.930054,357.995056 
	C189.403076,357.995056 197.764389,357.995056 206.597824,357.962555 
	C207.069946,366.376282 207.069946,374.822540 207.069946,384.004913 
	C198.596878,384.004913 190.235535,384.004913 181.402130,384.037415 
z"/>
<path fill="#FFFFFF" opacity="1.000000" stroke="none" 
	d="
M489.962555,126.402130 
	C498.328613,125.951721 506.727173,125.973389 515.597839,125.962555 
	C516.069946,134.387741 516.069946,142.845413 516.069946,151.651382 
	C507.414093,151.651382 498.915771,151.651382 489.995056,151.651382 
	C489.995056,143.375885 489.995056,135.125031 489.962555,126.402130 
z"/>
<path fill="#FFFFFF" opacity="1.000000" stroke="none" 
	d="
M412.962555,49.402130 
	C420.995270,48.951725 429.060486,48.973385 437.597839,48.962555 
	C438.069946,57.387394 438.069946,65.844727 438.069946,74.650879 
	C429.748108,74.650879 421.582733,74.650879 412.995056,74.650879 
	C412.995056,66.375206 412.995056,58.124702 412.962555,49.402130 
z"/>
<path fill="#FFFFFF" opacity="1.000000" stroke="none" 
	d="
M207.402130,358.037415 
	C206.951721,349.671387 206.973389,341.272858 206.962555,332.402161 
	C214.995071,331.955261 223.060104,331.980438 231.562454,332.005920 
	C231.999786,332.006256 231.926575,331.937439 231.926575,331.937439 
	C231.926575,340.381256 231.926575,348.825043 231.926575,358.004913 
	C223.930695,358.004913 215.902451,358.004913 207.402130,358.037415 
z"/>
<path fill="#FFFFFF" opacity="1.000000" stroke="none" 
	d="
M232.034119,332.042908 
	C232.068451,323.947540 232.068451,315.815491 232.068451,307.341797 
	C240.483612,307.341797 248.873718,307.341797 257.632721,307.341797 
	C257.632721,315.222260 257.632721,323.394226 257.632721,331.995514 
	C249.385880,331.995514 241.128677,331.995514 232.399017,331.966492 
	C231.926575,331.937439 231.999786,332.006256 232.034119,332.042908 
z"/>
<path fill="#FFFFFF" opacity="1.000000" stroke="none" 
	d="
M207.037445,331.597839 
	C198.624680,332.069946 190.179428,332.069946 180.995056,332.069946 
	C180.995056,323.931458 180.995056,315.902863 180.962555,307.402161 
	C189.375305,306.930054 197.820572,306.930054 207.004944,306.930054 
	C207.004944,315.068573 207.004944,323.097168 207.037445,331.597839 
z"/>
<path fill="#FFFFFF" opacity="1.000000" stroke="none" 
	d="
M335.039124,280.965393 
	C326.949829,280.930939 318.823822,280.930939 310.348938,280.930939 
	C310.348938,272.414581 310.348938,263.916046 310.348938,255.004898 
	C318.292114,255.004898 326.211334,255.004898 334.603210,255.036942 
	C335.075867,255.068985 335.002441,255.000061 334.998749,255.437164 
	C334.973389,264.272827 334.951721,272.671387 334.930054,281.069946 
	C334.930054,281.069946 335.002411,280.999878 335.039124,280.965393 
z"/>
<path fill="#FFFFFF" opacity="1.000000" stroke="none" 
	d="
M540.597900,177.962555 
	C541.048279,186.328613 541.026611,194.727158 541.037476,203.597824 
	C533.004700,204.048264 524.939514,204.026596 516.402161,204.037445 
	C515.930054,195.624680 515.930054,187.179428 515.930054,177.995056 
	C524.068604,177.995056 532.097229,177.995056 540.597900,177.962555 
z"/>
<path fill="#FFFFFF" opacity="1.000000" stroke="none" 
	d="
M438.037415,203.597870 
	C429.956299,204.069946 421.842651,204.069946 412.995056,204.069946 
	C412.995056,195.595383 412.995056,187.234833 412.962555,178.402176 
	C421.043701,177.930054 429.157349,177.930054 438.004913,177.930054 
	C438.004913,186.404663 438.004913,194.765228 438.037415,203.597870 
z"/>
<path fill="#FFFFFF" opacity="1.000000" stroke="none" 
	d="
M413.037415,537.597900 
	C396.004730,538.048279 378.939545,538.026611 361.402191,538.037476 
	C360.930054,529.938660 360.930054,521.807312 360.930054,513.338257 
	C378.263214,513.338257 395.413605,513.338257 413.004913,513.338257 
	C413.004913,521.276611 413.004913,529.201172 413.037415,537.597900 
z"/>
<path fill="#FFFFFF" opacity="1.000000" stroke="none" 
	d="
M310.037415,512.597900 
	C301.623749,513.069946 293.177551,513.069946 284.005341,513.069946 
	C284.005341,504.597504 284.005341,496.236053 284.003845,487.437225 
	C284.002380,486.999847 283.930054,487.069946 284.402130,487.037415 
	C293.272797,487.026611 301.671356,487.048279 310.033752,487.034912 
	C309.997559,486.999908 309.924133,486.930969 309.924133,486.930969 
	C309.951080,495.329254 309.977997,503.727509 310.037415,512.597900 
z"/>
<path fill="#FFFFFF" opacity="1.000000" stroke="none" 
	d="
M438.027130,538.047974 
	C438.061371,529.951355 438.061371,521.818176 438.061371,513.342590 
	C446.482758,513.342590 454.873383,513.342590 463.632812,513.342590 
	C463.632812,521.222900 463.632812,529.395386 463.632812,537.995911 
	C455.383087,537.995911 447.124878,537.995911 438.393219,537.969360 
	C437.919769,537.942749 437.992889,538.011353 438.027130,538.047974 
z"/>
<path fill="#FFFFFF" opacity="1.000000" stroke="none" 
	d="
M309.960876,461.034607 
	C318.050171,461.069061 326.176178,461.069061 334.651062,461.069061 
	C334.651062,469.585419 334.651062,478.083923 334.651062,486.995117 
	C326.707855,486.995117 318.788635,486.995117 310.396790,486.963043 
	C309.924133,486.930969 309.997559,486.999908 310.001251,486.562805 
	C310.026611,477.727142 310.048279,469.328613 310.069946,460.930054 
	C310.069946,460.930054 309.997589,461.000122 309.960876,461.034607 
z"/>
<path fill="#FFFFFF" opacity="1.000000" stroke="none" 
	d="
M645.000000,587.000000 
	C645.000000,605.475159 645.000000,623.450378 645.000000,641.712341 
	C619.048401,641.712341 593.312378,641.712341 567.287659,641.712341 
	C567.287659,616.048401 567.287659,590.312378 567.287659,564.287659 
	C592.951538,564.287659 618.687561,564.287659 645.000000,564.287659 
	C645.000000,571.635803 645.000000,579.067871 645.000000,587.000000 
M593.000000,600.519836 
	C593.000000,605.615479 593.000000,610.711121 593.000000,615.705078 
	C601.995483,615.705078 610.400085,615.705078 618.703979,615.705078 
	C618.703979,607.002441 618.703979,598.597778 618.703979,590.297058 
	C610.000305,590.297058 601.595642,590.297058 593.000000,590.297058 
	C593.000000,593.572327 593.000000,596.552063 593.000000,600.519836 
z"/>
<path fill="#FFFFFF" opacity="1.000000" stroke="none" 
	d="
M516.037476,666.597900 
	C507.611450,667.069946 499.152924,667.069946 489.995056,667.069946 
	C489.995056,650.231995 489.995056,633.553162 489.962555,616.402161 
	C506.714386,615.930054 523.498718,615.930054 540.641479,615.930054 
	C540.641479,624.575134 540.641479,633.083069 540.641479,641.972961 
	C532.558838,641.972961 524.495972,641.972961 516.004944,641.972961 
	C516.004944,650.270264 516.004944,658.197998 516.037476,666.597900 
z"/>
<path fill="#FFFFFF" opacity="1.000000" stroke="none" 
	d="
M748.037476,744.597900 
	C739.671387,745.048279 731.272827,745.026611 722.402161,745.037476 
	C721.930054,727.851318 721.930054,710.632690 721.930054,692.994995 
	C730.621765,692.994995 738.873779,692.994995 747.597900,692.962524 
	C748.048340,709.995300 748.026672,727.060547 748.037476,744.597900 
z"/>
<path fill="#FFFFFF" opacity="1.000000" stroke="none" 
	d="
M670.030151,643.226807 
	C678.457031,642.744019 686.857727,642.744019 695.631958,642.744019 
	C695.631958,658.790833 695.631958,675.530151 695.631958,692.635132 
	C687.544678,692.635132 679.134583,692.635132 670.003967,692.635132 
	C670.003967,676.529663 670.003967,660.119629 670.030151,643.226807 
z"/>
<path fill="#FCFCFC" opacity="1.000000" stroke="none" 
	d="
M618.998779,168.946182 
	C618.998779,128.830795 618.998779,89.208824 618.998779,49.292950 
	C661.916687,49.292950 704.629395,49.292950 747.636292,49.292950 
	C747.636292,91.940437 747.636292,134.631516 747.636292,177.578659 
	C704.896179,177.578659 662.319885,177.578659 618.998779,177.578659 
	C618.998779,174.938660 618.998779,172.189133 618.998779,168.946182 
M712.467163,74.812485 
	C689.885376,74.812485 667.303528,74.812485 644.813293,74.812485 
	C644.813293,100.862396 644.813293,126.262810 644.813293,151.669678 
	C670.600159,151.669678 696.136902,151.669678 721.625977,151.669678 
	C721.625977,125.936356 721.625977,100.533760 721.625977,74.812485 
	C718.730225,74.812485 716.093506,74.812485 712.467163,74.812485 
z"/>
<path fill="#FCFCFC" opacity="1.000000" stroke="none" 
	d="
M117.999931,177.836288 
	C95.878998,177.836288 74.258072,177.836288 52.401962,177.836288 
	C52.401962,134.792953 52.401962,92.204247 52.401962,49.306145 
	C95.163216,49.306145 137.878555,49.306145 180.798706,49.306145 
	C180.798706,91.987999 180.798706,134.592346 180.798706,177.836288 
	C160.023819,177.836288 139.261887,177.836288 117.999931,177.836288 
M107.500000,151.998245 
	C123.248184,151.998245 138.996368,151.998245 154.647461,151.998245 
	C154.647461,125.941467 154.647461,100.421272 154.647461,75.096863 
	C128.897949,75.096863 103.499779,75.096863 77.994461,75.096863 
	C77.994461,100.772194 77.994461,126.164619 77.994461,151.998245 
	C87.612312,151.998245 97.056152,151.998245 107.500000,151.998245 
z"/>
<path fill="#FCFCFC" opacity="1.000000" stroke="none" 
	d="
M52.160194,726.998535 
	C52.160198,689.859375 52.160198,653.219788 52.160198,616.203003 
	C95.110909,616.203003 137.814331,616.203003 180.755829,616.203003 
	C180.755829,658.852234 180.755829,701.573547 180.755829,744.501099 
	C137.920181,744.501099 95.334129,744.501099 52.160194,744.501099 
	C52.160194,738.710571 52.160194,733.104309 52.160194,726.998535 
M112.500229,641.567444 
	C101.070984,641.567444 89.641739,641.567444 78.140533,641.567444 
	C78.140533,667.576538 78.140533,693.096130 78.140533,718.635864 
	C103.858871,718.635864 129.250443,718.635864 154.723450,718.635864 
	C154.723450,692.827026 154.723450,667.269653 154.723450,641.567444 
	C140.799622,641.567444 127.149925,641.567444 112.500229,641.567444 
z"/>
<path fill="#FFFFFF" opacity="1.000000" stroke="none" 
	d="
M310.037415,641.597900 
	C301.671387,642.048279 293.272858,642.026611 284.402161,642.037476 
	C283.951752,633.671387 283.973419,625.272827 283.962585,616.402161 
	C292.376312,615.930054 300.822571,615.930054 310.004913,615.930054 
	C310.004913,624.403076 310.004913,632.764465 310.037415,641.597900 
z"/>
<path fill="#FFFFFF" opacity="1.000000" stroke="none" 
	d="
M258.402130,487.037445 
	C257.930054,478.623138 257.930054,470.176331 257.930054,461.004883 
	C266.405518,461.004883 274.768066,461.004883 283.603210,461.036957 
	C284.075867,461.069031 284.002441,461.000092 283.998749,461.437195 
	C283.973389,470.272858 283.951721,478.671387 283.930054,487.069946 
	C283.930054,487.069946 284.002380,486.999847 284.039124,486.965393 
	C275.675293,486.955627 267.274750,486.980286 258.402130,487.037445 
z"/>
<path fill="#FFFFFF" opacity="1.000000" stroke="none" 
	d="
M310.402130,667.037476 
	C309.951721,659.004700 309.973419,650.939514 309.962585,642.402161 
	C318.042938,641.930054 326.155853,641.930054 335.004913,641.930054 
	C335.004913,650.069092 335.004913,658.097412 335.037415,666.597839 
	C327.004700,667.048279 318.939453,667.026611 310.402130,667.037476 
z"/>
<path fill="#FFFFFF" opacity="1.000000" stroke="none" 
	d="
M78.402130,358.037445 
	C77.930061,349.623779 77.930061,341.177582 77.930061,332.004944 
	C69.597321,332.004944 61.235806,332.004944 52.402176,332.037445 
	C51.930061,315.275970 51.930061,298.482025 51.930061,281.344147 
	C77.591080,281.344147 103.079880,281.344147 128.954193,281.344147 
	C128.954193,289.752167 128.954193,298.153473 128.954193,306.995056 
	C137.595688,306.995056 145.860703,306.995056 154.597824,306.962555 
	C155.069946,323.722229 155.069946,340.514404 155.069946,357.653137 
	C146.519150,357.653137 138.121490,357.653137 129.162964,357.653137 
	C129.162964,349.431946 129.162964,340.906891 129.162964,332.198730 
	C120.211662,332.198730 111.818909,332.198730 103.043129,332.198730 
	C103.043129,340.755371 103.043129,349.155731 103.043129,358.004944 
	C94.737091,358.004944 86.805641,358.004944 78.402130,358.037445 
z"/>
<path fill="#FFFFFF" opacity="1.000000" stroke="none" 
	d="
M283.962585,667.402161 
	C292.328613,666.951782 300.727142,666.973450 309.597839,666.962585 
	C310.069946,692.718933 310.069946,718.507812 310.069946,744.648254 
	C292.742554,744.648254 275.570892,744.648254 258.198486,744.648254 
	C258.198486,736.207764 258.198486,727.811829 258.198486,719.028137 
	C266.769104,719.028137 275.172913,719.028137 283.995087,719.028137 
	C283.995087,701.721008 283.995087,684.797607 283.962585,667.402161 
z"/>
<path fill="#FFFFFF" opacity="1.000000" stroke="none" 
	d="
M181.402130,487.037415 
	C180.955002,478.669769 180.979950,470.269592 181.036942,461.396790 
	C181.068985,460.924133 181.000061,460.997559 181.437164,461.001282 
	C190.272842,461.026642 198.671387,461.048309 207.069946,461.069946 
	C207.069946,461.069946 206.999893,460.997620 206.965439,460.960876 
	C206.930984,469.371399 206.930984,477.818665 206.930984,487.004913 
	C198.597412,487.004913 190.235809,487.004913 181.402130,487.037415 
z"/>
<path fill="#000000" opacity="1.000000" stroke="none" 
	d="
M207.037445,460.597870 
	C198.671387,461.048309 190.272842,461.026642 181.402161,461.037476 
	C180.930054,452.612274 180.930054,444.154602 180.930054,435.348633 
	C189.585861,435.348633 198.084198,435.348633 207.004944,435.348633 
	C207.004944,443.624084 207.004944,451.874939 207.037445,460.597870 
z"/>
<path fill="#000000" opacity="1.000000" stroke="none" 
	d="
M360.962585,281.402130 
	C369.328613,280.951721 377.727142,280.973389 386.597839,280.962555 
	C387.069946,289.387726 387.069946,297.845398 387.069946,306.651367 
	C378.414124,306.651367 369.915802,306.651367 360.995087,306.651367 
	C360.995087,298.375916 360.995087,290.125061 360.962585,281.402130 
z"/>
<path fill="#000000" opacity="1.000000" stroke="none" 
	d="
M335.402130,281.037415 
	C334.951721,272.671387 334.973389,264.272827 334.962555,255.402161 
	C343.376282,254.930054 351.822540,254.930054 361.004944,254.930054 
	C361.004944,263.403076 361.004944,271.764374 361.037445,280.597839 
	C352.671356,281.048279 344.272797,281.026581 335.402130,281.037415 
z"/>
<path fill="#000000" opacity="1.000000" stroke="none" 
	d="
M284.402130,487.037415 
	C283.951721,478.671387 283.973389,470.272858 283.962555,461.402161 
	C292.328613,460.951721 300.727142,460.973389 309.597839,460.962555 
	C310.048279,469.328613 310.026611,477.727142 310.037445,486.597839 
	C301.671356,487.048279 293.272797,487.026611 284.402130,487.037415 
z"/>
<path fill="#000000" opacity="1.000000" stroke="none" 
	d="
M593.000000,600.025879 
	C593.000000,596.552063 593.000000,593.572327 593.000000,590.297058 
	C601.595642,590.297058 610.000305,590.297058 618.703979,590.297058 
	C618.703979,598.597778 618.703979,607.002441 618.703979,615.705078 
	C610.400085,615.705078 601.995483,615.705078 593.000000,615.705078 
	C593.000000,610.711121 593.000000,605.615479 593.000000,600.025879 
z"/>
<path fill="#010101" opacity="1.000000" stroke="none" 
	d="
M712.962036,74.812485 
	C716.093506,74.812485 718.730225,74.812485 721.625977,74.812485 
	C721.625977,100.533760 721.625977,125.936356 721.625977,151.669678 
	C696.136902,151.669678 670.600159,151.669678 644.813293,151.669678 
	C644.813293,126.262810 644.813293,100.862396 644.813293,74.812485 
	C667.303528,74.812485 689.885376,74.812485 712.962036,74.812485 
z"/>
<path fill="#000000" opacity="1.000000" stroke="none" 
	d="
M107.000000,151.998245 
	C97.056152,151.998245 87.612312,151.998245 77.994461,151.998245 
	C77.994461,126.164619 77.994461,100.772194 77.994461,75.096863 
	C103.499779,75.096863 128.897949,75.096863 154.647461,75.096863 
	C154.647461,100.421272 154.647461,125.941467 154.647461,151.998245 
	C138.996368,151.998245 123.248184,151.998245 107.000000,151.998245 
z"/>
<path fill="#010101" opacity="1.000000" stroke="none" 
	d="
M113.000229,641.567444 
	C127.149925,641.567444 140.799622,641.567444 154.723450,641.567444 
	C154.723450,667.269653 154.723450,692.827026 154.723450,718.635864 
	C129.250443,718.635864 103.858871,718.635864 78.140533,718.635864 
	C78.140533,693.096130 78.140533,667.576538 78.140533,641.567444 
	C89.641739,641.567444 101.070984,641.567444 113.000229,641.567444 
z"/>
</svg>