<svg version="1.1" id="Layer_1" xmlns="http://www.w3.org/2000/svg" xmlns:xlink="http://www.w3.org/1999/xlink" x="0px" y="0px"
	 width="100%" viewBox="0 0 800 800" enable-background="new 0 0 800 800" xml:space="preserve">
<path fill="#FEFEFE" opacity="1.000000" stroke="none" 
	d="
M1.000000,214.000000 
	C1.000000,142.666672 1.000000,71.833336 1.000000,1.000000 
	C267.666656,1.000000 534.333313,1.000000 801.000000,1.000000 
	C801.000000,267.666656 801.000000,534.333313 801.000000,801.000000 
	C534.333313,801.000000 267.666656,801.000000 1.000000,801.000000 
	C1.000000,605.500000 1.000000,410.000000 1.000000,214.000000 
M745.005432,338.871399 
	C745.005432,347.128082 745.005432,355.384766 745.005432,363.631714 
	C753.606201,363.631714 761.777039,363.631714 769.657043,363.631714 
	C769.657043,354.873505 769.657043,346.484100 769.657043,338.068085 
	C761.183655,338.068085 753.052124,338.068085 744.993347,337.124725 
	C744.993347,329.182678 744.993347,321.240631 744.993347,313.248169 
	C736.105408,313.248169 727.701538,313.248169 718.873718,313.248169 
	C718.873718,321.621979 718.873718,329.752045 717.958130,337.992676 
	C709.696716,337.992676 701.435364,337.992676 693.303101,337.992676 
	C693.303101,320.656189 693.303101,303.917847 693.303101,286.784302 
	C702.014038,286.784302 710.426147,286.784302 718.687378,286.784302 
	C718.687378,277.974365 718.687378,269.567963 718.687378,261.073669 
	C684.229736,261.073669 650.083557,261.073669 615.994568,260.128601 
	C615.994568,251.871521 615.994568,243.614426 615.994568,235.368240 
	C607.060425,235.368240 598.556152,235.368240 590.343506,235.368240 
	C590.343506,244.126846 590.343506,252.516678 590.343506,260.931915 
	C599.150452,260.931915 607.614929,260.931915 616.006653,261.875275 
	C616.006653,270.140564 616.006653,278.405884 616.006653,287.031891 
	C633.174316,287.031891 649.894348,287.031891 666.636658,287.031891 
	C666.636658,295.918396 666.636658,304.432007 666.636658,313.321411 
	C658.205200,313.321411 650.136475,313.321411 641.720459,313.321411 
	C641.720459,330.425598 641.720459,347.145477 641.720459,364.073669 
	C632.880859,364.073669 624.409119,364.073669 615.994568,363.128601 
	C615.994568,354.871521 615.994568,346.614441 615.994568,338.368286 
	C607.060425,338.368286 598.556152,338.368286 590.343506,338.368286 
	C590.343506,347.126892 590.343506,355.516693 590.343506,363.931915 
	C599.150452,363.931915 607.614929,363.931915 616.006653,364.875275 
	C616.029663,373.273102 616.052612,381.670959 615.130310,390.005890 
	C606.878723,390.005890 598.627136,390.005890 590.350586,390.005890 
	C590.350586,398.916046 590.350586,407.414612 590.350586,415.931122 
	C599.158569,415.931122 607.617126,415.931122 616.006348,416.874847 
	C616.006348,424.793030 616.006348,432.711243 616.006348,441.160339 
	C607.090454,441.160339 598.580566,441.160339 590.075623,441.160339 
	C590.075623,450.155182 590.075623,458.611969 589.130310,467.005890 
	C580.728333,467.026886 572.326355,467.047882 563.993652,466.125153 
	C563.993652,457.763947 563.993652,449.402740 563.993652,441.068878 
	C554.817871,441.068878 546.371155,441.068878 537.993652,440.125153 
	C537.993652,432.188538 537.993652,424.251923 537.993652,415.933105 
	C529.465515,415.933105 521.392578,415.933105 513.221680,415.933105 
	C513.221680,407.142212 513.221680,398.743805 513.221680,389.956116 
	C521.506592,389.956116 529.579834,389.956116 538.030029,389.956116 
	C538.030029,381.169983 538.030029,372.763977 538.030029,363.980103 
	C546.815430,363.980103 555.221497,363.980103 563.644165,363.980103 
	C563.644165,338.085846 563.644165,312.583984 563.644165,286.694336 
	C554.885864,286.694336 546.482361,286.694336 538.340881,286.694336 
	C538.340881,277.898651 538.340881,269.496033 538.340881,260.718170 
	C547.085510,260.718170 555.490417,260.718170 563.668579,260.718170 
	C563.668579,251.923401 563.668579,243.521851 563.668579,235.075821 
	C546.536011,235.075821 529.733643,235.075821 512.994141,234.130463 
	C512.994141,217.552887 512.994141,200.975327 512.994141,184.356110 
	C504.092285,184.356110 495.584045,184.356110 486.706726,184.356110 
	C486.706726,193.105652 486.706726,201.500259 486.706726,210.068802 
	C477.861023,210.068802 469.392609,210.068802 460.993652,209.125107 
	C460.993652,192.197571 460.993652,175.270020 460.993652,157.976868 
	C486.828308,157.976868 512.214355,157.976868 537.631714,157.976868 
	C537.631714,149.085892 537.631714,140.569595 537.631714,131.670624 
	C529.193298,131.670624 521.120728,131.670624 512.679565,131.670624 
	C512.679565,122.874908 512.679565,114.470078 512.679565,106.350677 
	C503.884216,106.350677 495.481598,106.350677 486.704712,106.350677 
	C486.704712,115.103294 486.704712,123.508858 486.704712,132.274170 
	C469.254395,132.274170 452.193359,132.274170 434.750977,132.274170 
	C434.750977,141.055740 434.750977,149.461319 434.750977,158.075806 
	C426.217804,158.075806 418.074524,158.075806 409.994110,157.130432 
	C409.994110,148.767593 409.994110,140.404755 409.994110,132.068802 
	C400.819489,132.068802 392.371857,132.068802 383.993652,131.125107 
	C383.993652,122.850998 383.993652,114.576897 383.993652,105.913963 
	C392.881470,105.913963 401.291718,105.913963 410.081360,105.913963 
	C410.081360,88.783989 410.081360,72.046684 410.081360,55.236950 
	C418.546478,55.236950 426.616028,55.236950 435.076874,55.236950 
	C435.076874,72.207390 435.076874,88.944656 435.076874,105.762924 
	C443.874664,105.762924 452.277039,105.762924 461.074951,105.762924 
	C461.074951,97.459290 461.074951,89.382202 461.074951,80.921738 
	C469.873474,80.921738 478.283600,80.921738 486.764282,80.921738 
	C486.764282,63.456902 486.764282,46.390453 486.764282,29.213428 
	C426.809540,29.213428 367.089600,29.213428 307.277039,29.213428 
	C307.277039,38.033470 307.277039,46.642288 306.284515,55.019779 
	C289.168915,55.037594 272.053345,55.055408 254.994522,54.128319 
	C254.994522,45.871250 254.994522,37.614182 254.994522,29.368458 
	C246.060211,29.368458 237.556061,29.368458 229.343719,29.368458 
	C229.343719,38.127224 229.343719,46.517017 229.343719,54.931484 
	C238.150726,54.931484 246.615265,54.931484 255.006638,55.874886 
	C255.006638,64.149567 255.006638,72.424240 255.006638,81.090179 
	C263.889465,81.090179 272.300232,81.090179 281.096680,81.090179 
	C281.096680,89.558632 281.096680,97.636200 281.096680,105.748650 
	C289.901794,105.748650 298.305206,105.748650 307.125153,105.748650 
	C307.125153,88.705742 307.125153,71.911278 308.040955,55.007229 
	C333.299622,55.007229 358.558258,55.007229 383.695068,55.007229 
	C383.695068,64.014275 383.695068,72.421410 383.695068,81.219994 
	C366.316376,81.219994 349.240875,81.219994 332.075775,81.219994 
	C332.075775,98.436607 332.075775,115.252686 331.130432,132.005890 
	C323.100586,132.005890 315.070770,132.005890 307.068817,132.005890 
	C307.068817,141.182510 307.068817,149.629135 306.125122,158.006348 
	C297.729279,158.028702 289.333466,158.051071 280.994537,157.128479 
	C280.994537,148.871399 280.994537,140.614319 280.994537,132.368378 
	C272.059784,132.368378 263.555969,132.368378 255.343658,132.368378 
	C255.343658,141.127090 255.343658,149.516907 255.343658,157.931686 
	C264.150635,157.931686 272.615173,157.931686 281.006622,158.875076 
	C281.006622,184.211884 281.006622,209.548691 281.006622,235.073303 
	C271.865295,235.073303 263.401489,235.073303 254.994522,234.128357 
	C254.994522,217.545990 254.994522,200.963608 254.994522,184.368408 
	C246.073608,184.368408 237.563049,184.368408 229.333969,184.368408 
	C229.333969,201.450729 229.333969,218.164932 229.333969,234.931564 
	C238.137680,234.931564 246.608704,234.931564 255.006638,235.874969 
	C255.006638,244.135101 255.006638,252.395218 255.006638,261.024414 
	C246.174911,261.024414 237.778885,261.024414 229.357849,261.024414 
	C229.357849,269.912842 229.357849,278.420349 229.357849,287.086456 
	C246.829880,287.086456 263.945282,287.086456 280.992249,287.013245 
	C280.992249,287.013245 280.919159,286.944702 280.995270,287.886230 
	C280.995270,296.140961 280.995270,304.395660 280.995270,313.189453 
	C272.064117,313.189453 263.548889,313.189453 254.690338,313.189453 
	C254.690338,321.793121 254.690338,329.851654 254.690338,338.075775 
	C245.856049,338.075775 237.393646,338.075775 228.994110,337.130432 
	C228.994110,329.100769 228.994110,321.071136 228.994110,313.068817 
	C220.152832,313.068817 212.038528,313.068817 203.993652,312.125122 
	C203.993652,303.874390 203.993652,295.623657 203.993652,287.351257 
	C195.081787,287.351257 186.583603,287.351257 178.068802,287.351257 
	C178.068802,296.159546 178.068802,304.617676 177.125107,313.006348 
	C151.455688,312.962524 125.786263,312.918701 100.007225,311.959076 
	C100.007225,303.702454 100.007225,295.445801 100.007225,286.816345 
	C117.651863,286.816345 134.716843,286.816345 151.725555,286.816345 
	C151.725555,269.367828 151.725555,252.306152 151.725555,235.263763 
	C134.389359,235.263763 117.327866,235.263763 99.875748,235.263763 
	C99.875748,243.926300 99.875748,252.331741 99.875748,260.745422 
	C91.412437,260.745422 83.344833,260.745422 74.888077,260.745422 
	C74.888077,252.090546 74.888077,243.683350 74.888077,235.242554 
	C57.432274,235.242554 40.371052,235.242554 23.231920,235.242554 
	C23.231920,252.546143 23.231920,269.607269 23.231920,287.052521 
	C40.522964,287.052521 57.587444,287.052521 75.039764,287.052521 
	C75.039764,295.835022 75.039764,304.242920 75.039764,312.722961 
	C83.705177,312.722961 91.978157,312.722961 100.019783,313.715454 
	C100.038460,321.833221 100.057144,329.951019 99.130455,338.005859 
	C82.399574,338.028290 65.668686,338.050690 48.994534,337.128235 
	C48.994534,329.203979 48.994534,321.279755 48.994534,313.368469 
	C40.058857,313.368469 31.555494,313.368469 23.344334,313.368469 
	C23.344334,321.794769 23.344334,329.851898 23.344334,337.931396 
	C32.151592,337.931396 40.615715,337.931396 49.006649,338.874817 
	C49.028885,347.270660 49.051121,355.666504 48.128422,364.005463 
	C39.871353,364.005463 31.614283,364.005463 23.368393,364.005463 
	C23.368393,372.939697 23.368393,381.443878 23.368393,389.656342 
	C32.127102,389.656342 40.516911,389.656342 48.931606,389.656342 
	C48.931606,380.849365 48.931606,372.384857 49.875008,363.993378 
	C66.606262,363.970306 83.337524,363.947266 100.005882,364.869568 
	C100.026863,373.271637 100.047836,381.673676 99.125137,390.006317 
	C91.186066,390.006317 83.246994,390.006317 74.922554,390.006317 
	C74.922554,398.877716 74.922554,407.285797 74.922554,416.067871 
	C57.466328,416.067871 40.400127,416.067871 23.369946,416.067871 
	C23.369946,467.617371 23.369946,518.778381 23.369946,569.639526 
	C40.804226,569.639526 57.868835,569.639526 75.312103,569.639526 
	C75.312103,552.547729 75.312103,535.814453 75.312103,519.346680 
	C83.774590,519.346680 91.847000,519.346680 100.290558,519.346680 
	C100.290558,536.426270 100.290558,553.159668 100.290558,569.682739 
	C135.066299,569.682739 169.453613,569.682739 203.924179,569.682739 
	C203.924179,560.888367 203.924179,552.409851 204.869537,543.994141 
	C212.938278,543.973206 221.007034,543.952209 229.006348,544.874939 
	C229.006348,561.783752 229.006348,578.692627 229.006348,596.152344 
	C237.899841,596.152344 246.420746,596.152344 255.291138,596.152344 
	C255.291138,605.099426 255.291138,613.495239 255.291138,621.924377 
	C264.134979,621.924377 272.601868,621.924377 281.005890,622.869690 
	C281.005890,631.232483 281.005890,639.595337 281.005890,647.931152 
	C290.180511,647.931152 298.628143,647.931152 307.006317,648.874817 
	C307.006317,656.810486 307.006317,664.746155 307.006317,673.062744 
	C315.530731,673.062744 323.601410,673.062744 331.782501,673.062744 
	C331.782501,681.851074 331.782501,690.248474 331.782501,698.802551 
	C314.840973,698.802551 298.118256,698.802551 280.829346,698.802551 
	C280.829346,690.091003 280.829346,681.561890 280.829346,672.671875 
	C271.860199,672.671875 263.455963,672.671875 254.683136,672.671875 
	C254.683136,664.211426 254.683136,656.139771 254.683136,648.346924 
	C245.889801,648.346924 237.488312,648.346924 229.328354,648.346924 
	C229.328354,665.418396 229.328354,682.142761 229.328354,699.249268 
	C238.056366,699.249268 246.460983,699.249268 255.073349,699.249268 
	C255.073349,708.112366 255.073349,716.587280 254.128418,725.005432 
	C245.864853,725.005432 237.601273,725.005432 229.368439,725.005432 
	C229.368439,742.282837 229.368439,759.113037 229.368439,775.646606 
	C238.134201,775.646606 246.530869,775.646606 254.931610,775.646606 
	C254.931610,758.502808 254.931610,741.711426 255.874985,724.993347 
	C264.145294,724.993347 272.415619,724.993347 281.069183,724.993347 
	C281.069183,733.866028 281.069183,742.272278 281.069183,751.056885 
	C289.857330,751.056885 298.262634,751.056885 307.049011,751.056885 
	C307.049011,759.511597 307.049011,767.585449 307.049011,775.802612 
	C332.826935,775.802612 358.212585,775.802612 383.990173,775.802612 
	C383.990173,767.545105 383.990173,759.471130 383.990173,751.361328 
	C392.904785,751.361328 401.422882,751.361328 410.324127,751.361328 
	C410.324127,759.795349 410.324127,767.868591 410.324127,775.665039 
	C436.104004,775.665039 461.491150,775.665039 487.265259,775.665039 
	C487.265259,767.261108 487.265259,759.188416 487.265259,750.924316 
	C504.460907,750.924316 521.264832,750.924316 538.005859,751.869690 
	C538.005859,759.788452 538.005859,767.707153 538.005859,775.649963 
	C546.916748,775.649963 555.414246,775.649963 563.931274,775.649963 
	C563.931274,767.175415 563.931274,759.049866 564.874939,750.993652 
	C573.145630,750.993652 581.416321,750.993652 590.071045,750.993652 
	C590.071045,759.534241 590.071045,767.606689 590.071045,775.799072 
	C624.511047,775.799072 658.558228,775.799072 693.165039,775.799072 
	C693.165039,758.755493 693.165039,741.903259 693.165039,725.356689 
	C702.131287,725.356689 710.535767,725.356689 719.314819,725.356689 
	C719.314819,734.118896 719.314819,742.524719 719.314819,750.649902 
	C728.112732,750.649902 736.516296,750.649902 745.295776,750.649902 
	C745.295776,741.896606 745.295776,733.490234 745.295776,724.711121 
	C753.758850,724.711121 761.832520,724.711121 769.662720,724.711121 
	C769.662720,715.913147 769.662720,707.510315 769.662720,698.729431 
	C761.256042,698.729431 753.182312,698.729431 744.745300,698.729431 
	C744.745300,681.608521 744.745300,664.878357 744.745300,648.075684 
	C735.885376,648.075684 727.408325,648.075684 718.994141,647.130310 
	C718.994141,638.767517 718.994141,630.404663 718.994141,622.068726 
	C709.819580,622.068726 701.371948,622.068726 692.993652,621.125061 
	C693.024963,612.729431 693.056274,604.333801 693.014221,596.006531 
	C693.014221,596.006531 692.945740,596.079590 693.887268,596.004639 
	C702.156250,596.004639 710.425293,596.004639 719.077393,596.004639 
	C719.077393,587.121521 719.077393,578.716492 719.077393,570.228271 
	C727.869873,570.228271 736.268921,570.228271 745.057495,570.228271 
	C745.057495,578.853943 745.057495,587.259277 745.057495,595.778931 
	C753.516113,595.778931 761.581604,595.778931 769.802490,595.778931 
	C769.802490,570.172852 769.802490,544.787109 769.802490,519.201294 
	C761.540771,519.201294 753.475342,519.201294 744.840942,519.201294 
	C744.840942,527.567871 744.840942,535.767883 744.840942,543.642456 
	C735.866211,543.642456 727.462097,543.642456 718.683472,543.642456 
	C718.683472,535.212402 718.683472,527.139343 718.683472,518.724243 
	C684.244263,518.724243 650.196472,518.724243 615.924377,518.724243 
	C615.924377,509.885468 615.924377,501.408325 616.869690,492.994110 
	C642.209412,492.994110 667.549194,492.994110 692.931152,492.994110 
	C692.931152,483.855743 692.931152,475.390015 693.874817,466.993683 
	C702.146851,466.993683 710.418884,466.993683 719.070190,466.993683 
	C719.070190,449.793304 719.070190,433.060150 719.070190,415.938995 
	C727.856506,415.938995 736.263733,415.938995 744.773315,415.938995 
	C744.773315,407.142395 744.773315,398.741882 744.773315,389.948730 
	C736.149353,389.948730 727.740845,389.948730 718.721741,389.948730 
	C718.721741,372.287292 718.721741,355.017578 719.714478,337.980133 
	C728.163879,337.962189 736.613281,337.944275 745.005432,338.871399 
M537.994568,80.128517 
	C538.038391,71.791580 538.082214,63.454647 539.041687,55.007298 
	C547.285522,55.007298 555.529358,55.007298 563.742004,55.007298 
	C563.742004,46.052029 563.742004,37.664379 563.742004,29.236794 
	C555.095154,29.236794 546.707397,29.236794 538.277954,29.236794 
	C538.277954,38.065319 538.277954,46.658630 537.285278,55.019848 
	C529.217834,55.019848 521.150391,55.019848 513.333008,55.019848 
	C513.333008,64.091805 513.333008,72.487625 513.333008,80.931732 
	C521.803040,80.931732 529.941406,80.931732 538.006653,81.875107 
	C538.006653,89.797836 538.006653,97.720558 538.006653,105.634399 
	C546.938782,105.634399 555.441833,105.634399 563.659912,105.634399 
	C563.659912,97.212120 563.659912,89.156021 563.659912,81.073479 
	C554.859863,81.073479 546.398804,81.073479 537.994568,80.128517 
M770.143921,56.500050 
	C770.143921,47.566261 770.143921,38.632473 770.143921,29.680782 
	C709.869873,29.680782 650.176086,29.680782 590.398071,29.680782 
	C590.398071,89.599098 590.398071,149.159439 590.398071,208.954208 
	C650.327026,208.954208 710.025452,208.954208 770.143921,208.954208 
	C770.143921,158.342316 770.143921,107.921181 770.143921,56.500050 
M27.528328,209.187012 
	C86.099068,209.187012 144.669815,209.187012 202.997940,209.187012 
	C202.997940,148.844009 202.997940,89.262070 202.997940,29.679596 
	C143.095428,29.679596 83.541443,29.679596 23.851896,29.679596 
	C23.778360,31.177681 23.672535,32.329285 23.672373,33.480907 
	C23.664301,90.644371 23.665234,147.807831 23.665756,204.971298 
	C23.665764,205.804565 23.340630,206.915344 23.752161,207.408188 
	C24.424078,208.212860 25.578463,208.614639 27.528328,209.187012 
M150.499985,776.076782 
	C168.080215,776.076782 185.660431,776.076782 203.008270,776.076782 
	C203.008270,715.654236 203.008270,655.937988 203.008270,596.252686 
	C143.085663,596.252686 83.498856,596.252686 23.903107,596.252686 
	C23.903107,656.237183 23.903107,715.969238 23.903107,776.076782 
	C65.925247,776.076782 107.712608,776.076782 150.499985,776.076782 
M745.001282,237.681290 
	C745.001282,254.093079 745.001282,270.504852 745.001282,286.644440 
	C753.780334,286.644440 761.855957,286.644440 769.642212,286.644440 
	C769.642212,269.216705 769.642212,252.144516 769.642212,235.001160 
	C762.289734,235.001160 755.292297,234.926498 748.299683,235.077789 
	C747.190125,235.101791 746.102661,236.143402 745.001282,237.681290 
M198.399994,235.001038 
	C191.643417,235.001038 184.886841,235.001038 178.325317,235.001038 
	C178.325317,244.054413 178.325317,252.460297 178.325317,260.672668 
	C187.058456,260.672668 195.464569,260.672668 203.847443,260.672668 
	C203.847443,252.060532 203.847443,243.775620 203.847443,235.001053 
	C202.261200,235.001053 200.819061,235.001053 198.399994,235.001038 
M563.999023,193.531982 
	C563.999023,190.425720 563.999023,187.319443 563.999023,184.278610 
	C555.039795,184.278610 546.636353,184.278610 538.279602,184.278610 
	C538.279602,192.962616 538.279602,201.366043 538.279602,209.719330 
	C546.964478,209.719330 555.367920,209.719330 563.999023,209.719330 
	C563.999023,204.468552 563.999023,199.494202 563.999023,193.531982 
z"/>
<path fill="#000000" opacity="1.000000" stroke="none" 
	d="
M538.068726,750.924316 
	C521.264832,750.924316 504.460907,750.924316 487.265259,750.924316 
	C487.265259,759.188416 487.265259,767.261108 487.265259,775.665039 
	C461.491150,775.665039 436.104004,775.665039 410.324127,775.665039 
	C410.324127,767.868591 410.324127,759.795349 410.324127,751.361328 
	C401.422882,751.361328 392.904785,751.361328 383.990173,751.361328 
	C383.990173,759.471130 383.990173,767.545105 383.990173,775.802612 
	C358.212585,775.802612 332.826935,775.802612 307.049011,775.802612 
	C307.049011,767.585449 307.049011,759.511597 307.049011,751.056885 
	C298.262634,751.056885 289.857330,751.056885 281.069183,751.056885 
	C281.069183,742.272278 281.069183,733.866028 281.069183,724.993347 
	C272.415619,724.993347 264.145294,724.993347 255.437561,724.993408 
	C255.000153,724.993408 255.073349,725.062134 255.073349,725.062134 
	C255.073349,716.587280 255.073349,708.112366 255.073349,699.249268 
	C246.460983,699.249268 238.056366,699.249268 229.328354,699.249268 
	C229.328354,682.142761 229.328354,665.418396 229.328354,648.346924 
	C237.488312,648.346924 245.889801,648.346924 254.683136,648.346924 
	C254.683136,656.139771 254.683136,664.211426 254.683136,672.671875 
	C263.455963,672.671875 271.860199,672.671875 280.829346,672.671875 
	C280.829346,681.561890 280.829346,690.091003 280.829346,698.802551 
	C298.118256,698.802551 314.840973,698.802551 331.782501,698.802551 
	C331.782501,690.248474 331.782501,681.851074 331.782501,673.062744 
	C323.601410,673.062744 315.530731,673.062744 307.006317,673.062744 
	C307.006317,664.746155 307.006317,656.810486 307.004333,648.437378 
	C307.002350,647.999939 306.930054,648.069946 307.402161,648.037476 
	C333.113770,648.004944 358.353271,648.004944 383.661713,648.004944 
	C383.661713,665.219910 383.661713,682.053284 383.661713,699.266663 
	C374.925812,699.266663 366.525330,699.266663 358.073334,699.266663 
	C358.073334,708.120850 358.073334,716.591797 357.600891,725.033569 
	C348.870850,725.004456 340.613281,725.004456 332.367249,725.004456 
	C332.367249,733.939575 332.367249,742.444458 332.367249,750.657654 
	C341.126495,750.657654 349.516937,750.657654 357.931458,750.657654 
	C357.931458,741.850464 357.931458,733.385498 358.403137,724.957458 
	C384.127930,724.994385 409.381012,724.994385 434.793732,724.994385 
	C434.793732,716.176147 434.793732,707.778137 434.793732,698.990112 
	C426.526337,698.990112 418.454010,698.990112 409.869385,698.990112 
	C409.869385,655.779724 409.869385,612.956909 409.869385,569.749023 
	C400.944275,569.749023 392.538788,569.749023 383.924164,569.749023 
	C383.924164,560.883301 383.924164,552.407166 384.396790,543.963013 
	C393.121857,543.995117 401.374329,543.995117 409.924133,543.995117 
	C409.924133,526.702942 409.924133,509.816956 410.396790,492.963043 
	C418.938232,492.973724 427.007019,492.952332 435.040588,493.402771 
	C435.005341,510.456299 435.005341,527.037964 435.005341,543.654907 
	C452.575104,543.654907 469.737946,543.654907 487.278381,543.654907 
	C487.278381,535.246277 487.278381,527.180054 487.278381,518.924133 
	C496.129333,518.924133 504.599152,518.924133 513.036926,519.396790 
	C513.004883,527.801025 513.004883,535.732605 513.004883,543.651978 
	C538.935974,543.651978 564.420898,543.651978 590.069946,543.651978 
	C590.069946,526.512756 590.069946,509.721405 590.034973,492.965027 
	C590.000000,493.000000 589.930054,493.069946 590.402100,493.037415 
	C599.272766,493.026581 607.671387,493.048248 616.033813,493.034973 
	C615.997742,493.000031 615.924377,492.931213 615.924377,492.931213 
	C615.924377,501.408325 615.924377,509.885468 615.924377,518.724243 
	C650.196472,518.724243 684.244263,518.724243 718.683472,518.724243 
	C718.683472,527.139343 718.683472,535.212402 718.683472,543.642456 
	C727.462097,543.642456 735.866211,543.642456 744.840942,543.642456 
	C744.840942,535.767883 744.840942,527.567871 744.840942,519.201294 
	C753.475342,519.201294 761.540771,519.201294 769.802490,519.201294 
	C769.802490,544.787109 769.802490,570.172852 769.802490,595.778931 
	C761.581604,595.778931 753.516113,595.778931 745.057495,595.778931 
	C745.057495,587.259277 745.057495,578.853943 745.057495,570.228271 
	C736.268921,570.228271 727.869873,570.228271 719.077393,570.228271 
	C719.077393,578.716492 719.077393,587.121521 719.077393,596.004639 
	C710.425293,596.004639 702.156250,596.004639 693.441650,595.568726 
	C692.996033,578.215393 692.996033,561.297913 692.996033,544.368042 
	C684.073975,544.368042 675.562561,544.368042 667.334595,544.368042 
	C667.334595,561.785767 667.334595,578.834717 667.334595,595.938171 
	C676.141724,595.938171 684.614624,595.938171 693.087524,595.938171 
	C693.056274,604.333801 693.024963,612.729431 692.995605,621.562500 
	C692.997620,621.999939 693.069946,621.930054 692.597900,621.962524 
	C683.874939,621.995056 675.624084,621.995056 667.348633,621.995056 
	C667.348633,630.915833 667.348633,639.414124 667.348633,648.069946 
	C676.154480,648.069946 684.612244,648.069946 693.034973,648.034973 
	C693.000000,648.000000 692.930054,647.930054 692.962524,648.402100 
	C692.995056,656.792175 692.995056,664.710205 692.995056,672.651917 
	C701.916504,672.651917 710.413757,672.651917 719.069946,672.651917 
	C719.069946,664.179443 719.069946,656.054749 719.035034,647.966187 
	C719.000061,648.002380 718.931274,648.075684 718.931274,648.075684 
	C727.408325,648.075684 735.885376,648.075684 744.745300,648.075684 
	C744.745300,664.878357 744.745300,681.608521 744.745300,698.729431 
	C753.182312,698.729431 761.256042,698.729431 769.662720,698.729431 
	C769.662720,707.510315 769.662720,715.913147 769.662720,724.711121 
	C761.832520,724.711121 753.758850,724.711121 745.295776,724.711121 
	C745.295776,733.490234 745.295776,741.896606 745.295776,750.649902 
	C736.516296,750.649902 728.112732,750.649902 719.314819,750.649902 
	C719.314819,742.524719 719.314819,734.118896 719.314819,725.356689 
	C710.535767,725.356689 702.131287,725.356689 693.165039,725.356689 
	C693.165039,741.903259 693.165039,758.755493 693.165039,775.799072 
	C658.558228,775.799072 624.511047,775.799072 590.071045,775.799072 
	C590.071045,767.606689 590.071045,759.534241 590.071045,750.993652 
	C581.416321,750.993652 573.145630,750.993652 564.437500,750.995605 
	C564.000061,750.997620 564.069946,751.069946 564.037476,750.597900 
	C564.004944,741.874329 564.004944,733.622925 564.004944,724.926636 
	C581.629089,724.926636 598.845825,724.926636 616.033508,725.399109 
	C616.004456,734.140198 616.004456,742.408875 616.004456,750.788879 
	C633.185364,750.788879 649.907410,750.788879 666.645752,750.788879 
	C666.645752,724.744751 666.645752,698.913391 666.645752,673.346680 
	C658.220825,673.346680 650.152100,673.346680 641.724243,673.346680 
	C641.724243,690.750488 641.724243,707.809082 641.724243,725.068481 
	C632.872742,725.068481 624.396545,725.068481 615.957397,724.596802 
	C615.994385,707.110657 615.994385,690.096191 615.994385,672.872314 
	C589.571838,672.872314 563.845764,672.872314 538.064026,672.414673 
	C538.008362,664.032715 538.008362,656.108398 538.008362,647.810669 
	C520.674377,647.810669 503.941162,647.810669 487.285950,647.810669 
	C487.285950,639.017883 487.285950,630.615784 487.285950,621.827271 
	C495.973755,621.827271 504.381683,621.827271 513.167725,621.827271 
	C513.167725,613.031372 513.167725,604.623413 513.167725,595.836914 
	C521.630371,595.836914 529.704956,595.836914 537.723694,595.836914 
	C537.723694,587.037659 537.723694,578.635864 537.723694,570.260071 
	C512.054810,570.260071 486.663177,570.260071 460.893188,570.260071 
	C460.893188,596.244507 460.893188,621.971375 460.893188,648.087891 
	C452.113708,648.087891 443.706696,648.087891 435.238831,648.087891 
	C435.238831,656.551636 435.238831,664.619141 435.238831,673.078491 
	C443.876648,673.078491 452.283569,673.078491 461.073517,673.078491 
	C461.073517,681.871643 461.073517,690.279541 461.073517,699.068604 
	C469.866394,699.068604 478.273407,699.068604 487.063599,699.068604 
	C487.063599,707.861389 487.063599,716.269653 487.063599,724.773560 
	C495.860016,724.773560 504.260742,724.773560 513.046631,724.773560 
	C513.046631,707.485779 513.046631,690.419739 513.046631,672.719910 
	C521.702698,672.719910 529.978394,672.719910 538.136597,673.216431 
	C537.989380,699.498596 537.959717,725.284302 537.964966,751.033813 
	C537.999939,750.997620 538.068726,750.924316 538.068726,750.924316 
M596.500000,648.000000 
	C611.595520,648.000000 626.690979,648.000000 641.713623,648.000000 
	C641.713623,621.690186 641.713623,595.954163 641.713623,570.286377 
	C615.690247,570.286377 589.954224,570.286377 564.286377,570.286377 
	C564.286377,596.309753 564.286377,622.045776 564.286377,648.000000 
	C574.880859,648.000000 585.190430,648.000000 596.500000,648.000000 
z"/>
<path fill="#000000" opacity="1.000000" stroke="none" 
	d="
M281.060669,287.086456 
	C263.945282,287.086456 246.829880,287.086456 229.357849,287.086456 
	C229.357849,278.420349 229.357849,269.912842 229.357849,261.024414 
	C237.778885,261.024414 246.174911,261.024414 255.006638,261.024414 
	C255.006638,252.395218 255.006638,244.135101 255.006500,235.437546 
	C255.006378,235.000122 254.937668,235.073303 254.937668,235.073303 
	C263.401489,235.073303 271.865295,235.073303 281.006622,235.073303 
	C281.006622,209.548691 281.006622,184.211884 281.006470,158.437653 
	C281.006348,158.000244 280.937622,158.073441 280.937622,158.073441 
	C289.333466,158.051071 297.729279,158.028702 306.562561,158.004364 
	C307.000000,158.002396 306.930054,157.930054 306.962585,158.402130 
	C306.995087,175.886307 306.995087,192.898407 306.995087,209.930984 
	C315.821625,209.930984 323.948730,209.930984 332.040588,210.402802 
	C332.005341,218.811935 332.005341,226.749237 332.005341,235.069061 
	C340.868011,235.069061 349.274200,235.069061 358.048706,235.069061 
	C358.048706,252.518250 358.048706,269.580597 358.048706,287.028381 
	C366.825867,287.028381 375.231537,287.028381 384.008423,287.028381 
	C384.008423,304.143768 384.008423,320.873291 384.008423,337.633179 
	C392.912628,337.633179 401.430298,337.633179 410.321075,337.633179 
	C410.321075,320.537903 410.321075,303.808594 410.321075,287.337128 
	C427.432709,287.337128 444.160675,287.337128 461.272278,287.337128 
	C461.272278,296.077087 461.272278,304.483032 461.272278,313.261780 
	C470.066345,313.261780 478.472412,313.261780 487.073334,313.261780 
	C487.073334,330.456055 487.073334,347.259277 486.600891,364.033508 
	C469.207306,364.004486 452.286163,364.004486 435.362183,364.004486 
	C435.362183,381.597015 435.362183,398.766479 435.362183,415.648895 
	C444.125946,415.648895 452.525757,415.648895 461.294373,415.648895 
	C461.294373,406.897919 461.294373,398.496368 461.294373,389.727753 
	C470.079254,389.727753 478.480927,389.727753 486.931458,389.727753 
	C486.931458,380.868347 486.931458,372.394348 487.403137,363.957367 
	C496.138977,363.994385 504.403107,363.994385 513.069946,363.994385 
	C513.069946,320.675171 513.069946,277.802612 513.035034,234.966248 
	C513.000061,235.002426 512.931274,235.075821 512.931274,235.075821 
	C529.733643,235.075821 546.536011,235.075821 563.668579,235.075821 
	C563.668579,243.521851 563.668579,251.923401 563.668579,260.718170 
	C555.490417,260.718170 547.085510,260.718170 538.340881,260.718170 
	C538.340881,269.496033 538.340881,277.898651 538.340881,286.694336 
	C546.482361,286.694336 554.885864,286.694336 563.644165,286.694336 
	C563.644165,312.583984 563.644165,338.085846 563.644165,363.980103 
	C555.221497,363.980103 546.815430,363.980103 538.030029,363.980103 
	C538.030029,372.763977 538.030029,381.169983 538.030029,389.956116 
	C529.579834,389.956116 521.506592,389.956116 513.221680,389.956116 
	C513.221680,398.743805 513.221680,407.142212 513.221680,415.933105 
	C521.392578,415.933105 529.465515,415.933105 537.993652,415.933105 
	C537.993652,424.251923 537.993652,432.188538 537.995728,440.562592 
	C537.997742,441.000031 538.069946,440.930054 537.597900,440.962585 
	C503.124329,440.995087 469.122864,440.995087 435.069061,440.995087 
	C435.069061,450.136963 435.069061,458.606415 434.597229,467.040588 
	C426.060577,467.028870 417.995789,467.052368 409.963043,466.603210 
	C409.995117,457.878479 409.995117,449.626343 409.995117,441.349426 
	C401.083923,441.349426 392.585144,441.349426 384.069061,441.349426 
	C384.069061,450.157776 384.069061,458.616821 383.597229,467.040588 
	C374.873779,467.005341 366.622192,467.005341 358.069946,467.005341 
	C358.069946,449.700897 358.069946,432.815491 358.034973,415.965027 
	C358.000000,416.000000 357.930054,416.069946 358.402130,416.037415 
	C367.125061,416.004913 375.375916,416.004913 383.651367,416.004913 
	C383.651367,407.084198 383.651367,398.585876 383.651367,389.930054 
	C374.845398,389.930054 366.387726,389.930054 357.965027,389.965027 
	C358.000000,390.000000 358.069946,390.069946 358.037445,389.597839 
	C358.004944,380.858948 358.004944,372.592163 358.004944,363.961639 
	C340.822327,363.961639 324.099823,363.961639 306.996948,363.961639 
	C306.996948,355.198395 306.996948,346.795349 306.996948,338.360779 
	C298.091797,338.360779 289.577362,338.360779 280.685547,338.360779 
	C280.685547,347.122345 280.685547,355.524506 280.685547,363.675110 
	C263.244324,363.675110 246.190491,363.675110 229.069946,363.675110 
	C229.069946,354.877106 229.069946,346.403595 229.034973,337.966217 
	C229.000015,338.002380 228.931229,338.075775 228.931229,338.075775 
	C237.393646,338.075775 245.856049,338.075775 254.690338,338.075775 
	C254.690338,329.851654 254.690338,321.793121 254.690338,313.189453 
	C263.548889,313.189453 272.064117,313.189453 280.995270,313.189453 
	C280.995270,304.395660 280.995270,296.140961 281.430756,287.441101 
	C298.450684,286.995972 315.035156,286.995972 331.632446,286.995972 
	C331.632446,278.074188 331.632446,269.562744 331.632446,261.334412 
	C314.548279,261.334412 297.832428,261.334412 281.060669,261.334412 
	C281.060669,270.141174 281.060669,278.613800 281.060669,287.086456 
z"/>
<path fill="#000000" opacity="1.000000" stroke="none" 
	d="
M203.924179,543.931274 
	C203.924179,552.409851 203.924179,560.888367 203.924179,569.682739 
	C169.453613,569.682739 135.066299,569.682739 100.290558,569.682739 
	C100.290558,553.159668 100.290558,536.426270 100.290558,519.346680 
	C91.847000,519.346680 83.774590,519.346680 75.312103,519.346680 
	C75.312103,535.814453 75.312103,552.547729 75.312103,569.639526 
	C57.868835,569.639526 40.804226,569.639526 23.369946,569.639526 
	C23.369946,518.778381 23.369946,467.617371 23.369946,416.067871 
	C40.400127,416.067871 57.466328,416.067871 74.922554,416.067871 
	C74.922554,407.285797 74.922554,398.877716 74.922554,390.006317 
	C83.246994,390.006317 91.186066,390.006317 99.562576,390.004333 
	C100.000008,390.002350 99.930061,389.930054 99.962555,390.402161 
	C99.995049,399.125061 99.995049,407.375916 99.995049,415.651367 
	C108.915794,415.651367 117.414124,415.651367 126.069939,415.651367 
	C126.069939,406.845398 126.069939,398.387726 126.034973,389.965027 
	C126.000000,390.000000 125.930061,390.069946 126.402176,390.037445 
	C135.125061,390.004944 143.375854,390.004944 152.158417,390.004944 
	C152.158417,398.909332 152.158417,407.419708 152.158417,415.924133 
	C161.154282,415.924133 169.611633,415.924133 178.036942,416.396790 
	C178.004898,424.899658 178.004898,432.929901 178.004898,440.930969 
	C187.181778,440.930969 195.628815,440.930969 204.040619,441.402802 
	C204.005356,450.125397 204.005356,458.376160 204.005356,467.158722 
	C195.090317,467.158722 186.579956,467.158722 177.930054,467.158722 
	C177.930054,476.154572 177.930054,484.612274 177.965027,493.034973 
	C178.000000,493.000000 178.069946,492.930054 177.597870,492.962585 
	C168.864594,492.995087 160.603409,492.995087 152.356781,492.995087 
	C152.356781,510.272369 152.356781,527.098755 152.356781,544.069946 
	C169.832245,544.069946 186.951096,544.069946 204.033752,544.035034 
	C203.997574,544.000061 203.924179,543.931274 203.924179,543.931274 
M75.000000,470.499969 
	C75.000000,477.930908 75.000000,485.361847 75.000000,492.716187 
	C92.308296,492.716187 109.043159,492.716187 125.715134,492.716187 
	C125.715134,484.025146 125.715134,475.620880 125.715134,466.825928 
	C117.026054,466.825928 108.615707,466.825928 99.823799,466.825928 
	C99.823799,458.023834 99.823799,449.613586 99.823799,441.288208 
	C91.351387,441.288208 83.280060,441.288208 75.000000,441.288208 
	C75.000000,450.883270 75.000000,460.191620 75.000000,470.499969 
z"/>
<path fill="#020202" opacity="1.000000" stroke="none" 
	d="
M770.143921,57.000053 
	C770.143921,107.921181 770.143921,158.342316 770.143921,208.954208 
	C710.025452,208.954208 650.327026,208.954208 590.398071,208.954208 
	C590.398071,149.159439 590.398071,89.599098 590.398071,29.680782 
	C650.176086,29.680782 709.869873,29.680782 770.143921,29.680782 
	C770.143921,38.632473 770.143921,47.566261 770.143921,57.000053 
M714.500000,54.998699 
	C681.752319,54.998699 649.004700,54.998699 616.345825,54.998699 
	C616.345825,98.228966 616.345825,140.924240 616.345825,183.602722 
	C659.268738,183.602722 701.844299,183.602722 744.662109,183.602722 
	C744.662109,140.681824 744.662109,97.992546 744.662109,54.998699 
	C734.764404,54.998699 725.132202,54.998699 714.500000,54.998699 
z"/>
<path fill="#010101" opacity="1.000000" stroke="none" 
	d="
M27.028809,209.186707 
	C25.578463,208.614639 24.424078,208.212860 23.752161,207.408188 
	C23.340630,206.915344 23.665764,205.804565 23.665756,204.971298 
	C23.665234,147.807831 23.664301,90.644371 23.672373,33.480907 
	C23.672535,32.329285 23.778360,31.177681 23.851896,29.679596 
	C83.541443,29.679596 143.095428,29.679596 202.997940,29.679596 
	C202.997940,89.262070 202.997940,148.844009 202.997940,209.187012 
	C144.669815,209.187012 86.099068,209.187012 27.028809,209.186707 
M49.163704,125.499939 
	C49.163704,144.787735 49.163704,164.075531 49.163704,183.526642 
	C92.332291,183.526642 135.044983,183.526642 177.809296,183.526642 
	C177.809296,140.612823 177.809296,98.008896 177.809296,55.295006 
	C134.899475,55.295006 92.183792,55.295006 49.163704,55.295006 
	C49.163704,78.560997 49.163704,101.530464 49.163704,125.499939 
z"/>
<path fill="#010101" opacity="1.000000" stroke="none" 
	d="
M149.999969,776.076782 
	C107.712608,776.076782 65.925247,776.076782 23.903107,776.076782 
	C23.903107,715.969238 23.903107,656.237183 23.903107,596.252686 
	C83.498856,596.252686 143.085663,596.252686 203.008270,596.252686 
	C203.008270,655.937988 203.008270,715.654236 203.008270,776.076782 
	C185.660431,776.076782 168.080215,776.076782 149.999969,776.076782 
M134.500076,621.825317 
	C106.213699,621.825317 77.927315,621.825317 49.503281,621.825317 
	C49.503281,664.991882 49.503281,707.689392 49.503281,750.460999 
	C92.434380,750.460999 135.021957,750.460999 177.721069,750.460999 
	C177.721069,707.485901 177.721069,664.757629 177.721069,621.825317 
	C163.458481,621.825317 149.479279,621.825317 134.500076,621.825317 
z"/>
<path fill="#000000" opacity="1.000000" stroke="none" 
	d="
M281.068787,621.924377 
	C272.601868,621.924377 264.134979,621.924377 255.291138,621.924377 
	C255.291138,613.495239 255.291138,605.099426 255.291138,596.152344 
	C246.420746,596.152344 237.899841,596.152344 229.006348,596.152344 
	C229.006348,578.692627 229.006348,561.783752 229.004364,544.437500 
	C229.002396,544.000061 228.930054,544.069946 229.402130,544.037476 
	C238.131439,544.004944 246.388672,544.004944 254.660873,544.004944 
	C254.660873,526.747498 254.660873,509.929230 254.660873,492.930054 
	C245.858154,492.930054 237.394104,492.930054 228.965027,492.965027 
	C229.000000,493.000000 229.069946,493.069946 229.037445,492.597839 
	C229.004944,483.858612 229.004944,475.591553 229.004944,466.945740 
	C237.854263,466.945740 246.257523,466.945740 255.034363,466.945740 
	C255.034363,458.166260 255.034363,449.762909 255.034363,440.985535 
	C263.813171,440.985535 272.215729,440.985535 281.157043,440.985535 
	C281.157043,423.762115 281.157043,406.917023 281.157043,390.069946 
	C307.160828,390.069946 332.615387,390.069946 358.069946,390.069946 
	C358.069946,390.069946 358.000000,390.000000 357.997528,390.437134 
	C357.973389,399.272858 357.951721,407.671387 357.930054,416.069946 
	C357.930054,416.069946 358.000000,416.000000 357.562866,415.997528 
	C348.867676,415.995056 340.609650,415.995056 332.075867,415.995056 
	C332.075867,441.978424 332.075867,467.523712 331.603210,493.036957 
	C323.198090,493.004883 315.265594,493.004883 306.957642,493.004883 
	C306.957642,484.156860 306.957642,475.756897 306.957642,467.199707 
	C298.180298,467.199707 289.786957,467.199707 281.344879,467.199707 
	C281.344879,484.567780 281.344879,501.734009 281.344879,518.924194 
	C298.482819,518.924194 315.275909,518.924194 332.036957,519.396851 
	C332.026306,527.938171 332.047729,536.006958 331.597290,544.040527 
	C323.206085,544.005371 315.286743,544.005371 307.075836,544.005371 
	C307.075836,561.634033 307.075836,578.851562 306.603210,596.036987 
	C297.768036,596.004883 289.405518,596.004883 280.930054,596.004883 
	C280.930054,605.176331 280.930054,613.623108 280.965027,622.033813 
	C280.999969,621.997742 281.068787,621.924377 281.068787,621.924377 
z"/>
<path fill="#000000" opacity="1.000000" stroke="none" 
	d="
M615.937317,364.073669 
	C624.409119,364.073669 632.880859,364.073669 641.720459,364.073669 
	C641.720459,347.145477 641.720459,330.425598 641.720459,313.321411 
	C650.136475,313.321411 658.205200,313.321411 666.636658,313.321411 
	C666.636658,304.432007 666.636658,295.918396 666.636658,287.031891 
	C649.894348,287.031891 633.174316,287.031891 616.006653,287.031891 
	C616.006653,278.405884 616.006653,270.140564 616.006348,261.437866 
	C616.006042,261.000488 615.937317,261.073669 615.937317,261.073669 
	C650.083557,261.073669 684.229736,261.073669 718.687378,261.073669 
	C718.687378,269.567963 718.687378,277.974365 718.687378,286.784302 
	C710.426147,286.784302 702.014038,286.784302 693.303101,286.784302 
	C693.303101,303.917847 693.303101,320.656189 693.303101,337.992676 
	C701.435364,337.992676 709.696716,337.992676 718.381104,337.906677 
	C718.804138,337.820679 718.721741,337.747894 718.721741,337.747894 
	C718.721741,355.017578 718.721741,372.287292 718.721741,389.948730 
	C727.740845,389.948730 736.149353,389.948730 744.773315,389.948730 
	C744.773315,398.741882 744.773315,407.142395 744.773315,415.938995 
	C736.263733,415.938995 727.856506,415.938995 719.070190,415.938995 
	C719.070190,433.060150 719.070190,449.793304 719.070190,466.993683 
	C710.418884,466.993683 702.146851,466.993683 693.437378,466.995667 
	C692.999939,466.997650 693.069946,467.069946 693.037476,466.597809 
	C693.004944,432.105927 693.004944,398.086212 693.004944,364.350403 
	C683.876099,364.350403 675.476013,364.350403 666.706543,364.350403 
	C666.706543,373.100952 666.706543,381.503052 666.706543,389.930054 
	C649.523743,389.930054 632.726868,389.930054 615.966187,389.965027 
	C616.002258,389.999969 616.075623,390.068787 616.075623,390.068787 
	C616.052612,381.670959 616.029663,373.273102 616.006348,364.437866 
	C616.006042,364.000488 615.937317,364.073669 615.937317,364.073669 
z"/>
<path fill="#000000" opacity="1.000000" stroke="none" 
	d="
M332.075775,132.068771 
	C332.075775,115.252686 332.075775,98.436607 332.075775,81.219994 
	C349.240875,81.219994 366.316376,81.219994 383.695068,81.219994 
	C383.695068,72.421410 383.695068,64.014275 383.695068,55.007229 
	C358.558258,55.007229 333.299622,55.007229 307.617859,55.092789 
	C307.194733,55.178349 307.277039,55.251106 307.277039,55.251106 
	C307.277039,46.642288 307.277039,38.033470 307.277039,29.213428 
	C367.089600,29.213428 426.809540,29.213428 486.764282,29.213428 
	C486.764282,46.390453 486.764282,63.456902 486.764282,80.921738 
	C478.283600,80.921738 469.873474,80.921738 461.074951,80.921738 
	C461.074951,89.382202 461.074951,97.459290 461.074951,105.762924 
	C452.277039,105.762924 443.874664,105.762924 435.076874,105.762924 
	C435.076874,88.944656 435.076874,72.207390 435.076874,55.236950 
	C426.616028,55.236950 418.546478,55.236950 410.081360,55.236950 
	C410.081360,72.046684 410.081360,88.783989 410.081360,105.913963 
	C401.291718,105.913963 392.881470,105.913963 383.993652,105.913963 
	C383.993652,114.576897 383.993652,122.850998 383.995636,131.562546 
	C383.997620,131.999985 384.069946,131.930054 383.597809,131.962555 
	C366.060455,131.973389 348.995270,131.951721 331.966217,131.965027 
	C332.002380,131.999985 332.075775,132.068771 332.075775,132.068771 
z"/>
<path fill="#000000" opacity="1.000000" stroke="none" 
	d="
M100.251137,312.722961 
	C91.978157,312.722961 83.705177,312.722961 75.039764,312.722961 
	C75.039764,304.242920 75.039764,295.835022 75.039764,287.052521 
	C57.587444,287.052521 40.522964,287.052521 23.231920,287.052521 
	C23.231920,269.607269 23.231920,252.546143 23.231920,235.242554 
	C40.371052,235.242554 57.432274,235.242554 74.888077,235.242554 
	C74.888077,243.683350 74.888077,252.090546 74.888077,260.745422 
	C83.344833,260.745422 91.412437,260.745422 99.875748,260.745422 
	C99.875748,252.331741 99.875748,243.926300 99.875748,235.263763 
	C117.327866,235.263763 134.389359,235.263763 151.725555,235.263763 
	C151.725555,252.306152 151.725555,269.367828 151.725555,286.816345 
	C134.716843,286.816345 117.651863,286.816345 100.007225,286.816345 
	C100.007225,295.445801 100.007225,303.702454 100.092804,312.382172 
	C100.178375,312.805267 100.251137,312.722961 100.251137,312.722961 
z"/>
<path fill="#000000" opacity="1.000000" stroke="none" 
	d="
M409.931244,158.075806 
	C418.074524,158.075806 426.217804,158.075806 434.750977,158.075806 
	C434.750977,149.461319 434.750977,141.055740 434.750977,132.274170 
	C452.193359,132.274170 469.254395,132.274170 486.704712,132.274170 
	C486.704712,123.508858 486.704712,115.103294 486.704712,106.350677 
	C495.481598,106.350677 503.884216,106.350677 512.679565,106.350677 
	C512.679565,114.470078 512.679565,122.874908 512.679565,131.670624 
	C521.120728,131.670624 529.193298,131.670624 537.631714,131.670624 
	C537.631714,140.569595 537.631714,149.085892 537.631714,157.976868 
	C512.214355,157.976868 486.828308,157.976868 460.993652,157.976868 
	C460.993652,175.270020 460.993652,192.197571 460.995636,209.562546 
	C460.997620,209.999985 461.069946,209.930054 460.597870,209.962555 
	C451.727539,210.022003 443.329285,210.048950 434.963074,209.603271 
	C434.995117,200.768112 434.995117,192.405609 434.995117,184.069046 
	C426.154999,184.069046 418.039581,184.069046 409.959412,183.597229 
	C410.019775,174.726944 410.044861,166.328506 410.035004,157.966217 
	C410.000061,158.002396 409.931244,158.075806 409.931244,158.075806 
z"/>
<path fill="#000000" opacity="1.000000" stroke="none" 
	d="
M692.965576,466.960938 
	C692.931152,475.390015 692.931152,483.855743 692.931152,492.994110 
	C667.549194,492.994110 642.209412,492.994110 616.397034,492.962646 
	C615.924377,492.931213 615.997742,493.000031 616.001343,492.562866 
	C616.004944,483.764374 616.004944,475.403046 616.004944,466.930054 
	C606.822510,466.930054 598.376282,466.930054 589.966187,466.965027 
	C590.002258,466.999969 590.075623,467.068787 590.075623,467.068787 
	C590.075623,458.611969 590.075623,450.155182 590.075623,441.160339 
	C598.580566,441.160339 607.090454,441.160339 616.006348,441.160339 
	C616.006348,432.711243 616.006348,424.793030 616.004272,416.437408 
	C616.002258,415.999969 615.930054,416.069946 616.402100,416.037415 
	C633.458679,416.004913 650.043091,416.004913 666.803955,416.004913 
	C666.803955,424.478516 666.803955,432.538727 666.803955,441.158875 
	C658.431030,441.158875 650.237854,441.158875 642.345825,441.158875 
	C642.345825,450.118896 642.345825,458.516815 642.345825,467.069946 
	C659.484253,467.069946 676.277100,467.069946 693.069946,467.069946 
	C693.069946,467.069946 692.999939,466.997650 692.965576,466.960938 
z"/>
<path fill="#000000" opacity="1.000000" stroke="none" 
	d="
M100.075829,338.068787 
	C100.057144,329.951019 100.038460,321.833221 100.135460,313.219208 
	C100.251137,312.722961 100.178375,312.805267 100.147614,312.840057 
	C125.786263,312.918701 151.455688,312.962524 177.562546,313.004364 
	C177.999985,313.002380 177.930054,312.930054 177.962555,313.402161 
	C177.995056,321.902863 177.995056,329.931458 177.995056,338.069946 
	C187.179428,338.069946 195.624680,338.069946 204.034973,338.034973 
	C204.000000,338.000000 203.930054,337.930054 203.962555,338.402161 
	C203.995056,347.132507 203.995056,355.390778 203.995056,363.930054 
	C177.687592,363.930054 151.808823,363.930054 125.965027,363.965027 
	C126.000000,364.000000 126.069939,364.069946 126.037445,363.597839 
	C126.004951,354.764435 126.004951,346.403107 126.004951,337.930054 
	C116.822533,337.930054 108.376297,337.930054 99.966248,337.965027 
	C100.002426,337.999969 100.075829,338.068787 100.075829,338.068787 
z"/>
<path fill="#000000" opacity="1.000000" stroke="none" 
	d="
M460.960907,210.034393 
	C469.392609,210.068802 477.861023,210.068802 486.706726,210.068802 
	C486.706726,201.500259 486.706726,193.105652 486.706726,184.356110 
	C495.584045,184.356110 504.092285,184.356110 512.994141,184.356110 
	C512.994141,200.975327 512.994141,217.552887 512.962708,234.603149 
	C512.931274,235.075821 513.000061,235.002426 512.562866,234.998734 
	C503.865204,234.995041 495.604675,234.995041 486.974670,234.995041 
	C486.974670,243.827805 486.974670,252.223465 486.974670,260.642181 
	C478.085144,260.642181 469.576965,260.642181 461.069946,260.642181 
	C461.069946,243.499603 461.069946,226.714828 461.069946,209.930054 
	C461.069946,209.930054 460.997620,209.999985 460.960907,210.034393 
z"/>
<path fill="#000000" opacity="1.000000" stroke="none" 
	d="
M254.937744,55.073223 
	C272.053345,55.055408 289.168915,55.037594 306.780762,55.135445 
	C307.277039,55.251106 307.194733,55.178349 307.159943,55.147583 
	C307.125153,71.911278 307.125153,88.705742 307.125153,105.748650 
	C298.305206,105.748650 289.901794,105.748650 281.096680,105.748650 
	C281.096680,97.636200 281.096680,89.558632 281.096680,81.090179 
	C272.300232,81.090179 263.889465,81.090179 255.006638,81.090179 
	C255.006638,72.424240 255.006638,64.149567 255.006546,55.437469 
	C255.006454,55.000050 254.937744,55.073223 254.937744,55.073223 
z"/>
<path fill="#000000" opacity="1.000000" stroke="none" 
	d="
M229.039093,543.965698 
	C221.007034,543.952209 212.938278,543.973206 204.396851,543.962708 
	C203.924179,543.931274 203.997574,544.000061 204.001251,543.562866 
	C204.004944,535.207397 204.004944,527.289124 204.004944,518.839844 
	C195.088699,518.839844 186.578659,518.839844 178.069946,518.839844 
	C178.069946,509.844574 178.069946,501.387299 178.069946,492.930054 
	C178.069946,492.930054 178.000000,493.000000 178.437149,493.002502 
	C195.606186,493.026642 212.338058,493.048309 229.069946,493.069946 
	C229.069946,493.069946 229.000000,493.000000 228.997528,493.437164 
	C228.973373,510.606201 228.951706,527.338074 228.930054,544.069946 
	C228.930054,544.069946 229.002396,544.000061 229.039093,543.965698 
z"/>
<path fill="#000000" opacity="1.000000" stroke="none" 
	d="
M254.965881,724.956726 
	C254.931610,741.711426 254.931610,758.502808 254.931610,775.646606 
	C246.530869,775.646606 238.134201,775.646606 229.368439,775.646606 
	C229.368439,759.113037 229.368439,742.282837 229.368439,725.005432 
	C237.601273,725.005432 245.864853,725.005432 254.600891,725.033813 
	C255.073349,725.062134 255.000153,724.993408 254.965881,724.956726 
z"/>
<path fill="#000000" opacity="1.000000" stroke="none" 
	d="
M255.043045,234.965851 
	C246.608704,234.931564 238.137680,234.931564 229.333969,234.931564 
	C229.333969,218.164932 229.333969,201.450729 229.333969,184.368408 
	C237.563049,184.368408 246.073608,184.368408 254.994522,184.368408 
	C254.994522,200.963608 254.994522,217.545990 254.966095,234.600830 
	C254.937668,235.073303 255.006378,235.000122 255.043045,234.965851 
z"/>
<path fill="#000000" opacity="1.000000" stroke="none" 
	d="
M49.073353,364.062347 
	C49.051121,355.666504 49.028885,347.270660 49.006580,338.437378 
	C49.006512,337.999939 48.937805,338.073120 48.937805,338.073120 
	C65.668686,338.050690 82.399574,338.028290 99.603142,338.037323 
	C100.075829,338.068787 100.002426,337.999969 99.998734,338.437134 
	C99.973381,347.272858 99.951721,355.671387 99.965012,364.033752 
	C99.999977,363.997589 100.068779,363.924194 100.068779,363.924194 
	C83.337524,363.947266 66.606262,363.970306 49.437584,363.993530 
	C49.000164,363.993652 49.073353,364.062347 49.073353,364.062347 
z"/>
<path fill="#000000" opacity="1.000000" stroke="none" 
	d="
M745.003174,237.197906 
	C746.102661,236.143402 747.190125,235.101791 748.299683,235.077789 
	C755.292297,234.926498 762.289734,235.001160 769.642212,235.001160 
	C769.642212,252.144516 769.642212,269.216705 769.642212,286.644440 
	C761.855957,286.644440 753.780334,286.644440 745.001282,286.644440 
	C745.001282,270.504852 745.001282,254.093079 745.003174,237.197906 
z"/>
<path fill="#000000" opacity="1.000000" stroke="none" 
	d="
M198.888458,235.001038 
	C200.819061,235.001053 202.261200,235.001053 203.847443,235.001053 
	C203.847443,243.775620 203.847443,252.060532 203.847443,260.672668 
	C195.464569,260.672668 187.058456,260.672668 178.325317,260.672668 
	C178.325317,252.460297 178.325317,244.054413 178.325317,235.001038 
	C184.886841,235.001038 191.643417,235.001038 198.888458,235.001038 
z"/>
<path fill="#000000" opacity="1.000000" stroke="none" 
	d="
M255.043121,54.965767 
	C246.615265,54.931484 238.150726,54.931484 229.343719,54.931484 
	C229.343719,46.517017 229.343719,38.127224 229.343719,29.368458 
	C237.556061,29.368458 246.060211,29.368458 254.994522,29.368458 
	C254.994522,37.614182 254.994522,45.871250 254.966125,54.600769 
	C254.937744,55.073223 255.006454,55.000050 255.043121,54.965767 
z"/>
<path fill="#000000" opacity="1.000000" stroke="none" 
	d="
M692.960938,622.034302 
	C701.371948,622.068726 709.819580,622.068726 718.994141,622.068726 
	C718.994141,630.404663 718.994141,638.767517 718.962708,647.603027 
	C718.931274,648.075684 719.000061,648.002380 718.562866,647.998779 
	C709.727173,647.973450 701.328613,647.951782 692.930054,647.930054 
	C692.930054,647.930054 693.000000,648.000000 693.002441,647.562866 
	C693.026611,638.727173 693.048279,630.328613 693.069946,621.930054 
	C693.069946,621.930054 692.997620,621.999939 692.960938,622.034302 
z"/>
<path fill="#000000" opacity="1.000000" stroke="none" 
	d="
M281.043030,157.965973 
	C272.615173,157.931686 264.150635,157.931686 255.343658,157.931686 
	C255.343658,149.516907 255.343658,141.127090 255.343658,132.368378 
	C263.555969,132.368378 272.059784,132.368378 280.994537,132.368378 
	C280.994537,140.614319 280.994537,148.871399 280.966064,157.600952 
	C280.937622,158.073441 281.006348,158.000244 281.043030,157.965973 
z"/>
<path fill="#000000" opacity="1.000000" stroke="none" 
	d="
M307.039062,647.965576 
	C298.628143,647.931152 290.180511,647.931152 281.005890,647.931152 
	C281.005890,639.595337 281.005890,631.232483 281.037354,622.397034 
	C281.068787,621.924377 280.999969,621.997742 281.437134,622.001343 
	C290.274811,621.980225 298.675323,621.955505 307.040588,622.402710 
	C306.980225,631.273010 306.955139,639.671509 306.930054,648.069946 
	C306.930054,648.069946 307.002350,647.999939 307.039062,647.965576 
z"/>
<path fill="#000000" opacity="1.000000" stroke="none" 
	d="
M178.034393,313.039093 
	C178.068802,304.617676 178.068802,296.159546 178.068802,287.351257 
	C186.583603,287.351257 195.081787,287.351257 203.993652,287.351257 
	C203.993652,295.623657 203.993652,303.874390 203.995636,312.562561 
	C203.997604,313.000000 204.069946,312.930054 203.597870,312.962585 
	C194.727219,312.973419 186.328629,312.951721 177.930054,312.930054 
	C177.930054,312.930054 177.999985,313.002380 178.034393,313.039093 
z"/>
<path fill="#000000" opacity="1.000000" stroke="none" 
	d="
M563.999023,194.025909 
	C563.999023,199.494202 563.999023,204.468552 563.999023,209.719330 
	C555.367920,209.719330 546.964478,209.719330 538.279602,209.719330 
	C538.279602,201.366043 538.279602,192.962616 538.279602,184.278610 
	C546.636353,184.278610 555.039795,184.278610 563.999023,184.278610 
	C563.999023,187.319443 563.999023,190.425720 563.999023,194.025909 
z"/>
<path fill="#000000" opacity="1.000000" stroke="none" 
	d="
M616.042725,260.966187 
	C607.614929,260.931915 599.150452,260.931915 590.343506,260.931915 
	C590.343506,252.516678 590.343506,244.126846 590.343506,235.368240 
	C598.556152,235.368240 607.060425,235.368240 615.994568,235.368240 
	C615.994568,243.614426 615.994568,251.871521 615.965942,260.601135 
	C615.937317,261.073669 616.006042,261.000488 616.042725,260.966187 
z"/>
<path fill="#000000" opacity="1.000000" stroke="none" 
	d="
M383.960907,132.034393 
	C392.371857,132.068802 400.819489,132.068802 409.994110,132.068802 
	C409.994110,140.404755 409.994110,148.767593 409.962677,157.603119 
	C409.931244,158.075806 410.000061,158.002396 409.562866,157.998718 
	C400.725189,158.019730 392.324677,158.044388 383.959412,157.597229 
	C384.019775,148.726944 384.044861,140.328506 384.069946,131.930054 
	C384.069946,131.930054 383.997620,131.999985 383.960907,132.034393 
z"/>
<path fill="#000000" opacity="1.000000" stroke="none" 
	d="
M616.042725,363.966187 
	C607.614929,363.931915 599.150452,363.931915 590.343506,363.931915 
	C590.343506,355.516693 590.343506,347.126892 590.343506,338.368286 
	C598.556152,338.368286 607.060425,338.368286 615.994568,338.368286 
	C615.994568,346.614441 615.994568,354.871521 615.965942,363.601135 
	C615.937317,364.073669 616.006042,364.000488 616.042725,363.966187 
z"/>
<path fill="#000000" opacity="1.000000" stroke="none" 
	d="
M48.965885,363.956970 
	C48.931606,372.384857 48.931606,380.849365 48.931606,389.656342 
	C40.516911,389.656342 32.127102,389.656342 23.368393,389.656342 
	C23.368393,381.443878 23.368393,372.939697 23.368393,364.005463 
	C31.614283,364.005463 39.871353,364.005463 48.600887,364.033905 
	C49.073353,364.062347 49.000164,363.993652 48.965885,363.956970 
z"/>
<path fill="#000000" opacity="1.000000" stroke="none" 
	d="
M100.034409,390.039062 
	C100.047836,381.673676 100.026863,373.271637 100.037331,364.396881 
	C100.068779,363.924194 99.999977,363.997589 100.437134,364.001282 
	C109.272835,364.026611 117.671387,364.048279 126.069939,364.069946 
	C126.069939,364.069946 126.000000,364.000000 125.997528,364.437134 
	C125.973389,373.272858 125.951721,381.671387 125.930061,390.069946 
	C125.930061,390.069946 126.000000,390.000000 125.562859,389.997528 
	C116.727165,389.973389 108.328613,389.951721 99.930061,389.930054 
	C99.930061,389.930054 100.000008,390.002350 100.034409,390.039062 
z"/>
<path fill="#000000" opacity="1.000000" stroke="none" 
	d="
M616.038940,415.965546 
	C607.617126,415.931122 599.158569,415.931122 590.350586,415.931122 
	C590.350586,407.414612 590.350586,398.916046 590.350586,390.005890 
	C598.627136,390.005890 606.878723,390.005890 615.602966,390.037354 
	C616.075623,390.068787 616.002258,389.999969 615.998657,390.437134 
	C615.973389,399.272858 615.951721,407.671387 615.930054,416.069946 
	C615.930054,416.069946 616.002258,415.999969 616.038940,415.965546 
z"/>
<path fill="#000000" opacity="1.000000" stroke="none" 
	d="
M538.277954,55.251945 
	C538.277954,46.658630 538.277954,38.065319 538.277954,29.236794 
	C546.707397,29.236794 555.095154,29.236794 563.742004,29.236794 
	C563.742004,37.664379 563.742004,46.052029 563.742004,55.007298 
	C555.529358,55.007298 547.285522,55.007298 538.618652,55.093239 
	C538.195618,55.179184 538.277954,55.251945 538.277954,55.251945 
z"/>
<path fill="#000000" opacity="1.000000" stroke="none" 
	d="
M537.961060,441.034454 
	C546.371155,441.068878 554.817871,441.068878 563.993652,441.068878 
	C563.993652,449.402740 563.993652,457.763947 563.995728,466.562592 
	C563.997742,467.000031 564.069946,466.930054 563.597900,466.962585 
	C554.725281,467.019775 546.324829,467.044434 537.959473,466.597290 
	C538.019714,457.726990 538.044861,449.328522 538.069946,440.930054 
	C538.069946,440.930054 537.997742,441.000031 537.961060,441.034454 
z"/>
<path fill="#000000" opacity="1.000000" stroke="none" 
	d="
M563.961060,467.034454 
	C572.326355,467.047882 580.728333,467.026886 589.602966,467.037354 
	C590.075623,467.068787 590.002258,466.999969 589.998657,467.437134 
	C589.973450,476.272858 589.951782,484.671387 589.930054,493.069946 
	C589.930054,493.069946 590.000000,493.000000 589.562866,492.997559 
	C580.727478,493.022003 572.329224,493.048920 563.963013,492.603210 
	C564.020020,483.730408 564.044983,475.330231 564.069946,466.930054 
	C564.069946,466.930054 563.997742,467.000031 563.961060,467.034454 
z"/>
<path fill="#000000" opacity="1.000000" stroke="none" 
	d="
M537.937683,81.073479 
	C546.398804,81.073479 554.859863,81.073479 563.659912,81.073479 
	C563.659912,89.156021 563.659912,97.212120 563.659912,105.634399 
	C555.441833,105.634399 546.938782,105.634399 538.006653,105.634399 
	C538.006653,97.720558 538.006653,89.797836 538.006470,81.437714 
	C538.006348,81.000313 537.937683,81.073479 537.937683,81.073479 
z"/>
<path fill="#000000" opacity="1.000000" stroke="none" 
	d="
M49.043175,337.965668 
	C40.615715,337.931396 32.151592,337.931396 23.344334,337.931396 
	C23.344334,329.851898 23.344334,321.794769 23.344334,313.368469 
	C31.555494,313.368469 40.058857,313.368469 48.994534,313.368469 
	C48.994534,321.279755 48.994534,329.203979 48.966171,337.600677 
	C48.937805,338.073120 49.006512,337.999939 49.043175,337.965668 
z"/>
<path fill="#000000" opacity="1.000000" stroke="none" 
	d="
M563.965698,750.960938 
	C563.931274,759.049866 563.931274,767.175415 563.931274,775.649963 
	C555.414246,775.649963 546.916748,775.649963 538.005859,775.649963 
	C538.005859,767.707153 538.005859,759.788452 538.037292,751.396973 
	C538.068726,750.924316 537.999939,750.997620 538.437134,751.001282 
	C547.272827,751.026611 555.671387,751.048279 564.069946,751.069946 
	C564.069946,751.069946 564.000061,750.997620 563.965698,750.960938 
z"/>
<path fill="#000000" opacity="1.000000" stroke="none" 
	d="
M745.062683,337.926331 
	C736.613281,337.944275 728.163879,337.962189 719.218140,337.864014 
	C718.721741,337.747894 718.804138,337.820679 718.838928,337.851379 
	C718.873718,329.752045 718.873718,321.621979 718.873718,313.248169 
	C727.701538,313.248169 736.105408,313.248169 744.993347,313.248169 
	C744.993347,321.240631 744.993347,329.182678 744.993652,337.562134 
	C744.993958,337.999512 745.062683,337.926331 745.062683,337.926331 
z"/>
<path fill="#000000" opacity="1.000000" stroke="none" 
	d="
M744.957275,338.033813 
	C753.052124,338.068085 761.183655,338.068085 769.657043,338.068085 
	C769.657043,346.484100 769.657043,354.873505 769.657043,363.631714 
	C761.777039,363.631714 753.606201,363.631714 745.005432,363.631714 
	C745.005432,355.384766 745.005432,347.128082 745.034058,338.398865 
	C745.062683,337.926331 744.993958,337.999512 744.957275,338.033813 
z"/>
<path fill="#000000" opacity="1.000000" stroke="none" 
	d="
M538.043030,80.966019 
	C529.941406,80.931732 521.803040,80.931732 513.333008,80.931732 
	C513.333008,72.487625 513.333008,64.091805 513.333008,55.019848 
	C521.150391,55.019848 529.217834,55.019848 537.781616,55.135895 
	C538.277954,55.251945 538.195618,55.179184 538.160828,55.148449 
	C538.082214,63.454647 538.038391,71.791580 537.966125,80.600998 
	C537.937683,81.073479 538.006348,81.000313 538.043030,80.966019 
z"/>
<path fill="#000000" opacity="1.000000" stroke="none" 
	d="
M307.034424,158.039093 
	C307.068817,149.629135 307.068817,141.182510 307.068817,132.005890 
	C315.070770,132.005890 323.100586,132.005890 331.603088,132.037323 
	C332.075775,132.068771 332.002380,131.999985 331.998718,132.437134 
	C332.019714,141.274811 332.044373,149.675339 331.597229,158.040619 
	C323.060272,157.980255 314.995178,157.955154 306.930054,157.930054 
	C306.930054,157.930054 307.000000,158.002396 307.034424,158.039093 
z"/>
<path fill="#000000" opacity="1.000000" stroke="none" 
	d="
M203.960907,313.034424 
	C212.038528,313.068817 220.152832,313.068817 228.994110,313.068817 
	C228.994110,321.071136 228.994110,329.100769 228.962677,337.603088 
	C228.931229,338.075775 229.000015,338.002380 228.562866,337.998718 
	C220.060501,337.973419 211.995270,337.951752 203.930054,337.930054 
	C203.930054,337.930054 204.000000,338.000000 204.002472,337.562866 
	C204.026611,329.060486 204.048279,320.995270 204.069946,312.930054 
	C204.069946,312.930054 203.997604,313.000000 203.960907,313.034424 
z"/>
<path fill="#FFFFFF" opacity="1.000000" stroke="none" 
	d="
M307.402161,648.037476 
	C306.955139,639.671509 306.980225,631.273010 307.003845,622.437195 
	C307.002380,621.999817 306.930054,622.069946 307.402130,622.037476 
	C315.792206,622.004944 323.710175,622.004944 331.651917,622.004944 
	C331.651917,613.083496 331.651917,604.586243 331.651917,595.930054 
	C323.179474,595.930054 315.054749,595.930054 306.966217,595.965088 
	C307.002380,596.000061 307.075836,596.069031 307.075836,596.069031 
	C307.075836,578.851562 307.075836,561.634033 307.075836,544.005371 
	C315.286743,544.005371 323.206085,544.005371 331.562805,544.003784 
	C332.000183,544.002258 331.930054,543.930054 331.962585,544.402100 
	C331.995087,553.125061 331.995087,561.375916 331.995087,569.651367 
	C340.915802,569.651367 349.414124,569.651367 358.069946,569.651367 
	C358.069946,560.845520 358.069946,552.387756 358.034973,543.965027 
	C358.000000,544.000000 357.930054,544.069946 358.402130,544.037476 
	C367.272797,544.026611 375.671356,544.048279 384.033783,544.034912 
	C383.997620,543.999939 383.924164,543.930969 383.924164,543.930969 
	C383.924164,552.407166 383.924164,560.883301 383.924164,569.749023 
	C392.538788,569.749023 400.944275,569.749023 409.869385,569.749023 
	C409.869385,612.956909 409.869385,655.779724 409.869385,698.990112 
	C418.454010,698.990112 426.526337,698.990112 434.793732,698.990112 
	C434.793732,707.778137 434.793732,716.176147 434.793732,724.994385 
	C409.381012,724.994385 384.127930,724.994385 358.437439,724.994141 
	C358.000092,724.993835 358.073334,725.062683 358.073334,725.062683 
	C358.073334,716.591797 358.073334,708.120850 358.073334,699.266663 
	C366.525330,699.266663 374.925812,699.266663 383.661713,699.266663 
	C383.661713,682.053284 383.661713,665.219910 383.661713,648.004944 
	C358.353271,648.004944 333.113770,648.004944 307.402161,648.037476 
M358.000000,608.503052 
	C358.000000,612.936279 358.000000,617.369568 358.000000,621.711060 
	C366.983490,621.711060 375.387665,621.711060 383.710297,621.711060 
	C383.710297,613.014893 383.710297,604.610718 383.710297,596.290527 
	C375.013062,596.290527 366.608673,596.290527 358.000000,596.290527 
	C358.000000,600.223633 358.000000,603.867981 358.000000,608.503052 
z"/>
<path fill="#FFFFFF" opacity="1.000000" stroke="none" 
	d="
M538.254150,672.719910 
	C529.978394,672.719910 521.702698,672.719910 513.046631,672.719910 
	C513.046631,690.419739 513.046631,707.485779 513.046631,724.773560 
	C504.260742,724.773560 495.860016,724.773560 487.063599,724.773560 
	C487.063599,716.269653 487.063599,707.861389 487.063599,699.068604 
	C478.273407,699.068604 469.866394,699.068604 461.073517,699.068604 
	C461.073517,690.279541 461.073517,681.871643 461.073517,673.078491 
	C452.283569,673.078491 443.876648,673.078491 435.238831,673.078491 
	C435.238831,664.619141 435.238831,656.551636 435.238831,648.087891 
	C443.706696,648.087891 452.113708,648.087891 460.893188,648.087891 
	C460.893188,621.971375 460.893188,596.244507 460.893188,570.260071 
	C486.663177,570.260071 512.054810,570.260071 537.723694,570.260071 
	C537.723694,578.635864 537.723694,587.037659 537.723694,595.836914 
	C529.704956,595.836914 521.630371,595.836914 513.167725,595.836914 
	C513.167725,604.623413 513.167725,613.031372 513.167725,621.827271 
	C504.381683,621.827271 495.973755,621.827271 487.285950,621.827271 
	C487.285950,630.615784 487.285950,639.017883 487.285950,647.810669 
	C503.941162,647.810669 520.674377,647.810669 538.008362,647.810669 
	C538.008362,656.108398 538.008362,664.032715 538.094727,672.379761 
	C538.181091,672.802490 538.254150,672.719910 538.254150,672.719910 
z"/>
<path fill="#FFFFFF" opacity="1.000000" stroke="none" 
	d="
M596.000000,648.000000 
	C585.190430,648.000000 574.880859,648.000000 564.286377,648.000000 
	C564.286377,622.045776 564.286377,596.309753 564.286377,570.286377 
	C589.954224,570.286377 615.690247,570.286377 641.713623,570.286377 
	C641.713623,595.954163 641.713623,621.690186 641.713623,648.000000 
	C626.690979,648.000000 611.595520,648.000000 596.000000,648.000000 
M596.573242,596.000000 
	C594.468506,596.000000 592.363708,596.000000 590.263428,596.000000 
	C590.263428,604.930786 590.263428,613.334717 590.263428,621.735474 
	C598.933044,621.735474 607.337097,621.735474 615.734253,621.735474 
	C615.734253,613.064575 615.734253,604.660461 615.734253,596.000000 
	C609.501404,596.000000 603.530579,596.000000 596.573242,596.000000 
z"/>
<path fill="#FFFFFF" opacity="1.000000" stroke="none" 
	d="
M564.037476,750.597900 
	C555.671387,751.048279 547.272827,751.026611 538.402161,751.037476 
	C537.959717,725.284302 537.989380,699.498596 538.136597,673.216431 
	C538.254150,672.719910 538.181091,672.802490 538.150391,672.837402 
	C563.845764,672.872314 589.571838,672.872314 615.994385,672.872314 
	C615.994385,690.096191 615.994385,707.110657 615.994019,724.562500 
	C615.993713,724.999817 616.062561,724.926636 616.062561,724.926636 
	C598.845825,724.926636 581.629089,724.926636 564.004944,724.926636 
	C564.004944,733.622925 564.004944,741.874329 564.037476,750.597900 
z"/>
<path fill="#FFFFFF" opacity="1.000000" stroke="none" 
	d="
M332.075867,493.069031 
	C332.075867,467.523712 332.075867,441.978424 332.075867,415.995056 
	C340.609650,415.995056 348.867676,415.995056 357.597839,415.962555 
	C358.069946,432.815491 358.069946,449.700897 358.069946,467.005341 
	C366.622192,467.005341 374.873779,467.005341 383.562744,467.003876 
	C384.000122,467.002411 383.930054,466.930054 383.962585,467.402130 
	C383.995087,476.235565 383.995087,484.596893 383.995087,493.069946 
	C393.177460,493.069946 401.623718,493.069946 410.033752,493.034912 
	C409.997559,492.999908 409.924133,492.930969 409.924133,492.930969 
	C409.924133,509.816956 409.924133,526.702942 409.924133,543.995117 
	C401.374329,543.995117 393.121857,543.995117 384.396790,543.963013 
	C383.924164,543.930969 383.997620,543.999939 384.001282,543.562866 
	C384.004913,535.097168 384.004913,527.068604 384.004913,518.930054 
	C374.820557,518.930054 366.375305,518.930054 357.965027,518.965027 
	C358.000000,519.000000 358.069946,519.069946 358.037415,518.597900 
	C358.004913,509.764435 358.004913,501.403107 358.004913,492.930054 
	C348.822540,492.930054 340.376282,492.930054 331.966248,492.965088 
	C332.002441,493.000092 332.075867,493.069031 332.075867,493.069031 
z"/>
<path fill="#FFFFFF" opacity="1.000000" stroke="none" 
	d="
M513.068970,518.924133 
	C504.599152,518.924133 496.129333,518.924133 487.278381,518.924133 
	C487.278381,527.180054 487.278381,535.246277 487.278381,543.654907 
	C469.737946,543.654907 452.575104,543.654907 435.005341,543.654907 
	C435.005341,527.037964 435.005341,510.456299 435.003845,493.437225 
	C435.002380,492.999847 434.930054,493.069946 435.402191,493.037445 
	C461.545410,493.004944 487.216522,493.004944 512.930054,493.004944 
	C512.930054,502.140015 512.930054,510.604980 512.965027,519.033752 
	C513.000000,518.997559 513.068970,518.924133 513.068970,518.924133 
z"/>
<path fill="#FFFFFF" opacity="1.000000" stroke="none" 
	d="
M615.957031,725.034180 
	C624.396545,725.068481 632.872742,725.068481 641.724243,725.068481 
	C641.724243,707.809082 641.724243,690.750488 641.724243,673.346680 
	C650.152100,673.346680 658.220825,673.346680 666.645752,673.346680 
	C666.645752,698.913391 666.645752,724.744751 666.645752,750.788879 
	C649.907410,750.788879 633.185364,750.788879 616.004456,750.788879 
	C616.004456,742.408875 616.004456,734.140198 616.033508,725.399109 
	C616.062561,724.926636 615.993713,724.999817 615.957031,725.034180 
z"/>
<path fill="#FFFFFF" opacity="1.000000" stroke="none" 
	d="
M563.930969,493.075836 
	C572.329224,493.048920 580.727478,493.022003 589.597839,492.962585 
	C590.069946,509.721405 590.069946,526.512756 590.069946,543.651978 
	C564.420898,543.651978 538.935974,543.651978 513.004883,543.651978 
	C513.004883,535.732605 513.004883,527.801025 513.036926,519.396790 
	C513.068970,518.924133 513.000000,518.997559 513.437134,519.001282 
	C530.553101,519.005005 547.231995,519.005005 564.069946,519.005005 
	C564.069946,509.847076 564.069946,501.388550 564.034912,492.966217 
	C563.999939,493.002380 563.930969,493.075836 563.930969,493.075836 
z"/>
<path fill="#FFFFFF" opacity="1.000000" stroke="none" 
	d="
M693.050903,595.972351 
	C684.614624,595.938171 676.141724,595.938171 667.334595,595.938171 
	C667.334595,578.834717 667.334595,561.785767 667.334595,544.368042 
	C675.562561,544.368042 684.073975,544.368042 692.996033,544.368042 
	C692.996033,561.297913 692.996033,578.215393 692.970886,595.606201 
	C692.945740,596.079590 693.014221,596.006531 693.050903,595.972351 
z"/>
<path fill="#FFFFFF" opacity="1.000000" stroke="none" 
	d="
M357.965759,724.957153 
	C357.931458,733.385498 357.931458,741.850464 357.931458,750.657654 
	C349.516937,750.657654 341.126495,750.657654 332.367249,750.657654 
	C332.367249,742.444458 332.367249,733.939575 332.367249,725.004456 
	C340.613281,725.004456 348.870850,725.004456 357.600891,725.033569 
	C358.073334,725.062683 358.000092,724.993835 357.965759,724.957153 
z"/>
<path fill="#FFFFFF" opacity="1.000000" stroke="none" 
	d="
M692.597900,621.962524 
	C693.048279,630.328613 693.026611,638.727173 693.037476,647.597839 
	C684.612244,648.069946 676.154480,648.069946 667.348633,648.069946 
	C667.348633,639.414124 667.348633,630.915833 667.348633,621.995056 
	C675.624084,621.995056 683.874939,621.995056 692.597900,621.962524 
z"/>
<path fill="#FFFFFF" opacity="1.000000" stroke="none" 
	d="
M590.402161,493.037415 
	C589.951782,484.671387 589.973450,476.272858 589.962585,467.402161 
	C598.376282,466.930054 606.822510,466.930054 616.004944,466.930054 
	C616.004944,475.403046 616.004944,483.764374 616.037476,492.597839 
	C607.671387,493.048248 599.272766,493.026581 590.402161,493.037415 
z"/>
<path fill="#FFFFFF" opacity="1.000000" stroke="none" 
	d="
M692.962524,648.402161 
	C701.328613,647.951782 709.727173,647.973450 718.597839,647.962585 
	C719.069946,656.054749 719.069946,664.179443 719.069946,672.651917 
	C710.413757,672.651917 701.916504,672.651917 692.995056,672.651917 
	C692.995056,664.710205 692.995056,656.792175 692.962524,648.402161 
z"/>
<path fill="#FFFFFF" opacity="1.000000" stroke="none" 
	d="
M409.930969,467.075867 
	C417.995789,467.052368 426.060577,467.028870 434.562775,467.003845 
	C435.000153,467.002380 434.930054,466.930054 434.962524,467.402161 
	C434.973358,476.272858 434.951691,484.671387 434.930054,493.069946 
	C434.930054,493.069946 435.002380,492.999847 435.039124,492.965393 
	C427.007019,492.952332 418.938232,492.973724 410.396790,492.963043 
	C409.924133,492.930969 409.997559,492.999908 410.001221,492.562805 
	C410.026581,483.727142 410.048248,475.328613 410.034912,466.966248 
	C409.999908,467.002441 409.930969,467.075867 409.930969,467.075867 
z"/>
<path fill="#FFFFFF" opacity="1.000000" stroke="none" 
	d="
M460.597870,209.962555 
	C461.069946,226.714828 461.069946,243.499603 461.069946,260.642181 
	C469.576965,260.642181 478.085144,260.642181 486.974670,260.642181 
	C486.974670,252.223465 486.974670,243.827805 486.974670,234.995041 
	C495.604675,234.995041 503.865204,234.995041 512.597839,234.962555 
	C513.069946,277.802612 513.069946,320.675171 513.069946,363.994385 
	C504.403107,363.994385 496.138977,363.994385 487.437469,363.994019 
	C487.000122,363.993683 487.073334,364.062500 487.073334,364.062500 
	C487.073334,347.259277 487.073334,330.456055 487.073334,313.261780 
	C478.472412,313.261780 470.066345,313.261780 461.272278,313.261780 
	C461.272278,304.483032 461.272278,296.077087 461.272278,287.337128 
	C444.160675,287.337128 427.432709,287.337128 410.321075,287.337128 
	C410.321075,303.808594 410.321075,320.537903 410.321075,337.633179 
	C401.430298,337.633179 392.912628,337.633179 384.008423,337.633179 
	C384.008423,320.873291 384.008423,304.143768 384.008423,287.028381 
	C375.231537,287.028381 366.825867,287.028381 358.048706,287.028381 
	C358.048706,269.580597 358.048706,252.518250 358.048706,235.069061 
	C349.274200,235.069061 340.868011,235.069061 332.005341,235.069061 
	C332.005341,226.749237 332.005341,218.811935 332.003845,210.437256 
	C332.002380,209.999893 331.930054,210.069946 332.402161,210.037445 
	C341.125122,210.004944 349.375946,210.004944 358.158630,210.004944 
	C358.158630,201.090454 358.158630,192.580048 358.158630,184.069946 
	C367.154755,184.069946 375.612335,184.069946 384.034973,184.034973 
	C384.000000,184.000000 383.930054,183.930054 383.962555,184.402176 
	C383.995056,210.115707 383.995056,235.357117 383.995056,260.657043 
	C401.226898,260.657043 418.061615,260.657043 435.069946,260.657043 
	C435.069946,243.519562 435.069946,226.724808 435.034973,209.966278 
	C434.999969,210.002487 434.931030,210.075912 434.931030,210.075912 
	C443.329285,210.048950 451.727539,210.022003 460.597870,209.962555 
z"/>
<path fill="#FFFFFF" opacity="1.000000" stroke="none" 
	d="
M203.962555,338.402161 
	C211.995270,337.951752 220.060501,337.973419 228.597839,337.962585 
	C229.069946,346.403595 229.069946,354.877106 229.069946,363.675110 
	C246.190491,363.675110 263.244324,363.675110 280.685547,363.675110 
	C280.685547,355.524506 280.685547,347.122345 280.685547,338.360779 
	C289.577362,338.360779 298.091797,338.360779 306.996948,338.360779 
	C306.996948,346.795349 306.996948,355.198395 306.996948,363.961639 
	C324.099823,363.961639 340.822327,363.961639 358.004944,363.961639 
	C358.004944,372.592163 358.004944,380.858948 358.037445,389.597839 
	C332.615387,390.069946 307.160828,390.069946 281.157043,390.069946 
	C281.157043,406.917023 281.157043,423.762115 281.157043,440.985535 
	C272.215729,440.985535 263.813171,440.985535 255.034363,440.985535 
	C255.034363,449.762909 255.034363,458.166260 255.034363,466.945740 
	C246.257523,466.945740 237.854263,466.945740 229.004944,466.945740 
	C229.004944,475.591553 229.004944,483.858612 229.037445,492.597839 
	C212.338058,493.048309 195.606186,493.026642 178.402176,493.037476 
	C177.930054,484.612274 177.930054,476.154572 177.930054,467.158722 
	C186.579956,467.158722 195.090317,467.158722 204.005356,467.158722 
	C204.005356,458.376160 204.005356,450.125397 204.003891,441.437256 
	C204.002426,440.999908 203.930054,441.069946 204.402130,441.037415 
	C212.807144,441.004913 220.740097,441.004913 229.050446,441.004913 
	C229.050446,432.482666 229.050446,424.413269 229.050446,415.972656 
	C237.827194,415.972656 246.229202,415.972656 254.805725,415.972656 
	C254.805725,407.193359 254.805725,398.799103 254.805725,390.326355 
	C229.119644,390.326355 203.629166,390.326355 177.930054,390.326355 
	C177.930054,399.124664 177.930054,407.597290 177.965057,416.033752 
	C178.000061,415.997559 178.068985,415.924133 178.068985,415.924133 
	C169.611633,415.924133 161.154282,415.924133 152.158417,415.924133 
	C152.158417,407.419708 152.158417,398.909332 152.158417,390.004944 
	C143.375854,390.004944 135.125061,390.004944 126.402176,390.037445 
	C125.951721,381.671387 125.973389,373.272858 125.962555,364.402161 
	C151.808823,363.930054 177.687592,363.930054 203.995056,363.930054 
	C203.995056,355.390778 203.995056,347.132507 203.962555,338.402161 
z"/>
<path fill="#FFFFFF" opacity="1.000000" stroke="none" 
	d="
M537.597900,440.962585 
	C538.044861,449.328522 538.019714,457.726990 537.996216,466.562836 
	C537.997742,467.000214 538.069946,466.930054 537.597900,466.962585 
	C503.060547,466.973419 468.995300,466.951721 434.930054,466.930054 
	C434.930054,466.930054 435.000153,467.002380 435.034607,467.039124 
	C435.069061,458.606415 435.069061,450.136963 435.069061,440.995087 
	C469.122864,440.995087 503.124329,440.995087 537.597900,440.962585 
z"/>
<path fill="#FFFFFF" opacity="1.000000" stroke="none" 
	d="
M486.965790,363.957031 
	C486.931458,372.394348 486.931458,380.868347 486.931458,389.727753 
	C478.480927,389.727753 470.079254,389.727753 461.294373,389.727753 
	C461.294373,398.496368 461.294373,406.897919 461.294373,415.648895 
	C452.525757,415.648895 444.125946,415.648895 435.362183,415.648895 
	C435.362183,398.766479 435.362183,381.597015 435.362183,364.004486 
	C452.286163,364.004486 469.207306,364.004486 486.600891,364.033508 
	C487.073334,364.062500 487.000122,363.993683 486.965790,363.957031 
z"/>
<path fill="#FFFFFF" opacity="1.000000" stroke="none" 
	d="
M281.026459,287.049866 
	C281.060669,278.613800 281.060669,270.141174 281.060669,261.334412 
	C297.832428,261.334412 314.548279,261.334412 331.632446,261.334412 
	C331.632446,269.562744 331.632446,278.074188 331.632446,286.995972 
	C315.035156,286.995972 298.450684,286.995972 281.392700,286.970337 
	C280.919159,286.944702 280.992249,287.013245 281.026459,287.049866 
z"/>
<path fill="#FFFFFF" opacity="1.000000" stroke="none" 
	d="
M306.962585,158.402130 
	C314.995178,157.955154 323.060272,157.980255 331.562744,158.003891 
	C332.000092,158.002426 331.930054,157.930054 331.962555,158.402176 
	C331.973389,175.939514 331.951721,193.004730 331.930054,210.069946 
	C331.930054,210.069946 332.002380,209.999893 332.039124,209.965439 
	C323.948730,209.930984 315.821625,209.930984 306.995087,209.930984 
	C306.995087,192.898407 306.995087,175.886307 306.962585,158.402130 
z"/>
<path fill="#FFFFFF" opacity="1.000000" stroke="none" 
	d="
M358.402130,416.037415 
	C357.951721,407.671387 357.973389,399.272858 357.962555,390.402161 
	C366.387726,389.930054 374.845398,389.930054 383.651367,389.930054 
	C383.651367,398.585876 383.651367,407.084198 383.651367,416.004913 
	C375.375916,416.004913 367.125061,416.004913 358.402130,416.037415 
z"/>
<path fill="#FFFFFF" opacity="1.000000" stroke="none" 
	d="
M384.034607,467.039124 
	C384.069061,458.616821 384.069061,450.157776 384.069061,441.349426 
	C392.585144,441.349426 401.083923,441.349426 409.995117,441.349426 
	C409.995117,449.626343 409.995117,457.878479 409.963043,466.603210 
	C409.930969,467.075867 409.999908,467.002441 409.562805,466.998749 
	C400.727142,466.973389 392.328613,466.951721 383.930054,466.930054 
	C383.930054,466.930054 384.000122,467.002411 384.034607,467.039124 
z"/>
<path fill="#FFFFFF" opacity="1.000000" stroke="none" 
	d="
M177.597870,492.962585 
	C178.069946,501.387299 178.069946,509.844574 178.069946,518.839844 
	C186.578659,518.839844 195.088699,518.839844 204.004944,518.839844 
	C204.004944,527.289124 204.004944,535.207397 204.037445,543.597839 
	C186.951096,544.069946 169.832245,544.069946 152.356781,544.069946 
	C152.356781,527.098755 152.356781,510.272369 152.356781,492.995087 
	C160.603409,492.995087 168.864594,492.995087 177.597870,492.962585 
z"/>
<path fill="#FFFFFF" opacity="1.000000" stroke="none" 
	d="
M75.000000,470.000000 
	C75.000000,460.191620 75.000000,450.883270 75.000000,441.288208 
	C83.280060,441.288208 91.351387,441.288208 99.823799,441.288208 
	C99.823799,449.613586 99.823799,458.023834 99.823799,466.825928 
	C108.615707,466.825928 117.026054,466.825928 125.715134,466.825928 
	C125.715134,475.620880 125.715134,484.025146 125.715134,492.716187 
	C109.043159,492.716187 92.308296,492.716187 75.000000,492.716187 
	C75.000000,485.361847 75.000000,477.930908 75.000000,470.000000 
z"/>
<path fill="#FFFFFF" opacity="1.000000" stroke="none" 
	d="
M99.962555,390.402161 
	C108.328613,389.951721 116.727165,389.973389 125.597824,389.962555 
	C126.069939,398.387726 126.069939,406.845398 126.069939,415.651367 
	C117.414124,415.651367 108.915794,415.651367 99.995049,415.651367 
	C99.995049,407.375916 99.995049,399.125061 99.962555,390.402161 
z"/>
<path fill="#FFFFFF" opacity="1.000000" stroke="none" 
	d="
M204.039154,440.965454 
	C195.628815,440.930969 187.181778,440.930969 178.004898,440.930969 
	C178.004898,432.929901 178.004898,424.899658 178.036942,416.396790 
	C178.068985,415.924133 178.000061,415.997559 178.437180,416.001251 
	C187.235031,416.004944 195.595779,416.004944 203.930054,416.004944 
	C203.930054,424.842773 203.930054,432.956360 203.930054,441.069946 
	C203.930054,441.069946 204.002426,440.999908 204.039154,440.965454 
z"/>
<path fill="#FCFCFC" opacity="1.000000" stroke="none" 
	d="
M715.000000,54.998699 
	C725.132202,54.998699 734.764404,54.998699 744.662109,54.998699 
	C744.662109,97.992546 744.662109,140.681824 744.662109,183.602722 
	C701.844299,183.602722 659.268738,183.602722 616.345825,183.602722 
	C616.345825,140.924240 616.345825,98.228966 616.345825,54.998699 
	C649.004700,54.998699 681.752319,54.998699 715.000000,54.998699 
M716.318420,80.813904 
	C691.439331,80.813904 666.560242,80.813904 641.879639,80.813904 
	C641.879639,106.979012 641.879639,132.361160 641.879639,157.611328 
	C667.726196,157.611328 693.255798,157.611328 718.888123,157.611328 
	C718.888123,132.917572 718.910156,108.611771 718.819946,84.306396 
	C718.815674,83.145081 717.818726,81.987450 716.318420,80.813904 
z"/>
<path fill="#FCFCFC" opacity="1.000000" stroke="none" 
	d="
M49.163704,124.999939 
	C49.163704,101.530464 49.163704,78.560997 49.163704,55.295006 
	C92.183792,55.295006 134.899475,55.295006 177.809296,55.295006 
	C177.809296,98.008896 177.809296,140.612823 177.809296,183.526642 
	C135.044983,183.526642 92.332291,183.526642 49.163704,183.526642 
	C49.163704,164.075531 49.163704,144.787735 49.163704,124.999939 
M74.814224,94.504242 
	C74.814224,115.571144 74.814224,136.638046 74.814224,157.649597 
	C100.872444,157.649597 126.388397,157.649597 151.740585,157.649597 
	C151.740585,131.893356 151.740585,106.486313 151.740585,81.178192 
	C125.966911,81.178192 100.452507,81.178192 74.814224,81.178192 
	C74.814224,85.529236 74.814224,89.517273 74.814224,94.504242 
z"/>
<path fill="#FCFCFC" opacity="1.000000" stroke="none" 
	d="
M135.000092,621.825317 
	C149.479279,621.825317 163.458481,621.825317 177.721069,621.825317 
	C177.721069,664.757629 177.721069,707.485901 177.721069,750.460999 
	C135.021957,750.460999 92.434380,750.460999 49.503281,750.460999 
	C49.503281,707.689392 49.503281,664.991882 49.503281,621.825317 
	C77.927315,621.825317 106.213699,621.825317 135.000092,621.825317 
M120.499962,724.886475 
	C130.921326,724.886475 141.342697,724.886475 151.647369,724.886475 
	C151.647369,698.749146 151.647369,673.219421 151.647369,647.872437 
	C125.904900,647.872437 100.513847,647.872437 75.002426,647.872437 
	C75.002426,673.586426 75.002426,698.995117 75.002426,724.886475 
	C89.956673,724.886475 104.728310,724.886475 120.499962,724.886475 
z"/>
<path fill="#FFFFFF" opacity="1.000000" stroke="none" 
	d="
M332.069031,518.924194 
	C315.275909,518.924194 298.482819,518.924194 281.344879,518.924194 
	C281.344879,501.734009 281.344879,484.567780 281.344879,467.199707 
	C289.786957,467.199707 298.180298,467.199707 306.957642,467.199707 
	C306.957642,475.756897 306.957642,484.156860 306.957642,493.004883 
	C315.265594,493.004883 323.198090,493.004883 331.603210,493.036957 
	C332.075867,493.069031 332.002441,493.000092 331.998749,493.437195 
	C331.973389,502.272858 331.951721,510.671387 331.965088,519.033813 
	C332.000122,518.997620 332.069031,518.924194 332.069031,518.924194 
z"/>
<path fill="#FFFFFF" opacity="1.000000" stroke="none" 
	d="
M229.402130,544.037476 
	C228.951706,527.338074 228.973373,510.606201 228.962555,493.402191 
	C237.394104,492.930054 245.858154,492.930054 254.660873,492.930054 
	C254.660873,509.929230 254.660873,526.747498 254.660873,544.004944 
	C246.388672,544.004944 238.131439,544.004944 229.402130,544.037476 
z"/>
<path fill="#FFFFFF" opacity="1.000000" stroke="none" 
	d="
M307.039124,621.965332 
	C298.675323,621.955505 290.274811,621.980225 281.402161,622.037415 
	C280.930054,613.623108 280.930054,605.176331 280.930054,596.004883 
	C289.405518,596.004883 297.768036,596.004883 306.603210,596.036987 
	C307.075836,596.069031 307.002380,596.000061 306.998718,596.437134 
	C306.973389,605.272827 306.951721,613.671387 306.930054,622.069946 
	C306.930054,622.069946 307.002380,621.999817 307.039124,621.965332 
z"/>
<path fill="#FFFFFF" opacity="1.000000" stroke="none" 
	d="
M332.034668,544.038940 
	C332.047729,536.006958 332.026306,527.938171 332.036957,519.396851 
	C332.069031,518.924194 332.000122,518.997620 332.437195,519.001343 
	C341.272858,519.026672 349.671387,519.048340 358.069946,519.069946 
	C358.069946,519.069946 358.000000,519.000000 357.997559,519.437134 
	C357.973389,527.939514 357.951721,536.004700 357.930054,544.069946 
	C357.930054,544.069946 358.000000,544.000000 357.562866,543.997559 
	C348.727142,543.973389 340.328613,543.951721 331.930054,543.930054 
	C331.930054,543.930054 332.000183,544.002258 332.034668,544.038940 
z"/>
<path fill="#FFFFFF" opacity="1.000000" stroke="none" 
	d="
M616.402100,416.037415 
	C615.951721,407.671387 615.973389,399.272858 615.962524,390.402161 
	C632.726868,389.930054 649.523743,389.930054 666.706543,389.930054 
	C666.706543,381.503052 666.706543,373.100952 666.706543,364.350403 
	C675.476013,364.350403 683.876099,364.350403 693.004944,364.350403 
	C693.004944,398.086212 693.004944,432.105927 693.037476,466.597809 
	C676.277100,467.069946 659.484253,467.069946 642.345825,467.069946 
	C642.345825,458.516815 642.345825,450.118896 642.345825,441.158875 
	C650.237854,441.158875 658.431030,441.158875 666.803955,441.158875 
	C666.803955,432.538727 666.803955,424.478516 666.803955,416.004913 
	C650.043091,416.004913 633.458679,416.004913 616.402100,416.037415 
z"/>
<path fill="#FFFFFF" opacity="1.000000" stroke="none" 
	d="
M332.034546,158.039154 
	C332.044373,149.675339 332.019714,141.274811 331.962555,132.402161 
	C348.995270,131.951721 366.060455,131.973389 383.597809,131.962555 
	C384.044861,140.328506 384.019775,148.726944 383.996155,157.562744 
	C383.997620,158.000107 384.069946,157.930054 383.597839,157.962555 
	C366.060516,157.973389 348.995300,157.951721 331.930054,157.930054 
	C331.930054,157.930054 332.000092,158.002426 332.034546,158.039154 
z"/>
<path fill="#FFFFFF" opacity="1.000000" stroke="none" 
	d="
M383.960876,158.034576 
	C392.324677,158.044388 400.725189,158.019730 409.597839,157.962555 
	C410.044861,166.328506 410.019775,174.726944 409.996155,183.562744 
	C409.997620,184.000107 410.069946,183.930054 409.597870,183.962555 
	C400.727203,183.973389 392.328644,183.951721 383.930054,183.930054 
	C383.930054,183.930054 384.000000,184.000000 384.002472,183.562866 
	C384.026611,174.727158 384.048279,166.328613 384.069946,157.930054 
	C384.069946,157.930054 383.997620,158.000107 383.960876,158.034576 
z"/>
<path fill="#FFFFFF" opacity="1.000000" stroke="none" 
	d="
M409.960876,184.034576 
	C418.039581,184.069046 426.154999,184.069046 434.995117,184.069046 
	C434.995117,192.405609 434.995117,200.768112 434.963074,209.603271 
	C434.931030,210.075912 434.999969,210.002487 434.562836,209.998779 
	C426.097076,209.995056 418.068481,209.995056 410.069946,209.995056 
	C410.069946,200.820450 410.069946,192.375259 410.069946,183.930054 
	C410.069946,183.930054 409.997620,184.000107 409.960876,184.034576 
z"/>
<path fill="#FFFFFF" opacity="1.000000" stroke="none" 
	d="
M126.037445,363.597839 
	C117.671387,364.048279 109.272835,364.026611 100.402168,364.037445 
	C99.951721,355.671387 99.973381,347.272858 99.962555,338.402161 
	C108.376297,337.930054 116.822533,337.930054 126.004951,337.930054 
	C126.004951,346.403107 126.004951,354.764435 126.037445,363.597839 
z"/>
<path fill="#FFFFFF" opacity="1.000000" stroke="none" 
	d="
M203.597870,312.962585 
	C204.048279,320.995270 204.026611,329.060486 204.037445,337.597839 
	C195.624680,338.069946 187.179428,338.069946 177.995056,338.069946 
	C177.995056,329.931458 177.995056,321.902863 177.962555,313.402161 
	C186.328629,312.951721 194.727219,312.973419 203.597870,312.962585 
z"/>
<path fill="#FFFFFF" opacity="1.000000" stroke="none" 
	d="
M563.597900,466.962585 
	C564.044983,475.330231 564.020020,483.730408 563.963013,492.603210 
	C563.930969,493.075836 563.999939,493.002380 563.562866,492.998718 
	C554.764221,492.995056 546.402710,492.995056 538.069946,492.995056 
	C538.069946,483.822449 538.069946,475.376251 538.069946,466.930054 
	C538.069946,466.930054 537.997742,467.000214 537.961060,467.034668 
	C546.324829,467.044434 554.725281,467.019775 563.597900,466.962585 
z"/>
<path fill="#000000" opacity="1.000000" stroke="none" 
	d="
M331.962585,544.402100 
	C340.328613,543.951721 348.727142,543.973389 357.597839,543.962524 
	C358.069946,552.387756 358.069946,560.845520 358.069946,569.651367 
	C349.414124,569.651367 340.915802,569.651367 331.995087,569.651367 
	C331.995087,561.375916 331.995087,553.125061 331.962585,544.402100 
z"/>
<path fill="#000000" opacity="1.000000" stroke="none" 
	d="
M358.000000,608.007690 
	C358.000000,603.867981 358.000000,600.223633 358.000000,596.290527 
	C366.608673,596.290527 375.013062,596.290527 383.710297,596.290527 
	C383.710297,604.610718 383.710297,613.014893 383.710297,621.711060 
	C375.387665,621.711060 366.983490,621.711060 358.000000,621.711060 
	C358.000000,617.369568 358.000000,612.936279 358.000000,608.007690 
z"/>
<path fill="#000000" opacity="1.000000" stroke="none" 
	d="
M307.402100,622.037476 
	C306.951721,613.671387 306.973389,605.272827 306.962555,596.402161 
	C315.054749,595.930054 323.179474,595.930054 331.651917,595.930054 
	C331.651917,604.586243 331.651917,613.083496 331.651917,622.004944 
	C323.710175,622.004944 315.792206,622.004944 307.402100,622.037476 
z"/>
<path fill="#000000" opacity="1.000000" stroke="none" 
	d="
M358.402130,544.037476 
	C357.951721,536.004700 357.973389,527.939514 357.962585,519.402161 
	C366.375305,518.930054 374.820557,518.930054 384.004913,518.930054 
	C384.004913,527.068604 384.004913,535.097168 384.037415,543.597839 
	C375.671356,544.048279 367.272797,544.026611 358.402130,544.037476 
z"/>
<path fill="#000000" opacity="1.000000" stroke="none" 
	d="
M597.066528,596.000000 
	C603.530579,596.000000 609.501404,596.000000 615.734253,596.000000 
	C615.734253,604.660461 615.734253,613.064575 615.734253,621.735474 
	C607.337097,621.735474 598.933044,621.735474 590.263428,621.735474 
	C590.263428,613.334717 590.263428,604.930786 590.263428,596.000000 
	C592.363708,596.000000 594.468506,596.000000 597.066528,596.000000 
z"/>
<path fill="#000000" opacity="1.000000" stroke="none" 
	d="
M358.037415,518.597900 
	C349.671387,519.048340 341.272858,519.026672 332.402161,519.037476 
	C331.951721,510.671387 331.973389,502.272858 331.962555,493.402161 
	C340.376282,492.930054 348.822540,492.930054 358.004913,492.930054 
	C358.004913,501.403107 358.004913,509.764435 358.037415,518.597900 
z"/>
<path fill="#000000" opacity="1.000000" stroke="none" 
	d="
M383.962585,467.402130 
	C392.328613,466.951721 400.727142,466.973389 409.597809,466.962555 
	C410.048248,475.328613 410.026581,483.727142 410.037415,492.597839 
	C401.623718,493.069946 393.177460,493.069946 383.995087,493.069946 
	C383.995087,484.596893 383.995087,476.235565 383.962585,467.402130 
z"/>
<path fill="#000000" opacity="1.000000" stroke="none" 
	d="
M537.597900,466.962585 
	C538.069946,475.376251 538.069946,483.822449 538.069946,492.995056 
	C546.402710,492.995056 554.764221,492.995056 563.597839,492.962555 
	C564.069946,501.388550 564.069946,509.847076 564.069946,519.005005 
	C547.231995,519.005005 530.553101,519.005005 513.402161,519.037476 
	C512.930054,510.604980 512.930054,502.140015 512.930054,493.004944 
	C487.216522,493.004944 461.545410,493.004944 435.402161,493.037445 
	C434.951691,484.671387 434.973358,476.272858 434.962524,467.402161 
	C468.995300,466.951721 503.060547,466.973419 537.597900,466.962585 
z"/>
<path fill="#000000" opacity="1.000000" stroke="none" 
	d="
M409.597870,183.962555 
	C410.069946,192.375259 410.069946,200.820450 410.069946,209.995056 
	C418.068481,209.995056 426.097076,209.995056 434.597839,209.962555 
	C435.069946,226.724808 435.069946,243.519562 435.069946,260.657043 
	C418.061615,260.657043 401.226898,260.657043 383.995056,260.657043 
	C383.995056,235.357117 383.995056,210.115707 383.962555,184.402176 
	C392.328644,183.951721 400.727203,183.973389 409.597870,183.962555 
z"/>
<path fill="#000000" opacity="1.000000" stroke="none" 
	d="
M383.597839,157.962555 
	C384.048279,166.328613 384.026611,174.727158 384.037445,183.597839 
	C375.612335,184.069946 367.154755,184.069946 358.158630,184.069946 
	C358.158630,192.580048 358.158630,201.090454 358.158630,210.004944 
	C349.375946,210.004944 341.125122,210.004944 332.402161,210.037445 
	C331.951721,193.004730 331.973389,175.939514 331.962555,158.402176 
	C348.995300,157.951721 366.060516,157.973389 383.597839,157.962555 
z"/>
<path fill="#000000" opacity="1.000000" stroke="none" 
	d="
M204.402130,441.037415 
	C203.930054,432.956360 203.930054,424.842773 203.930054,416.004944 
	C195.595779,416.004944 187.235031,416.004944 178.402176,416.037445 
	C177.930054,407.597290 177.930054,399.124664 177.930054,390.326355 
	C203.629166,390.326355 229.119644,390.326355 254.805725,390.326355 
	C254.805725,398.799103 254.805725,407.193359 254.805725,415.972656 
	C246.229202,415.972656 237.827194,415.972656 229.050446,415.972656 
	C229.050446,424.413269 229.050446,432.482666 229.050446,441.004913 
	C220.740097,441.004913 212.807144,441.004913 204.402130,441.037415 
z"/>
<path fill="#010101" opacity="1.000000" stroke="none" 
	d="
M716.801270,80.820999 
	C717.818726,81.987450 718.815674,83.145081 718.819946,84.306396 
	C718.910156,108.611771 718.888123,132.917572 718.888123,157.611328 
	C693.255798,157.611328 667.726196,157.611328 641.879639,157.611328 
	C641.879639,132.361160 641.879639,106.979012 641.879639,80.813904 
	C666.560242,80.813904 691.439331,80.813904 716.801270,80.820999 
z"/>
<path fill="#000000" opacity="1.000000" stroke="none" 
	d="
M74.814224,94.004776 
	C74.814224,89.517273 74.814224,85.529236 74.814224,81.178192 
	C100.452507,81.178192 125.966911,81.178192 151.740585,81.178192 
	C151.740585,106.486313 151.740585,131.893356 151.740585,157.649597 
	C126.388397,157.649597 100.872444,157.649597 74.814224,157.649597 
	C74.814224,136.638046 74.814224,115.571144 74.814224,94.004776 
z"/>
<path fill="#010101" opacity="1.000000" stroke="none" 
	d="
M119.999954,724.886475 
	C104.728310,724.886475 89.956673,724.886475 75.002426,724.886475 
	C75.002426,698.995117 75.002426,673.586426 75.002426,647.872437 
	C100.513847,647.872437 125.904900,647.872437 151.647369,647.872437 
	C151.647369,673.219421 151.647369,698.749146 151.647369,724.886475 
	C141.342697,724.886475 130.921326,724.886475 119.999954,724.886475 
z"/>
</svg>