<svg version="1.1" id="Layer_1" xmlns="http://www.w3.org/2000/svg" xmlns:xlink="http://www.w3.org/1999/xlink" x="0px" y="0px"
	 width="100%" viewBox="0 0 800 800" enable-background="new 0 0 800 800" xml:space="preserve">
<path fill="#FEFEFE" opacity="1.000000" stroke="none" 
	d="
M801.000000,215.000000 
	C801.000000,410.666656 801.000000,605.833313 801.000000,801.000000 
	C534.333313,801.000000 267.666656,801.000000 1.000000,801.000000 
	C1.000000,534.333313 1.000000,267.666656 1.000000,1.000000 
	C267.666656,1.000000 534.333313,1.000000 801.000000,1.000000 
	C801.000000,72.166664 801.000000,143.333328 801.000000,215.000000 
M332.005463,747.871094 
	C332.005463,755.795410 332.005463,763.719727 332.005463,771.631958 
	C340.940765,771.631958 349.444305,771.631958 357.656006,771.631958 
	C357.656006,763.205933 357.656006,755.148743 357.656006,747.067688 
	C348.849030,747.067688 340.384918,747.067688 331.993469,746.124329 
	C331.972961,737.723083 331.952423,729.321899 332.875305,720.993408 
	C349.897919,720.993408 366.920532,720.993408 384.305420,720.993408 
	C384.305420,730.115784 384.305420,738.507629 384.305420,746.924377 
	C393.141357,746.924377 401.605103,746.924377 410.005829,747.869690 
	C410.005829,755.794800 410.005829,763.719849 410.005829,771.659424 
	C427.252991,771.659424 444.071014,771.659424 460.931122,771.659424 
	C460.931122,763.188049 460.931122,755.056213 461.874847,746.993713 
	C495.782501,746.993713 529.690186,746.993713 563.634277,746.993713 
	C563.634277,738.087585 563.634277,729.571594 563.634277,720.700928 
	C537.887451,720.700928 512.504883,720.700928 486.739685,720.700928 
	C486.739685,711.936035 486.739685,703.531738 486.739685,695.068909 
	C477.875519,695.068909 469.399902,695.068909 460.993713,694.125183 
	C460.993713,685.859009 460.993713,677.592896 460.993713,668.949097 
	C469.849304,668.949097 478.251617,668.949097 487.027039,668.949097 
	C487.027039,660.505005 487.027039,652.435242 487.027039,644.194214 
	C495.808167,644.194214 504.202942,644.194214 513.160156,644.194214 
	C513.160156,652.567627 513.160156,660.762390 513.160156,669.313477 
	C521.790161,669.313477 529.858398,669.313477 538.293457,669.313477 
	C538.293457,678.099243 538.293457,686.500916 538.293457,695.086914 
	C555.806335,695.086914 572.933899,695.086914 589.993164,695.013672 
	C589.993164,695.013672 589.920105,694.945129 589.995300,695.886719 
	C589.995300,704.156494 589.995300,712.426270 589.995300,720.769897 
	C607.544312,720.769897 624.604675,720.769897 642.047974,720.769897 
	C642.047974,703.481262 642.047974,686.417664 642.047974,668.966370 
	C650.495422,668.966370 658.570129,668.966370 667.015869,668.966370 
	C667.015869,651.847595 667.015869,635.116455 667.015869,618.195190 
	C675.800049,618.195190 684.199707,618.195190 693.160522,618.195190 
	C693.160522,635.235535 693.160522,652.088806 693.160522,668.658875 
	C719.111938,668.658875 744.501526,668.658875 769.670410,668.658875 
	C769.670410,651.588379 769.670410,634.859314 769.670410,617.752808 
	C752.612671,617.752808 735.881592,617.752808 719.086914,617.752808 
	C719.086914,608.891907 719.086914,600.415161 719.013672,592.006836 
	C719.013672,592.006836 718.945129,592.079895 719.886719,592.004700 
	C728.136230,592.004700 736.385803,592.004700 744.924255,592.004700 
	C744.924255,574.362610 744.924255,557.146973 745.869629,539.994141 
	C753.788025,539.994141 761.706421,539.994141 769.649536,539.994141 
	C769.649536,531.416992 769.649536,523.251709 769.649536,515.068726 
	C761.174805,515.068726 753.049561,515.068726 744.993774,514.125061 
	C744.971130,505.729095 744.948547,497.333130 745.871094,488.994537 
	C753.795410,488.994537 761.719727,488.994537 769.631958,488.994537 
	C769.631958,480.059235 769.631958,471.555695 769.631958,463.343994 
	C761.205933,463.343994 753.148743,463.343994 745.067688,463.343994 
	C745.067688,472.150970 745.067688,480.615082 744.124329,489.006531 
	C727.209473,489.006531 710.294617,489.006531 692.825073,489.006531 
	C692.825073,480.082062 692.825073,471.557831 692.825073,463.332642 
	C675.552185,463.332642 658.837769,463.332642 642.068848,463.332642 
	C642.068848,472.134613 642.068848,480.605164 641.125183,489.006287 
	C632.727173,489.029449 624.329163,489.052643 615.994141,488.130432 
	C615.994141,471.218658 615.994141,454.306885 615.994141,436.865051 
	C633.218994,436.865051 650.052612,436.865051 666.931091,436.865051 
	C666.931091,428.196350 666.931091,420.060333 667.874817,411.993713 
	C684.816772,411.993713 701.758789,411.993713 719.097412,411.993713 
	C719.097412,420.558746 719.097412,428.637787 719.097412,436.745056 
	C736.238403,436.745056 752.976929,436.745056 769.739990,436.745056 
	C769.739990,419.751221 769.739990,403.012634 769.739990,385.875183 
	C761.409180,385.875183 753.331543,385.875183 744.864380,385.875183 
	C744.864380,377.069092 744.864380,368.657623 744.864380,360.274109 
	C736.054565,360.274109 727.648376,360.274109 718.847107,360.274109 
	C718.847107,368.952942 718.847107,377.365540 718.847107,385.719635 
	C710.036133,385.719635 701.629578,385.719635 692.828796,385.719635 
	C692.828796,377.032135 692.828796,368.619141 692.828796,359.821777 
	C684.020935,359.821777 675.608582,359.821777 667.293091,359.821777 
	C667.293091,351.010498 667.293091,342.603607 667.293091,333.803467 
	C675.994080,333.803467 684.406311,333.803467 693.203491,333.803467 
	C693.203491,325.328003 693.203491,317.248993 693.203491,308.785675 
	C702.012451,308.785675 710.425232,308.785675 718.925903,308.785675 
	C718.925903,299.902466 718.925903,291.419830 719.871094,282.994537 
	C728.134888,282.994537 736.398682,282.994537 744.631958,282.994537 
	C744.631958,265.383789 744.631958,248.220428 744.631958,231.353394 
	C735.866394,231.353394 727.469543,231.353394 719.067688,231.353394 
	C719.067688,248.830200 719.067688,265.954681 718.124329,283.006531 
	C709.848083,283.006531 701.571838,283.006531 692.902466,283.006531 
	C692.902466,265.440796 692.902466,248.365036 692.902466,231.254837 
	C684.093811,231.254837 675.688416,231.254837 666.885742,231.254837 
	C666.885742,239.912491 666.885742,248.323410 666.885742,256.739105 
	C658.409424,256.739105 650.336609,256.739105 641.867798,256.739105 
	C641.867798,248.072662 641.867798,239.661407 641.867798,231.272247 
	C633.058228,231.272247 624.652161,231.272247 615.850952,231.272247 
	C615.850952,239.948822 615.850952,248.361145 615.850952,256.721710 
	C607.040283,256.721710 598.633789,256.721710 589.833008,256.721710 
	C589.833008,248.036377 589.833008,239.623642 589.833008,230.826233 
	C581.025452,230.826233 572.612976,230.826233 563.815735,230.826233 
	C563.815735,213.686020 563.815735,196.943619 563.815735,180.298218 
	C555.005005,180.298218 546.598389,180.298218 537.799072,180.298218 
	C537.799072,189.002533 537.799072,197.415619 537.799072,205.695755 
	C529.320679,205.695755 521.246704,205.695755 512.781128,205.695755 
	C512.781128,196.982925 512.781128,188.569870 512.781128,180.075836 
	C503.897339,180.075836 495.414307,180.075836 486.994202,179.130463 
	C486.973236,170.727005 486.952271,162.323547 487.874725,153.993393 
	C513.119263,153.993393 538.363831,153.993393 563.677063,153.993393 
	C563.677063,119.447739 563.677063,85.298401 563.677063,51.073318 
	C554.882935,51.073318 546.410400,51.073318 537.994629,50.128395 
	C537.994629,41.871681 537.994629,33.614967 537.994629,25.368423 
	C529.394043,25.368423 521.222717,25.368423 513.343018,25.368423 
	C513.343018,34.126831 513.343018,42.516262 513.343018,50.931568 
	C521.816650,50.931568 529.948303,50.931568 538.006592,51.874943 
	C538.006592,60.124435 538.006592,68.373924 538.006592,77.155106 
	C529.429260,77.155106 521.251709,77.155106 512.913086,77.155106 
	C512.913086,85.815971 512.913086,93.938835 512.986328,101.993279 
	C512.986328,101.993279 513.054871,101.920219 512.113281,101.995300 
	C503.864258,101.995300 495.615265,101.995300 487.072998,101.995300 
	C487.072998,119.634125 487.072998,136.848129 486.128143,154.005432 
	C477.726837,154.026535 469.325500,154.047653 460.993713,153.125076 
	C460.993713,136.215820 460.993713,119.306572 460.993713,101.869614 
	C443.780823,101.869614 426.949005,101.869614 409.926544,101.869614 
	C409.926544,93.205780 409.926544,85.071648 410.871521,76.994560 
	C436.120941,76.994560 461.370361,76.994560 486.800446,76.994560 
	C486.800446,68.190125 486.800446,59.793682 486.800446,50.845268 
	C469.430115,50.845268 452.249908,50.845268 434.696167,50.845268 
	C434.696167,41.891079 434.696167,33.488976 434.696167,25.339718 
	C426.237305,25.339718 418.169617,25.339718 410.068298,25.339718 
	C410.068298,42.812046 410.068298,59.945797 409.124908,77.006584 
	C400.729034,77.028954 392.333191,77.051331 383.994537,76.128677 
	C383.994537,67.871567 383.994537,59.614449 383.994537,51.368187 
	C375.060425,51.368187 366.556152,51.368187 358.343506,51.368187 
	C358.343506,60.126797 358.343506,68.516655 358.343506,76.931938 
	C367.150360,76.931938 375.614838,76.931938 384.006531,77.875305 
	C384.006531,85.794708 384.006531,93.714111 384.006531,102.075829 
	C366.367065,102.075829 349.149139,102.075829 331.994171,101.130470 
	C331.994171,93.123985 331.994171,85.117508 331.994171,76.874786 
	C323.261566,76.874786 315.189178,76.874786 307.007263,75.958954 
	C307.007263,67.753899 307.007263,59.548840 307.007263,51.068375 
	C298.013062,51.068375 289.466675,51.068375 280.993439,50.124989 
	C280.993439,41.875320 280.993439,33.625648 280.993439,25.348110 
	C272.085999,25.348110 263.588928,25.348110 255.073257,25.348110 
	C255.073257,34.150822 255.073257,42.606552 254.128342,51.005432 
	C245.871246,51.005432 237.614166,51.005432 229.368378,51.005432 
	C229.368378,59.939762 229.368378,68.443962 229.368378,76.656357 
	C238.127167,76.656357 246.516998,76.656357 254.931503,76.656357 
	C254.931503,67.849319 254.931503,59.384785 255.874908,50.993401 
	C264.270721,50.971142 272.666565,50.948883 281.005432,51.871559 
	C281.005432,60.136375 281.005432,68.401192 281.005432,76.722885 
	C290.052521,76.722885 298.651794,76.722885 307.019745,77.715393 
	C307.036102,85.835541 307.052429,93.955681 306.125122,102.006317 
	C280.439636,102.006317 254.754166,102.006317 229.345306,102.006317 
	C229.345306,111.118042 229.345306,119.513985 229.345306,128.274811 
	C238.085571,128.274811 246.483627,128.274811 255.073334,128.274811 
	C255.073334,137.124130 255.073334,145.593231 254.128418,154.005432 
	C245.864685,154.005432 237.600952,154.005432 229.368347,154.005432 
	C229.368347,171.616409 229.368347,188.779739 229.368347,205.646408 
	C238.134216,205.646408 246.531021,205.646408 254.931595,205.646408 
	C254.931595,188.169342 254.931595,171.044815 255.875000,153.993408 
	C264.132294,153.993408 272.389587,153.993408 281.158630,153.993408 
	C281.158630,171.581268 281.158630,188.738495 281.158630,205.924164 
	C290.141296,205.924164 298.605042,205.924164 307.005829,206.869537 
	C307.026794,214.938293 307.047791,223.007050 306.125122,231.006302 
	C263.461823,231.006302 220.798508,231.006302 178.075836,231.006302 
	C178.075836,240.127487 178.075836,248.598129 177.130463,257.005829 
	C168.858139,257.005829 160.585815,257.005829 151.928040,257.005829 
	C151.928040,248.131744 151.928040,239.724121 151.928040,231.201630 
	C108.820305,231.201630 66.106728,231.201630 23.369289,231.201630 
	C23.369289,248.583969 23.369289,265.763245 23.369289,282.633606 
	C32.144447,282.633606 40.549500,282.633606 49.330204,282.633606 
	C49.330204,273.861816 49.330204,265.453766 49.330204,257.358032 
	C58.131721,257.358032 66.537323,257.358032 75.311798,257.358032 
	C75.311798,274.781647 75.311798,291.847321 75.311798,308.652252 
	C83.772331,308.652252 91.843895,308.652252 100.285400,308.652252 
	C100.285400,291.241302 100.285400,274.175934 100.285400,257.331909 
	C109.078506,257.331909 117.482643,257.331909 126.259499,257.331909 
	C126.259499,274.728577 126.259499,291.793945 126.259499,308.678680 
	C135.051956,308.678680 143.454926,308.678680 152.240021,308.678680 
	C152.240021,299.954865 152.240021,291.547058 152.240021,282.924194 
	C161.111710,282.924194 169.590240,282.924194 178.005844,283.869537 
	C178.005844,292.232391 178.005844,300.595245 178.005844,308.931213 
	C187.180481,308.931213 195.628143,308.931213 204.006302,309.874878 
	C204.006302,317.806671 204.006302,325.738495 204.006302,334.045654 
	C195.155350,334.045654 186.755661,334.045654 178.202194,334.045654 
	C178.202194,342.822479 178.202194,351.215393 178.202194,360.131531 
	C203.889481,360.131531 229.380692,360.131531 255.075836,360.131531 
	C255.075836,369.126038 255.075836,377.597382 254.130463,386.005829 
	C220.128204,386.005829 186.125946,386.005829 152.068802,386.005829 
	C152.068802,395.136871 152.068802,403.606323 151.125107,412.006287 
	C125.787071,412.006287 100.449036,412.006287 74.924171,412.006287 
	C74.924171,402.860779 74.924171,394.395996 75.869530,385.994171 
	C83.802719,385.994171 91.735916,385.994171 100.046188,385.994171 
	C100.046188,377.151398 100.046188,368.749481 100.046188,359.975555 
	C108.822243,359.975555 117.224205,359.975555 125.805908,359.975555 
	C125.805908,351.196503 125.805908,342.802460 125.805908,334.326752 
	C100.121368,334.326752 74.631203,334.326752 49.075825,334.326752 
	C49.075825,343.124420 49.075825,351.596588 48.130459,360.005829 
	C39.878807,360.005829 31.627153,360.005829 23.350590,360.005829 
	C23.350590,368.916046 23.350590,377.414642 23.350590,385.931213 
	C32.158642,385.931213 40.617233,385.931213 49.006321,386.874878 
	C49.028675,412.270721 49.051025,437.666534 48.128441,463.005432 
	C39.859406,463.005432 31.590368,463.005432 23.368351,463.005432 
	C23.368351,497.624939 23.368351,531.782654 23.368351,565.638672 
	C32.139652,565.638672 40.541992,565.638672 48.931625,565.638672 
	C48.931625,531.158997 48.931625,497.039642 49.875008,462.993439 
	C58.275280,462.972687 66.675552,462.951935 75.006317,463.874878 
	C75.006317,472.145233 75.006317,480.415588 75.006317,489.069702 
	C83.536972,489.069702 91.610565,489.069702 99.775024,489.069702 
	C99.775024,497.862854 99.775024,506.262054 99.775024,515.051514 
	C91.485802,515.051514 83.411751,515.051514 75.209152,515.051514 
	C75.209152,532.170288 75.209152,548.896240 75.209152,565.794678 
	C83.483376,565.794678 91.548973,565.794678 100.006065,565.794678 
	C100.006065,557.195251 100.006065,548.788330 100.006065,540.196411 
	C108.797020,540.196411 117.196068,540.196411 126.163803,540.196411 
	C126.163803,548.902222 126.163803,557.434814 126.163803,565.637512 
	C135.138306,565.637512 143.542557,565.637512 152.311249,565.637512 
	C152.311249,548.547119 152.311249,531.817322 152.311249,515.322327 
	C178.082672,515.322327 203.470566,515.322327 229.246155,515.322327 
	C229.246155,523.714966 229.246155,531.788513 229.246155,539.924255 
	C238.114975,539.924255 246.591843,539.924255 255.005844,540.869629 
	C255.005844,549.130554 255.005844,557.391479 255.005844,566.021973 
	C246.177490,566.021973 237.781113,566.021973 229.332550,566.021973 
	C229.332550,583.558105 229.332550,600.714966 229.332550,618.087219 
	C238.129578,618.087219 246.595642,618.087219 254.993347,618.013977 
	C254.993347,618.013977 254.920258,617.945374 254.995300,618.886963 
	C254.995300,627.161743 254.995300,635.436523 254.995300,644.105835 
	C246.099380,644.105835 237.686722,644.105835 229.258606,644.105835 
	C229.258606,686.912170 229.258606,729.316833 229.258606,771.736389 
	C237.924423,771.736389 246.329819,771.736389 255.131927,771.736389 
	C255.131927,763.402649 255.131927,755.324707 255.131927,746.857422 
	C263.938538,746.857422 272.349701,746.857422 280.722595,746.857422 
	C280.722595,738.047607 280.722595,729.641479 280.722595,720.840576 
	C272.040283,720.840576 263.627533,720.840576 255.283356,720.840576 
	C255.283356,703.365417 255.283356,686.292847 255.283356,668.822876 
	C263.974121,668.822876 272.386566,668.822876 281.183960,668.822876 
	C281.183960,660.348267 281.183960,652.268494 281.183960,643.805542 
	C298.324402,643.805542 315.066833,643.805542 331.696686,643.805542 
	C331.696686,634.994507 331.696686,626.587585 331.696686,617.788757 
	C323.319977,617.788757 315.240845,617.788757 307.309418,617.788757 
	C307.309418,608.976868 307.309418,600.569519 307.309418,591.924377 
	C324.435730,591.924377 341.252289,591.924377 358.005829,592.869690 
	C358.005829,609.883118 358.005829,626.896545 358.005829,643.931091 
	C367.155975,643.931091 375.615814,643.931091 384.006287,644.874817 
	C384.006287,661.459229 384.006287,678.043579 384.006287,694.806580 
	C375.190155,694.806580 366.796997,694.806580 357.844482,694.806580 
	C357.844482,686.102966 357.844482,677.577759 357.844482,669.344971 
	C348.885590,669.344971 340.488190,669.344971 332.073669,669.344971 
	C332.073669,686.813477 332.073669,703.938110 331.128632,721.005432 
	C323.211151,721.005432 315.293640,721.005432 307.347260,721.005432 
	C307.347260,729.913391 307.347260,738.409607 307.347260,746.925903 
	C315.816589,746.925903 323.939697,746.925903 332.005463,747.871094 
M745.005371,721.871704 
	C745.005371,730.128418 745.005371,738.385071 745.005371,746.631653 
	C753.606384,746.631653 761.777161,746.631653 769.656982,746.631653 
	C769.656982,737.873230 769.656982,729.483826 769.656982,721.068420 
	C761.183472,721.068420 753.051880,721.068420 744.993408,720.125061 
	C744.993408,711.855774 744.993408,703.586426 744.993408,695.218506 
	C727.472412,695.218506 710.415466,695.218506 692.969055,695.218506 
	C692.969055,703.830933 692.969055,712.235657 692.969055,721.019897 
	C684.184326,721.019897 675.779419,721.019897 666.994873,721.019897 
	C666.994873,729.804260 666.994873,738.209290 666.994873,746.994629 
	C658.544006,746.994629 650.470947,746.994629 642.364380,746.994629 
	C642.364380,755.574036 642.364380,763.757874 642.364380,771.663208 
	C668.113098,771.663208 693.497803,771.663208 719.256836,771.663208 
	C719.256836,754.601318 719.256836,737.873901 719.256836,720.926697 
	C728.111023,720.926697 736.586670,720.926697 745.005371,721.871704 
M713.500183,25.322987 
	C672.456116,25.322987 631.412109,25.322987 590.459351,25.322987 
	C590.459351,85.756752 590.459351,145.318436 590.459351,204.902710 
	C650.455688,204.902710 710.159546,204.902710 769.771606,204.902710 
	C769.771606,144.942184 769.771606,85.268768 769.771606,25.322994 
	C751.100464,25.322994 732.800354,25.322994 713.500183,25.322987 
M103.499931,205.187134 
	C136.746658,205.187134 169.993393,205.187134 203.008820,205.187134 
	C203.008820,144.864624 203.008820,85.278931 203.008820,25.667368 
	C143.113007,25.667368 83.554886,25.667368 23.897041,25.667368 
	C23.897041,85.598427 23.897041,145.187210 23.897041,205.187134 
	C50.251194,205.187134 76.375557,205.187134 103.499931,205.187134 
M186.498749,592.000488 
	C132.258621,592.000488 78.018486,592.000488 23.996517,592.000488 
	C23.996517,652.394165 23.996517,712.117310 23.996517,771.817749 
	C83.906975,771.817749 143.487686,771.817749 203.119995,771.817749 
	C203.119995,711.829041 203.119995,652.099670 203.119995,592.000488 
	C197.768616,592.000488 192.633133,592.000488 186.498749,592.000488 
M184.573608,540.000916 
	C182.469040,540.000916 180.364456,540.000916 178.264496,540.000916 
	C178.264496,548.931213 178.264496,557.334534 178.264496,565.734375 
	C186.933548,565.734375 195.336899,565.734375 203.733185,565.734375 
	C203.733185,557.064087 203.733185,548.660706 203.733185,540.000916 
	C197.500687,540.000916 191.530365,540.000916 184.573608,540.000916 
M592.678345,747.001282 
	C591.786438,747.778992 590.141174,748.536621 590.119873,749.337524 
	C589.921448,756.777710 590.002563,764.225281 590.002563,771.768555 
	C598.862305,771.768555 607.265442,771.768555 615.766174,771.768555 
	C615.766174,763.466370 615.766174,755.396484 615.766174,747.000977 
	C608.242859,747.000977 600.947571,747.000977 592.678345,747.001282 
M755.516907,309.000977 
	C752.079468,309.000977 748.642090,309.000977 745.283081,309.000977 
	C745.283081,317.636871 745.283081,325.707031 745.283081,333.716278 
	C753.638428,333.716278 761.708496,333.716278 769.715698,333.716278 
	C769.715698,325.360229 769.715698,317.290131 769.715698,309.000977 
	C765.126953,309.000977 760.818054,309.000977 755.516907,309.000977 
z"/>
<path fill="#000000" opacity="1.000000" stroke="none" 
	d="
M486.931244,180.075836 
	C495.414307,180.075836 503.897339,180.075836 512.781128,180.075836 
	C512.781128,188.569870 512.781128,196.982925 512.781128,205.695755 
	C521.246704,205.695755 529.320679,205.695755 537.799072,205.695755 
	C537.799072,197.415619 537.799072,189.002533 537.799072,180.298218 
	C546.598389,180.298218 555.005005,180.298218 563.815735,180.298218 
	C563.815735,196.943619 563.815735,213.686020 563.815735,230.826233 
	C572.612976,230.826233 581.025452,230.826233 589.833008,230.826233 
	C589.833008,239.623642 589.833008,248.036377 589.833008,256.721710 
	C598.633789,256.721710 607.040283,256.721710 615.850952,256.721710 
	C615.850952,248.361145 615.850952,239.948822 615.850952,231.272247 
	C624.652161,231.272247 633.058228,231.272247 641.867798,231.272247 
	C641.867798,239.661407 641.867798,248.072662 641.867798,256.739105 
	C650.336609,256.739105 658.409424,256.739105 666.885742,256.739105 
	C666.885742,248.323410 666.885742,239.912491 666.885742,231.254837 
	C675.688416,231.254837 684.093811,231.254837 692.902466,231.254837 
	C692.902466,248.365036 692.902466,265.440796 692.902466,283.006531 
	C701.571838,283.006531 709.848083,283.006531 718.561768,283.006226 
	C718.999146,283.005890 718.925903,282.937164 718.925903,282.937164 
	C718.925903,291.419830 718.925903,299.902466 718.925903,308.785675 
	C710.425232,308.785675 702.012451,308.785675 693.203491,308.785675 
	C693.203491,317.248993 693.203491,325.328003 693.203491,333.803467 
	C684.406311,333.803467 675.994080,333.803467 667.293091,333.803467 
	C667.293091,342.603607 667.293091,351.010498 667.293091,359.821777 
	C675.608582,359.821777 684.020935,359.821777 692.828796,359.821777 
	C692.828796,368.619141 692.828796,377.032135 692.828796,385.719635 
	C701.629578,385.719635 710.036133,385.719635 718.847107,385.719635 
	C718.847107,377.365540 718.847107,368.952942 718.847107,360.274109 
	C727.648376,360.274109 736.054565,360.274109 744.864380,360.274109 
	C744.864380,368.657623 744.864380,377.069092 744.864380,385.875183 
	C753.331543,385.875183 761.409180,385.875183 769.739990,385.875183 
	C769.739990,403.012634 769.739990,419.751221 769.739990,436.745056 
	C752.976929,436.745056 736.238403,436.745056 719.097412,436.745056 
	C719.097412,428.637787 719.097412,420.558746 719.097412,411.993713 
	C701.758789,411.993713 684.816772,411.993713 667.437378,411.995697 
	C666.999878,411.997681 667.069946,412.069946 667.037476,411.597839 
	C667.004944,402.849792 667.004944,394.573853 667.004944,385.906372 
	C649.775757,385.906372 633.034058,385.906372 615.900391,385.906372 
	C615.900391,368.436340 615.900391,351.361389 615.900391,333.895874 
	C581.431030,333.895874 547.359131,333.895874 513.253418,333.895874 
	C513.253418,308.092896 513.253418,282.688995 513.253418,256.886108 
	C521.577759,256.886108 529.656738,256.886108 537.739136,256.886108 
	C537.739136,248.077896 537.739136,239.672302 537.739136,231.263855 
	C520.738953,231.263855 504.001038,231.263855 486.865356,231.263855 
	C486.865356,239.932587 486.865356,248.342514 486.865356,257.142059 
	C478.059875,257.142059 469.649109,257.142059 461.274963,257.142059 
	C461.274963,265.951263 461.274963,274.357025 461.274963,283.156860 
	C469.955322,283.156860 478.367584,283.156860 486.717651,283.156860 
	C486.717651,291.966156 486.717651,300.372101 486.717651,309.170227 
	C461.031189,309.170227 435.624878,309.170227 410.288391,309.170227 
	C410.288391,317.645264 410.288391,325.718201 410.288391,334.183716 
	C418.649719,334.183716 426.729095,334.183716 434.704193,334.183716 
	C434.704193,342.993683 434.704193,351.400055 434.704193,359.701202 
	C417.668274,359.701202 400.929749,359.701202 383.796173,359.701202 
	C383.796173,342.663788 383.796173,325.922119 383.796173,309.305511 
	C374.986542,309.305511 366.579590,309.305511 357.782043,309.305511 
	C357.782043,317.685181 357.782043,325.764221 357.782043,333.687775 
	C340.641144,333.687775 323.902313,333.687775 307.069946,333.687775 
	C307.069946,307.893860 307.069946,282.411957 307.034973,256.965027 
	C307.000000,257.000000 306.930054,257.069946 307.402161,257.037445 
	C315.876434,257.045776 323.878601,257.086578 331.936157,257.585114 
	C331.991608,266.293182 331.991608,274.543549 331.991608,282.742615 
	C349.625458,282.742615 366.674866,282.742615 383.755249,282.742615 
	C383.755249,274.089142 383.755249,265.695099 383.755249,257.279724 
	C366.255829,257.279724 349.001038,257.279724 331.863586,256.783264 
	C332.010620,247.834534 332.040283,239.382294 332.034973,230.965027 
	C332.000000,231.000000 331.930054,231.069946 332.402161,231.037445 
	C341.234772,231.004944 349.595337,231.004944 358.069946,231.004944 
	C358.069946,222.157379 358.069946,214.043716 358.034973,205.965027 
	C358.000000,206.000000 357.930054,206.069946 358.402130,206.037445 
	C367.274750,205.980301 375.675293,205.955643 384.040588,206.402802 
	C384.005341,214.802948 384.005341,222.731262 384.005341,230.667480 
	C409.922363,230.667480 435.398315,230.667480 460.924133,230.667480 
	C460.924133,222.200455 460.924133,214.065735 461.396790,205.963058 
	C470.231934,205.995102 478.594482,205.995102 487.069946,205.995102 
	C487.069946,196.823669 487.069946,188.376862 487.035004,179.966248 
	C487.000061,180.002426 486.931244,180.075836 486.931244,180.075836 
M608.439453,283.000000 
	C585.018188,283.000000 561.596863,283.000000 538.309204,283.000000 
	C538.309204,292.022125 538.309204,300.428772 538.309204,308.690857 
	C564.355774,308.690857 590.092102,308.690857 615.687622,308.690857 
	C615.687622,299.972351 615.687622,291.565918 615.687622,283.000000 
	C613.391846,283.000000 611.407532,283.000000 608.439453,283.000000 
M642.000000,290.559937 
	C642.000000,296.653809 642.000000,302.747650 642.000000,308.690552 
	C650.691528,308.690552 658.763916,308.690552 666.689209,308.690552 
	C666.689209,299.972534 666.689209,291.567200 666.689209,283.312622 
	C658.303223,283.312622 650.231140,283.312622 642.000000,283.312622 
	C642.000000,285.608276 642.000000,287.592316 642.000000,290.559937 
z"/>
<path fill="#000000" opacity="1.000000" stroke="none" 
	d="
M590.061523,695.086914 
	C572.933899,695.086914 555.806335,695.086914 538.293457,695.086914 
	C538.293457,686.500916 538.293457,678.099243 538.293457,669.313477 
	C529.858398,669.313477 521.790161,669.313477 513.160156,669.313477 
	C513.160156,660.762390 513.160156,652.567627 513.160156,644.194214 
	C504.202942,644.194214 495.808167,644.194214 487.027039,644.194214 
	C487.027039,652.435242 487.027039,660.505005 487.027039,668.949097 
	C478.251617,668.949097 469.849304,668.949097 460.993713,668.949097 
	C460.993713,677.592896 460.993713,685.859009 460.995697,694.562622 
	C460.997681,695.000122 461.069946,694.930054 460.597839,694.962524 
	C451.862427,694.995056 443.599152,694.995056 434.962524,694.995056 
	C434.962524,686.161133 434.962524,677.761719 434.962524,669.194458 
	C426.522217,669.194458 418.463226,669.194458 409.930054,669.194458 
	C409.930054,695.281189 409.930054,721.175598 409.965027,747.033813 
	C410.000000,746.997681 410.068817,746.924377 410.068817,746.924377 
	C401.605103,746.924377 393.141357,746.924377 384.305420,746.924377 
	C384.305420,738.507629 384.305420,730.115784 384.305420,720.993408 
	C366.920532,720.993408 349.897919,720.993408 332.437897,720.993713 
	C332.000488,720.994019 332.073669,721.062683 332.073669,721.062683 
	C332.073669,703.938110 332.073669,686.813477 332.073669,669.344971 
	C340.488190,669.344971 348.885590,669.344971 357.844482,669.344971 
	C357.844482,677.577759 357.844482,686.102966 357.844482,694.806580 
	C366.796997,694.806580 375.190155,694.806580 384.006287,694.806580 
	C384.006287,678.043579 384.006287,661.459229 384.004303,644.437378 
	C384.002319,643.999878 383.930054,644.069946 384.402161,644.037476 
	C410.115051,644.004944 435.355865,644.004944 460.641937,644.004944 
	C460.641937,635.094482 460.641937,626.581543 460.641937,617.709717 
	C443.565338,617.709717 426.845734,617.709717 409.930878,617.709717 
	C409.930878,608.869812 409.930878,600.397095 410.402710,591.959473 
	C436.129669,591.994629 461.384796,591.994629 487.028900,591.994629 
	C487.028900,600.826538 487.028900,609.233154 487.028900,617.795166 
	C495.819427,617.795166 504.218048,617.795166 513.007446,617.795166 
	C513.007446,609.195679 513.007446,600.789856 513.007446,592.002869 
	C521.460083,592.002869 529.533997,592.002869 537.644287,592.002869 
	C537.644287,574.431824 537.644287,557.254822 537.644287,540.350708 
	C529.216003,540.350708 521.145447,540.350708 512.700684,540.350708 
	C512.700684,549.105103 512.700684,557.511292 512.700684,565.669983 
	C495.247589,565.669983 478.186951,565.669983 461.324646,565.669983 
	C461.324646,556.935364 461.324646,548.533264 461.324646,539.752808 
	C470.051361,539.752808 478.457458,539.752808 486.924164,539.752808 
	C486.924164,531.218201 486.924164,523.074585 487.396790,514.963013 
	C530.535034,514.995117 573.200623,514.995117 616.069946,514.995117 
	C616.069946,505.872803 616.069946,497.401428 616.034973,488.966217 
	C616.000000,489.002380 615.931152,489.075806 615.931152,489.075806 
	C624.329163,489.052643 632.727173,489.029449 641.562622,489.004303 
	C642.000061,489.002319 641.930054,488.930054 641.962524,489.402130 
	C641.995056,498.234772 641.995056,506.595337 641.995056,515.069946 
	C650.842651,515.069946 658.956299,515.069946 667.034973,515.034973 
	C667.000000,515.000000 666.930054,514.930054 666.962524,515.402161 
	C666.995056,523.799866 666.995056,531.725464 666.995056,540.069946 
	C693.313293,540.069946 719.191589,540.069946 745.033752,540.035034 
	C744.997559,540.000061 744.924255,539.931274 744.924255,539.931274 
	C744.924255,557.146973 744.924255,574.362610 744.924255,592.004700 
	C736.385803,592.004700 728.136230,592.004700 719.441406,591.568909 
	C718.996033,582.868103 718.996033,574.603149 718.996033,566.367798 
	C701.385254,566.367798 684.220459,566.367798 667.353210,566.367798 
	C667.353210,575.134888 667.353210,583.532532 667.353210,591.938477 
	C684.833191,591.938477 701.960083,591.938477 719.086914,591.938477 
	C719.086914,600.415161 719.086914,608.891907 719.086914,617.752808 
	C735.881592,617.752808 752.612671,617.752808 769.670410,617.752808 
	C769.670410,634.859314 769.670410,651.588379 769.670410,668.658875 
	C744.501526,668.658875 719.111938,668.658875 693.160522,668.658875 
	C693.160522,652.088806 693.160522,635.235535 693.160522,618.195190 
	C684.199707,618.195190 675.800049,618.195190 667.015869,618.195190 
	C667.015869,635.116455 667.015869,651.847595 667.015869,668.966370 
	C658.570129,668.966370 650.495422,668.966370 642.047974,668.966370 
	C642.047974,686.417664 642.047974,703.481262 642.047974,720.769897 
	C624.604675,720.769897 607.544312,720.769897 589.995300,720.769897 
	C589.995300,712.426270 589.995300,704.156494 590.431091,695.441406 
	C599.125610,694.996033 607.384277,694.996033 615.632202,694.996033 
	C615.632202,686.061218 615.632202,677.555908 615.632202,669.343750 
	C606.871704,669.343750 598.480652,669.343750 590.061523,669.343750 
	C590.061523,678.153870 590.061523,686.620422 590.061523,695.086914 
M622.499634,566.000000 
	C603.071838,566.000000 583.644104,566.000000 564.285767,566.000000 
	C564.285767,592.308594 564.285767,618.044617 564.285767,643.714233 
	C590.308594,643.714233 616.044617,643.714233 641.714233,643.714233 
	C641.714233,617.691406 641.714233,591.955383 641.714233,566.000000 
	C635.453674,566.000000 629.476562,566.000000 622.499634,566.000000 
z"/>
<path fill="#020202" opacity="1.000000" stroke="none" 
	d="
M714.000244,25.322990 
	C732.800354,25.322994 751.100464,25.322994 769.771606,25.322994 
	C769.771606,85.268768 769.771606,144.942184 769.771606,204.902710 
	C710.159546,204.902710 650.455688,204.902710 590.459351,204.902710 
	C590.459351,145.318436 590.459351,85.756752 590.459351,25.322987 
	C631.412109,25.322987 672.456116,25.322987 714.000244,25.322990 
M744.929871,153.500015 
	C744.929871,119.422150 744.929871,85.344276 744.929871,51.282181 
	C701.649231,51.282181 658.937500,51.282181 616.363037,51.282181 
	C616.363037,94.261360 616.363037,136.956177 616.363037,179.586990 
	C659.303284,179.586990 701.878784,179.586990 744.929871,179.586990 
	C744.929871,171.065140 744.929871,162.782578 744.929871,153.500015 
z"/>
<path fill="#010101" opacity="1.000000" stroke="none" 
	d="
M102.999924,205.187134 
	C76.375557,205.187134 50.251194,205.187134 23.897041,205.187134 
	C23.897041,145.187210 23.897041,85.598427 23.897041,25.667368 
	C83.554886,25.667368 143.113007,25.667368 203.008820,25.667368 
	C203.008820,85.278931 203.008820,144.864624 203.008820,205.187134 
	C169.993393,205.187134 136.746658,205.187134 102.999924,205.187134 
M82.500000,50.997169 
	C71.424911,50.997169 60.349815,50.997169 49.484238,50.997169 
	C49.484238,94.375221 49.484238,136.961639 49.484238,179.605927 
	C92.397095,179.605927 134.989029,179.605927 177.716431,179.605927 
	C177.716431,136.656387 177.716431,93.937691 177.716431,50.997169 
	C146.120361,50.997169 114.810181,50.997169 82.500000,50.997169 
z"/>
<path fill="#010101" opacity="1.000000" stroke="none" 
	d="
M186.998199,592.000488 
	C192.633133,592.000488 197.768616,592.000488 203.119995,592.000488 
	C203.119995,652.099670 203.119995,711.829041 203.119995,771.817749 
	C143.487686,771.817749 83.906975,771.817749 23.996517,771.817749 
	C23.996517,712.117310 23.996517,652.394165 23.996517,592.000488 
	C78.018486,592.000488 132.258621,592.000488 186.998199,592.000488 
M50.769154,617.846924 
	C50.232834,619.526794 49.232033,621.205688 49.228291,622.886719 
	C49.140419,662.384216 49.160191,701.881958 49.160191,741.379639 
	C49.160187,742.996521 49.160194,744.613342 49.160194,746.376099 
	C92.376114,746.376099 135.091064,746.376099 177.792267,746.376099 
	C177.792267,703.431091 177.792267,660.817566 177.792267,617.827148 
	C135.629105,617.827148 93.677979,617.827148 50.769154,617.846924 
z"/>
<path fill="#000000" opacity="1.000000" stroke="none" 
	d="
M255.068710,539.924255 
	C246.591843,539.924255 238.114975,539.924255 229.246155,539.924255 
	C229.246155,531.788513 229.246155,523.714966 229.246155,515.322327 
	C203.470566,515.322327 178.082672,515.322327 152.311249,515.322327 
	C152.311249,531.817322 152.311249,548.547119 152.311249,565.637512 
	C143.542557,565.637512 135.138306,565.637512 126.163803,565.637512 
	C126.163803,557.434814 126.163803,548.902222 126.163803,540.196411 
	C117.196068,540.196411 108.797020,540.196411 100.006065,540.196411 
	C100.006065,548.788330 100.006065,557.195251 100.006065,565.794678 
	C91.548973,565.794678 83.483376,565.794678 75.209152,565.794678 
	C75.209152,548.896240 75.209152,532.170288 75.209152,515.051514 
	C83.411751,515.051514 91.485802,515.051514 99.775024,515.051514 
	C99.775024,506.262054 99.775024,497.862854 99.775024,489.069702 
	C91.610565,489.069702 83.536972,489.069702 75.006317,489.069702 
	C75.006317,480.415588 75.006317,472.145233 75.004372,463.437439 
	C75.002426,463.000031 74.930061,463.069946 75.402130,463.037445 
	C92.465797,463.004944 109.057396,463.004944 126.033493,463.004944 
	C126.033493,471.832306 126.033493,480.236725 126.033493,488.647156 
	C152.254028,488.647156 178.084641,488.647156 203.655579,488.647156 
	C203.655579,479.891144 203.655579,471.490051 203.655579,462.729431 
	C186.254547,462.729431 169.196533,462.729431 152.069946,462.729431 
	C152.069946,453.879700 152.069946,445.404877 152.034973,436.965027 
	C152.000000,437.000000 151.930054,437.069946 152.402176,437.037445 
	C178.125626,437.004944 203.376968,437.004944 229.180634,437.004944 
	C229.180634,454.592468 229.180634,471.773438 229.180634,488.652039 
	C246.794388,488.652039 263.852753,488.652039 281.291992,488.652039 
	C281.291992,479.901703 281.291992,471.496979 281.291992,463.333466 
	C290.085022,463.333466 298.486237,463.333466 307.075836,463.333466 
	C307.075836,480.800751 307.075836,497.934875 306.603210,515.036987 
	C289.118195,515.004883 272.105804,515.004883 254.930054,515.004883 
	C254.930054,523.816895 254.930054,531.943420 254.964996,540.033813 
	C254.999954,539.997620 255.068710,539.924255 255.068710,539.924255 
z"/>
<path fill="#000000" opacity="1.000000" stroke="none" 
	d="
M255.061722,618.087219 
	C246.595642,618.087219 238.129578,618.087219 229.332550,618.087219 
	C229.332550,600.714966 229.332550,583.558105 229.332550,566.021973 
	C237.781113,566.021973 246.177490,566.021973 255.005844,566.021973 
	C255.005844,557.391479 255.005844,549.130554 255.037277,540.396973 
	C255.068710,539.924255 254.999954,539.997620 255.437134,540.001282 
	C272.939209,539.978027 290.004120,539.951111 307.036957,540.396851 
	C307.004883,549.121216 307.004883,557.372986 307.004883,565.650146 
	C315.582672,565.650146 323.748840,565.650146 331.930878,565.650146 
	C331.930878,556.841614 331.930878,548.382996 332.402710,539.959473 
	C341.126495,539.994629 349.378448,539.994629 357.930054,539.994629 
	C357.930054,557.633057 357.930054,574.851501 357.965027,592.033813 
	C358.000000,591.997681 358.068817,591.924377 358.068817,591.924377 
	C341.252289,591.924377 324.435730,591.924377 307.309418,591.924377 
	C307.309418,600.569519 307.309418,608.976868 307.309418,617.788757 
	C315.240845,617.788757 323.319977,617.788757 331.696686,617.788757 
	C331.696686,626.587585 331.696686,634.994507 331.696686,643.805542 
	C315.066833,643.805542 298.324402,643.805542 281.183960,643.805542 
	C281.183960,652.268494 281.183960,660.348267 281.183960,668.822876 
	C272.386566,668.822876 263.974121,668.822876 255.283356,668.822876 
	C255.283356,686.292847 255.283356,703.365417 255.283356,720.840576 
	C263.627533,720.840576 272.040283,720.840576 280.722595,720.840576 
	C280.722595,729.641479 280.722595,738.047607 280.722595,746.857422 
	C272.349701,746.857422 263.938538,746.857422 255.131927,746.857422 
	C255.131927,755.324707 255.131927,763.402649 255.131927,771.736389 
	C246.329819,771.736389 237.924423,771.736389 229.258606,771.736389 
	C229.258606,729.316833 229.258606,686.912170 229.258606,644.105835 
	C237.686722,644.105835 246.099380,644.105835 254.995300,644.105835 
	C254.995300,635.436523 254.995300,627.161743 255.431152,618.441528 
	C264.125702,617.996033 272.384399,617.996033 280.632050,617.996033 
	C280.632050,609.061157 280.632050,600.555908 280.632050,592.343872 
	C271.871490,592.343872 263.480469,592.343872 255.061722,592.343872 
	C255.061722,601.154175 255.061722,609.620728 255.061722,618.087219 
z"/>
<path fill="#000000" opacity="1.000000" stroke="none" 
	d="
M307.068756,205.924164 
	C298.605042,205.924164 290.141296,205.924164 281.158630,205.924164 
	C281.158630,188.738495 281.158630,171.581268 281.158630,153.993408 
	C272.389587,153.993408 264.132294,153.993408 255.437576,153.993515 
	C255.000153,153.993622 255.073334,154.062332 255.073334,154.062332 
	C255.073334,145.593231 255.073334,137.124130 255.073334,128.274811 
	C246.483627,128.274811 238.085571,128.274811 229.345306,128.274811 
	C229.345306,119.513985 229.345306,111.118042 229.345306,102.006317 
	C254.754166,102.006317 280.439636,102.006317 306.562561,102.004372 
	C306.999969,102.002426 306.930054,101.930061 306.962555,102.402130 
	C306.995056,119.784767 306.995056,136.695343 306.995056,153.643219 
	C315.577393,153.643219 323.753082,153.643219 332.069946,153.643219 
	C332.069946,136.167770 332.069946,119.048912 332.034973,101.966248 
	C332.000031,102.002426 331.931213,102.075829 331.931213,102.075829 
	C349.149139,102.075829 366.367065,102.075829 384.006531,102.075829 
	C384.006531,93.714111 384.006531,85.794708 384.006287,77.437912 
	C384.006012,77.000511 383.937317,77.073708 383.937317,77.073708 
	C392.333191,77.051331 400.729034,77.028954 409.562317,77.006409 
	C409.999756,77.006226 409.926544,76.937515 409.926544,76.937515 
	C409.926544,85.071648 409.926544,93.205780 409.926544,101.869614 
	C426.949005,101.869614 443.780823,101.869614 460.993713,101.869614 
	C460.993713,119.306572 460.993713,136.215820 460.995667,153.562531 
	C460.997620,153.999985 461.069946,153.930054 460.597839,153.962555 
	C451.859985,153.995056 443.594177,153.995056 434.951080,153.995056 
	C434.951080,145.150620 434.951080,136.748566 434.951080,128.349457 
	C409.073456,128.349457 383.582489,128.349457 358.337738,128.349457 
	C358.337738,137.099594 358.337738,145.498184 358.337738,154.266998 
	C367.074036,154.266998 375.475555,154.266998 384.075867,154.266998 
	C384.075867,163.123901 384.075867,171.596436 383.603210,180.036942 
	C374.768066,180.004898 366.405518,180.004898 357.930054,180.004898 
	C357.930054,189.176331 357.930054,197.623138 357.930054,206.069946 
	C357.930054,206.069946 358.000000,206.000000 357.562866,205.997528 
	C348.727142,205.973404 340.328613,205.951736 331.965027,205.965027 
	C332.000000,206.000000 332.069946,206.069946 332.037415,205.597870 
	C332.004913,196.875290 332.004913,188.624786 332.004913,180.349121 
	C323.417572,180.349121 315.251892,180.349121 306.930054,180.349121 
	C306.930054,189.155289 306.930054,197.612610 306.964996,206.033752 
	C306.999939,205.997574 307.068756,205.924164 307.068756,205.924164 
z"/>
<path fill="#000000" opacity="1.000000" stroke="none" 
	d="
M666.965454,411.960999 
	C666.931091,420.060333 666.931091,428.196350 666.931091,436.865051 
	C650.052612,436.865051 633.218994,436.865051 615.994141,436.865051 
	C615.994141,454.306885 615.994141,471.218658 615.962646,488.603119 
	C615.931152,489.075806 616.000000,489.002380 615.562866,488.998718 
	C606.858887,488.995056 598.592041,488.995056 589.961670,488.995056 
	C589.961670,471.488922 589.961670,454.433380 589.961670,437.326813 
	C555.438782,437.326813 521.288452,437.326813 487.069061,437.326813 
	C487.069061,446.127502 487.069061,454.601654 486.597229,463.040588 
	C477.849854,463.005341 469.574341,463.005341 460.908752,463.005341 
	C460.908752,445.777679 460.908752,429.036987 460.908752,411.908661 
	C426.442902,411.908661 392.372986,411.908661 357.880737,411.908661 
	C357.880737,403.053589 357.880737,394.590485 357.850037,386.162292 
	C357.819305,386.197174 357.746216,386.279724 358.215271,386.149902 
	C401.407410,386.020111 444.130463,386.020111 487.245117,386.020111 
	C487.245117,376.951813 487.245117,368.543243 487.245117,360.317963 
	C496.046509,360.317963 504.450409,360.317963 513.237183,360.317963 
	C513.237183,369.040100 513.237183,377.448639 513.237183,386.079712 
	C521.776917,386.079712 529.922729,386.079712 538.034302,386.043030 
	C537.999939,386.006348 537.926758,385.937531 537.960815,386.409058 
	C537.994812,395.144043 537.994812,403.407562 537.994812,412.069946 
	C581.327087,412.069946 624.198486,412.069946 667.069946,412.069946 
	C667.069946,412.069946 666.999878,411.997681 666.965454,411.960999 
z"/>
<path fill="#000000" opacity="1.000000" stroke="none" 
	d="
M178.075836,257.068756 
	C178.075836,248.598129 178.075836,240.127487 178.075836,231.006302 
	C220.798508,231.006302 263.461823,231.006302 306.562561,231.004364 
	C306.999969,231.002411 306.930054,230.930054 306.962555,231.402130 
	C306.973389,240.272781 306.951721,248.671371 306.930054,257.069946 
	C306.930054,257.069946 307.000000,257.000000 306.562866,256.997528 
	C297.860077,256.995056 289.594421,256.995056 280.841827,256.995056 
	C280.841827,300.257690 280.841827,343.061127 280.841827,385.930054 
	C271.874878,385.930054 263.402466,385.930054 254.966248,385.964996 
	C255.002426,385.999939 255.075836,386.068756 255.075836,386.068756 
	C255.075836,377.597382 255.075836,369.126038 255.075836,360.131531 
	C229.380692,360.131531 203.889481,360.131531 178.202194,360.131531 
	C178.202194,351.215393 178.202194,342.822479 178.202194,334.045654 
	C186.755661,334.045654 195.155350,334.045654 204.006302,334.045654 
	C204.006302,325.738495 204.006302,317.806671 204.004364,309.437439 
	C204.002411,309.000031 203.930054,309.069946 204.402130,309.037415 
	C212.802689,309.004913 220.731171,309.004913 228.643768,309.004913 
	C228.643768,291.393707 228.643768,274.234833 228.643768,256.930054 
	C211.501816,256.930054 194.715942,256.930054 177.966248,256.964996 
	C178.002426,256.999939 178.075836,257.068756 178.075836,257.068756 
z"/>
<path fill="#000000" opacity="1.000000" stroke="none" 
	d="
M178.068771,282.924194 
	C169.590240,282.924194 161.111710,282.924194 152.240021,282.924194 
	C152.240021,291.547058 152.240021,299.954865 152.240021,308.678680 
	C143.454926,308.678680 135.051956,308.678680 126.259499,308.678680 
	C126.259499,291.793945 126.259499,274.728577 126.259499,257.331909 
	C117.482643,257.331909 109.078506,257.331909 100.285400,257.331909 
	C100.285400,274.175934 100.285400,291.241302 100.285400,308.652252 
	C91.843895,308.652252 83.772331,308.652252 75.311798,308.652252 
	C75.311798,291.847321 75.311798,274.781647 75.311798,257.358032 
	C66.537323,257.358032 58.131721,257.358032 49.330204,257.358032 
	C49.330204,265.453766 49.330204,273.861816 49.330204,282.633606 
	C40.549500,282.633606 32.144447,282.633606 23.369289,282.633606 
	C23.369289,265.763245 23.369289,248.583969 23.369289,231.201630 
	C66.106728,231.201630 108.820305,231.201630 151.928040,231.201630 
	C151.928040,239.724121 151.928040,248.131744 151.928040,257.005829 
	C160.585815,257.005829 168.858139,257.005829 177.603149,257.037292 
	C178.075836,257.068756 178.002426,256.999939 177.998749,257.437134 
	C177.973389,266.272858 177.951721,274.671387 177.965012,283.033752 
	C177.999969,282.997589 178.068771,282.924194 178.068771,282.924194 
z"/>
<path fill="#000000" opacity="1.000000" stroke="none" 
	d="
M487.072998,154.062134 
	C487.072998,136.848129 487.072998,119.634125 487.072998,101.995300 
	C495.615265,101.995300 503.864258,101.995300 512.558594,102.431137 
	C513.003967,111.125282 513.003967,119.383583 513.003967,127.632126 
	C521.605042,127.632126 529.777405,127.632126 537.656738,127.632126 
	C537.656738,118.872032 537.656738,110.481392 537.656738,102.061699 
	C529.180115,102.061699 521.046570,102.061699 512.913086,102.061699 
	C512.913086,93.938835 512.913086,85.815971 512.913086,77.155106 
	C521.251709,77.155106 529.429260,77.155106 538.006592,77.155106 
	C538.006592,68.373924 538.006592,60.124435 538.006592,51.437538 
	C538.006592,51.000134 537.937866,51.073318 537.937866,51.073318 
	C546.410400,51.073318 554.882935,51.073318 563.677063,51.073318 
	C563.677063,85.298401 563.677063,119.447739 563.677063,153.993393 
	C538.363831,153.993393 513.119263,153.993393 487.437286,153.993408 
	C486.999847,153.993408 487.072998,154.062134 487.072998,154.062134 
z"/>
<path fill="#000000" opacity="1.000000" stroke="none" 
	d="
M745.062317,720.926697 
	C736.586670,720.926697 728.111023,720.926697 719.256836,720.926697 
	C719.256836,737.873901 719.256836,754.601318 719.256836,771.663208 
	C693.497803,771.663208 668.113098,771.663208 642.364380,771.663208 
	C642.364380,763.757874 642.364380,755.574036 642.364380,746.994629 
	C650.470947,746.994629 658.544006,746.994629 666.994873,746.994629 
	C666.994873,738.209290 666.994873,729.804260 666.994873,721.019897 
	C675.779419,721.019897 684.184326,721.019897 692.969055,721.019897 
	C692.969055,712.235657 692.969055,703.830933 692.969055,695.218506 
	C710.415466,695.218506 727.472412,695.218506 744.993408,695.218506 
	C744.993408,703.586426 744.993408,711.855774 744.993530,720.562439 
	C744.993591,720.999817 745.062317,720.926697 745.062317,720.926697 
z"/>
<path fill="#000000" opacity="1.000000" stroke="none" 
	d="
M75.039124,462.965637 
	C66.675552,462.951935 58.275280,462.972687 49.437595,462.993530 
	C49.000183,462.993652 49.073376,463.062378 49.073376,463.062378 
	C49.051025,437.666534 49.028675,412.270721 49.004372,386.437439 
	C49.002422,386.000031 48.930061,386.069946 49.402130,386.037445 
	C58.272781,386.026611 66.671356,386.048279 75.033752,386.034973 
	C74.997574,386.000031 74.924171,385.931213 74.924171,385.931213 
	C74.924171,394.395996 74.924171,402.860779 74.924171,412.006287 
	C100.449036,412.006287 125.787071,412.006287 151.562561,412.004333 
	C152.000000,412.002380 151.930054,411.930054 151.962555,412.402161 
	C151.973389,420.939514 151.951721,429.004730 151.930054,437.069946 
	C151.930054,437.069946 152.000000,437.000000 151.562851,436.997528 
	C125.787727,436.995056 100.449760,436.995056 74.930061,436.995056 
	C74.930061,446.140198 74.930061,454.605072 74.930061,463.069946 
	C74.930061,463.069946 75.002426,463.000031 75.039124,462.965637 
z"/>
<path fill="#000000" opacity="1.000000" stroke="none" 
	d="
M744.925903,488.937164 
	C744.948547,497.333130 744.971130,505.729095 744.995728,514.562500 
	C744.997620,514.999939 745.069946,514.930054 744.597900,514.962524 
	C718.393860,514.973389 692.661987,514.951721 666.930054,514.930054 
	C666.930054,514.930054 667.000000,515.000000 667.002502,514.562866 
	C667.005005,505.765198 667.005005,497.404633 667.005005,488.930054 
	C658.157349,488.930054 650.043701,488.930054 641.930054,488.930054 
	C641.930054,488.930054 642.000061,489.002319 642.034424,489.039032 
	C642.068848,480.605164 642.068848,472.134613 642.068848,463.332642 
	C658.837769,463.332642 675.552185,463.332642 692.825073,463.332642 
	C692.825073,471.557831 692.825073,480.082062 692.825073,489.006531 
	C710.294617,489.006531 727.209473,489.006531 744.561768,489.006226 
	C744.999146,489.005890 744.925903,488.937164 744.925903,488.937164 
z"/>
<path fill="#000000" opacity="1.000000" stroke="none" 
	d="
M460.960999,695.034546 
	C469.399902,695.068909 477.875519,695.068909 486.739685,695.068909 
	C486.739685,703.531738 486.739685,711.936035 486.739685,720.700928 
	C512.504883,720.700928 537.887451,720.700928 563.634277,720.700928 
	C563.634277,729.571594 563.634277,738.087585 563.634277,746.993713 
	C529.690186,746.993713 495.782501,746.993713 461.437408,746.995728 
	C460.999969,746.997742 461.069946,747.069946 461.037415,746.597900 
	C461.026581,729.060547 461.048248,711.995300 461.069946,694.930054 
	C461.069946,694.930054 460.997681,695.000122 460.960999,695.034546 
z"/>
<path fill="#000000" opacity="1.000000" stroke="none" 
	d="
M152.034393,412.039062 
	C152.068802,403.606323 152.068802,395.136871 152.068802,386.005829 
	C186.125946,386.005829 220.128204,386.005829 254.603149,386.037292 
	C255.075836,386.068756 255.002426,385.999939 254.998749,386.437134 
	C254.995056,395.136169 254.995056,403.398041 254.995056,411.930054 
	C220.346939,411.930054 186.138489,411.930054 151.930054,411.930054 
	C151.930054,411.930054 152.000000,412.002380 152.034393,412.039062 
z"/>
<path fill="#000000" opacity="1.000000" stroke="none" 
	d="
M48.965904,462.956970 
	C48.931625,497.039642 48.931625,531.158997 48.931625,565.638672 
	C40.541992,565.638672 32.139652,565.638672 23.368351,565.638672 
	C23.368351,531.782654 23.368351,497.624939 23.368351,463.005432 
	C31.590368,463.005432 39.859406,463.005432 48.600906,463.033905 
	C49.073376,463.062378 49.000183,462.993652 48.965904,462.956970 
z"/>
<path fill="#000000" opacity="1.000000" stroke="none" 
	d="
M410.034027,77.042885 
	C410.068298,59.945797 410.068298,42.812046 410.068298,25.339718 
	C418.169617,25.339718 426.237305,25.339718 434.696167,25.339718 
	C434.696167,33.488976 434.696167,41.891079 434.696167,50.845268 
	C452.249908,50.845268 469.430115,50.845268 486.800446,50.845268 
	C486.800446,59.793682 486.800446,68.190125 486.800446,76.994560 
	C461.370361,76.994560 436.120941,76.994560 410.399048,76.966034 
	C409.926544,76.937515 409.999756,77.006226 410.034027,77.042885 
z"/>
<path fill="#000000" opacity="1.000000" stroke="none" 
	d="
M49.075825,360.068787 
	C49.075825,351.596588 49.075825,343.124420 49.075825,334.326752 
	C74.631203,334.326752 100.121368,334.326752 125.805908,334.326752 
	C125.805908,342.802460 125.805908,351.196503 125.805908,359.975555 
	C117.224205,359.975555 108.822243,359.975555 100.046188,359.975555 
	C100.046188,368.749481 100.046188,377.151398 100.046188,385.994171 
	C91.735916,385.994171 83.802719,385.994171 75.396851,385.962708 
	C74.924171,385.931213 74.997574,386.000031 75.001266,385.562866 
	C75.004951,376.764374 75.004951,368.403046 75.004951,359.930054 
	C65.822517,359.930054 57.376289,359.930054 48.966240,359.965027 
	C49.002422,359.999969 49.075825,360.068787 49.075825,360.068787 
z"/>
<path fill="#000000" opacity="1.000000" stroke="none" 
	d="
M719.033447,283.042542 
	C719.067688,265.954681 719.067688,248.830200 719.067688,231.353394 
	C727.469543,231.353394 735.866394,231.353394 744.631958,231.353394 
	C744.631958,248.220428 744.631958,265.383789 744.631958,282.994537 
	C736.398682,282.994537 728.134888,282.994537 719.398499,282.965851 
	C718.925903,282.937164 718.999146,283.005890 719.033447,283.042542 
z"/>
<path fill="#000000" opacity="1.000000" stroke="none" 
	d="
M254.965881,153.956955 
	C254.931595,171.044815 254.931595,188.169342 254.931595,205.646408 
	C246.531021,205.646408 238.134216,205.646408 229.368347,205.646408 
	C229.368347,188.779739 229.368347,171.616409 229.368347,154.005432 
	C237.600952,154.005432 245.864685,154.005432 254.600876,154.033875 
	C255.073334,154.062332 255.000153,153.993622 254.965881,153.956955 
z"/>
<path fill="#000000" opacity="1.000000" stroke="none" 
	d="
M384.039001,643.965454 
	C375.615814,643.931091 367.155975,643.931091 358.005829,643.931091 
	C358.005829,626.896545 358.005829,609.883118 358.037323,592.397034 
	C358.068817,591.924377 358.000000,591.997681 358.437134,592.001343 
	C367.272552,591.978027 375.670776,591.951111 384.036957,592.396851 
	C383.979950,609.936279 383.955017,627.003113 383.930054,644.069946 
	C383.930054,644.069946 384.002319,643.999878 384.039001,643.965454 
z"/>
<path fill="#000000" opacity="1.000000" stroke="none" 
	d="
M460.965546,746.961060 
	C460.931122,755.056213 460.931122,763.188049 460.931122,771.659424 
	C444.071014,771.659424 427.252991,771.659424 410.005829,771.659424 
	C410.005829,763.719849 410.005829,755.794800 410.037323,747.397034 
	C410.068817,746.924377 410.000000,746.997681 410.437164,747.001343 
	C427.606201,747.026611 444.338074,747.048279 461.069946,747.069946 
	C461.069946,747.069946 460.999969,746.997742 460.965546,746.961060 
z"/>
<path fill="#000000" opacity="1.000000" stroke="none" 
	d="
M384.042664,76.966225 
	C375.614838,76.931938 367.150360,76.931938 358.343506,76.931938 
	C358.343506,68.516655 358.343506,60.126797 358.343506,51.368187 
	C366.556152,51.368187 375.060425,51.368187 383.994537,51.368187 
	C383.994537,59.614449 383.994537,67.871567 383.965942,76.601196 
	C383.937317,77.073708 384.006012,77.000511 384.042664,76.966225 
z"/>
<path fill="#000000" opacity="1.000000" stroke="none" 
	d="
M185.066833,540.000916 
	C191.530365,540.000916 197.500687,540.000916 203.733185,540.000916 
	C203.733185,548.660706 203.733185,557.064087 203.733185,565.734375 
	C195.336899,565.734375 186.933548,565.734375 178.264496,565.734375 
	C178.264496,557.334534 178.264496,548.931213 178.264496,540.000916 
	C180.364456,540.000916 182.469040,540.000916 185.066833,540.000916 
z"/>
<path fill="#000000" opacity="1.000000" stroke="none" 
	d="
M281.062378,50.926624 
	C272.666565,50.948883 264.270721,50.971142 255.437500,50.993484 
	C255.000076,50.993572 255.073257,51.062286 255.073257,51.062286 
	C255.073257,42.606552 255.073257,34.150822 255.073257,25.348110 
	C263.588928,25.348110 272.085999,25.348110 280.993439,25.348110 
	C280.993439,33.625648 280.993439,41.875320 280.993530,50.562401 
	C280.993652,50.999817 281.062378,50.926624 281.062378,50.926624 
z"/>
<path fill="#000000" opacity="1.000000" stroke="none" 
	d="
M280.956970,51.034096 
	C289.466675,51.068375 298.013062,51.068375 307.007263,51.068375 
	C307.007263,59.548840 307.007263,67.753899 307.092773,76.382080 
	C307.178314,76.805214 307.251068,76.722885 307.251068,76.722885 
	C298.651794,76.722885 290.052521,76.722885 281.005432,76.722885 
	C281.005432,68.401192 281.005432,60.136375 281.033905,51.399094 
	C281.062378,50.926624 280.993652,50.999817 280.956970,51.034096 
z"/>
<path fill="#000000" opacity="1.000000" stroke="none" 
	d="
M254.965790,50.956909 
	C254.931503,59.384785 254.931503,67.849319 254.931503,76.656357 
	C246.516998,76.656357 238.127167,76.656357 229.368378,76.656357 
	C229.368378,68.443962 229.368378,59.939762 229.368378,51.005432 
	C237.614166,51.005432 245.871246,51.005432 254.600800,51.033859 
	C255.073257,51.062286 255.000076,50.993572 254.965790,50.956909 
z"/>
<path fill="#000000" opacity="1.000000" stroke="none" 
	d="
M204.039108,308.965637 
	C195.628143,308.931213 187.180481,308.931213 178.005844,308.931213 
	C178.005844,300.595245 178.005844,292.232391 178.037308,283.396851 
	C178.068771,282.924194 177.999969,282.997589 178.437134,283.001282 
	C187.235809,283.004944 195.597321,283.004944 203.930054,283.004944 
	C203.930054,292.177582 203.930054,300.623779 203.930054,309.069946 
	C203.930054,309.069946 204.002411,309.000031 204.039108,308.965637 
z"/>
<path fill="#000000" opacity="1.000000" stroke="none" 
	d="
M49.039124,385.965637 
	C40.617233,385.931213 32.158642,385.931213 23.350590,385.931213 
	C23.350590,377.414642 23.350590,368.916046 23.350590,360.005829 
	C31.627153,360.005829 39.878807,360.005829 48.603142,360.037292 
	C49.075825,360.068787 49.002422,359.999969 48.998734,360.437134 
	C48.973385,369.272858 48.951725,377.671387 48.930061,386.069946 
	C48.930061,386.069946 49.002422,386.000031 49.039124,385.965637 
z"/>
<path fill="#000000" opacity="1.000000" stroke="none" 
	d="
M486.965576,153.956757 
	C486.952271,162.323547 486.973236,170.727005 486.962708,179.603149 
	C486.931244,180.075836 487.000061,180.002426 486.562866,179.998749 
	C477.725189,180.019714 469.324677,180.044388 460.959412,179.597229 
	C461.019745,170.726944 461.044830,162.328506 461.069946,153.930054 
	C461.069946,153.930054 460.997620,153.999985 460.960907,154.034378 
	C469.325500,154.047653 477.726837,154.026535 486.600586,154.033783 
	C487.072998,154.062134 486.999847,153.993408 486.965576,153.956757 
z"/>
<path fill="#000000" opacity="1.000000" stroke="none" 
	d="
M331.966187,720.957336 
	C331.952423,729.321899 331.972961,737.723083 331.993774,746.561768 
	C331.994110,746.999146 332.062836,746.925903 332.062836,746.925903 
	C323.939697,746.925903 315.816589,746.925903 307.347260,746.925903 
	C307.347260,738.409607 307.347260,729.913391 307.347260,721.005432 
	C315.293640,721.005432 323.211151,721.005432 331.601135,721.034058 
	C332.073669,721.062683 332.000488,720.994019 331.966187,720.957336 
z"/>
<path fill="#000000" opacity="1.000000" stroke="none" 
	d="
M744.956909,721.034119 
	C753.051880,721.068420 761.183472,721.068420 769.656982,721.068420 
	C769.656982,729.483826 769.656982,737.873230 769.656982,746.631653 
	C761.777161,746.631653 753.606384,746.631653 745.005371,746.631653 
	C745.005371,738.385071 745.005371,730.128418 745.033813,721.399170 
	C745.062317,720.926697 744.993591,720.999817 744.956909,721.034119 
z"/>
<path fill="#000000" opacity="1.000000" stroke="none" 
	d="
M331.957458,747.033447 
	C340.384918,747.067688 348.849030,747.067688 357.656006,747.067688 
	C357.656006,755.148743 357.656006,763.205933 357.656006,771.631958 
	C349.444305,771.631958 340.940765,771.631958 332.005463,771.631958 
	C332.005463,763.719727 332.005463,755.795410 332.034149,747.398499 
	C332.062836,746.925903 331.994110,746.999146 331.957458,747.033447 
z"/>
<path fill="#000000" opacity="1.000000" stroke="none" 
	d="
M593.165283,747.001099 
	C600.947571,747.000977 608.242859,747.000977 615.766174,747.000977 
	C615.766174,755.396484 615.766174,763.466370 615.766174,771.768555 
	C607.265442,771.768555 598.862305,771.768555 590.002563,771.768555 
	C590.002563,764.225281 589.921448,756.777710 590.119873,749.337524 
	C590.141174,748.536621 591.786438,747.778992 593.165283,747.001099 
z"/>
<path fill="#000000" opacity="1.000000" stroke="none" 
	d="
M745.033447,489.042542 
	C745.067688,480.615082 745.067688,472.150970 745.067688,463.343994 
	C753.148743,463.343994 761.205933,463.343994 769.631958,463.343994 
	C769.631958,471.555695 769.631958,480.059235 769.631958,488.994537 
	C761.719727,488.994537 753.795410,488.994537 745.398499,488.965851 
	C744.925903,488.937164 744.999146,489.005890 745.033447,489.042542 
z"/>
<path fill="#000000" opacity="1.000000" stroke="none" 
	d="
M538.043274,50.965851 
	C529.948303,50.931568 521.816650,50.931568 513.343018,50.931568 
	C513.343018,42.516262 513.343018,34.126831 513.343018,25.368423 
	C521.222717,25.368423 529.394043,25.368423 537.994629,25.368423 
	C537.994629,33.614967 537.994629,41.871681 537.966248,50.600857 
	C537.937866,51.073318 538.006592,51.000134 538.043274,50.965851 
z"/>
<path fill="#000000" opacity="1.000000" stroke="none" 
	d="
M307.034363,231.039108 
	C307.047791,223.007050 307.026794,214.938293 307.037292,206.396851 
	C307.068756,205.924164 306.999939,205.997574 307.437134,206.001251 
	C315.939514,206.026611 324.004730,206.048279 332.069946,206.069946 
	C332.069946,206.069946 332.000000,206.000000 331.997528,206.437134 
	C331.973389,214.939499 331.951721,223.004730 331.930054,231.069946 
	C331.930054,231.069946 332.000000,231.000000 331.562866,230.997528 
	C323.060486,230.973389 314.995270,230.951721 306.930054,230.930054 
	C306.930054,230.930054 306.999969,231.002411 307.034363,231.039108 
z"/>
<path fill="#000000" opacity="1.000000" stroke="none" 
	d="
M756.013062,309.000977 
	C760.818054,309.000977 765.126953,309.000977 769.715698,309.000977 
	C769.715698,317.290131 769.715698,325.360229 769.715698,333.716278 
	C761.708496,333.716278 753.638428,333.716278 745.283081,333.716278 
	C745.283081,325.707031 745.283081,317.636871 745.283081,309.000977 
	C748.642090,309.000977 752.079468,309.000977 756.013062,309.000977 
z"/>
<path fill="#000000" opacity="1.000000" stroke="none" 
	d="
M307.034363,102.039124 
	C307.052429,93.955681 307.036102,85.835541 307.135406,77.219139 
	C307.251068,76.722885 307.178314,76.805214 307.147522,76.839996 
	C315.189178,76.874786 323.261566,76.874786 331.994171,76.874786 
	C331.994171,85.117508 331.994171,93.123985 331.962708,101.603149 
	C331.931213,102.075829 332.000031,102.002426 331.562866,101.998734 
	C323.060486,101.973389 314.995270,101.951721 306.930054,101.930061 
	C306.930054,101.930061 306.999969,102.002426 307.034363,102.039124 
z"/>
<path fill="#000000" opacity="1.000000" stroke="none" 
	d="
M744.960938,515.034302 
	C753.049561,515.068726 761.174805,515.068726 769.649536,515.068726 
	C769.649536,523.251709 769.649536,531.416992 769.649536,539.994141 
	C761.706421,539.994141 753.788025,539.994141 745.396973,539.962708 
	C744.924255,539.931274 744.997559,540.000061 745.001221,539.562866 
	C745.026611,531.060486 745.048279,522.995300 745.069946,514.930054 
	C745.069946,514.930054 744.997620,514.999939 744.960938,515.034302 
z"/>
<path fill="#FFFFFF" opacity="1.000000" stroke="none" 
	d="
M384.069031,591.924194 
	C375.670776,591.951111 367.272552,591.978027 358.402161,592.037476 
	C357.930054,574.851501 357.930054,557.633057 357.930054,539.994629 
	C349.378448,539.994629 341.126495,539.994629 332.437195,539.996216 
	C331.999817,539.997742 332.069946,540.069946 332.037415,539.597900 
	C332.004913,531.097473 332.004913,523.069153 332.004913,514.930054 
	C323.155853,514.930054 315.042969,514.930054 306.966217,514.965088 
	C307.002380,515.000061 307.075836,515.069031 307.075836,515.069031 
	C307.075836,497.934875 307.075836,480.800751 307.075836,463.333466 
	C298.486237,463.333466 290.085022,463.333466 281.291992,463.333466 
	C281.291992,471.496979 281.291992,479.901703 281.291992,488.652039 
	C263.852753,488.652039 246.794388,488.652039 229.180634,488.652039 
	C229.180634,471.773438 229.180634,454.592468 229.180634,437.004944 
	C203.376968,437.004944 178.125626,437.004944 152.402176,437.037445 
	C151.951721,429.004730 151.973389,420.939514 151.962555,412.402161 
	C186.138489,411.930054 220.346939,411.930054 254.995056,411.930054 
	C254.995056,403.398041 254.995056,395.136169 254.962555,386.402161 
	C263.402466,385.930054 271.874878,385.930054 280.841827,385.930054 
	C280.841827,343.061127 280.841827,300.257690 280.841827,256.995056 
	C289.594421,256.995056 297.860077,256.995056 306.597839,256.962555 
	C307.069946,282.411957 307.069946,307.893860 307.069946,333.687775 
	C323.902313,333.687775 340.641144,333.687775 357.782043,333.687775 
	C357.782043,325.764221 357.782043,317.685181 357.782043,309.305511 
	C366.579590,309.305511 374.986542,309.305511 383.796173,309.305511 
	C383.796173,325.922119 383.796173,342.663788 383.796173,359.701202 
	C400.929749,359.701202 417.668274,359.701202 434.704193,359.701202 
	C434.704193,351.400055 434.704193,342.993683 434.704193,334.183716 
	C426.729095,334.183716 418.649719,334.183716 410.288391,334.183716 
	C410.288391,325.718201 410.288391,317.645264 410.288391,309.170227 
	C435.624878,309.170227 461.031189,309.170227 486.717651,309.170227 
	C486.717651,300.372101 486.717651,291.966156 486.717651,283.156860 
	C478.367584,283.156860 469.955322,283.156860 461.274963,283.156860 
	C461.274963,274.357025 461.274963,265.951263 461.274963,257.142059 
	C469.649109,257.142059 478.059875,257.142059 486.865356,257.142059 
	C486.865356,248.342514 486.865356,239.932587 486.865356,231.263855 
	C504.001038,231.263855 520.738953,231.263855 537.739136,231.263855 
	C537.739136,239.672302 537.739136,248.077896 537.739136,256.886108 
	C529.656738,256.886108 521.577759,256.886108 513.253418,256.886108 
	C513.253418,282.688995 513.253418,308.092896 513.253418,333.895874 
	C547.359131,333.895874 581.431030,333.895874 615.900391,333.895874 
	C615.900391,351.361389 615.900391,368.436340 615.900391,385.906372 
	C633.034058,385.906372 649.775757,385.906372 667.004944,385.906372 
	C667.004944,394.573853 667.004944,402.849792 667.037476,411.597839 
	C624.198486,412.069946 581.327087,412.069946 537.994812,412.069946 
	C537.994812,403.407562 537.994812,395.144043 538.433228,386.438049 
	C555.787720,385.995514 572.703796,385.995514 589.632690,385.995514 
	C589.632690,377.073822 589.632690,368.562592 589.632690,360.332642 
	C572.216492,360.332642 555.168396,360.332642 538.068604,360.332642 
	C538.068604,369.136597 538.068604,377.608154 538.068604,386.079712 
	C529.922729,386.079712 521.776917,386.079712 513.237183,386.079712 
	C513.237183,377.448639 513.237183,369.040100 513.237183,360.317963 
	C504.450409,360.317963 496.046509,360.317963 487.245117,360.317963 
	C487.245117,368.543243 487.245117,376.951813 487.245117,386.020111 
	C444.130463,386.020111 401.407410,386.020111 358.332642,385.653442 
	C357.980957,376.885620 357.980957,368.484497 357.980957,360.331909 
	C348.909027,360.331909 340.512177,360.331909 332.068542,360.331909 
	C332.068542,369.135590 332.068542,377.607605 331.596863,386.042633 
	C323.201263,386.005615 315.277344,386.005615 307.336670,386.005615 
	C307.336670,403.251038 307.336670,420.067535 307.336670,436.926666 
	C315.802917,436.926666 323.932709,436.926666 332.033508,437.399109 
	C332.004486,446.129150 332.004486,454.386719 332.004486,462.632690 
	C340.939606,462.632690 349.444397,462.632690 357.657593,462.632690 
	C357.657593,453.873383 357.657593,445.482971 357.657593,437.068542 
	C348.850342,437.068542 340.385345,437.068542 331.957367,436.596863 
	C331.971802,419.395966 331.949219,402.666718 332.399109,385.966492 
	C341.207947,386.039459 349.544342,386.083435 357.880737,386.127411 
	C357.880737,394.590485 357.880737,403.053589 357.880737,411.908661 
	C392.372986,411.908661 426.442902,411.908661 460.908752,411.908661 
	C460.908752,429.036987 460.908752,445.777679 460.908752,463.005341 
	C469.574341,463.005341 477.849854,463.005341 486.562744,463.003876 
	C487.000122,463.002411 486.930054,462.930054 486.962585,463.402130 
	C486.973419,472.272797 486.951721,480.671356 486.965027,489.034973 
	C487.000000,489.000000 487.069946,488.930054 486.597839,488.962585 
	C469.195801,488.995087 452.265808,488.995087 434.956482,488.995087 
	C434.956482,471.487640 434.956482,454.424103 434.956482,437.200317 
	C417.846161,437.200317 401.119385,437.200317 383.832977,437.200317 
	C383.832977,454.577789 383.832977,471.763336 383.832977,489.325806 
	C374.867859,489.325806 366.461121,489.325806 358.354614,489.325806 
	C358.354614,498.124359 358.354614,506.528687 358.354614,515.069946 
	C401.496094,515.069946 444.283020,515.069946 487.033783,515.034912 
	C486.997620,514.999939 486.924164,514.930969 486.924164,514.930969 
	C486.924164,523.074585 486.924164,531.218201 486.924164,539.752808 
	C478.457458,539.752808 470.051361,539.752808 461.324646,539.752808 
	C461.324646,548.533264 461.324646,556.935364 461.324646,565.669983 
	C478.186951,565.669983 495.247589,565.669983 512.700684,565.669983 
	C512.700684,557.511292 512.700684,549.105103 512.700684,540.350708 
	C521.145447,540.350708 529.216003,540.350708 537.644287,540.350708 
	C537.644287,557.254822 537.644287,574.431824 537.644287,592.002869 
	C529.533997,592.002869 521.460083,592.002869 513.007446,592.002869 
	C513.007446,600.789856 513.007446,609.195679 513.007446,617.795166 
	C504.218048,617.795166 495.819427,617.795166 487.028900,617.795166 
	C487.028900,609.233154 487.028900,600.826538 487.028900,591.994629 
	C461.384796,591.994629 436.129669,591.994629 410.437164,591.996216 
	C409.999786,591.997742 410.069946,592.069946 410.037415,591.597900 
	C409.978821,582.729614 409.952728,574.333496 410.399109,565.966431 
	C418.796295,565.995544 426.721069,565.995544 434.632751,565.995544 
	C434.632751,557.059631 434.632751,548.555176 434.632751,540.342896 
	C426.206085,540.342896 418.148285,540.342896 410.068542,540.342896 
	C410.068542,549.150330 410.068542,557.614868 409.596863,566.042542 
	C400.763763,566.005615 392.402344,566.005615 383.930054,566.005615 
	C383.930054,575.177612 383.930054,583.623779 383.965088,592.033813 
	C384.000122,591.997620 384.069031,591.924194 384.069031,591.924194 
z"/>
<path fill="#FFFFFF" opacity="1.000000" stroke="none" 
	d="
M460.597839,153.962555 
	C461.044830,162.328506 461.019745,170.726944 460.996155,179.562744 
	C460.997620,180.000107 461.069946,179.930054 460.597839,179.962555 
	C451.874939,179.995056 443.624084,179.995056 435.348633,179.995056 
	C435.348633,188.915802 435.348633,197.414139 435.348633,206.069946 
	C444.154602,206.069946 452.612274,206.069946 461.033752,206.034943 
	C460.997559,205.999939 460.924133,205.931015 460.924133,205.931015 
	C460.924133,214.065735 460.924133,222.200455 460.924133,230.667480 
	C435.398315,230.667480 409.922363,230.667480 384.005341,230.667480 
	C384.005341,222.731262 384.005341,214.802948 384.003845,206.437256 
	C384.002380,205.999893 383.930054,206.069946 384.402161,206.037445 
	C393.125061,206.004944 401.375916,206.004944 409.651367,206.004944 
	C409.651367,197.084198 409.651367,188.585861 409.651367,179.930054 
	C400.845398,179.930054 392.387726,179.930054 383.966248,179.965057 
	C384.002441,180.000061 384.075867,180.068985 384.075867,180.068985 
	C384.075867,171.596436 384.075867,163.123901 384.075867,154.266998 
	C375.475555,154.266998 367.074036,154.266998 358.337738,154.266998 
	C358.337738,145.498184 358.337738,137.099594 358.337738,128.349457 
	C383.582489,128.349457 409.073456,128.349457 434.951080,128.349457 
	C434.951080,136.748566 434.951080,145.150620 434.951080,153.995056 
	C443.594177,153.995056 451.859985,153.995056 460.597839,153.962555 
z"/>
<path fill="#FFFFFF" opacity="1.000000" stroke="none" 
	d="
M608.931335,283.000000 
	C611.407532,283.000000 613.391846,283.000000 615.687622,283.000000 
	C615.687622,291.565918 615.687622,299.972351 615.687622,308.690857 
	C590.092102,308.690857 564.355774,308.690857 538.309204,308.690857 
	C538.309204,300.428772 538.309204,292.022125 538.309204,283.000000 
	C561.596863,283.000000 585.018188,283.000000 608.931335,283.000000 
z"/>
<path fill="#FFFFFF" opacity="1.000000" stroke="none" 
	d="
M331.746216,257.279724 
	C349.001038,257.279724 366.255829,257.279724 383.755249,257.279724 
	C383.755249,265.695099 383.755249,274.089142 383.755249,282.742615 
	C366.674866,282.742615 349.625458,282.742615 331.991608,282.742615 
	C331.991608,274.543549 331.991608,266.293182 331.905457,257.619995 
	C331.819305,257.197174 331.746216,257.279724 331.746216,257.279724 
z"/>
<path fill="#FFFFFF" opacity="1.000000" stroke="none" 
	d="
M460.960876,180.034576 
	C469.324677,180.044388 477.725189,180.019714 486.597839,179.962555 
	C487.069946,188.376862 487.069946,196.823669 487.069946,205.995102 
	C478.594482,205.995102 470.231934,205.995102 461.396790,205.963058 
	C460.924133,205.931015 460.997559,205.999939 461.001251,205.562836 
	C461.026611,196.727158 461.048279,188.328613 461.069946,179.930054 
	C461.069946,179.930054 460.997620,180.000107 460.960876,180.034576 
z"/>
<path fill="#FFFFFF" opacity="1.000000" stroke="none" 
	d="
M358.402130,206.037445 
	C357.930054,197.623138 357.930054,189.176331 357.930054,180.004898 
	C366.405518,180.004898 374.768066,180.004898 383.603210,180.036942 
	C384.075867,180.068985 384.002441,180.000061 383.998749,180.437164 
	C383.973389,189.272842 383.951721,197.671387 383.930054,206.069946 
	C383.930054,206.069946 384.002380,205.999893 384.039124,205.965439 
	C375.675293,205.955643 367.274750,205.980301 358.402130,206.037445 
z"/>
<path fill="#FFFFFF" opacity="1.000000" stroke="none" 
	d="
M306.962555,231.402130 
	C314.995270,230.951721 323.060486,230.973389 331.597809,230.962555 
	C332.040283,239.382294 332.010620,247.834534 331.863586,256.783264 
	C331.746216,257.279724 331.819305,257.197174 331.850037,257.162292 
	C323.878601,257.086578 315.876434,257.045776 307.402161,257.037445 
	C306.951721,248.671371 306.973389,240.272781 306.962555,231.402130 
z"/>
<path fill="#FFFFFF" opacity="1.000000" stroke="none" 
	d="
M332.402161,231.037445 
	C331.951721,223.004730 331.973389,214.939499 331.962555,206.402176 
	C340.328613,205.951736 348.727142,205.973404 357.597839,205.962555 
	C358.069946,214.043716 358.069946,222.157379 358.069946,231.004944 
	C349.595337,231.004944 341.234772,231.004944 332.402161,231.037445 
z"/>
<path fill="#FFFFFF" opacity="1.000000" stroke="none" 
	d="
M642.000000,290.068146 
	C642.000000,287.592316 642.000000,285.608276 642.000000,283.312622 
	C650.231140,283.312622 658.303223,283.312622 666.689209,283.312622 
	C666.689209,291.567200 666.689209,299.972534 666.689209,308.690552 
	C658.763916,308.690552 650.691528,308.690552 642.000000,308.690552 
	C642.000000,302.747650 642.000000,296.653809 642.000000,290.068146 
z"/>
<path fill="#FFFFFF" opacity="1.000000" stroke="none" 
	d="
M487.034607,463.039124 
	C487.069061,454.601654 487.069061,446.127502 487.069061,437.326813 
	C521.288452,437.326813 555.438782,437.326813 589.961670,437.326813 
	C589.961670,454.433380 589.961670,471.488922 589.961670,488.995056 
	C598.592041,488.995056 606.858887,488.995056 615.597839,488.962555 
	C616.069946,497.401428 616.069946,505.872803 616.069946,514.995117 
	C573.200623,514.995117 530.535034,514.995117 487.396790,514.963013 
	C486.924164,514.930969 486.997620,514.999939 487.001282,514.562866 
	C487.026611,505.727173 487.048279,497.328613 487.069946,488.930054 
	C487.069946,488.930054 487.000000,489.000000 487.437164,489.002472 
	C504.451965,489.004944 521.029602,489.004944 537.643799,489.004944 
	C537.643799,480.089447 537.643799,471.580780 537.643799,462.930054 
	C520.501831,462.930054 503.715942,462.930054 486.930054,462.930054 
	C486.930054,462.930054 487.000122,463.002411 487.034607,463.039124 
z"/>
<path fill="#FFFFFF" opacity="1.000000" stroke="none" 
	d="
M622.999512,566.000000 
	C629.476562,566.000000 635.453674,566.000000 641.714233,566.000000 
	C641.714233,591.955383 641.714233,617.691406 641.714233,643.714233 
	C616.044617,643.714233 590.308594,643.714233 564.285767,643.714233 
	C564.285767,618.044617 564.285767,592.308594 564.285767,566.000000 
	C583.644104,566.000000 603.071838,566.000000 622.999512,566.000000 
M605.481689,618.000000 
	C608.919556,618.000000 612.357361,618.000000 615.718628,618.000000 
	C615.718628,609.031555 615.718628,600.627686 615.718628,592.281860 
	C607.030518,592.281860 598.626709,592.281860 590.282349,592.281860 
	C590.282349,600.970459 590.282349,609.374329 590.282349,618.000000 
	C595.204346,618.000000 599.846008,618.000000 605.481689,618.000000 
z"/>
<path fill="#FFFFFF" opacity="1.000000" stroke="none" 
	d="
M461.037415,746.597900 
	C444.338074,747.048279 427.606201,747.026611 410.402191,747.037476 
	C409.930054,721.175598 409.930054,695.281189 409.930054,669.194458 
	C418.463226,669.194458 426.522217,669.194458 434.962524,669.194458 
	C434.962524,677.761719 434.962524,686.161133 434.962524,694.995056 
	C443.599152,694.995056 451.862427,694.995056 460.597809,694.962524 
	C461.048248,711.995300 461.026581,729.060547 461.037415,746.597900 
z"/>
<path fill="#FFFFFF" opacity="1.000000" stroke="none" 
	d="
M384.402161,644.037476 
	C383.955017,627.003113 383.979950,609.936279 384.036957,592.396851 
	C384.069031,591.924194 384.000122,591.997620 384.437195,592.001343 
	C393.272858,592.026672 401.671387,592.048340 410.069946,592.069946 
	C410.069946,592.069946 409.999786,591.997742 409.965332,591.961060 
	C409.930878,600.397095 409.930878,608.869812 409.930878,617.709717 
	C426.845734,617.709717 443.565338,617.709717 460.641937,617.709717 
	C460.641937,626.581543 460.641937,635.094482 460.641937,644.004944 
	C435.355865,644.004944 410.115051,644.004944 384.402161,644.037476 
z"/>
<path fill="#FFFFFF" opacity="1.000000" stroke="none" 
	d="
M744.597900,514.962524 
	C745.048279,522.995300 745.026611,531.060486 745.037476,539.597839 
	C719.191589,540.069946 693.313293,540.069946 666.995056,540.069946 
	C666.995056,531.725464 666.995056,523.799866 666.962524,515.402161 
	C692.661987,514.951721 718.393860,514.973389 744.597900,514.962524 
z"/>
<path fill="#FFFFFF" opacity="1.000000" stroke="none" 
	d="
M719.050293,591.972656 
	C701.960083,591.938477 684.833191,591.938477 667.353210,591.938477 
	C667.353210,583.532532 667.353210,575.134888 667.353210,566.367798 
	C684.220459,566.367798 701.385254,566.367798 718.996033,566.367798 
	C718.996033,574.603149 718.996033,582.868103 718.970581,591.606506 
	C718.945129,592.079895 719.013672,592.006836 719.050293,591.972656 
z"/>
<path fill="#FFFFFF" opacity="1.000000" stroke="none" 
	d="
M590.027344,695.050293 
	C590.061523,686.620422 590.061523,678.153870 590.061523,669.343750 
	C598.480652,669.343750 606.871704,669.343750 615.632202,669.343750 
	C615.632202,677.555908 615.632202,686.061218 615.632202,694.996033 
	C607.384277,694.996033 599.125610,694.996033 590.393494,694.970581 
	C589.920105,694.945129 589.993164,695.013672 590.027344,695.050293 
z"/>
<path fill="#FFFFFF" opacity="1.000000" stroke="none" 
	d="
M641.962524,489.402130 
	C650.043701,488.930054 658.157349,488.930054 667.005005,488.930054 
	C667.005005,497.404633 667.005005,505.765198 667.037476,514.597839 
	C658.956299,515.069946 650.842651,515.069946 641.995056,515.069946 
	C641.995056,506.595337 641.995056,498.234772 641.962524,489.402130 
z"/>
<path fill="#FCFCFC" opacity="1.000000" stroke="none" 
	d="
M744.929871,154.000015 
	C744.929871,162.782578 744.929871,171.065140 744.929871,179.586990 
	C701.878784,179.586990 659.303284,179.586990 616.363037,179.586990 
	C616.363037,136.956177 616.363037,94.261360 616.363037,51.282181 
	C658.937500,51.282181 701.649231,51.282181 744.929871,51.282181 
	C744.929871,85.344276 744.929871,119.422150 744.929871,154.000015 
M641.564697,108.499817 
	C641.564697,123.570656 641.564697,138.641495 641.564697,153.638885 
	C667.670044,153.638885 693.201355,153.638885 718.601318,153.638885 
	C718.601318,127.873199 718.601318,102.468987 718.601318,77.174850 
	C692.772705,77.174850 667.232605,77.174850 641.564575,77.174850 
	C641.564575,87.524490 641.564575,97.512146 641.564697,108.499817 
z"/>
<path fill="#FCFCFC" opacity="1.000000" stroke="none" 
	d="
M83.000000,50.997169 
	C114.810181,50.997169 146.120361,50.997169 177.716431,50.997169 
	C177.716431,93.937691 177.716431,136.656387 177.716431,179.605927 
	C134.989029,179.605927 92.397095,179.605927 49.484238,179.605927 
	C49.484238,136.961639 49.484238,94.375221 49.484238,50.997169 
	C60.349815,50.997169 71.424911,50.997169 83.000000,50.997169 
M112.500069,76.814224 
	C100.067970,76.814224 87.635880,76.814224 75.132133,76.814224 
	C75.132133,102.777130 75.132133,128.277634 75.132133,153.783234 
	C100.845306,153.783234 126.239967,153.783234 151.702866,153.783234 
	C151.702866,128.039993 151.702866,102.512825 151.702866,76.814224 
	C138.772079,76.814224 126.136078,76.814224 112.500069,76.814224 
z"/>
<path fill="#FCFCFC" opacity="1.000000" stroke="none" 
	d="
M51.248009,617.837036 
	C93.677979,617.827148 135.629105,617.827148 177.792267,617.827148 
	C177.792267,660.817566 177.792267,703.431091 177.792267,746.376099 
	C135.091064,746.376099 92.376114,746.376099 49.160194,746.376099 
	C49.160194,744.613342 49.160187,742.996521 49.160191,741.379639 
	C49.160191,701.881958 49.140419,662.384216 49.228291,622.886719 
	C49.232033,621.205688 50.232834,619.526794 51.248009,617.837036 
M151.997986,655.510254 
	C151.997986,651.572327 151.997986,647.634399 151.997986,643.830627 
	C125.996277,643.830627 100.591629,643.830627 75.159904,643.830627 
	C75.159904,669.612183 75.159904,695.129028 75.159904,720.618896 
	C100.897018,720.618896 126.287880,720.618896 151.997986,720.618896 
	C151.997986,699.070740 151.997986,677.788513 151.997986,655.510254 
z"/>
<path fill="#FFFFFF" opacity="1.000000" stroke="none" 
	d="
M75.402130,463.037445 
	C74.930061,454.605072 74.930061,446.140198 74.930061,436.995056 
	C100.449760,436.995056 125.787727,436.995056 151.597824,436.962555 
	C152.069946,445.404877 152.069946,453.879700 152.069946,462.729431 
	C169.196533,462.729431 186.254547,462.729431 203.655579,462.729431 
	C203.655579,471.490051 203.655579,479.891144 203.655579,488.647156 
	C178.084641,488.647156 152.254028,488.647156 126.033493,488.647156 
	C126.033493,480.236725 126.033493,471.832306 126.033493,463.004944 
	C109.057396,463.004944 92.465797,463.004944 75.402130,463.037445 
z"/>
<path fill="#FFFFFF" opacity="1.000000" stroke="none" 
	d="
M307.069031,539.924194 
	C290.004120,539.951111 272.939209,539.978027 255.402176,540.037476 
	C254.930054,531.943420 254.930054,523.816895 254.930054,515.004883 
	C272.105804,515.004883 289.118195,515.004883 306.603210,515.036987 
	C307.075836,515.069031 307.002380,515.000061 306.998718,515.437134 
	C306.973419,523.939514 306.951721,532.004700 306.965088,540.033813 
	C307.000122,539.997620 307.069031,539.924194 307.069031,539.924194 
z"/>
<path fill="#FFFFFF" opacity="1.000000" stroke="none" 
	d="
M255.027527,618.050598 
	C255.061722,609.620728 255.061722,601.154175 255.061722,592.343872 
	C263.480469,592.343872 271.871490,592.343872 280.632050,592.343872 
	C280.632050,600.555908 280.632050,609.061157 280.632050,617.996033 
	C272.384399,617.996033 264.125702,617.996033 255.393646,617.970703 
	C254.920258,617.945374 254.993347,618.013977 255.027527,618.050598 
z"/>
<path fill="#FFFFFF" opacity="1.000000" stroke="none" 
	d="
M331.965332,539.961060 
	C331.930878,548.382996 331.930878,556.841614 331.930878,565.650146 
	C323.748840,565.650146 315.582672,565.650146 307.004883,565.650146 
	C307.004883,557.372986 307.004883,549.121216 307.036957,540.396851 
	C307.069031,539.924194 307.000122,539.997620 307.437195,540.001343 
	C315.939514,540.026672 324.004730,540.048340 332.069946,540.069946 
	C332.069946,540.069946 331.999817,539.997742 331.965332,539.961060 
z"/>
<path fill="#FFFFFF" opacity="1.000000" stroke="none" 
	d="
M306.962555,102.402130 
	C314.995270,101.951721 323.060486,101.973389 331.597839,101.962555 
	C332.069946,119.048912 332.069946,136.167770 332.069946,153.643219 
	C323.753082,153.643219 315.577393,153.643219 306.995056,153.643219 
	C306.995056,136.695343 306.995056,119.784767 306.962555,102.402130 
z"/>
<path fill="#FFFFFF" opacity="1.000000" stroke="none" 
	d="
M332.037415,205.597870 
	C324.004730,206.048279 315.939514,206.026611 307.402161,206.037445 
	C306.930054,197.612610 306.930054,189.155289 306.930054,180.349121 
	C315.251892,180.349121 323.417572,180.349121 332.004913,180.349121 
	C332.004913,188.624786 332.004913,196.875290 332.037415,205.597870 
z"/>
<path fill="#FFFFFF" opacity="1.000000" stroke="none" 
	d="
M204.402130,309.037415 
	C203.930054,300.623779 203.930054,292.177582 203.930054,283.004944 
	C195.597321,283.004944 187.235809,283.004944 178.402176,283.037445 
	C177.951721,274.671387 177.973389,266.272858 177.962555,257.402161 
	C194.715942,256.930054 211.501816,256.930054 228.643768,256.930054 
	C228.643768,274.234833 228.643768,291.393707 228.643768,309.004913 
	C220.731171,309.004913 212.802689,309.004913 204.402130,309.037415 
z"/>
<path fill="#FFFFFF" opacity="1.000000" stroke="none" 
	d="
M512.949707,102.027489 
	C521.046570,102.061699 529.180115,102.061699 537.656738,102.061699 
	C537.656738,110.481392 537.656738,118.872032 537.656738,127.632126 
	C529.777405,127.632126 521.605042,127.632126 513.003967,127.632126 
	C513.003967,119.383583 513.003967,111.125282 513.029419,102.393600 
	C513.054871,101.920219 512.986328,101.993279 512.949707,102.027489 
z"/>
<path fill="#FFFFFF" opacity="1.000000" stroke="none" 
	d="
M49.402130,386.037445 
	C48.951725,377.671387 48.973385,369.272858 48.962555,360.402161 
	C57.376289,359.930054 65.822517,359.930054 75.004951,359.930054 
	C75.004951,368.403046 75.004951,376.764374 75.037445,385.597839 
	C66.671356,386.048279 58.272781,386.026611 49.402130,386.037445 
z"/>
<path fill="#000000" opacity="1.000000" stroke="none" 
	d="
M486.597839,488.962585 
	C487.048279,497.328613 487.026611,505.727173 487.037445,514.597839 
	C444.283020,515.069946 401.496094,515.069946 358.354614,515.069946 
	C358.354614,506.528687 358.354614,498.124359 358.354614,489.325806 
	C366.461121,489.325806 374.867859,489.325806 383.832977,489.325806 
	C383.832977,471.763336 383.832977,454.577789 383.832977,437.200317 
	C401.119385,437.200317 417.846161,437.200317 434.956482,437.200317 
	C434.956482,454.424103 434.956482,471.487640 434.956482,488.995087 
	C452.265808,488.995087 469.195801,488.995087 486.597839,488.962585 
z"/>
<path fill="#000000" opacity="1.000000" stroke="none" 
	d="
M538.034302,386.043030 
	C538.068604,377.608154 538.068604,369.136597 538.068604,360.332642 
	C555.168396,360.332642 572.216492,360.332642 589.632690,360.332642 
	C589.632690,368.562592 589.632690,377.073822 589.632690,385.995514 
	C572.703796,385.995514 555.787720,385.995514 538.399170,385.966522 
	C537.926758,385.937531 537.999939,386.006348 538.034302,386.043030 
z"/>
<path fill="#000000" opacity="1.000000" stroke="none" 
	d="
M486.962585,463.402130 
	C503.715942,462.930054 520.501831,462.930054 537.643799,462.930054 
	C537.643799,471.580780 537.643799,480.089447 537.643799,489.004944 
	C521.029602,489.004944 504.451965,489.004944 487.402191,489.037445 
	C486.951721,480.671356 486.973419,472.272797 486.962585,463.402130 
z"/>
<path fill="#000000" opacity="1.000000" stroke="none" 
	d="
M331.926666,385.937500 
	C331.949219,402.666718 331.971802,419.395966 331.994019,436.562531 
	C331.993683,436.999878 332.062500,436.926666 332.062500,436.926666 
	C323.932709,436.926666 315.802917,436.926666 307.336670,436.926666 
	C307.336670,420.067535 307.336670,403.251038 307.336670,386.005615 
	C315.277344,386.005615 323.201263,386.005615 331.562531,386.005981 
	C331.999878,386.006317 331.926666,385.937500 331.926666,385.937500 
z"/>
<path fill="#000000" opacity="1.000000" stroke="none" 
	d="
M410.037415,591.597900 
	C401.671387,592.048340 393.272858,592.026672 384.402161,592.037476 
	C383.930054,583.623779 383.930054,575.177612 383.930054,566.005615 
	C392.402344,566.005615 400.763763,566.005615 409.562561,566.005859 
	C409.999908,566.006165 409.926666,565.937317 409.926666,565.937317 
	C409.952728,574.333496 409.978821,582.729614 410.037415,591.597900 
z"/>
<path fill="#000000" opacity="1.000000" stroke="none" 
	d="
M331.957031,437.034210 
	C340.385345,437.068542 348.850342,437.068542 357.657593,437.068542 
	C357.657593,445.482971 357.657593,453.873383 357.657593,462.632690 
	C349.444397,462.632690 340.939606,462.632690 332.004486,462.632690 
	C332.004486,454.386719 332.004486,446.129150 332.033508,437.399109 
	C332.062500,436.926666 331.993683,436.999878 331.957031,437.034210 
z"/>
<path fill="#000000" opacity="1.000000" stroke="none" 
	d="
M332.034210,386.042969 
	C332.068542,377.607605 332.068542,369.135590 332.068542,360.331909 
	C340.512177,360.331909 348.909027,360.331909 357.980957,360.331909 
	C357.980957,368.484497 357.980957,376.885620 357.863586,385.783264 
	C357.746216,386.279724 357.819305,386.197174 357.850037,386.162292 
	C349.544342,386.083435 341.207947,386.039459 332.399109,385.966492 
	C331.926666,385.937500 331.999878,386.006317 332.034210,386.042969 
z"/>
<path fill="#000000" opacity="1.000000" stroke="none" 
	d="
M410.034241,566.042847 
	C410.068542,557.614868 410.068542,549.150330 410.068542,540.342896 
	C418.148285,540.342896 426.206085,540.342896 434.632751,540.342896 
	C434.632751,548.555176 434.632751,557.059631 434.632751,565.995544 
	C426.721069,565.995544 418.796295,565.995544 410.399109,565.966431 
	C409.926666,565.937317 409.999908,566.006165 410.034241,566.042847 
z"/>
<path fill="#000000" opacity="1.000000" stroke="none" 
	d="
M332.037415,539.597900 
	C324.004730,540.048340 315.939514,540.026672 307.402161,540.037476 
	C306.951721,532.004700 306.973419,523.939514 306.962585,515.402161 
	C315.042969,514.930054 323.155853,514.930054 332.004913,514.930054 
	C332.004913,523.069153 332.004913,531.097473 332.037415,539.597900 
z"/>
<path fill="#000000" opacity="1.000000" stroke="none" 
	d="
M460.597839,179.962555 
	C461.048279,188.328613 461.026611,196.727158 461.037445,205.597839 
	C452.612274,206.069946 444.154602,206.069946 435.348633,206.069946 
	C435.348633,197.414139 435.348633,188.915802 435.348633,179.995056 
	C443.624084,179.995056 451.874939,179.995056 460.597839,179.962555 
z"/>
<path fill="#000000" opacity="1.000000" stroke="none" 
	d="
M384.402161,206.037445 
	C383.951721,197.671387 383.973389,189.272842 383.962555,180.402161 
	C392.387726,179.930054 400.845398,179.930054 409.651367,179.930054 
	C409.651367,188.585861 409.651367,197.084198 409.651367,206.004944 
	C401.375916,206.004944 393.125061,206.004944 384.402161,206.037445 
z"/>
<path fill="#000000" opacity="1.000000" stroke="none" 
	d="
M604.984619,618.000000 
	C599.846008,618.000000 595.204346,618.000000 590.282349,618.000000 
	C590.282349,609.374329 590.282349,600.970459 590.282349,592.281860 
	C598.626709,592.281860 607.030518,592.281860 615.718628,592.281860 
	C615.718628,600.627686 615.718628,609.031555 615.718628,618.000000 
	C612.357361,618.000000 608.919556,618.000000 604.984619,618.000000 
z"/>
<path fill="#010101" opacity="1.000000" stroke="none" 
	d="
M641.564636,107.999809 
	C641.564575,97.512146 641.564575,87.524490 641.564575,77.174850 
	C667.232605,77.174850 692.772705,77.174850 718.601318,77.174850 
	C718.601318,102.468987 718.601318,127.873199 718.601318,153.638885 
	C693.201355,153.638885 667.670044,153.638885 641.564697,153.638885 
	C641.564697,138.641495 641.564697,123.570656 641.564636,107.999809 
z"/>
<path fill="#000000" opacity="1.000000" stroke="none" 
	d="
M113.000076,76.814224 
	C126.136078,76.814224 138.772079,76.814224 151.702866,76.814224 
	C151.702866,102.512825 151.702866,128.039993 151.702866,153.783234 
	C126.239967,153.783234 100.845306,153.783234 75.132133,153.783234 
	C75.132133,128.277634 75.132133,102.777130 75.132133,76.814224 
	C87.635880,76.814224 100.067970,76.814224 113.000076,76.814224 
z"/>
<path fill="#010101" opacity="1.000000" stroke="none" 
	d="
M151.997986,656.008301 
	C151.997986,677.788513 151.997986,699.070740 151.997986,720.618896 
	C126.287880,720.618896 100.897018,720.618896 75.159904,720.618896 
	C75.159904,695.129028 75.159904,669.612183 75.159904,643.830627 
	C100.591629,643.830627 125.996277,643.830627 151.997986,643.830627 
	C151.997986,647.634399 151.997986,651.572327 151.997986,656.008301 
z"/>
</svg>