<svg version="1.1" id="Layer_1" xmlns="http://www.w3.org/2000/svg" xmlns:xlink="http://www.w3.org/1999/xlink" x="0px" y="0px"
	 width="100%" viewBox="0 0 800 800" enable-background="new 0 0 800 800" xml:space="preserve">
<path fill="#FEFEFE" opacity="1.000000" stroke="none" 
	d="
M1.000000,216.000000 
	C1.000000,144.000000 1.000000,72.500000 1.000000,1.000000 
	C267.666656,1.000000 534.333313,1.000000 801.000000,1.000000 
	C801.000000,267.666656 801.000000,534.333313 801.000000,801.000000 
	C534.333313,801.000000 267.666656,801.000000 1.000000,801.000000 
	C1.000000,606.166687 1.000000,411.333344 1.000000,216.000000 
M254.125092,52.006714 
	C245.869568,52.006714 237.614059,52.006714 229.365631,52.006714 
	C229.365631,60.937794 229.365631,69.441238 229.365631,77.660461 
	C238.120438,77.660461 246.509125,77.660461 254.926758,77.660461 
	C254.926758,68.860725 254.926758,60.399216 255.871674,51.994453 
	C264.208862,52.037987 272.546082,52.081524 280.992828,53.040894 
	C280.992828,61.269981 280.992828,69.499069 280.992828,77.722847 
	C290.093933,77.722847 298.672577,77.722847 307.019897,78.715363 
	C307.036194,86.835510 307.052490,94.955650 306.125031,103.006432 
	C280.439636,103.006432 254.754227,103.006432 229.345505,103.006432 
	C229.345505,112.118126 229.345505,120.514023 229.345505,129.274796 
	C238.085815,129.274796 246.483856,129.274796 255.073334,129.274796 
	C255.073334,138.124100 255.073334,146.593185 254.128387,155.005554 
	C245.864700,155.005554 237.601013,155.005554 229.368500,155.005554 
	C229.368500,172.616455 229.368500,189.779709 229.368500,206.646240 
	C238.134308,206.646240 246.531067,206.646240 254.931610,206.646240 
	C254.931610,189.169174 254.931610,172.044708 255.875015,154.993286 
	C264.132324,154.993286 272.389618,154.993286 281.158661,154.993286 
	C281.158661,172.581085 281.158661,189.738297 281.158661,206.924210 
	C290.141296,206.924210 298.605011,206.924210 307.005981,207.869553 
	C307.026917,215.938293 307.047852,224.007034 306.125092,232.006424 
	C263.553314,232.006424 220.981506,232.006424 178.364319,232.006424 
	C178.364319,240.906555 178.364319,249.423584 178.364319,258.322327 
	C187.131424,258.322327 195.536880,258.322327 203.650909,258.322327 
	C203.650909,267.118164 203.650909,275.521271 203.650909,284.298492 
	C194.897476,284.298492 186.492386,284.298492 178.339844,284.298492 
	C178.339844,293.093445 178.339844,301.495392 178.339844,310.273407 
	C187.081009,310.273407 195.486206,310.273407 203.674957,310.273407 
	C203.674957,318.735596 203.674957,326.804382 203.674957,335.250336 
	C194.947113,335.250336 186.541534,335.250336 178.075790,335.250336 
	C178.075790,344.116730 178.075790,352.592743 177.130432,361.005951 
	C168.728363,361.026886 160.326294,361.047821 151.993576,360.125092 
	C151.993576,351.854462 151.993576,343.583832 151.993576,334.929443 
	C143.128464,334.929443 134.721939,334.929443 125.935852,334.929443 
	C125.935852,326.473114 125.935852,318.398987 125.935852,309.946564 
	C117.146255,309.946564 108.739235,309.946564 100.208008,309.946564 
	C100.208008,292.493713 100.208008,275.433777 100.208008,257.991119 
	C117.475082,257.991119 134.538559,257.991119 151.797562,257.991119 
	C151.797562,249.209198 151.797562,240.810287 151.797562,232.329773 
	C108.788338,232.329773 65.962296,232.329773 23.316978,232.329773 
	C23.316978,249.720840 23.316978,266.781952 23.316978,284.087738 
	C32.108166,284.087738 40.584419,284.087738 48.992310,284.014496 
	C48.992310,284.014496 48.919247,283.945984 48.995342,284.887360 
	C48.995342,293.145996 48.995342,301.404633 48.995342,310.031494 
	C40.167580,310.031494 31.771963,310.031494 23.335800,310.031494 
	C23.335800,327.232574 23.335800,344.055420 23.335800,360.924164 
	C32.136425,360.924164 40.602581,360.924164 49.005951,361.869537 
	C49.026897,370.271606 49.047840,378.673706 48.125099,387.006409 
	C39.854576,387.006409 31.584051,387.006409 23.355560,387.006409 
	C23.355560,447.288177 23.355560,507.101898 23.355560,566.648315 
	C32.115772,566.648315 40.519382,566.648315 49.280685,566.648315 
	C49.280685,540.909119 49.280685,515.519653 49.280685,490.321533 
	C58.060104,490.321533 66.462708,490.321533 75.244919,490.321533 
	C75.244919,499.046783 75.244919,507.453461 75.244919,515.924377 
	C83.780769,515.924377 91.924736,515.924377 100.005943,516.869690 
	C100.005943,533.448059 100.005943,550.026428 100.005943,566.641846 
	C108.910866,566.641846 117.419548,566.641846 125.931267,566.641846 
	C125.931267,549.497986 125.931267,532.711182 126.874962,515.993591 
	C135.125824,515.993591 143.376694,515.993591 152.161148,515.993591 
	C152.161148,524.576111 152.161148,532.755005 152.161148,540.931274 
	C161.159576,540.931274 169.617676,540.931274 178.006424,541.874939 
	C178.006424,550.145508 178.006424,558.416077 178.006424,567.061768 
	C195.199585,567.061768 211.929977,567.061768 229.037216,567.061768 
	C229.037216,584.503845 229.037216,601.567322 229.037216,619.017090 
	C237.816238,619.017090 246.223419,619.017090 254.800980,619.017090 
	C254.800980,627.809143 254.800980,636.208496 254.800980,645.000000 
	C246.205765,645.000000 237.798584,645.000000 229.334076,645.000000 
	C229.334076,687.886353 229.334076,730.379395 229.334076,772.678711 
	C246.729523,772.678711 263.790771,772.678711 280.931152,772.678711 
	C280.931152,764.214050 280.931152,756.069214 281.874878,747.993591 
	C298.463501,747.993591 315.052124,747.993591 332.024109,747.993591 
	C332.024109,756.487549 332.024109,764.557739 332.024109,772.803711 
	C340.805939,772.803711 349.200775,772.803711 358.143555,772.803711 
	C358.143555,755.773132 358.143555,738.929016 358.143555,722.333984 
	C367.093109,722.333984 375.492432,722.333984 384.263641,722.333984 
	C384.263641,731.068054 384.263641,739.470459 384.263641,747.924377 
	C393.122681,747.924377 401.595734,747.924377 410.005951,748.869690 
	C410.005951,756.794739 410.005951,764.719788 410.005951,772.659241 
	C427.253021,772.659241 444.070923,772.659241 460.931152,772.659241 
	C460.931152,764.187927 460.931152,756.056152 461.874878,747.993591 
	C495.782471,747.993591 529.690063,747.993591 563.634033,747.993591 
	C563.634033,739.087524 563.634033,730.571594 563.634033,721.700989 
	C537.887268,721.700989 512.504761,721.700989 486.739594,721.700989 
	C486.739594,712.936340 486.739594,704.532349 486.739594,696.068848 
	C477.875397,696.068848 469.399841,696.068848 460.993591,695.125183 
	C460.993591,686.859070 460.993591,678.592896 460.993591,669.949097 
	C469.849030,669.949097 478.251312,669.949097 487.026733,669.949097 
	C487.026733,661.505066 487.026733,653.435303 487.026733,645.193848 
	C495.807861,645.193848 504.202606,645.193848 513.159912,645.193848 
	C513.159912,653.566650 513.159912,661.762329 513.159912,670.312866 
	C521.789917,670.312866 529.858215,670.312866 538.293091,670.312866 
	C538.293091,679.098511 538.293091,687.500366 538.293091,696.087830 
	C555.805847,696.087830 572.933289,696.087830 589.992371,696.014587 
	C589.992371,696.014587 589.919312,695.946045 589.995361,696.887390 
	C589.995361,705.157043 589.995361,713.426758 589.995361,721.769470 
	C607.544922,721.769470 624.605164,721.769470 642.048340,721.769470 
	C642.048340,704.480591 642.048340,687.417114 642.048340,669.965820 
	C650.495728,669.965820 658.569214,669.965820 667.015991,669.965820 
	C667.015991,652.847107 667.015991,636.116028 667.015991,619.195007 
	C675.800110,619.195007 684.199768,619.195007 693.160522,619.195007 
	C693.160522,636.235291 693.160522,653.088501 693.160522,669.658813 
	C719.111755,669.658813 744.501282,669.658813 769.670410,669.658813 
	C769.670410,652.588501 769.670410,635.859558 769.670410,618.753174 
	C752.612793,618.753174 735.881775,618.753174 719.087830,618.753174 
	C719.087830,609.892456 719.087830,601.415833 719.014587,593.007629 
	C719.014587,593.007629 718.946045,593.080688 719.887390,593.004639 
	C728.136780,593.004639 736.386169,593.004639 744.924316,593.004639 
	C744.924316,575.362244 744.924316,558.146790 745.869690,540.994080 
	C753.788025,540.994080 761.706360,540.994080 769.649292,540.994080 
	C769.649292,532.416565 769.649292,524.251709 769.649292,516.068726 
	C761.174622,516.068726 753.049438,516.068726 744.993530,515.125061 
	C744.971191,506.729218 744.948792,498.333374 745.871460,489.994446 
	C753.795715,489.994446 761.719910,489.994446 769.631592,489.994446 
	C769.631592,481.059509 769.631592,472.555756 769.631592,464.344299 
	C761.205505,464.344299 753.148376,464.344299 745.068237,464.344299 
	C745.068237,473.151428 745.068237,481.615509 744.124817,490.006683 
	C727.209900,490.006683 710.294983,490.006683 692.825317,490.006683 
	C692.825317,481.082611 692.825317,472.558441 692.825317,464.332703 
	C675.552368,464.332703 658.838013,464.332703 642.068848,464.332703 
	C642.068848,473.134613 642.068848,481.605194 641.125183,490.006409 
	C632.727173,490.029541 624.329163,490.052673 615.994019,489.130432 
	C615.994019,472.218658 615.994019,455.306885 615.994019,437.865021 
	C633.218872,437.865021 650.052490,437.865021 666.931152,437.865021 
	C666.931152,429.196289 666.931152,421.060272 667.874878,412.993591 
	C684.816833,412.993591 701.758789,412.993591 719.097412,412.993591 
	C719.097412,421.558472 719.097412,429.637482 719.097412,437.744934 
	C736.238403,437.744934 752.976868,437.744934 769.739746,437.744934 
	C769.739746,420.751160 769.739746,404.012665 769.739746,386.875244 
	C761.409912,386.875244 753.332092,386.875244 744.864136,386.875244 
	C744.864136,378.068634 744.864136,369.658264 744.864136,361.274353 
	C736.054016,361.274353 727.648132,361.274353 718.847046,361.274353 
	C718.847046,369.953308 718.847046,378.365906 718.847046,386.719757 
	C710.036072,386.719757 701.629456,386.719757 692.828674,386.719757 
	C692.828674,378.032166 692.828674,369.619476 692.828674,360.821960 
	C684.020813,360.821960 675.608521,360.821960 667.292786,360.821960 
	C667.292786,352.010681 667.292786,343.603790 667.292786,334.803650 
	C675.993652,334.803650 684.405884,334.803650 693.203064,334.803650 
	C693.203064,326.328186 693.203064,318.249207 693.203064,309.785889 
	C702.011963,309.785889 710.424744,309.785889 718.926453,309.785889 
	C718.926453,300.902710 718.926453,292.420135 719.871460,283.994446 
	C728.135132,283.994446 736.398865,283.994446 744.631592,283.994446 
	C744.631592,266.383606 744.631592,249.220352 744.631592,232.353699 
	C735.865906,232.353699 727.469116,232.353699 719.068237,232.353699 
	C719.068237,249.830688 719.068237,266.955109 718.124817,284.006683 
	C709.848511,284.006683 701.572205,284.006683 692.902832,284.006683 
	C692.902832,266.441376 692.902832,249.365646 692.902832,232.254837 
	C684.094238,232.254837 675.688782,232.254837 666.886108,232.254837 
	C666.886108,240.912369 666.886108,249.323288 666.886108,257.739410 
	C658.409790,257.739410 650.336914,257.739410 641.868042,257.739410 
	C641.868042,249.072617 641.868042,240.662369 641.868042,232.272278 
	C633.058472,232.272278 624.652466,232.272278 615.851196,232.272278 
	C615.851196,240.948792 615.851196,249.361115 615.851196,257.721954 
	C607.040833,257.721954 598.634277,257.721954 589.833191,257.721954 
	C589.833191,249.036774 589.833191,240.624054 589.833191,231.826599 
	C581.025635,231.826599 572.613098,231.826599 563.815857,231.826599 
	C563.815857,214.686340 563.815857,197.943970 563.815857,181.298325 
	C555.005066,181.298325 546.598450,181.298325 537.799072,181.298325 
	C537.799072,190.002625 537.799072,198.415710 537.799072,206.695923 
	C529.320740,206.695923 521.246704,206.695923 512.781067,206.695923 
	C512.781067,197.983047 512.781067,189.570221 512.781067,181.075790 
	C503.897430,181.075790 495.414337,181.075790 486.994049,180.130432 
	C486.973114,171.726974 486.952179,163.323532 487.874695,154.993271 
	C513.119202,154.993271 538.363770,154.993271 563.676880,154.993271 
	C563.676880,120.447701 563.676880,86.298447 563.676880,52.073414 
	C554.882751,52.073414 546.410217,52.073414 537.994507,51.128452 
	C537.994507,42.871803 537.994507,34.615150 537.994507,26.368492 
	C529.393616,26.368492 521.222900,26.368492 513.343140,26.368492 
	C513.343140,35.126770 513.343140,43.516125 513.343140,51.931675 
	C521.816589,51.931675 529.948181,51.931675 538.006714,52.875053 
	C538.006714,61.124413 538.006714,69.373772 538.006714,78.154640 
	C529.429932,78.154640 521.252502,78.154640 512.912781,78.154640 
	C512.912781,86.815018 512.912781,94.937599 512.986023,102.991814 
	C512.986023,102.991814 513.054504,102.918732 512.113098,102.995300 
	C503.864166,102.995300 495.615204,102.995300 487.072968,102.995300 
	C487.072968,120.634270 487.072968,137.848190 486.128174,155.005554 
	C477.726868,155.026627 469.325531,155.047714 460.993591,154.125076 
	C460.993591,137.215881 460.993591,120.306679 460.993591,102.869812 
	C443.780762,102.869812 426.949005,102.869812 409.926910,102.869812 
	C409.926910,94.206184 409.926910,86.072014 410.871765,77.994461 
	C436.121094,77.994461 461.370453,77.994461 486.800171,77.994461 
	C486.800171,69.189919 486.800171,60.793514 486.800171,51.845177 
	C469.429779,51.845177 452.249603,51.845177 434.695923,51.845177 
	C434.695923,42.891033 434.695923,34.488964 434.695923,26.339966 
	C426.237152,26.339966 418.169281,26.339966 410.068604,26.339966 
	C410.068604,43.812412 410.068604,60.946140 409.125183,78.006729 
	C400.729370,78.028946 392.333527,78.051163 383.994476,77.128433 
	C383.994476,68.871391 383.994476,60.614346 383.994476,52.368488 
	C375.060272,52.368488 366.556152,52.368488 358.343750,52.368488 
	C358.343750,61.127171 358.343750,69.516930 358.343750,77.931641 
	C367.150757,77.931641 375.615234,77.931641 384.006683,78.875031 
	C384.006683,86.794502 384.006683,94.713966 384.006683,103.075783 
	C366.367065,103.075783 349.149170,103.075783 331.994049,102.130432 
	C331.994049,94.124031 331.994049,86.117630 331.994049,77.874702 
	C323.261505,77.874702 315.189270,77.874702 307.007172,76.958923 
	C307.007172,68.729919 307.007172,60.500912 307.007172,52.276901 
	C297.906219,52.276901 289.327606,52.276901 280.980164,51.284424 
	C280.980164,42.884159 280.980164,34.483894 280.980164,26.333481 
	C271.907959,26.333481 263.511871,26.333481 255.068497,26.333481 
	C255.068497,35.136959 255.068497,43.608345 254.125092,52.006714 
M745.005493,722.871704 
	C745.005493,731.128357 745.005493,739.385010 745.005493,747.631470 
	C753.606445,747.631470 761.777100,747.631470 769.656799,747.631470 
	C769.656799,738.873047 769.656799,730.483765 769.656799,722.068420 
	C761.183228,722.068420 753.051636,722.068420 744.993225,721.125061 
	C744.993225,712.855774 744.993225,704.586487 744.993225,696.218750 
	C727.472290,696.218750 710.415405,696.218750 692.969055,696.218750 
	C692.969055,704.831238 692.969055,713.236938 692.969055,722.020142 
	C684.184265,722.020142 675.778503,722.020142 666.994934,722.020142 
	C666.994934,730.804565 666.994934,739.210266 666.994934,747.994751 
	C658.544189,747.994751 650.471130,747.994751 642.364624,747.994751 
	C642.364624,756.574097 642.364624,764.757935 642.364624,772.662964 
	C668.113281,772.662964 693.497803,772.662964 719.256714,772.662964 
	C719.256714,755.601135 719.256714,738.873474 719.256714,721.926636 
	C728.111023,721.926636 736.586548,721.926636 745.005493,722.871704 
M590.167480,70.499939 
	C590.167480,115.588455 590.167480,160.676971 590.167480,205.955200 
	C650.362915,205.955200 710.062683,205.955200 769.831299,205.955200 
	C769.831299,146.040268 769.831299,86.359604 769.831299,26.698402 
	C709.824951,26.698402 650.132019,26.698402 590.167480,26.698402 
	C590.167480,41.214664 590.167480,55.357296 590.167480,70.499939 
M29.523140,206.186966 
	C87.428703,206.186966 145.334259,206.186966 203.000183,206.186966 
	C203.000183,145.848495 203.000183,86.265831 203.000183,26.677036 
	C143.099258,26.677036 83.544456,26.677036 23.905205,26.677036 
	C23.905205,86.615265 23.905205,146.201736 23.905205,206.186966 
	C25.601000,206.186966 27.062658,206.186966 29.523140,206.186966 
M23.667351,696.499817 
	C23.667351,721.919983 23.667351,747.340149 23.667351,772.858276 
	C83.795303,772.858276 143.375504,772.858276 203.149506,772.858276 
	C203.149506,712.909058 203.149506,653.178162 203.149506,593.278809 
	C143.285843,593.278809 83.560165,593.278809 23.667341,593.278809 
	C23.667341,627.537720 23.667341,661.518738 23.667351,696.499817 
M608.439880,748.001038 
	C602.346619,748.001038 596.253296,748.001038 590.310425,748.001038 
	C590.310425,756.691345 590.310425,764.762817 590.310425,772.688232 
	C599.027649,772.688232 607.432495,772.688232 615.686401,772.688232 
	C615.686401,764.303101 615.686401,756.231812 615.686401,748.001038 
	C613.390991,748.001038 611.407166,748.001038 608.439880,748.001038 
M745.747559,310.058105 
	C745.747559,318.241730 745.747559,326.425354 745.747559,334.791199 
	C753.481262,334.791199 761.551147,334.791199 769.788452,334.791199 
	C769.788452,326.512939 769.788452,318.442993 769.788452,310.005096 
	C761.960876,310.005096 754.337830,310.005096 745.747559,310.058105 
z"/>
<path fill="#000000" opacity="1.000000" stroke="none" 
	d="
M744.924316,540.931274 
	C744.924316,558.146790 744.924316,575.362244 744.924316,593.004639 
	C736.386169,593.004639 728.136780,593.004639 719.441711,592.569092 
	C718.996033,583.868530 718.996033,575.603394 718.996033,567.367920 
	C701.385376,567.367920 684.220520,567.367920 667.353394,567.367920 
	C667.353394,576.135254 667.353394,584.532898 667.353394,592.939270 
	C684.833740,592.939270 701.960754,592.939270 719.087830,592.939270 
	C719.087830,601.415833 719.087830,609.892456 719.087830,618.753174 
	C735.881775,618.753174 752.612793,618.753174 769.670410,618.753174 
	C769.670410,635.859558 769.670410,652.588501 769.670410,669.658813 
	C744.501282,669.658813 719.111755,669.658813 693.160522,669.658813 
	C693.160522,653.088501 693.160522,636.235291 693.160522,619.195007 
	C684.199768,619.195007 675.800110,619.195007 667.015991,619.195007 
	C667.015991,636.116028 667.015991,652.847107 667.015991,669.965820 
	C658.569214,669.965820 650.495728,669.965820 642.048340,669.965820 
	C642.048340,687.417114 642.048340,704.480591 642.048340,721.769470 
	C624.605164,721.769470 607.544922,721.769470 589.995361,721.769470 
	C589.995361,713.426758 589.995361,705.157043 590.430908,696.441711 
	C599.125244,695.996033 607.384033,695.996033 615.632080,695.996033 
	C615.632080,687.061279 615.632080,678.555908 615.632080,670.343994 
	C606.871338,670.343994 598.480164,670.343994 590.060730,670.343994 
	C590.060730,679.154480 590.060730,687.621155 590.060730,696.087830 
	C572.933289,696.087830 555.805847,696.087830 538.293091,696.087830 
	C538.293091,687.500366 538.293091,679.098511 538.293091,670.312866 
	C529.858215,670.312866 521.789917,670.312866 513.159912,670.312866 
	C513.159912,661.762329 513.159912,653.566650 513.159912,645.193848 
	C504.202606,645.193848 495.807861,645.193848 487.026733,645.193848 
	C487.026733,653.435303 487.026733,661.505066 487.026733,669.949097 
	C478.251312,669.949097 469.849030,669.949097 460.993591,669.949097 
	C460.993591,678.592896 460.993591,686.859070 460.995605,695.562622 
	C460.997650,696.000061 461.069946,695.930054 460.597839,695.962524 
	C451.862427,695.995056 443.599152,695.995056 434.962524,695.995056 
	C434.962524,687.161133 434.962524,678.761719 434.962524,670.194458 
	C426.522217,670.194458 418.463226,670.194458 409.930054,670.194458 
	C409.930054,696.281189 409.930054,722.175598 409.964996,748.033813 
	C409.999939,747.997742 410.068756,747.924377 410.068756,747.924377 
	C401.595734,747.924377 393.122681,747.924377 384.263641,747.924377 
	C384.263641,739.470459 384.263641,731.068054 384.263641,722.333984 
	C375.492432,722.333984 367.093109,722.333984 358.143555,722.333984 
	C358.143555,738.929016 358.143555,755.773132 358.143555,772.803711 
	C349.200775,772.803711 340.805939,772.803711 332.024109,772.803711 
	C332.024109,764.557739 332.024109,756.487549 332.024109,747.993591 
	C315.052124,747.993591 298.463501,747.993591 281.437439,747.995667 
	C280.999969,747.997742 281.069946,748.069946 281.037415,747.597900 
	C281.026581,738.727234 281.048248,730.328613 281.034973,721.965027 
	C281.000000,722.000000 280.930054,722.069946 281.402130,722.037476 
	C290.235565,722.004944 298.596893,722.004944 307.069946,722.004944 
	C307.069946,712.822571 307.069946,704.376343 307.034973,695.965027 
	C307.000000,696.000000 306.930054,696.069946 307.402161,696.037476 
	C333.222351,696.004944 358.570465,696.004944 383.926666,696.004944 
	C383.926666,678.508728 383.926666,661.723022 384.399109,644.966431 
	C410.117554,644.995544 435.363495,644.995544 460.632721,644.995544 
	C460.632721,636.080322 460.632721,627.565979 460.632721,619.327881 
	C434.887512,619.327881 409.510071,619.327881 384.068542,619.327881 
	C384.068542,628.130066 384.068542,636.604797 383.596863,645.042542 
	C374.873962,645.005615 366.622772,645.005615 357.839172,645.005615 
	C357.839172,636.088684 357.839172,627.577026 357.839172,619.068970 
	C348.841370,619.068970 340.382782,619.068970 331.959412,618.597168 
	C331.994659,601.208435 331.994659,584.291504 331.994659,567.193848 
	C340.808655,567.193848 349.201477,567.193848 358.153320,567.193848 
	C358.153320,575.896790 358.153320,584.421936 358.153320,592.657776 
	C367.111816,592.657776 375.509186,592.657776 384.273712,592.657776 
	C384.273712,583.918518 384.273712,575.518738 384.273712,567.079468 
	C393.126923,567.079468 401.597717,567.079468 410.034241,567.042847 
	C409.999908,567.006165 409.926666,566.937317 409.960754,567.408813 
	C409.994843,576.150208 409.994843,584.419983 409.994843,593.053589 
	C435.859955,593.053589 461.248291,593.053589 487.024170,593.053589 
	C487.024170,601.821533 487.024170,610.228271 487.024170,618.797241 
	C495.814880,618.797241 504.213623,618.797241 513.003540,618.797241 
	C513.003540,610.199707 513.003540,601.792969 513.003540,593.006409 
	C521.456360,593.006409 529.530396,593.006409 537.645508,593.006409 
	C537.645508,575.434937 537.645508,558.257690 537.645508,541.349670 
	C529.218384,541.349670 521.147705,541.349670 512.702637,541.349670 
	C512.702637,550.103210 512.702637,558.509155 512.702637,566.670410 
	C495.248993,566.670410 478.188110,566.670410 461.324432,566.670410 
	C461.324432,557.936096 461.324432,549.533936 461.324432,540.753052 
	C470.051056,540.753052 478.457306,540.753052 487.069946,540.753052 
	C487.069946,532.218201 487.069946,524.074097 487.034973,515.965027 
	C487.000000,516.000000 486.930054,516.069946 487.402191,516.037476 
	C530.538513,516.004944 573.202698,516.004944 616.069946,516.004944 
	C616.069946,506.872437 616.069946,498.401245 616.034973,489.966217 
	C616.000000,490.002380 615.931152,490.075806 615.931152,490.075806 
	C624.329163,490.052673 632.727173,490.029541 641.562622,490.004395 
	C642.000061,490.002350 641.930054,489.930054 641.962524,490.402130 
	C641.995056,499.234772 641.995056,507.595337 641.995056,516.069946 
	C650.842651,516.069946 658.956299,516.069946 667.034973,516.034973 
	C667.000000,516.000000 666.930054,515.930054 666.962524,516.402161 
	C666.995056,524.799866 666.995056,532.725464 666.995056,541.069946 
	C693.313293,541.069946 719.191589,541.069946 745.033813,541.035034 
	C744.997620,541.000061 744.924316,540.931274 744.924316,540.931274 
M566.677612,567.000244 
	C563.225159,566.490234 564.014038,568.997375 564.012146,570.833984 
	C563.992371,589.832520 564.000000,608.831116 564.000000,627.829651 
	C564.000000,633.444824 564.000000,639.059937 564.000000,644.769409 
	C590.194153,644.769409 615.931274,644.769409 641.767090,644.769409 
	C641.767090,618.801147 641.767090,593.064026 641.767090,567.000000 
	C616.907654,567.000000 592.279724,567.000000 566.677612,567.000244 
z"/>
<path fill="#000000" opacity="1.000000" stroke="none" 
	d="
M486.931244,181.075790 
	C495.414337,181.075790 503.897430,181.075790 512.781067,181.075790 
	C512.781067,189.570221 512.781067,197.983047 512.781067,206.695923 
	C521.246704,206.695923 529.320740,206.695923 537.799072,206.695923 
	C537.799072,198.415710 537.799072,190.002625 537.799072,181.298325 
	C546.598450,181.298325 555.005066,181.298325 563.815857,181.298325 
	C563.815857,197.943970 563.815857,214.686340 563.815857,231.826599 
	C572.613098,231.826599 581.025635,231.826599 589.833191,231.826599 
	C589.833191,240.624054 589.833191,249.036774 589.833191,257.721954 
	C598.634277,257.721954 607.040833,257.721954 615.851196,257.721954 
	C615.851196,249.361115 615.851196,240.948792 615.851196,232.272278 
	C624.652466,232.272278 633.058472,232.272278 641.868042,232.272278 
	C641.868042,240.662369 641.868042,249.072617 641.868042,257.739410 
	C650.336914,257.739410 658.409790,257.739410 666.886108,257.739410 
	C666.886108,249.323288 666.886108,240.912369 666.886108,232.254837 
	C675.688782,232.254837 684.094238,232.254837 692.902832,232.254837 
	C692.902832,249.365646 692.902832,266.441376 692.902832,284.006683 
	C701.572205,284.006683 709.848511,284.006683 718.562256,284.006470 
	C718.999634,284.006226 718.926453,283.937531 718.926453,283.937531 
	C718.926453,292.420135 718.926453,300.902710 718.926453,309.785889 
	C710.424744,309.785889 702.011963,309.785889 693.203064,309.785889 
	C693.203064,318.249207 693.203064,326.328186 693.203064,334.803650 
	C684.405884,334.803650 675.993652,334.803650 667.292786,334.803650 
	C667.292786,343.603790 667.292786,352.010681 667.292786,360.821960 
	C675.608521,360.821960 684.020813,360.821960 692.828674,360.821960 
	C692.828674,369.619476 692.828674,378.032166 692.828674,386.719757 
	C701.629456,386.719757 710.036072,386.719757 718.847046,386.719757 
	C718.847046,378.365906 718.847046,369.953308 718.847046,361.274353 
	C727.648132,361.274353 736.054016,361.274353 744.864136,361.274353 
	C744.864136,369.658264 744.864136,378.068634 744.864136,386.875244 
	C753.332092,386.875244 761.409912,386.875244 769.739746,386.875244 
	C769.739746,404.012665 769.739746,420.751160 769.739746,437.744934 
	C752.976868,437.744934 736.238403,437.744934 719.097412,437.744934 
	C719.097412,429.637482 719.097412,421.558472 719.097412,412.993591 
	C701.758789,412.993591 684.816833,412.993591 667.437378,412.995605 
	C666.999939,412.997650 667.069946,413.069946 667.037476,412.597870 
	C667.004944,403.853638 667.004944,395.581451 667.004944,386.930206 
	C649.795898,386.930206 633.062622,386.930206 615.948486,386.930206 
	C615.948486,369.480835 615.948486,352.414825 615.948486,334.980530 
	C581.508118,334.980530 547.452637,334.980530 513.357483,334.980530 
	C513.357483,309.095123 513.357483,283.585358 513.357483,257.683868 
	C521.788269,257.683868 529.863281,257.683868 537.646973,257.683868 
	C537.646973,248.881577 537.646973,240.476089 537.646973,232.344040 
	C520.561035,232.344040 503.829102,232.344040 486.711029,232.344040 
	C486.711029,241.093628 486.711029,249.501678 486.711029,258.284271 
	C477.911194,258.284271 469.503540,258.284271 461.336975,258.284271 
	C461.336975,267.085632 461.336975,275.490143 461.336975,284.274872 
	C470.079041,284.274872 478.487122,284.274872 486.667725,284.274872 
	C486.667725,293.076111 486.667725,301.480408 486.667725,310.251953 
	C460.942596,310.251953 435.548492,310.251953 410.075867,310.251953 
	C410.075867,318.777924 410.075867,326.923492 409.603210,335.036957 
	C400.732880,335.027710 392.335205,335.050507 383.966492,334.600891 
	C383.995514,326.203705 383.995514,318.278931 383.995514,310.367310 
	C375.059570,310.367310 366.555176,310.367310 358.342987,310.367310 
	C358.342987,318.794098 358.342987,326.851837 358.342987,334.931458 
	C367.150452,334.931458 375.615051,334.931458 384.042633,335.403137 
	C383.980438,344.273193 383.955231,352.671570 383.965027,361.034973 
	C384.000000,361.000000 384.069946,360.930054 383.597809,360.962555 
	C366.207062,360.995056 349.288483,360.995056 331.989258,360.995056 
	C331.989258,352.189636 331.989258,343.788300 331.989258,334.837708 
	C323.427765,334.837708 315.234039,334.837708 307.069946,334.837708 
	C307.069946,308.827759 307.069946,283.378906 307.034973,257.965027 
	C307.000000,258.000000 306.930054,258.069946 307.402161,258.037445 
	C315.876434,258.045776 323.878601,258.086578 331.936157,258.585114 
	C331.991608,267.293182 331.991608,275.543549 331.991608,283.742615 
	C349.625458,283.742615 366.674866,283.742615 383.755249,283.742615 
	C383.755249,275.089142 383.755249,266.695099 383.755249,258.279724 
	C366.255829,258.279724 349.001038,258.279724 331.863586,257.783264 
	C332.010620,248.834534 332.040283,240.382294 332.034973,231.965027 
	C332.000000,232.000000 331.930054,232.069946 332.402161,232.037445 
	C341.234772,232.004944 349.595337,232.004944 358.069946,232.004944 
	C358.069946,223.157379 358.069946,215.043716 358.034973,206.965027 
	C358.000000,207.000000 357.930054,207.069946 358.402130,207.037445 
	C367.274750,206.980301 375.675293,206.955643 384.040588,207.402817 
	C384.005341,215.802948 384.005341,223.731262 384.005341,231.667480 
	C409.922363,231.667480 435.398315,231.667480 460.924133,231.667480 
	C460.924133,223.200455 460.924133,215.065735 461.396790,206.963058 
	C470.231934,206.995102 478.594482,206.995102 487.069946,206.995102 
	C487.069946,197.823669 487.069946,189.376862 487.035004,180.966217 
	C487.000061,181.002396 486.931244,181.075790 486.931244,181.075790 
M572.500000,310.000000 
	C586.928162,310.000000 601.356323,310.000000 615.712524,310.000000 
	C615.712524,301.021423 615.712524,292.616364 615.712524,284.285187 
	C589.689575,284.285187 563.955078,284.285187 538.287354,284.285187 
	C538.287354,292.978485 538.287354,301.383545 538.287354,310.000000 
	C549.548950,310.000000 560.524475,310.000000 572.500000,310.000000 
M667.000000,296.502197 
	C667.000000,292.400818 667.000000,288.299438 667.000000,284.286682 
	C658.353760,284.286682 650.282959,284.286682 642.287048,284.286682 
	C642.287048,292.980255 642.287048,301.384125 642.287048,309.712463 
	C650.647949,309.712463 658.718811,309.712463 667.000000,309.712463 
	C667.000000,305.450134 667.000000,301.473541 667.000000,296.502197 
z"/>
<path fill="#000000" opacity="1.000000" stroke="none" 
	d="
M666.965576,412.960938 
	C666.931152,421.060272 666.931152,429.196289 666.931152,437.865021 
	C650.052490,437.865021 633.218872,437.865021 615.994019,437.865021 
	C615.994019,455.306885 615.994019,472.218658 615.962585,489.603119 
	C615.931152,490.075806 616.000000,490.002380 615.562866,489.998718 
	C606.859070,489.995056 598.592468,489.995056 589.962830,489.995056 
	C589.962830,472.489838 589.962830,455.434723 589.962830,438.324829 
	C555.441284,438.324829 521.291687,438.324829 487.075867,438.324829 
	C487.075867,447.122528 487.075867,455.595795 486.603210,464.036957 
	C477.861389,464.004883 469.592163,464.004883 460.953430,464.004883 
	C460.953430,446.815948 460.953430,430.089691 460.953430,413.193054 
	C443.852875,413.193054 427.130096,413.193054 410.362610,413.193054 
	C410.362610,421.574219 410.362610,429.757690 410.362610,438.321472 
	C418.795410,438.321472 426.867188,438.321472 435.294983,438.321472 
	C435.294983,455.769531 435.294983,472.828918 435.294983,489.930939 
	C452.806671,489.930939 469.941254,489.930939 487.040588,490.402771 
	C486.980255,499.273041 486.955170,507.671509 486.930054,516.069946 
	C486.930054,516.069946 487.000000,516.000000 486.562836,515.997559 
	C434.727448,516.021973 383.329193,516.048889 331.963043,515.603210 
	C331.995117,506.768127 331.995117,498.405609 331.995117,490.069061 
	C323.154999,490.069061 315.039581,490.069061 306.959412,489.597229 
	C306.973419,480.724976 306.952179,472.324585 307.402771,463.959412 
	C324.468170,463.994659 341.061768,463.994659 358.041321,463.994659 
	C358.041321,472.839874 358.041321,481.245331 358.041321,489.802795 
	C375.487976,489.802795 392.544556,489.802795 409.632751,489.802795 
	C409.632751,481.084686 409.632751,472.568298 409.632751,463.670776 
	C400.862091,463.670776 392.457062,463.670776 383.694763,463.670776 
	C383.694763,446.553833 383.694763,429.826660 383.694763,412.719604 
	C374.913696,412.719604 366.509308,412.719604 358.328247,412.719604 
	C358.328247,403.926025 358.328247,395.524811 358.328247,386.747131 
	C367.057892,386.747131 375.463013,386.747131 384.069946,386.747131 
	C384.069946,377.882019 384.069946,369.406036 384.069946,360.930054 
	C384.069946,360.930054 384.000000,361.000000 384.437134,361.002472 
	C393.274811,360.980255 401.675323,360.955597 410.040588,361.402771 
	C410.005341,370.140289 410.005341,378.405975 410.005341,386.639099 
	C435.950073,386.639099 461.441010,386.639099 487.313232,386.639099 
	C487.313232,377.878448 487.313232,369.477264 487.313232,361.337280 
	C496.098785,361.337280 504.497284,361.337280 513.265991,361.337280 
	C513.265991,370.072968 513.265991,378.474487 513.265991,387.079712 
	C521.789673,387.079712 529.929138,387.079712 538.034302,387.043030 
	C537.999939,387.006348 537.926758,386.937531 537.960815,387.409058 
	C537.994812,396.144043 537.994812,404.407562 537.994812,413.069946 
	C581.327087,413.069946 624.198486,413.069946 667.069946,413.069946 
	C667.069946,413.069946 666.999939,412.997650 666.965576,412.960938 
z"/>
<path fill="#020202" opacity="1.000000" stroke="none" 
	d="
M590.167480,69.999931 
	C590.167480,55.357296 590.167480,41.214664 590.167480,26.698402 
	C650.132019,26.698402 709.824951,26.698402 769.831299,26.698402 
	C769.831299,86.359604 769.831299,146.040268 769.831299,205.955200 
	C710.062683,205.955200 650.362915,205.955200 590.167480,205.955200 
	C590.167480,160.676971 590.167480,115.588455 590.167480,69.999931 
M705.499939,180.834259 
	C718.580872,180.834259 731.661865,180.834259 744.689331,180.834259 
	C744.689331,137.509644 744.689331,94.934219 744.689331,52.237808 
	C701.737427,52.237808 659.026428,52.237808 616.316345,52.237808 
	C616.316345,95.173775 616.316345,137.869843 616.316345,180.834244 
	C645.922058,180.834244 675.210938,180.834244 705.499939,180.834259 
z"/>
<path fill="#010101" opacity="1.000000" stroke="none" 
	d="
M29.023727,206.186966 
	C27.062658,206.186966 25.601000,206.186966 23.905205,206.186966 
	C23.905205,146.201736 23.905205,86.615265 23.905205,26.677036 
	C83.544456,26.677036 143.099258,26.677036 203.000183,26.677036 
	C203.000183,86.265831 203.000183,145.848495 203.000183,206.186966 
	C145.334259,206.186966 87.428703,206.186966 29.023727,206.186966 
M86.499939,180.836288 
	C116.927704,180.836288 147.355469,180.836288 177.798920,180.836288 
	C177.798920,137.592789 177.798920,94.988449 177.798920,52.305912 
	C134.878983,52.305912 92.163643,52.305912 49.401749,52.305912 
	C49.401749,95.203796 49.401749,137.792511 49.401749,180.836288 
	C61.589340,180.836288 73.544632,180.836288 86.499939,180.836288 
z"/>
<path fill="#010101" opacity="1.000000" stroke="none" 
	d="
M23.667347,695.999756 
	C23.667341,661.518738 23.667341,627.537720 23.667341,593.278809 
	C83.560165,593.278809 143.285843,593.278809 203.149506,593.278809 
	C203.149506,653.178162 203.149506,712.909058 203.149506,772.858276 
	C143.375504,772.858276 83.795303,772.858276 23.667351,772.858276 
	C23.667351,747.340149 23.667351,721.919983 23.667347,695.999756 
M49.160194,653.499939 
	C49.160194,684.765808 49.160194,716.031738 49.160194,747.500610 
	C92.327103,747.500610 134.912994,747.500610 177.752167,747.500610 
	C177.752167,704.579895 177.752167,661.859131 177.752167,619.199219 
	C134.820450,619.199219 92.117119,619.199219 49.160198,619.199219 
	C49.160198,630.547668 49.160198,641.523743 49.160194,653.499939 
z"/>
<path fill="#000000" opacity="1.000000" stroke="none" 
	d="
M178.075790,361.068756 
	C178.075790,352.592743 178.075790,344.116730 178.075790,335.250336 
	C186.541534,335.250336 194.947113,335.250336 203.674957,335.250336 
	C203.674957,326.804382 203.674957,318.735596 203.674957,310.273407 
	C195.486206,310.273407 187.081009,310.273407 178.339844,310.273407 
	C178.339844,301.495392 178.339844,293.093445 178.339844,284.298492 
	C186.492386,284.298492 194.897476,284.298492 203.650909,284.298492 
	C203.650909,275.521271 203.650909,267.118164 203.650909,258.322327 
	C195.536880,258.322327 187.131424,258.322327 178.364319,258.322327 
	C178.364319,249.423584 178.364319,240.906555 178.364319,232.006424 
	C220.981506,232.006424 263.553314,232.006424 306.562531,232.004395 
	C306.999969,232.002380 306.930054,231.930054 306.962585,232.402130 
	C306.973389,241.272781 306.951721,249.671371 306.930054,258.069946 
	C306.930054,258.069946 307.000000,258.000000 306.562866,257.997528 
	C297.859619,257.995056 289.593506,257.995056 281.075867,257.995056 
	C281.075867,309.994690 281.075867,361.531860 280.603210,413.036957 
	C263.106964,413.004883 246.083359,413.004883 228.697388,413.004883 
	C228.697388,403.885254 228.697388,395.492401 228.697388,386.930054 
	C220.193573,386.930054 212.061813,386.930054 203.965027,386.965027 
	C204.000000,387.000000 204.069946,387.069946 204.037445,386.597839 
	C204.004944,377.764435 204.004944,369.403107 204.004944,360.930054 
	C194.822525,360.930054 186.376282,360.930054 177.966217,360.964996 
	C178.002396,360.999939 178.075790,361.068756 178.075790,361.068756 
M255.000000,317.560547 
	C255.000000,315.123291 255.000000,312.686035 255.000000,310.269409 
	C246.058716,310.269409 237.653732,310.269409 229.269852,310.269409 
	C229.269852,327.276550 229.269852,344.012909 229.269852,360.727722 
	C237.947144,360.727722 246.352203,360.727722 255.000000,360.727722 
	C255.000000,346.485901 255.000000,332.514984 255.000000,317.560547 
M229.000000,273.481689 
	C229.000000,276.919525 229.000000,280.357361 229.000000,283.718628 
	C237.968430,283.718628 246.372284,283.718628 254.718170,283.718628 
	C254.718170,275.030579 254.718170,266.626709 254.718170,258.282349 
	C246.029343,258.282349 237.625427,258.282349 229.000000,258.282349 
	C229.000000,263.203491 229.000000,267.845520 229.000000,273.481689 
z"/>
<path fill="#000000" opacity="1.000000" stroke="none" 
	d="
M280.965576,747.961060 
	C280.931152,756.069214 280.931152,764.214050 280.931152,772.678711 
	C263.790771,772.678711 246.729523,772.678711 229.334076,772.678711 
	C229.334076,730.379395 229.334076,687.886353 229.334076,645.000000 
	C237.798584,645.000000 246.205765,645.000000 254.800980,645.000000 
	C254.800980,636.208496 254.800980,627.809143 254.800980,619.017090 
	C246.223419,619.017090 237.816238,619.017090 229.037216,619.017090 
	C229.037216,601.567322 229.037216,584.503845 229.037216,567.061768 
	C211.929977,567.061768 195.199585,567.061768 178.006424,567.061768 
	C178.006424,558.416077 178.006424,550.145508 178.004425,541.437500 
	C178.002411,541.000061 177.930054,541.069946 178.402130,541.037476 
	C187.234756,541.004944 195.595322,541.004944 204.069946,541.004944 
	C204.069946,532.157410 204.069946,524.043701 204.034973,515.965027 
	C204.000000,516.000000 203.930054,516.069946 204.402130,516.037476 
	C212.806366,516.004944 220.738510,516.004944 229.047211,516.004944 
	C229.047211,524.514404 229.047211,532.583008 229.047211,541.021912 
	C237.821960,541.021912 246.223175,541.021912 255.172516,541.021912 
	C255.172516,549.916077 255.172516,558.441956 255.172516,567.322510 
	C264.132080,567.322510 272.532837,567.322510 281.296814,567.322510 
	C281.296814,576.105225 281.296814,584.504456 281.296814,593.270874 
	C290.078430,593.270874 298.478760,593.270874 307.075836,593.270874 
	C307.075836,602.125671 307.075836,610.597351 306.603210,619.036987 
	C297.869324,619.004883 289.608063,619.004883 281.353180,619.004883 
	C281.353180,636.266785 281.353180,653.092285 281.353180,670.290283 
	C290.100586,670.290283 298.495880,670.290283 306.930054,670.290283 
	C306.930054,679.134888 306.930054,687.602417 306.930054,696.069946 
	C306.930054,696.069946 307.000000,696.000000 306.562866,695.997559 
	C297.764374,695.995056 289.403046,695.995056 280.930054,695.995056 
	C280.930054,705.177490 280.930054,713.623718 280.930054,722.069946 
	C280.930054,722.069946 281.000000,722.000000 280.562866,721.997559 
	C271.874878,721.995056 263.624023,721.995056 255.348633,721.995056 
	C255.348633,730.915833 255.348633,739.414185 255.348633,748.069946 
	C264.154541,748.069946 272.612244,748.069946 281.069946,748.069946 
	C281.069946,748.069946 280.999969,747.997742 280.965576,747.961060 
z"/>
<path fill="#000000" opacity="1.000000" stroke="none" 
	d="
M307.068756,206.924210 
	C298.605011,206.924210 290.141296,206.924210 281.158661,206.924210 
	C281.158661,189.738297 281.158661,172.581085 281.158661,154.993286 
	C272.389618,154.993286 264.132324,154.993286 255.437592,154.993439 
	C255.000153,154.993591 255.073334,155.062286 255.073334,155.062286 
	C255.073334,146.593185 255.073334,138.124100 255.073334,129.274796 
	C246.483856,129.274796 238.085815,129.274796 229.345505,129.274796 
	C229.345505,120.514023 229.345505,112.118126 229.345505,103.006432 
	C254.754227,103.006432 280.439636,103.006432 306.562500,103.004417 
	C306.999939,103.002403 306.930054,102.930061 306.962555,103.402130 
	C306.995056,120.784767 306.995056,137.695343 306.995056,154.643219 
	C315.577393,154.643219 323.753082,154.643219 332.069946,154.643219 
	C332.069946,137.167770 332.069946,120.048912 332.034973,102.966217 
	C332.000031,103.002373 331.931244,103.075783 331.931244,103.075783 
	C349.149170,103.075783 366.367065,103.075783 384.006683,103.075783 
	C384.006683,94.713966 384.006683,86.794502 384.006531,78.437607 
	C384.006409,78.000183 383.937714,78.073372 383.937714,78.073372 
	C392.333527,78.051163 400.729370,78.028946 409.562622,78.006638 
	C410.000061,78.006538 409.926910,77.937843 409.926910,77.937843 
	C409.926910,86.072014 409.926910,94.206184 409.926910,102.869812 
	C426.949005,102.869812 443.780762,102.869812 460.993591,102.869812 
	C460.993591,120.306679 460.993591,137.215881 460.995605,154.562531 
	C460.997650,155.000000 461.069946,154.930054 460.597839,154.962555 
	C451.859985,154.995056 443.594177,154.995056 434.951080,154.995056 
	C434.951080,146.150620 434.951080,137.748566 434.951080,129.349457 
	C409.073456,129.349457 383.582489,129.349457 358.337738,129.349457 
	C358.337738,138.099594 358.337738,146.498184 358.337738,155.266998 
	C367.074036,155.266998 375.475555,155.266998 384.075867,155.266998 
	C384.075867,164.123901 384.075867,172.596436 383.603210,181.036942 
	C374.768066,181.004898 366.405518,181.004898 357.930054,181.004898 
	C357.930054,190.176331 357.930054,198.623138 357.930054,207.069946 
	C357.930054,207.069946 358.000000,207.000000 357.562866,206.997528 
	C348.727142,206.973404 340.328613,206.951736 331.965027,206.965027 
	C332.000000,207.000000 332.069946,207.069946 332.037415,206.597870 
	C332.004913,197.875290 332.004913,189.624786 332.004913,181.349121 
	C323.417572,181.349121 315.251892,181.349121 306.930054,181.349121 
	C306.930054,190.155289 306.930054,198.612610 306.964996,207.033783 
	C306.999939,206.997604 307.068756,206.924210 307.068756,206.924210 
z"/>
<path fill="#000000" opacity="1.000000" stroke="none" 
	d="
M178.039093,540.965698 
	C169.617676,540.931274 161.159576,540.931274 152.161148,540.931274 
	C152.161148,532.755005 152.161148,524.576111 152.161148,515.993591 
	C143.376694,515.993591 135.125824,515.993591 126.437508,515.995667 
	C126.000053,515.997742 126.069939,516.069946 126.037445,515.597900 
	C126.004951,506.874939 126.004951,498.624084 126.004951,490.348633 
	C117.083847,490.348633 108.585892,490.348633 99.930061,490.348633 
	C99.930061,499.154602 99.930061,507.612274 99.964996,516.033813 
	C99.999924,515.997742 100.068695,515.924377 100.068695,515.924377 
	C91.924736,515.924377 83.780769,515.924377 75.244919,515.924377 
	C75.244919,507.453461 75.244919,499.046783 75.244919,490.321533 
	C66.462708,490.321533 58.060104,490.321533 49.280685,490.321533 
	C49.280685,515.519653 49.280685,540.909119 49.280685,566.648315 
	C40.519382,566.648315 32.115772,566.648315 23.355560,566.648315 
	C23.355560,507.101898 23.355560,447.288177 23.355560,387.006409 
	C31.584051,387.006409 39.854576,387.006409 48.562546,387.004395 
	C48.999996,387.002380 48.930061,386.930054 48.962555,387.402161 
	C48.995052,404.459869 48.995052,421.045502 48.995052,438.153900 
	C74.909492,438.153900 100.402481,438.153900 126.270264,438.153900 
	C126.270264,447.077789 126.270264,455.478271 126.270264,463.924133 
	C135.125565,463.924133 143.597275,463.924133 152.036942,464.396790 
	C152.004898,473.122681 152.004898,481.375977 152.004898,489.930969 
	C169.634323,489.930969 186.855103,489.930969 204.040619,490.402802 
	C203.980255,499.273071 203.955154,507.671509 203.930054,516.069946 
	C203.930054,516.069946 204.000000,516.000000 203.562851,515.997559 
	C194.765167,515.995056 186.404633,515.995056 177.930054,515.995056 
	C177.930054,524.842651 177.930054,532.956299 177.930054,541.069946 
	C177.930054,541.069946 178.002411,541.000061 178.039093,540.965698 
z"/>
<path fill="#000000" opacity="1.000000" stroke="none" 
	d="
M49.068741,360.924164 
	C40.602581,360.924164 32.136425,360.924164 23.335800,360.924164 
	C23.335800,344.055420 23.335800,327.232574 23.335800,310.031494 
	C31.771963,310.031494 40.167580,310.031494 48.995342,310.031494 
	C48.995342,301.404633 48.995342,293.145996 49.430817,284.441711 
	C58.125118,283.996033 66.383942,283.996033 74.632111,283.996033 
	C74.632111,275.061340 74.632111,266.556000 74.632111,258.343964 
	C65.871529,258.343964 57.480427,258.343964 49.060677,258.343964 
	C49.060677,267.154449 49.060677,275.621094 49.060677,284.087738 
	C40.584419,284.087738 32.108166,284.087738 23.316978,284.087738 
	C23.316978,266.781952 23.316978,249.720840 23.316978,232.329773 
	C65.962296,232.329773 108.788338,232.329773 151.797562,232.329773 
	C151.797562,240.810287 151.797562,249.209198 151.797562,257.991119 
	C134.538559,257.991119 117.475082,257.991119 100.208008,257.991119 
	C100.208008,275.433777 100.208008,292.493713 100.208008,309.946564 
	C108.739235,309.946564 117.146255,309.946564 125.935852,309.946564 
	C125.935852,318.398987 125.935852,326.473114 125.935852,334.929443 
	C134.721939,334.929443 143.128464,334.929443 151.993576,334.929443 
	C151.993576,343.583832 151.993576,351.854462 151.995605,360.562531 
	C151.997620,360.999969 152.069946,360.930054 151.597824,360.962555 
	C125.727158,360.973389 100.328606,360.951721 74.965027,360.965027 
	C75.000000,361.000000 75.069939,361.069946 75.037445,360.597839 
	C75.004951,351.874939 75.004951,343.624084 75.004951,335.348633 
	C66.084206,335.348633 57.585880,335.348633 48.930061,335.348633 
	C48.930061,344.154602 48.930061,352.612274 48.965000,361.033752 
	C48.999939,360.997589 49.068741,360.924164 49.068741,360.924164 
z"/>
<path fill="#000000" opacity="1.000000" stroke="none" 
	d="
M512.912781,103.060173 
	C512.912781,94.937599 512.912781,86.815018 512.912781,78.154640 
	C521.252502,78.154640 529.429932,78.154640 538.006714,78.154640 
	C538.006714,69.373772 538.006714,61.124413 538.006592,52.437641 
	C538.006470,52.000229 537.937744,52.073414 537.937744,52.073414 
	C546.410217,52.073414 554.882751,52.073414 563.676880,52.073414 
	C563.676880,86.298447 563.676880,120.447701 563.676880,154.993271 
	C538.363770,154.993271 513.119202,154.993271 487.437256,154.993347 
	C486.999786,154.993408 487.072968,155.062103 487.072968,155.062103 
	C487.072968,137.848190 487.072968,120.634270 487.072968,102.995300 
	C495.615204,102.995300 503.864166,102.995300 512.558533,103.430603 
	C513.003967,112.124382 513.003967,120.382858 513.003967,128.632355 
	C521.604675,128.632355 529.777222,128.632355 537.656799,128.632355 
	C537.656799,119.872368 537.656799,111.481606 537.656799,103.060173 
	C529.180115,103.060173 521.046448,103.060173 512.912781,103.060173 
z"/>
<path fill="#000000" opacity="1.000000" stroke="none" 
	d="
M745.062073,721.926636 
	C736.586548,721.926636 728.111023,721.926636 719.256714,721.926636 
	C719.256714,738.873474 719.256714,755.601135 719.256714,772.662964 
	C693.497803,772.662964 668.113281,772.662964 642.364624,772.662964 
	C642.364624,764.757935 642.364624,756.574097 642.364624,747.994751 
	C650.471130,747.994751 658.544189,747.994751 666.994934,747.994751 
	C666.994934,739.210266 666.994934,730.804565 666.994934,722.020142 
	C675.778503,722.020142 684.184265,722.020142 692.969055,722.020142 
	C692.969055,713.236938 692.969055,704.831238 692.969055,696.218750 
	C710.415405,696.218750 727.472290,696.218750 744.993225,696.218750 
	C744.993225,704.586487 744.993225,712.855774 744.993286,721.562439 
	C744.993347,721.999817 745.062073,721.926636 745.062073,721.926636 
z"/>
<path fill="#000000" opacity="1.000000" stroke="none" 
	d="
M151.960922,361.034363 
	C160.326294,361.047821 168.728363,361.026886 177.603119,361.037354 
	C178.075790,361.068756 178.002396,360.999939 177.998718,361.437134 
	C177.995056,370.235626 177.995056,378.596924 177.995056,387.069946 
	C187.177460,387.069946 195.623703,387.069946 204.069946,387.069946 
	C204.069946,387.069946 204.000000,387.000000 203.997528,387.437134 
	C203.995056,396.139862 203.995056,404.405426 203.995056,412.673492 
	C160.741196,412.673492 117.940071,412.673492 75.069939,412.673492 
	C75.069939,403.874878 75.069939,395.402466 75.034973,386.965027 
	C75.000000,387.000000 74.930061,387.069946 75.402130,387.037445 
	C101.212204,387.004944 126.550209,387.004944 152.069946,387.004944 
	C152.069946,377.859924 152.069946,369.394989 152.069946,360.930054 
	C152.069946,360.930054 151.997620,360.999969 151.960922,361.034363 
z"/>
<path fill="#000000" opacity="1.000000" stroke="none" 
	d="
M642.034424,490.039062 
	C642.068848,481.605194 642.068848,473.134613 642.068848,464.332703 
	C658.838013,464.332703 675.552368,464.332703 692.825317,464.332703 
	C692.825317,472.558441 692.825317,481.082611 692.825317,490.006683 
	C710.294983,490.006683 727.209900,490.006683 744.562256,490.006470 
	C744.999634,490.006226 744.926453,489.937531 744.926392,489.937531 
	C744.948792,498.333374 744.971191,506.729218 744.995605,515.562500 
	C744.997620,515.999939 745.069946,515.930054 744.597900,515.962524 
	C718.393860,515.973389 692.661987,515.951721 666.930054,515.930054 
	C666.930054,515.930054 667.000000,516.000000 667.002502,515.562866 
	C667.005005,506.765198 667.005005,498.404633 667.005005,489.930054 
	C658.157349,489.930054 650.043701,489.930054 641.930054,489.930054 
	C641.930054,489.930054 642.000061,490.002350 642.034424,490.039062 
z"/>
<path fill="#000000" opacity="1.000000" stroke="none" 
	d="
M460.960938,696.034424 
	C469.399841,696.068848 477.875397,696.068848 486.739594,696.068848 
	C486.739594,704.532349 486.739594,712.936340 486.739594,721.700989 
	C512.504761,721.700989 537.887268,721.700989 563.634033,721.700989 
	C563.634033,730.571594 563.634033,739.087524 563.634033,747.993591 
	C529.690063,747.993591 495.782471,747.993591 461.437439,747.995667 
	C460.999969,747.997742 461.069946,748.069946 461.037415,747.597900 
	C461.026581,730.060547 461.048279,712.995300 461.069946,695.930054 
	C461.069946,695.930054 460.997650,696.000061 460.960938,696.034424 
z"/>
<path fill="#000000" opacity="1.000000" stroke="none" 
	d="
M410.034332,78.043198 
	C410.068604,60.946140 410.068604,43.812412 410.068604,26.339966 
	C418.169281,26.339966 426.237152,26.339966 434.695923,26.339966 
	C434.695923,34.488964 434.695923,42.891033 434.695923,51.845177 
	C452.249603,51.845177 469.429779,51.845177 486.800171,51.845177 
	C486.800171,60.793514 486.800171,69.189919 486.800171,77.994461 
	C461.370453,77.994461 436.121094,77.994461 410.399353,77.966156 
	C409.926910,77.937843 410.000061,78.006538 410.034332,78.043198 
z"/>
<path fill="#000000" opacity="1.000000" stroke="none" 
	d="
M719.033936,284.042908 
	C719.068237,266.955109 719.068237,249.830688 719.068237,232.353699 
	C727.469116,232.353699 735.865906,232.353699 744.631592,232.353699 
	C744.631592,249.220352 744.631592,266.383606 744.631592,283.994446 
	C736.398865,283.994446 728.135132,283.994446 719.398926,283.966003 
	C718.926453,283.937531 718.999634,284.006226 719.033936,284.042908 
z"/>
<path fill="#000000" opacity="1.000000" stroke="none" 
	d="
M254.965881,154.956924 
	C254.931610,172.044708 254.931610,189.169174 254.931610,206.646240 
	C246.531067,206.646240 238.134308,206.646240 229.368500,206.646240 
	C229.368500,189.779709 229.368500,172.616455 229.368500,155.005554 
	C237.601013,155.005554 245.864700,155.005554 254.600861,155.033920 
	C255.073334,155.062286 255.000153,154.993591 254.965881,154.956924 
z"/>
<path fill="#000000" opacity="1.000000" stroke="none" 
	d="
M125.965660,515.961060 
	C125.931267,532.711182 125.931267,549.497986 125.931267,566.641846 
	C117.419548,566.641846 108.910866,566.641846 100.005943,566.641846 
	C100.005943,550.026428 100.005943,533.448059 100.037323,516.397034 
	C100.068695,515.924377 99.999924,515.997742 100.437103,516.001343 
	C109.272835,516.026611 117.671387,516.048279 126.069939,516.069946 
	C126.069939,516.069946 126.000053,515.997742 125.965660,515.961060 
z"/>
<path fill="#000000" opacity="1.000000" stroke="none" 
	d="
M460.965576,747.961060 
	C460.931152,756.056152 460.931152,764.187927 460.931152,772.659241 
	C444.070923,772.659241 427.253021,772.659241 410.005951,772.659241 
	C410.005951,764.719788 410.005951,756.794739 410.037354,748.397034 
	C410.068756,747.924377 409.999939,747.997742 410.437134,748.001343 
	C427.606201,748.026611 444.338074,748.048279 461.069946,748.069946 
	C461.069946,748.069946 460.999969,747.997742 460.965576,747.961060 
z"/>
<path fill="#000000" opacity="1.000000" stroke="none" 
	d="
M384.043060,77.965912 
	C375.615234,77.931641 367.150757,77.931641 358.343750,77.931641 
	C358.343750,69.516930 358.343750,61.127171 358.343750,52.368488 
	C366.556152,52.368488 375.060272,52.368488 383.994476,52.368488 
	C383.994476,60.614346 383.994476,68.871391 383.966095,77.600906 
	C383.937714,78.073372 384.006409,78.000183 384.043060,77.965912 
z"/>
<path fill="#000000" opacity="1.000000" stroke="none" 
	d="
M307.251251,77.722847 
	C298.672577,77.722847 290.093933,77.722847 280.992828,77.722847 
	C280.992828,69.499069 280.992828,61.269981 280.907288,52.617752 
	C280.821747,52.194607 280.749023,52.276901 280.749023,52.276901 
	C289.327606,52.276901 297.906219,52.276901 307.007172,52.276901 
	C307.007172,60.500912 307.007172,68.729919 307.092834,77.382034 
	C307.178528,77.805145 307.251251,77.722847 307.251251,77.722847 
z"/>
<path fill="#000000" opacity="1.000000" stroke="none" 
	d="
M254.926758,51.937710 
	C254.926758,60.399216 254.926758,68.860725 254.926758,77.660461 
	C246.509125,77.660461 238.120438,77.660461 229.365631,77.660461 
	C229.365631,69.441238 229.365631,60.937794 229.365631,52.006714 
	C237.614059,52.006714 245.869568,52.006714 254.562515,52.006561 
	C254.999939,52.006409 254.926758,51.937710 254.926758,51.937710 
z"/>
<path fill="#000000" opacity="1.000000" stroke="none" 
	d="
M49.034389,387.039062 
	C49.047840,378.673706 49.026897,370.271606 49.037346,361.396851 
	C49.068741,360.924164 48.999939,360.997589 49.437119,361.001282 
	C58.272842,361.026642 66.671387,361.048309 75.069939,361.069946 
	C75.069939,361.069946 75.000000,361.000000 74.997528,361.437134 
	C74.973389,370.272858 74.951721,378.671387 74.930061,387.069946 
	C74.930061,387.069946 75.000000,387.000000 74.562859,386.997559 
	C65.727165,386.973419 57.328613,386.951752 48.930061,386.930054 
	C48.930061,386.930054 48.999996,387.002380 49.034389,387.039062 
z"/>
<path fill="#000000" opacity="1.000000" stroke="none" 
	d="
M486.965515,154.956741 
	C486.952179,163.323532 486.973114,171.726974 486.962646,180.603119 
	C486.931244,181.075790 487.000061,181.002396 486.562866,180.998718 
	C477.725189,181.019730 469.324677,181.044388 460.959412,180.597229 
	C461.019745,171.726944 461.044830,163.328506 461.069946,154.930054 
	C461.069946,154.930054 460.997650,155.000000 460.960938,155.034393 
	C469.325531,155.047714 477.726868,155.026627 486.600586,155.033829 
	C487.072968,155.062103 486.999786,154.993408 486.965515,154.956741 
z"/>
<path fill="#000000" opacity="1.000000" stroke="none" 
	d="
M255.034210,52.043068 
	C255.068497,43.608345 255.068497,35.136959 255.068497,26.333481 
	C263.511871,26.333481 271.907959,26.333481 280.980164,26.333481 
	C280.980164,34.483894 280.980164,42.884159 280.864594,51.780663 
	C280.749023,52.276901 280.821747,52.194607 280.852509,52.159832 
	C272.546082,52.081524 264.208862,52.037987 255.399216,51.966080 
	C254.926758,51.937710 254.999939,52.006409 255.034210,52.043068 
z"/>
<path fill="#000000" opacity="1.000000" stroke="none" 
	d="
M744.956665,722.034119 
	C753.051636,722.068420 761.183228,722.068420 769.656799,722.068420 
	C769.656799,730.483765 769.656799,738.873047 769.656799,747.631470 
	C761.777100,747.631470 753.606445,747.631470 745.005493,747.631470 
	C745.005493,739.385010 745.005493,731.128357 745.033813,722.399170 
	C745.062073,721.926636 744.993347,721.999817 744.956665,722.034119 
z"/>
<path fill="#000000" opacity="1.000000" stroke="none" 
	d="
M538.043091,51.965950 
	C529.948181,51.931675 521.816589,51.931675 513.343140,51.931675 
	C513.343140,43.516125 513.343140,35.126770 513.343140,26.368492 
	C521.222900,26.368492 529.393616,26.368492 537.994507,26.368492 
	C537.994507,34.615150 537.994507,42.871803 537.966125,51.600933 
	C537.937744,52.073414 538.006470,52.000229 538.043091,51.965950 
z"/>
<path fill="#000000" opacity="1.000000" stroke="none" 
	d="
M608.931641,748.001038 
	C611.407166,748.001038 613.390991,748.001038 615.686401,748.001038 
	C615.686401,756.231812 615.686401,764.303101 615.686401,772.688232 
	C607.432495,772.688232 599.027649,772.688232 590.310425,772.688232 
	C590.310425,764.762817 590.310425,756.691345 590.310425,748.001038 
	C596.253296,748.001038 602.346619,748.001038 608.931641,748.001038 
z"/>
<path fill="#000000" opacity="1.000000" stroke="none" 
	d="
M745.033936,490.042908 
	C745.068237,481.615509 745.068237,473.151428 745.068237,464.344299 
	C753.148376,464.344299 761.205505,464.344299 769.631592,464.344299 
	C769.631592,472.555756 769.631592,481.059509 769.631592,489.994446 
	C761.719910,489.994446 753.795715,489.994446 745.398926,489.966003 
	C744.926453,489.937531 744.999634,490.006226 745.033936,490.042908 
z"/>
<path fill="#000000" opacity="1.000000" stroke="none" 
	d="
M307.034363,103.039101 
	C307.052490,94.955650 307.036194,86.835510 307.135559,78.219101 
	C307.251251,77.722847 307.178528,77.805145 307.147766,77.839920 
	C315.189270,77.874702 323.261505,77.874702 331.994049,77.874702 
	C331.994049,86.117630 331.994049,94.124031 331.962646,102.603104 
	C331.931244,103.075783 332.000031,103.002373 331.562866,102.998711 
	C323.060486,102.973389 314.995270,102.951729 306.930054,102.930061 
	C306.930054,102.930061 306.999939,103.002403 307.034363,103.039101 
z"/>
<path fill="#000000" opacity="1.000000" stroke="none" 
	d="
M744.960938,516.034302 
	C753.049438,516.068726 761.174622,516.068726 769.649292,516.068726 
	C769.649292,524.251709 769.649292,532.416565 769.649292,540.994080 
	C761.706360,540.994080 753.788025,540.994080 745.396973,540.962646 
	C744.924316,540.931274 744.997620,541.000061 745.001282,540.562866 
	C745.026611,532.060486 745.048279,523.995300 745.069946,515.930054 
	C745.069946,515.930054 744.997620,515.999939 744.960938,516.034302 
z"/>
<path fill="#000000" opacity="1.000000" stroke="none" 
	d="
M307.034393,232.039078 
	C307.047852,224.007034 307.026917,215.938293 307.037354,207.396881 
	C307.068756,206.924210 306.999939,206.997604 307.437134,207.001282 
	C315.939514,207.026611 324.004730,207.048279 332.069946,207.069946 
	C332.069946,207.069946 332.000000,207.000000 331.997528,207.437134 
	C331.973389,215.939499 331.951721,224.004730 331.930054,232.069946 
	C331.930054,232.069946 332.000000,232.000000 331.562866,231.997528 
	C323.060486,231.973404 314.995270,231.951736 306.930054,231.930054 
	C306.930054,231.930054 306.999969,232.002380 307.034393,232.039078 
z"/>
<path fill="#000000" opacity="1.000000" stroke="none" 
	d="
M746.231201,310.031616 
	C754.337830,310.005096 761.960876,310.005096 769.788452,310.005096 
	C769.788452,318.442993 769.788452,326.512939 769.788452,334.791199 
	C761.551147,334.791199 753.481262,334.791199 745.747559,334.791199 
	C745.747559,326.425354 745.747559,318.241730 746.231201,310.031616 
z"/>
<path fill="#FFFFFF" opacity="1.000000" stroke="none" 
	d="
M204.402130,516.037476 
	C203.955154,507.671509 203.980255,499.273071 204.003891,490.437256 
	C204.002426,489.999908 203.930054,490.069946 204.402130,490.037415 
	C221.452011,490.004913 238.029831,490.004913 255.159180,490.004913 
	C255.159180,498.904572 255.159180,507.426239 255.159180,516.069946 
	C272.832245,516.069946 289.951111,516.069946 307.034973,516.034973 
	C307.000000,516.000000 306.930054,515.930054 306.962585,516.402100 
	C306.995087,524.791870 306.995087,532.709473 306.995087,540.651367 
	C315.582764,540.651367 323.747803,540.651367 332.069946,540.651367 
	C332.069946,532.178772 332.069946,524.054382 332.034912,515.966187 
	C331.999878,516.002380 331.930969,516.075806 331.930969,516.075806 
	C383.329193,516.048889 434.727448,516.021973 486.597809,515.962524 
	C487.069946,524.074097 487.069946,532.218201 487.069946,540.753052 
	C478.457306,540.753052 470.051056,540.753052 461.324432,540.753052 
	C461.324432,549.533936 461.324432,557.936096 461.324432,566.670410 
	C478.188110,566.670410 495.248993,566.670410 512.702637,566.670410 
	C512.702637,558.509155 512.702637,550.103210 512.702637,541.349670 
	C521.147705,541.349670 529.218384,541.349670 537.645508,541.349670 
	C537.645508,558.257690 537.645508,575.434937 537.645508,593.006409 
	C529.530396,593.006409 521.456360,593.006409 513.003540,593.006409 
	C513.003540,601.792969 513.003540,610.199707 513.003540,618.797241 
	C504.213623,618.797241 495.814880,618.797241 487.024170,618.797241 
	C487.024170,610.228271 487.024170,601.821533 487.024170,593.053589 
	C461.248291,593.053589 435.859955,593.053589 409.994843,593.053589 
	C409.994843,584.419983 409.994843,576.150208 410.433197,567.437988 
	C418.796295,566.995544 426.721069,566.995544 434.632751,566.995544 
	C434.632751,558.059631 434.632751,549.555176 434.632751,541.342896 
	C426.206085,541.342896 418.148285,541.342896 410.068542,541.342896 
	C410.068542,550.150330 410.068542,558.614868 410.068542,567.079468 
	C401.597717,567.079468 393.126923,567.079468 384.273712,567.079468 
	C384.273712,575.518738 384.273712,583.918518 384.273712,592.657776 
	C375.509186,592.657776 367.111816,592.657776 358.153320,592.657776 
	C358.153320,584.421936 358.153320,575.896790 358.153320,567.193848 
	C349.201477,567.193848 340.808655,567.193848 331.994659,567.193848 
	C331.994659,584.291504 331.994659,601.208435 331.996155,618.562683 
	C331.997620,619.000061 332.069946,618.930054 331.597870,618.962524 
	C323.060547,618.973389 314.995300,618.951721 306.966217,618.965088 
	C307.002380,619.000061 307.075836,619.069031 307.075836,619.069031 
	C307.075836,610.597351 307.075836,602.125671 307.075836,593.270874 
	C298.478760,593.270874 290.078430,593.270874 281.296814,593.270874 
	C281.296814,584.504456 281.296814,576.105225 281.296814,567.322510 
	C272.532837,567.322510 264.132080,567.322510 255.172516,567.322510 
	C255.172516,558.441956 255.172516,549.916077 255.172516,541.021912 
	C246.223175,541.021912 237.821960,541.021912 229.047211,541.021912 
	C229.047211,532.583008 229.047211,524.514404 229.047211,516.004944 
	C220.738510,516.004944 212.806366,516.004944 204.402130,516.037476 
z"/>
<path fill="#FFFFFF" opacity="1.000000" stroke="none" 
	d="
M487.075867,464.069031 
	C487.075867,455.595795 487.075867,447.122528 487.075867,438.324829 
	C521.291687,438.324829 555.441284,438.324829 589.962830,438.324829 
	C589.962830,455.434723 589.962830,472.489838 589.962830,489.995056 
	C598.592468,489.995056 606.859070,489.995056 615.597839,489.962555 
	C616.069946,498.401245 616.069946,506.872437 616.069946,516.004944 
	C573.202698,516.004944 530.538513,516.004944 487.402222,516.037476 
	C486.955170,507.671509 486.980255,499.273041 487.003906,490.437256 
	C487.002411,489.999878 486.930054,490.069946 487.402161,490.037415 
	C504.451874,490.004913 521.029480,490.004913 537.643799,490.004913 
	C537.643799,481.089142 537.643799,472.580841 537.643799,463.930054 
	C520.501831,463.930054 503.715942,463.930054 486.966248,463.965088 
	C487.002441,464.000092 487.075867,464.069031 487.075867,464.069031 
z"/>
<path fill="#FFFFFF" opacity="1.000000" stroke="none" 
	d="
M307.402161,696.037476 
	C306.930054,687.602417 306.930054,679.134888 306.930054,670.290283 
	C298.495880,670.290283 290.100586,670.290283 281.353180,670.290283 
	C281.353180,653.092285 281.353180,636.266785 281.353180,619.004883 
	C289.608063,619.004883 297.869324,619.004883 306.603210,619.036987 
	C307.075836,619.069031 307.002380,619.000061 306.998718,619.437134 
	C306.995056,628.124756 306.995056,636.375244 306.995056,644.650879 
	C315.582764,644.650879 323.748138,644.650879 332.069946,644.650879 
	C332.069946,635.844727 332.069946,627.387390 332.069946,618.930054 
	C332.069946,618.930054 331.997620,619.000061 331.960876,619.034546 
	C340.382782,619.068970 348.841370,619.068970 357.839172,619.068970 
	C357.839172,627.577026 357.839172,636.088684 357.839172,645.005615 
	C366.622772,645.005615 374.873962,645.005615 383.562561,645.005859 
	C383.999908,645.006165 383.926666,644.937317 383.926666,644.937317 
	C383.926666,661.723022 383.926666,678.508728 383.926666,696.004944 
	C358.570465,696.004944 333.222351,696.004944 307.402161,696.037476 
z"/>
<path fill="#FFFFFF" opacity="1.000000" stroke="none" 
	d="
M567.164673,567.000122 
	C592.279724,567.000000 616.907654,567.000000 641.767090,567.000000 
	C641.767090,593.064026 641.767090,618.801147 641.767090,644.769409 
	C615.931274,644.769409 590.194153,644.769409 564.000000,644.769409 
	C564.000000,639.059937 564.000000,633.444824 564.000000,627.829651 
	C564.000000,608.831116 563.992371,589.832520 564.012146,570.833984 
	C564.014038,568.997375 563.225159,566.490234 567.164673,567.000122 
M613.319580,593.000183 
	C605.569702,593.000183 597.819824,593.000183 590.354492,593.000183 
	C590.354492,602.114258 590.354492,610.523376 590.354492,618.642456 
	C599.120422,618.642456 607.529785,618.642456 615.999939,618.642456 
	C615.999939,610.955627 616.071411,603.624817 615.923462,596.298401 
	C615.901062,595.189697 614.857605,594.101562 613.319580,593.000183 
z"/>
<path fill="#FFFFFF" opacity="1.000000" stroke="none" 
	d="
M461.037415,747.597900 
	C444.338074,748.048279 427.606201,748.026611 410.402191,748.037476 
	C409.930054,722.175598 409.930054,696.281189 409.930054,670.194458 
	C418.463226,670.194458 426.522217,670.194458 434.962524,670.194458 
	C434.962524,678.761719 434.962524,687.161133 434.962524,695.995056 
	C443.599152,695.995056 451.862427,695.995056 460.597839,695.962524 
	C461.048279,712.995300 461.026581,730.060547 461.037415,747.597900 
z"/>
<path fill="#FFFFFF" opacity="1.000000" stroke="none" 
	d="
M384.034241,645.042847 
	C384.068542,636.604797 384.068542,628.130066 384.068542,619.327881 
	C409.510071,619.327881 434.887512,619.327881 460.632721,619.327881 
	C460.632721,627.565979 460.632721,636.080322 460.632721,644.995544 
	C435.363495,644.995544 410.117554,644.995544 384.399109,644.966431 
	C383.926666,644.937317 383.999908,645.006165 384.034241,645.042847 
z"/>
<path fill="#FFFFFF" opacity="1.000000" stroke="none" 
	d="
M744.597900,515.962524 
	C745.048279,523.995300 745.026611,532.060486 745.037476,540.597839 
	C719.191589,541.069946 693.313293,541.069946 666.995056,541.069946 
	C666.995056,532.725464 666.995056,524.799866 666.962524,516.402161 
	C692.661987,515.951721 718.393860,515.973389 744.597900,515.962524 
z"/>
<path fill="#FFFFFF" opacity="1.000000" stroke="none" 
	d="
M719.051208,592.973450 
	C701.960754,592.939270 684.833740,592.939270 667.353394,592.939270 
	C667.353394,584.532898 667.353394,576.135254 667.353394,567.367920 
	C684.220520,567.367920 701.385376,567.367920 718.996033,567.367920 
	C718.996033,575.603394 718.996033,583.868530 718.971069,592.607178 
	C718.946045,593.080688 719.014587,593.007629 719.051208,592.973450 
z"/>
<path fill="#FFFFFF" opacity="1.000000" stroke="none" 
	d="
M281.402130,722.037476 
	C280.930054,713.623718 280.930054,705.177490 280.930054,695.995056 
	C289.403046,695.995056 297.764374,695.995056 306.597839,695.962524 
	C307.069946,704.376343 307.069946,712.822571 307.069946,722.004944 
	C298.596893,722.004944 290.235565,722.004944 281.402130,722.037476 
z"/>
<path fill="#FFFFFF" opacity="1.000000" stroke="none" 
	d="
M590.026550,696.051208 
	C590.060730,687.621155 590.060730,679.154480 590.060730,670.343994 
	C598.480164,670.343994 606.871338,670.343994 615.632080,670.343994 
	C615.632080,678.555908 615.632080,687.061279 615.632080,695.996033 
	C607.384033,695.996033 599.125244,695.996033 590.392822,695.971069 
	C589.919312,695.946045 589.992371,696.014587 590.026550,696.051208 
z"/>
<path fill="#FFFFFF" opacity="1.000000" stroke="none" 
	d="
M281.037415,747.597900 
	C272.612244,748.069946 264.154541,748.069946 255.348633,748.069946 
	C255.348633,739.414185 255.348633,730.915833 255.348633,721.995056 
	C263.624023,721.995056 271.874878,721.995056 280.597839,721.962524 
	C281.048248,730.328613 281.026581,738.727234 281.037415,747.597900 
z"/>
<path fill="#FFFFFF" opacity="1.000000" stroke="none" 
	d="
M641.962524,490.402130 
	C650.043701,489.930054 658.157349,489.930054 667.005005,489.930054 
	C667.005005,498.404633 667.005005,506.765198 667.037476,515.597839 
	C658.956299,516.069946 650.842651,516.069946 641.995056,516.069946 
	C641.995056,507.595337 641.995056,499.234772 641.962524,490.402130 
z"/>
<path fill="#FFFFFF" opacity="1.000000" stroke="none" 
	d="
M667.037476,412.597870 
	C624.198486,413.069946 581.327087,413.069946 537.994812,413.069946 
	C537.994812,404.407562 537.994812,396.144043 538.433228,387.438049 
	C555.787720,386.995514 572.703796,386.995514 589.632690,386.995514 
	C589.632690,378.073822 589.632690,369.562592 589.632690,361.332642 
	C572.216492,361.332642 555.168396,361.332642 538.068604,361.332642 
	C538.068604,370.136597 538.068604,378.608154 538.068604,387.079712 
	C529.929138,387.079712 521.789673,387.079712 513.265991,387.079712 
	C513.265991,378.474487 513.265991,370.072968 513.265991,361.337280 
	C504.497284,361.337280 496.098785,361.337280 487.313232,361.337280 
	C487.313232,369.477264 487.313232,377.878448 487.313232,386.639099 
	C461.441010,386.639099 435.950073,386.639099 410.005341,386.639099 
	C410.005341,378.405975 410.005341,370.140289 410.003876,361.437256 
	C410.002411,360.999878 409.930054,361.069946 410.402130,361.037415 
	C418.792175,361.004913 426.710144,361.004913 434.651886,361.004913 
	C434.651886,352.083862 434.651886,343.586212 434.651886,334.930054 
	C426.179504,334.930054 418.054779,334.930054 409.966248,334.965088 
	C410.002441,335.000092 410.075867,335.069031 410.075867,335.069031 
	C410.075867,326.923492 410.075867,318.777924 410.075867,310.251953 
	C435.548492,310.251953 460.942596,310.251953 486.667725,310.251953 
	C486.667725,301.480408 486.667725,293.076111 486.667725,284.274872 
	C478.487122,284.274872 470.079041,284.274872 461.336975,284.274872 
	C461.336975,275.490143 461.336975,267.085632 461.336975,258.284271 
	C469.503540,258.284271 477.911194,258.284271 486.711029,258.284271 
	C486.711029,249.501678 486.711029,241.093628 486.711029,232.344040 
	C503.829102,232.344040 520.561035,232.344040 537.646973,232.344040 
	C537.646973,240.476089 537.646973,248.881577 537.646973,257.683868 
	C529.863281,257.683868 521.788269,257.683868 513.357483,257.683868 
	C513.357483,283.585358 513.357483,309.095123 513.357483,334.980530 
	C547.452637,334.980530 581.508118,334.980530 615.948486,334.980530 
	C615.948486,352.414825 615.948486,369.480835 615.948486,386.930206 
	C633.062622,386.930206 649.795898,386.930206 667.004944,386.930206 
	C667.004944,395.581451 667.004944,403.853638 667.037476,412.597870 
z"/>
<path fill="#FFFFFF" opacity="1.000000" stroke="none" 
	d="
M281.075867,413.069031 
	C281.075867,361.531860 281.075867,309.994690 281.075867,257.995056 
	C289.593506,257.995056 297.859619,257.995056 306.597839,257.962555 
	C307.069946,283.378906 307.069946,308.827759 307.069946,334.837708 
	C315.234039,334.837708 323.427765,334.837708 331.989258,334.837708 
	C331.989258,343.788300 331.989258,352.189636 331.989258,360.995056 
	C349.288483,360.995056 366.207062,360.995056 383.597809,360.962555 
	C384.069946,369.406036 384.069946,377.882019 384.069946,386.747131 
	C375.463013,386.747131 367.057892,386.747131 358.328247,386.747131 
	C358.328247,395.524811 358.328247,403.926025 358.328247,412.719604 
	C366.509308,412.719604 374.913696,412.719604 383.694763,412.719604 
	C383.694763,429.826660 383.694763,446.553833 383.694763,463.670776 
	C392.457062,463.670776 400.862091,463.670776 409.632751,463.670776 
	C409.632751,472.568298 409.632751,481.084686 409.632751,489.802795 
	C392.544556,489.802795 375.487976,489.802795 358.041321,489.802795 
	C358.041321,481.245331 358.041321,472.839874 358.041321,463.994659 
	C341.061768,463.994659 324.468170,463.994659 307.437256,463.996124 
	C306.999878,463.997589 307.069946,464.069946 307.037445,463.597839 
	C307.004944,454.865387 307.004944,446.605103 307.004944,437.974854 
	C315.494019,437.974854 323.557861,437.974854 331.641418,437.974854 
	C331.641418,429.417328 331.641418,421.242004 331.641418,412.930054 
	C314.498657,412.930054 297.714355,412.930054 280.966248,412.965088 
	C281.002441,413.000092 281.075867,413.069031 281.075867,413.069031 
z"/>
<path fill="#FFFFFF" opacity="1.000000" stroke="none" 
	d="
M460.597839,154.962555 
	C461.044830,163.328506 461.019745,171.726944 460.996155,180.562744 
	C460.997620,181.000107 461.069946,180.930054 460.597839,180.962555 
	C451.874939,180.995056 443.624084,180.995056 435.348633,180.995056 
	C435.348633,189.915802 435.348633,198.414139 435.348633,207.069946 
	C444.154602,207.069946 452.612274,207.069946 461.033752,207.034943 
	C460.997559,206.999939 460.924133,206.931015 460.924133,206.931015 
	C460.924133,215.065735 460.924133,223.200455 460.924133,231.667480 
	C435.398315,231.667480 409.922363,231.667480 384.005341,231.667480 
	C384.005341,223.731262 384.005341,215.802948 384.003845,207.437256 
	C384.002380,206.999893 383.930054,207.069946 384.402161,207.037445 
	C393.125061,207.004944 401.375916,207.004944 409.651367,207.004944 
	C409.651367,198.084198 409.651367,189.585861 409.651367,180.930054 
	C400.845398,180.930054 392.387726,180.930054 383.966248,180.965057 
	C384.002441,181.000061 384.075867,181.068985 384.075867,181.068985 
	C384.075867,172.596436 384.075867,164.123901 384.075867,155.266998 
	C375.475555,155.266998 367.074036,155.266998 358.337738,155.266998 
	C358.337738,146.498184 358.337738,138.099594 358.337738,129.349457 
	C383.582489,129.349457 409.073456,129.349457 434.951080,129.349457 
	C434.951080,137.748566 434.951080,146.150620 434.951080,154.995056 
	C443.594177,154.995056 451.859985,154.995056 460.597839,154.962555 
z"/>
<path fill="#FFFFFF" opacity="1.000000" stroke="none" 
	d="
M572.000000,310.000000 
	C560.524475,310.000000 549.548950,310.000000 538.287354,310.000000 
	C538.287354,301.383545 538.287354,292.978485 538.287354,284.285187 
	C563.955078,284.285187 589.689575,284.285187 615.712524,284.285187 
	C615.712524,292.616364 615.712524,301.021423 615.712524,310.000000 
	C601.356323,310.000000 586.928162,310.000000 572.000000,310.000000 
z"/>
<path fill="#FFFFFF" opacity="1.000000" stroke="none" 
	d="
M331.746216,258.279724 
	C349.001038,258.279724 366.255829,258.279724 383.755249,258.279724 
	C383.755249,266.695099 383.755249,275.089142 383.755249,283.742615 
	C366.674866,283.742615 349.625458,283.742615 331.991608,283.742615 
	C331.991608,275.543549 331.991608,267.293182 331.905457,258.619995 
	C331.819305,258.197174 331.746216,258.279724 331.746216,258.279724 
z"/>
<path fill="#FFFFFF" opacity="1.000000" stroke="none" 
	d="
M358.402130,207.037445 
	C357.930054,198.623138 357.930054,190.176331 357.930054,181.004898 
	C366.405518,181.004898 374.768066,181.004898 383.603210,181.036942 
	C384.075867,181.068985 384.002441,181.000061 383.998749,181.437164 
	C383.973389,190.272842 383.951721,198.671387 383.930054,207.069946 
	C383.930054,207.069946 384.002380,206.999893 384.039124,206.965454 
	C375.675293,206.955643 367.274750,206.980301 358.402130,207.037445 
z"/>
<path fill="#FFFFFF" opacity="1.000000" stroke="none" 
	d="
M410.039124,360.965393 
	C401.675323,360.955597 393.274811,360.980255 384.402161,361.037445 
	C383.955231,352.671570 383.980438,344.273193 384.005981,335.437469 
	C384.006317,335.000122 383.937500,335.073334 383.937500,335.073334 
	C392.335205,335.050507 400.732880,335.027710 409.603210,335.036957 
	C410.075867,335.069031 410.002441,335.000092 409.998749,335.437195 
	C409.973389,344.272858 409.951721,352.671387 409.930054,361.069946 
	C409.930054,361.069946 410.002411,360.999878 410.039124,360.965393 
z"/>
<path fill="#FFFFFF" opacity="1.000000" stroke="none" 
	d="
M460.960876,181.034576 
	C469.324677,181.044388 477.725189,181.019730 486.597839,180.962555 
	C487.069946,189.376862 487.069946,197.823669 487.069946,206.995102 
	C478.594482,206.995102 470.231934,206.995102 461.396790,206.963058 
	C460.924133,206.931015 460.997559,206.999939 461.001251,206.562836 
	C461.026611,197.727158 461.048279,189.328613 461.069946,180.930054 
	C461.069946,180.930054 460.997620,181.000107 460.960876,181.034576 
z"/>
<path fill="#FFFFFF" opacity="1.000000" stroke="none" 
	d="
M306.962585,232.402130 
	C314.995270,231.951736 323.060486,231.973404 331.597809,231.962555 
	C332.040283,240.382294 332.010620,248.834534 331.863586,257.783264 
	C331.746216,258.279724 331.819305,258.197174 331.850037,258.162292 
	C323.878601,258.086578 315.876434,258.045776 307.402161,258.037445 
	C306.951721,249.671371 306.973389,241.272781 306.962585,232.402130 
z"/>
<path fill="#FFFFFF" opacity="1.000000" stroke="none" 
	d="
M384.042969,334.965790 
	C375.615051,334.931458 367.150452,334.931458 358.342987,334.931458 
	C358.342987,326.851837 358.342987,318.794098 358.342987,310.367310 
	C366.555176,310.367310 375.059570,310.367310 383.995514,310.367310 
	C383.995514,318.278931 383.995514,326.203705 383.966492,334.600891 
	C383.937500,335.073334 384.006317,335.000122 384.042969,334.965790 
z"/>
<path fill="#FFFFFF" opacity="1.000000" stroke="none" 
	d="
M667.000000,296.999573 
	C667.000000,301.473541 667.000000,305.450134 667.000000,309.712463 
	C658.718811,309.712463 650.647949,309.712463 642.287048,309.712463 
	C642.287048,301.384125 642.287048,292.980255 642.287048,284.286682 
	C650.282959,284.286682 658.353760,284.286682 667.000000,284.286682 
	C667.000000,288.299438 667.000000,292.400818 667.000000,296.999573 
z"/>
<path fill="#FFFFFF" opacity="1.000000" stroke="none" 
	d="
M332.402161,232.037445 
	C331.951721,224.004730 331.973389,215.939499 331.962555,207.402176 
	C340.328613,206.951736 348.727142,206.973404 357.597839,206.962555 
	C358.069946,215.043716 358.069946,223.157379 358.069946,232.004944 
	C349.595337,232.004944 341.234772,232.004944 332.402161,232.037445 
z"/>
<path fill="#FFFFFF" opacity="1.000000" stroke="none" 
	d="
M487.039124,489.965393 
	C469.941254,489.930939 452.806671,489.930939 435.294983,489.930939 
	C435.294983,472.828918 435.294983,455.769531 435.294983,438.321472 
	C426.867188,438.321472 418.795410,438.321472 410.362610,438.321472 
	C410.362610,429.757690 410.362610,421.574219 410.362610,413.193054 
	C427.130096,413.193054 443.852875,413.193054 460.953430,413.193054 
	C460.953430,430.089691 460.953430,446.815948 460.953430,464.004883 
	C469.592163,464.004883 477.861389,464.004883 486.603210,464.036957 
	C487.075867,464.069031 487.002441,464.000092 486.998779,464.437195 
	C486.973419,473.272858 486.951752,481.671387 486.930054,490.069946 
	C486.930054,490.069946 487.002411,489.999878 487.039124,489.965393 
z"/>
<path fill="#FFFFFF" opacity="1.000000" stroke="none" 
	d="
M306.965393,463.960876 
	C306.952179,472.324585 306.973419,480.724976 306.996124,489.562744 
	C306.997589,490.000122 307.069946,489.930054 306.597839,489.962555 
	C297.764191,489.995056 289.402649,489.995056 281.069946,489.995056 
	C281.069946,480.822418 281.069946,472.376221 281.034973,463.965027 
	C281.000000,464.000000 280.930054,464.069946 281.402130,464.037415 
	C290.272797,464.026581 298.671356,464.048279 307.069946,464.069946 
	C307.069946,464.069946 306.999878,463.997589 306.965393,463.960876 
z"/>
<path fill="#FFFFFF" opacity="1.000000" stroke="none" 
	d="
M306.960876,490.034607 
	C315.039581,490.069061 323.154999,490.069061 331.995117,490.069061 
	C331.995117,498.405609 331.995117,506.768127 331.963043,515.603210 
	C331.930969,516.075806 331.999878,516.002380 331.562805,515.998718 
	C323.060486,515.973389 314.995270,515.951721 306.930054,515.930054 
	C306.930054,515.930054 307.000000,516.000000 307.002472,515.562866 
	C307.026611,506.727173 307.048279,498.328613 307.069946,489.930054 
	C307.069946,489.930054 306.997589,490.000122 306.960876,490.034607 
z"/>
<path fill="#FCFCFC" opacity="1.000000" stroke="none" 
	d="
M704.999878,180.834259 
	C675.210938,180.834244 645.922058,180.834244 616.316345,180.834244 
	C616.316345,137.869843 616.316345,95.173775 616.316345,52.237808 
	C659.026428,52.237808 701.737427,52.237808 744.689331,52.237808 
	C744.689331,94.934219 744.689331,137.509644 744.689331,180.834259 
	C731.661865,180.834259 718.580872,180.834259 704.999878,180.834259 
M641.571411,132.499756 
	C641.571411,139.910431 641.571411,147.321106 641.571411,154.630432 
	C667.688843,154.630432 693.218933,154.630432 718.594299,154.630432 
	C718.594299,128.855667 718.594299,103.450821 718.594299,78.186371 
	C692.762085,78.186371 667.225586,78.186371 641.571350,78.186371 
	C641.571350,96.206596 641.571350,113.853157 641.571411,132.499756 
z"/>
<path fill="#FCFCFC" opacity="1.000000" stroke="none" 
	d="
M85.999931,180.836288 
	C73.544632,180.836288 61.589340,180.836288 49.401749,180.836288 
	C49.401749,137.792511 49.401749,95.203796 49.401749,52.305912 
	C92.163643,52.305912 134.878983,52.305912 177.798920,52.305912 
	C177.798920,94.988449 177.798920,137.592789 177.798920,180.836288 
	C147.355469,180.836288 116.927704,180.836288 85.999931,180.836288 
M74.814224,149.431427 
	C74.814224,151.192719 74.814224,152.954010 74.814224,154.646286 
	C100.877724,154.646286 126.394417,154.646286 151.736465,154.646286 
	C151.736465,128.885468 151.736465,103.477119 151.736465,78.184235 
	C125.957283,78.184235 100.441505,78.184235 74.814224,78.184235 
	C74.814224,101.852058 74.814224,125.150055 74.814224,149.431427 
z"/>
<path fill="#FCFCFC" opacity="1.000000" stroke="none" 
	d="
M49.160194,652.999878 
	C49.160198,641.523743 49.160198,630.547668 49.160198,619.199219 
	C92.117119,619.199219 134.820450,619.199219 177.752167,619.199219 
	C177.752167,661.859131 177.752167,704.579895 177.752167,747.500610 
	C134.912994,747.500610 92.327103,747.500610 49.160194,747.500610 
	C49.160194,716.031738 49.160194,684.765808 49.160194,652.999878 
M151.997986,705.497681 
	C151.997986,685.234192 151.997986,664.970764 151.997986,644.815063 
	C126.029709,644.815063 100.620270,644.815063 75.144135,644.815063 
	C75.144135,670.583069 75.144135,696.102173 75.144135,721.632690 
	C100.866020,721.632690 126.257507,721.632690 151.997986,721.632690 
	C151.997986,716.422424 151.997986,711.459167 151.997986,705.497681 
z"/>
<path fill="#FFFFFF" opacity="1.000000" stroke="none" 
	d="
M48.962555,387.402161 
	C57.328613,386.951752 65.727165,386.973419 74.597824,386.962585 
	C75.069939,395.402466 75.069939,403.874878 75.069939,412.673492 
	C117.940071,412.673492 160.741196,412.673492 203.995056,412.673492 
	C203.995056,404.405426 203.995056,396.139862 203.962555,387.402161 
	C212.061813,386.930054 220.193573,386.930054 228.697388,386.930054 
	C228.697388,395.492401 228.697388,403.885254 228.697388,413.004883 
	C246.083359,413.004883 263.106964,413.004883 280.603210,413.036957 
	C281.075867,413.069031 281.002441,413.000092 280.998718,413.437195 
	C280.973358,430.606201 280.951691,447.338074 280.930054,464.069946 
	C280.930054,464.069946 281.000000,464.000000 280.562836,463.997528 
	C263.206940,463.995056 246.288208,463.995056 228.988785,463.995056 
	C228.988785,455.189148 228.988785,446.787720 228.988785,438.327179 
	C203.114578,438.327179 177.625763,438.327179 151.930054,438.327179 
	C151.930054,447.125793 151.930054,455.597870 151.965057,464.033752 
	C152.000061,463.997559 152.068985,463.924133 152.068985,463.924133 
	C143.597275,463.924133 135.125565,463.924133 126.270264,463.924133 
	C126.270264,455.478271 126.270264,447.077789 126.270264,438.153900 
	C100.402481,438.153900 74.909492,438.153900 48.995052,438.153900 
	C48.995052,421.045502 48.995052,404.459869 48.962555,387.402161 
z"/>
<path fill="#FFFFFF" opacity="1.000000" stroke="none" 
	d="
M255.000000,318.052307 
	C255.000000,332.514984 255.000000,346.485901 255.000000,360.727722 
	C246.352203,360.727722 237.947144,360.727722 229.269852,360.727722 
	C229.269852,344.012909 229.269852,327.276550 229.269852,310.269409 
	C237.653732,310.269409 246.058716,310.269409 255.000000,310.269409 
	C255.000000,312.686035 255.000000,315.123291 255.000000,318.052307 
z"/>
<path fill="#FFFFFF" opacity="1.000000" stroke="none" 
	d="
M229.000000,272.984619 
	C229.000000,267.845520 229.000000,263.203491 229.000000,258.282349 
	C237.625427,258.282349 246.029343,258.282349 254.718170,258.282349 
	C254.718170,266.626709 254.718170,275.030579 254.718170,283.718628 
	C246.372284,283.718628 237.968430,283.718628 229.000000,283.718628 
	C229.000000,280.357361 229.000000,276.919525 229.000000,272.984619 
z"/>
<path fill="#FFFFFF" opacity="1.000000" stroke="none" 
	d="
M204.037445,386.597839 
	C195.623703,387.069946 187.177460,387.069946 177.995056,387.069946 
	C177.995056,378.596924 177.995056,370.235626 177.962555,361.402161 
	C186.376282,360.930054 194.822525,360.930054 204.004944,360.930054 
	C204.004944,369.403107 204.004944,377.764435 204.037445,386.597839 
z"/>
<path fill="#FFFFFF" opacity="1.000000" stroke="none" 
	d="
M178.402130,541.037476 
	C177.930054,532.956299 177.930054,524.842651 177.930054,515.995056 
	C186.404633,515.995056 194.765167,515.995056 203.597824,515.962524 
	C204.069946,524.043701 204.069946,532.157410 204.069946,541.004944 
	C195.595322,541.004944 187.234756,541.004944 178.402130,541.037476 
z"/>
<path fill="#FFFFFF" opacity="1.000000" stroke="none" 
	d="
M306.962555,103.402130 
	C314.995270,102.951729 323.060486,102.973389 331.597839,102.962555 
	C332.069946,120.048912 332.069946,137.167770 332.069946,154.643219 
	C323.753082,154.643219 315.577393,154.643219 306.995056,154.643219 
	C306.995056,137.695343 306.995056,120.784767 306.962555,103.402130 
z"/>
<path fill="#FFFFFF" opacity="1.000000" stroke="none" 
	d="
M332.037415,206.597870 
	C324.004730,207.048279 315.939514,207.026611 307.402161,207.037445 
	C306.930054,198.612610 306.930054,190.155289 306.930054,181.349121 
	C315.251892,181.349121 323.417572,181.349121 332.004913,181.349121 
	C332.004913,189.624786 332.004913,197.875290 332.037415,206.597870 
z"/>
<path fill="#FFFFFF" opacity="1.000000" stroke="none" 
	d="
M204.039154,489.965454 
	C186.855103,489.930969 169.634323,489.930969 152.004898,489.930969 
	C152.004898,481.375977 152.004898,473.122681 152.036942,464.396790 
	C152.068985,463.924133 152.000061,463.997559 152.437180,464.001251 
	C169.886108,464.004944 186.897903,464.004944 203.930054,464.004944 
	C203.930054,473.152466 203.930054,481.611206 203.930054,490.069946 
	C203.930054,490.069946 204.002426,489.999908 204.039154,489.965454 
z"/>
<path fill="#FFFFFF" opacity="1.000000" stroke="none" 
	d="
M126.037445,515.597900 
	C117.671387,516.048279 109.272835,516.026611 100.402176,516.037476 
	C99.930061,507.612274 99.930061,499.154602 99.930061,490.348633 
	C108.585892,490.348633 117.083847,490.348633 126.004951,490.348633 
	C126.004951,498.624084 126.004951,506.874939 126.037445,515.597900 
z"/>
<path fill="#FFFFFF" opacity="1.000000" stroke="none" 
	d="
M75.402130,387.037445 
	C74.951721,378.671387 74.973389,370.272858 74.962555,361.402161 
	C100.328606,360.951721 125.727158,360.973389 151.597824,360.962555 
	C152.069946,369.394989 152.069946,377.859924 152.069946,387.004944 
	C126.550209,387.004944 101.212204,387.004944 75.402130,387.037445 
z"/>
<path fill="#FFFFFF" opacity="1.000000" stroke="none" 
	d="
M49.026493,284.051117 
	C49.060677,275.621094 49.060677,267.154449 49.060677,258.343964 
	C57.480427,258.343964 65.871529,258.343964 74.632111,258.343964 
	C74.632111,266.556000 74.632111,275.061340 74.632111,283.996033 
	C66.383942,283.996033 58.125118,283.996033 49.392769,283.971008 
	C48.919247,283.945984 48.992310,284.014496 49.026493,284.051117 
z"/>
<path fill="#FFFFFF" opacity="1.000000" stroke="none" 
	d="
M75.037445,360.597870 
	C66.671387,361.048309 58.272842,361.026642 49.402176,361.037476 
	C48.930061,352.612274 48.930061,344.154602 48.930061,335.348633 
	C57.585880,335.348633 66.084206,335.348633 75.004951,335.348633 
	C75.004951,343.624084 75.004951,351.874939 75.037445,360.597870 
z"/>
<path fill="#FFFFFF" opacity="1.000000" stroke="none" 
	d="
M512.949402,103.025993 
	C521.046448,103.060173 529.180115,103.060173 537.656799,103.060173 
	C537.656799,111.481606 537.656799,119.872368 537.656799,128.632355 
	C529.777222,128.632355 521.604675,128.632355 513.003967,128.632355 
	C513.003967,120.382858 513.003967,112.124382 513.029236,103.392319 
	C513.054504,102.918732 512.986023,102.991814 512.949402,103.025993 
z"/>
<path fill="#000000" opacity="1.000000" stroke="none" 
	d="
M204.402130,490.037415 
	C203.930054,481.611206 203.930054,473.152466 203.930054,464.004944 
	C186.897903,464.004944 169.886108,464.004944 152.402176,464.037445 
	C151.930054,455.597870 151.930054,447.125793 151.930054,438.327179 
	C177.625763,438.327179 203.114578,438.327179 228.988785,438.327179 
	C228.988785,446.787720 228.988785,455.189148 228.988785,463.995056 
	C246.288208,463.995056 263.206940,463.995056 280.597809,463.962555 
	C281.069946,472.376221 281.069946,480.822418 281.069946,489.995056 
	C289.402649,489.995056 297.764191,489.995056 306.597839,489.962555 
	C307.048279,498.328613 307.026611,506.727173 307.037445,515.597839 
	C289.951111,516.069946 272.832245,516.069946 255.159180,516.069946 
	C255.159180,507.426239 255.159180,498.904572 255.159180,490.004913 
	C238.029831,490.004913 221.452011,490.004913 204.402130,490.037415 
z"/>
<path fill="#000000" opacity="1.000000" stroke="none" 
	d="
M331.597870,618.962524 
	C332.069946,627.387390 332.069946,635.844727 332.069946,644.650879 
	C323.748138,644.650879 315.582764,644.650879 306.995056,644.650879 
	C306.995056,636.375244 306.995056,628.124756 306.962555,619.402161 
	C314.995300,618.951721 323.060547,618.973389 331.597870,618.962524 
z"/>
<path fill="#000000" opacity="1.000000" stroke="none" 
	d="
M410.034241,567.042847 
	C410.068542,558.614868 410.068542,550.150330 410.068542,541.342896 
	C418.148285,541.342896 426.206085,541.342896 434.632751,541.342896 
	C434.632751,549.555176 434.632751,558.059631 434.632751,566.995544 
	C426.721069,566.995544 418.796295,566.995544 410.399109,566.966431 
	C409.926666,566.937317 409.999908,567.006165 410.034241,567.042847 
z"/>
<path fill="#000000" opacity="1.000000" stroke="none" 
	d="
M306.962585,516.402100 
	C314.995270,515.951721 323.060486,515.973389 331.597839,515.962524 
	C332.069946,524.054382 332.069946,532.178772 332.069946,540.651367 
	C323.747803,540.651367 315.582764,540.651367 306.995087,540.651367 
	C306.995087,532.709473 306.995087,524.791870 306.962585,516.402100 
z"/>
<path fill="#000000" opacity="1.000000" stroke="none" 
	d="
M487.402161,490.037415 
	C486.951752,481.671387 486.973419,473.272858 486.962585,464.402161 
	C503.715942,463.930054 520.501831,463.930054 537.643799,463.930054 
	C537.643799,472.580841 537.643799,481.089142 537.643799,490.004913 
	C521.029480,490.004913 504.451874,490.004913 487.402161,490.037415 
z"/>
<path fill="#000000" opacity="1.000000" stroke="none" 
	d="
M613.802979,593.002075 
	C614.857605,594.101562 615.901062,595.189697 615.923462,596.298401 
	C616.071411,603.624817 615.999939,610.955627 615.999939,618.642456 
	C607.529785,618.642456 599.120422,618.642456 590.354492,618.642456 
	C590.354492,610.523376 590.354492,602.114258 590.354492,593.000183 
	C597.819824,593.000183 605.569702,593.000183 613.802979,593.002075 
z"/>
<path fill="#000000" opacity="1.000000" stroke="none" 
	d="
M538.034302,387.043030 
	C538.068604,378.608154 538.068604,370.136597 538.068604,361.332642 
	C555.168396,361.332642 572.216492,361.332642 589.632690,361.332642 
	C589.632690,369.562592 589.632690,378.073822 589.632690,386.995514 
	C572.703796,386.995514 555.787720,386.995514 538.399170,386.966522 
	C537.926758,386.937531 537.999939,387.006348 538.034302,387.043030 
z"/>
<path fill="#000000" opacity="1.000000" stroke="none" 
	d="
M410.402130,361.037415 
	C409.951721,352.671387 409.973389,344.272858 409.962555,335.402161 
	C418.054779,334.930054 426.179504,334.930054 434.651886,334.930054 
	C434.651886,343.586212 434.651886,352.083862 434.651886,361.004913 
	C426.710144,361.004913 418.792175,361.004913 410.402130,361.037415 
z"/>
<path fill="#000000" opacity="1.000000" stroke="none" 
	d="
M281.402100,464.037415 
	C280.951691,447.338074 280.973358,430.606201 280.962524,413.402191 
	C297.714355,412.930054 314.498657,412.930054 331.641418,412.930054 
	C331.641418,421.242004 331.641418,429.417328 331.641418,437.974854 
	C323.557861,437.974854 315.494019,437.974854 307.004944,437.974854 
	C307.004944,446.605103 307.004944,454.865387 307.037445,463.597839 
	C298.671356,464.048279 290.272797,464.026581 281.402100,464.037415 
z"/>
<path fill="#000000" opacity="1.000000" stroke="none" 
	d="
M384.402161,207.037445 
	C383.951721,198.671387 383.973389,190.272842 383.962555,181.402161 
	C392.387726,180.930054 400.845398,180.930054 409.651367,180.930054 
	C409.651367,189.585861 409.651367,198.084198 409.651367,207.004944 
	C401.375916,207.004944 393.125061,207.004944 384.402161,207.037445 
z"/>
<path fill="#000000" opacity="1.000000" stroke="none" 
	d="
M460.597839,180.962555 
	C461.048279,189.328613 461.026611,197.727158 461.037445,206.597839 
	C452.612274,207.069946 444.154602,207.069946 435.348633,207.069946 
	C435.348633,198.414139 435.348633,189.915802 435.348633,180.995056 
	C443.624084,180.995056 451.874939,180.995056 460.597839,180.962555 
z"/>
<path fill="#010101" opacity="1.000000" stroke="none" 
	d="
M641.571411,131.999741 
	C641.571350,113.853157 641.571350,96.206596 641.571350,78.186371 
	C667.225586,78.186371 692.762085,78.186371 718.594299,78.186371 
	C718.594299,103.450821 718.594299,128.855667 718.594299,154.630432 
	C693.218933,154.630432 667.688843,154.630432 641.571411,154.630432 
	C641.571411,147.321106 641.571411,139.910431 641.571411,131.999741 
z"/>
<path fill="#000000" opacity="1.000000" stroke="none" 
	d="
M74.814224,148.939743 
	C74.814224,125.150055 74.814224,101.852058 74.814224,78.184235 
	C100.441505,78.184235 125.957283,78.184235 151.736465,78.184235 
	C151.736465,103.477119 151.736465,128.885468 151.736465,154.646286 
	C126.394417,154.646286 100.877724,154.646286 74.814224,154.646286 
	C74.814224,152.954010 74.814224,151.192719 74.814224,148.939743 
z"/>
<path fill="#010101" opacity="1.000000" stroke="none" 
	d="
M151.997986,705.996826 
	C151.997986,711.459167 151.997986,716.422424 151.997986,721.632690 
	C126.257507,721.632690 100.866020,721.632690 75.144135,721.632690 
	C75.144135,696.102173 75.144135,670.583069 75.144135,644.815063 
	C100.620270,644.815063 126.029709,644.815063 151.997986,644.815063 
	C151.997986,664.970764 151.997986,685.234192 151.997986,705.996826 
z"/>
</svg>