<svg version="1.1" id="Layer_1" xmlns="http://www.w3.org/2000/svg" xmlns:xlink="http://www.w3.org/1999/xlink" x="0px" y="0px"
	 width="100%" viewBox="0 0 800 800" enable-background="new 0 0 800 800" xml:space="preserve">
<path fill="#FEFEFE" opacity="1.000000" stroke="none" 
	d="
M1.000000,215.000000 
	C1.000000,143.333328 1.000000,72.166664 1.000000,1.000000 
	C267.666656,1.000000 534.333313,1.000000 801.000000,1.000000 
	C801.000000,267.666656 801.000000,534.333313 801.000000,801.000000 
	C534.333313,801.000000 267.666656,801.000000 1.000000,801.000000 
	C1.000000,605.833313 1.000000,410.666656 1.000000,215.000000 
M386.005890,721.869690 
	C386.005890,730.232483 386.005890,738.595337 386.005890,746.931152 
	C395.180511,746.931152 403.628143,746.931152 412.006348,747.874817 
	C412.006348,755.799133 412.006348,763.723389 412.006348,771.658875 
	C429.255157,771.658875 446.072510,771.658875 462.931122,771.658875 
	C462.931122,763.187439 462.931122,755.055908 463.874847,746.993652 
	C497.782471,746.993652 531.690063,746.993652 565.634155,746.993652 
	C565.634155,738.087585 565.634155,729.571655 565.634155,720.700928 
	C539.887329,720.700928 514.504761,720.700928 488.739624,720.700928 
	C488.739624,711.936218 488.739624,703.531982 488.739624,695.068848 
	C479.875427,695.068848 471.399841,695.068848 462.993652,694.125183 
	C462.993652,685.859070 462.993652,677.592896 462.993652,668.949097 
	C471.849213,668.949097 480.251495,668.949097 489.026947,668.949097 
	C489.026947,660.504883 489.026947,652.436096 489.026947,644.194092 
	C497.808105,644.194092 506.202881,644.194092 515.160217,644.194092 
	C515.160217,652.567505 515.160217,660.762268 515.160217,669.313477 
	C523.790344,669.313477 531.859558,669.313477 540.293579,669.313477 
	C540.293579,678.099121 540.293579,686.501038 540.293579,695.087585 
	C557.806519,695.087585 574.934082,695.087585 591.993347,695.014343 
	C591.993347,695.014343 591.920288,694.945801 591.995361,695.887329 
	C591.995361,704.157043 591.995361,712.426758 591.995361,720.769531 
	C609.544861,720.769531 626.605164,720.769531 644.048401,720.769531 
	C644.048401,703.480713 644.048401,686.417114 644.048401,668.965820 
	C652.495911,668.965820 660.570618,668.965820 669.016235,668.965820 
	C669.016235,651.847046 669.016235,635.116028 669.016235,618.195190 
	C677.800415,618.195190 686.200073,618.195190 695.160889,618.195190 
	C695.160889,635.235779 695.160889,652.089050 695.160889,668.658691 
	C721.112244,668.658691 746.501770,668.658691 771.670227,668.658691 
	C771.670227,651.588074 771.670227,634.859070 771.670227,617.752563 
	C754.612366,617.752563 737.881287,617.752563 721.087585,617.752563 
	C721.087585,608.891663 721.087585,600.414978 721.014343,592.006653 
	C721.014343,592.006653 720.945801,592.079712 721.887329,592.004639 
	C730.136719,592.004639 738.386169,592.004639 746.924316,592.004639 
	C746.924316,574.362366 746.924316,557.146790 747.869690,539.994141 
	C755.788086,539.994141 763.706421,539.994141 771.649414,539.994141 
	C771.649414,531.416931 771.649414,523.251709 771.649414,515.068726 
	C763.174683,515.068726 755.049500,515.068726 746.993652,514.125061 
	C746.993652,505.857086 746.993652,497.589111 746.993652,488.940491 
	C755.523621,488.940491 763.595093,488.940491 771.783142,488.940491 
	C771.783142,480.154297 771.783142,471.757996 771.783142,463.196289 
	C754.846069,463.196289 738.125061,463.196289 720.839417,463.196289 
	C720.839417,471.904541 720.839417,480.433685 720.839417,488.647095 
	C711.871094,488.647095 703.469360,488.647095 694.696533,488.647095 
	C694.696533,479.891479 694.696533,471.489594 694.696533,463.325806 
	C677.584106,463.325806 660.861145,463.325806 644.068848,463.325806 
	C644.068848,472.125397 644.068848,480.600555 643.125183,489.006348 
	C634.727173,489.029510 626.329163,489.052643 617.994080,488.130432 
	C617.994080,471.218658 617.994080,454.306885 617.994080,436.865021 
	C635.218933,436.865021 652.052551,436.865021 668.931152,436.865021 
	C668.931152,428.196289 668.931152,420.060272 669.874878,411.993652 
	C686.816833,411.993652 703.758728,411.993652 721.097412,411.993652 
	C721.097412,420.558624 721.097412,428.637634 721.097412,436.744995 
	C738.238403,436.744995 754.976868,436.744995 771.739868,436.744995 
	C771.739868,419.751160 771.739868,403.012634 771.739868,385.875214 
	C763.408997,385.875214 755.331421,385.875214 746.864258,385.875214 
	C746.864258,377.068604 746.864258,368.658234 746.864258,360.274231 
	C738.054443,360.274231 729.648315,360.274231 720.847046,360.274231 
	C720.847046,368.953125 720.847046,377.365753 720.847046,385.719727 
	C712.036438,385.719727 703.629822,385.719727 694.828735,385.719727 
	C694.828735,377.032135 694.828735,368.619415 694.828735,359.821930 
	C686.020874,359.821930 677.608582,359.821930 669.292847,359.821930 
	C669.292847,351.010651 669.292847,342.603760 669.292847,333.803589 
	C677.993713,333.803589 686.406860,333.803589 695.203247,333.803589 
	C695.203247,325.328186 695.203247,317.249146 695.203247,308.785828 
	C704.012024,308.785828 712.425171,308.785828 720.926270,308.785828 
	C720.926270,299.902588 720.926270,291.420013 721.871338,282.994507 
	C730.135071,282.994507 738.398804,282.994507 746.631714,282.994507 
	C746.631714,265.383698 746.631714,248.220367 746.631714,231.353577 
	C737.865967,231.353577 729.469177,231.353577 721.068054,231.353577 
	C721.068054,248.830521 721.068054,265.954987 720.124695,283.006622 
	C711.848389,283.006622 703.572083,283.006622 694.902649,283.006622 
	C694.902649,265.441071 694.902649,248.365341 694.902649,231.254852 
	C686.093994,231.254852 677.688538,231.254852 668.885925,231.254852 
	C668.885925,239.913177 668.885925,248.324646 668.885925,256.739258 
	C660.409607,256.739258 652.336792,256.739258 643.867920,256.739258 
	C643.867920,248.072372 643.867920,239.662109 643.867920,231.272278 
	C635.057983,231.272278 626.652222,231.272278 617.851074,231.272278 
	C617.851074,239.949036 617.851074,248.361328 617.851074,256.721832 
	C609.040710,256.721832 600.634155,256.721832 591.833130,256.721832 
	C591.833130,248.036713 591.833130,239.623856 591.833130,230.826447 
	C583.025635,230.826447 574.612671,230.826447 565.815796,230.826447 
	C565.815796,213.686203 565.815796,196.943832 565.815796,180.298264 
	C557.005005,180.298264 548.598389,180.298264 539.799072,180.298264 
	C539.799072,189.002655 539.799072,197.415131 539.799072,205.695831 
	C531.320740,205.695831 523.246704,205.695831 514.781128,205.695831 
	C514.781128,196.983047 514.781128,188.570404 514.781128,180.075806 
	C505.897339,180.075806 497.414307,180.075806 488.994080,179.130432 
	C489.037720,170.792496 489.081360,162.454575 490.040894,154.007202 
	C515.299377,154.007202 540.557800,154.007202 565.691650,154.007202 
	C565.691650,119.320480 565.691650,85.249008 565.691650,51.073475 
	C556.902466,51.073475 548.420044,51.073475 539.994568,50.128502 
	C539.994568,41.871834 539.994568,33.615170 539.994568,25.368404 
	C531.394165,25.368404 523.222839,25.368404 515.343079,25.368404 
	C515.343079,34.126682 515.343079,42.516068 515.343079,50.931728 
	C523.816589,50.931728 531.948181,50.931728 540.006653,51.875107 
	C540.006653,60.124519 540.006653,68.373932 540.006653,77.154968 
	C531.429443,77.154968 523.252014,77.154968 514.912842,77.154968 
	C514.912842,85.815620 514.912842,93.938354 514.986084,101.992683 
	C514.986084,101.992683 515.054626,101.919632 514.113098,101.995316 
	C505.846741,101.995316 497.580383,101.995316 489.276886,101.995316 
	C489.276886,119.732216 489.276886,136.991577 488.284393,154.019775 
	C479.830994,154.036102 471.377594,154.052444 462.993652,153.125076 
	C462.993652,136.215851 462.993652,119.306633 462.993652,101.869720 
	C445.780823,101.869720 428.949036,101.869720 411.926727,101.869720 
	C411.926727,93.206055 411.926727,85.071877 412.871643,76.994507 
	C438.121033,76.994507 463.370422,76.994507 488.800293,76.994507 
	C488.800293,68.189995 488.800293,59.793575 488.800293,50.845200 
	C471.429932,50.845200 454.249878,50.845200 436.696045,50.845200 
	C436.696045,41.891037 436.696045,33.488953 436.696045,25.339851 
	C428.237152,25.339851 420.169495,25.339851 412.068481,25.339851 
	C412.068481,42.812252 412.068481,59.945988 411.125061,77.006653 
	C402.727112,77.029701 394.329163,77.052750 385.994110,76.130440 
	C385.994110,67.864212 385.994110,59.597984 385.994110,50.809017 
	C360.052246,50.809017 334.556335,50.809017 308.684937,50.809017 
	C308.684937,41.878712 308.684937,33.476723 308.684937,25.323990 
	C291.246277,25.323990 274.194092,25.323990 257.073273,25.323990 
	C257.073273,34.118393 257.073273,42.590340 256.128357,51.005489 
	C247.871292,51.005489 239.614227,51.005489 231.368439,51.005489 
	C231.368439,59.939762 231.368439,68.443924 231.368439,76.656288 
	C240.127182,76.656288 248.516983,76.656288 256.931519,76.656288 
	C256.931519,67.849274 256.931519,59.384766 257.874939,50.993343 
	C266.131714,50.993343 274.388519,50.993343 283.185913,50.993343 
	C283.185913,59.932392 283.185913,68.449249 283.185913,77.309158 
	C292.124420,77.309158 300.516479,77.309158 309.068787,77.309158 
	C309.068787,85.812378 309.068787,93.944107 308.125122,102.006378 
	C282.544647,102.006378 256.964172,102.006378 231.197235,102.006378 
	C231.197235,110.805946 231.197235,119.201843 231.197235,128.161987 
	C239.906158,128.161987 248.434967,128.161987 256.647095,128.161987 
	C256.647095,137.129623 256.647095,145.531052 256.647095,154.303040 
	C247.891861,154.303040 239.488281,154.303040 231.323975,154.303040 
	C231.323975,171.747299 231.323975,188.802597 231.323975,205.924194 
	C240.120605,205.924194 248.594681,205.924194 257.005890,206.869568 
	C257.005890,214.798721 257.005890,222.727859 257.005890,231.157516 
	C231.082855,231.157516 205.602081,231.157516 180.075806,231.157516 
	C180.075806,240.133438 180.075806,248.601105 179.130432,257.005890 
	C170.728363,257.026855 162.326294,257.047821 153.993637,256.125092 
	C153.993637,247.854340 153.993637,239.583588 153.993637,231.198883 
	C110.816620,231.198883 68.107735,231.198883 25.336693,231.198883 
	C25.336693,274.224335 25.336693,317.051117 25.336693,359.924194 
	C51.137737,359.924194 76.603256,359.924194 102.005898,360.869568 
	C102.005898,369.122528 102.005898,377.375488 102.005898,385.931213 
	C119.635254,385.931213 136.855515,385.931213 154.006363,386.874878 
	C154.006363,395.142212 154.006363,403.409576 154.006363,412.028198 
	C128.163208,412.028198 102.783951,412.028198 77.362625,412.028198 
	C77.362625,420.574097 77.362625,428.755951 77.362625,437.302094 
	C94.446770,437.302094 111.170288,437.302094 128.075836,437.302094 
	C128.075836,454.806519 128.075836,471.937653 127.130463,489.005920 
	C110.459236,488.962250 93.788017,488.918579 77.007210,487.959045 
	C77.007210,479.701660 77.007210,471.444275 77.007210,462.805908 
	C68.002083,462.805908 59.594925,462.805908 50.822365,462.805908 
	C50.822365,437.019562 50.822365,411.625732 50.822365,386.278076 
	C42.037289,386.278076 33.635620,386.278076 25.234951,386.278076 
	C25.234951,446.261475 25.234951,505.967560 25.234951,565.766724 
	C33.870945,565.766724 42.271404,565.766724 51.050491,565.766724 
	C51.050491,540.143860 51.050491,514.750000 51.050491,488.722992 
	C60.034485,488.722992 68.642784,488.722992 77.019798,489.715485 
	C77.019798,498.122772 77.019798,506.530090 77.019798,515.310181 
	C85.784874,515.310181 93.858406,515.310181 102.293747,515.310181 
	C102.293747,532.431152 102.293747,549.161072 102.293747,565.665222 
	C111.081833,565.665222 119.484352,565.665222 128.264786,565.665222 
	C128.264786,556.928406 128.264786,548.521912 128.264786,539.924316 
	C145.793823,539.924316 162.931259,539.924316 180.005890,540.869690 
	C180.005890,549.122314 180.005890,557.374939 180.005890,565.931274 
	C197.301300,565.931274 214.188538,565.931274 231.006363,566.874939 
	C231.006363,583.795654 231.006363,600.716370 231.006363,617.795166 
	C239.824524,617.795166 248.219116,617.795166 256.998779,617.795166 
	C256.998779,609.200439 256.998779,600.797913 256.998779,591.844727 
	C265.895630,591.844727 274.422852,591.844727 282.931183,591.844727 
	C282.931183,565.829773 282.931183,540.377075 283.874908,514.993652 
	C292.272858,514.970581 300.670837,514.947510 309.005890,515.869690 
	C309.005890,523.799194 309.005890,531.728699 309.005890,539.924377 
	C343.652893,539.924377 377.860840,539.924377 412.005890,540.869690 
	C412.026886,549.271667 412.047882,557.673645 411.125153,566.006348 
	C402.763947,566.006348 394.402710,566.006348 386.068878,566.006348 
	C386.068878,575.182190 386.068878,583.628906 385.125153,592.006348 
	C376.859100,592.006348 368.593048,592.006348 359.949219,592.006348 
	C359.949219,600.853210 359.949219,609.255615 359.949219,618.015381 
	C342.847198,618.015381 326.125793,618.015381 309.359558,618.015381 
	C309.359558,626.903809 309.359558,635.417358 309.359558,643.931152 
	C335.170593,643.931152 360.623169,643.931152 386.006348,644.874878 
	C386.029510,661.606201 386.052643,678.337524 385.130432,695.005920 
	C376.790985,695.005920 368.451538,695.005920 359.874908,695.005920 
	C359.874908,704.071899 359.874908,712.477661 358.959045,720.992798 
	C342.322906,720.992798 325.686768,720.992798 308.926147,720.992798 
	C308.926147,711.825562 308.926147,703.381348 309.871246,694.994507 
	C317.795532,694.994507 325.719788,694.994507 333.631836,694.994507 
	C333.631836,686.059631 333.631836,677.555847 333.631836,669.344116 
	C325.205811,669.344116 317.148651,669.344116 309.067932,669.344116 
	C309.067932,678.151123 309.067932,686.615112 308.124542,695.006653 
	C299.872314,695.006653 291.620117,695.006653 283.067932,695.006653 
	C283.067932,712.638794 283.067932,729.859009 282.124542,747.006653 
	C273.853821,747.006653 265.583099,747.006653 257.211426,747.006653 
	C257.211426,720.808289 257.211426,695.087769 257.211426,668.975464 
	C265.819672,668.975464 274.226837,668.975464 282.794373,668.975464 
	C282.794373,660.516663 282.794373,652.450867 282.794373,644.193237 
	C265.530273,644.193237 248.470779,644.193237 231.329803,644.193237 
	C231.329803,686.878174 231.329803,729.371094 231.329803,771.683105 
	C248.720947,771.683105 265.782043,771.683105 282.926147,771.683105 
	C282.926147,763.224121 282.926147,755.080627 283.871246,746.994507 
	C309.128326,746.994507 334.385437,746.994507 359.723053,746.994507 
	C359.723053,737.959961 359.723053,729.354492 360.715546,720.980225 
	C369.166626,720.961609 377.617706,720.942993 386.005890,721.869690 
M747.005432,721.871704 
	C747.005432,730.128357 747.005432,738.385010 747.005432,746.631531 
	C755.605957,746.631531 763.777222,746.631531 771.656860,746.631531 
	C771.656860,737.872986 771.656860,729.483521 771.656860,721.068542 
	C763.183228,721.068542 755.051636,721.068542 746.993347,720.125122 
	C746.993347,711.855835 746.993347,703.586487 746.993347,695.218628 
	C729.472412,695.218628 712.415527,695.218628 694.969116,695.218628 
	C694.969116,703.830994 694.969116,712.236755 694.969116,721.020020 
	C686.184265,721.020020 677.778503,721.020020 668.994873,721.020020 
	C668.994873,729.804443 668.994873,738.210144 668.994873,746.994629 
	C660.544067,746.994629 652.471802,746.994629 644.364502,746.994629 
	C644.364502,755.574036 644.364502,763.757874 644.364502,771.663086 
	C670.113159,771.663086 695.497742,771.663086 721.256714,771.663086 
	C721.256714,754.601257 721.256714,737.873596 721.256714,720.926758 
	C730.111084,720.926758 738.586609,720.926758 747.005432,721.871704 
M772.143921,86.500053 
	C772.143921,66.239502 772.143921,45.978947 772.143921,25.673832 
	C711.887756,25.673832 652.193604,25.673832 592.391357,25.673832 
	C592.391357,85.583916 592.391357,145.143036 592.391357,204.945435 
	C652.312866,204.945435 712.010742,204.945435 772.143921,204.945435 
	C772.143921,165.686600 772.143921,126.593330 772.143921,86.500053 
M172.500000,592.000549 
	C123.592636,592.000549 74.685265,592.000549 25.997610,592.000549 
	C25.997610,652.396423 25.997610,712.119141 25.997610,771.817017 
	C85.908913,771.817017 145.489487,771.817017 205.119110,771.817017 
	C205.119110,711.827759 205.119110,652.098511 205.119110,592.000549 
	C194.431839,592.000549 183.965912,592.000549 172.500000,592.000549 
M25.665224,147.499817 
	C25.665224,166.604431 25.665224,185.709061 25.665224,204.792862 
	C85.860588,204.792862 145.551193,204.792862 204.986389,204.792862 
	C204.986389,144.820908 204.986389,85.243500 204.986389,25.691799 
	C145.076889,25.691799 85.527489,25.691799 25.665215,25.691799 
	C25.665215,66.204826 25.665215,106.352318 25.665224,147.499817 
M614.347656,747.001038 
	C606.929688,747.001038 599.511719,747.001038 592.344604,747.001038 
	C592.344604,755.759705 592.344604,763.834045 592.344604,771.652771 
	C601.098206,771.652771 609.505737,771.652771 617.998840,771.652771 
	C617.998840,764.314819 617.968323,757.322571 618.018555,750.330933 
	C618.032532,748.385498 618.197998,746.512390 614.347656,747.001038 
M312.652222,591.998962 
	C319.737396,591.998962 326.822571,591.998962 333.655334,591.998962 
	C333.655334,582.906921 333.655334,574.499573 333.655334,566.347351 
	C325.234833,566.347351 317.160370,566.347351 309.001160,566.347351 
	C309.001160,574.018738 309.030579,581.344177 308.981445,588.669189 
	C308.968384,590.614685 308.802185,592.487610 312.652222,591.998962 
M765.423462,309.001038 
	C759.330994,309.001038 753.238525,309.001038 747.317139,309.001038 
	C747.317139,317.704559 747.317139,325.776520 747.317139,333.680786 
	C755.708679,333.680786 763.781067,333.680786 771.678223,333.680786 
	C771.678223,325.287750 771.678223,317.215881 771.678223,309.001038 
	C769.705505,309.001038 768.052856,309.001038 765.423462,309.001038 
z"/>
<path fill="#000000" opacity="1.000000" stroke="none" 
	d="
M488.931244,180.075806 
	C497.414307,180.075806 505.897339,180.075806 514.781128,180.075806 
	C514.781128,188.570404 514.781128,196.983047 514.781128,205.695831 
	C523.246704,205.695831 531.320740,205.695831 539.799072,205.695831 
	C539.799072,197.415131 539.799072,189.002655 539.799072,180.298264 
	C548.598389,180.298264 557.005005,180.298264 565.815796,180.298264 
	C565.815796,196.943832 565.815796,213.686203 565.815796,230.826447 
	C574.612671,230.826447 583.025635,230.826447 591.833130,230.826447 
	C591.833130,239.623856 591.833130,248.036713 591.833130,256.721832 
	C600.634155,256.721832 609.040710,256.721832 617.851074,256.721832 
	C617.851074,248.361328 617.851074,239.949036 617.851074,231.272278 
	C626.652222,231.272278 635.057983,231.272278 643.867920,231.272278 
	C643.867920,239.662109 643.867920,248.072372 643.867920,256.739258 
	C652.336792,256.739258 660.409607,256.739258 668.885925,256.739258 
	C668.885925,248.324646 668.885925,239.913177 668.885925,231.254852 
	C677.688538,231.254852 686.093994,231.254852 694.902649,231.254852 
	C694.902649,248.365341 694.902649,265.441071 694.902649,283.006622 
	C703.572083,283.006622 711.848389,283.006622 720.562134,283.006409 
	C720.999512,283.006165 720.926270,282.937469 720.926270,282.937469 
	C720.926270,291.420013 720.926270,299.902588 720.926270,308.785828 
	C712.425171,308.785828 704.012024,308.785828 695.203247,308.785828 
	C695.203247,317.249146 695.203247,325.328186 695.203247,333.803589 
	C686.406860,333.803589 677.993713,333.803589 669.292847,333.803589 
	C669.292847,342.603760 669.292847,351.010651 669.292847,359.821930 
	C677.608582,359.821930 686.020874,359.821930 694.828735,359.821930 
	C694.828735,368.619415 694.828735,377.032135 694.828735,385.719727 
	C703.629822,385.719727 712.036438,385.719727 720.847046,385.719727 
	C720.847046,377.365753 720.847046,368.953125 720.847046,360.274231 
	C729.648315,360.274231 738.054443,360.274231 746.864258,360.274231 
	C746.864258,368.658234 746.864258,377.068604 746.864258,385.875214 
	C755.331421,385.875214 763.408997,385.875214 771.739868,385.875214 
	C771.739868,403.012634 771.739868,419.751160 771.739868,436.744995 
	C754.976868,436.744995 738.238403,436.744995 721.097412,436.744995 
	C721.097412,428.637634 721.097412,420.558624 721.097412,411.993652 
	C703.758728,411.993652 686.816833,411.993652 669.437378,411.995667 
	C668.999939,411.997650 669.069946,412.069946 669.037476,411.597839 
	C669.004944,402.853516 669.004944,394.581299 669.004944,385.930054 
	C651.795715,385.930054 635.062500,385.930054 617.948303,385.930054 
	C617.948303,368.480652 617.948303,351.414673 617.948303,333.980377 
	C583.507935,333.980377 549.452515,333.980377 515.357544,333.980377 
	C515.357544,308.095001 515.357544,282.585236 515.357544,256.683777 
	C523.788391,256.683777 531.863403,256.683777 539.646973,256.683777 
	C539.646973,247.881561 539.646973,239.476013 539.646973,231.344055 
	C522.560974,231.344055 505.829041,231.344055 488.710999,231.344055 
	C488.710999,240.093643 488.710999,248.501572 488.710999,257.284302 
	C479.911163,257.284302 471.503510,257.284302 463.337006,257.284302 
	C463.337006,266.085876 463.337006,274.490448 463.337006,283.274902 
	C472.079071,283.274902 480.487152,283.274902 488.667694,283.274902 
	C488.667694,292.076141 488.667694,300.480438 488.667694,309.251953 
	C462.942566,309.251953 437.548492,309.251953 412.075867,309.251953 
	C412.075867,317.777924 412.075867,325.923492 411.603210,334.036957 
	C402.728455,334.026276 394.326294,334.047668 385.959412,333.597229 
	C385.994659,325.200867 385.994659,317.276337 385.994659,309.338165 
	C368.413605,309.338165 351.263306,309.338165 334.075867,309.338165 
	C334.075867,317.807129 334.075867,325.938080 333.603210,334.036987 
	C325.061768,334.026306 316.992981,334.047699 308.959412,333.597229 
	C308.994659,325.193634 308.994659,317.261841 308.994659,308.954742 
	C300.153778,308.954742 291.752960,308.954742 283.200745,308.954742 
	C283.200745,300.177795 283.200745,291.784607 283.200745,282.849915 
	C300.233185,282.849915 317.073212,282.849915 333.924133,282.849915 
	C333.924133,265.182251 333.924133,248.056641 334.396790,230.963058 
	C343.231903,230.995102 351.594421,230.995102 359.930969,230.995102 
	C359.930969,222.154984 359.930969,214.039551 360.402802,205.959381 
	C369.275024,205.973404 377.675446,205.952179 386.040588,206.402771 
	C386.005341,214.802917 386.005341,222.731247 386.005341,230.667480 
	C411.922333,230.667480 437.398315,230.667480 462.924133,230.667480 
	C462.924133,222.200470 462.924133,214.065735 463.396790,205.963058 
	C472.231934,205.995102 480.594482,205.995102 489.069946,205.995102 
	C489.069946,196.823669 489.069946,188.376862 489.035004,179.966217 
	C489.000061,180.002396 488.931244,180.075806 488.931244,180.075806 
M571.500000,309.000000 
	C586.927856,309.000000 602.355652,309.000000 617.712830,309.000000 
	C617.712830,300.021942 617.712830,291.616882 617.712830,283.284912 
	C591.690125,283.284912 565.955566,283.284912 540.287109,283.284912 
	C540.287109,291.977936 540.287109,300.382996 540.287109,309.000000 
	C550.548584,309.000000 560.524292,309.000000 571.500000,309.000000 
M385.999725,259.677704 
	C385.222046,258.785675 384.463287,257.138672 383.663788,257.118652 
	C375.889404,256.923920 368.108185,257.001556 360.230408,257.001556 
	C360.230408,265.861572 360.230408,274.265442 360.230408,282.767273 
	C368.866272,282.767273 377.270111,282.767273 386.000000,282.767273 
	C386.000000,275.243530 386.000000,267.947632 385.999725,259.677704 
M657.490784,283.000000 
	C653.058350,283.000000 648.625916,283.000000 644.290955,283.000000 
	C644.290955,291.987762 644.290955,300.391937 644.290955,308.708191 
	C652.656189,308.708191 660.727356,308.708191 668.707520,308.708191 
	C668.707520,300.009064 668.707520,291.604828 668.707520,283.000000 
	C665.105042,283.000000 661.793335,283.000000 657.490784,283.000000 
z"/>
<path fill="#000000" opacity="1.000000" stroke="none" 
	d="
M746.924316,539.931274 
	C746.924316,557.146790 746.924316,574.362366 746.924316,592.004639 
	C738.386169,592.004639 730.136719,592.004639 721.441650,591.568848 
	C720.996033,582.867981 720.996033,574.602966 720.996033,566.368042 
	C703.385132,566.368042 686.220398,566.368042 669.353394,566.368042 
	C669.353394,575.135437 669.353394,583.533020 669.353394,591.938293 
	C686.833679,591.938293 703.960632,591.938293 721.087585,591.938293 
	C721.087585,600.414978 721.087585,608.891663 721.087585,617.752563 
	C737.881287,617.752563 754.612366,617.752563 771.670227,617.752563 
	C771.670227,634.859070 771.670227,651.588074 771.670227,668.658691 
	C746.501770,668.658691 721.112244,668.658691 695.160889,668.658691 
	C695.160889,652.089050 695.160889,635.235779 695.160889,618.195190 
	C686.200073,618.195190 677.800415,618.195190 669.016235,618.195190 
	C669.016235,635.116028 669.016235,651.847046 669.016235,668.965820 
	C660.570618,668.965820 652.495911,668.965820 644.048401,668.965820 
	C644.048401,686.417114 644.048401,703.480713 644.048401,720.769531 
	C626.605164,720.769531 609.544861,720.769531 591.995361,720.769531 
	C591.995361,712.426758 591.995361,704.157043 592.431152,695.441650 
	C601.125732,694.996033 609.384460,694.996033 617.631958,694.996033 
	C617.631958,686.060547 617.631958,677.555664 617.631958,669.343994 
	C608.871277,669.343994 600.480286,669.343994 592.061707,669.343994 
	C592.061707,678.154419 592.061707,686.621033 592.061707,695.087585 
	C574.934082,695.087585 557.806519,695.087585 540.293579,695.087585 
	C540.293579,686.501038 540.293579,678.099121 540.293579,669.313477 
	C531.859558,669.313477 523.790344,669.313477 515.160217,669.313477 
	C515.160217,660.762268 515.160217,652.567505 515.160217,644.194092 
	C506.202881,644.194092 497.808105,644.194092 489.026947,644.194092 
	C489.026947,652.436096 489.026947,660.504883 489.026947,668.949097 
	C480.251495,668.949097 471.849213,668.949097 462.993652,668.949097 
	C462.993652,677.592896 462.993652,685.859070 462.995667,694.562622 
	C462.997650,695.000061 463.069946,694.930054 462.597839,694.962524 
	C453.865784,694.995056 445.605865,694.995056 436.977600,694.995056 
	C436.977600,686.174805 436.977600,677.778992 436.977600,669.355835 
	C428.422211,669.355835 420.247375,669.355835 411.705750,669.355835 
	C411.705750,678.104858 411.705750,686.499939 411.705750,694.930054 
	C402.863312,694.930054 394.396698,694.930054 385.966217,694.965027 
	C386.002380,695.000000 386.075806,695.068848 386.075806,695.068848 
	C386.052643,678.337524 386.029510,661.606201 386.004333,644.437378 
	C386.002350,643.999939 385.930054,644.069946 386.402191,644.037476 
	C412.114532,644.004944 437.354767,644.004944 462.643066,644.004944 
	C462.643066,635.096436 462.643066,626.583740 462.643066,617.712524 
	C445.568024,617.712524 428.848846,617.712524 412.069946,617.712524 
	C412.069946,608.873840 412.069946,600.401978 412.034973,591.965027 
	C412.000000,592.000000 411.930054,592.069946 412.402191,592.037476 
	C438.129517,592.004944 463.384705,592.004944 489.028870,592.004944 
	C489.028870,600.826477 489.028870,609.233093 489.028870,617.795166 
	C497.819427,617.795166 506.218048,617.795166 515.007507,617.795166 
	C515.007507,609.195557 515.007507,600.788940 515.007507,592.002808 
	C523.460144,592.002808 531.534058,592.002808 539.644226,592.002808 
	C539.644226,574.431702 539.644226,557.254700 539.644226,540.350830 
	C531.215820,540.350830 523.145264,540.350830 514.700500,540.350830 
	C514.700500,549.105286 514.700500,557.511475 514.700500,565.669861 
	C497.247314,565.669861 480.186676,565.669861 463.324799,565.669861 
	C463.324799,556.935059 463.324799,548.532959 463.324799,539.752441 
	C472.051727,539.752441 480.457977,539.752441 489.069946,539.752441 
	C489.069946,531.218140 489.069946,523.074097 489.034973,514.965027 
	C489.000000,515.000000 488.930054,515.069946 489.402161,515.037476 
	C532.538452,515.004944 575.202637,515.004944 618.069946,515.004944 
	C618.069946,505.872437 618.069946,497.401245 618.034973,488.966217 
	C618.000000,489.002380 617.931152,489.075806 617.931152,489.075806 
	C626.329163,489.052643 634.727173,489.029510 643.562622,489.004333 
	C644.000061,489.002350 643.930054,488.930054 643.962524,489.402130 
	C643.995056,498.234772 643.995056,506.595337 643.995056,515.069946 
	C652.842651,515.069946 660.956299,515.069946 669.034973,515.034973 
	C669.000000,515.000000 668.930054,514.930054 668.962524,515.402161 
	C668.995056,523.799866 668.995056,531.725464 668.995056,540.069946 
	C695.313293,540.069946 721.191589,540.069946 747.033813,540.035034 
	C746.997620,540.000061 746.924316,539.931274 746.924316,539.931274 
M566.000000,614.500000 
	C566.000000,624.264038 566.000000,634.028137 566.000000,643.712769 
	C592.311584,643.712769 618.047607,643.712769 643.712769,643.712769 
	C643.712769,617.688416 643.712769,591.952393 643.712769,566.287231 
	C617.688477,566.287231 591.952454,566.287231 566.000000,566.287231 
	C566.000000,582.215698 566.000000,597.857849 566.000000,614.500000 
z"/>
<path fill="#000000" opacity="1.000000" stroke="none" 
	d="
M668.965576,411.960938 
	C668.931152,420.060272 668.931152,428.196289 668.931152,436.865021 
	C652.052551,436.865021 635.218933,436.865021 617.994080,436.865021 
	C617.994080,454.306885 617.994080,471.218658 617.962646,488.603119 
	C617.931152,489.075806 618.000000,489.002380 617.562866,488.998718 
	C608.859070,488.995056 600.592468,488.995056 591.962830,488.995056 
	C591.962830,471.489838 591.962830,454.434723 591.962830,437.324829 
	C557.441284,437.324829 523.291687,437.324829 489.075867,437.324829 
	C489.075867,446.122528 489.075867,454.595795 488.603210,463.036957 
	C479.866852,463.004883 471.603149,463.004883 462.809082,463.004883 
	C462.809082,445.723724 462.809082,428.886627 462.809082,412.329285 
	C445.555969,412.329285 428.841553,412.329285 411.930054,412.329285 
	C411.930054,420.795135 411.930054,428.932526 411.965027,437.034973 
	C412.000000,437.000000 412.069946,436.930054 411.597870,436.962585 
	C402.863403,436.995087 394.601013,436.995087 385.965759,436.995087 
	C385.965759,428.497620 385.965759,420.432556 385.965759,412.367188 
	C377.070862,412.367188 368.561035,412.367188 359.701843,412.367188 
	C359.701843,429.446930 359.701843,446.160278 359.701843,463.073334 
	C350.874390,463.073334 342.405945,463.073334 333.966492,462.600891 
	C333.995514,453.871277 333.995514,445.614075 333.995514,437.367310 
	C325.394196,437.367310 317.222260,437.367310 309.341858,437.367310 
	C309.341858,446.126221 309.341858,454.516235 309.341858,462.931458 
	C317.815582,462.931458 325.947601,462.931458 334.042633,463.403137 
	C334.005615,472.125183 334.005615,480.375580 334.005615,489.158813 
	C325.423920,489.158813 317.245453,489.158813 308.930054,489.158813 
	C308.930054,498.155334 308.930054,506.612640 308.965027,515.033813 
	C308.999969,514.997742 309.068787,514.924377 309.068787,514.924377 
	C300.670837,514.947510 292.272858,514.970581 283.437439,514.995728 
	C282.999969,514.997742 283.069946,515.069946 283.037415,514.597900 
	C283.004913,480.109070 283.004913,446.092377 283.004913,411.695587 
	C292.112549,411.695587 300.512482,411.695587 308.930939,411.695587 
	C308.930939,394.181824 308.930939,377.052979 309.402771,359.959412 
	C317.939423,359.971130 326.004211,359.947632 334.036957,360.396759 
	C334.004883,369.127930 334.004883,377.386444 334.004883,385.660034 
	C351.585663,385.660034 368.738159,385.660034 385.930939,385.660034 
	C385.930939,376.854858 385.930939,368.389526 386.402771,359.959412 
	C395.275024,359.973450 403.675415,359.952209 412.040588,360.402771 
	C412.005341,369.140289 412.005341,377.405975 412.005341,385.639099 
	C437.950073,385.639099 463.441010,385.639099 489.313232,385.639099 
	C489.313232,376.878448 489.313232,368.477264 489.313232,360.337280 
	C498.098785,360.337280 506.497284,360.337280 515.265991,360.337280 
	C515.265991,369.072968 515.265991,377.474487 515.265991,386.079712 
	C523.789673,386.079712 531.929138,386.079712 540.034302,386.043030 
	C539.999939,386.006348 539.926758,385.937531 539.960815,386.409058 
	C539.994812,395.144043 539.994812,403.407562 539.994812,412.069946 
	C583.327087,412.069946 626.198486,412.069946 669.069946,412.069946 
	C669.069946,412.069946 668.999939,411.997650 668.965576,411.960938 
z"/>
<path fill="#000000" opacity="1.000000" stroke="none" 
	d="
M128.075836,489.068756 
	C128.075836,471.937653 128.075836,454.806519 128.075836,437.302094 
	C111.170288,437.302094 94.446770,437.302094 77.362625,437.302094 
	C77.362625,428.755951 77.362625,420.574097 77.362625,412.028198 
	C102.783951,412.028198 128.163208,412.028198 154.006363,412.028198 
	C154.006363,403.409576 154.006363,395.142212 154.004364,386.437439 
	C154.002380,386.000031 153.930054,386.069946 154.402176,386.037445 
	C171.884949,386.004944 188.895599,386.004944 206.073425,386.004944 
	C206.073425,395.147491 206.073425,403.605011 205.600983,412.033508 
	C196.871323,412.004486 188.614120,412.004486 180.367279,412.004486 
	C180.367279,420.605774 180.367279,428.777740 180.367279,436.658203 
	C189.126251,436.658203 197.516342,436.658203 205.931549,436.658203 
	C205.931549,428.184509 205.931549,420.052460 206.403214,411.957397 
	C214.941879,411.973236 223.008881,411.952087 231.040619,412.402802 
	C231.005356,420.806763 231.005356,428.738922 231.005356,437.047058 
	C239.847855,437.047058 248.249084,437.047058 256.797424,437.047058 
	C256.797424,445.825073 256.797424,454.218689 256.797424,463.171967 
	C248.084320,463.171967 239.558319,463.171967 231.353210,463.171967 
	C231.353210,472.132690 231.353210,480.531433 231.353210,489.296753 
	C240.105133,489.296753 248.504486,489.296753 257.270935,489.296753 
	C257.270935,498.078278 257.270935,506.478790 257.270935,515.069946 
	C266.126068,515.069946 274.598022,515.069946 283.069946,515.069946 
	C283.069946,515.069946 282.999969,514.997742 282.965576,514.961060 
	C282.931183,540.377075 282.931183,565.829773 282.931183,591.844727 
	C274.422852,591.844727 265.895630,591.844727 256.998779,591.844727 
	C256.998779,600.797913 256.998779,609.200439 256.998779,617.795166 
	C248.219116,617.795166 239.824524,617.795166 231.006363,617.795166 
	C231.006363,600.716370 231.006363,583.795654 231.004379,566.437500 
	C231.002396,566.000061 230.930054,566.069946 231.402130,566.037476 
	C240.125061,566.004944 248.375900,566.004944 256.651398,566.004944 
	C256.651398,557.084229 256.651398,548.585876 256.651398,539.930054 
	C247.845490,539.930054 239.387772,539.930054 230.965027,539.965027 
	C231.000000,540.000000 231.069946,540.069946 231.037445,539.597900 
	C231.004944,531.206665 231.004944,523.287598 231.004944,514.930054 
	C213.699982,514.930054 196.815018,514.930054 179.965027,514.965027 
	C180.000000,515.000000 180.069946,515.069946 180.037445,514.597900 
	C179.978821,505.729675 179.952698,497.333557 180.399017,488.966492 
	C189.129059,488.995514 197.386658,488.995514 205.632721,488.995514 
	C205.632721,480.060425 205.632721,471.555603 205.632721,463.342377 
	C196.873459,463.342377 188.483032,463.342377 180.068451,463.342377 
	C180.068451,472.149567 180.068451,480.614594 179.596771,489.042603 
	C162.060074,488.980438 144.995071,488.955261 127.966248,488.964996 
	C128.002426,488.999939 128.075836,489.068756 128.075836,489.068756 
z"/>
<path fill="#020202" opacity="1.000000" stroke="none" 
	d="
M772.143921,87.000061 
	C772.143921,126.593330 772.143921,165.686600 772.143921,204.945435 
	C712.010742,204.945435 652.312866,204.945435 592.391357,204.945435 
	C592.391357,145.143036 592.391357,85.583916 592.391357,25.673832 
	C652.193604,25.673832 711.887756,25.673832 772.143921,25.673832 
	C772.143921,45.978947 772.143921,66.239502 772.143921,87.000061 
M617.998779,141.500000 
	C617.998779,154.235153 617.998779,166.970306 617.998779,179.565857 
	C661.349609,179.565857 703.925049,179.565857 746.624329,179.565857 
	C746.624329,136.606018 746.624329,93.915161 746.624329,51.303959 
	C703.605957,51.303959 660.893860,51.303959 617.998779,51.303959 
	C617.998779,81.239227 617.998779,110.869614 617.998779,141.500000 
z"/>
<path fill="#010101" opacity="1.000000" stroke="none" 
	d="
M173.000000,592.000549 
	C183.965912,592.000549 194.431839,592.000549 205.119110,592.000549 
	C205.119110,652.098511 205.119110,711.827759 205.119110,771.817017 
	C145.489487,771.817017 85.908913,771.817017 25.997610,771.817017 
	C25.997610,712.119141 25.997610,652.396423 25.997610,592.000549 
	C74.685265,592.000549 123.592636,592.000549 173.000000,592.000549 
M92.500069,617.825317 
	C78.878082,617.825317 65.256096,617.825317 51.505653,617.825317 
	C51.505653,660.996582 51.505653,703.693848 51.505653,746.459106 
	C94.439217,746.459106 137.026871,746.459106 179.719086,746.459106 
	C179.719086,703.481689 179.719086,660.753113 179.719086,617.825317 
	C150.788818,617.825317 122.144447,617.825317 92.500069,617.825317 
z"/>
<path fill="#010101" opacity="1.000000" stroke="none" 
	d="
M25.665218,146.999817 
	C25.665215,106.352318 25.665215,66.204826 25.665215,25.691799 
	C85.527489,25.691799 145.076889,25.691799 204.986389,25.691799 
	C204.986389,85.243500 204.986389,144.820908 204.986389,204.792862 
	C145.551193,204.792862 85.860588,204.792862 25.665224,204.792862 
	C25.665224,185.709061 25.665224,166.604431 25.665218,146.999817 
M118.499939,179.836288 
	C138.928574,179.836288 159.357224,179.836288 179.798706,179.836288 
	C179.798706,136.592377 179.798706,93.988014 179.798706,51.306141 
	C136.878571,51.306141 94.163223,51.306141 51.401970,51.306141 
	C51.401970,94.204247 51.401970,136.792953 51.401970,179.836288 
	C73.591476,179.836288 95.545700,179.836288 118.499939,179.836288 
z"/>
<path fill="#000000" opacity="1.000000" stroke="none" 
	d="
M102.068779,359.924194 
	C76.603256,359.924194 51.137737,359.924194 25.336693,359.924194 
	C25.336693,317.051117 25.336693,274.224335 25.336693,231.198883 
	C68.107735,231.198883 110.816620,231.198883 153.993637,231.198883 
	C153.993637,239.583588 153.993637,247.854340 153.995636,256.562531 
	C153.997620,256.999969 154.069946,256.930054 153.597870,256.962585 
	C136.208344,256.995087 119.290886,256.995087 101.993332,256.995087 
	C101.993332,265.806458 101.993332,274.207245 101.993332,283.156616 
	C93.433403,283.156616 85.240173,283.156616 77.327255,283.156616 
	C77.327255,300.434723 77.327255,317.151611 77.327255,334.080078 
	C85.792183,334.080078 93.930542,334.080078 102.034569,334.043396 
	C102.000237,334.006714 101.927048,333.937897 101.960945,334.409363 
	C101.973251,343.277222 101.951653,351.673584 101.965019,360.033752 
	C101.999977,359.997589 102.068779,359.924194 102.068779,359.924194 
z"/>
<path fill="#000000" opacity="1.000000" stroke="none" 
	d="
M412.068787,539.924377 
	C377.860840,539.924377 343.652893,539.924377 309.005890,539.924377 
	C309.005890,531.728699 309.005890,523.799194 309.037354,515.397034 
	C309.068787,514.924377 308.999969,514.997742 309.437134,515.001343 
	C326.460114,515.004944 343.045898,515.004944 360.012543,515.004944 
	C360.012543,506.187775 360.012543,497.786346 360.012543,488.853821 
	C377.562225,488.853821 394.736053,488.853821 412.069946,488.853821 
	C412.069946,471.184021 412.069946,454.057037 412.069946,436.930054 
	C412.069946,436.930054 412.000000,437.000000 412.437134,437.002472 
	C420.803192,437.004944 428.732056,437.004944 437.184387,437.004944 
	C437.184387,454.605164 437.184387,471.771118 437.184387,488.930939 
	C454.835968,488.930939 471.955902,488.930939 489.040588,489.402771 
	C488.980225,498.273041 488.955139,506.671509 488.930054,515.069946 
	C488.930054,515.069946 489.000000,515.000000 488.562836,514.997559 
	C462.788269,514.995056 437.450836,514.995056 411.930054,514.995056 
	C411.930054,523.805725 411.930054,531.937866 411.965027,540.033813 
	C411.999969,539.997742 412.068787,539.924377 412.068787,539.924377 
z"/>
<path fill="#000000" opacity="1.000000" stroke="none" 
	d="
M77.251083,488.722992 
	C68.642784,488.722992 60.034485,488.722992 51.050491,488.722992 
	C51.050491,514.750000 51.050491,540.143860 51.050491,565.766724 
	C42.271404,565.766724 33.870945,565.766724 25.234951,565.766724 
	C25.234951,505.967560 25.234951,446.261475 25.234951,386.278076 
	C33.635620,386.278076 42.037289,386.278076 50.822365,386.278076 
	C50.822365,411.625732 50.822365,437.019562 50.822365,462.805908 
	C59.594925,462.805908 68.002083,462.805908 77.007210,462.805908 
	C77.007210,471.444275 77.007210,479.701660 77.092766,488.382172 
	C77.178322,488.805298 77.251083,488.722992 77.251083,488.722992 
z"/>
<path fill="#000000" opacity="1.000000" stroke="none" 
	d="
M489.276886,154.250931 
	C489.276886,136.991577 489.276886,119.732216 489.276886,101.995316 
	C497.580383,101.995316 505.846741,101.995316 514.558533,102.430939 
	C515.003967,111.124939 515.003967,119.383316 515.003967,127.632179 
	C523.604919,127.632179 531.777344,127.632179 539.656738,127.632179 
	C539.656738,118.872093 539.656738,110.481407 539.656738,102.061089 
	C531.180054,102.061089 523.046448,102.061089 514.912842,102.061089 
	C514.912842,93.938354 514.912842,85.815620 514.912842,77.154968 
	C523.252014,77.154968 531.429443,77.154968 540.006653,77.154968 
	C540.006653,68.373932 540.006653,60.124519 540.006531,51.437706 
	C540.006409,51.000309 539.937683,51.073475 539.937683,51.073475 
	C548.420044,51.073475 556.902466,51.073475 565.691650,51.073475 
	C565.691650,85.249008 565.691650,119.320480 565.691650,154.007202 
	C540.557800,154.007202 515.299377,154.007202 489.617737,154.092697 
	C489.194580,154.178192 489.276886,154.250931 489.276886,154.250931 
z"/>
<path fill="#000000" opacity="1.000000" stroke="none" 
	d="
M257.068756,205.924194 
	C248.594681,205.924194 240.120605,205.924194 231.323975,205.924194 
	C231.323975,188.802597 231.323975,171.747299 231.323975,154.303040 
	C239.488281,154.303040 247.891861,154.303040 256.647095,154.303040 
	C256.647095,145.531052 256.647095,137.129623 256.647095,128.161987 
	C248.434967,128.161987 239.906158,128.161987 231.197235,128.161987 
	C231.197235,119.201843 231.197235,110.805946 231.197235,102.006378 
	C256.964172,102.006378 282.544647,102.006378 308.562561,102.004402 
	C308.999969,102.002426 308.930054,101.930061 308.962555,102.402176 
	C308.995056,111.131691 308.995056,119.389091 308.995056,128.011383 
	C300.184875,128.011383 291.791718,128.011383 283.075867,128.011383 
	C283.075867,145.610352 283.075867,162.839661 282.603210,180.036942 
	C273.768066,180.004898 265.405518,180.004898 256.930054,180.004898 
	C256.930054,189.176331 256.930054,197.623138 256.964996,206.033783 
	C256.999939,205.997604 257.068756,205.924194 257.068756,205.924194 
z"/>
<path fill="#000000" opacity="1.000000" stroke="none" 
	d="
M644.034424,489.039062 
	C644.068848,480.600555 644.068848,472.125397 644.068848,463.325806 
	C660.861145,463.325806 677.584106,463.325806 694.696533,463.325806 
	C694.696533,471.489594 694.696533,479.891479 694.696533,488.647095 
	C703.469360,488.647095 711.871094,488.647095 720.839417,488.647095 
	C720.839417,480.433685 720.839417,471.904541 720.839417,463.196289 
	C738.125061,463.196289 754.846069,463.196289 771.783142,463.196289 
	C771.783142,471.757996 771.783142,480.154297 771.783142,488.940491 
	C763.595093,488.940491 755.523621,488.940491 746.993652,488.940491 
	C746.993652,497.589111 746.993652,505.857086 746.995605,514.562500 
	C746.997620,514.999939 747.069946,514.930054 746.597900,514.962524 
	C720.393860,514.973328 694.661987,514.951660 668.930054,514.930054 
	C668.930054,514.930054 669.000000,515.000000 669.002502,514.562866 
	C669.005005,505.765198 669.005005,497.404633 669.005005,488.930054 
	C660.157349,488.930054 652.043701,488.930054 643.930054,488.930054 
	C643.930054,488.930054 644.000061,489.002350 644.034424,489.039062 
z"/>
<path fill="#000000" opacity="1.000000" stroke="none" 
	d="
M385.931213,77.075798 
	C394.329163,77.052750 402.727112,77.029701 411.562500,77.006531 
	C411.999908,77.006416 411.926727,76.937691 411.926727,76.937691 
	C411.926727,85.071877 411.926727,93.206055 411.926727,101.869720 
	C428.949036,101.869720 445.780823,101.869720 462.993652,101.869720 
	C462.993652,119.306633 462.993652,136.215851 462.995605,153.562531 
	C462.997589,153.999969 463.069946,153.930054 462.597839,153.962555 
	C453.860687,153.995056 445.595581,153.995056 436.953949,153.995056 
	C436.953949,145.153244 436.953949,136.751862 436.953949,127.854515 
	C402.426544,127.854515 368.279602,127.854515 334.069946,127.854515 
	C334.069946,118.873978 334.069946,110.402016 334.034973,101.965027 
	C334.000000,102.000000 333.930054,102.069939 334.402161,102.037445 
	C351.885376,102.004951 368.896484,102.004951 386.069946,102.004951 
	C386.069946,93.182442 386.069946,85.056252 386.034973,76.966232 
	C386.000031,77.002403 385.931213,77.075798 385.931213,77.075798 
z"/>
<path fill="#000000" opacity="1.000000" stroke="none" 
	d="
M309.034363,102.039124 
	C309.068787,93.944107 309.068787,85.812378 309.068787,77.309158 
	C300.516479,77.309158 292.124420,77.309158 283.185913,77.309158 
	C283.185913,68.449249 283.185913,59.932392 283.185913,50.993343 
	C274.388519,50.993343 266.131714,50.993343 257.437500,50.993454 
	C257.000092,50.993565 257.073273,51.062290 257.073273,51.062290 
	C257.073273,42.590340 257.073273,34.118393 257.073273,25.323990 
	C274.194092,25.323990 291.246277,25.323990 308.684937,25.323990 
	C308.684937,33.476723 308.684937,41.878712 308.684937,50.809017 
	C334.556335,50.809017 360.052246,50.809017 385.994110,50.809017 
	C385.994110,59.597984 385.994110,67.864212 385.962646,76.603119 
	C385.931213,77.075798 386.000031,77.002403 385.562866,76.998726 
	C368.114563,76.995049 351.103485,76.995049 333.930054,76.995049 
	C333.930054,85.817657 333.930054,93.943802 333.930054,102.069939 
	C333.930054,102.069939 334.000000,102.000000 333.562866,101.997528 
	C325.060486,101.973389 316.995270,101.951721 308.930054,101.930061 
	C308.930054,101.930061 308.999969,102.002426 309.034363,102.039124 
z"/>
<path fill="#000000" opacity="1.000000" stroke="none" 
	d="
M747.062134,720.926758 
	C738.586609,720.926758 730.111084,720.926758 721.256714,720.926758 
	C721.256714,737.873596 721.256714,754.601257 721.256714,771.663086 
	C695.497742,771.663086 670.113159,771.663086 644.364502,771.663086 
	C644.364502,763.757874 644.364502,755.574036 644.364502,746.994629 
	C652.471802,746.994629 660.544067,746.994629 668.994873,746.994629 
	C668.994873,738.210144 668.994873,729.804443 668.994873,721.020020 
	C677.778503,721.020020 686.184265,721.020020 694.969116,721.020020 
	C694.969116,712.236755 694.969116,703.830994 694.969116,695.218628 
	C712.415527,695.218628 729.472412,695.218628 746.993347,695.218628 
	C746.993347,703.586487 746.993347,711.855835 746.993347,720.562500 
	C746.993347,720.999939 747.062134,720.926758 747.062134,720.926758 
z"/>
<path fill="#000000" opacity="1.000000" stroke="none" 
	d="
M282.926147,746.937134 
	C282.926147,755.080627 282.926147,763.224121 282.926147,771.683105 
	C265.782043,771.683105 248.720947,771.683105 231.329803,771.683105 
	C231.329803,729.371094 231.329803,686.878174 231.329803,644.193237 
	C248.470779,644.193237 265.530273,644.193237 282.794373,644.193237 
	C282.794373,652.450867 282.794373,660.516663 282.794373,668.975464 
	C274.226837,668.975464 265.819672,668.975464 257.211426,668.975464 
	C257.211426,695.087769 257.211426,720.808289 257.211426,747.006653 
	C265.583099,747.006653 273.853821,747.006653 282.561951,747.006226 
	C282.999359,747.005859 282.926147,746.937134 282.926147,746.937134 
z"/>
<path fill="#000000" opacity="1.000000" stroke="none" 
	d="
M180.068680,539.924316 
	C162.931259,539.924316 145.793823,539.924316 128.264786,539.924316 
	C128.264786,548.521912 128.264786,556.928406 128.264786,565.665222 
	C119.484352,565.665222 111.081833,565.665222 102.293747,565.665222 
	C102.293747,549.161072 102.293747,532.431152 102.293747,515.310181 
	C93.858406,515.310181 85.784874,515.310181 77.019798,515.310181 
	C77.019798,506.530090 77.019798,498.122772 77.135437,489.219238 
	C77.251083,488.722992 77.178322,488.805298 77.147552,488.840088 
	C93.788017,488.918579 110.459236,488.962250 127.603149,489.037354 
	C128.075836,489.068756 128.002426,488.999939 127.998734,489.437134 
	C127.995049,498.126282 127.995049,506.378235 127.995049,515.069946 
	C145.632721,515.069946 162.851334,515.069946 180.069946,515.069946 
	C180.069946,515.069946 180.000000,515.000000 179.997528,515.437134 
	C179.973389,523.939514 179.951721,532.004700 179.964981,540.033813 
	C179.999908,539.997681 180.068680,539.924316 180.068680,539.924316 
z"/>
<path fill="#000000" opacity="1.000000" stroke="none" 
	d="
M462.960938,695.034424 
	C471.399841,695.068848 479.875427,695.068848 488.739624,695.068848 
	C488.739624,703.531982 488.739624,711.936218 488.739624,720.700928 
	C514.504761,720.700928 539.887329,720.700928 565.634155,720.700928 
	C565.634155,729.571655 565.634155,738.087585 565.634155,746.993652 
	C531.690063,746.993652 497.782471,746.993652 463.437408,746.995728 
	C462.999969,746.997742 463.069946,747.069946 463.037445,746.597839 
	C463.026611,729.060486 463.048279,711.995300 463.069946,694.930054 
	C463.069946,694.930054 462.997650,695.000061 462.960938,695.034424 
z"/>
<path fill="#000000" opacity="1.000000" stroke="none" 
	d="
M180.075806,257.068756 
	C180.075806,248.601105 180.075806,240.133438 180.075806,231.157516 
	C205.602081,231.157516 231.082855,231.157516 257.005890,231.157516 
	C257.005890,222.727859 257.005890,214.798721 257.037323,206.396881 
	C257.068756,205.924194 256.999939,205.997604 257.437134,206.001282 
	C266.274811,205.980286 274.675323,205.955612 283.040588,206.402771 
	C283.005341,223.458496 283.005341,240.042374 283.005341,256.930054 
	C248.366455,256.930054 214.148254,256.930054 179.966217,256.964996 
	C180.002396,256.999939 180.075806,257.068756 180.075806,257.068756 
z"/>
<path fill="#000000" opacity="1.000000" stroke="none" 
	d="
M283.033630,747.042480 
	C283.067932,729.859009 283.067932,712.638794 283.067932,695.006653 
	C291.620117,695.006653 299.872314,695.006653 308.561951,695.006226 
	C308.999359,695.005859 308.926147,694.937134 308.926147,694.937134 
	C308.926147,703.381348 308.926147,711.825562 308.926147,720.992798 
	C325.686768,720.992798 342.322906,720.992798 359.382202,720.907288 
	C359.805359,720.821777 359.723053,720.749023 359.723053,720.749023 
	C359.723053,729.354492 359.723053,737.959961 359.723053,746.994507 
	C334.385437,746.994507 309.128326,746.994507 283.398682,746.965820 
	C282.926147,746.937134 282.999359,747.005859 283.033630,747.042480 
z"/>
<path fill="#000000" opacity="1.000000" stroke="none" 
	d="
M386.039062,643.965576 
	C360.623169,643.931152 335.170593,643.931152 309.359558,643.931152 
	C309.359558,635.417358 309.359558,626.903809 309.359558,618.015381 
	C326.125793,618.015381 342.847198,618.015381 359.949219,618.015381 
	C359.949219,609.255615 359.949219,600.853210 359.949219,592.006348 
	C368.593048,592.006348 376.859100,592.006348 385.562592,592.004272 
	C386.000031,592.002258 385.930054,591.930054 385.962555,592.402100 
	C385.973389,609.939453 385.951721,627.004700 385.930054,644.069946 
	C385.930054,644.069946 386.002350,643.999939 386.039062,643.965576 
z"/>
<path fill="#000000" opacity="1.000000" stroke="none" 
	d="
M412.034180,77.043068 
	C412.068481,59.945988 412.068481,42.812252 412.068481,25.339851 
	C420.169495,25.339851 428.237152,25.339851 436.696045,25.339851 
	C436.696045,33.488953 436.696045,41.891037 436.696045,50.845200 
	C454.249878,50.845200 471.429932,50.845200 488.800293,50.845200 
	C488.800293,59.793575 488.800293,68.189995 488.800293,76.994507 
	C463.370422,76.994507 438.121033,76.994507 412.399170,76.966095 
	C411.926727,76.937691 411.999908,77.006416 412.034180,77.043068 
z"/>
<path fill="#000000" opacity="1.000000" stroke="none" 
	d="
M154.039078,385.965637 
	C136.855515,385.931213 119.635254,385.931213 102.005898,385.931213 
	C102.005898,377.375488 102.005898,369.122528 102.037338,360.396881 
	C102.068779,359.924194 101.999977,359.997589 102.437134,360.001282 
	C119.886101,360.004944 136.897903,360.004944 153.930054,360.004944 
	C153.930054,369.152466 153.930054,377.611206 153.930054,386.069946 
	C153.930054,386.069946 154.002380,386.000031 154.039078,385.965637 
z"/>
<path fill="#000000" opacity="1.000000" stroke="none" 
	d="
M721.033813,283.042816 
	C721.068054,265.954987 721.068054,248.830521 721.068054,231.353577 
	C729.469177,231.353577 737.865967,231.353577 746.631714,231.353577 
	C746.631714,248.220367 746.631714,265.383698 746.631714,282.994507 
	C738.398804,282.994507 730.135071,282.994507 721.398804,282.966003 
	C720.926270,282.937469 720.999512,283.006165 721.033813,283.042816 
z"/>
<path fill="#000000" opacity="1.000000" stroke="none" 
	d="
M231.039093,565.965698 
	C214.188538,565.931274 197.301300,565.931274 180.005890,565.931274 
	C180.005890,557.374939 180.005890,549.122314 180.037292,540.396973 
	C180.068680,539.924316 179.999908,539.997681 180.437103,540.001343 
	C197.606186,540.026611 214.338058,540.048279 231.069946,540.069946 
	C231.069946,540.069946 231.000000,540.000000 230.997528,540.437134 
	C230.973389,549.272827 230.951721,557.671387 230.930054,566.069946 
	C230.930054,566.069946 231.002396,566.000061 231.039093,565.965698 
z"/>
<path fill="#000000" opacity="1.000000" stroke="none" 
	d="
M462.965546,746.961060 
	C462.931122,755.055908 462.931122,763.187439 462.931122,771.658875 
	C446.072510,771.658875 429.255157,771.658875 412.006348,771.658875 
	C412.006348,763.723389 412.006348,755.799133 412.004333,747.437378 
	C412.002350,746.999939 411.930054,747.069946 412.402161,747.037476 
	C429.606140,747.026611 446.338043,747.048279 463.069946,747.069946 
	C463.069946,747.069946 462.999969,746.997742 462.965546,746.961060 
z"/>
<path fill="#000000" opacity="1.000000" stroke="none" 
	d="
M256.965820,50.956909 
	C256.931519,59.384766 256.931519,67.849274 256.931519,76.656288 
	C248.516983,76.656288 240.127182,76.656288 231.368439,76.656288 
	C231.368439,68.443924 231.368439,59.939762 231.368439,51.005489 
	C239.614227,51.005489 247.871292,51.005489 256.600830,51.033890 
	C257.073273,51.062290 257.000092,50.993565 256.965820,50.956909 
z"/>
<path fill="#000000" opacity="1.000000" stroke="none" 
	d="
M386.034454,592.038940 
	C386.068878,583.628906 386.068878,575.182190 386.068878,566.006348 
	C394.402710,566.006348 402.763947,566.006348 411.562592,566.004272 
	C412.000031,566.002258 411.930054,565.930054 411.962585,566.402100 
	C411.973419,575.272766 411.951752,583.671387 411.930054,592.069946 
	C411.930054,592.069946 412.000000,592.000000 411.562866,591.997559 
	C402.727142,591.973389 394.328613,591.951721 385.930054,591.930054 
	C385.930054,591.930054 386.000031,592.002258 386.034454,592.038940 
z"/>
<path fill="#000000" opacity="1.000000" stroke="none" 
	d="
M462.960876,154.034363 
	C471.377594,154.052444 479.830994,154.036102 488.780640,154.135345 
	C489.276886,154.250931 489.194580,154.178192 489.159790,154.147415 
	C489.081360,162.454575 489.037720,170.792496 488.962646,179.603119 
	C488.931244,180.075806 489.000061,180.002396 488.562866,179.998718 
	C479.725189,180.019714 471.324677,180.044373 462.959412,179.597214 
	C463.019745,170.726944 463.044861,162.328506 463.069946,153.930054 
	C463.069946,153.930054 462.997589,153.999969 462.960876,154.034363 
z"/>
<path fill="#000000" opacity="1.000000" stroke="none" 
	d="
M153.960922,257.034363 
	C162.326294,257.047821 170.728363,257.026855 179.603119,257.037323 
	C180.075806,257.068756 180.002396,256.999939 179.998734,257.437134 
	C180.022018,266.272522 180.048981,274.670746 179.603271,283.036926 
	C170.768295,283.004883 162.405945,283.004883 154.069946,283.004883 
	C154.069946,273.823578 154.069946,265.376831 154.069946,256.930054 
	C154.069946,256.930054 153.997620,256.999969 153.960922,257.034363 
z"/>
<path fill="#000000" opacity="1.000000" stroke="none" 
	d="
M386.068787,720.924377 
	C377.617706,720.942993 369.166626,720.961609 360.219299,720.864624 
	C359.723053,720.749023 359.805359,720.821777 359.840149,720.852539 
	C359.874908,712.477661 359.874908,704.071899 359.874908,695.005920 
	C368.451538,695.005920 376.790985,695.005920 385.603119,695.037354 
	C386.075806,695.068848 386.002380,695.000000 385.998718,695.437134 
	C385.973389,704.272827 385.951721,712.671387 385.965027,721.033813 
	C385.999969,720.997742 386.068787,720.924377 386.068787,720.924377 
z"/>
<path fill="#000000" opacity="1.000000" stroke="none" 
	d="
M412.039062,746.965576 
	C403.628143,746.931152 395.180511,746.931152 386.005890,746.931152 
	C386.005890,738.595337 386.005890,730.232483 386.037354,721.397034 
	C386.068787,720.924377 385.999969,720.997742 386.437134,721.001343 
	C395.235809,721.004944 403.597351,721.004944 411.930054,721.004944 
	C411.930054,730.177612 411.930054,738.623779 411.930054,747.069946 
	C411.930054,747.069946 412.002350,746.999939 412.039062,746.965576 
z"/>
<path fill="#000000" opacity="1.000000" stroke="none" 
	d="
M309.033630,695.042480 
	C309.067932,686.615112 309.067932,678.151123 309.067932,669.344116 
	C317.148651,669.344116 325.205811,669.344116 333.631836,669.344116 
	C333.631836,677.555847 333.631836,686.059631 333.631836,694.994507 
	C325.719788,694.994507 317.795532,694.994507 309.398682,694.965820 
	C308.926147,694.937134 308.999359,695.005859 309.033630,695.042480 
z"/>
<path fill="#000000" opacity="1.000000" stroke="none" 
	d="
M746.956665,721.034241 
	C755.051636,721.068542 763.183228,721.068542 771.656860,721.068542 
	C771.656860,729.483521 771.656860,737.872986 771.656860,746.631531 
	C763.777222,746.631531 755.605957,746.631531 747.005432,746.631531 
	C747.005432,738.385010 747.005432,730.128357 747.033813,721.399231 
	C747.062134,720.926758 746.993347,720.999939 746.956665,721.034241 
z"/>
<path fill="#000000" opacity="1.000000" stroke="none" 
	d="
M614.833130,747.001160 
	C618.197998,746.512390 618.032532,748.385498 618.018555,750.330933 
	C617.968323,757.322571 617.998840,764.314819 617.998840,771.652771 
	C609.505737,771.652771 601.098206,771.652771 592.344604,771.652771 
	C592.344604,763.834045 592.344604,755.759705 592.344604,747.001038 
	C599.511719,747.001038 606.929688,747.001038 614.833130,747.001160 
z"/>
<path fill="#000000" opacity="1.000000" stroke="none" 
	d="
M540.043091,50.966019 
	C531.948181,50.931728 523.816589,50.931728 515.343079,50.931728 
	C515.343079,42.516068 515.343079,34.126682 515.343079,25.368404 
	C523.222839,25.368404 531.394165,25.368404 539.994568,25.368404 
	C539.994568,33.615170 539.994568,41.871834 539.966125,50.600990 
	C539.937683,51.073475 540.006409,51.000309 540.043091,50.966019 
z"/>
<path fill="#000000" opacity="1.000000" stroke="none" 
	d="
M312.166840,591.998840 
	C308.802185,592.487610 308.968384,590.614685 308.981445,588.669189 
	C309.030579,581.344177 309.001160,574.018738 309.001160,566.347351 
	C317.160370,566.347351 325.234833,566.347351 333.655334,566.347351 
	C333.655334,574.499573 333.655334,582.906921 333.655334,591.998962 
	C326.822571,591.998962 319.737396,591.998962 312.166840,591.998840 
z"/>
<path fill="#000000" opacity="1.000000" stroke="none" 
	d="
M412.034454,566.038940 
	C412.047882,557.673645 412.026886,549.271667 412.037354,540.397034 
	C412.068787,539.924377 411.999969,539.997742 412.437134,540.001343 
	C420.792267,540.004944 428.710236,540.004944 436.651917,540.004944 
	C436.651917,548.916504 436.651917,557.413757 436.651917,565.930054 
	C428.179291,565.930054 420.054657,565.930054 411.930054,565.930054 
	C411.930054,565.930054 412.000031,566.002258 412.034454,566.038940 
z"/>
<path fill="#000000" opacity="1.000000" stroke="none" 
	d="
M746.960938,515.034302 
	C755.049500,515.068726 763.174683,515.068726 771.649414,515.068726 
	C771.649414,523.251709 771.649414,531.416931 771.649414,539.994141 
	C763.706421,539.994141 755.788086,539.994141 747.396973,539.962708 
	C746.924316,539.931274 746.997620,540.000061 747.001221,539.562866 
	C747.026550,531.060486 747.048218,522.995300 747.069946,514.930054 
	C747.069946,514.930054 746.997620,514.999939 746.960938,515.034302 
z"/>
<path fill="#000000" opacity="1.000000" stroke="none" 
	d="
M765.911865,309.001038 
	C768.052856,309.001038 769.705505,309.001038 771.678223,309.001038 
	C771.678223,317.215881 771.678223,325.287750 771.678223,333.680786 
	C763.781067,333.680786 755.708679,333.680786 747.317139,333.680786 
	C747.317139,325.776520 747.317139,317.704559 747.317139,309.001038 
	C753.238525,309.001038 759.330994,309.001038 765.911865,309.001038 
z"/>
<path fill="#FFFFFF" opacity="1.000000" stroke="none" 
	d="
M540.068604,386.079712 
	C531.929138,386.079712 523.789673,386.079712 515.265991,386.079712 
	C515.265991,377.474487 515.265991,369.072968 515.265991,360.337280 
	C506.497284,360.337280 498.098785,360.337280 489.313232,360.337280 
	C489.313232,368.477264 489.313232,376.878448 489.313232,385.639099 
	C463.441010,385.639099 437.950073,385.639099 412.005341,385.639099 
	C412.005341,377.405975 412.005341,369.140289 412.003876,360.437256 
	C412.002411,359.999878 411.930054,360.069946 412.402130,360.037415 
	C420.792175,360.004913 428.710144,360.004913 436.651886,360.004913 
	C436.651886,351.083862 436.651886,342.586212 436.651886,333.930054 
	C428.179504,333.930054 420.054779,333.930054 411.966248,333.965088 
	C412.002441,334.000092 412.075867,334.069031 412.075867,334.069031 
	C412.075867,325.923492 412.075867,317.777924 412.075867,309.251953 
	C437.548492,309.251953 462.942566,309.251953 488.667694,309.251953 
	C488.667694,300.480438 488.667694,292.076141 488.667694,283.274902 
	C480.487152,283.274902 472.079071,283.274902 463.337006,283.274902 
	C463.337006,274.490448 463.337006,266.085876 463.337006,257.284302 
	C471.503510,257.284302 479.911163,257.284302 488.710999,257.284302 
	C488.710999,248.501572 488.710999,240.093643 488.710999,231.344055 
	C505.829041,231.344055 522.560974,231.344055 539.646973,231.344055 
	C539.646973,239.476013 539.646973,247.881561 539.646973,256.683777 
	C531.863403,256.683777 523.788391,256.683777 515.357544,256.683777 
	C515.357544,282.585236 515.357544,308.095001 515.357544,333.980377 
	C549.452515,333.980377 583.507935,333.980377 617.948303,333.980377 
	C617.948303,351.414673 617.948303,368.480652 617.948303,385.930054 
	C635.062500,385.930054 651.795715,385.930054 669.004944,385.930054 
	C669.004944,394.581299 669.004944,402.853516 669.037476,411.597839 
	C626.198486,412.069946 583.327087,412.069946 539.994812,412.069946 
	C539.994812,403.407562 539.994812,395.144043 540.433228,386.438049 
	C557.787720,385.995514 574.703796,385.995514 591.632690,385.995514 
	C591.632690,377.073822 591.632690,368.562592 591.632690,360.332642 
	C574.216492,360.332642 557.168396,360.332642 540.068604,360.332642 
	C540.068604,369.136597 540.068604,377.608154 540.068604,386.079712 
z"/>
<path fill="#FFFFFF" opacity="1.000000" stroke="none" 
	d="
M462.597839,153.962555 
	C463.044861,162.328506 463.019745,170.726944 462.996155,179.562744 
	C462.997620,180.000107 463.069946,179.930054 462.597839,179.962555 
	C453.874939,179.995056 445.624084,179.995056 437.348633,179.995056 
	C437.348633,188.915802 437.348633,197.414139 437.348633,206.069946 
	C446.154602,206.069946 454.612274,206.069946 463.033752,206.034943 
	C462.997559,205.999939 462.924133,205.931015 462.924133,205.931015 
	C462.924133,214.065735 462.924133,222.200470 462.924133,230.667480 
	C437.398315,230.667480 411.922333,230.667480 386.005341,230.667480 
	C386.005341,222.731247 386.005341,214.802917 386.003845,206.437256 
	C386.002380,205.999893 385.930054,206.069946 386.402161,206.037445 
	C395.125061,206.004944 403.375916,206.004944 411.651367,206.004944 
	C411.651367,197.084198 411.651367,188.585861 411.651367,179.930054 
	C402.845398,179.930054 394.387726,179.930054 385.965027,179.965027 
	C386.000000,180.000000 386.069946,180.069946 386.037415,179.597870 
	C386.004913,170.874954 386.004913,162.624100 386.004913,154.348618 
	C377.084229,154.348618 368.585876,154.348618 359.930054,154.348618 
	C359.930054,163.154602 359.930054,171.612274 359.965027,180.034973 
	C360.000000,180.000000 360.069946,179.930054 359.597839,179.962555 
	C350.764374,179.995056 342.403076,179.995056 333.930054,179.995056 
	C333.930054,189.177460 333.930054,197.623703 333.965027,206.034973 
	C334.000000,206.000000 334.069946,205.930054 333.597870,205.962555 
	C325.060547,205.973389 316.995300,205.951721 308.965027,205.965027 
	C309.000000,206.000000 309.069946,206.069946 309.037445,205.597824 
	C309.004944,196.764389 309.004944,188.403076 309.004944,179.930054 
	C299.822540,179.930054 291.376282,179.930054 282.966248,179.965057 
	C283.002441,180.000061 283.075867,180.068985 283.075867,180.068985 
	C283.075867,162.839661 283.075867,145.610352 283.075867,128.011383 
	C291.791718,128.011383 300.184875,128.011383 308.995056,128.011383 
	C308.995056,119.389091 308.995056,111.131691 308.962555,102.402176 
	C316.995270,101.951721 325.060486,101.973389 333.597839,101.962555 
	C334.069946,110.402016 334.069946,118.873978 334.069946,127.854515 
	C368.279602,127.854515 402.426544,127.854515 436.953949,127.854515 
	C436.953949,136.751862 436.953949,145.153244 436.953949,153.995056 
	C445.595581,153.995056 453.860687,153.995056 462.597839,153.962555 
z"/>
<path fill="#FFFFFF" opacity="1.000000" stroke="none" 
	d="
M180.075928,283.068970 
	C180.048981,274.670746 180.022018,266.272522 179.962555,257.402161 
	C214.148254,256.930054 248.366455,256.930054 283.005341,256.930054 
	C283.005341,240.042374 283.005341,223.458496 283.003845,206.437256 
	C283.002380,205.999893 282.930054,206.069946 283.402130,206.037445 
	C292.272797,206.026611 300.671356,206.048279 309.069946,206.069946 
	C309.069946,206.069946 309.000000,206.000000 308.997528,206.437134 
	C308.995056,214.902603 308.995056,222.930923 308.995056,231.069946 
	C317.844147,231.069946 325.957062,231.069946 334.033752,231.034943 
	C333.997559,230.999939 333.924133,230.931015 333.924133,230.931015 
	C333.924133,248.056641 333.924133,265.182251 333.924133,282.849915 
	C317.073212,282.849915 300.233185,282.849915 283.200745,282.849915 
	C283.200745,291.784607 283.200745,300.177795 283.200745,308.954742 
	C291.752960,308.954742 300.153778,308.954742 308.994659,308.954742 
	C308.994659,317.261841 308.994659,325.193634 308.996155,333.562775 
	C308.997620,334.000153 309.069946,333.930054 308.597809,333.962555 
	C291.060455,333.973389 273.995270,333.951721 256.965027,333.965027 
	C257.000000,334.000000 257.069946,334.069946 257.037415,333.597870 
	C257.004913,325.097198 257.004913,317.068573 257.004913,308.930054 
	C247.820602,308.930054 239.375336,308.930054 230.965027,308.965027 
	C231.000000,309.000000 231.069946,309.069946 231.037445,308.597839 
	C231.004944,299.874084 231.004944,291.622437 231.004944,282.930054 
	C213.701324,282.930054 196.815689,282.930054 179.966278,282.965027 
	C180.002487,283.000031 180.075912,283.068970 180.075928,283.068970 
z"/>
<path fill="#FFFFFF" opacity="1.000000" stroke="none" 
	d="
M571.000000,309.000000 
	C560.524292,309.000000 550.548584,309.000000 540.287109,309.000000 
	C540.287109,300.382996 540.287109,291.977936 540.287109,283.284912 
	C565.955566,283.284912 591.690125,283.284912 617.712830,283.284912 
	C617.712830,291.616882 617.712830,300.021942 617.712830,309.000000 
	C602.355652,309.000000 586.927856,309.000000 571.000000,309.000000 
z"/>
<path fill="#FFFFFF" opacity="1.000000" stroke="none" 
	d="
M334.075867,334.069031 
	C334.075867,325.938080 334.075867,317.807129 334.075867,309.338165 
	C351.263306,309.338165 368.413605,309.338165 385.994659,309.338165 
	C385.994659,317.276337 385.994659,325.200867 385.996155,333.562775 
	C385.997620,334.000153 386.069946,333.930054 385.597809,333.962555 
	C368.060455,333.973389 350.995270,333.951721 333.966248,333.965088 
	C334.002441,334.000092 334.075867,334.069031 334.075867,334.069031 
z"/>
<path fill="#FFFFFF" opacity="1.000000" stroke="none" 
	d="
M462.960876,180.034576 
	C471.324677,180.044373 479.725189,180.019714 488.597839,179.962555 
	C489.069946,188.376862 489.069946,196.823669 489.069946,205.995102 
	C480.594482,205.995102 472.231934,205.995102 463.396790,205.963058 
	C462.924133,205.931015 462.997559,205.999939 463.001251,205.562836 
	C463.026611,196.727158 463.048279,188.328613 463.069946,179.930054 
	C463.069946,179.930054 462.997620,180.000107 462.960876,180.034576 
z"/>
<path fill="#FFFFFF" opacity="1.000000" stroke="none" 
	d="
M386.039124,205.965424 
	C377.675446,205.952179 369.275024,205.973404 360.437256,205.996094 
	C359.999908,205.997574 360.069946,206.069946 360.037415,205.597870 
	C360.026611,196.727219 360.048279,188.328629 360.069946,179.930054 
	C360.069946,179.930054 360.000000,180.000000 360.437134,180.002472 
	C369.272858,180.026627 377.671387,180.048294 386.069946,180.069946 
	C386.069946,180.069946 386.000000,180.000000 385.997528,180.437134 
	C385.973389,189.272842 385.951721,197.671387 385.930054,206.069946 
	C385.930054,206.069946 386.002380,205.999893 386.039124,205.965424 
z"/>
<path fill="#FFFFFF" opacity="1.000000" stroke="none" 
	d="
M385.999878,260.164734 
	C386.000000,267.947632 386.000000,275.243530 386.000000,282.767273 
	C377.270111,282.767273 368.866272,282.767273 360.230408,282.767273 
	C360.230408,274.265442 360.230408,265.861572 360.230408,257.001556 
	C368.108185,257.001556 375.889404,256.923920 383.663788,257.118652 
	C384.463287,257.138672 385.222046,258.785675 385.999878,260.164734 
z"/>
<path fill="#FFFFFF" opacity="1.000000" stroke="none" 
	d="
M412.039124,359.965424 
	C403.675415,359.952209 395.275024,359.973450 386.437256,359.996155 
	C385.999878,359.997589 386.069946,360.069946 386.037415,359.597870 
	C386.026611,350.727203 386.048279,342.328644 386.069946,333.930054 
	C386.069946,333.930054 385.997620,334.000153 385.960876,334.034607 
	C394.326294,334.047668 402.728455,334.026276 411.603210,334.036957 
	C412.075867,334.069031 412.002441,334.000092 411.998749,334.437195 
	C411.973389,343.272858 411.951721,351.671387 411.930054,360.069946 
	C411.930054,360.069946 412.002411,359.999878 412.039124,359.965424 
z"/>
<path fill="#FFFFFF" opacity="1.000000" stroke="none" 
	d="
M334.069031,359.924133 
	C326.004211,359.947632 317.939423,359.971130 309.437225,359.996124 
	C308.999847,359.997620 309.069946,360.069946 309.037445,359.597839 
	C309.026611,350.727142 309.048279,342.328613 309.069946,333.930054 
	C309.069946,333.930054 308.997620,334.000153 308.960876,334.034607 
	C316.992981,334.047699 325.061768,334.026306 333.603210,334.036987 
	C334.075867,334.069031 334.002441,334.000092 333.998749,334.437195 
	C333.973389,343.272858 333.951721,351.671387 333.965088,360.033752 
	C334.000092,359.997559 334.069031,359.924133 334.069031,359.924133 
z"/>
<path fill="#FFFFFF" opacity="1.000000" stroke="none" 
	d="
M657.986206,283.000000 
	C661.793335,283.000000 665.105042,283.000000 668.707520,283.000000 
	C668.707520,291.604828 668.707520,300.009064 668.707520,308.708191 
	C660.727356,308.708191 652.656189,308.708191 644.290955,308.708191 
	C644.290955,300.391937 644.290955,291.987762 644.290955,283.000000 
	C648.625916,283.000000 653.058350,283.000000 657.986206,283.000000 
z"/>
<path fill="#FFFFFF" opacity="1.000000" stroke="none" 
	d="
M359.965454,205.960846 
	C359.930969,214.039551 359.930969,222.154984 359.930969,230.995102 
	C351.594421,230.995102 343.231903,230.995102 334.396790,230.963058 
	C333.924133,230.931015 333.997559,230.999939 334.001221,230.562836 
	C334.026581,222.060501 334.048248,213.995270 334.069946,205.930054 
	C334.069946,205.930054 334.000000,206.000000 334.437134,206.002472 
	C343.272858,206.026611 351.671387,206.048279 360.069946,206.069946 
	C360.069946,206.069946 359.999908,205.997574 359.965454,205.960846 
z"/>
<path fill="#FFFFFF" opacity="1.000000" stroke="none" 
	d="
M489.402161,515.037476 
	C488.955139,506.671509 488.980225,498.273041 489.003876,489.437256 
	C489.002411,488.999878 488.930054,489.069946 489.402161,489.037415 
	C506.451874,489.004913 523.029480,489.004913 539.643799,489.004913 
	C539.643799,480.089142 539.643799,471.580841 539.643799,462.930054 
	C522.501831,462.930054 505.715942,462.930054 488.966248,462.965088 
	C489.002441,463.000092 489.075867,463.069031 489.075867,463.069031 
	C489.075867,454.595795 489.075867,446.122528 489.075867,437.324829 
	C523.291687,437.324829 557.441284,437.324829 591.962830,437.324829 
	C591.962830,454.434723 591.962830,471.489838 591.962830,488.995056 
	C600.592468,488.995056 608.859070,488.995056 617.597839,488.962555 
	C618.069946,497.401245 618.069946,505.872437 618.069946,515.004944 
	C575.202637,515.004944 532.538452,515.004944 489.402161,515.037476 
z"/>
<path fill="#FFFFFF" opacity="1.000000" stroke="none" 
	d="
M411.962585,566.402100 
	C420.054657,565.930054 428.179291,565.930054 436.651917,565.930054 
	C436.651917,557.413757 436.651917,548.916504 436.651917,540.004944 
	C428.710236,540.004944 420.792267,540.004944 412.402161,540.037476 
	C411.930054,531.937866 411.930054,523.805725 411.930054,514.995056 
	C437.450836,514.995056 462.788269,514.995056 488.597809,514.962524 
	C489.069946,523.074097 489.069946,531.218140 489.069946,539.752441 
	C480.457977,539.752441 472.051727,539.752441 463.324799,539.752441 
	C463.324799,548.532959 463.324799,556.935059 463.324799,565.669861 
	C480.186676,565.669861 497.247314,565.669861 514.700500,565.669861 
	C514.700500,557.511475 514.700500,549.105286 514.700500,540.350830 
	C523.145264,540.350830 531.215820,540.350830 539.644226,540.350830 
	C539.644226,557.254700 539.644226,574.431702 539.644226,592.002808 
	C531.534058,592.002808 523.460144,592.002808 515.007507,592.002808 
	C515.007507,600.788940 515.007507,609.195557 515.007507,617.795166 
	C506.218048,617.795166 497.819427,617.795166 489.028870,617.795166 
	C489.028870,609.233093 489.028870,600.826477 489.028870,592.004944 
	C463.384705,592.004944 438.129517,592.004944 412.402191,592.037476 
	C411.951752,583.671387 411.973419,575.272766 411.962585,566.402100 
z"/>
<path fill="#FFFFFF" opacity="1.000000" stroke="none" 
	d="
M566.000000,614.000000 
	C566.000000,597.857849 566.000000,582.215698 566.000000,566.287231 
	C591.952454,566.287231 617.688477,566.287231 643.712769,566.287231 
	C643.712769,591.952393 643.712769,617.688416 643.712769,643.712769 
	C618.047607,643.712769 592.311584,643.712769 566.000000,643.712769 
	C566.000000,634.028137 566.000000,624.264038 566.000000,614.000000 
M614.348206,618.000000 
	C615.953613,617.814819 618.111328,618.872681 618.047913,615.639709 
	C617.895447,607.865479 617.998535,600.086243 617.998535,592.240112 
	C609.118958,592.240112 600.715027,592.240112 592.242737,592.240112 
	C592.242737,600.886353 592.242737,609.290344 592.242737,618.000000 
	C599.446533,618.000000 606.411987,618.000000 614.348206,618.000000 
z"/>
<path fill="#FFFFFF" opacity="1.000000" stroke="none" 
	d="
M412.402161,747.037476 
	C411.930054,738.623779 411.930054,730.177612 411.930054,721.004944 
	C403.597351,721.004944 395.235809,721.004944 386.402161,721.037476 
	C385.951721,712.671387 385.973389,704.272827 385.962585,695.402161 
	C394.396698,694.930054 402.863312,694.930054 411.705750,694.930054 
	C411.705750,686.499939 411.705750,678.104858 411.705750,669.355835 
	C420.247375,669.355835 428.422211,669.355835 436.977600,669.355835 
	C436.977600,677.778992 436.977600,686.174805 436.977600,694.995056 
	C445.605865,694.995056 453.865784,694.995056 462.597839,694.962524 
	C463.048279,711.995300 463.026611,729.060486 463.037445,746.597839 
	C446.338043,747.048279 429.606140,747.026611 412.402161,747.037476 
z"/>
<path fill="#FFFFFF" opacity="1.000000" stroke="none" 
	d="
M385.962555,592.402100 
	C394.328613,591.951721 402.727142,591.973389 411.597839,591.962524 
	C412.069946,600.401978 412.069946,608.873840 412.069946,617.712524 
	C428.848846,617.712524 445.568024,617.712524 462.643066,617.712524 
	C462.643066,626.583740 462.643066,635.096436 462.643066,644.004944 
	C437.354767,644.004944 412.114532,644.004944 386.402161,644.037476 
	C385.951721,627.004700 385.973389,609.939453 385.962555,592.402100 
z"/>
<path fill="#FFFFFF" opacity="1.000000" stroke="none" 
	d="
M746.597839,514.962524 
	C747.048218,522.995300 747.026550,531.060486 747.037415,539.597839 
	C721.191589,540.069946 695.313293,540.069946 668.995056,540.069946 
	C668.995056,531.725464 668.995056,523.799866 668.962524,515.402100 
	C694.661987,514.951660 720.393860,514.973328 746.597839,514.962524 
z"/>
<path fill="#FFFFFF" opacity="1.000000" stroke="none" 
	d="
M721.050964,591.972473 
	C703.960632,591.938293 686.833679,591.938293 669.353394,591.938293 
	C669.353394,583.533020 669.353394,575.135437 669.353394,566.368042 
	C686.220398,566.368042 703.385132,566.368042 720.996033,566.368042 
	C720.996033,574.602966 720.996033,582.867981 720.970947,591.606323 
	C720.945801,592.079712 721.014343,592.006653 721.050964,591.972473 
z"/>
<path fill="#FFFFFF" opacity="1.000000" stroke="none" 
	d="
M592.027527,695.050964 
	C592.061707,686.621033 592.061707,678.154419 592.061707,669.343994 
	C600.480286,669.343994 608.871277,669.343994 617.631958,669.343994 
	C617.631958,677.555664 617.631958,686.060547 617.631958,694.996033 
	C609.384460,694.996033 601.125732,694.996033 592.393677,694.970947 
	C591.920288,694.945801 591.993347,695.014343 592.027527,695.050964 
z"/>
<path fill="#FFFFFF" opacity="1.000000" stroke="none" 
	d="
M643.962524,489.402130 
	C652.043701,488.930054 660.157349,488.930054 669.005005,488.930054 
	C669.005005,497.404633 669.005005,505.765198 669.037476,514.597839 
	C660.956299,515.069946 652.842651,515.069946 643.995056,515.069946 
	C643.995056,506.595337 643.995056,498.234772 643.962524,489.402130 
z"/>
<path fill="#FFFFFF" opacity="1.000000" stroke="none" 
	d="
M283.037415,514.597900 
	C274.598022,515.069946 266.126068,515.069946 257.270935,515.069946 
	C257.270935,506.478790 257.270935,498.078278 257.270935,489.296753 
	C248.504486,489.296753 240.105133,489.296753 231.353210,489.296753 
	C231.353210,480.531433 231.353210,472.132690 231.353210,463.171967 
	C239.558319,463.171967 248.084320,463.171967 256.797424,463.171967 
	C256.797424,454.218689 256.797424,445.825073 256.797424,437.047058 
	C248.249084,437.047058 239.847855,437.047058 231.005356,437.047058 
	C231.005356,428.738922 231.005356,420.806763 231.003906,412.437256 
	C231.002441,411.999878 230.930054,412.069946 231.402130,412.037415 
	C240.134216,412.004913 248.394241,412.004913 257.022949,412.004913 
	C257.022949,403.174347 257.022949,394.779175 257.022949,385.841675 
	C265.904022,385.841675 274.425262,385.841675 283.293640,385.841675 
	C283.293640,376.895813 283.293640,368.500580 283.293640,360.069946 
	C292.136475,360.069946 300.603210,360.069946 309.069946,360.069946 
	C309.069946,360.069946 308.999847,359.997620 308.965393,359.960876 
	C308.930939,377.052979 308.930939,394.181824 308.930939,411.695587 
	C300.512482,411.695587 292.112549,411.695587 283.004913,411.695587 
	C283.004913,446.092377 283.004913,480.109070 283.037415,514.597900 
z"/>
<path fill="#FFFFFF" opacity="1.000000" stroke="none" 
	d="
M411.597870,436.962585 
	C412.069946,454.057037 412.069946,471.184021 412.069946,488.853821 
	C394.736053,488.853821 377.562225,488.853821 360.012543,488.853821 
	C360.012543,497.786346 360.012543,506.187775 360.012543,515.004944 
	C343.045898,515.004944 326.460114,515.004944 309.402191,515.037476 
	C308.930054,506.612640 308.930054,498.155334 308.930054,489.158813 
	C317.245453,489.158813 325.423920,489.158813 334.005615,489.158813 
	C334.005615,480.375580 334.005615,472.125183 334.005981,463.437469 
	C334.006317,463.000122 333.937500,463.073334 333.937500,463.073334 
	C342.405945,463.073334 350.874390,463.073334 359.701843,463.073334 
	C359.701843,446.160278 359.701843,429.446930 359.701843,412.367188 
	C368.561035,412.367188 377.070862,412.367188 385.965759,412.367188 
	C385.965759,420.432556 385.965759,428.497620 385.965759,436.995087 
	C394.601013,436.995087 402.863403,436.995087 411.597870,436.962585 
z"/>
<path fill="#FFFFFF" opacity="1.000000" stroke="none" 
	d="
M489.039124,488.965393 
	C471.955902,488.930939 454.835968,488.930939 437.184387,488.930939 
	C437.184387,471.771118 437.184387,454.605164 437.184387,437.004944 
	C428.732056,437.004944 420.803192,437.004944 412.402161,437.037445 
	C411.930054,428.932526 411.930054,420.795135 411.930054,412.329285 
	C428.841553,412.329285 445.555969,412.329285 462.809082,412.329285 
	C462.809082,428.886627 462.809082,445.723724 462.809082,463.004883 
	C471.603149,463.004883 479.866852,463.004883 488.603210,463.036957 
	C489.075867,463.069031 489.002441,463.000092 488.998749,463.437195 
	C488.973389,472.272858 488.951721,480.671387 488.930054,489.069946 
	C488.930054,489.069946 489.002411,488.999878 489.039124,488.965393 
z"/>
<path fill="#FFFFFF" opacity="1.000000" stroke="none" 
	d="
M385.965393,359.960876 
	C385.930939,368.389526 385.930939,376.854858 385.930939,385.660034 
	C368.738159,385.660034 351.585663,385.660034 334.004883,385.660034 
	C334.004883,377.386444 334.004883,369.127930 334.036957,360.396790 
	C334.069031,359.924133 334.000092,359.997559 334.437195,360.001251 
	C351.939545,360.026611 369.004730,360.048279 386.069946,360.069946 
	C386.069946,360.069946 385.999878,359.997589 385.965393,359.960876 
z"/>
<path fill="#FFFFFF" opacity="1.000000" stroke="none" 
	d="
M334.042969,462.965790 
	C325.947601,462.931458 317.815582,462.931458 309.341858,462.931458 
	C309.341858,454.516235 309.341858,446.126221 309.341858,437.367310 
	C317.222260,437.367310 325.394196,437.367310 333.995514,437.367310 
	C333.995514,445.614075 333.995514,453.871277 333.966492,462.600891 
	C333.937500,463.073334 334.006317,463.000122 334.042969,462.965790 
z"/>
<path fill="#FFFFFF" opacity="1.000000" stroke="none" 
	d="
M153.597870,256.962585 
	C154.069946,265.376831 154.069946,273.823578 154.069946,283.004883 
	C162.405945,283.004883 170.768295,283.004883 179.603271,283.036926 
	C180.075912,283.068970 180.002487,283.000031 179.998779,283.437164 
	C179.995056,292.125946 179.995056,300.377625 179.995056,309.069946 
	C197.298691,309.069946 214.184326,309.069946 231.069946,309.069946 
	C231.069946,309.069946 231.000000,309.000000 230.997528,309.437134 
	C230.995056,317.902863 230.995056,325.931458 230.995056,334.069946 
	C240.179428,334.069946 248.624680,334.069946 257.069946,334.069946 
	C257.069946,334.069946 257.000000,334.000000 256.997528,334.437134 
	C256.995056,343.131744 256.995056,351.389160 256.995056,360.011536 
	C248.184891,360.011536 239.793381,360.011536 230.930054,360.011536 
	C230.930054,377.610474 230.930054,394.840210 230.930054,412.069946 
	C230.930054,412.069946 231.002441,411.999878 231.039154,411.965424 
	C223.008881,411.952087 214.941879,411.973236 206.437546,411.994080 
	C206.000214,411.993744 206.073425,412.062561 206.073425,412.062561 
	C206.073425,403.605011 206.073425,395.147491 206.073425,386.004944 
	C188.895599,386.004944 171.884949,386.004944 154.402176,386.037445 
	C153.930054,377.611206 153.930054,369.152466 153.930054,360.004944 
	C136.897903,360.004944 119.886101,360.004944 102.402176,360.037445 
	C101.951653,351.673584 101.973251,343.277222 102.433327,334.438202 
	C111.128990,333.995544 119.386177,333.995544 127.632515,333.995544 
	C127.632515,325.394043 127.632515,317.222137 127.632515,309.341949 
	C118.873329,309.341949 110.483238,309.341949 102.068901,309.341949 
	C102.068901,317.815857 102.068901,325.947968 102.068901,334.080078 
	C93.930542,334.080078 85.792183,334.080078 77.327255,334.080078 
	C77.327255,317.151611 77.327255,300.434723 77.327255,283.156616 
	C85.240173,283.156616 93.433403,283.156616 101.993332,283.156616 
	C101.993332,274.207245 101.993332,265.806458 101.993332,256.995087 
	C119.290886,256.995087 136.208344,256.995087 153.597870,256.962585 
M198.440063,334.000000 
	C192.346176,334.000000 186.252304,334.000000 180.309433,334.000000 
	C180.309433,343.024536 180.309433,351.430237 180.309433,359.689148 
	C189.027481,359.689148 197.433228,359.689148 205.687408,359.689148 
	C205.687408,350.969910 205.687408,342.564453 205.687408,334.000000 
	C203.391754,334.000000 201.407715,334.000000 198.440063,334.000000 
z"/>
<path fill="#FFFFFF" opacity="1.000000" stroke="none" 
	d="
M180.037445,514.597900 
	C162.851334,515.069946 145.632721,515.069946 127.995049,515.069946 
	C127.995049,506.378235 127.995049,498.126282 127.962555,489.402161 
	C144.995071,488.955261 162.060074,488.980438 179.562439,489.005920 
	C179.999786,489.006256 179.926575,488.937439 179.926575,488.937439 
	C179.952698,497.333557 179.978821,505.729675 180.037445,514.597900 
z"/>
<path fill="#FFFFFF" opacity="1.000000" stroke="none" 
	d="
M231.037445,539.597900 
	C214.338058,540.048279 197.606186,540.026611 180.402176,540.037476 
	C179.951721,532.004700 179.973389,523.939514 179.962555,515.402161 
	C196.815018,514.930054 213.699982,514.930054 231.004944,514.930054 
	C231.004944,523.287598 231.004944,531.206665 231.037445,539.597900 
z"/>
<path fill="#FFFFFF" opacity="1.000000" stroke="none" 
	d="
M231.402130,566.037476 
	C230.951721,557.671387 230.973389,549.272827 230.962555,540.402161 
	C239.387772,539.930054 247.845490,539.930054 256.651398,539.930054 
	C256.651398,548.585876 256.651398,557.084229 256.651398,566.004944 
	C248.375900,566.004944 240.125061,566.004944 231.402130,566.037476 
z"/>
<path fill="#FFFFFF" opacity="1.000000" stroke="none" 
	d="
M180.034119,489.042908 
	C180.068451,480.614594 180.068451,472.149567 180.068451,463.342377 
	C188.483032,463.342377 196.873459,463.342377 205.632721,463.342377 
	C205.632721,471.555603 205.632721,480.060425 205.632721,488.995514 
	C197.386658,488.995514 189.129059,488.995514 180.399017,488.966492 
	C179.926575,488.937439 179.999786,489.006256 180.034119,489.042908 
z"/>
<path fill="#FFFFFF" opacity="1.000000" stroke="none" 
	d="
M205.965881,411.957092 
	C205.931549,420.052460 205.931549,428.184509 205.931549,436.658203 
	C197.516342,436.658203 189.126251,436.658203 180.367279,436.658203 
	C180.367279,428.777740 180.367279,420.605774 180.367279,412.004486 
	C188.614120,412.004486 196.871323,412.004486 205.600983,412.033508 
	C206.073425,412.062561 206.000214,411.993744 205.965881,411.957092 
z"/>
<path fill="#FCFCFC" opacity="1.000000" stroke="none" 
	d="
M617.998779,141.000000 
	C617.998779,110.869614 617.998779,81.239227 617.998779,51.303959 
	C660.893860,51.303959 703.605957,51.303959 746.624329,51.303959 
	C746.624329,93.915161 746.624329,136.606018 746.624329,179.565857 
	C703.925049,179.565857 661.349609,179.565857 617.998779,179.565857 
	C617.998779,166.970306 617.998779,154.235153 617.998779,141.000000 
M717.298218,153.999420 
	C720.697571,154.656006 720.952148,152.773926 720.940002,150.014832 
	C720.846069,128.700821 720.888306,107.386208 720.888367,86.071777 
	C720.888367,83.117340 720.888306,80.162910 720.888306,77.110443 
	C694.882874,77.110443 669.339783,77.110443 643.778442,77.110443 
	C643.778442,102.813057 643.778442,128.217133 643.778442,153.999496 
	C668.105713,153.999496 692.221069,153.999496 717.298218,153.999420 
z"/>
<path fill="#FCFCFC" opacity="1.000000" stroke="none" 
	d="
M93.000076,617.825317 
	C122.144447,617.825317 150.788818,617.825317 179.719086,617.825317 
	C179.719086,660.753113 179.719086,703.481689 179.719086,746.459106 
	C137.026871,746.459106 94.439217,746.459106 51.505653,746.459106 
	C51.505653,703.693848 51.505653,660.996582 51.505653,617.825317 
	C65.256096,617.825317 78.878082,617.825317 93.000076,617.825317 
M76.814583,688.499939 
	C76.814583,699.230835 76.814583,709.961731 76.814583,720.600647 
	C102.939087,720.600647 128.328705,720.600647 153.672394,720.600647 
	C153.672394,694.774780 153.672394,669.236084 153.672394,643.852295 
	C127.948570,643.852295 102.551109,643.852295 76.814583,643.852295 
	C76.814583,658.589844 76.814583,673.044861 76.814583,688.499939 
z"/>
<path fill="#FCFCFC" opacity="1.000000" stroke="none" 
	d="
M117.999931,179.836288 
	C95.545700,179.836288 73.591476,179.836288 51.401970,179.836288 
	C51.401970,136.792953 51.401970,94.204247 51.401970,51.306141 
	C94.163223,51.306141 136.878571,51.306141 179.798706,51.306141 
	C179.798706,93.988014 179.798706,136.592377 179.798706,179.836288 
	C159.357224,179.836288 138.928574,179.836288 117.999931,179.836288 
M92.502708,153.998245 
	C112.912384,153.998245 133.322067,153.998245 153.655273,153.998245 
	C153.655273,127.949554 153.655273,102.426163 153.655273,77.091415 
	C127.912056,77.091415 102.512360,77.091415 76.988525,77.091415 
	C76.988525,102.761681 76.988525,128.154587 76.988525,153.998245 
	C81.934227,153.998245 86.718979,153.998245 92.502708,153.998245 
z"/>
<path fill="#FFFFFF" opacity="1.000000" stroke="none" 
	d="
M514.949463,102.026886 
	C523.046448,102.061089 531.180054,102.061089 539.656738,102.061089 
	C539.656738,110.481407 539.656738,118.872093 539.656738,127.632179 
	C531.777344,127.632179 523.604919,127.632179 515.003967,127.632179 
	C515.003967,119.383316 515.003967,111.124939 515.029297,102.393097 
	C515.054626,101.919632 514.986084,101.992683 514.949463,102.026886 
z"/>
<path fill="#FFFFFF" opacity="1.000000" stroke="none" 
	d="
M283.039124,205.965424 
	C274.675323,205.955612 266.274811,205.980286 257.402161,206.037445 
	C256.930054,197.623138 256.930054,189.176331 256.930054,180.004898 
	C265.405518,180.004898 273.768066,180.004898 282.603210,180.036942 
	C283.075867,180.068985 283.002441,180.000061 282.998749,180.437164 
	C282.973389,189.272842 282.951721,197.671387 282.930054,206.069946 
	C282.930054,206.069946 283.002380,205.999893 283.039124,205.965424 
z"/>
<path fill="#FFFFFF" opacity="1.000000" stroke="none" 
	d="
M334.402161,102.037445 
	C333.930054,93.943802 333.930054,85.817657 333.930054,76.995049 
	C351.103485,76.995049 368.114563,76.995049 385.597809,76.962555 
	C386.069946,85.056252 386.069946,93.182442 386.069946,102.004951 
	C368.896484,102.004951 351.885376,102.004951 334.402161,102.037445 
z"/>
<path fill="#000000" opacity="1.000000" stroke="none" 
	d="
M540.034302,386.043030 
	C540.068604,377.608154 540.068604,369.136597 540.068604,360.332642 
	C557.168396,360.332642 574.216492,360.332642 591.632690,360.332642 
	C591.632690,368.562592 591.632690,377.073822 591.632690,385.995514 
	C574.703796,385.995514 557.787720,385.995514 540.399170,385.966522 
	C539.926758,385.937531 539.999939,386.006348 540.034302,386.043030 
z"/>
<path fill="#000000" opacity="1.000000" stroke="none" 
	d="
M412.402130,360.037415 
	C411.951721,351.671387 411.973389,343.272858 411.962555,334.402161 
	C420.054779,333.930054 428.179504,333.930054 436.651886,333.930054 
	C436.651886,342.586212 436.651886,351.083862 436.651886,360.004913 
	C428.710144,360.004913 420.792175,360.004913 412.402130,360.037415 
z"/>
<path fill="#000000" opacity="1.000000" stroke="none" 
	d="
M462.597839,179.962555 
	C463.048279,188.328613 463.026611,196.727158 463.037445,205.597839 
	C454.612274,206.069946 446.154602,206.069946 437.348633,206.069946 
	C437.348633,197.414139 437.348633,188.915802 437.348633,179.995056 
	C445.624084,179.995056 453.874939,179.995056 462.597839,179.962555 
z"/>
<path fill="#000000" opacity="1.000000" stroke="none" 
	d="
M386.402161,206.037445 
	C385.951721,197.671387 385.973389,189.272842 385.962555,180.402161 
	C394.387726,179.930054 402.845398,179.930054 411.651367,179.930054 
	C411.651367,188.585861 411.651367,197.084198 411.651367,206.004944 
	C403.375916,206.004944 395.125061,206.004944 386.402161,206.037445 
z"/>
<path fill="#000000" opacity="1.000000" stroke="none" 
	d="
M283.402130,206.037445 
	C282.951721,197.671387 282.973389,189.272842 282.962555,180.402161 
	C291.376282,179.930054 299.822540,179.930054 309.004944,179.930054 
	C309.004944,188.403076 309.004944,196.764389 309.037445,205.597824 
	C300.671356,206.048279 292.272797,206.026611 283.402130,206.037445 
z"/>
<path fill="#000000" opacity="1.000000" stroke="none" 
	d="
M360.037415,205.597870 
	C351.671387,206.048279 343.272858,206.026611 334.402161,206.037445 
	C333.930054,197.623703 333.930054,189.177460 333.930054,179.995056 
	C342.403076,179.995056 350.764374,179.995056 359.597839,179.962555 
	C360.048279,188.328629 360.026611,196.727219 360.037415,205.597870 
z"/>
<path fill="#000000" opacity="1.000000" stroke="none" 
	d="
M386.037415,179.597870 
	C377.671387,180.048294 369.272858,180.026627 360.402161,180.037445 
	C359.930054,171.612274 359.930054,163.154602 359.930054,154.348618 
	C368.585876,154.348618 377.084229,154.348618 386.004913,154.348618 
	C386.004913,162.624100 386.004913,170.874954 386.037415,179.597870 
z"/>
<path fill="#000000" opacity="1.000000" stroke="none" 
	d="
M333.597839,205.962555 
	C334.048248,213.995270 334.026581,222.060501 334.037415,230.597839 
	C325.957062,231.069946 317.844147,231.069946 308.995056,231.069946 
	C308.995056,222.930923 308.995056,214.902603 308.962555,206.402161 
	C316.995300,205.951721 325.060547,205.973389 333.597839,205.962555 
z"/>
<path fill="#000000" opacity="1.000000" stroke="none" 
	d="
M231.402130,412.037415 
	C230.930054,394.840210 230.930054,377.610474 230.930054,360.011536 
	C239.793381,360.011536 248.184891,360.011536 256.995056,360.011536 
	C256.995056,351.389160 256.995056,343.131744 256.962555,334.402161 
	C273.995270,333.951721 291.060455,333.973389 308.597809,333.962555 
	C309.048279,342.328613 309.026611,350.727142 309.037445,359.597839 
	C300.603210,360.069946 292.136475,360.069946 283.293640,360.069946 
	C283.293640,368.500580 283.293640,376.895813 283.293640,385.841675 
	C274.425262,385.841675 265.904022,385.841675 257.022949,385.841675 
	C257.022949,394.779175 257.022949,403.174347 257.022949,412.004913 
	C248.394241,412.004913 240.134216,412.004913 231.402130,412.037415 
z"/>
<path fill="#000000" opacity="1.000000" stroke="none" 
	d="
M231.037445,308.597839 
	C214.184326,309.069946 197.298691,309.069946 179.995056,309.069946 
	C179.995056,300.377625 179.995056,292.125946 179.962555,283.402161 
	C196.815689,282.930054 213.701324,282.930054 231.004944,282.930054 
	C231.004944,291.622437 231.004944,299.874084 231.037445,308.597839 
z"/>
<path fill="#000000" opacity="1.000000" stroke="none" 
	d="
M257.037415,333.597870 
	C248.624680,334.069946 240.179428,334.069946 230.995056,334.069946 
	C230.995056,325.931458 230.995056,317.902863 230.962555,309.402161 
	C239.375336,308.930054 247.820602,308.930054 257.004913,308.930054 
	C257.004913,317.068573 257.004913,325.097198 257.037415,333.597870 
z"/>
<path fill="#000000" opacity="1.000000" stroke="none" 
	d="
M386.037415,359.597870 
	C369.004730,360.048279 351.939545,360.026611 334.402191,360.037445 
	C333.951721,351.671387 333.973389,343.272858 333.962555,334.402161 
	C350.995270,333.951721 368.060455,333.973389 385.597809,333.962555 
	C386.048279,342.328644 386.026611,350.727203 386.037415,359.597870 
z"/>
<path fill="#000000" opacity="1.000000" stroke="none" 
	d="
M489.402161,489.037415 
	C488.951721,480.671387 488.973389,472.272858 488.962555,463.402161 
	C505.715942,462.930054 522.501831,462.930054 539.643799,462.930054 
	C539.643799,471.580841 539.643799,480.089142 539.643799,489.004913 
	C523.029480,489.004913 506.451874,489.004913 489.402161,489.037415 
z"/>
<path fill="#000000" opacity="1.000000" stroke="none" 
	d="
M613.862793,618.000000 
	C606.411987,618.000000 599.446533,618.000000 592.242737,618.000000 
	C592.242737,609.290344 592.242737,600.886353 592.242737,592.240112 
	C600.715027,592.240112 609.118958,592.240112 617.998535,592.240112 
	C617.998535,600.086243 617.895447,607.865479 618.047913,615.639709 
	C618.111328,618.872681 615.953613,617.814819 613.862793,618.000000 
z"/>
<path fill="#000000" opacity="1.000000" stroke="none" 
	d="
M198.931854,334.000000 
	C201.407715,334.000000 203.391754,334.000000 205.687408,334.000000 
	C205.687408,342.564453 205.687408,350.969910 205.687408,359.689148 
	C197.433228,359.689148 189.027481,359.689148 180.309433,359.689148 
	C180.309433,351.430237 180.309433,343.024536 180.309433,334.000000 
	C186.252304,334.000000 192.346176,334.000000 198.931854,334.000000 
z"/>
<path fill="#000000" opacity="1.000000" stroke="none" 
	d="
M102.034569,334.043396 
	C102.068901,325.947968 102.068901,317.815857 102.068901,309.341949 
	C110.483238,309.341949 118.873329,309.341949 127.632515,309.341949 
	C127.632515,317.222137 127.632515,325.394043 127.632515,333.995544 
	C119.386177,333.995544 111.128990,333.995544 102.399429,333.966736 
	C101.927048,333.937897 102.000237,334.006714 102.034569,334.043396 
z"/>
<path fill="#010101" opacity="1.000000" stroke="none" 
	d="
M716.817322,153.999451 
	C692.221069,153.999496 668.105713,153.999496 643.778442,153.999496 
	C643.778442,128.217133 643.778442,102.813057 643.778442,77.110443 
	C669.339783,77.110443 694.882874,77.110443 720.888306,77.110443 
	C720.888306,80.162910 720.888367,83.117340 720.888367,86.071777 
	C720.888306,107.386208 720.846069,128.700821 720.940002,150.014832 
	C720.952148,152.773926 720.697571,154.656006 716.817322,153.999451 
z"/>
<path fill="#010101" opacity="1.000000" stroke="none" 
	d="
M76.814583,687.999878 
	C76.814583,673.044861 76.814583,658.589844 76.814583,643.852295 
	C102.551109,643.852295 127.948570,643.852295 153.672394,643.852295 
	C153.672394,669.236084 153.672394,694.774780 153.672394,720.600647 
	C128.328705,720.600647 102.939087,720.600647 76.814583,720.600647 
	C76.814583,709.961731 76.814583,699.230835 76.814583,687.999878 
z"/>
<path fill="#000000" opacity="1.000000" stroke="none" 
	d="
M92.003220,153.998245 
	C86.718979,153.998245 81.934227,153.998245 76.988525,153.998245 
	C76.988525,128.154587 76.988525,102.761681 76.988525,77.091415 
	C102.512360,77.091415 127.912056,77.091415 153.655273,77.091415 
	C153.655273,102.426163 153.655273,127.949554 153.655273,153.998245 
	C133.322067,153.998245 112.912384,153.998245 92.003220,153.998245 
z"/>
</svg>